<svg width="69" height="68" viewBox="0 0 69 68" fill="none" xmlns="http://www.w3.org/2000/svg">
<g id="svgexport-17 - 2023-11-07T102534.363 1" clip-path="url(#clip0_2773_187160)">
<g id="Group">
<path id="Vector" d="M61.7761 1.50623H7.23706V32.9711H61.7761V1.50623ZM59.6785 3.60388V26.6781H55.4832V22.4828H44.9949V26.6781H9.33472V3.60388H59.6785ZM53.3855 26.6781H47.0925V24.5804H53.3855V26.6781ZM9.33472 30.8734V28.7758H59.6785V30.8734H9.33472ZM68.0691 39.264H61.7761C61.7753 38.4298 61.4435 37.63 60.8536 37.0401C60.2637 36.4502 59.4639 36.1184 58.6296 36.1176H46.0437C45.2095 36.1184 44.4096 36.4502 43.8197 37.0401C43.2298 37.63 42.898 38.4298 42.8972 39.264H36.6042V45.557H38.7019V62.3383H40.7996V45.557H43.0902C43.3057 46.1688 43.7053 46.6989 44.2341 47.0745C44.7629 47.4501 45.3951 47.6527 46.0437 47.6547H47.0925V52.8988H42.8972V59.1918H44.9949V66.5336H47.0925V59.1918H57.5808V66.5336H59.6785V59.1918H61.7761V52.8988H57.5808V47.6547H58.6296C59.2783 47.6527 59.9104 47.4501 60.4392 47.0745C60.9681 46.6989 61.3677 46.1688 61.5831 45.557H63.8738V62.3383H65.9714V45.557H68.0691V39.264ZM38.7019 41.3617H42.8972V43.4594H38.7019V41.3617ZM59.6785 57.0941H44.9949V54.9965H59.6785V57.0941ZM55.4832 52.8988H49.1902V47.6547H55.4832V52.8988ZM59.6785 44.5082C59.6785 44.7863 59.568 45.0531 59.3713 45.2498C59.1746 45.4465 58.9078 45.557 58.6296 45.557H46.0437C45.7655 45.557 45.4988 45.4465 45.3021 45.2498C45.1054 45.0531 44.9949 44.7863 44.9949 44.5082V39.264C44.9949 38.9859 45.1054 38.7191 45.3021 38.5224C45.4988 38.3257 45.7655 38.2152 46.0437 38.2152H58.6296C58.9078 38.2152 59.1746 38.3257 59.3713 38.5224C59.568 38.7191 59.6785 38.9859 59.6785 39.264V44.5082ZM65.9714 43.4594H61.7761V41.3617H65.9714V43.4594ZM22.9695 36.1176H10.3835C9.5493 36.1184 8.74946 36.4502 8.15956 37.0401C7.56966 37.63 7.23789 38.4298 7.23706 39.264H0.944092V45.557H3.04175V62.3383H5.1394V45.557H7.43005C7.64553 46.1688 8.04512 46.6989 8.57395 47.0745C9.10278 47.4501 9.73491 47.6527 10.3835 47.6547H11.4324V52.8988H7.23706V59.1918H9.33472V66.5336H11.4324V59.1918H21.9207V66.5336H24.0183V59.1918H26.116V52.8988H21.9207V47.6547H22.9695C23.6181 47.6527 24.2502 47.4501 24.7791 47.0745C25.3079 46.6989 25.7075 46.1688 25.923 45.557H28.2136V62.3383H30.3113V45.557H32.4089V39.264H26.116C26.1151 38.4298 25.7834 37.63 25.1935 37.0401C24.6036 36.4502 23.8037 36.1184 22.9695 36.1176ZM3.04175 41.3617H7.23706V43.4594H3.04175V41.3617ZM24.0183 57.0941H9.33472V54.9965H24.0183V57.0941ZM19.823 52.8988H13.53V47.6547H19.823V52.8988ZM24.0183 44.5082C24.0183 44.7863 23.9078 45.0531 23.7111 45.2498C23.5144 45.4465 23.2476 45.557 22.9695 45.557H10.3835C10.1054 45.557 9.8386 45.4465 9.64191 45.2498C9.44522 45.0531 9.33472 44.7863 9.33472 44.5082V39.264C9.33472 38.9859 9.44522 38.7191 9.64191 38.5224C9.8386 38.3257 10.1054 38.2152 10.3835 38.2152H22.9695C23.2476 38.2152 23.5144 38.3257 23.7111 38.5224C23.9078 38.7191 24.0183 38.9859 24.0183 39.264V44.5082ZM30.3113 41.3617V43.4594H26.116V41.3617H30.3113Z" fill="black"/>
</g>
</g>
<defs>
<clipPath id="clip0_2773_187160">
<rect width="67.125" height="67.125" fill="white" transform="translate(0.944092 0.457153)"/>
</clipPath>
</defs>
</svg>
