<svg width="22" height="23" viewBox="0 0 22 23" fill="none" xmlns="http://www.w3.org/2000/svg">
<g id="dots-horizontal">
<path id="Vector" d="M19.6666 11.5C19.6666 12.2363 19.0696 12.8333 18.3333 12.8333C17.5969 12.8333 16.9999 12.2363 16.9999 11.5C16.9999 10.7636 17.5969 10.1666 18.3333 10.1666C19.0696 10.1666 19.6666 10.7636 19.6666 11.5ZM12.3333 11.5C12.3333 12.2363 11.7363 12.8333 10.9999 12.8333C10.2635 12.8333 9.66658 12.2363 9.66658 11.5C9.66658 10.7636 10.2635 10.1666 10.9999 10.1666C11.7363 10.1666 12.3333 10.7636 12.3333 11.5ZM4.99992 11.5C4.99992 12.2363 4.40296 12.8333 3.66659 12.8333C2.93021 12.8333 2.33325 12.2363 2.33325 11.5C2.33325 10.7636 2.93021 10.1666 3.66659 10.1666C4.40296 10.1666 4.99992 10.7636 4.99992 11.5Z" fill="#6B7280" stroke="#6B7280"/>
</g>
</svg>
