<svg width="127" height="127" viewBox="0 0 127 127" fill="none" xmlns="http://www.w3.org/2000/svg">
<g id="Group 1000002790">
<g id="Ellipse 33" filter="url(#filter0_b_2773_187142)">
<ellipse cx="62.8175" cy="63.1505" rx="62.8175" ry="63.1505" transform="matrix(-1 0 0 1 126.216 0.328979)" fill="#EEEFF2"/>
</g>
<path id="Vector" d="M53.8501 61.6114C49.7974 58.6438 47.1583 53.8411 47.1583 48.4305C47.1583 39.4396 54.4436 32.1249 63.3985 32.1249C72.3533 32.1249 79.6387 39.4396 79.6387 48.4305C79.6387 53.8411 76.9997 58.6438 72.9469 61.6114C83.0214 65.4822 90.1948 75.2894 90.1948 86.7489C90.1948 91.6939 86.1878 95.717 81.2627 95.717H45.5343C40.6091 95.717 36.6022 91.6939 36.6022 86.7489C36.6022 75.2894 43.7756 65.4822 53.8501 61.6114ZM74.7666 48.4305C74.7666 42.1369 69.6668 37.0166 63.3985 37.0166C57.1301 37.0166 52.0304 42.1369 52.0304 48.4305C52.0304 54.7242 57.1301 59.8446 63.3985 59.8446C69.6668 59.8446 74.7666 54.7242 74.7666 48.4305ZM45.5343 90.8252H81.2627C83.5013 90.8252 85.3227 88.9966 85.3227 86.7488C85.3227 74.6109 75.4876 64.7361 63.3983 64.7361C51.3091 64.7361 41.474 74.6107 41.474 86.7488C41.4742 88.9966 43.2955 90.8252 45.5343 90.8252Z" fill="#122333"/>
</g>
<defs>
<filter id="filter0_b_2773_187142" x="-48.6171" y="-48.8686" width="224.03" height="224.696" filterUnits="userSpaceOnUse" color-interpolation-filters="sRGB">
<feFlood flood-opacity="0" result="BackgroundImageFix"/>
<feGaussianBlur in="BackgroundImageFix" stdDeviation="24.5988"/>
<feComposite in2="SourceAlpha" operator="in" result="effect1_backgroundBlur_2773_187142"/>
<feBlend mode="normal" in="SourceGraphic" in2="effect1_backgroundBlur_2773_187142" result="shape"/>
</filter>
</defs>
</svg>
