<svg width="19" height="19" viewBox="0 0 19 19" fill="none" xmlns="http://www.w3.org/2000/svg">
<g id="Group 1000002821">
<path id="Vector" d="M5.79281 0.365601L13.1982 0.365601C16.4149 0.365601 18.3325 2.28323 18.3325 5.4999V12.8965C18.3325 16.122 16.4149 18.0396 13.1982 18.0396H5.80165C2.58498 18.0396 0.667349 16.122 0.667349 12.9053V5.4999C0.65851 2.28323 2.57614 0.365601 5.79281 0.365601Z" fill="white"/>
<path id="Vector_2" d="M9.49585 11.7741C9.66375 11.7741 9.83166 11.7122 9.96421 11.5797L13.0837 8.46023C13.3399 8.20395 13.3399 7.77978 13.0837 7.5235C12.8274 7.26723 12.4032 7.26723 12.147 7.5235L9.49585 10.1746L6.84475 7.5235C6.58848 7.26723 6.1643 7.26723 5.90803 7.5235C5.65175 7.77978 5.65175 8.20395 5.90803 8.46023L9.02749 11.5797C9.16004 11.7122 9.32795 11.7741 9.49585 11.7741Z" fill="#444444"/>
</g>
</svg>
