<svg width="15" height="14" viewBox="0 0 15 14" fill="none" xmlns="http://www.w3.org/2000/svg">
<g id="thumbs-up">
<g id="Vector">
<path d="M3.88793 5.4381H1.90948C1.73458 5.4381 1.56684 5.4979 1.44316 5.60436C1.31948 5.71082 1.25 5.8552 1.25 6.00576V11.1147C1.25 11.4158 1.38896 11.7046 1.63632 11.9175C1.88367 12.1304 2.21915 12.25 2.56897 12.25H3.22845C3.57826 12.25 3.91374 12.1304 4.1611 11.9175C4.40845 11.7046 4.54742 11.4158 4.54742 11.1147V6.00576C4.54742 5.8552 4.47793 5.71082 4.35426 5.60436C4.23058 5.4979 4.06284 5.4381 3.88793 5.4381Z" fill="white"/>
<path d="M12.4309 5.4381H9.82328L10.8508 2.88363C10.8845 2.64988 10.8221 2.41334 10.6746 2.21499C10.527 2.01663 10.3035 1.86895 10.0427 1.79752C9.78193 1.7261 9.50036 1.73542 9.24674 1.82389C8.99313 1.91235 8.78345 2.07438 8.65402 2.28191C7.89177 3.40164 6.95372 4.42551 5.86638 5.32456V10.7661H5.94156C7.33241 11.0971 9.17369 11.6823 10.8785 11.6823C11.8017 11.6823 11.9283 11.3838 12.1183 10.9347L13.6707 6.96112C13.7431 6.78962 13.7664 6.60563 13.7386 6.42472C13.7109 6.24382 13.6329 6.07135 13.5112 5.92191C13.3896 5.77247 13.2279 5.65048 13.0398 5.56626C12.8517 5.48204 12.6429 5.43807 12.4309 5.4381Z" fill="white"/>
</g>
</g>
</svg>
