<svg width="102" height="113" viewBox="0 0 102 113" fill="none" xmlns="http://www.w3.org/2000/svg">
<g opacity="0.41" filter="url(#filter0_f_477_542)">
<path d="M65.8205 35.205C61.374 40.36 44.8765 59.4665 37.9757 57.5406C31.0749 55.6146 35.0266 59.9049 36.4288 54.8809C39.077 45.392 63.2695 37.4578 60.9898 37.159C67.8906 39.0849 69.4444 31.0037 65.8205 35.205Z" fill="url(#paint0_linear_477_542)" fill-opacity="0.64"/>
</g>
<path d="M62.0739 55.8384V106.202C62.0739 107.758 61.03 109.293 58.963 110.465C54.8286 112.829 48.0944 112.829 43.9395 110.465C41.8726 109.293 40.849 107.758 40.849 106.202H40.8286V55.8384H62.0739Z" fill="#888ABF"/>
<path d="M62.0739 51.8853V102.249C62.0739 103.804 61.03 105.34 58.963 106.512C54.8286 108.876 48.0944 108.876 43.9395 106.512C41.8726 105.34 40.849 103.805 40.849 102.249H40.8286V51.8853H62.0739Z" fill="#AEB2F4"/>
<path d="M58.9699 56.1705C54.8212 58.5351 48.0946 58.5351 43.9457 56.1703C39.7968 53.8056 39.7968 49.9721 43.9455 47.6074C48.0941 45.2428 54.8207 45.2428 58.9694 47.6077C63.1185 49.9721 63.1185 53.8059 58.9699 56.1705Z" fill="#D7DAFF"/>
<path d="M52.4247 44.1978V51.9178C52.4247 52.0597 52.3296 52.1995 52.1409 52.3068C51.7636 52.5226 51.1495 52.5226 50.7702 52.3068C50.5816 52.1998 50.4884 52.0597 50.4884 51.9178H50.4863V44.1978H52.4247Z" fill="#3B4951"/>
<path d="M52.1416 44.5885C51.7631 44.8044 51.1493 44.8044 50.7707 44.5885C50.3922 44.3727 50.3922 44.0232 50.7707 43.8074C51.1493 43.5916 51.7627 43.5916 52.1416 43.8074C52.52 44.0232 52.52 44.373 52.1416 44.5885Z" fill="#5D7280"/>
<path d="M56.6701 42.0652C56.1995 44.4899 54.0504 46.3287 51.4508 46.3287C48.8924 46.3287 46.7432 44.5101 46.2725 42.126C46.436 41.4593 46.8045 40.7318 47.2755 39.9842C48.8104 37.4788 51.4508 34.6501 51.4508 32.6092C51.4508 30.4876 54.3165 35.4583 55.831 39.3982C56.2198 40.4086 56.5268 41.3378 56.6701 42.0652Z" fill="#F3AE00"/>
<path d="M56.7522 42.8532C56.7522 45.7224 54.3782 48.0659 51.4512 48.0659C48.5447 48.0659 46.1704 45.7224 46.1704 42.8532C46.1704 42.6308 46.2115 42.3884 46.2728 42.1257C46.7436 44.51 48.8928 46.3283 51.4512 46.3283C54.0507 46.3283 56.1999 44.4896 56.6704 42.0649C56.7116 42.3683 56.7522 42.631 56.7522 42.8532Z" fill="#F08700"/>
<path d="M55.8308 39.3982C55.3399 41.3176 53.559 42.732 51.4507 42.732C49.5677 42.732 47.9508 41.6005 47.2754 39.9842C48.8103 37.4788 51.4507 34.6502 51.4507 32.6092C51.4509 30.4876 54.3164 35.4581 55.8308 39.3982Z" fill="#F6D13A"/>
<defs>
<filter id="filter0_f_477_542" x="0.527832" y="0.476562" width="100.688" height="90.6997" filterUnits="userSpaceOnUse" color-interpolation-filters="sRGB">
<feFlood flood-opacity="0" result="BackgroundImageFix"/>
<feBlend mode="normal" in="SourceGraphic" in2="BackgroundImageFix" result="shape"/>
<feGaussianBlur stdDeviation="16.75" result="effect1_foregroundBlur_477_542"/>
</filter>
<linearGradient id="paint0_linear_477_542" x1="34.8072" y1="58.2752" x2="58.8747" y2="48.5654" gradientUnits="userSpaceOnUse">
<stop/>
<stop offset="1" stop-opacity="0"/>
</linearGradient>
</defs>
</svg>
