<svg width="18" height="18" viewBox="0 0 70 70" fill="none" xmlns="http://www.w3.org/2000/svg">
<g id="svgexport-17 - 2023-11-26T100006.348 1">
<g id="Group">
<path id="Vector" d="M2.1875 51.4062L18.5938 22.9688H51.4062L67.8125 51.4062H2.1875Z" fill="#93622C"/>
<path id="Vector_2" d="M51.4063 22.9688H18.5938L13.3525 32.0534C17.2419 37.2652 29.3136 41.0659 43.6111 41.0659C49.3646 41.1063 55.1007 40.4318 60.6879 39.0578L51.4063 22.9688Z" fill="#A56C34"/>
<path id="Vector_3" d="M2.1875 51.4062H67.8125V64.5312H2.1875V51.4062Z" fill="#C48857"/>
<path id="Vector_4" d="M67.8125 51.4062V64.5312H35V60.1562H38.2812C38.8614 60.1562 39.4178 59.9258 39.828 59.5155C40.2383 59.1053 40.4688 58.5489 40.4688 57.9688C40.4688 57.3886 40.2383 56.8322 39.828 56.422C39.4178 56.0117 38.8614 55.7812 38.2812 55.7812H35V51.4062H67.8125Z" fill="#B57841"/>
<g id="Group_2">
<path id="Vector_5" d="M28.1171 44.5233C28.9149 43.7301 29.5474 42.7865 29.9779 41.7471C30.4084 40.7078 30.6284 39.5933 30.625 38.4683V34.4531C30.6191 33.0208 30.146 31.6295 29.2775 30.4905C30.3553 29.798 31.2431 28.8474 31.8604 27.7249C32.4777 26.6024 32.805 25.3435 32.8125 24.0625V22.9688H30.625V24.0625C30.6195 25.06 30.3428 26.0373 29.8245 26.8896C29.3062 27.7419 28.5659 28.4373 27.6828 28.9012C27.2365 28.4957 26.8788 28.0023 26.6322 27.4519C26.3857 26.9016 26.2555 26.3062 26.25 25.7031V22.9688H24.0625V25.7031C24.0651 26.7215 24.3034 27.7254 24.7588 28.6362C25.2142 29.5471 25.8744 30.3401 26.6875 30.9531C27.2296 31.3618 27.6697 31.8905 27.9734 32.4977C28.277 33.1049 28.4358 33.7742 28.4375 34.4531V38.4683C28.44 39.3059 28.2763 40.1357 27.9558 40.9096C27.6353 41.6835 27.1645 42.3861 26.5705 42.9767C25.7727 43.7699 25.1402 44.7135 24.7097 45.7529C24.2792 46.7922 24.0592 47.9067 24.0625 49.0317V51.4062H26.25V49.0317C26.2476 48.1941 26.4113 47.3643 26.7318 46.5904C27.0523 45.8165 27.5231 45.1139 28.1171 44.5233Z" fill="#754317"/>
<path id="Vector_6" d="M21.4834 43.1922C22.8043 42.998 24.0117 42.3364 24.8864 41.3277C25.761 40.319 26.2448 39.0301 26.25 37.695V36.7292C26.2506 35.9959 26.0202 35.2809 25.5914 34.686C25.1626 34.0911 24.5572 33.6464 23.8612 33.4152C23.6012 33.3289 23.3749 33.1628 23.2147 32.9405C23.0544 32.7182 22.9684 32.4511 22.9688 32.177V22.9688H20.7812V32.177C20.7806 32.9104 21.0111 33.6253 21.4399 34.2202C21.8687 34.8151 22.4741 35.2598 23.17 35.4911C23.4301 35.5774 23.6563 35.7435 23.8166 35.9658C23.9768 36.188 24.0629 36.4552 24.0625 36.7292V37.695C24.0591 38.5042 23.7656 39.2853 23.2354 39.8966C22.7052 40.5079 21.9734 40.9088 21.1728 41.0266C19.8519 41.2208 18.6445 41.8823 17.7699 42.891C16.8953 43.8997 16.4114 45.1887 16.4062 46.5237V51.4062H18.5938V46.5237C18.5972 45.7146 18.8906 44.9334 19.4208 44.3221C19.951 43.7109 20.6829 43.3099 21.4834 43.1922Z" fill="#754317"/>
<path id="Vector_7" d="M18.41 35.607C18.5125 35.4554 18.5757 35.2806 18.5938 35.0984L19.6875 22.9688H18.5938L17.29 25.2284L16.4358 34.6248L13.6675 38.7811C11.1711 42.5181 9.84027 46.9121 9.84376 51.4062H12.0313C12.0276 47.3425 13.2305 43.3691 15.4875 39.9897L18.41 35.607ZM57.9688 50.3125C57.9612 49.0315 57.6339 47.7726 57.0166 46.6501C56.3993 45.5276 55.5115 44.577 54.4338 43.8845C55.3023 42.7455 55.7754 41.3542 55.7813 39.9219V35.9067C55.7846 34.7817 55.5646 33.6672 55.1341 32.6279C54.7036 31.5885 54.0711 30.6449 53.2733 29.8517C52.6793 29.2611 52.2085 28.5585 51.888 27.7846C51.5675 27.0107 51.4038 26.1809 51.4063 25.3433V22.9688H49.2188V25.3433C49.2154 26.4683 49.4354 27.5828 49.8659 28.6221C50.2964 29.6615 50.9289 30.6051 51.7267 31.3983C52.3207 31.9889 52.7915 32.6915 53.112 33.4654C53.4325 34.2393 53.5962 35.0691 53.5938 35.9067V39.9219C53.5921 40.6008 53.4332 41.2701 53.1296 41.8773C52.826 42.4845 52.3859 43.0132 51.8438 43.4219C51.0306 44.0349 50.3704 44.8279 49.915 45.7388C49.4596 46.6496 49.2213 47.6535 49.2188 48.6719V51.4062H51.4063V48.6719C51.4118 48.0688 51.5419 47.4734 51.7885 46.9231C52.035 46.3727 52.3927 45.8793 52.8391 45.4738C53.7222 45.9377 54.4625 46.6331 54.9807 47.4854C55.499 48.3377 55.7757 49.315 55.7813 50.3125V51.4062H57.9688V50.3125Z" fill="#754317"/>
<path id="Vector_8" d="M49.0175 40.9598C49.7134 40.7286 50.3188 40.2839 50.7476 39.689C51.1764 39.0941 51.4069 38.3791 51.4062 37.6458V36.68C51.4011 35.3449 50.9172 34.056 50.0426 33.0473C49.168 32.0386 47.9606 31.377 46.6397 31.1828C45.8391 31.0651 45.1073 30.6641 44.5771 30.0529C44.0469 29.4416 43.7534 28.6604 43.75 27.8513V22.9688H41.5625V27.8513C41.5677 29.1863 42.0515 30.4753 42.9261 31.484C43.8008 32.4927 45.0082 33.1542 46.3291 33.3484C47.1296 33.4662 47.8615 33.8671 48.3917 34.4784C48.9219 35.0897 49.2153 35.8708 49.2188 36.68V37.6458C49.2191 37.9198 49.1331 38.187 48.9728 38.4092C48.8126 38.6315 48.5863 38.7976 48.3262 38.8839C47.6303 39.1152 47.0249 39.5599 46.5961 40.1548C46.1673 40.7497 45.9369 41.4646 45.9375 42.198V51.4062H48.125V42.198C48.1246 41.924 48.2107 41.6568 48.3709 41.4345C48.5312 41.2122 48.7574 41.0461 49.0175 40.9598Z" fill="#754317"/>
<path id="Vector_9" d="M43.75 39.2766C43.7332 39.0948 43.6716 38.92 43.5706 38.768L40.6437 34.3853C38.3868 31.0059 37.1839 27.0325 37.1875 22.9688H33.9062V51.4062H36.0938V29.9162C36.7368 31.9281 37.6571 33.8405 38.8281 35.5983L41.5964 39.7545L42.6562 51.4062H44.8547L44.8438 51.3078L43.75 39.2766Z" fill="#754317"/>
</g>
<path id="Vector_10" d="M2.1875 36.0938H67.8125V40.4688H2.1875V36.0938Z" fill="#D39D63"/>
<path id="Vector_11" d="M67.8125 36.0938L51.4062 17.5H18.5938L2.1875 36.0938H67.8125Z" fill="#B57841"/>
<path id="Vector_12" d="M2.1875 24.0625H67.8125V28.4375H2.1875V24.0625Z" fill="#FCD7A7"/>
<path id="Vector_13" d="M67.8125 24.0625L51.4062 5.46875H18.5938L2.1875 24.0625H67.8125Z" fill="#D39D63"/>
<path id="Vector_14" d="M10.4365 14.7131C18.5708 15.8884 26.7814 16.4543 35 16.4062C43.2185 16.4543 51.4292 15.8884 59.5634 14.7131L51.4062 5.46875H18.5937L10.4365 14.7131Z" fill="#EAB87D"/>
</g>
</g>
</svg>
