<svg width="18" height="18" viewBox="0 0 18 18" fill="none" xmlns="http://www.w3.org/2000/svg">
<g id="svgexport-6 (7) 1" clip-path="url(#clip0_13_56949)">
<g id="Group">
<path id="Vector" d="M12.9014 5.939C12.5471 5.55222 11.9963 5.03017 11.762 6.20894C11.6823 6.60974 11.4961 6.91869 11.3366 7.16745C11.1646 6.29713 10.6473 5.3963 10.1598 4.78891C9.97736 4.56167 9.3301 3.65831 9.20576 2.14704C9.1872 1.92149 8.91928 1.81557 8.7517 1.96771C7.15025 3.42148 6.27123 5.4209 6.23859 7.67184C6.23859 7.67184 5.57174 7.10975 5.20946 6.06405C5.11191 5.78245 4.73439 5.72873 4.5706 5.97772C4.54007 6.02413 4.51109 6.07155 4.48371 6.11989C3.24812 8.30466 2.65375 10.9578 3.20323 13.4261C4.12196 17.5598 10.1993 18.7154 13.4166 16.1173C16.5644 13.5754 15.5638 8.84434 12.9014 5.939Z" fill="#ED694A"/>
<path id="Vector_2" d="M4.0585 13.6856C3.5154 11.1909 4.09027 8.51195 5.29684 6.29298C5.26548 6.21756 5.23637 6.14123 5.20955 6.06408C5.112 5.78248 4.73448 5.72876 4.57069 5.97775C4.54017 6.02417 4.5112 6.07158 4.48383 6.11993C3.24824 8.30469 2.65387 10.9578 3.20335 13.4261C3.62241 15.3116 5.11482 16.5771 6.91945 17.1498C5.51163 16.4678 4.40916 15.2988 4.0585 13.6856ZM7.09808 7.6304C7.16478 5.58751 7.90369 3.7557 9.22617 2.34848C9.21833 2.28214 9.2116 2.21567 9.20598 2.1491C9.18702 1.92162 8.9289 1.80754 8.76205 1.95835C7.21529 3.3568 6.27252 5.336 6.23868 7.67177L6.52818 7.89659C6.67075 8.00733 6.86393 8.00251 7.0001 7.90107C7.08134 7.83221 7.093 7.72829 7.09808 7.6304Z" fill="#D8553A"/>
<path id="Vector_3" d="M11.93 8.96078C11.6683 8.6751 11.2615 8.28948 11.0884 9.16017C11.0296 9.45617 10.8921 9.68441 10.7743 9.86816C10.6473 9.22531 10.2651 8.55992 9.90506 8.11131C9.77032 7.94347 9.29226 7.27625 9.20039 6.15993C9.18667 5.99332 8.98881 5.91513 8.86503 6.02749C7.68217 7.10124 7.03289 8.57812 7.00881 10.2407C7.00881 10.2407 6.51624 9.82549 6.24869 9.05312C6.17664 8.84514 5.89777 8.80546 5.77681 8.98937C5.75426 9.02366 5.73285 9.05868 5.71263 9.09439C4.79998 10.7081 4.36096 12.6677 4.76681 14.4909C5.44541 17.5441 9.93421 18.3977 12.3106 16.4787C14.6356 14.6012 13.8966 11.1068 11.93 8.96078Z" fill="#F4A32C"/>
<path id="Vector_4" d="M5.61306 14.7304C5.25374 12.9482 5.62591 11.0358 6.41499 9.44343C6.35055 9.31734 6.29493 9.18694 6.24854 9.05316C6.17649 8.84517 5.89762 8.80546 5.77666 8.98937C5.7541 9.02367 5.73269 9.0587 5.71247 9.09443C4.79985 10.7081 4.36087 12.6677 4.76665 14.4909C5.08228 15.9109 6.22218 16.8548 7.59028 17.2656C6.61826 16.7781 5.85292 15.9217 5.61306 14.7304Z" fill="#E89528"/>
<path id="Vector_5" d="M11.0432 11.7195C10.8661 11.5261 10.5906 11.265 10.4735 11.8545C10.4336 12.0549 10.3405 12.2093 10.2608 12.3337C10.1748 11.8985 9.91611 11.4481 9.67233 11.1445C9.58116 11.0308 9.25753 10.5792 9.1953 9.8235C9.18601 9.71071 9.0521 9.65775 8.96829 9.73385C8.16757 10.4607 7.72806 11.4605 7.71175 12.5859C7.71175 12.5859 7.37829 12.3048 7.1972 11.782C7.14843 11.6412 6.95967 11.6144 6.87779 11.7389C6.86252 11.7621 6.84802 11.7858 6.83433 11.8099C6.21655 12.9023 5.91935 14.2289 6.19407 15.4631C6.65344 17.5299 9.69209 18.1077 11.3007 16.8087C11.8516 16.3638 12.1932 15.737 12.2624 15.0436C12.367 13.9934 11.9628 12.7231 11.0432 11.7195Z" fill="#F4D44E"/>
<path id="Vector_6" d="M10.2202 14.2795C10.1215 14.1718 9.96808 14.0263 9.9028 14.3547C9.88062 14.4664 9.82876 14.5524 9.7843 14.6217C9.73639 14.3793 9.59228 14.1283 9.45648 13.9591C9.40568 13.8958 9.22536 13.6442 9.19069 13.2232C9.18551 13.1603 9.11087 13.1309 9.06422 13.1732C8.61814 13.5782 8.37323 14.1352 8.36417 14.7622C8.36417 14.7622 8.1784 14.6056 8.07749 14.3143C8.0503 14.2359 7.94514 14.2209 7.89956 14.2903C7.89079 14.3036 7.88269 14.3169 7.87538 14.3299C7.5312 14.9385 7.36562 15.6775 7.51868 16.3651C7.86725 17.9334 10.7243 17.8858 10.8996 16.1314C10.9577 15.5464 10.7325 14.8386 10.2202 14.2795Z" fill="#EAE9E8"/>
<path id="Vector_7" d="M8.18205 16.6764C8.02898 16.0613 8.19457 15.4002 8.53875 14.8558C8.54605 14.8442 8.55419 14.8323 8.56292 14.8204C8.60854 14.7583 8.7137 14.7717 8.74086 14.8419C8.84176 15.1024 9.02753 15.2425 9.02753 15.2425C9.035 14.7817 9.20195 14.3633 9.50858 14.0277C9.44002 13.9328 9.23024 13.7038 9.19069 13.2233C9.18551 13.1604 9.11087 13.131 9.06422 13.1733C8.61814 13.5783 8.37323 14.1353 8.36417 14.7623C8.36417 14.7623 8.1784 14.6057 8.07749 14.3144C8.05033 14.236 7.94514 14.221 7.89956 14.2904C7.89079 14.3037 7.88269 14.317 7.87538 14.33C7.5312 14.9386 7.36562 15.6776 7.51868 16.3652C7.66033 17.0026 8.24225 17.3856 8.88559 17.478C8.53855 17.3076 8.27183 17.0377 8.18205 16.6764Z" fill="#F7E7A1"/>
<path id="Vector_8" d="M6.62927 2.75934C7.34729 2.17533 7.34569 1.08271 6.62927 0.500031C5.91125 1.08401 5.91281 2.17666 6.62927 2.75934ZM15.2354 7.44656C15.9534 6.86255 15.9518 5.76993 15.2354 5.18725C14.9072 5.45414 14.5189 6.86387 15.2354 7.44656ZM2.51829 7.89125C3.03576 7.47033 3.03463 6.68292 2.51829 6.26293C2.28178 6.45528 2.00195 7.47129 2.51829 7.89125ZM11.4806 4.38765C11.9981 3.96674 11.997 3.17932 11.4806 2.75934C10.9631 3.18022 10.9643 3.9677 11.4806 4.38765Z" fill="#D8553A"/>
<path id="Vector_9" d="M7.66891 9.97368C7.78774 8.57078 8.32348 7.32337 9.22302 6.3724C9.21369 6.30179 9.20611 6.23096 9.20027 6.15997C9.18656 5.99336 8.9887 5.91516 8.86492 6.02752C7.9276 6.87839 7.32602 7.98259 7.10442 9.23152L7.10409 9.23143C7.08481 9.3422 7.06824 9.45343 7.05439 9.56502C7.05442 9.56511 7.05446 9.5652 7.05452 9.56528C7.02724 9.78946 7.01193 10.0149 7.00867 10.2407C7.0337 10.2456 7.60041 10.5369 7.66891 9.97368Z" fill="#E89528"/>
<path id="Vector_10" d="M7.02212 15.7562C6.77792 14.6033 6.9859 13.3737 7.46907 12.3084C7.35384 12.1468 7.26231 11.9695 7.19724 11.782C7.14843 11.6412 6.9597 11.6143 6.87779 11.7388C6.86252 11.762 6.84802 11.7857 6.83433 11.8099C6.21655 12.9023 5.91935 14.2288 6.19407 15.463C6.40923 16.431 7.19007 17.0723 8.12477 17.3473C7.5807 16.9861 7.16915 16.4515 7.02212 15.7562ZM8.59333 12.0821C8.67428 11.5035 8.91092 10.866 9.28342 10.3331C9.24285 10.1826 9.21094 10.0126 9.19537 9.8235C9.18607 9.71071 9.05213 9.65775 8.96836 9.73385C8.46945 10.1868 8.11135 10.7459 7.90792 11.375L7.90739 11.3749C7.87538 11.4737 7.83012 11.6375 7.8027 11.7667C7.80293 11.7667 7.80316 11.7667 7.80339 11.7666C7.74624 12.036 7.71559 12.3104 7.71189 12.5859C8.15986 12.6418 8.53044 12.5309 8.59333 12.0821Z" fill="#E8C842"/>
</g>
</g>
<defs>
<clipPath id="clip0_13_56949">
<rect width="17" height="17" fill="white" transform="translate(0.5 0.500031)"/>
</clipPath>
</defs>
</svg>
