<svg width="19" height="18" viewBox="0 0 19 18" fill="none" xmlns="http://www.w3.org/2000/svg">
<g id="svgexport-21 (6) 2" clip-path="url(#clip0_13_56936)">
<g id="Group">
<path id="Vector" d="M16.7674 3.29652H15.1066L15.046 4.52769H15.8359C16.034 4.52769 16.224 4.60638 16.364 4.74644C16.5041 4.8865 16.5828 5.07647 16.5828 5.27455V11.8003C16.5828 11.952 16.6431 12.0976 16.7504 12.205C16.8577 12.3123 17.0033 12.3726 17.1551 12.3726H17.1665C17.3183 12.3726 17.4639 12.3123 17.5712 12.205C17.6785 12.0976 17.7388 11.952 17.7388 11.8003V4.26795C17.7388 4.01031 17.6365 3.76322 17.4543 3.58104C17.2721 3.39886 17.0251 3.29652 16.7674 3.29652Z" fill="#D9E2E9"/>
<path id="Vector_2" d="M17.194 4.2792C17.4123 6.70119 17.3746 9.44661 17.194 12.3726C17.3411 12.3725 17.4825 12.3158 17.589 12.2143C17.6954 12.1128 17.7587 11.9742 17.7658 11.8272C17.9078 8.92419 17.9642 6.23839 17.7377 4.26781C17.7377 3.77112 17.4492 3.40395 16.9071 3.29637C16.8685 3.28878 16.6948 3.24364 16.6422 3.23084C16.1372 3.12722 15.6194 3.10053 15.1064 3.15167L15.0825 3.76297H16.6772C16.745 3.76291 16.8122 3.77622 16.8749 3.80214C16.9376 3.82806 16.9946 3.86607 17.0426 3.91401C17.0906 3.96195 17.1286 4.01888 17.1546 4.08154C17.1806 4.1442 17.194 4.21137 17.194 4.2792Z" fill="#F0F5F9"/>
<path id="Vector_3" d="M17.1834 12.5055H17.1352C16.9496 12.5036 16.7721 12.4291 16.6407 12.298C16.5093 12.1669 16.4344 11.9895 16.4321 11.8039C16.3943 9.56249 16.3906 7.35861 16.3906 5.10959C16.3906 4.98582 16.3414 4.86711 16.254 4.7795C16.1665 4.6919 16.0479 4.64256 15.9241 4.6423H15.9199C15.591 4.64511 15.324 4.65313 15.0538 4.66803C15.0342 4.66901 15.0146 4.66591 14.9962 4.65894C14.9779 4.65197 14.9611 4.64128 14.9471 4.62753C14.933 4.61377 14.922 4.59721 14.9147 4.57892C14.9075 4.56063 14.9041 4.54102 14.9049 4.52136L14.9656 3.14548C14.9672 3.10927 14.9828 3.07507 15.009 3.05002C15.0352 3.02498 15.07 3.01101 15.1063 3.01105H15.1085C15.2539 3.01344 15.3951 3.01259 15.5334 3.01203C16.1304 3.00908 16.6917 3.00655 17.2862 3.2442C17.8411 3.52109 17.8804 3.98952 17.915 4.40366C17.921 4.4772 17.9272 4.55075 17.9361 4.62317C18.1604 6.4333 18.0636 8.33989 17.9702 10.1838C17.943 10.7228 17.914 11.2806 17.8954 11.8204C17.8876 12.0042 17.8092 12.1779 17.6766 12.3055C17.544 12.4331 17.3674 12.5047 17.1834 12.5055ZM15.9243 4.36105C16.1226 4.36138 16.3127 4.44039 16.4529 4.58072C16.593 4.72106 16.6718 4.91126 16.6719 5.10959C16.6719 7.35734 16.6754 9.56038 16.7132 11.7984C16.7145 11.9109 16.7599 12.0184 16.8395 12.0978C16.9191 12.1773 17.0267 12.2224 17.1391 12.2235H17.1773C17.2894 12.224 17.3974 12.1813 17.4788 12.1043C17.5603 12.0272 17.6089 11.9218 17.6146 11.8098C17.6339 11.2676 17.6621 10.709 17.6894 10.169C17.7822 8.33722 17.8783 6.44314 17.6572 4.65734C17.6482 4.58062 17.6408 4.50373 17.6349 4.42672C17.6024 4.03761 17.5742 3.70166 17.1708 3.50028C16.6378 3.28766 16.1268 3.28934 15.5343 3.29286C15.4377 3.29286 15.3401 3.29384 15.2403 3.29286L15.1925 4.37848C15.4164 4.36822 15.646 4.36245 15.9166 4.3602L15.9243 4.36105Z" fill="#2F3A5A"/>
<path id="Vector_4" d="M1.0625 0.14061L2.76266 2.74892L3.36889 16.2152C3.39083 16.6585 3.58236 17.0764 3.90385 17.3825C4.22534 17.6885 4.65218 17.8593 5.09605 17.8594H12.7428C13.1867 17.8593 13.6136 17.6886 13.9351 17.3825C14.2566 17.0765 14.4482 16.6585 14.4701 16.2152L15.2621 0.14061H1.0625Z" fill="#F0F5F9"/>
<path id="Vector_5" d="M3.70178 7.05486L4.11058 16.1392C4.12149 16.3649 4.21888 16.5777 4.38253 16.7335C4.54618 16.8893 4.76353 16.9761 4.98949 16.976H12.8483C13.0743 16.9762 13.2916 16.8894 13.4553 16.7336C13.6189 16.5778 13.7164 16.3651 13.7274 16.1394L14.175 7.055L3.70178 7.05486Z" fill="#3DBCE9"/>
<path id="Vector_6" d="M15.2634 0.141457L14.4688 16.2149C14.4475 16.6582 14.2564 17.0763 13.9351 17.3825C13.6137 17.6887 13.1869 17.8594 12.7431 17.8594H9.72498C10.169 17.8591 10.5959 17.6883 10.9176 17.3823C11.2393 17.0763 11.4312 16.6585 11.4537 16.215L12.2453 0.141597L15.2634 0.141457Z" fill="#2F3A5A" fill-opacity="0.082"/>
<g id="Group_2">
<path id="Vector_7" d="M12.7428 18H5.09608C4.6159 18.0005 4.15397 17.8161 3.80616 17.485C3.45835 17.1539 3.25136 16.7017 3.22816 16.2221L2.62347 2.7935L0.944686 0.217391C0.930856 0.196169 0.923014 0.171605 0.92199 0.146294C0.920966 0.120984 0.926798 0.0958665 0.938869 0.0735965C0.95094 0.0513264 0.968803 0.0327305 0.99057 0.0197734C1.01234 0.00681638 1.0372 -2.05995e-05 1.06253 -1.51573e-05H15.2621C15.2812 -3.80552e-05 15.3001 0.00381454 15.3176 0.0113086C15.3351 0.0188026 15.3509 0.0297816 15.3641 0.0435785C15.3772 0.0573755 15.3875 0.0737023 15.3941 0.0915672C15.4008 0.109432 15.4037 0.128462 15.4028 0.1475L14.6108 16.2221C14.5875 16.7016 14.3804 17.1538 14.0326 17.4849C13.6849 17.8159 13.223 18.0004 12.7428 18ZM1.32212 0.281235L2.88053 2.67186C2.89421 2.69286 2.90202 2.71714 2.90317 2.74217L3.50941 16.2084C3.52914 16.6158 3.70496 17 4.0004 17.2812C4.29583 17.5624 4.6882 17.7191 5.09608 17.7187H12.7428C13.1507 17.7191 13.5431 17.5624 13.8386 17.2811C14.134 16.9999 14.3099 16.6157 14.3297 16.2083L15.1143 0.281235H1.32212Z" fill="#2F3A5A"/>
<path id="Vector_8" d="M7.07513 4.66873H5.94226C5.90496 4.66873 5.86919 4.65392 5.84282 4.62755C5.81645 4.60117 5.80163 4.56541 5.80163 4.52811C5.80163 4.49081 5.81645 4.45505 5.84282 4.42867C5.86919 4.4023 5.90496 4.38748 5.94226 4.38748H7.07513C7.11243 4.38748 7.1482 4.4023 7.17457 4.42867C7.20094 4.45505 7.21576 4.49081 7.21576 4.52811C7.21576 4.56541 7.20094 4.60117 7.17457 4.62755C7.1482 4.65392 7.11243 4.66873 7.07513 4.66873ZM6.50869 6.46873H5.94226C5.90496 6.46873 5.86919 6.45392 5.84282 6.42755C5.81645 6.40117 5.80163 6.36541 5.80163 6.32811C5.80163 6.29081 5.81645 6.25504 5.84282 6.22867C5.86919 6.2023 5.90496 6.18748 5.94226 6.18748H6.50855C6.54585 6.18748 6.58162 6.2023 6.60799 6.22867C6.63436 6.25504 6.64918 6.29081 6.64918 6.32811C6.64918 6.36541 6.63436 6.40117 6.60799 6.42755C6.58162 6.45392 6.54599 6.46873 6.50869 6.46873ZM7.07513 8.34045H5.94226C5.90496 8.34045 5.86919 8.32564 5.84282 8.29926C5.81645 8.27289 5.80163 8.23712 5.80163 8.19983C5.80163 8.16253 5.81645 8.12676 5.84282 8.10039C5.86919 8.07402 5.90496 8.0592 5.94226 8.0592H7.07513C7.11243 8.0592 7.1482 8.07402 7.17457 8.10039C7.20094 8.12676 7.21576 8.16253 7.21576 8.19983C7.21576 8.23712 7.20094 8.27289 7.17457 8.29926C7.1482 8.32564 7.11243 8.34045 7.07513 8.34045ZM6.50869 10.1405H5.94226C5.90496 10.1405 5.86919 10.1256 5.84282 10.0993C5.81645 10.0729 5.80163 10.0371 5.80163 9.99983C5.80163 9.96253 5.81645 9.92676 5.84282 9.90039C5.86919 9.87402 5.90496 9.8592 5.94226 9.8592H6.50855C6.54585 9.8592 6.58162 9.87402 6.60799 9.90039C6.63436 9.92676 6.64918 9.96253 6.64918 9.99983C6.64918 10.0371 6.63436 10.0729 6.60799 10.0993C6.58162 10.1256 6.54599 10.1405 6.50869 10.1405ZM7.07513 12.0125H5.94226C5.90496 12.0125 5.86919 11.9976 5.84282 11.9713C5.81645 11.9449 5.80163 11.9091 5.80163 11.8718C5.80163 11.8345 5.81645 11.7988 5.84282 11.7724C5.86919 11.746 5.90496 11.7312 5.94226 11.7312H7.07513C7.11243 11.7312 7.1482 11.746 7.17457 11.7724C7.20094 11.7988 7.21576 11.8345 7.21576 11.8718C7.21576 11.9091 7.20094 11.9449 7.17457 11.9713C7.1482 11.9976 7.11243 12.0125 7.07513 12.0125ZM6.50869 13.8126H5.94226C5.90496 13.8126 5.86919 13.7978 5.84282 13.7714C5.81645 13.745 5.80163 13.7093 5.80163 13.672C5.80163 13.6347 5.81645 13.5989 5.84282 13.5725C5.86919 13.5462 5.90496 13.5313 5.94226 13.5313H6.50855C6.54585 13.5313 6.58162 13.5462 6.60799 13.5725C6.63436 13.5989 6.64918 13.6347 6.64918 13.672C6.64918 13.7093 6.63436 13.745 6.60799 13.7714C6.58162 13.7978 6.54599 13.8126 6.50869 13.8126ZM7.07513 15.6846H5.94226C5.90496 15.6846 5.86919 15.6698 5.84282 15.6434C5.81645 15.617 5.80163 15.5813 5.80163 15.544C5.80163 15.5067 5.81645 15.4709 5.84282 15.4445C5.86919 15.4182 5.90496 15.4033 5.94226 15.4033H7.07513C7.11243 15.4033 7.1482 15.4182 7.17457 15.4445C7.20094 15.4709 7.21576 15.5067 7.21576 15.544C7.21576 15.5813 7.20094 15.617 7.17457 15.6434C7.1482 15.6698 7.11243 15.6846 7.07513 15.6846ZM5.29468 16.3313C5.25738 16.3313 5.22161 16.3165 5.19524 16.2901C5.16887 16.2638 5.15405 16.228 5.15405 16.1907V3.93748C5.15405 3.90019 5.16887 3.86442 5.19524 3.83805C5.22161 3.81168 5.25738 3.79686 5.29468 3.79686C5.33197 3.79686 5.36774 3.81168 5.39411 3.83805C5.42049 3.86442 5.4353 3.90019 5.4353 3.93748V16.1907C5.4353 16.228 5.42049 16.2638 5.39411 16.2901C5.36774 16.3165 5.33197 16.3313 5.29468 16.3313Z" fill="#2F3A5A"/>
</g>
</g>
</g>
<defs>
<clipPath id="clip0_13_56936">
<rect width="18" height="18" fill="white" transform="translate(0.5 -1.52588e-05)"/>
</clipPath>
</defs>
</svg>
