<svg width="22" height="24" viewBox="0 0 22 24" fill="none" xmlns="http://www.w3.org/2000/svg">
<path d="M8.68659 13.9809L8.9187 14.065C10.5813 14.6672 12.4073 14.6373 14.0493 13.9809C14.5556 13.7316 15.0129 13.369 15.3644 12.8512C15.3644 12.8512 18.3029 9.21908 15.0369 5.36148C15.0369 5.36148 15.0843 6.54482 14.7292 6.85239C14.7292 6.85239 14.7055 2.59249 11.0609 0.935791C11.0609 0.935791 12.2443 4.76978 10.4219 5.74005C10.4219 5.74005 10.6585 3.75205 8.41028 3.18414C8.41028 3.18414 9.40428 4.4147 7.84237 6.63932C6.36812 8.73906 5.80115 12.7776 8.68659 13.9809Z" fill="#36AF4A"/>
<path d="M9.98382 13.9811C10.9707 14.3189 12.0376 14.3453 13.04 14.0569L13.3035 13.9811C14.2282 13.1995 13.974 11.7665 13.974 11.7665C13.974 11.7665 13.8776 10.7075 12.9837 9.85472C12.9837 9.85472 12.5022 10.8313 12.0071 10.9276C12.0071 10.9276 12.7085 8.65801 10.8381 7.50293C10.8381 7.50293 11.3057 8.17682 9.97164 10.0335C8.9956 11.392 8.8885 13.1405 9.98382 13.9811Z" fill="#157725"/>
<path d="M14.0895 22.7233L15.0619 23.0242C16.319 23.4133 17.6692 23.3782 18.9044 22.9245L19.4522 22.7233C19.9585 22.474 20.4159 22.1114 20.7673 21.5936C20.7673 21.5936 23.7058 17.9615 20.4398 14.1039C20.4398 14.1039 20.4872 15.2873 20.1322 15.5948C20.1322 15.5948 20.1085 11.3349 16.4639 9.67822C16.4639 9.67822 17.6473 13.5122 15.8249 14.4825C15.8249 14.4825 16.0615 12.4945 13.8132 11.9266C13.8132 11.9266 14.8072 13.1571 13.2453 15.3817C11.7711 17.4815 11.2041 21.5201 14.0895 22.7233Z" fill="#F15A29"/>
<path d="M15.3865 22.7233L15.9656 22.9428C16.6332 23.1959 17.3692 23.2026 18.0413 22.9617L18.7062 22.7233C19.6309 21.9417 19.3767 20.5087 19.3767 20.5087C19.3767 20.5087 19.2803 19.4497 18.3864 18.5969C18.3864 18.5969 17.9049 19.5735 17.4099 19.6697C17.4099 19.6697 18.1112 17.4002 16.2408 16.2451C16.2408 16.2451 16.7084 16.919 15.3743 18.7757C14.3983 20.1342 14.2912 21.8826 15.3865 22.7233Z" fill="#FBB040"/>
<path d="M2.56476 22.7233L3.52348 22.977C4.8142 23.3185 6.17566 23.2838 7.44729 22.8769L7.92745 22.7233C8.43373 22.474 8.89107 22.1114 9.24256 21.5936C9.24256 21.5936 12.181 17.9615 8.91503 14.1039C8.91503 14.1039 8.96243 15.2873 8.60741 15.5948C8.60741 15.5948 8.58368 11.3349 4.9391 9.67822C4.9391 9.67822 6.1225 13.5122 4.30012 14.4825C4.30012 14.4825 4.53668 12.4945 2.28846 11.9266C2.28846 11.9266 3.28245 13.1571 1.72054 15.3817C0.246292 17.4815 -0.320681 21.5201 2.56476 22.7233Z" fill="#D629F1"/>
<path d="M3.86175 22.7233C4.94643 22.9065 6.05396 22.9089 7.1394 22.7303L7.18146 22.7233C8.10611 21.9417 7.85188 20.5087 7.85188 20.5087C7.85188 20.5087 7.7555 19.4497 6.86159 18.5969C6.86159 18.5969 6.38016 19.5735 5.88508 19.6697C5.88508 19.6697 6.58646 17.4002 4.71604 16.2451C4.71604 16.2451 5.18363 16.919 3.84957 18.7757C2.87353 20.1342 2.76643 21.8826 3.86175 22.7233Z" fill="#F365EA"/>
</svg>
