<svg width="85" height="96" viewBox="0 0 85 96" fill="none" xmlns="http://www.w3.org/2000/svg">
<g filter="url(#filter0_f_408_489)">
<path d="M40.5138 68.0002C32.1675 70.2641 28.7059 67.0569 28.0694 65.034C25.376 57.2945 52.5152 55.4534 56.2656 55.4534C59.266 55.4534 57.5158 58.34 56.2656 59.7834C54.3336 61.3063 48.8602 65.7363 40.5138 68.0002Z" fill="url(#paint0_linear_408_489)" fill-opacity="0.5"/>
</g>
<path opacity="0.75" d="M34.4217 18.3525C33.6155 18.107 32.7003 17.9985 31.7363 18.0629C29.5668 18.1785 27.2568 19.167 27.0029 21.3185C26.9725 22.1408 27.1918 22.77 27.8597 23.4403L27.9545 56.809C27.9747 58.2569 28.6409 59.6113 30.0679 60.5348C32.8124 62.162 36.5465 60.4848 36.6823 56.7834C36.6788 55.4696 36.5959 26.3653 36.5924 25.0527L36.5876 23.454C37.2216 22.829 37.4837 22.1062 37.448 21.4175C37.4122 19.8611 35.9191 18.7821 34.4217 18.3525Z" fill="#928F8F"/>
<g opacity="0.3">
<path d="M29.1765 22.3693C27.5659 21.3998 27.6213 19.8554 29.2998 18.9199C30.9783 17.9839 33.6447 18.0107 35.2546 18.9801C36.8652 19.9496 36.8098 21.494 35.1313 22.4294C33.4528 23.3655 30.787 23.3387 29.1765 22.3693Z" fill="url(#paint1_linear_408_489)"/>
</g>
<path d="M36.2693 22.4681C36.2842 22.7654 35.5424 23.5144 34.2858 23.8451C32.9892 24.1871 31.7046 23.9184 31.5842 23.7027C31.5735 23.683 31.5759 23.6473 31.5866 23.6276C31.6182 23.5704 31.7237 23.5573 31.7862 23.5406C32.1479 23.4435 32.5227 23.4494 32.8897 23.397C33.3443 23.3321 33.8419 23.2486 34.3996 23.0812C34.5682 23.0306 35.0163 22.8959 35.6496 22.589C36.0411 22.399 36.168 22.3412 36.2348 22.3811C36.2598 22.3948 36.2586 22.4419 36.2693 22.4681Z" fill="white"/>
<path opacity="0.5" d="M35.4165 23.8325V58.061C34.8892 59.1306 33.8286 59.9314 32.8198 60.0642V24.3521C33.738 24.37 34.6139 24.2311 35.4165 23.8325Z" fill="white"/>
<path opacity="0.5" d="M35.4165 53.0784V58.0609C34.8892 59.1305 33.263 60.0915 32.2543 60.2244V53.7582C33.1724 53.776 34.6139 53.477 35.4165 53.0784Z" fill="#8ED878" fill-opacity="0.54"/>
<path opacity="0.5" d="M29.1958 53.2158V58.1984C29.7231 59.2679 31.2454 60.0917 32.2542 60.2245V53.7583C31.336 53.7762 29.9984 53.6144 29.1958 53.2158Z" fill="#8ED878" fill-opacity="0.54"/>
<g opacity="0.38">
<path d="M32.1349 56.5462L32.1059 57.2993L32.5489 57.068L32.5803 56.3124L32.1349 56.5462Z" fill="#3C3C3E"/>
<path d="M32.069 57.2763L32.1084 57.3013L32.1377 56.5488L32.5809 56.3141L32.5507 56.2948L32.0919 56.5197L32.069 57.2763Z" fill="black"/>
</g>
<path d="M59.044 0.0879976L59.4936 0.349256C59.2564 0.211388 58.9276 0.23078 58.5633 0.441102L58.1138 0.179843C58.478 -0.0304791 58.8068 -0.0498706 59.044 0.0879976Z" fill="#D7DAFF"/>
<path d="M40.8886 9.07383L40.439 8.81257L58.1139 0.179932L58.5634 0.441191L40.8886 9.07383Z" fill="#D7DAFF"/>
<path d="M58.5632 0.44106C59.288 0.0225411 59.8723 0.360106 59.8747 1.18838C59.8758 1.60012 59.7344 2.05683 59.4949 2.47156C59.2595 2.87939 58.9342 3.23123 58.5717 3.44056L40.8969 12.0733C40.7129 12.1237 37.2164 13.0827 35.4938 14.0772C33.7671 15.0741 31.0364 16.8778 30.8927 16.9727L30.8892 15.728C31.0329 15.6569 33.7649 14.3067 35.4916 13.3098C37.2142 12.3153 40.7046 9.23587 40.8884 9.07377L58.5632 0.44106Z" fill="#888ABF"/>
<path d="M30.8925 16.9728L30.443 16.7115L30.4395 15.4668L30.889 15.728L30.8925 16.9728Z" fill="#AEB2F4"/>
<path d="M30.8891 15.7279L30.4395 15.4667C30.5833 15.3956 33.3152 14.0454 35.042 13.0486C36.7646 12.054 40.255 8.97461 40.4387 8.8125L40.8883 9.07376C40.7045 9.23587 37.2141 12.3153 35.4915 13.3098C33.7648 14.3067 31.0328 15.6568 30.8891 15.7279Z" fill="#D7DAFF"/>
<path d="M59.4938 0.349477L59.9433 0.610736C59.706 0.472868 59.3773 0.49226 59.013 0.702515L58.5635 0.441257C58.9277 0.231001 59.2565 0.211609 59.4938 0.349477Z" fill="#D7DAFF"/>
<path d="M42.6946 10.1239L42.2451 9.8626L58.5631 0.441406L59.0126 0.702665L42.6946 10.1239Z" fill="#D7DAFF"/>
<path d="M59.0131 0.702779C59.738 0.28426 60.3223 0.621825 60.3246 1.4501C60.3258 1.86191 60.1843 2.31861 59.9448 2.73335C59.7094 3.14117 59.3841 3.49302 59.0216 3.70228L42.7036 13.1235C42.5196 13.1739 39.0231 14.1329 37.3005 15.1274C35.5738 16.1243 32.8431 17.928 32.6993 18.0229L32.6958 16.7782C32.8396 16.7071 35.5716 15.3569 37.2982 14.36C39.0209 13.3655 42.5113 10.286 42.695 10.124L59.0131 0.702779Z" fill="#888ABF"/>
<path d="M32.6991 18.0226L32.2496 17.7613L32.2461 16.5166L32.6956 16.7779L32.6991 18.0226Z" fill="#AEB2F4"/>
<path d="M32.6956 16.778L32.2461 16.5168C32.3899 16.4457 35.1219 15.0955 36.8485 14.0986C38.5712 13.104 42.0616 10.0247 42.2453 9.86255L42.6949 10.1238C42.5112 10.2859 39.0207 13.3653 37.2981 14.3599C35.5714 15.3568 32.8394 16.7069 32.6956 16.778Z" fill="#D7DAFF"/>
<path d="M43.2102 12.3336L42.9077 12.5083V10.5868L43.2102 10.4121V12.3336Z" fill="#AEB2F4"/>
<path d="M43.825 11.9785L43.5225 12.1532V10.2318L43.825 10.0571V11.9785Z" fill="#AEB2F4"/>
<path d="M44.4398 11.6236L44.1372 11.7983V9.87681L44.4398 9.70215V11.6236Z" fill="#AEB2F4"/>
<path d="M45.0546 11.2684L44.752 11.4431V9.52165L45.0546 9.34692V11.2684Z" fill="#AEB2F4"/>
<path d="M45.6693 10.9134L45.3667 11.0881V9.16667L45.6693 8.99194V10.9134Z" fill="#AEB2F4"/>
<path d="M46.2845 10.5586L45.9819 10.7333V8.81187L46.2845 8.63721V10.5586Z" fill="#AEB2F4"/>
<path d="M46.8992 10.2034L46.5967 10.3781V8.45664L46.8992 8.28198V10.2034Z" fill="#AEB2F4"/>
<path d="M47.5139 9.84852L47.2114 10.0232V8.10173L47.5139 7.927V9.84852Z" fill="#AEB2F4"/>
<path d="M48.1292 9.49348L47.8267 9.6682V7.74668L48.1292 7.57202V9.49348Z" fill="#AEB2F4"/>
<path d="M48.744 9.13843L48.4414 9.31316V7.3917L48.744 7.21704V9.13843Z" fill="#AEB2F4"/>
<path d="M49.3587 8.78352L49.0562 8.95818V7.03672L49.3587 6.86206V8.78352Z" fill="#AEB2F4"/>
<path d="M31.3668 15.3661L31.2387 18.6912L33.1946 17.67L33.333 14.3338L31.3668 15.3661Z" fill="#3C3C3E"/>
<path d="M31.0777 18.5891L31.2515 18.6992L31.381 15.3769L33.3374 14.3407L33.2041 14.2557L31.1788 15.2487L31.0777 18.5891Z" fill="black"/>
<defs>
<filter id="filter0_f_408_489" x="0.981836" y="28.5534" width="83.8405" height="67.1235" filterUnits="userSpaceOnUse" color-interpolation-filters="sRGB">
<feFlood flood-opacity="0" result="BackgroundImageFix"/>
<feBlend mode="normal" in="SourceGraphic" in2="BackgroundImageFix" result="shape"/>
<feGaussianBlur stdDeviation="13.45" result="effect1_foregroundBlur_408_489"/>
</filter>
<linearGradient id="paint0_linear_408_489" x1="29.6377" y1="65.3067" x2="57.9362" y2="57.1922" gradientUnits="userSpaceOnUse">
<stop/>
<stop offset="1" stop-opacity="0"/>
</linearGradient>
<linearGradient id="paint1_linear_408_489" x1="32.2157" y1="23.1143" x2="32.2157" y2="18.2352" gradientUnits="userSpaceOnUse">
<stop/>
<stop offset="1" stop-color="white"/>
</linearGradient>
</defs>
</svg>
