<svg width="92" height="101" viewBox="0 0 92 101" fill="none" xmlns="http://www.w3.org/2000/svg">
<path opacity="0.7" d="M21.4601 60.4399C29.6171 65.1491 42.8 65.1484 50.9038 60.4387C59.0076 55.7291 58.9648 48.0939 50.8077 43.3846C42.6491 38.6742 29.4678 38.6745 21.3639 43.3838C13.2601 48.0931 13.3014 55.7294 21.4601 60.4399Z" fill="url(#paint0_linear_512_2171)"/>
<path d="M46.9065 71.4648C40.1344 75.4004 31.0021 75.4004 24.1856 71.4647C21.497 69.9124 21.6244 68.1236 21.047 66.1108L21.0459 66.1104L24.0614 85.2791H24.0927L24.2953 86.7701C24.4829 88.1495 25.6238 89.5089 27.5084 90.5965C29.8748 91.9628 33.0486 92.7166 36.4485 92.7232C39.8484 92.7166 43.0222 91.9625 45.3886 90.5965C47.2728 89.5085 48.4141 88.1495 48.6013 86.7701L48.8039 85.2791H48.8352L51.699 66.1107C51.1073 68.0718 49.5137 69.9499 46.9065 71.4648Z" fill="#6BB0E8"/>
<path d="M25.3526 72.3394C31.3269 75.8058 40.9825 75.8051 46.9179 72.3387C49.203 71.0039 50.6001 69.3499 51.1177 67.6224C51.9444 64.8631 50.5219 61.9168 46.8476 59.7851C40.8722 56.3177 31.2177 56.318 25.2822 59.7845C21.6877 61.8839 20.2852 64.7734 21.0622 67.4963C21.5683 69.2693 22.9958 70.9719 25.3526 72.3394Z" fill="#1C6AAA"/>
<g opacity="0.75">
<path opacity="0.7" d="M45.4352 87.9497C50.6053 90.9347 50.6327 95.7744 45.4962 98.7594C40.3596 101.744 32.0037 101.745 26.8335 98.7602C21.6622 95.7744 21.636 90.9343 26.7725 87.9493C31.9087 84.9643 40.2638 84.9639 45.4352 87.9497Z" fill="#C7D2D7"/>
</g>
<path opacity="0.6" d="M20.5982 61.9316C24.8002 64.3576 30.341 65.694 36.1994 65.694C42.0609 65.694 47.59 64.3565 51.7689 61.9281C53.6152 60.855 55.1118 59.6163 56.2381 58.2618C57.8323 56.3449 58.6792 54.1945 58.6758 51.9387C58.6703 48.0659 56.1818 44.4984 51.6686 41.8925C47.465 39.4653 41.9227 38.1289 36.0639 38.1289C30.2039 38.1289 24.6756 39.466 20.4978 41.894C16.0379 44.4861 13.5844 48.0342 13.5899 51.8846C13.5929 54.1266 14.4333 56.2646 16.0117 58.1746C17.1604 59.5642 18.6975 60.8342 20.5982 61.9316ZM21.3636 43.3836C29.4674 38.6743 42.6492 38.674 50.8074 43.3844C58.9641 48.0937 59.0073 55.7289 50.9035 60.4385C42.7997 65.1478 29.6164 65.149 21.4597 60.4397C13.3011 55.7292 13.2598 48.0929 21.3636 43.3836Z" fill="#7E7E7E"/>
<path opacity="0.75" d="M49.6831 69.2166C42.2486 73.5368 30.1551 73.5379 22.6719 69.2178C20.701 68.0798 19.2492 66.7554 18.312 65.343L22.2686 90.8986H22.2717C22.5237 92.7525 23.8747 94.5679 26.3309 95.9857C31.7801 99.1317 40.5869 99.1309 46.0006 95.985C48.4849 94.5413 49.8198 92.6858 50.0139 90.7966L53.9423 65.4225C53.0201 66.8044 51.6039 68.1006 49.6831 69.2166Z" fill="url(#paint1_linear_512_2171)"/>
<path opacity="0.75" d="M51.7686 61.9283C47.5897 64.3567 42.0606 65.6942 36.1991 65.6942C30.3407 65.6942 24.7999 64.3579 20.5979 61.9318C18.6968 60.8344 17.1601 59.5644 16.0117 58.1748C16.6355 61.6967 17.404 63.5333 17.404 63.5333H17.4048C17.616 64.1471 17.9201 64.7523 18.3119 65.3426C19.2491 66.7549 20.7009 68.0793 22.6719 69.2173C30.1546 73.5375 42.2486 73.5367 49.683 69.2161C51.6038 68.0998 53.0201 66.804 53.9418 65.4217C54.4074 64.7242 54.749 64.0047 54.9613 63.2751C55.1859 62.666 55.753 60.9691 56.2382 58.262C55.1114 59.6165 53.6149 60.8552 51.7686 61.9283Z" fill="url(#paint2_linear_512_2171)"/>
<g opacity="0.5">
<path d="M47.686 74.864C47.4949 74.9883 47.298 75.1107 47.0927 75.23C46.4944 75.5778 45.8571 75.8893 45.1916 76.168L45.1681 76.4382L44.8581 80.0056L44.3354 86.0204C44.943 85.7668 45.5243 85.4827 46.0702 85.1654C47.1016 84.5659 47.9361 83.8958 48.5753 83.1821C48.9417 82.7729 49.2404 82.3495 49.4782 81.9167L49.5627 81.2933L49.9785 78.2254L50.8752 71.605C50.2406 72.78 49.1794 73.894 47.686 74.864Z" fill="#7E7E7E"/>
<path d="M45.7381 87.7928C45.2278 88.0893 44.6789 88.3483 44.1127 88.5872L43.9208 90.796C43.8984 91.1843 43.8421 91.5699 43.7656 91.9521C44.3709 91.7038 44.9541 91.4302 45.4953 91.1156C46.9594 90.2648 48.0024 89.2631 48.6278 88.1966L49.1327 84.4678C48.5216 85.6852 47.3906 86.8324 45.7381 87.7928Z" fill="#7E7E7E"/>
</g>
<path d="M53.3684 8.49774C52.6632 9.11553 52.135 9.91133 51.9359 10.6539C50.7394 15.1196 47.6763 26.2903 46.4999 30.6806C44.8292 36.9158 47.1478 41.0999 47.1478 41.0999C47.1478 41.0999 46.3602 42.8663 47.4885 43.2758L49.1766 43.0818C50.3659 42.6079 51.2604 39.998 51.2604 39.998C51.2604 39.998 56.5357 33.1478 58.0241 27.5928C59.0805 23.6502 62.0401 12.8637 63.2527 8.33812C63.4519 7.5946 63.6563 6.72061 63.0509 5.90336C62.1367 4.66903 61.3088 2.96269 58.0141 2.85506C55.9473 2.78741 54.6275 7.39452 53.3684 8.49774Z" fill="#D6D6D6"/>
<path d="M51.1962 6.32423C50.491 6.94203 49.9628 7.73782 49.7637 8.48043C48.5672 12.9461 45.5041 24.1168 44.3277 28.5071C42.657 34.7423 44.9756 38.9264 44.9756 38.9264L44.4493 41.0659C44.3015 41.6171 45.7316 43.0117 46.764 42.9742C46.764 42.9742 46.7417 40.355 47.355 40.5584C49.362 41.2238 49.8907 38.5779 49.8907 38.5779C49.8907 38.5779 54.3636 30.9742 55.8521 25.4193C56.9085 21.4767 60.0754 9.91812 61.2881 5.39258C61.4873 4.64906 61.3371 4.03658 60.879 3.72985C60.0619 3.18299 58.5646 2.51628 56.567 3.05154C54.5692 3.58673 52.4553 5.22101 51.1962 6.32423Z" fill="#E6E6E6"/>
<path d="M47.3527 21.9006C47.3255 21.916 47.2977 21.9303 47.2704 21.9457C46.5785 24.488 45.957 26.7772 45.5554 28.2758C44.3987 32.5926 45.1541 35.9248 45.7284 37.5676C46.0504 35.2726 46.6298 31.8361 47.5838 28.2758C48.0556 26.5149 48.8311 23.6627 49.6678 20.5906C48.8958 21.0267 48.1232 21.4619 47.3527 21.9006Z" fill="#F0F0F0"/>
<path d="M60.8784 3.73019C60.0614 3.18326 58.5639 2.51662 56.5664 3.05188C54.5688 3.58714 52.4549 5.22142 51.1957 6.32471C50.4906 6.94251 49.9623 7.7383 49.7633 8.48091C49.4307 9.7223 48.9536 11.4822 48.4132 13.4701C48.4586 13.4757 48.5041 13.4808 48.5495 13.4868C48.5881 13.3434 48.6254 13.2042 48.6608 13.0722C48.8598 12.3297 49.3881 11.5338 50.0932 10.9161C51.3524 9.81286 53.4345 8.0416 55.4639 7.64325C59.2131 6.90735 59.9657 10.2761 59.5101 11.9551C59.9167 10.457 61.0239 6.37684 61.2875 5.39299C61.4867 4.6494 61.3365 4.03692 60.8784 3.73019Z" fill="#D6D6D6"/>
<path d="M49.5548 41.3928C50.2538 42.0918 49.9266 42.898 48.824 43.1934C47.7214 43.4888 46.261 43.1617 45.562 42.4627C44.863 41.7637 45.1902 40.9575 46.2928 40.6621C47.3953 40.3666 48.8557 40.6938 49.5548 41.3928Z" fill="#C2C2C2"/>
<path d="M55.1916 16.6708C55.5355 16.5786 55.7396 16.7827 55.6474 17.1266L52.8868 27.4293C52.7946 27.7732 52.4411 28.1267 52.0973 28.2188L47.0926 29.5597C46.7487 29.6519 46.5446 29.4479 46.6368 29.1039L49.3974 18.8014C49.4896 18.4575 49.8431 18.104 50.1869 18.0119L55.1916 16.6708Z" fill="#9FB09F"/>
<path d="M46.9726 29.5806C46.9752 29.5428 46.982 29.5028 46.9933 29.4606L49.754 19.158C49.8461 18.8141 50.1995 18.4606 50.5435 18.3685L55.5481 17.0275C55.5903 17.0162 55.6304 17.0094 55.6681 17.0068C55.6872 16.7373 55.4932 16.5901 55.1916 16.6709L50.1869 18.0119C49.843 18.1041 49.4896 18.4575 49.3974 18.8014L46.6368 29.1041C46.5559 29.4057 46.7031 29.5997 46.9726 29.5806Z" fill="#B6C9B6"/>
<path d="M48.0968 41.8882C47.8497 41.641 47.3333 41.5254 46.9434 41.6298C46.6998 41.695 46.5633 41.8308 46.5554 41.9837L41.0325 62.908L42.8269 62.6208L48.1832 42.2987C48.2561 42.1751 48.2349 42.0262 48.0968 41.8882Z" fill="#808080"/>
<path d="M41.7479 63.0126L47.4273 41.8879C47.4323 41.7916 47.4884 41.7022 47.5899 41.6329C47.3765 41.5824 47.1433 41.5771 46.9431 41.6308C46.6996 41.696 46.5631 41.8318 46.5551 41.9847L40.8757 63.1095L42.7623 62.8637L42.8267 62.6208L41.7479 63.0126Z" fill="#A8A8A8"/>
<g opacity="0.34">
<path d="M47.998 42.0432C47.7508 41.796 47.2344 41.6803 46.8446 41.7848C46.601 41.85 46.4645 41.9858 46.4565 42.1387L33.0891 90.5926L34.753 90.8934L48.0844 42.4537C48.1573 42.3301 48.1361 42.1812 47.998 42.0432Z" fill="#808080"/>
<path d="M33.9613 90.4957L47.3286 42.0419C47.3336 41.9457 47.3897 41.8563 47.4912 41.7869C47.2778 41.7365 47.0446 41.7312 46.8445 41.7849C46.6009 41.8501 46.4644 41.9859 46.4564 42.1388L33.0891 90.5926L34.753 90.8934L34.8175 90.6505L33.9613 90.4957Z" fill="#A8A8A8"/>
</g>
<path d="M53.9101 12.2844C54.7176 12.068 55.1968 12.5472 54.9805 13.3548C54.7642 14.1622 53.9341 14.9923 53.1267 15.2086C52.3192 15.425 51.84 14.9458 52.0563 14.1383C52.2727 13.3307 53.1027 12.5008 53.9101 12.2844Z" fill="#D1D1D1"/>
<path d="M54.1312 14.3588C54.8106 13.6793 55.0434 12.8106 54.6511 12.4183C54.2589 12.026 53.3901 12.2588 52.7107 12.9383C52.0312 13.6177 51.7985 14.4864 52.1907 14.8787C52.583 15.271 53.4517 15.0382 54.1312 14.3588Z" fill="#F5F5F5"/>
<path d="M52.8355 22.2048C52.8401 22.1882 52.8517 22.1775 52.8711 22.1722L53.1664 22.0933C53.1856 22.088 53.1931 22.0936 53.1888 22.11L53.1084 22.4098C53.1033 22.4291 53.0911 22.4412 53.0718 22.4464L52.7765 22.5253C52.7571 22.5306 52.7501 22.5236 52.7554 22.5044L52.8355 22.2048Z" fill="#454545"/>
<path d="M52.8323 19.2307C53.0101 19.183 53.0879 19.2942 53.0475 19.4456C53.0018 19.6165 52.8412 19.7673 52.6878 19.8085C52.5185 19.856 52.4264 19.7584 52.4699 19.5963C52.5182 19.4166 52.6834 19.2706 52.8323 19.2307ZM52.7195 19.6901C52.8203 19.6632 52.9189 19.5675 52.9449 19.471C52.9713 19.3723 52.9103 19.3197 52.8029 19.3485C52.7217 19.3702 52.6058 19.446 52.5725 19.5708C52.5419 19.6847 52.6253 19.7153 52.7195 19.6901Z" fill="#454545"/>
<path d="M53.2439 18.835C53.2486 18.8337 53.2517 18.8342 53.2537 18.8362L53.3404 18.9229C53.3457 18.9282 53.344 18.9349 53.3352 18.9428L53.2847 18.9949C53.281 18.9986 53.2769 19.0011 53.2725 19.0021L52.6372 19.1725C52.6298 19.1745 52.6258 19.1729 52.6253 19.1676C52.6247 19.1622 52.6281 19.1557 52.6355 19.1483L52.8355 18.9484C52.8392 18.9447 52.8423 18.9425 52.8454 18.9415L53.2439 18.835ZM52.9327 18.5178C52.9349 18.52 52.9354 18.5232 52.934 18.5275L52.8279 18.924C52.8263 18.9299 52.8242 18.933 52.8212 18.9341L52.6209 19.1341C52.6133 19.1416 52.6071 19.1448 52.602 19.1443C52.597 19.1436 52.5951 19.1398 52.5971 19.1324L52.7884 18.4184C52.7904 18.411 52.7947 18.405 52.8011 18.4006C52.8076 18.3961 52.8133 18.3961 52.8175 18.4003L52.9327 18.5178ZM53.9581 18.6436C53.9624 18.6426 53.9657 18.6429 53.9679 18.6451L54.0833 18.7605C54.0876 18.7648 54.0874 18.7703 54.0832 18.7767C54.0783 18.7835 54.0726 18.7879 54.0654 18.7897L53.3929 18.9699C53.3886 18.9709 53.3854 18.9704 53.383 18.9684L53.3528 18.9379C53.3483 18.9337 53.35 18.9272 53.3579 18.9183L53.5101 18.7679C53.5138 18.7642 53.5176 18.7617 53.5222 18.7603L53.9581 18.6436ZM53.5935 18.3205C53.5956 18.3225 53.596 18.3256 53.5949 18.3302L53.4774 18.7682C53.4763 18.7724 53.474 18.7765 53.4701 18.7803L53.3701 18.8803C53.3622 18.8892 53.3558 18.891 53.3504 18.8856L53.2906 18.8285C53.2884 18.8263 53.2877 18.8232 53.2889 18.8188L53.4063 18.3808C53.4074 18.3766 53.4099 18.3724 53.4136 18.3687L53.5158 18.2682C53.5252 18.2588 53.5317 18.2569 53.5357 18.2627L53.5935 18.3205Z" fill="#454545"/>
<defs>
<linearGradient id="paint0_linear_512_2171" x1="36.1336" y1="39.8518" x2="36.1336" y2="63.9714" gradientUnits="userSpaceOnUse">
<stop stop-color="#C7D2D7"/>
<stop offset="1" stop-color="#696E71"/>
</linearGradient>
<linearGradient id="paint1_linear_512_2171" x1="18.3121" y1="81.8439" x2="53.942" y2="81.8439" gradientUnits="userSpaceOnUse">
<stop offset="0.0192" stop-color="#97A3A9"/>
<stop offset="0.495" stop-color="white"/>
<stop offset="1" stop-color="#97A3A9"/>
</linearGradient>
<linearGradient id="paint2_linear_512_2171" x1="16.0115" y1="65.3159" x2="56.2379" y2="65.3159" gradientUnits="userSpaceOnUse">
<stop offset="0.156" stop-color="#97A3A9"/>
<stop offset="0.495" stop-color="white"/>
<stop offset="0.9057" stop-color="#97A3A9"/>
</linearGradient>
</defs>
</svg>
