<svg width="25" height="24" viewBox="0 0 25 24" fill="none" xmlns="http://www.w3.org/2000/svg">
<g id="svgexport-17 - 2023-09-04T191314.055 2" clip-path="url(#clip0_431_78696)">
<g id="Group">
<g id="Group_2">
<path id="Vector" d="M2.04944 1.95312H22.5449C23.0883 1.95378 23.6092 2.16992 23.9935 2.55414C24.3777 2.93837 24.5938 3.4593 24.5945 4.00268V18.7594C24.5938 19.3028 24.3777 19.8237 23.9935 20.208C23.6092 20.5922 23.0883 20.8083 22.5449 20.809H10.2476V22.8585C10.2476 22.9396 10.2236 23.0188 10.1785 23.0862C10.1335 23.1536 10.0695 23.2061 9.99458 23.2372C9.91969 23.2682 9.83728 23.2763 9.75778 23.2605C9.67828 23.2447 9.60525 23.2057 9.54792 23.1483L8.19809 21.7985L6.84825 23.1483C6.79093 23.2057 6.7179 23.2447 6.63839 23.2605C6.55889 23.2763 6.47648 23.2682 6.40159 23.2372C6.3267 23.2061 6.26269 23.1536 6.21765 23.0862C6.1726 23.0188 6.14855 22.9396 6.14854 22.8585V20.809H2.04944C1.50606 20.8083 0.98513 20.5922 0.600906 20.208C0.216682 19.8237 0.00053978 19.3028 -0.000112534 18.7594V4.00268C0.00053978 3.4593 0.216682 2.93837 0.600906 2.55414C0.98513 2.16992 1.50606 1.95378 2.04944 1.95312ZM11.3503 9.97301C11.3815 9.9586 11.4089 9.93701 11.4302 9.90999C11.4515 9.88298 11.4661 9.85131 11.4728 9.81757C11.4795 9.78383 11.4782 9.74898 11.4689 9.71587C11.4595 9.68276 11.4425 9.65232 11.4192 9.62705C11.2423 9.43479 11.1441 9.18306 11.1441 8.9218C11.1441 8.66054 11.2423 8.40881 11.4192 8.21655C11.4426 8.19125 11.4596 8.16076 11.469 8.12758C11.4783 8.0944 11.4797 8.05948 11.4729 8.02568C11.4662 7.99188 11.4515 7.96016 11.4301 7.93313C11.4087 7.9061 11.3812 7.88453 11.3499 7.87018C11.113 7.75996 10.9262 7.56486 10.8263 7.32348C10.7264 7.0821 10.7207 6.81201 10.8104 6.56666C10.8224 6.53438 10.8265 6.49972 10.8225 6.46554C10.8184 6.43136 10.8064 6.39861 10.7873 6.36999C10.7681 6.34136 10.7425 6.31766 10.7125 6.30084C10.6825 6.28401 10.6489 6.27453 10.6145 6.27317C10.3534 6.2622 10.106 6.15356 9.92118 5.96877C9.73639 5.78399 9.62775 5.53654 9.61678 5.27545C9.61545 5.241 9.60596 5.20737 9.58911 5.1773C9.57226 5.14723 9.54852 5.12158 9.51984 5.10246C9.49116 5.08334 9.45836 5.07129 9.42412 5.0673C9.38988 5.06331 9.35519 5.0675 9.32288 5.07951C9.07744 5.16869 8.80751 5.16273 8.56625 5.06281C8.32498 4.9629 8.12988 4.77626 8.01937 4.53966C8.00508 4.50836 7.98356 4.48091 7.95658 4.45955C7.92961 4.4382 7.89794 4.42356 7.8642 4.41684C7.83046 4.41011 7.79561 4.4115 7.76251 4.42088C7.72941 4.43026 7.69901 4.44737 7.67381 4.47079C7.27497 4.83766 6.66133 4.83766 6.2629 4.47079C6.23764 4.44738 6.20718 4.4303 6.17403 4.42095C6.14088 4.4116 6.10599 4.41025 6.07221 4.41701C6.03844 4.42378 6.00676 4.43846 5.97976 4.45985C5.95277 4.48124 5.93124 4.50873 5.91694 4.54007C5.80665 4.77675 5.61161 4.96347 5.37035 5.06335C5.12909 5.16322 4.85914 5.16899 4.61383 5.07951C4.58153 5.0675 4.54683 5.06331 4.51259 5.0673C4.47836 5.07129 4.44555 5.08334 4.41687 5.10246C4.38819 5.12158 4.36445 5.14723 4.3476 5.1773C4.33075 5.20737 4.32127 5.241 4.31993 5.27545C4.30884 5.53689 4.19989 5.78461 4.01471 5.9695C3.82952 6.15438 3.58162 6.26291 3.32016 6.27358C3.28578 6.27487 3.2522 6.28429 3.22217 6.30107C3.19214 6.31785 3.16651 6.34151 3.14739 6.37011C3.12827 6.39871 3.1162 6.43144 3.11217 6.4656C3.10815 6.49977 3.11228 6.5344 3.12422 6.56666C3.21399 6.81206 3.20832 7.08222 3.10834 7.32363C3.00836 7.56504 2.82135 7.76011 2.58437 7.87018C2.55313 7.88459 2.52575 7.90618 2.50445 7.9332C2.48316 7.96021 2.46856 7.99188 2.46184 8.02562C2.45512 8.05936 2.45649 8.09421 2.46581 8.12732C2.47514 8.16043 2.49217 8.19087 2.5155 8.21614C2.69241 8.4084 2.79059 8.66013 2.79059 8.92139C2.79059 9.18265 2.69241 9.43438 2.5155 9.62664C2.4921 9.65194 2.47502 9.68243 2.46567 9.71561C2.45632 9.74879 2.45498 9.78371 2.46173 9.81751C2.4685 9.85131 2.48317 9.88302 2.50456 9.91006C2.52595 9.93709 2.55344 9.95866 2.58478 9.97301C2.82162 10.0832 3.00848 10.2783 3.10837 10.5197C3.20826 10.7611 3.21392 11.0312 3.12422 11.2765C3.11229 11.3088 3.10817 11.3435 3.1122 11.3776C3.11623 11.4118 3.12829 11.4446 3.1474 11.4732C3.16652 11.5018 3.19213 11.5255 3.22216 11.5424C3.25218 11.5592 3.28576 11.5687 3.32016 11.57C3.58195 11.5805 3.83019 11.6892 4.01546 11.8745C4.20072 12.0598 4.30943 12.308 4.31993 12.5698C4.32127 12.6042 4.33075 12.6379 4.3476 12.6679C4.36445 12.698 4.38819 12.7237 4.41687 12.7428C4.44555 12.7619 4.47836 12.7739 4.51259 12.7779C4.54683 12.7819 4.58153 12.7777 4.61383 12.7657C4.85926 12.6765 5.12923 12.6824 5.37052 12.7823C5.61181 12.8822 5.80691 13.0689 5.91735 13.3056C5.9311 13.3371 5.95238 13.3649 5.97931 13.3863C6.00626 13.4077 6.03804 13.4222 6.07188 13.4286C6.10569 13.4356 6.14071 13.4344 6.17397 13.4251C6.20722 13.4157 6.23773 13.3985 6.2629 13.3749C6.45527 13.198 6.70705 13.0999 6.96836 13.0999C7.22966 13.0999 7.48144 13.198 7.67381 13.3749C7.69901 13.3985 7.72952 13.4157 7.76276 13.425C7.79601 13.4344 7.83102 13.4356 7.86483 13.4286C7.89872 13.4222 7.93056 13.4077 7.95756 13.3863C7.98457 13.3649 8.00593 13.3372 8.01978 13.3056C8.12999 13.0688 8.32502 12.882 8.56631 12.7822C8.80759 12.6823 9.07758 12.6766 9.32288 12.7661C9.35519 12.7782 9.38988 12.7823 9.42412 12.7783C9.45836 12.7744 9.49116 12.7623 9.51984 12.7432C9.54852 12.7241 9.57226 12.6984 9.58911 12.6684C9.60596 12.6383 9.61545 12.6046 9.61678 12.5702C9.62728 12.3083 9.73595 12.06 9.9212 11.8746C10.1064 11.6892 10.3547 11.5803 10.6166 11.5696C10.6509 11.5683 10.6845 11.5589 10.7145 11.5421C10.7446 11.5253 10.7702 11.5017 10.7893 11.4731C10.8084 11.4445 10.8205 11.4118 10.8245 11.3776C10.8286 11.3434 10.8244 11.3088 10.8125 11.2765C10.7226 11.0314 10.728 10.7614 10.8275 10.52C10.9271 10.2787 11.1137 10.0834 11.3503 9.97301ZM6.84784 17.6494L6.96836 17.7699V13.9168C6.91343 13.9168 6.86055 13.9373 6.82038 13.9746C6.70062 14.087 6.55559 14.169 6.3975 14.2137C6.23941 14.2583 6.07291 14.2643 5.91202 14.2312C5.75127 14.1998 5.60039 14.1303 5.47201 14.0286C5.34364 13.9269 5.24151 13.7959 5.17418 13.6466C5.15102 13.5968 5.10996 13.5575 5.05915 13.5365C5.00835 13.5156 4.95152 13.5145 4.89995 13.5335C4.77534 13.5778 4.64335 13.5974 4.51095 13.5921V17.7699L5.45087 16.83C5.52774 16.7531 5.63198 16.71 5.74068 16.71C5.84937 16.71 5.95361 16.7531 6.03048 16.83L6.84784 17.6494ZM6.96836 21.869L7.90828 20.9291C7.98515 20.8522 8.08939 20.8091 8.19809 20.8091C8.30678 20.8091 8.41102 20.8522 8.48789 20.9291L9.42782 21.869V13.5913C9.29541 13.5966 9.16342 13.5769 9.03881 13.5327C8.98736 13.5136 8.93059 13.5145 8.87984 13.5354C8.82908 13.5563 8.78807 13.5956 8.76499 13.6454C8.69748 13.7951 8.595 13.9263 8.46617 14.0281C8.33733 14.1299 8.18592 14.1993 8.02469 14.2303C7.94681 14.2459 7.8677 14.2525 7.78818 14.2504V18.7594C7.78816 18.8405 7.76411 18.9197 7.71907 18.9871C7.67402 19.0545 7.61001 19.107 7.53512 19.1381C7.46023 19.1691 7.37782 19.1772 7.29832 19.1614C7.21882 19.1456 7.14579 19.1066 7.08846 19.0492L6.96836 18.9291V21.869ZM0.819708 18.7594C0.819708 19.0856 0.949268 19.3984 1.17989 19.629C1.41051 19.8596 1.72329 19.9892 2.04944 19.9892H6.14854V18.1093L5.73863 17.6994L4.38879 19.0492C4.33147 19.1066 4.25843 19.1456 4.17893 19.1614C4.09943 19.1772 4.01702 19.1691 3.94213 19.1381C3.86724 19.107 3.80323 19.0545 3.75819 18.9871C3.71314 18.9197 3.68909 18.8405 3.68908 18.7594V13.1465C3.5743 12.9859 3.50913 12.7957 3.50093 12.5985C3.49851 12.5436 3.47561 12.4917 3.43676 12.4529C3.3979 12.4141 3.34591 12.3913 3.29105 12.389C3.12723 12.3827 2.96723 12.3377 2.82417 12.2576C2.6811 12.1775 2.55904 12.0647 2.46798 11.9284C2.37692 11.792 2.31945 11.6361 2.30028 11.4733C2.28111 11.3104 2.30078 11.1454 2.35769 10.9916C2.37656 10.9402 2.37541 10.8835 2.35445 10.8329C2.33349 10.7822 2.29427 10.7413 2.24456 10.7182C2.09551 10.6498 1.96482 10.5469 1.86319 10.4182C1.76156 10.2894 1.69189 10.1385 1.65989 9.97758C1.62789 9.81671 1.63447 9.65055 1.6791 9.49271C1.72373 9.33488 1.80513 9.18987 1.91663 9.06957C1.95379 9.02917 1.97441 8.97628 1.97441 8.92139C1.97441 8.8665 1.95379 8.81361 1.91663 8.77321C1.80513 8.65295 1.72372 8.50797 1.67909 8.35017C1.63447 8.19236 1.62788 8.02622 1.65988 7.86538C1.69188 7.70454 1.76155 7.55357 1.86319 7.42487C1.96482 7.29616 2.09552 7.19338 2.24456 7.12496C2.29441 7.10203 2.33379 7.06115 2.35483 7.01047C2.37588 6.9598 2.37704 6.90305 2.3581 6.85155C2.30119 6.6978 2.28152 6.53275 2.30069 6.36993C2.31986 6.20711 2.37733 6.05114 2.46839 5.91481C2.55945 5.77848 2.68151 5.66566 2.82458 5.58559C2.96764 5.50552 3.12764 5.46048 3.29146 5.45417C3.34632 5.45186 3.39831 5.42906 3.43717 5.39028C3.47602 5.3515 3.49892 5.29955 3.50134 5.2447C3.50747 5.08082 3.55235 4.92073 3.63232 4.77755C3.71229 4.63438 3.82506 4.5122 3.96138 4.42104C4.0977 4.32988 4.25369 4.27233 4.41656 4.25312C4.57942 4.23391 4.74452 4.25358 4.89831 4.31052C4.94974 4.32994 5.00662 4.3291 5.05746 4.30817C5.10829 4.28724 5.14928 4.24779 5.17213 4.19779C5.2406 4.04875 5.34343 3.91805 5.47217 3.81642C5.60091 3.71479 5.75191 3.64512 5.91278 3.61313C6.07365 3.58113 6.23981 3.58771 6.39765 3.63234C6.55548 3.67697 6.70049 3.75837 6.82079 3.86986C6.86112 3.907 6.91394 3.92761 6.96877 3.92761C7.02359 3.92761 7.07641 3.907 7.11674 3.86986C7.237 3.75836 7.38198 3.67696 7.53979 3.63233C7.69759 3.5877 7.86373 3.58112 8.02457 3.61312C8.18541 3.64512 8.33638 3.71479 8.46508 3.81643C8.59379 3.91806 8.69657 4.04875 8.76499 4.19779C8.78793 4.24783 8.82897 4.28732 8.87985 4.30831C8.93073 4.3293 8.98768 4.33024 9.03922 4.31093C9.19301 4.25399 9.35811 4.23432 9.52098 4.25353C9.68384 4.27274 9.83983 4.33029 9.97615 4.42145C10.1125 4.51261 10.2252 4.63479 10.3052 4.77796C10.3852 4.92114 10.4301 5.08123 10.4362 5.24511C10.4386 5.29996 10.4615 5.35191 10.5004 5.39069C10.5392 5.42947 10.5912 5.45227 10.6461 5.45458C10.8099 5.46089 10.9699 5.50593 11.113 5.586C11.256 5.66607 11.3781 5.77889 11.4691 5.91522C11.5602 6.05155 11.6177 6.20752 11.6368 6.37034C11.656 6.53316 11.6363 6.69821 11.5794 6.85196C11.5606 6.90342 11.5617 6.96009 11.5827 7.01073C11.6036 7.06138 11.6429 7.10229 11.6926 7.12537C11.8416 7.19384 11.9723 7.29667 12.0739 7.42541C12.1756 7.55415 12.2452 7.70515 12.2772 7.86602C12.3092 8.02689 12.3026 8.19305 12.258 8.35089C12.2134 8.50872 12.132 8.65373 12.0205 8.77403C11.9833 8.81443 11.9627 8.86732 11.9627 8.92221C11.9627 8.9771 11.9833 9.02999 12.0205 9.07039C12.132 9.19065 12.2134 9.33563 12.258 9.49343C12.3027 9.65124 12.3092 9.81738 12.2772 9.97822C12.2452 10.1391 12.1756 10.29 12.0739 10.4187C11.9723 10.5474 11.8416 10.6502 11.6926 10.7186C11.6427 10.7416 11.6033 10.7824 11.5823 10.8331C11.5612 10.8838 11.5601 10.9406 11.579 10.9921C11.6359 11.1458 11.6556 11.3109 11.6364 11.4737C11.6173 11.6365 11.5598 11.7925 11.4687 11.9288C11.3777 12.0651 11.2556 12.1779 11.1125 12.258C10.9695 12.3381 10.8095 12.3831 10.6457 12.3894C10.5321 12.3944 10.4407 12.4854 10.4358 12.5989C10.4276 12.7957 10.362 12.9859 10.2476 13.1465V19.9892H22.5449C22.8711 19.9892 23.1839 19.8596 23.4145 19.629C23.6451 19.3984 23.7747 19.0856 23.7747 18.7594V4.00268C23.7747 3.67653 23.6451 3.36374 23.4145 3.13312C23.1839 2.90251 22.8711 2.77294 22.5449 2.77294H2.04944C1.72329 2.77294 1.41051 2.90251 1.17989 3.13312C0.949268 3.36374 0.819708 3.67653 0.819708 4.00268V18.7594Z" fill="white"/>
<path id="Vector_2" d="M20.0845 16.7099C20.4106 16.7099 20.7234 16.5803 20.954 16.3497C21.1847 16.1191 21.3142 15.8063 21.3142 15.4802V7.28197C21.3142 6.95583 21.1847 6.64304 20.954 6.41242C20.7234 6.1818 20.4106 6.05224 20.0845 6.05224H12.7061C12.5974 6.05224 12.4931 6.00905 12.4163 5.93218C12.3394 5.85531 12.2962 5.75105 12.2962 5.64233C12.2962 5.53362 12.3394 5.42935 12.4163 5.35248C12.4931 5.27561 12.5974 5.23242 12.7061 5.23242H20.0845C20.6279 5.23307 21.1488 5.44922 21.533 5.83344C21.9172 6.21766 22.1334 6.7386 22.134 7.28197V15.4802C22.1334 16.0235 21.9172 16.5445 21.533 16.9287C21.1488 17.3129 20.6279 17.5291 20.0845 17.5297H12.2962C12.1875 17.5297 12.0832 17.4865 12.0063 17.4097C11.9295 17.3328 11.8863 17.2285 11.8863 17.1198C11.8863 17.0111 11.9295 16.9068 12.0063 16.83C12.0832 16.7531 12.1875 16.7099 12.2962 16.7099H20.0845Z" fill="white"/>
<path id="Vector_3" d="M19.6751 11.7912H13.9363C13.8276 11.7912 13.7233 11.748 13.6465 11.6712C13.5696 11.5943 13.5264 11.49 13.5264 11.3813C13.5264 11.2726 13.5696 11.1683 13.6465 11.0915C13.7233 11.0146 13.8276 10.9714 13.9363 10.9714H19.6751C19.7838 10.9714 19.888 11.0146 19.9649 11.0915C20.0418 11.1683 20.085 11.2726 20.085 11.3813C20.085 11.49 20.0418 11.5943 19.9649 11.6712C19.888 11.748 19.7838 11.7912 19.6751 11.7912ZM19.6751 10.1516H13.9363C13.8276 10.1516 13.7233 10.1084 13.6465 10.0315C13.5696 9.95466 13.5264 9.85039 13.5264 9.74168C13.5264 9.63296 13.5696 9.5287 13.6465 9.45183C13.7233 9.37496 13.8276 9.33177 13.9363 9.33177H19.6751C19.7838 9.33177 19.888 9.37496 19.9649 9.45183C20.0418 9.5287 20.085 9.63296 20.085 9.74168C20.085 9.85039 20.0418 9.95466 19.9649 10.0315C19.888 10.1084 19.7838 10.1516 19.6751 10.1516ZM19.6751 8.51195H13.9363C13.8276 8.51195 13.7233 8.46876 13.6465 8.39189C13.5696 8.31502 13.5264 8.21075 13.5264 8.10204C13.5264 7.99332 13.5696 7.88906 13.6465 7.81219C13.7233 7.73532 13.8276 7.69213 13.9363 7.69213H19.6751C19.7838 7.69213 19.888 7.73532 19.9649 7.81219C20.0418 7.88906 20.085 7.99332 20.085 8.10204C20.085 8.21075 20.0418 8.31502 19.9649 8.39189C19.888 8.46876 19.7838 8.51195 19.6751 8.51195ZM20.0509 15.6444C20.0294 15.6938 19.9984 15.7384 19.9596 15.7758C19.9208 15.8132 19.8751 15.8425 19.8249 15.8622C19.7748 15.8819 19.7213 15.8915 19.6674 15.8905C19.6136 15.8895 19.5605 15.8779 19.5111 15.8563C19.1316 15.7153 18.7828 15.5025 18.4839 15.2296C18.3729 15.1188 18.2758 14.9949 18.1949 14.8606C18.0383 15.0369 17.8546 15.1861 17.6501 15.3033C17.3652 15.4894 17.0106 15.5349 16.688 15.4263C16.5642 15.3784 16.4523 15.3042 16.3601 15.2091C16.1744 15.3251 15.9703 15.4075 15.7563 15.453L15.4464 15.5263C14.8139 15.7116 14.1568 15.7985 13.4977 15.7846C13.444 15.7807 13.3916 15.7663 13.3435 15.7422C13.2954 15.718 13.2525 15.6847 13.2172 15.6439C13.182 15.6032 13.1551 15.556 13.1382 15.5049C13.1212 15.4538 13.1145 15.3999 13.1183 15.3462C13.1222 15.2925 13.1366 15.2401 13.1608 15.1919C13.1849 15.1438 13.2183 15.1009 13.259 15.0657C13.2997 15.0305 13.3469 15.0036 13.398 14.9866C13.4491 14.9697 13.503 14.9629 13.5567 14.9668C14.1318 14.9742 14.7045 14.8942 15.2554 14.7291L15.5723 14.654C15.9547 14.5659 16.0531 14.4118 16.0937 14.3032C16.1282 14.2109 16.1949 14.1342 16.2814 14.087C16.3679 14.0399 16.4685 14.0254 16.5647 14.0464C16.661 14.0674 16.7465 14.1223 16.8056 14.2011C16.8647 14.28 16.8934 14.3775 16.8864 14.4757C16.8842 14.5118 16.8914 14.5479 16.9075 14.5804C16.9235 14.6128 16.9478 14.6405 16.9778 14.6606C17.0736 14.6728 17.1704 14.6478 17.2484 14.5909C17.5799 14.3845 17.8292 14.0692 17.9534 13.6989C17.9876 13.6067 18.0537 13.5298 18.1398 13.4823C18.2259 13.4348 18.3262 13.4198 18.4224 13.4401C18.5186 13.4604 18.6043 13.5146 18.6639 13.5928C18.7235 13.671 18.753 13.768 18.747 13.8662C18.7436 14.0113 18.77 14.1555 18.8246 14.29C18.8791 14.4244 18.9607 14.5462 19.0643 14.6479C19.2919 14.8469 19.5546 15.0018 19.839 15.1045C19.8884 15.126 19.9331 15.1571 19.9704 15.1959C20.0078 15.2346 20.0372 15.2804 20.0569 15.3305C20.0765 15.3807 20.0861 15.4342 20.0851 15.488C20.0841 15.5419 20.0725 15.595 20.0509 15.6444ZM6.96785 12.2011C6.31927 12.2011 5.68525 12.0088 5.14598 11.6485C4.6067 11.2881 4.18639 10.776 3.93819 10.1768C3.68999 9.57758 3.62505 8.91822 3.75158 8.2821C3.87811 7.64599 4.19043 7.06167 4.64905 6.60306C5.10766 6.14444 5.69197 5.83212 6.32809 5.70559C6.96421 5.57906 7.62356 5.644 8.22277 5.8922C8.82198 6.1404 9.33414 6.56071 9.69447 7.09999C10.0548 7.63926 10.2471 8.27328 10.2471 8.92186C10.2461 9.79128 9.90034 10.6248 9.28557 11.2396C8.6708 11.8544 7.83727 12.2002 6.96785 12.2011ZM6.96785 6.4624C6.64487 6.4624 6.32505 6.52602 6.02665 6.64961C5.72826 6.77321 5.45713 6.95438 5.22875 7.18276C5.00036 7.41114 4.8192 7.68227 4.6956 7.98066C4.572 8.27906 4.50839 8.59888 4.50839 8.92186C4.50839 9.24484 4.572 9.56466 4.6956 9.86305C4.8192 10.1614 5.00036 10.4326 5.22875 10.661C5.45713 10.8893 5.72826 11.0705 6.02665 11.1941C6.32505 11.3177 6.64487 11.3813 6.96785 11.3813C7.62014 11.3813 8.24571 11.1222 8.70695 10.661C9.16819 10.1997 9.42731 9.57415 9.42731 8.92186C9.42731 8.26957 9.16819 7.644 8.70695 7.18276C8.24571 6.72152 7.62014 6.4624 6.96785 6.4624Z" fill="white"/>
</g>
</g>
</g>
<defs>
<clipPath id="clip0_431_78696">
<rect width="24.5946" height="23.5698" fill="white" transform="matrix(-1 0 0 1 24.5945 0)"/>
</clipPath>
</defs>
</svg>
