<svg width="72" height="66" viewBox="0 0 72 66" fill="none" xmlns="http://www.w3.org/2000/svg">
<g id="svgexport-17 - 2023-09-04T191314.055 2" clip-path="url(#clip0_431_75421)">
<g id="Group">
<g id="Group_2">
<path id="Vector" d="M6.00024 5.71875H66.0002C67.591 5.72066 69.116 6.35341 70.2408 7.47821C71.3656 8.60302 71.9983 10.128 72.0002 11.7188V54.9188C71.9983 56.5095 71.3656 58.0345 70.2408 59.1593C69.116 60.2841 67.591 60.9169 66.0002 60.9188H30.0002V66.9188C30.0002 67.1561 29.9298 67.388 29.7979 67.5853C29.6661 67.7826 29.4787 67.9364 29.2594 68.0272C29.0402 68.118 28.799 68.1417 28.5662 68.0955C28.3335 68.0492 28.1197 67.9349 27.9518 67.7672L24.0002 63.8156L20.0486 67.7672C19.8808 67.9349 19.667 68.0492 19.4343 68.0955C19.2015 68.1417 18.9603 68.118 18.7411 68.0272C18.5218 67.9364 18.3344 67.7826 18.2026 67.5853C18.0707 67.388 18.0003 67.1561 18.0002 66.9188V60.9188H6.00024C4.40953 60.9169 2.88451 60.2841 1.7597 59.1593C0.634903 58.0345 0.00214386 56.5095 0.000244141 54.9188V11.7188C0.00214386 10.128 0.634903 8.60302 1.7597 7.47821C2.88451 6.35341 4.40953 5.72066 6.00024 5.71875ZM33.2282 29.1968C33.3197 29.1546 33.3999 29.0914 33.4622 29.0123C33.5245 28.9332 33.5673 28.8405 33.5869 28.7417C33.6066 28.6429 33.6026 28.5409 33.5753 28.444C33.548 28.347 33.4982 28.2579 33.4298 28.184C32.912 27.6211 32.6245 26.8842 32.6245 26.1194C32.6245 25.3545 32.912 24.6176 33.4298 24.0548C33.4984 23.9807 33.5484 23.8914 33.5757 23.7943C33.6031 23.6972 33.607 23.5949 33.5872 23.496C33.5675 23.397 33.5245 23.3042 33.4619 23.2251C33.3993 23.1459 33.3188 23.0828 33.227 23.0408C32.5337 22.7181 31.9867 22.147 31.6942 21.4403C31.4018 20.7337 31.3853 19.943 31.6478 19.2248C31.6828 19.1302 31.6948 19.0288 31.683 18.9287C31.6712 18.8287 31.6359 18.7328 31.58 18.649C31.524 18.5652 31.449 18.4958 31.3611 18.4466C31.2732 18.3973 31.1749 18.3695 31.0742 18.3656C30.3099 18.3334 29.5855 18.0154 29.0445 17.4744C28.5036 16.9335 28.1856 16.2091 28.1534 15.4448C28.1495 15.3439 28.1218 15.2455 28.0724 15.1574C28.0231 15.0694 27.9536 14.9943 27.8696 14.9383C27.7857 14.8824 27.6897 14.8471 27.5894 14.8354C27.4892 14.8237 27.3876 14.836 27.293 14.8712C26.5745 15.1322 25.7843 15.1148 25.078 14.8223C24.3717 14.5298 23.8006 13.9834 23.477 13.2908C23.4352 13.1991 23.3722 13.1188 23.2932 13.0563C23.2143 12.9937 23.1216 12.9509 23.0228 12.9312C22.924 12.9115 22.822 12.9156 22.7251 12.943C22.6282 12.9705 22.5392 13.0206 22.4654 13.0892C21.2978 14.1632 19.5014 14.1632 18.335 13.0892C18.2611 13.0206 18.1719 12.9706 18.0749 12.9432C17.9778 12.9159 17.8757 12.9119 17.7768 12.9317C17.6779 12.9515 17.5852 12.9945 17.5062 13.0571C17.4271 13.1197 17.3641 13.2002 17.3222 13.292C16.9994 13.9848 16.4284 14.5315 15.7221 14.8238C15.0158 15.1162 14.2256 15.1331 13.5074 14.8712C13.4129 14.836 13.3113 14.8237 13.2111 14.8354C13.1108 14.8471 13.0148 14.8824 12.9308 14.9383C12.8469 14.9943 12.7774 15.0694 12.7281 15.1574C12.6787 15.2455 12.651 15.3439 12.647 15.4448C12.6146 16.2101 12.2956 16.9353 11.7535 17.4766C11.2114 18.0178 10.4857 18.3355 9.72024 18.3668C9.6196 18.3705 9.52129 18.3981 9.43338 18.4472C9.34546 18.4964 9.27044 18.5656 9.21447 18.6494C9.1585 18.7331 9.12317 18.8289 9.11138 18.9289C9.09959 19.0289 9.11168 19.1303 9.14664 19.2248C9.40944 19.9431 9.39284 20.734 9.10014 21.4408C8.80745 22.1475 8.26001 22.7185 7.56624 23.0408C7.4748 23.0829 7.39463 23.1462 7.33229 23.2252C7.26994 23.3043 7.2272 23.397 7.20753 23.4958C7.18788 23.5946 7.19186 23.6966 7.21916 23.7935C7.24647 23.8905 7.29632 23.9796 7.36464 24.0536C7.88251 24.6164 8.16995 25.3533 8.16995 26.1182C8.16995 26.883 7.88251 27.6199 7.36464 28.1828C7.29611 28.2568 7.24612 28.3461 7.21875 28.4432C7.19139 28.5403 7.18744 28.6426 7.20723 28.7415C7.22702 28.8405 7.26998 28.9333 7.3326 29.0124C7.39521 29.0916 7.47569 29.1547 7.56744 29.1968C8.2608 29.5194 8.8078 30.0906 9.10023 30.7972C9.39267 31.5038 9.40923 32.2945 9.14664 33.0128C9.11171 33.1073 9.09965 33.2087 9.11145 33.3088C9.12324 33.4089 9.15856 33.5047 9.21451 33.5885C9.27045 33.6723 9.34544 33.7417 9.43335 33.791C9.52124 33.8402 9.61956 33.868 9.72024 33.872C10.4866 33.9027 11.2133 34.2209 11.7557 34.7633C12.2981 35.3057 12.6163 36.0324 12.647 36.7988C12.651 36.8996 12.6787 36.9981 12.7281 37.0861C12.7774 37.1741 12.8469 37.2492 12.9308 37.3052C13.0148 37.3611 13.1108 37.3964 13.2111 37.4081C13.3113 37.4198 13.4129 37.4075 13.5074 37.3724C14.2259 37.111 15.0163 37.1283 15.7226 37.4208C16.429 37.7134 17.0001 38.2599 17.3234 38.9528C17.3637 39.0452 17.426 39.1263 17.5048 39.189C17.5837 39.2518 17.6768 39.2943 17.7758 39.3128C17.8748 39.3334 17.9773 39.33 18.0747 39.3026C18.172 39.2752 18.2613 39.2248 18.335 39.1556C18.8982 38.6379 19.6353 38.3506 20.4002 38.3506C21.1652 38.3506 21.9023 38.6379 22.4654 39.1556C22.5392 39.2247 22.6285 39.2751 22.7258 39.3024C22.8232 39.3298 22.9257 39.3333 23.0246 39.3128C23.1239 39.2943 23.2171 39.2518 23.2961 39.189C23.3752 39.1263 23.4377 39.0452 23.4782 38.9528C23.8009 38.2597 24.3718 37.7129 25.0782 37.4205C25.7846 37.1281 26.5749 37.1113 27.293 37.3736C27.3876 37.4087 27.4892 37.421 27.5894 37.4093C27.6897 37.3976 27.7857 37.3623 27.8696 37.3064C27.9536 37.2504 28.0231 37.1753 28.0724 37.0873C28.1218 36.9993 28.1495 36.9008 28.1534 36.8C28.1842 36.0333 28.5023 35.3063 29.0446 34.7636C29.5869 34.2208 30.3136 33.9021 31.0802 33.8708C31.1809 33.867 31.2792 33.8394 31.3671 33.7903C31.455 33.7411 31.53 33.6719 31.586 33.5881C31.642 33.5044 31.6773 33.4086 31.6891 33.3086C31.7009 33.2086 31.6888 33.1072 31.6538 33.0128C31.3906 32.2951 31.4064 31.5048 31.6979 30.7981C31.9894 30.0915 32.5356 29.52 33.2282 29.1968ZM20.0474 51.6692L20.4002 52.022V40.742C20.2394 40.742 20.0846 40.802 19.967 40.9112C19.6165 41.2403 19.1919 41.4804 18.7291 41.6112C18.2663 41.7419 17.7788 41.7594 17.3078 41.6624C16.8373 41.5705 16.3956 41.3672 16.0197 41.0694C15.6439 40.7717 15.3449 40.3882 15.1478 39.9512C15.08 39.8052 14.9598 39.6902 14.8111 39.6288C14.6624 39.5675 14.496 39.5643 14.345 39.62C13.9802 39.7496 13.5938 39.8072 13.2062 39.7916V52.022L15.9578 49.2704C16.1829 49.0454 16.488 48.919 16.8062 48.919C17.1244 48.919 17.4296 49.0454 17.6546 49.2704L20.0474 51.6692ZM20.4002 64.022L23.1518 61.2704C23.3769 61.0454 23.682 60.919 24.0002 60.919C24.3184 60.919 24.6236 61.0454 24.8486 61.2704L27.6002 64.022V39.7892C27.2126 39.8048 26.8262 39.7472 26.4614 39.6176C26.3108 39.5616 26.1446 39.5645 25.996 39.6256C25.8475 39.6868 25.7274 39.8018 25.6598 39.9476C25.4622 40.3857 25.1622 40.77 24.785 41.068C24.4079 41.366 23.9646 41.569 23.4926 41.66C23.2646 41.7056 23.033 41.7248 22.8002 41.7188V54.9188C22.8002 55.1561 22.7298 55.388 22.5979 55.5853C22.4661 55.7826 22.2787 55.9364 22.0594 56.0272C21.8402 56.118 21.5989 56.1417 21.3662 56.0955C21.1335 56.0492 20.9197 55.9349 20.7518 55.7672L20.4002 55.4156V64.022ZM2.40024 54.9188C2.40024 55.8735 2.77953 56.7892 3.45466 57.4643C4.12979 58.1395 5.04546 58.5188 6.00024 58.5188H18.0002V53.0156L16.8002 51.8156L12.8486 55.7672C12.6808 55.9349 12.467 56.0492 12.2343 56.0955C12.0015 56.1417 11.7603 56.118 11.5411 56.0272C11.3218 55.9364 11.1344 55.7826 11.0026 55.5853C10.8707 55.388 10.8003 55.1561 10.8002 54.9188V38.4872C10.4642 38.0168 10.2734 37.46 10.2494 36.8828C10.2424 36.7222 10.1753 36.5701 10.0616 36.4566C9.94782 36.343 9.79562 36.2763 9.63504 36.2696C9.15545 36.2511 8.68706 36.1192 8.26824 35.8848C7.84942 35.6504 7.49209 35.3201 7.22551 34.921C6.95893 34.5219 6.7907 34.0653 6.73457 33.5887C6.67845 33.112 6.73605 32.6289 6.90264 32.1788C6.95789 32.0281 6.95451 31.8622 6.89316 31.714C6.83181 31.5657 6.71698 31.4459 6.57144 31.3784C6.13512 31.1779 5.75251 30.8769 5.45499 30.5C5.15748 30.1231 4.95352 29.6811 4.85985 29.2101C4.76617 28.7392 4.78545 28.2527 4.91609 27.7907C5.04674 27.3286 5.28503 26.9041 5.61144 26.552C5.72022 26.4337 5.7806 26.2788 5.7806 26.1182C5.7806 25.9575 5.72022 25.8026 5.61144 25.6844C5.28503 25.3323 5.04672 24.9079 4.91608 24.4459C4.78542 23.9839 4.76614 23.4976 4.85983 23.0267C4.95351 22.5559 5.15747 22.1139 5.455 21.7371C5.75253 21.3603 6.13514 21.0595 6.57144 20.8592C6.71739 20.792 6.83266 20.6724 6.89427 20.524C6.95589 20.3756 6.9593 20.2095 6.90384 20.0588C6.73724 19.6086 6.67965 19.1255 6.73577 18.6488C6.79189 18.1722 6.96013 17.7156 7.22671 17.3165C7.49329 16.9174 7.85062 16.5871 8.26944 16.3527C8.68826 16.1183 9.15665 15.9864 9.63624 15.968C9.79682 15.9612 9.94902 15.8945 10.0628 15.7809C10.1765 15.6674 10.2436 15.5153 10.2506 15.3548C10.2686 14.875 10.4 14.4063 10.6341 13.9872C10.8682 13.568 11.1983 13.2104 11.5974 12.9435C11.9965 12.6766 12.4531 12.5082 12.9299 12.4519C13.4067 12.3957 13.89 12.4533 14.3402 12.62C14.4908 12.6768 14.6573 12.6743 14.8061 12.6131C14.955 12.5518 15.0749 12.4363 15.1418 12.29C15.3423 11.8536 15.6433 11.471 16.0202 11.1735C16.3971 10.876 16.8391 10.672 17.3101 10.5784C17.781 10.4847 18.2675 10.504 18.7295 10.6346C19.1916 10.7652 19.6161 11.0035 19.9682 11.33C20.0863 11.4387 20.2409 11.499 20.4014 11.499C20.5619 11.499 20.7166 11.4387 20.8346 11.33C21.1867 11.0035 21.6111 10.7652 22.0731 10.6346C22.5351 10.5039 23.0214 10.4847 23.4923 10.5783C23.9631 10.672 24.4051 10.876 24.7819 11.1735C25.1587 11.471 25.4595 11.8536 25.6598 12.29C25.727 12.4364 25.8471 12.552 25.9961 12.6135C26.145 12.6749 26.3117 12.6777 26.4626 12.6212C26.9129 12.4545 27.3962 12.3969 27.873 12.4531C28.3498 12.5094 28.8064 12.6778 29.2055 12.9447C29.6046 13.2116 29.9347 13.5692 30.1688 13.9884C30.4029 14.4075 30.5343 14.8762 30.5522 15.356C30.5593 15.5165 30.6263 15.6686 30.7401 15.7821C30.8539 15.8957 31.0061 15.9624 31.1666 15.9692C31.6462 15.9876 32.1146 16.1195 32.5334 16.3539C32.9523 16.5883 33.3096 16.9186 33.5762 17.3177C33.8428 17.7168 34.011 18.1734 34.0671 18.65C34.1232 19.1267 34.0656 19.6098 33.899 20.06C33.8438 20.2106 33.8472 20.3765 33.9085 20.5248C33.9699 20.673 34.0847 20.7928 34.2302 20.8604C34.6666 21.0608 35.0492 21.3618 35.3467 21.7387C35.6442 22.1156 35.8482 22.5576 35.9418 23.0286C36.0355 23.4995 36.0162 23.986 35.8856 24.448C35.7549 24.9101 35.5167 25.3346 35.1902 25.6868C35.0815 25.805 35.0211 25.9599 35.0211 26.1206C35.0211 26.2812 35.0815 26.4361 35.1902 26.5544C35.5167 26.9064 35.755 27.3308 35.8856 27.7928C36.0163 28.2548 36.0355 28.7411 35.9419 29.212C35.8482 29.6829 35.6442 30.1248 35.3467 30.5016C35.0492 30.8784 34.6665 31.1792 34.2302 31.3796C34.0843 31.4467 33.969 31.5664 33.9074 31.7147C33.8458 31.8631 33.8424 32.0292 33.8978 32.18C34.0644 32.6301 34.122 33.1132 34.0659 33.5899C34.0098 34.0665 33.8416 34.5231 33.575 34.9222C33.3084 35.3213 32.9511 35.6516 32.5322 35.886C32.1134 36.1204 31.645 36.2523 31.1654 36.2708C30.833 36.2852 30.5654 36.5516 30.551 36.884C30.527 37.46 30.335 38.0168 30.0002 38.4872V58.5188H66.0002C66.955 58.5188 67.8707 58.1395 68.5458 57.4643C69.221 56.7892 69.6002 55.8735 69.6002 54.9188V11.7188C69.6002 10.764 69.221 9.8483 68.5458 9.17317C67.8707 8.49804 66.955 8.11875 66.0002 8.11875H6.00024C5.04546 8.11875 4.12979 8.49804 3.45466 9.17317C2.77953 9.8483 2.40024 10.764 2.40024 11.7188V54.9188Z" fill="black" fill-opacity="0.03"/>
<path id="Vector_2" d="M58.7976 48.9184C59.7524 48.9184 60.6681 48.5391 61.3432 47.8639C62.0183 47.1888 62.3976 46.2731 62.3976 45.3184V21.3184C62.3976 20.3636 62.0183 19.4479 61.3432 18.7728C60.6681 18.0976 59.7524 17.7184 58.7976 17.7184H37.1976C36.8793 17.7184 36.5741 17.5919 36.3491 17.3669C36.124 17.1418 35.9976 16.8366 35.9976 16.5184C35.9976 16.2001 36.124 15.8949 36.3491 15.6698C36.5741 15.4448 36.8793 15.3184 37.1976 15.3184H58.7976C60.3883 15.3203 61.9133 15.953 63.0381 17.0778C64.1629 18.2026 64.7957 19.7276 64.7976 21.3184V45.3184C64.7957 46.9091 64.1629 48.4341 63.0381 49.5589C61.9133 50.6837 60.3883 51.3165 58.7976 51.3184H35.9976C35.6793 51.3184 35.3741 51.1919 35.1491 50.9669C34.924 50.7418 34.7976 50.4366 34.7976 50.1184C34.7976 49.8001 34.924 49.4949 35.1491 49.2698C35.3741 49.0448 35.6793 48.9184 35.9976 48.9184H58.7976Z" fill="black" fill-opacity="0.03"/>
<path id="Vector_3" d="M57.5984 34.5195H40.7984C40.4801 34.5195 40.1749 34.3931 39.9498 34.1681C39.7248 33.943 39.5984 33.6378 39.5984 33.3195C39.5984 33.0013 39.7248 32.6961 39.9498 32.471C40.1749 32.246 40.4801 32.1195 40.7984 32.1195H57.5984C57.9166 32.1195 58.2219 32.246 58.4469 32.471C58.6719 32.6961 58.7984 33.0013 58.7984 33.3195C58.7984 33.6378 58.6719 33.943 58.4469 34.1681C58.2219 34.3931 57.9166 34.5195 57.5984 34.5195ZM57.5984 29.7195H40.7984C40.4801 29.7195 40.1749 29.5931 39.9498 29.3681C39.7248 29.143 39.5984 28.8378 39.5984 28.5195C39.5984 28.2013 39.7248 27.8961 39.9498 27.671C40.1749 27.446 40.4801 27.3195 40.7984 27.3195H57.5984C57.9166 27.3195 58.2219 27.446 58.4469 27.671C58.6719 27.8961 58.7984 28.2013 58.7984 28.5195C58.7984 28.8378 58.6719 29.143 58.4469 29.3681C58.2219 29.5931 57.9166 29.7195 57.5984 29.7195ZM57.5984 24.9195H40.7984C40.4801 24.9195 40.1749 24.7931 39.9498 24.5681C39.7248 24.343 39.5984 24.0378 39.5984 23.7195C39.5984 23.4013 39.7248 23.0961 39.9498 22.871C40.1749 22.646 40.4801 22.5195 40.7984 22.5195H57.5984C57.9166 22.5195 58.2219 22.646 58.4469 22.871C58.6719 23.0961 58.7984 23.4013 58.7984 23.7195C58.7984 24.0378 58.6719 24.343 58.4469 24.5681C58.2219 24.7931 57.9166 24.9195 57.5984 24.9195ZM58.6988 45.7995C58.6358 45.9441 58.5449 46.0748 58.4314 46.1842C58.3179 46.2937 58.1839 46.3796 58.0371 46.4373C57.8904 46.4949 57.7337 46.523 57.576 46.52C57.4184 46.5171 57.2629 46.483 57.1184 46.4199C56.0074 46.0072 54.9864 45.3842 54.1112 44.5851C53.7863 44.2609 53.5022 43.8982 53.2652 43.5051C52.8068 44.0211 52.2692 44.4579 51.6704 44.8011C50.8364 45.3459 49.7984 45.4791 48.854 45.1611C48.4916 45.0207 48.164 44.8035 47.894 44.5251C47.3504 44.8647 46.7528 45.1059 46.1264 45.2391L45.2192 45.4539C43.3676 45.9963 41.444 46.2507 39.5144 46.2099C39.3572 46.1986 39.2038 46.1564 39.0629 46.0858C38.922 46.0151 38.7964 45.9174 38.6933 45.7982C38.5901 45.6791 38.5115 45.5408 38.4618 45.3912C38.4121 45.2416 38.3924 45.0837 38.4038 44.9265C38.4151 44.7693 38.4573 44.6159 38.5279 44.475C38.5986 44.3342 38.6963 44.2086 38.8155 44.1054C38.9346 44.0023 39.0729 43.9237 39.2225 43.874C39.3721 43.8243 39.53 43.8046 39.6872 43.8159C41.3708 43.8375 43.0472 43.6035 44.66 43.1199L45.5876 42.9003C46.7072 42.6423 46.9952 42.1911 47.114 41.8731C47.2151 41.603 47.4102 41.3784 47.6634 41.2404C47.9167 41.1024 48.2112 41.0601 48.493 41.1215C48.7748 41.1828 49.0251 41.3436 49.198 41.5744C49.371 41.8053 49.455 42.0906 49.4348 42.3783C49.4282 42.4841 49.4494 42.5897 49.4964 42.6846C49.5433 42.7796 49.6144 42.8606 49.7024 42.9195C49.9827 42.9552 50.2661 42.8822 50.4944 42.7155C51.4648 42.1114 52.1946 41.1881 52.5584 40.1043C52.6583 39.8344 52.8519 39.6093 53.1039 39.4702C53.3559 39.3311 53.6496 39.2872 53.9313 39.3465C54.2129 39.4059 54.4639 39.5646 54.6384 39.7935C54.8128 40.0225 54.8991 40.3066 54.8816 40.5939C54.8716 41.0186 54.9488 41.4409 55.1086 41.8345C55.2684 42.2281 55.5072 42.5847 55.8104 42.8823C56.4767 43.4651 57.2458 43.9184 58.0784 44.2191C58.2229 44.2821 58.3536 44.373 58.4631 44.4865C58.5725 44.6 58.6585 44.734 58.7161 44.8808C58.7737 45.0275 58.8018 45.1842 58.7989 45.3419C58.7959 45.4995 58.7619 45.655 58.6988 45.7995ZM20.3984 35.7195C18.4997 35.7195 16.6436 35.1565 15.0649 34.1016C13.4862 33.0468 12.2557 31.5475 11.5291 29.7933C10.8025 28.0391 10.6124 26.1089 10.9828 24.2467C11.3532 22.3845 12.2676 20.6739 13.6101 19.3313C14.9527 17.9887 16.6633 17.0744 18.5255 16.704C20.3877 16.3336 22.318 16.5237 24.0721 17.2503C25.8263 17.9769 27.3256 19.2073 28.3805 20.7861C29.4353 22.3648 29.9984 24.2208 29.9984 26.1195C29.9955 28.6647 28.9832 31.1049 27.1834 32.9046C25.3837 34.7043 22.9436 35.7167 20.3984 35.7195ZM20.3984 18.9195C19.4529 18.9195 18.5166 19.1058 17.643 19.4676C16.7695 19.8294 15.9758 20.3598 15.3072 21.0284C14.6386 21.6969 14.1083 22.4907 13.7464 23.3642C13.3846 24.2378 13.1984 25.174 13.1984 26.1195C13.1984 27.0651 13.3846 28.0013 13.7464 28.8749C14.1083 29.7484 14.6386 30.5421 15.3072 31.2107C15.9758 31.8793 16.7695 32.4096 17.643 32.7715C18.5166 33.1333 19.4529 33.3195 20.3984 33.3195C22.3079 33.3195 24.1393 32.561 25.4895 31.2107C26.8398 29.8604 27.5984 28.0291 27.5984 26.1195C27.5984 24.21 26.8398 22.3786 25.4895 21.0284C24.1393 19.6781 22.3079 18.9195 20.3984 18.9195Z" fill="black" fill-opacity="0.03"/>
</g>
</g>
</g>
<defs>
<clipPath id="clip0_431_75421">
<rect width="72" height="69" fill="white" transform="matrix(-1 0 0 1 72 0)"/>
</clipPath>
</defs>
</svg>
