<svg width="25" height="25" viewBox="0 0 25 25" fill="none" xmlns="http://www.w3.org/2000/svg">
<g id="Group">
<path id="Vector" d="M12.2972 24.5946C5.51729 24.5946 -0.000112534 19.0772 -0.000112534 12.2973C-0.000112534 5.5174 5.51722 0 12.2972 0C19.0772 0 24.5945 5.5174 24.5945 12.2973C24.5945 19.0772 19.0771 24.5946 12.2972 24.5946ZM12.2972 1.63961C6.4191 1.63961 1.6395 6.41915 1.6395 12.2973C1.6395 18.1755 6.41903 22.955 12.2972 22.955C18.1753 22.955 22.9549 18.1755 22.9549 12.2973C22.9549 6.41915 18.1753 1.63961 12.2972 1.63961Z" fill="white"/>
<path id="Vector_2" d="M8.70968 16.217C8.55799 16.34 8.37768 16.3974 8.19731 16.3974C8.07445 16.3977 7.95312 16.3701 7.8424 16.3169C7.73167 16.2637 7.63441 16.1861 7.55788 16.09C7.27502 15.7374 7.33246 15.221 7.68493 14.9381L11.4766 11.9048V5.73973C11.4766 5.28882 11.8455 4.91992 12.2964 4.91992C12.7473 4.91992 13.1162 5.28882 13.1162 5.73973V12.2983C13.1162 12.5484 13.0014 12.782 12.8088 12.9377L8.70968 16.217Z" fill="white"/>
</g>
</svg>
