<svg width="70" height="70" viewBox="0 0 70 70" fill="none" xmlns="http://www.w3.org/2000/svg">
<g id="svgexport-17 - 2023-12-25T115010.879 1" clip-path="url(#clip0_431_75384)">
<g id="Group">
<path id="Vector" d="M35 0H19.8333C19.5239 0 19.2272 0.122916 19.0084 0.341709C18.7896 0.560501 18.6667 0.857247 18.6667 1.16667V9.33333H1.16667C0.857248 9.33333 0.560501 9.45625 0.341709 9.67504C0.122916 9.89383 0 10.1906 0 10.5L0 68.8333C0 69.1428 0.122916 69.4395 0.341709 69.6583C0.560501 69.8771 0.857248 70 1.16667 70H35C35.3094 70 35.6062 69.8771 35.825 69.6583C36.0438 69.4395 36.1667 69.1428 36.1667 68.8333V1.16667C36.1667 0.857247 36.0438 0.560501 35.825 0.341709C35.6062 0.122916 35.3094 0 35 0ZM33.8333 60.6667H21V58.3333H33.8333V60.6667ZM2.33333 17.5H18.6667V52.5H2.33333V17.5ZM33.8333 12.8333H21V9.33333H33.8333V12.8333ZM2.33333 54.8333H18.6667V58.3333H2.33333V54.8333ZM21 56V15.1667H33.8333V56H21ZM33.8333 2.33333V7H21V2.33333H33.8333ZM18.6667 11.6667V15.1667H2.33333V11.6667H18.6667ZM2.33333 60.6667H18.6667V67.6667H2.33333V60.6667ZM21 67.6667V63H33.8333V67.6667H21Z" fill="#0B0B0B" fill-opacity="0.03"/>
<path id="Vector_2" d="M69.9625 63.8732L55.9625 10.2065C55.9238 10.0576 55.8561 9.91784 55.7631 9.79526C55.6702 9.67267 55.5539 9.5697 55.421 9.49228C55.2881 9.41487 55.1411 9.36454 54.9886 9.34421C54.8361 9.32387 54.6811 9.33394 54.5326 9.37381L37.0326 14.0405C36.7348 14.1198 36.4805 14.3137 36.3253 14.5799C36.1701 14.8462 36.1266 15.163 36.2042 15.4612L50.2042 69.1279C50.2429 69.2767 50.3107 69.4164 50.4037 69.5388C50.4967 69.6613 50.613 69.7641 50.746 69.8414C50.8789 69.9186 51.0259 69.9687 51.1783 69.9888C51.3308 70.0089 51.4857 69.9985 51.6341 69.9584L69.1341 65.2917C69.4314 65.2123 69.6852 65.0187 69.8403 64.753C69.9955 64.4873 70.0394 64.1711 69.9625 63.8732ZM40.6141 23.1214L55.8599 19.0569L56.4086 21.1566L41.1639 25.2274L40.6141 23.1214ZM56.9976 23.4203L63.764 49.3759L48.5238 53.4422L41.7574 27.485L56.9976 23.4203ZM64.3581 51.6347L65.5528 56.213L50.3069 60.2775L49.1169 55.7008L64.3581 51.6347ZM54.0007 11.9297L55.2709 16.8004L40.0251 20.8637L38.7559 15.9955L54.0007 11.9297ZM52.1664 67.4044L50.8959 62.534L66.1418 58.4682L67.411 63.3367L52.1664 67.4044ZM15.1667 21.0005H5.83341C5.524 21.0005 5.22725 21.1234 5.00846 21.3422C4.78966 21.561 4.66675 21.8578 4.66675 22.1672V31.5005C4.66675 31.8099 4.78966 32.1067 5.00846 32.3255C5.22725 32.5443 5.524 32.6672 5.83341 32.6672H15.1667C15.4762 32.6672 15.7729 32.5443 15.9917 32.3255C16.2105 32.1067 16.3334 31.8099 16.3334 31.5005V22.1672C16.3334 21.8578 16.2105 21.561 15.9917 21.3422C15.7729 21.1234 15.4762 21.0005 15.1667 21.0005ZM14.0001 30.3339H7.00008V23.3339H14.0001V30.3339Z" fill="#0B0B0B" fill-opacity="0.03"/>
</g>
</g>
<defs>
<clipPath id="clip0_431_75384">
<rect width="70" height="70" fill="white"/>
</clipPath>
</defs>
</svg>
