<svg width="18" height="22" viewBox="0 0 18 22" fill="none" xmlns="http://www.w3.org/2000/svg">
<path id="Vector" d="M5.903 9.77491C4.5541 8.79114 3.67569 7.19903 3.67569 5.4054C3.67569 2.42486 6.10055 0 9.0811 0C12.0616 0 14.4865 2.42486 14.4865 5.4054C14.4865 7.19903 13.6081 8.79114 12.2592 9.77491C15.6124 11.0581 18 14.3092 18 18.1081C18 19.7474 16.6663 21.0811 15.027 21.0811H3.13516C1.49586 21.0811 0.162195 19.7474 0.162195 18.1081C0.162195 14.3092 2.54979 11.0581 5.903 9.77491ZM12.8649 5.4054C12.8649 3.31904 11.1675 1.62164 9.0811 1.62164C6.99473 1.62164 5.29733 3.31904 5.29733 5.4054C5.29733 7.49177 6.99473 9.18921 9.0811 9.18921C11.1675 9.18921 12.8649 7.49177 12.8649 5.4054ZM3.13516 19.4594H15.027C15.7722 19.4594 16.3784 18.8532 16.3784 18.1081C16.3784 14.0843 13.1049 10.8108 9.08106 10.8108C5.05725 10.8108 1.78375 14.0843 1.78375 18.1081C1.78379 18.8532 2.39 19.4594 3.13516 19.4594Z" fill="white"/>
</svg>
