<svg width="24" height="24" viewBox="0 0 24 24" fill="none" xmlns="http://www.w3.org/2000/svg">
<g id="Iconsax/Outline/arrowleft">
<path id="Vector" d="M9.56965 18.8211C9.37965 18.8211 9.18965 18.7511 9.03965 18.6011L2.96965 12.5311C2.83017 12.39 2.75195 12.1995 2.75195 12.0011C2.75195 11.8027 2.83017 11.6122 2.96965 11.4711L9.03965 5.40109C9.32965 5.11109 9.80966 5.11109 10.0997 5.40109C10.3897 5.69109 10.3897 6.17109 10.0997 6.46109L4.55965 12.0011L10.0997 17.5411C10.3897 17.8311 10.3897 18.3111 10.0997 18.6011C9.95966 18.7511 9.75965 18.8211 9.56965 18.8211Z" fill="#292D32"/>
<path id="Vector_2" d="M20.5 12.75H3.67001C3.26001 12.75 2.92001 12.41 2.92001 12C2.92001 11.59 3.26001 11.25 3.67001 11.25H20.5C20.91 11.25 21.25 11.59 21.25 12C21.25 12.41 20.91 12.75 20.5 12.75Z" fill="#292D32"/>
</g>
</svg>
