<svg width="24" height="21" viewBox="0 0 24 21" fill="none" xmlns="http://www.w3.org/2000/svg">
<path d="M2.64559 0.339043H21.6039C22.1065 0.339645 22.5884 0.539577 22.9438 0.894984C23.2992 1.25039 23.4992 1.73225 23.4998 2.23488V15.8849C23.4992 16.3875 23.2992 16.8694 22.9438 17.2248C22.5884 17.5802 22.1065 17.7801 21.6039 17.7807H10.2289V19.6765C10.2289 19.7515 10.2067 19.8248 10.165 19.8872C10.1233 19.9495 10.0641 19.9981 9.99485 20.0268C9.92557 20.0555 9.84935 20.063 9.77581 20.0483C9.70227 20.0337 9.63471 19.9976 9.58168 19.9446L8.33309 18.696L7.08449 19.9446C7.03147 19.9976 6.96391 20.0337 6.89037 20.0483C6.81683 20.063 6.74061 20.0555 6.67133 20.0268C6.60206 19.9981 6.54285 19.9495 6.50118 19.8872C6.45952 19.8248 6.43727 19.7515 6.43726 19.6765V17.7807H2.64559C2.14297 17.7801 1.66111 17.5802 1.3057 17.2248C0.950291 16.8694 0.750358 16.3875 0.749756 15.8849V2.23488C0.750358 1.73225 0.950291 1.25039 1.3057 0.894984C1.66111 0.539577 2.14297 0.339645 2.64559 0.339043ZM11.2489 7.75744C11.2778 7.74411 11.3031 7.72413 11.3228 7.69914C11.3425 7.67415 11.356 7.64486 11.3622 7.61365C11.3684 7.58244 11.3672 7.55021 11.3585 7.51958C11.3499 7.48895 11.3342 7.4608 11.3126 7.43742C11.1489 7.25958 11.0581 7.02674 11.0581 6.78507C11.0581 6.5434 11.1489 6.31055 11.3126 6.13271C11.3342 6.10931 11.35 6.0811 11.3587 6.05041C11.3673 6.01972 11.3686 5.98742 11.3623 5.95616C11.3561 5.92489 11.3425 5.89555 11.3227 5.87055C11.3029 5.84555 11.2775 5.82559 11.2485 5.81231C11.0294 5.71036 10.8566 5.5299 10.7642 5.30662C10.6718 5.08334 10.6665 4.83352 10.7495 4.60656C10.7606 4.5767 10.7644 4.54465 10.7606 4.51303C10.7569 4.48141 10.7458 4.45112 10.7281 4.42464C10.7104 4.39816 10.6867 4.37624 10.6589 4.36067C10.6312 4.34511 10.6001 4.33634 10.5683 4.33508C10.3268 4.32493 10.0979 4.22444 9.92695 4.05352C9.75602 3.88259 9.65553 3.6537 9.64538 3.41219C9.64415 3.38033 9.63538 3.34922 9.61979 3.3214C9.6042 3.29359 9.58224 3.26987 9.55571 3.25218C9.52918 3.23449 9.49884 3.22335 9.46717 3.21966C9.4355 3.21597 9.40341 3.21984 9.37352 3.23095C9.14649 3.31344 8.89681 3.30793 8.67364 3.21551C8.45047 3.12308 8.27 2.95044 8.16777 2.73158C8.15455 2.70264 8.13465 2.67724 8.1097 2.65749C8.08474 2.63774 8.05546 2.6242 8.02425 2.61798C7.99304 2.61176 7.9608 2.61304 7.93018 2.62171C7.89956 2.63039 7.87144 2.64622 7.84814 2.66788C7.47921 3.00724 6.91159 3.00724 6.54304 2.66788C6.51968 2.64623 6.4915 2.63043 6.46084 2.62178C6.43018 2.61313 6.3979 2.61189 6.36666 2.61814C6.33542 2.6244 6.30611 2.63798 6.28114 2.65776C6.25617 2.67755 6.23626 2.70298 6.22303 2.73196C6.12101 2.9509 5.9406 3.12362 5.71743 3.216C5.49427 3.30838 5.24457 3.31372 5.01766 3.23095C4.98777 3.21984 4.95568 3.21597 4.92401 3.21966C4.89234 3.22335 4.86199 3.23449 4.83547 3.25218C4.80894 3.26987 4.78698 3.29359 4.77139 3.3214C4.7558 3.34922 4.74703 3.38033 4.74579 3.41219C4.73553 3.65402 4.63476 3.88317 4.46346 4.05418C4.29217 4.2252 4.06286 4.3256 3.82101 4.33546C3.78921 4.33666 3.75814 4.34537 3.73037 4.36089C3.70259 4.37642 3.67888 4.3983 3.6612 4.42476C3.64351 4.45121 3.63235 4.48148 3.62862 4.51308C3.6249 4.54469 3.62872 4.57672 3.63977 4.60656C3.7228 4.83355 3.71756 5.08345 3.62507 5.30676C3.53259 5.53007 3.35961 5.7105 3.1404 5.81231C3.11151 5.82564 3.08618 5.84562 3.06648 5.87061C3.04678 5.8956 3.03327 5.92489 3.02706 5.9561C3.02085 5.98731 3.02211 6.01954 3.03074 6.05017C3.03936 6.0808 3.05511 6.10895 3.0767 6.13233C3.24034 6.31017 3.33116 6.54302 3.33116 6.78469C3.33116 7.02636 3.24034 7.2592 3.0767 7.43704C3.05505 7.46045 3.03925 7.48865 3.03061 7.51934C3.02196 7.55003 3.02071 7.58233 3.02696 7.6136C3.03322 7.64486 3.04679 7.6742 3.06658 7.6992C3.08636 7.72421 3.11179 7.74416 3.14078 7.75744C3.35986 7.85939 3.5327 8.03986 3.6251 8.26313C3.7175 8.48641 3.72274 8.73624 3.63977 8.96319C3.62873 8.99305 3.62492 9.02511 3.62864 9.05673C3.63237 9.08835 3.64353 9.11863 3.66121 9.14511C3.67889 9.17159 3.70258 9.19351 3.73035 9.20908C3.75813 9.22464 3.78919 9.23341 3.82101 9.23467C4.06316 9.24439 4.29279 9.34494 4.46416 9.51631C4.63553 9.68768 4.73608 9.9173 4.74579 10.1595C4.74703 10.1913 4.7558 10.2224 4.77139 10.2502C4.78698 10.2781 4.80894 10.3018 4.83547 10.3195C4.86199 10.3372 4.89234 10.3483 4.92401 10.352C4.95568 10.3557 4.98777 10.3518 5.01766 10.3407C5.24468 10.2581 5.4944 10.2636 5.71759 10.356C5.94079 10.4485 6.12125 10.6212 6.22341 10.8401C6.23613 10.8693 6.25581 10.8949 6.28073 10.9147C6.30565 10.9346 6.33504 10.948 6.36635 10.9538C6.39763 10.9604 6.43002 10.9593 6.46078 10.9506C6.49154 10.942 6.51976 10.926 6.54304 10.9041C6.72099 10.7406 6.95388 10.6498 7.19559 10.6498C7.4373 10.6498 7.67019 10.7406 7.84814 10.9041C7.87144 10.926 7.89966 10.9419 7.93041 10.9506C7.96117 10.9592 7.99355 10.9603 8.02483 10.9538C8.05618 10.948 8.08563 10.9346 8.11061 10.9147C8.13559 10.8949 8.15534 10.8693 8.16815 10.8401C8.2701 10.6211 8.4505 10.4483 8.67369 10.3559C8.89688 10.2635 9.14662 10.2582 9.37352 10.3411C9.40341 10.3522 9.4355 10.3561 9.46717 10.3524C9.49884 10.3487 9.52918 10.3375 9.55571 10.3198C9.58224 10.3022 9.6042 10.2784 9.61979 10.2506C9.63538 10.2228 9.64415 10.1917 9.64538 10.1598C9.65509 9.9176 9.75562 9.6879 9.92697 9.5164C10.0983 9.34491 10.3279 9.2442 10.5702 9.23429C10.602 9.2331 10.633 9.22438 10.6608 9.20886C10.6886 9.19334 10.7123 9.17145 10.73 9.145C10.7477 9.11854 10.7588 9.08827 10.7626 9.05667C10.7663 9.02507 10.7625 8.99303 10.7514 8.96319C10.6682 8.73643 10.6732 8.48671 10.7653 8.26344C10.8575 8.04016 11.03 7.85959 11.2489 7.75744ZM7.08411 14.8581L7.19559 14.9696V11.4054C7.14478 11.4054 7.09587 11.4244 7.05871 11.4589C6.94794 11.5629 6.81378 11.6387 6.66755 11.68C6.52132 11.7214 6.3673 11.7269 6.21848 11.6962C6.06979 11.6672 5.93022 11.603 5.81147 11.5089C5.69272 11.4148 5.59825 11.2936 5.53598 11.1555C5.51455 11.1094 5.47657 11.0731 5.42958 11.0537C5.38258 11.0343 5.33001 11.0333 5.28231 11.0509C5.16705 11.0918 5.04496 11.11 4.92249 11.1051V14.9696L5.79191 14.1001C5.86302 14.0291 5.95944 13.9891 6.05999 13.9891C6.16053 13.9891 6.25695 14.0291 6.32806 14.1001L7.08411 14.8581ZM7.19559 18.7612L8.06502 17.8918C8.13612 17.8207 8.23255 17.7808 8.33309 17.7808C8.43363 17.7808 8.53006 17.8207 8.60116 17.8918L9.47059 18.7612V11.1043C9.34812 11.1093 9.22603 11.0911 9.11076 11.0501C9.06317 11.0324 9.01066 11.0333 8.96371 11.0527C8.91676 11.072 8.87882 11.1083 8.85748 11.1544C8.79503 11.2928 8.70023 11.4143 8.58106 11.5084C8.46189 11.6026 8.32184 11.6667 8.1727 11.6955C8.10066 11.7099 8.02748 11.7159 7.95392 11.714V15.8849C7.95391 15.9599 7.93166 16.0331 7.89 16.0955C7.84833 16.1578 7.78912 16.2064 7.71985 16.2351C7.65057 16.2638 7.57435 16.2713 7.50081 16.2567C7.42727 16.2421 7.35971 16.206 7.30668 16.1529L7.19559 16.0419V18.7612ZM1.50809 15.8849C1.50809 16.1866 1.62793 16.4759 1.84126 16.6892C2.05458 16.9025 2.34391 17.0224 2.64559 17.0224H6.43726V15.2835L6.05809 14.9044L4.80949 16.1529C4.75647 16.206 4.68891 16.2421 4.61537 16.2567C4.54183 16.2713 4.46561 16.2638 4.39633 16.2351C4.32706 16.2064 4.26785 16.1578 4.22618 16.0955C4.18452 16.0331 4.16227 15.9599 4.16226 15.8849V10.6929C4.05609 10.5443 3.9958 10.3684 3.98822 10.186C3.98599 10.1353 3.9648 10.0872 3.92886 10.0513C3.89292 10.0155 3.84482 9.99438 3.79408 9.99225C3.64255 9.9864 3.49455 9.94474 3.36221 9.87068C3.22988 9.79662 3.11697 9.69226 3.03274 9.56615C2.94851 9.44005 2.89535 9.29578 2.87762 9.14517C2.85989 8.99456 2.87808 8.84189 2.93072 8.69967C2.94818 8.65207 2.94711 8.59965 2.92773 8.5528C2.90834 8.50596 2.87206 8.46811 2.82607 8.44676C2.68821 8.38343 2.56731 8.28832 2.47331 8.16923C2.3793 8.05014 2.31485 7.91047 2.28526 7.76166C2.25566 7.61286 2.26175 7.45916 2.30303 7.31316C2.34431 7.16716 2.4196 7.03303 2.52274 6.92176C2.55711 6.88438 2.57619 6.83546 2.57619 6.78469C2.57619 6.73391 2.55711 6.68499 2.52274 6.64762C2.4196 6.53638 2.3443 6.40227 2.30302 6.2563C2.26174 6.11033 2.25565 5.95666 2.28525 5.80788C2.31485 5.6591 2.3793 5.51946 2.47331 5.4004C2.56732 5.28135 2.68821 5.18628 2.82607 5.12299C2.87219 5.10178 2.90861 5.06397 2.92808 5.01709C2.94755 4.97021 2.94862 4.91772 2.9311 4.87008C2.87846 4.72786 2.86026 4.57519 2.878 4.42458C2.89573 4.27397 2.94889 4.12971 3.03312 4.0036C3.11735 3.87749 3.23026 3.77313 3.36259 3.69907C3.49493 3.62501 3.64293 3.58335 3.79446 3.57751C3.8452 3.57537 3.89329 3.55428 3.92924 3.51841C3.96518 3.48254 3.98636 3.43449 3.9886 3.38375C3.99426 3.23216 4.03579 3.08408 4.10976 2.95164C4.18373 2.8192 4.28804 2.70619 4.41413 2.62186C4.54023 2.53754 4.68452 2.48431 4.83517 2.46654C4.98582 2.44877 5.13854 2.46696 5.2808 2.51963C5.32837 2.53759 5.38099 2.53682 5.42801 2.51746C5.47503 2.4981 5.51294 2.46161 5.53408 2.41536C5.59742 2.27749 5.69253 2.1566 5.81162 2.06259C5.9307 1.96859 6.07038 1.90414 6.21918 1.87454C6.36799 1.84494 6.52169 1.85104 6.66768 1.89232C6.81368 1.9336 6.94781 2.00889 7.05909 2.11203C7.0964 2.14637 7.14526 2.16544 7.19597 2.16544C7.24668 2.16544 7.29554 2.14637 7.33285 2.11203C7.44409 2.00889 7.57819 1.93359 7.72416 1.89231C7.87013 1.85103 8.02381 1.84494 8.17259 1.87454C8.32137 1.90414 8.46101 1.96859 8.58006 2.0626C8.69911 2.15661 8.79419 2.2775 8.85748 2.41536C8.87869 2.46164 8.91665 2.49817 8.96372 2.51759C9.01079 2.53701 9.06346 2.53787 9.11114 2.52001C9.2534 2.46734 9.40611 2.44915 9.55676 2.46692C9.70741 2.48469 9.8517 2.53792 9.9778 2.62224C10.1039 2.70657 10.2082 2.81958 10.2822 2.95202C10.3562 3.08446 10.3977 3.23254 10.4033 3.38413C10.4056 3.43486 10.4268 3.48292 10.4627 3.51879C10.4986 3.55466 10.5467 3.57575 10.5975 3.57788C10.749 3.58373 10.897 3.62539 11.0293 3.69945C11.1617 3.77351 11.2746 3.87787 11.3588 4.00398C11.443 4.13009 11.4962 4.27435 11.5139 4.42496C11.5317 4.57557 11.5135 4.72824 11.4608 4.87046C11.4434 4.91806 11.4444 4.97048 11.4638 5.01733C11.4832 5.06417 11.5195 5.10202 11.5655 5.12337C11.7034 5.18671 11.8242 5.28182 11.9183 5.4009C12.0123 5.51999 12.0767 5.65966 12.1063 5.80847C12.1359 5.95727 12.1298 6.11097 12.0885 6.25697C12.0472 6.40297 11.972 6.5371 11.8688 6.64838C11.8344 6.68575 11.8154 6.73467 11.8154 6.78544C11.8154 6.83622 11.8344 6.88514 11.8688 6.92251C11.972 7.03375 12.0473 7.16786 12.0885 7.31383C12.1298 7.4598 12.1359 7.61347 12.1063 7.76225C12.0767 7.91103 12.0123 8.05068 11.9182 8.16973C11.8242 8.28878 11.7033 8.38385 11.5655 8.44714C11.5194 8.46835 11.4829 8.50617 11.4635 8.55304C11.444 8.59992 11.4429 8.65241 11.4605 8.70005C11.5131 8.84227 11.5313 8.99494 11.5136 9.14555C11.4958 9.29616 11.4427 9.44042 11.3584 9.56653C11.2742 9.69264 11.1613 9.797 11.029 9.87106C10.8966 9.94512 10.7486 9.98678 10.5971 9.99263C10.4921 9.99718 10.4075 10.0814 10.403 10.1864C10.3954 10.3684 10.3347 10.5443 10.2289 10.6929V17.0224H21.6039C21.9056 17.0224 22.1949 16.9025 22.4083 16.6892C22.6216 16.4759 22.7414 16.1866 22.7414 15.8849V2.23488C22.7414 1.93319 22.6216 1.64386 22.4083 1.43054C22.1949 1.21722 21.9056 1.09738 21.6039 1.09738H2.64559C2.34391 1.09738 2.05458 1.21722 1.84126 1.43054C1.62793 1.64386 1.50809 1.93319 1.50809 2.23488V15.8849Z" fill="#2CC748"/>
<path d="M19.328 13.9903C19.6297 13.9903 19.9191 13.8705 20.1324 13.6571C20.3457 13.4438 20.4655 13.1545 20.4655 12.8528V5.26948C20.4655 4.9678 20.3457 4.67847 20.1324 4.46515C19.9191 4.25183 19.6297 4.13198 19.328 4.13198H12.503C12.4025 4.13198 12.306 4.09204 12.2349 4.02093C12.1638 3.94982 12.1239 3.85338 12.1239 3.75282C12.1239 3.65226 12.1638 3.55581 12.2349 3.48471C12.306 3.4136 12.4025 3.37365 12.503 3.37365H19.328C19.8307 3.37425 20.3125 3.57418 20.6679 3.92959C21.0233 4.285 21.2233 4.76686 21.2239 5.26948V12.8528C21.2233 13.3554 21.0233 13.8373 20.6679 14.1927C20.3125 14.5481 19.8307 14.748 19.328 14.7486H12.1239C12.0233 14.7486 11.9269 14.7087 11.8558 14.6376C11.7847 14.5665 11.7447 14.47 11.7447 14.3695C11.7447 14.2689 11.7847 14.1725 11.8558 14.1014C11.9269 14.0303 12.0233 13.9903 12.1239 13.9903H19.328Z" fill="#2CC748"/>
<path d="M18.95 9.43769H13.6416C13.5411 9.43769 13.4446 9.39775 13.3735 9.32664C13.3024 9.25553 13.2625 9.15909 13.2625 9.05853C13.2625 8.95796 13.3024 8.86152 13.3735 8.79041C13.4446 8.71931 13.5411 8.67936 13.6416 8.67936H18.95C19.0505 8.67936 19.147 8.71931 19.2181 8.79041C19.2892 8.86152 19.3291 8.95796 19.3291 9.05853C19.3291 9.15909 19.2892 9.25553 19.2181 9.32664C19.147 9.39775 19.0505 9.43769 18.95 9.43769ZM18.95 7.92103H13.6416C13.5411 7.92103 13.4446 7.88108 13.3735 7.80997C13.3024 7.73886 13.2625 7.64242 13.2625 7.54186C13.2625 7.4413 13.3024 7.34486 13.3735 7.27375C13.4446 7.20264 13.5411 7.16269 13.6416 7.16269H18.95C19.0505 7.16269 19.147 7.20264 19.2181 7.27375C19.2892 7.34486 19.3291 7.4413 19.3291 7.54186C19.3291 7.64242 19.2892 7.73886 19.2181 7.80997C19.147 7.88108 19.0505 7.92103 18.95 7.92103ZM18.95 6.40436H13.6416C13.5411 6.40436 13.4446 6.36441 13.3735 6.2933C13.3024 6.2222 13.2625 6.12575 13.2625 6.02519C13.2625 5.92463 13.3024 5.82819 13.3735 5.75708C13.4446 5.68597 13.5411 5.64603 13.6416 5.64603H18.95C19.0505 5.64603 19.147 5.68597 19.2181 5.75708C19.2892 5.82819 19.3291 5.92463 19.3291 6.02519C19.3291 6.12575 19.2892 6.2222 19.2181 6.2933C19.147 6.36441 19.0505 6.40436 18.95 6.40436ZM19.2977 13.0019C19.2778 13.0475 19.249 13.0888 19.2132 13.1234C19.1773 13.158 19.135 13.1852 19.0886 13.2034C19.0422 13.2216 18.9927 13.2305 18.9429 13.2295C18.8931 13.2286 18.8439 13.2178 18.7983 13.1979C18.4473 13.0675 18.1246 12.8706 17.8481 12.6181C17.7454 12.5157 17.6557 12.4011 17.5808 12.2769C17.4359 12.4399 17.2661 12.578 17.0769 12.6864C16.8134 12.8585 16.4854 12.9006 16.187 12.8001C16.0725 12.7558 15.9689 12.6872 15.8836 12.5992C15.7119 12.7065 15.523 12.7827 15.3251 12.8248L15.0385 12.8927C14.4534 13.064 13.8456 13.1444 13.2359 13.1315C13.1862 13.1279 13.1378 13.1146 13.0933 13.0923C13.0487 13.07 13.0091 13.0391 12.9765 13.0015C12.9439 12.9638 12.919 12.9201 12.9033 12.8728C12.8876 12.8256 12.8814 12.7757 12.885 12.726C12.8886 12.6763 12.9019 12.6279 12.9242 12.5834C12.9466 12.5388 12.9774 12.4992 13.0151 12.4666C13.0527 12.434 13.0964 12.4091 13.1437 12.3934C13.191 12.3777 13.2408 12.3715 13.2905 12.3751C13.8225 12.3819 14.3522 12.308 14.8618 12.1552L15.1549 12.0858C15.5086 12.0043 15.5996 11.8617 15.6372 11.7612C15.6691 11.6759 15.7308 11.6049 15.8108 11.5613C15.8908 11.5177 15.9839 11.5043 16.0729 11.5237C16.162 11.5431 16.241 11.5939 16.2957 11.6668C16.3503 11.7398 16.3769 11.8299 16.3705 11.9209C16.3684 11.9543 16.3751 11.9876 16.39 12.0176C16.4048 12.0476 16.4272 12.0732 16.455 12.0919C16.5436 12.1031 16.6332 12.0801 16.7053 12.0274C17.0119 11.8365 17.2425 11.5448 17.3575 11.2023C17.389 11.117 17.4502 11.0459 17.5298 11.002C17.6095 10.958 17.7022 10.9441 17.7913 10.9629C17.8803 10.9816 17.9596 11.0318 18.0147 11.1041C18.0698 11.1765 18.0971 11.2662 18.0915 11.357C18.0884 11.4912 18.1128 11.6246 18.1633 11.749C18.2137 11.8734 18.2892 11.9861 18.385 12.0801C18.5955 12.2642 18.8386 12.4075 19.1016 12.5025C19.1473 12.5224 19.1886 12.5511 19.2232 12.587C19.2578 12.6228 19.2849 12.6652 19.3031 12.7116C19.3213 12.7579 19.3302 12.8074 19.3293 12.8573C19.3283 12.9071 19.3176 12.9562 19.2977 13.0019ZM7.19579 9.81686C6.59585 9.81686 6.00939 9.63896 5.51056 9.30565C5.01173 8.97234 4.62294 8.4986 4.39335 7.94433C4.16377 7.39006 4.1037 6.78016 4.22074 6.19175C4.33778 5.60334 4.62668 5.06285 5.0509 4.63863C5.47512 4.21442 6.01561 3.92552 6.60402 3.80848C7.19242 3.69143 7.80233 3.75151 8.35659 3.98109C8.91086 4.21068 9.38461 4.59947 9.71791 5.0983C10.0512 5.59712 10.2291 6.18359 10.2291 6.78353C10.2282 7.58774 9.90835 8.35875 9.33968 8.92742C8.77102 9.49608 8 9.81596 7.19579 9.81686ZM7.19579 4.50853C6.89703 4.50853 6.6012 4.56737 6.32518 4.6817C6.04917 4.79603 5.79837 4.9636 5.58712 5.17486C5.37587 5.38611 5.20829 5.6369 5.09396 5.91292C4.97963 6.18894 4.92079 6.48477 4.92079 6.78353C4.92079 7.08228 4.97963 7.37811 5.09396 7.65413C5.20829 7.93015 5.37587 8.18094 5.58712 8.39219C5.79837 8.60345 6.04917 8.77102 6.32518 8.88535C6.6012 8.99968 6.89703 9.05853 7.19579 9.05853C7.79916 9.05853 8.37781 8.81884 8.80446 8.39219C9.2311 7.96555 9.47079 7.38689 9.47079 6.78353C9.47079 6.18016 9.2311 5.6015 8.80446 5.17486C8.37781 4.74821 7.79916 4.50853 7.19579 4.50853Z" fill="#2CC748"/>
</svg>
