<svg width="20" height="21" viewBox="0 0 20 21" fill="none" xmlns="http://www.w3.org/2000/svg">
<path d="M3.74132 11.3137H6.80038C7.93991 11.3137 8.86616 12.2399 8.86616 13.3795V16.4385C8.86616 17.5781 7.93991 18.5043 6.80038 18.5043H3.74132C2.60179 18.5043 1.67554 17.5781 1.67554 16.4385V13.3795C1.67554 12.2399 2.60179 11.3137 3.74132 11.3137ZM2.89429 16.4385C2.89588 16.6627 2.98564 16.8772 3.14414 17.0357C3.30264 17.1942 3.51716 17.284 3.74132 17.2856H6.80038C7.02453 17.284 7.23905 17.1942 7.39756 17.0357C7.55606 16.8772 7.64582 16.6627 7.64741 16.4385V13.3795C7.64741 12.9102 7.26351 12.5324 6.80038 12.5324H3.74132C3.27819 12.5324 2.89429 12.9102 2.89429 13.3795V16.4385ZM3.74132 2.35587H6.80038C7.93991 2.35587 8.86616 3.28212 8.86616 4.42165V7.48071C8.86616 8.62024 7.93991 9.54649 6.80038 9.54649H3.74132C2.60179 9.54649 1.67554 8.62024 1.67554 7.48071V4.42165C1.67554 3.28212 2.60179 2.35587 3.74132 2.35587ZM2.89429 7.48071C2.89429 7.94993 3.27819 8.32774 3.74132 8.32774H6.80038C7.26351 8.32774 7.64741 7.94993 7.64741 7.48071V4.42165C7.64741 3.95852 7.26351 3.57462 6.80038 3.57462H3.74132C3.27819 3.57462 2.89429 3.95852 2.89429 4.42165V7.48071ZM12.6991 11.3137H15.7582C16.8977 11.3137 17.824 12.2399 17.824 13.3795V16.4385C17.824 17.5781 16.8977 18.5043 15.7582 18.5043H12.6991C11.5596 18.5043 10.6333 17.5781 10.6333 16.4385V13.3795C10.6333 12.2399 11.5596 11.3137 12.6991 11.3137ZM11.8521 16.4385C11.8521 16.9016 12.2299 17.2856 12.6991 17.2856H15.7582C15.9823 17.284 16.1969 17.1942 16.3554 17.0357C16.5139 16.8772 16.6036 16.6627 16.6052 16.4385V13.3795C16.6052 12.9102 16.2213 12.5324 15.7582 12.5324H12.6991C12.2299 12.5324 11.8521 12.9102 11.8521 13.3795V16.4385ZM12.6991 2.35587H15.7582C16.8977 2.35587 17.824 3.28212 17.824 4.42165V7.48071C17.824 8.62024 16.8977 9.54649 15.7582 9.54649H12.6991C11.5596 9.54649 10.6333 8.62024 10.6333 7.48071V4.42165C10.6333 3.28212 11.5596 2.35587 12.6991 2.35587ZM11.8521 7.48071C11.8521 7.94993 12.2299 8.32774 12.6991 8.32774H15.7582C16.2213 8.32774 16.6052 7.94993 16.6052 7.48071V4.42165C16.6052 3.95852 16.2213 3.57462 15.7582 3.57462H12.6991C12.2299 3.57462 11.8521 3.95852 11.8521 4.42165V7.48071Z" fill="#2EEB4C"/>
</svg>
