<svg width="20" height="21" viewBox="0 0 20 21" fill="none" xmlns="http://www.w3.org/2000/svg">
<g clip-path="url(#clip0_3354_223914)">
<path d="M11.9839 7.18412H18.0777C18.8617 7.18412 19.4995 6.54633 19.4995 5.76214V2.10589C19.4995 1.32185 18.8617 0.684067 18.0777 0.684067H11.9839C11.1997 0.684067 10.562 1.32185 10.562 2.10589V5.76214C10.562 6.54633 11.1997 7.18412 11.9839 7.18412ZM18.0777 1.90282C18.1315 1.90286 18.1832 1.92427 18.2212 1.96234C18.2593 2.00042 18.2807 2.05204 18.2808 2.10589V5.76214C18.2808 5.81601 18.2594 5.86767 18.2213 5.90578C18.1832 5.94388 18.1316 5.96532 18.0777 5.96537H11.9839C11.93 5.96535 11.8784 5.94393 11.8403 5.90582C11.8021 5.86771 11.7807 5.81603 11.7807 5.76214V2.10589C11.7808 2.05202 11.8022 2.00037 11.8403 1.9623C11.8784 1.92422 11.9301 1.90283 11.9839 1.90282H18.0777ZM11.9839 20.1841H18.0777C18.8617 20.1841 19.4995 19.5463 19.4995 18.7622V10.231C19.4995 9.4468 18.8617 8.80902 18.0777 8.80902H11.9839C11.1997 8.80902 10.562 9.4468 10.562 10.231V18.7622C10.562 19.5463 11.1997 20.1841 11.9839 20.1841ZM18.0777 10.0278C18.1316 10.0278 18.1832 10.0492 18.2213 10.0874C18.2594 10.1255 18.2808 10.1771 18.2808 10.231V18.7622C18.2807 18.8161 18.2593 18.8677 18.2212 18.9058C18.1832 18.9439 18.1315 18.9653 18.0777 18.9653H11.9839C11.9301 18.9653 11.8784 18.9439 11.8403 18.9058C11.8022 18.8678 11.7808 18.8161 11.7807 18.7622V10.231C11.7807 10.1771 11.8021 10.1254 11.8403 10.0873C11.8784 10.0492 11.93 10.0278 11.9839 10.0278H18.0777ZM1.42134 20.1841H7.51509C8.29928 20.1841 8.93706 19.5463 8.93706 18.7622V15.106C8.93706 14.3218 8.29928 13.684 7.51509 13.684H1.42134C0.637299 13.684 -0.000488281 14.3218 -0.000488281 15.106V18.7622C-0.000488281 19.5463 0.637299 20.1841 1.42134 20.1841ZM7.51509 14.9028C7.56898 14.9028 7.62066 14.9242 7.65877 14.9623C7.69687 15.0004 7.71829 15.0521 7.71831 15.106V18.7622C7.71826 18.8161 7.69683 18.8678 7.65872 18.9058C7.62062 18.9439 7.56896 18.9653 7.51509 18.9653H1.42134C1.36749 18.9653 1.31586 18.9439 1.27778 18.9058C1.23971 18.8677 1.2183 18.8161 1.21826 18.7622V15.106C1.21827 15.0521 1.23967 15.0005 1.27774 14.9624C1.31582 14.9242 1.36747 14.9028 1.42134 14.9028H7.51509ZM1.42134 12.0591H7.51509C8.29928 12.0591 8.93706 11.4213 8.93706 10.6371V2.10589C8.93706 1.32185 8.29928 0.684067 7.51509 0.684067H1.42134C0.637299 0.684067 -0.000488281 1.32185 -0.000488281 2.10589V10.6371C-0.000488281 11.4213 0.637299 12.0591 1.42134 12.0591ZM7.51509 1.90282C7.56896 1.90283 7.62062 1.92422 7.65872 1.9623C7.69683 2.00037 7.71826 2.05202 7.71831 2.10589V10.6371C7.71829 10.691 7.69687 10.7427 7.65877 10.7808C7.62066 10.8189 7.56898 10.8403 7.51509 10.8404H1.42134C1.36747 10.8403 1.31582 10.8189 1.27774 10.7808C1.23967 10.7427 1.21827 10.691 1.21826 10.6371V2.10589C1.2183 2.05204 1.23971 2.00042 1.27778 1.96234C1.31586 1.92427 1.36749 1.90286 1.42134 1.90282H7.51509Z" fill="#2EEC4D"/>
</g>
<defs>
<clipPath id="clip0_3354_223914">
<rect width="19.5" height="19.5" fill="white" transform="matrix(-1 0 0 1 19.5 0.681305)"/>
</clipPath>
</defs>
</svg>
