<svg width="20" height="21" viewBox="0 0 20 21" fill="none" xmlns="http://www.w3.org/2000/svg">
<g clip-path="url(#clip0_3354_223908)">
<path d="M17.3971 4.37997C18.1893 4.4828 18.8825 4.97411 19.2291 5.67489C19.5071 6.24237 19.4995 6.06718 19.4995 10.4318C19.4995 14.8003 19.5071 14.6213 19.2291 15.1926C18.9358 15.7829 18.3645 16.2475 17.6904 16.438C17.4924 16.4913 17.1991 16.5027 15.5766 16.518C13.5847 16.5332 13.1848 16.5103 12.7697 16.3694C12.366 16.2361 12.0918 16.0228 11.2729 15.2078C10.3589 14.3014 10.237 14.2252 9.74949 14.2252C9.26199 14.2252 9.15154 14.2975 8.19178 15.2421C7.30057 16.1181 7.12156 16.2475 6.61502 16.4075L6.30272 16.5065H4.18895C2.29227 16.5065 2.04852 16.4989 1.82762 16.438C0.936407 16.198 0.239435 15.4782 0.0566216 14.6022C-0.0271664 14.2061 -0.0271664 6.65751 0.0566216 6.26142C0.239435 5.39686 0.917364 4.68466 1.80857 4.42567C2.02186 4.36093 2.52078 4.35712 9.59715 4.35331C13.7561 4.3495 17.2677 4.36093 17.3971 4.37997ZM2.20467 5.51874C1.77811 5.60253 1.43914 5.8577 1.26395 6.23476L1.16111 6.45185V10.4318V14.4118L1.26014 14.6213C1.44295 15.0059 1.77811 15.2649 2.20467 15.3449C2.47508 15.3944 5.86473 15.3944 6.13514 15.3449C6.5198 15.2725 6.64549 15.1773 7.52147 14.3166C8.41648 13.4406 8.5993 13.3073 9.12107 13.1512C9.43338 13.0598 10.0656 13.0598 10.3779 13.1512C10.8997 13.3073 11.0825 13.4406 11.9775 14.3166C12.8611 15.185 12.983 15.2725 13.3791 15.3487C13.52 15.3716 14.2703 15.383 15.4738 15.3754C17.1305 15.364 17.3667 15.3563 17.5114 15.2992C17.7552 15.2002 18.0027 15.0098 18.1322 14.8155C18.3683 14.4575 18.3607 14.6327 18.3493 10.3518L18.3379 6.45185L18.235 6.23476C18.0637 5.86913 17.7209 5.59872 17.3248 5.52255C17.0772 5.47304 2.45984 5.47304 2.20467 5.51874Z" fill="#2EEC4D"/>
<path d="M14.5801 8.0879C15.2352 8.23263 15.8902 8.7506 16.1797 9.36378C16.3701 9.76749 16.4272 10.0189 16.4272 10.4302C16.4272 10.8415 16.3701 11.0929 16.1797 11.4928C15.8826 12.1174 15.2352 12.6316 14.5648 12.7725C13.7308 12.9477 12.9576 12.723 12.3559 12.125C11.8607 11.6299 11.6437 11.1157 11.6437 10.4302C11.6437 9.74464 11.8569 9.23048 12.3597 8.73156C12.5958 8.49542 12.7405 8.38878 12.9614 8.28214C13.4604 8.0422 14.0431 7.97365 14.5801 8.0879ZM13.5175 9.27999C13.2356 9.4171 13.0414 9.61134 12.9043 9.88556C12.7977 10.1065 12.7786 10.1788 12.7786 10.4302C12.7786 10.6816 12.7977 10.7539 12.9043 10.9748C13.0414 11.249 13.2356 11.4433 13.5175 11.5804C13.7688 11.7061 14.3021 11.7061 14.5534 11.5804C15.3037 11.211 15.5246 10.3007 15.0219 9.64181C14.9038 9.48566 14.622 9.29142 14.4201 9.22667C14.1916 9.1505 13.727 9.17716 13.5175 9.27999Z" fill="#2EEC4D"/>
<path d="M6.01099 8.0879C6.42993 8.17931 6.79937 8.39259 7.14595 8.73537C7.64106 9.23048 7.85815 9.74464 7.85815 10.4302C7.85815 11.1157 7.64106 11.6299 7.14595 12.125C6.54419 12.723 5.77104 12.9477 4.93696 12.7725C4.26665 12.6316 3.61919 12.1174 3.32212 11.4928C3.13169 11.0929 3.07456 10.8415 3.07456 10.4302C3.07456 10.0189 3.13169 9.76749 3.32212 9.36759C3.61919 8.74298 4.26665 8.22882 4.93696 8.0879C5.26069 8.01935 5.69106 8.01935 6.01099 8.0879ZM4.94839 9.27999C4.67036 9.4133 4.47231 9.61134 4.33901 9.88175C4.23237 10.0988 4.21333 10.1712 4.21333 10.4302C4.21333 10.6892 4.23237 10.7615 4.33901 10.9786C4.47231 11.249 4.66655 11.4433 4.94839 11.5804C5.19976 11.7061 5.73296 11.7061 5.98433 11.5804C6.38042 11.3861 6.66606 10.9977 6.72319 10.5787C6.79937 10.0341 6.39946 9.40568 5.86626 9.23048C5.6187 9.1505 5.16548 9.17335 4.94839 9.27999Z" fill="#2EEC4D"/>
</g>
<defs>
<clipPath id="clip0_3354_223908">
<rect width="19.5" height="19.5" fill="white" transform="matrix(-1 0 0 1 19.5 0.681305)"/>
</clipPath>
</defs>
</svg>
