<svg width="20" height="21" viewBox="0 0 20 21" fill="none" xmlns="http://www.w3.org/2000/svg">
<g clip-path="url(#clip0_3354_228600)">
<path d="M2.43726 7.38421V5.55608C2.43726 5.07123 2.62986 4.60624 2.9727 4.2634C3.31554 3.92056 3.78053 3.72796 4.26538 3.72796V3.11858C4.26538 2.63373 4.45799 2.16874 4.80083 1.8259C5.14367 1.48306 5.60866 1.29046 6.09351 1.29046H13.406C13.8909 1.29046 14.3558 1.48306 14.6987 1.8259C15.0415 2.16874 15.2341 2.63373 15.2341 3.11858V3.72796C15.719 3.72796 16.184 3.92056 16.5268 4.2634C16.8697 4.60624 17.0623 5.07123 17.0623 5.55608V7.38421C17.5471 7.38421 18.0121 7.57681 18.3549 7.91965C18.6978 8.26249 18.8904 8.72748 18.8904 9.21233V17.7436C18.8904 18.2284 18.6978 18.6934 18.3549 19.0363C18.0121 19.3791 17.5471 19.5717 17.0623 19.5717H2.43726C1.95241 19.5717 1.48742 19.3791 1.14458 19.0363C0.801737 18.6934 0.609131 18.2284 0.609131 17.7436V9.21233C0.609131 8.72748 0.801737 8.26249 1.14458 7.91965C1.48742 7.57681 1.95241 7.38421 2.43726 7.38421ZM14.0154 3.11858C14.0154 2.95697 13.9512 2.80197 13.8369 2.68769C13.7226 2.57341 13.5676 2.50921 13.406 2.50921H6.09351C5.93189 2.50921 5.77689 2.57341 5.66261 2.68769C5.54833 2.80197 5.48413 2.95697 5.48413 3.11858V3.72796H14.0154V3.11858ZM15.8435 5.55608C15.8435 5.39447 15.7793 5.23947 15.665 5.12519C15.5507 5.01091 15.3957 4.94671 15.2341 4.94671H4.26538C4.10376 4.94671 3.94877 5.01091 3.83449 5.12519C3.72021 5.23947 3.65601 5.39447 3.65601 5.55608V7.38421H15.8435V5.55608ZM1.82788 17.7436C1.82788 17.9052 1.89208 18.0602 2.00636 18.1745C2.12064 18.2888 2.27564 18.353 2.43726 18.353H17.0623C17.2239 18.353 17.3789 18.2888 17.4931 18.1745C17.6074 18.0602 17.6716 17.9052 17.6716 17.7436V9.21233C17.6716 9.05072 17.6074 8.89572 17.4931 8.78144C17.3789 8.66716 17.2239 8.60296 17.0623 8.60296H2.43726C2.27564 8.60296 2.12064 8.66716 2.00636 8.78144C1.89208 8.89572 1.82788 9.05072 1.82788 9.21233V17.7436Z" fill="#2EEC4D"/>
<path d="M6.70214 12.3816L10.206 10.1879C10.4026 10.0664 10.628 9.99955 10.859 9.99429C11.09 9.98903 11.3182 10.0455 11.5201 10.1579C11.7219 10.2704 11.8901 10.4346 12.0073 10.6338C12.1245 10.833 12.1863 11.0598 12.1865 11.2908V15.6662C12.1873 15.8972 12.1261 16.1243 12.0092 16.3236C11.8924 16.523 11.7243 16.6873 11.5223 16.7996C11.3201 16.9124 11.0915 16.969 10.86 16.9636C10.6286 16.9583 10.4028 16.8911 10.206 16.7691L6.70214 14.5754C6.51573 14.4594 6.36196 14.2978 6.25534 14.1059C6.14872 13.914 6.09277 13.698 6.09277 13.4785C6.09277 13.259 6.14872 13.043 6.25534 12.8511C6.36196 12.6592 6.51573 12.4976 6.70214 12.3816ZM7.34808 13.5455L10.852 15.7332C10.8638 15.7394 10.877 15.7424 10.8904 15.7421C10.9037 15.7418 10.9168 15.7382 10.9283 15.7315C10.9399 15.7248 10.9495 15.7153 10.9564 15.7039C10.9633 15.6925 10.9672 15.6795 10.9678 15.6662V11.2908C10.9692 11.2773 10.9665 11.2636 10.96 11.2516C10.9534 11.2396 10.9434 11.2299 10.9312 11.2238C10.9174 11.2192 10.9024 11.2192 10.8885 11.2238H10.852L7.34808 13.4115C7.33675 13.4186 7.32741 13.4285 7.32094 13.4402C7.31447 13.4519 7.31108 13.4651 7.31108 13.4785C7.31108 13.4919 7.31447 13.5051 7.32094 13.5168C7.32741 13.5285 7.33675 13.5384 7.34808 13.5455Z" fill="#2EEC4D"/>
</g>
<defs>
<clipPath id="clip0_3354_228600">
<rect width="19.5" height="19.5" fill="white" transform="matrix(-1 0 0 1 19.5 0.681305)"/>
</clipPath>
</defs>
</svg>
