<svg width="19" height="21" viewBox="0 0 19 21" fill="none" xmlns="http://www.w3.org/2000/svg">
<path d="M14.9499 20.1832H1.94985C1.60507 20.1832 1.27441 20.0462 1.03061 19.8024C0.786815 19.5586 0.649851 19.2279 0.649851 18.8832V4.20292C0.650166 4.06858 0.678388 3.93577 0.732726 3.81292C0.735781 3.80594 0.739366 3.7992 0.74345 3.79277C0.790573 3.68887 0.855712 3.59414 0.935851 3.51294L3.4793 0.969166C3.5605 0.889027 3.65523 0.823889 3.75913 0.776766C3.76556 0.772682 3.7723 0.769097 3.77928 0.766041C3.90223 0.711659 4.03516 0.683437 4.1696 0.683167H14.9499C15.2946 0.683167 15.6253 0.82013 15.8691 1.06393C16.1129 1.30772 16.2499 1.63839 16.2499 1.98317V11.0832H18.1999C18.3722 11.0832 18.5376 11.1516 18.6595 11.2735C18.7814 11.3954 18.8499 11.5608 18.8499 11.7332V17.5832C18.8499 17.7556 18.7814 17.9209 18.6595 18.0428C18.5376 18.1647 18.3722 18.2332 18.1999 18.2332H16.2499V18.8832C16.2499 19.2279 16.1129 19.5586 15.8691 19.8024C15.6253 20.0462 15.2946 20.1832 14.9499 20.1832ZM1.7594 3.60817H2.63885C2.88701 3.60791 3.12494 3.50921 3.30042 3.33373C3.4759 3.15826 3.57459 2.92033 3.57485 2.67217V1.79272L1.7594 3.60817ZM15.5999 1.98317C15.5999 1.81078 15.5314 1.64545 15.4095 1.52355C15.2876 1.40165 15.1222 1.33317 14.9499 1.33317H4.22485V2.67217C4.22442 3.09267 4.05719 3.49582 3.75985 3.79316C3.46251 4.0905 3.05935 4.25774 2.63885 4.25817H1.29985V18.8832C1.29985 19.0556 1.36833 19.2209 1.49023 19.3428C1.61213 19.4647 1.77746 19.5332 1.94985 19.5332H14.9499C15.1222 19.5332 15.2876 19.4647 15.4095 19.3428C15.5314 19.2209 15.5999 19.0556 15.5999 18.8832V18.2332H7.79985C7.62746 18.2332 7.46213 18.1647 7.34023 18.0428C7.21833 17.9209 7.14985 17.7556 7.14985 17.5832V11.7332C7.14985 11.5608 7.21833 11.3954 7.34023 11.2735C7.46213 11.1516 7.62746 11.0832 7.79985 11.0832H15.5999V1.98317ZM18.1999 11.7332H7.79985V17.5832H18.1999V11.7332Z" fill="#2EEC4D"/>
<path d="M13.9749 3.60874H6.17485C6.08866 3.60874 6.00599 3.5745 5.94504 3.51355C5.88409 3.4526 5.84985 3.36994 5.84985 3.28374C5.84985 3.19754 5.88409 3.11488 5.94504 3.05393C6.00599 2.99298 6.08866 2.95874 6.17485 2.95874H13.9749C14.061 2.95874 14.1437 2.99298 14.2047 3.05393C14.2656 3.11488 14.2999 3.19754 14.2999 3.28374C14.2999 3.36994 14.2656 3.4526 14.2047 3.51355C14.1437 3.5745 14.061 3.60874 13.9749 3.60874ZM13.9749 5.23374H6.17485C6.08866 5.23374 6.00599 5.1995 5.94504 5.13855C5.88409 5.0776 5.84985 4.99494 5.84985 4.90874C5.84985 4.82254 5.88409 4.73988 5.94504 4.67893C6.00599 4.61798 6.08866 4.58374 6.17485 4.58374H13.9749C14.061 4.58374 14.1437 4.61798 14.2047 4.67893C14.2656 4.73988 14.2999 4.82254 14.2999 4.90874C14.2999 4.99494 14.2656 5.0776 14.2047 5.13855C14.1437 5.1995 14.061 5.23374 13.9749 5.23374ZM13.9749 6.85874H2.92485C2.83866 6.85874 2.75599 6.8245 2.69504 6.76355C2.63409 6.7026 2.59985 6.61994 2.59985 6.53374C2.59985 6.44755 2.63409 6.36488 2.69504 6.30393C2.75599 6.24298 2.83866 6.20874 2.92485 6.20874H13.9749C14.061 6.20874 14.1437 6.24298 14.2047 6.30393C14.2656 6.36488 14.2999 6.44755 14.2999 6.53374C14.2999 6.61994 14.2656 6.7026 14.2047 6.76355C14.1437 6.8245 14.061 6.85874 13.9749 6.85874ZM13.9749 8.48374H2.92485C2.83866 8.48374 2.75599 8.4495 2.69504 8.38855C2.63409 8.3276 2.59985 8.24494 2.59985 8.15874C2.59985 8.07255 2.63409 7.98988 2.69504 7.92893C2.75599 7.86798 2.83866 7.83374 2.92485 7.83374H13.9749C14.061 7.83374 14.1437 7.86798 14.2047 7.92893C14.2656 7.98988 14.2999 8.07255 14.2999 8.15874C14.2999 8.24494 14.2656 8.3276 14.2047 8.38855C14.1437 8.4495 14.061 8.48374 13.9749 8.48374ZM2.59985 9.78374C2.59985 9.69755 2.63409 9.61488 2.69504 9.55393C2.75599 9.49298 2.83866 9.45874 2.92485 9.45874H13.9749C14.061 9.45874 14.1437 9.49298 14.2047 9.55393C14.2656 9.61488 14.2999 9.69755 14.2999 9.78374C14.2999 9.86994 14.2656 9.9526 14.2047 10.0136C14.1437 10.0745 14.061 10.1087 13.9749 10.1087H2.92485C2.83866 10.1087 2.75599 10.0745 2.69504 10.0136C2.63409 9.9526 2.59985 9.86994 2.59985 9.78374ZM2.92485 11.0837H5.84985C5.93605 11.0837 6.01871 11.118 6.07966 11.1789C6.14061 11.2399 6.17485 11.3225 6.17485 11.4087C6.17485 11.4949 6.14061 11.5776 6.07966 11.6386C6.01871 11.6995 5.93605 11.7337 5.84985 11.7337H2.92485C2.83866 11.7337 2.75599 11.6995 2.69504 11.6386C2.63409 11.5776 2.59985 11.4949 2.59985 11.4087C2.59985 11.3225 2.63409 11.2399 2.69504 11.1789C2.75599 11.118 2.83866 11.0837 2.92485 11.0837ZM2.92485 12.7087H5.84985C5.93605 12.7087 6.01871 12.743 6.07966 12.8039C6.14061 12.8649 6.17485 12.9475 6.17485 13.0337C6.17485 13.1199 6.14061 13.2026 6.07966 13.2636C6.01871 13.3245 5.93605 13.3587 5.84985 13.3587H2.92485C2.83866 13.3587 2.75599 13.3245 2.69504 13.2636C2.63409 13.2026 2.59985 13.1199 2.59985 13.0337C2.59985 12.9475 2.63409 12.8649 2.69504 12.8039C2.75599 12.743 2.83866 12.7087 2.92485 12.7087ZM2.92485 14.3337H5.84985C5.93605 14.3337 6.01871 14.368 6.07966 14.4289C6.14061 14.4899 6.17485 14.5725 6.17485 14.6587C6.17485 14.7449 6.14061 14.8276 6.07966 14.8886C6.01871 14.9495 5.93605 14.9837 5.84985 14.9837H2.92485C2.83866 14.9837 2.75599 14.9495 2.69504 14.8886C2.63409 14.8276 2.59985 14.7449 2.59985 14.6587C2.59985 14.5725 2.63409 14.4899 2.69504 14.4289C2.75599 14.368 2.83866 14.3337 2.92485 14.3337ZM2.92485 15.9587H5.84985C5.93605 15.9587 6.01871 15.993 6.07966 16.0539C6.14061 16.1149 6.17485 16.1975 6.17485 16.2837C6.17485 16.3699 6.14061 16.4526 6.07966 16.5136C6.01871 16.5745 5.93605 16.6087 5.84985 16.6087H2.92485C2.83866 16.6087 2.75599 16.5745 2.69504 16.5136C2.63409 16.4526 2.59985 16.3699 2.59985 16.2837C2.59985 16.1975 2.63409 16.1149 2.69504 16.0539C2.75599 15.993 2.83866 15.9587 2.92485 15.9587ZM2.92485 17.5837H5.84985C5.93605 17.5837 6.01871 17.618 6.07966 17.6789C6.14061 17.7399 6.17485 17.8225 6.17485 17.9087C6.17485 17.9949 6.14061 18.0776 6.07966 18.1386C6.01871 18.1995 5.93605 18.2337 5.84985 18.2337H2.92485C2.83866 18.2337 2.75599 18.1995 2.69504 18.1386C2.63409 18.0776 2.59985 17.9949 2.59985 17.9087C2.59985 17.8225 2.63409 17.7399 2.69504 17.6789C2.75599 17.618 2.83866 17.5837 2.92485 17.5837ZM13.3249 16.6087C12.9801 16.6087 12.6494 16.4718 12.4056 16.228C12.1618 15.9842 12.0249 15.6535 12.0249 15.3087V14.0087C12.0249 13.664 12.1618 13.3333 12.4056 13.0895C12.6494 12.8457 12.9801 12.7087 13.3249 12.7087C13.6696 12.7087 14.0003 12.8457 14.2441 13.0895C14.4879 13.3333 14.6249 13.664 14.6249 14.0087V15.3087C14.6249 15.6535 14.4879 15.9842 14.2441 16.228C14.0003 16.4718 13.6696 16.6087 13.3249 16.6087ZM13.9749 14.0087C13.9749 13.8364 13.9064 13.671 13.7845 13.5491C13.6626 13.4272 13.4972 13.3587 13.3249 13.3587C13.1525 13.3587 12.9871 13.4272 12.8652 13.5491C12.7433 13.671 12.6749 13.8364 12.6749 14.0087V15.3087C12.6749 15.4811 12.7433 15.6465 12.8652 15.7684C12.9871 15.8903 13.1525 15.9587 13.3249 15.9587C13.4972 15.9587 13.6626 15.8903 13.7845 15.7684C13.9064 15.6465 13.9749 15.4811 13.9749 15.3087V14.0087ZM14.9499 16.2837C14.9499 16.1975 14.9841 16.1149 15.045 16.0539C15.106 15.993 15.1887 15.9587 15.2749 15.9587H16.5749V13.0337C16.5749 12.9475 16.6091 12.8649 16.67 12.8039C16.731 12.743 16.8137 12.7087 16.8999 12.7087C16.986 12.7087 17.0687 12.743 17.1297 12.8039C17.1906 12.8649 17.2249 12.9475 17.2249 13.0337V15.9587C17.2249 16.1311 17.1564 16.2965 17.0345 16.4184C16.9126 16.5403 16.7472 16.6087 16.5749 16.6087H15.2749C15.1887 16.6087 15.106 16.5745 15.045 16.5136C14.9841 16.4526 14.9499 16.3699 14.9499 16.2837ZM10.0749 16.6087C9.73007 16.6087 9.39941 16.4718 9.15561 16.228C8.91182 15.9842 8.77485 15.6535 8.77485 15.3087V14.9837C8.77485 14.8975 8.80909 14.8149 8.87004 14.7539C8.93099 14.693 9.01366 14.6587 9.09985 14.6587H9.74985C9.83605 14.6587 9.91871 14.693 9.97966 14.7539C10.0406 14.8149 10.0749 14.8975 10.0749 14.9837C10.0749 15.0699 10.0406 15.1526 9.97966 15.2136C9.91871 15.2745 9.83605 15.3087 9.74985 15.3087H9.42485C9.42485 15.4811 9.49333 15.6465 9.61523 15.7684C9.73713 15.8903 9.90246 15.9587 10.0749 15.9587C10.2472 15.9587 10.4126 15.8903 10.5345 15.7684C10.6564 15.6465 10.7249 15.4811 10.7249 15.3087V14.0087C10.7252 13.8552 10.6711 13.7064 10.5723 13.5889C10.4734 13.4714 10.3361 13.3927 10.1848 13.3667C10.0334 13.3407 9.87777 13.3692 9.74539 13.447C9.61301 13.5249 9.51246 13.6471 9.46158 13.792C9.43035 13.8698 9.37027 13.9325 9.29387 13.9671C9.21748 14.0016 9.13068 14.0053 9.05163 13.9774C8.97259 13.9494 8.90739 13.892 8.86968 13.8171C8.83197 13.7422 8.82466 13.6557 8.84928 13.5755C8.95153 13.2865 9.15267 13.0428 9.41715 12.8877C9.68164 12.7326 9.99244 12.6759 10.2946 12.7278C10.5968 12.7796 10.871 12.9366 11.0687 13.171C11.2663 13.4054 11.3748 13.7021 11.3749 14.0087V15.3087C11.3749 15.6535 11.2379 15.9842 10.9941 16.228C10.7503 16.4718 10.4196 16.6087 10.0749 16.6087Z" fill="#2EEC4D"/>
</svg>
