<svg width="20" height="23" viewBox="0 0 20 23" fill="none" xmlns="http://www.w3.org/2000/svg">
<path d="M0.582311 4.97773L5.11502 0.525925C5.23659 0.406556 5.40017 0.339691 5.57054 0.339721L17.03 0.339721C18.3672 0.339721 19.4553 1.4276 19.4553 2.76504V20.101C19.4553 21.4383 18.3674 22.5264 17.03 22.5264H2.81315C1.47589 22.5264 0.38783 21.4385 0.38783 20.1011V5.44153C0.387821 5.35518 0.405018 5.26969 0.438417 5.19005C0.471816 5.11042 0.520748 5.03824 0.582354 4.97773H0.582311ZM4.92054 2.53923L2.62725 4.79153H4.71388C4.76868 4.79145 4.8212 4.76964 4.85994 4.7309C4.89868 4.69215 4.92047 4.63962 4.92054 4.58483V2.53923ZM2.81311 21.2264H17.03C17.6504 21.2264 18.1553 20.7216 18.1553 20.1011V2.76509C18.1553 2.14451 17.6506 1.63972 17.03 1.63972H6.22037V4.58487C6.22037 5.41566 5.54446 6.09157 4.71367 6.09157H1.68779V20.101C1.68779 20.7216 2.19258 21.2263 2.81315 21.2263L2.81311 21.2264Z" fill="#2EEC4D"/>
<path d="M5.40863 10.6531H14.5717C14.9307 10.6531 15.2217 10.9441 15.2217 11.3031C15.2217 11.6621 14.9307 11.9531 14.5717 11.9531H5.40867C5.04966 11.9531 4.75867 11.6621 4.75867 11.3031C4.75867 10.9441 5.04961 10.6531 5.40863 10.6531ZM14.5716 14.5531H7.10036C6.7413 14.5531 6.45036 14.2621 6.45036 13.9031C6.45036 13.5441 6.7413 13.2531 7.10036 13.2531H14.5716C14.9307 13.2531 15.2216 13.5441 15.2216 13.9031C15.2216 14.2621 14.9307 14.5531 14.5716 14.5531ZM6.19899 15.8531H14.5716C14.9307 15.8531 15.2216 16.1441 15.2216 16.5031C15.2216 16.8621 14.9307 17.1531 14.5716 17.1531H6.19899C5.84014 17.1531 5.54899 16.8621 5.54899 16.5031C5.54899 16.1441 5.84014 15.8531 6.19899 15.8531Z" fill="#2EEC4D"/>
</svg>
