<svg width="21" height="20" viewBox="0 0 21 20" fill="none" xmlns="http://www.w3.org/2000/svg">
<path d="M20.1466 9.59261H15.6259V8.71959C15.6258 8.65697 15.6091 8.59549 15.5774 8.54146C15.5457 8.48743 15.5003 8.44278 15.4457 8.4121L10.6034 5.69054V4.30503H11.5613V4.83166C11.5613 4.9254 11.5985 5.01531 11.6648 5.08159C11.7311 5.14787 11.821 5.18511 11.9147 5.18511H14.8024C14.8592 5.18508 14.9151 5.17139 14.9654 5.14519C15.0157 5.119 15.059 5.08107 15.0916 5.03462C15.1242 4.98817 15.1451 4.93456 15.1526 4.87832C15.1601 4.82208 15.1539 4.76485 15.1347 4.71149L14.8448 3.88796L15.1382 3.08209C15.1575 3.02873 15.1636 2.97151 15.1562 2.91526C15.1487 2.85901 15.1277 2.8054 15.0952 2.75894C15.0626 2.71249 15.0193 2.67456 14.9689 2.64837C14.9186 2.62218 14.8627 2.6085 14.8059 2.60847H13.4911V2.09597C13.4911 2.00223 13.4539 1.91233 13.3876 1.84605C13.3213 1.77976 13.2314 1.74253 13.1377 1.74253H10.6034V1.31132C10.6034 1.21758 10.5662 1.12768 10.4999 1.06139C10.4336 0.995109 10.3437 0.95787 10.25 0.95787C10.1563 0.95787 10.0664 0.995109 10.0001 1.06139C9.93379 1.12768 9.89655 1.21758 9.89655 1.31132V5.69054L5.05431 8.40856C4.99971 8.43925 4.95425 8.48389 4.92258 8.53792C4.89091 8.59195 4.87416 8.65343 4.87405 8.71606V9.58908H0.353448C0.259708 9.58908 0.169807 9.62632 0.103523 9.6926C0.0372382 9.75889 0 9.84879 0 9.94253L0 19.1887C0 19.2825 0.0372382 19.3724 0.103523 19.4387C0.169807 19.5049 0.259708 19.5422 0.353448 19.5422H20.1466C20.2403 19.5422 20.3302 19.5049 20.3965 19.4387C20.4628 19.3724 20.5 19.2825 20.5 19.1887V9.94606C20.5 9.85232 20.4628 9.76242 20.3965 9.69613C20.3302 9.62985 20.2403 9.59261 20.1466 9.59261ZM13.4911 3.95158L13.477 3.93744V3.32951H14.2828L14.1379 3.78192C14.109 3.86064 14.109 3.94708 14.1379 4.0258L14.3041 4.47822H12.2682V4.30503H13.1377C13.2314 4.30503 13.3213 4.26779 13.3876 4.2015C13.4539 4.13522 13.4911 4.04532 13.4911 3.95158ZM10.6034 2.44942H12.7842V3.59813H10.6034V2.44942ZM4.87405 18.8353H0.706897V10.2995H4.87405V18.8353ZM9.89655 18.8353H8.04095V14.7989H9.89655V18.8353ZM12.4591 18.8353H10.6034V14.7989H12.4591V18.8353ZM14.9332 18.8353H13.1659V14.4455C13.1659 14.3517 13.1287 14.2618 13.0624 14.1955C12.9961 14.1292 12.9062 14.092 12.8125 14.092H7.6875C7.59376 14.092 7.50386 14.1292 7.43757 14.1955C7.37129 14.2618 7.33405 14.3517 7.33405 14.4455V18.8353H5.56681V8.93873L10.25 6.30201L14.9191 8.9246L14.9332 9.94253V18.8353ZM19.7931 18.8353H15.6259V10.2995H19.7931V18.8353Z" fill="#2EEC4D"/>
<path d="M10.2499 7.38353C9.43139 7.38547 8.76894 8.04951 8.76894 8.86801C8.77088 9.68594 9.4355 10.3474 10.2534 10.3454C11.0713 10.3435 11.7328 9.67887 11.7308 8.86094C11.7289 8.04443 11.0664 7.38353 10.2499 7.38353ZM10.2499 9.63853C9.82239 9.63659 9.47743 9.28844 9.47937 8.86094C9.48131 8.43623 9.82513 8.09237 10.2499 8.09043C10.678 8.09237 11.0239 8.43994 11.0239 8.86801H11.0275C11.0255 9.29551 10.6774 9.64047 10.2499 9.63853ZM1.55859 11.0771H2.26549V12.4909H1.55859V11.0771ZM3.30109 11.0771H4.00799V12.4909H3.30109V11.0771ZM6.64118 11.0771H8.05497V11.784H6.64118V11.0771ZM9.54299 11.0771H10.9568V11.784H9.54299V11.0771ZM12.4448 11.0771H13.8586V11.784H12.4448V11.0771ZM6.64118 12.7241H8.05497V13.431H6.64118V12.7241ZM9.54299 12.7241H10.9568V13.431H9.54299V12.7241ZM12.4448 12.7241H13.8586V13.431H12.4448V12.7241ZM1.55859 13.8587H2.26549V15.2725H1.55859V13.8587ZM3.30109 13.8587H4.00799V15.2725H3.30109V13.8587ZM1.55859 16.6439H2.26549V18.0577H1.55859V16.6439ZM3.30109 16.6439H4.00799V18.0577H3.30109V16.6439ZM16.4918 11.0771H17.1987V12.4909H16.4918V11.0771ZM18.2343 11.0771H18.9412V12.4909H18.2343V11.0771ZM16.4918 13.8587H17.1987V15.2725H16.4918V13.8587ZM18.2343 13.8587H18.9412V15.2725H18.2343V13.8587ZM16.4918 16.6439H17.1987V18.0577H16.4918V16.6439ZM18.2343 16.6439H18.9412V18.0577H18.2343V16.6439Z" fill="#2EEC4D"/>
</svg>
