<svg width="20" height="21" viewBox="0 0 20 21" fill="none" xmlns="http://www.w3.org/2000/svg">
<path d="M8.83951 20.1823H10.6595C10.9571 20.182 11.2442 20.0727 11.4667 19.8751C11.6892 19.6775 11.8315 19.4052 11.8669 19.1098L12.0611 17.5855C12.4448 17.461 12.818 17.3064 13.1774 17.1232L14.3913 18.0665C14.6257 18.2507 14.9198 18.3421 15.2173 18.3233C15.5148 18.3044 15.7949 18.1765 16.0041 17.9641L17.2838 16.6844C17.4951 16.4754 17.6219 16.196 17.6402 15.8994C17.6585 15.6028 17.5669 15.3099 17.3829 15.0765L16.4396 13.8618C16.6235 13.5027 16.7781 13.1294 16.9019 12.7454L18.4294 12.5513C18.7245 12.5148 18.9961 12.3718 19.1932 12.1492C19.3902 11.9265 19.4992 11.6396 19.4995 11.3423V9.52225C19.4995 8.90719 19.0388 8.388 18.427 8.31488L16.9028 8.12069C16.7782 7.737 16.6236 7.36372 16.4404 7.00431L17.3829 5.79044C17.5677 5.55605 17.6593 5.26169 17.6402 4.96387C17.6212 4.66606 17.4928 4.38577 17.2798 4.17681L16.0001 2.89713C15.791 2.68605 15.5115 2.55929 15.215 2.54101C14.9185 2.52273 14.6256 2.6142 14.3921 2.798L13.1783 3.74213C12.8186 3.55879 12.4451 3.4042 12.0611 3.27981L11.8669 1.75231C11.7938 1.14294 11.2746 0.682251 10.6595 0.682251H8.83951C8.22445 0.682251 7.70526 1.14294 7.63214 1.75475L7.43795 3.279C7.04957 3.40494 6.67582 3.56013 6.32076 3.74131L5.10689 2.798C4.87255 2.61352 4.57837 2.52203 4.28074 2.54108C3.98311 2.56012 3.70299 2.68835 3.49407 2.90119L2.21439 4.18088C1.77807 4.60419 1.7342 5.29725 2.11526 5.78881L3.05857 7.0035C2.87657 7.35856 2.72139 7.73231 2.59626 8.11988L1.06876 8.31406C0.773898 8.35051 0.502501 8.49341 0.305597 8.7159C0.108693 8.93839 -0.000157104 9.22514 -0.000488281 9.52225V11.3423C-0.000488281 11.9573 0.460199 12.4765 1.07201 12.5496L2.59626 12.7438C2.7208 13.1275 2.87538 13.5008 3.05857 13.8602L2.11526 15.0741C1.93078 15.3084 1.8393 15.6026 1.85834 15.9002C1.87738 16.1978 2.00561 16.478 2.21845 16.6869L3.49814 17.9666C3.70704 18.178 3.98653 18.3049 4.28317 18.3232C4.57981 18.3415 4.87279 18.2498 5.10607 18.0657L6.32076 17.1224C6.67985 17.3062 7.05319 17.4609 7.43714 17.5847L7.63132 19.1122C7.66759 19.4072 7.81041 19.6788 8.03292 19.8759C8.25542 20.0729 8.54228 20.1819 8.83951 20.1823ZM13.2189 16.2335C13.1514 16.2335 13.0824 16.2506 13.0206 16.2847C12.5646 16.5385 12.081 16.7392 11.5793 16.8827C11.503 16.9046 11.4348 16.9483 11.3831 17.0085C11.3314 17.0688 11.2985 17.1428 11.2884 17.2215L11.0609 19.009C11.0365 19.2129 10.8602 19.3698 10.6595 19.3698H8.83951C8.74101 19.3684 8.64628 19.3316 8.57271 19.2661C8.49913 19.2006 8.45165 19.1108 8.43895 19.0131L8.21064 17.2223C8.20054 17.1436 8.16762 17.0696 8.11593 17.0094C8.06423 16.9491 7.99604 16.9054 7.91976 16.8835C7.418 16.74 6.93438 16.5393 6.47839 16.2855C6.40879 16.2466 6.32929 16.2291 6.24981 16.2352C6.17032 16.2413 6.09439 16.2706 6.03151 16.3196L4.60964 17.4246C4.53305 17.4863 4.43644 17.5175 4.33827 17.5124C4.24009 17.5073 4.14724 17.4662 4.07745 17.397L2.78964 16.1092C2.71919 16.0394 2.67699 15.9461 2.67114 15.8471C2.66529 15.7482 2.69621 15.6505 2.75795 15.5729L3.86295 14.1511C3.91184 14.0881 3.94114 14.0122 3.94721 13.9328C3.95328 13.8533 3.93584 13.7738 3.89707 13.7042C3.64324 13.2482 3.4426 12.7646 3.29907 12.2628C3.27718 12.1865 3.23343 12.1183 3.17322 12.0667C3.11301 12.015 3.03897 11.982 2.96026 11.9719L1.17276 11.7444C1.07426 11.7321 0.983526 11.6846 0.917244 11.6107C0.850962 11.5368 0.813593 11.4415 0.812012 11.3423V9.52225C0.81334 9.42375 0.850135 9.32902 0.915649 9.25545C0.981164 9.18187 1.07101 9.13438 1.1687 9.12169L2.95945 8.89338C3.03816 8.88328 3.11219 8.85036 3.17241 8.79866C3.23262 8.74697 3.27637 8.67878 3.29826 8.6025C3.44178 8.10074 3.64243 7.61712 3.89626 7.16113C3.93534 7.0916 3.95296 7.01205 3.94688 6.93252C3.94081 6.85299 3.91132 6.77704 3.86214 6.71425L2.75714 5.29238C2.69528 5.21609 2.6638 5.11964 2.66875 5.02155C2.6737 4.92347 2.71473 4.83067 2.78395 4.761L4.07176 3.47319C4.14124 3.40225 4.23464 3.3597 4.33377 3.35385C4.4329 3.34799 4.53066 3.37924 4.60801 3.4415L6.02989 4.5465C6.0929 4.59556 6.16896 4.62496 6.24859 4.63103C6.32821 4.6371 6.40786 4.61957 6.47757 4.58063C6.93346 4.32657 7.41711 4.12592 7.91895 3.98263C7.99523 3.96073 8.06342 3.91698 8.11511 3.85677C8.1668 3.79656 8.19973 3.72253 8.20982 3.64381L8.43732 1.85631C8.44947 1.75767 8.49686 1.66674 8.57078 1.60029C8.64469 1.53384 8.74013 1.49636 8.83951 1.49475H10.6595C10.758 1.49608 10.8527 1.53287 10.9263 1.59839C10.9999 1.6639 11.0474 1.75375 11.0601 1.85144L11.2884 3.64219C11.2985 3.72097 11.3315 3.79508 11.3831 3.85541C11.4348 3.91575 11.503 3.95968 11.5793 3.98181C12.0811 4.12483 12.5647 4.32521 13.0206 4.579C13.0903 4.61806 13.1699 4.63572 13.2495 4.6298C13.3291 4.62388 13.4052 4.59462 13.4683 4.54569L14.8902 3.44069C14.9665 3.37883 15.0629 3.34735 15.161 3.3523C15.2591 3.35725 15.3519 3.39828 15.4216 3.4675L16.7094 4.75613C16.7798 4.82589 16.822 4.91921 16.8279 5.01818C16.8337 5.11716 16.8028 5.2148 16.7411 5.29238L15.6361 6.71425C15.5872 6.77718 15.5579 6.8531 15.5518 6.93256C15.5457 7.01201 15.5632 7.0915 15.6019 7.16113C15.8561 7.61696 16.0568 8.10062 16.1999 8.6025C16.2218 8.67878 16.2656 8.74697 16.3258 8.79866C16.386 8.85036 16.46 8.88328 16.5388 8.89338L18.3263 9.12088C18.4248 9.13285 18.5156 9.18011 18.5819 9.25391C18.6482 9.32771 18.6856 9.42304 18.687 9.52225V11.3423C18.687 11.5429 18.5302 11.7193 18.3303 11.7428L16.5396 11.9711C16.4609 11.9812 16.3868 12.0141 16.3266 12.0658C16.2664 12.1175 16.2227 12.1857 16.2008 12.262C16.0545 12.7706 15.853 13.2557 15.6028 13.7034C15.5637 13.7729 15.5461 13.8525 15.5521 13.932C15.5582 14.0115 15.5877 14.0875 15.6369 14.1503L16.7419 15.5721C16.8037 15.6484 16.8352 15.7449 16.8303 15.843C16.8253 15.941 16.7843 16.0338 16.7151 16.1035L15.4273 17.3913C15.3576 17.4619 15.2642 17.5042 15.1652 17.5101C15.0662 17.5159 14.9685 17.4849 14.891 17.423L13.4691 16.318C13.397 16.2636 13.3092 16.2339 13.2189 16.2335Z" fill="#2EEC4C"/>
<path d="M9.74951 14.4948C11.9896 14.4948 13.812 12.6723 13.812 10.4323C13.812 8.19219 11.9896 6.36975 9.74951 6.36975C7.50945 6.36975 5.68701 8.19219 5.68701 10.4323C5.68701 12.6723 7.50945 14.4948 9.74951 14.4948ZM9.74951 7.18225C11.5419 7.18225 12.9995 8.63988 12.9995 10.4323C12.9995 12.2246 11.5419 13.6823 9.74951 13.6823C7.95714 13.6823 6.49951 12.2246 6.49951 10.4323C6.49951 8.63988 7.95714 7.18225 9.74951 7.18225Z" fill="#2EEC4C"/>
</svg>
