<svg width="26" height="25" viewBox="0 0 26 25" fill="none" xmlns="http://www.w3.org/2000/svg">
<g clip-path="url(#clip0_3083_58302)">
<path d="M19.9329 25.0024H2.5996C2.13989 25.0024 1.69901 24.8268 1.37395 24.5143C1.04888 24.2017 0.866264 23.7778 0.866264 23.3358V4.51494C0.866684 4.34271 0.904314 4.17245 0.976765 4.01494C0.980839 4.00599 0.985619 3.99736 0.991064 3.98911C1.05389 3.85591 1.14075 3.73445 1.2476 3.63036L4.63886 0.369108C4.74712 0.266365 4.87344 0.182855 5.01196 0.122441C5.02054 0.117205 5.02952 0.112608 5.03883 0.108691C5.20278 0.0389704 5.38 0.00278796 5.55927 0.00244141L19.9329 0.00244141C20.3926 0.00244141 20.8335 0.178036 21.1586 0.490597C21.4836 0.803157 21.6663 1.22708 21.6663 1.66911V13.3358H24.2663C24.4961 13.3358 24.7166 13.4236 24.8791 13.5799C25.0416 13.7361 25.1329 13.9481 25.1329 14.1691V21.6691C25.1329 21.8901 25.0416 22.1021 24.8791 22.2584C24.7166 22.4146 24.4961 22.5024 24.2663 22.5024H21.6663V23.3358C21.6663 23.7778 21.4836 24.2017 21.1586 24.5143C20.8335 24.8268 20.3926 25.0024 19.9329 25.0024ZM2.34566 3.75244H3.51826C3.84915 3.75211 4.16638 3.62558 4.40035 3.4006C4.63433 3.17563 4.76592 2.8706 4.76627 2.55244V1.42494L2.34566 3.75244ZM20.7996 1.66911C20.7996 1.44809 20.7083 1.23613 20.5458 1.07985C20.3832 0.923572 20.1628 0.835775 19.9329 0.835775H5.63293V2.55244C5.63236 3.09155 5.40938 3.60841 5.01293 3.98962C4.61647 4.37082 4.07893 4.58522 3.51826 4.58577H1.73293V23.3358C1.73293 23.5568 1.82424 23.7687 1.98677 23.925C2.1493 24.0813 2.36974 24.1691 2.5996 24.1691H19.9329C20.1628 24.1691 20.3832 24.0813 20.5458 23.925C20.7083 23.7687 20.7996 23.5568 20.7996 23.3358V22.5024H10.3996C10.1697 22.5024 9.9493 22.4146 9.78677 22.2584C9.62424 22.1021 9.53293 21.8901 9.53293 21.6691V14.1691C9.53293 13.9481 9.62424 13.7361 9.78677 13.5799C9.9493 13.4236 10.1697 13.3358 10.3996 13.3358H20.7996V1.66911ZM24.2663 14.1691H10.3996V21.6691H24.2663V14.1691Z" fill="#2DEC4C"/>
<path d="M18.633 3.75326H8.23297C8.11805 3.75326 8.00783 3.70936 7.92656 3.63122C7.84529 3.55308 7.79964 3.4471 7.79964 3.33659C7.79964 3.22608 7.84529 3.1201 7.92656 3.04196C8.00783 2.96382 8.11805 2.91992 8.23297 2.91992H18.633C18.7479 2.91992 18.8581 2.96382 18.9394 3.04196C19.0207 3.1201 19.0663 3.22608 19.0663 3.33659C19.0663 3.4471 19.0207 3.55308 18.9394 3.63122C18.8581 3.70936 18.7479 3.75326 18.633 3.75326ZM18.633 5.83659H8.23297C8.11805 5.83659 8.00783 5.79269 7.92656 5.71455C7.84529 5.63641 7.79964 5.53043 7.79964 5.41992C7.79964 5.30942 7.84529 5.20343 7.92656 5.12529C8.00783 5.04715 8.11805 5.00326 8.23297 5.00326H18.633C18.7479 5.00326 18.8581 5.04715 18.9394 5.12529C19.0207 5.20343 19.0663 5.30942 19.0663 5.41992C19.0663 5.53043 19.0207 5.63641 18.9394 5.71455C18.8581 5.79269 18.7479 5.83659 18.633 5.83659ZM18.633 7.91992H3.89964C3.78471 7.91992 3.67449 7.87602 3.59323 7.79788C3.51196 7.71974 3.46631 7.61376 3.46631 7.50326C3.46631 7.39275 3.51196 7.28677 3.59323 7.20863C3.67449 7.13049 3.78471 7.08659 3.89964 7.08659H18.633C18.7479 7.08659 18.8581 7.13049 18.9394 7.20863C19.0207 7.28677 19.0663 7.39275 19.0663 7.50326C19.0663 7.61376 19.0207 7.71974 18.9394 7.79788C18.8581 7.87602 18.7479 7.91992 18.633 7.91992ZM18.633 10.0033H3.89964C3.78471 10.0033 3.67449 9.95936 3.59323 9.88122C3.51196 9.80308 3.46631 9.6971 3.46631 9.58659C3.46631 9.47608 3.51196 9.3701 3.59323 9.29196C3.67449 9.21382 3.78471 9.16992 3.89964 9.16992H18.633C18.7479 9.16992 18.8581 9.21382 18.9394 9.29196C19.0207 9.3701 19.0663 9.47608 19.0663 9.58659C19.0663 9.6971 19.0207 9.80308 18.9394 9.88122C18.8581 9.95936 18.7479 10.0033 18.633 10.0033ZM3.46631 11.6699C3.46631 11.5594 3.51196 11.4534 3.59323 11.3753C3.67449 11.2972 3.78471 11.2533 3.89964 11.2533H18.633C18.7479 11.2533 18.8581 11.2972 18.9394 11.3753C19.0207 11.4534 19.0663 11.5594 19.0663 11.6699C19.0663 11.7804 19.0207 11.8864 18.9394 11.9646C18.8581 12.0427 18.7479 12.0866 18.633 12.0866H3.89964C3.78471 12.0866 3.67449 12.0427 3.59323 11.9646C3.51196 11.8864 3.46631 11.7804 3.46631 11.6699ZM3.89964 13.3366H7.79964C7.91457 13.3366 8.02479 13.3805 8.10605 13.4586C8.18732 13.5368 8.23297 13.6427 8.23297 13.7533C8.23297 13.8638 8.18732 13.9697 8.10605 14.0479C8.02479 14.126 7.91457 14.1699 7.79964 14.1699H3.89964C3.78471 14.1699 3.67449 14.126 3.59323 14.0479C3.51196 13.9697 3.46631 13.8638 3.46631 13.7533C3.46631 13.6427 3.51196 13.5368 3.59323 13.4586C3.67449 13.3805 3.78471 13.3366 3.89964 13.3366ZM3.89964 15.4199H7.79964C7.91457 15.4199 8.02479 15.4638 8.10605 15.542C8.18732 15.6201 8.23297 15.7261 8.23297 15.8366C8.23297 15.9471 8.18732 16.0531 8.10605 16.1312C8.02479 16.2094 7.91457 16.2533 7.79964 16.2533H3.89964C3.78471 16.2533 3.67449 16.2094 3.59323 16.1312C3.51196 16.0531 3.46631 15.9471 3.46631 15.8366C3.46631 15.7261 3.51196 15.6201 3.59323 15.542C3.67449 15.4638 3.78471 15.4199 3.89964 15.4199ZM3.89964 17.5033H7.79964C7.91457 17.5033 8.02479 17.5472 8.10605 17.6253C8.18732 17.7034 8.23297 17.8094 8.23297 17.9199C8.23297 18.0304 8.18732 18.1364 8.10605 18.2146C8.02479 18.2927 7.91457 18.3366 7.79964 18.3366H3.89964C3.78471 18.3366 3.67449 18.2927 3.59323 18.2146C3.51196 18.1364 3.46631 18.0304 3.46631 17.9199C3.46631 17.8094 3.51196 17.7034 3.59323 17.6253C3.67449 17.5472 3.78471 17.5033 3.89964 17.5033ZM3.89964 19.5866H7.79964C7.91457 19.5866 8.02479 19.6305 8.10605 19.7086C8.18732 19.7868 8.23297 19.8927 8.23297 20.0033C8.23297 20.1138 8.18732 20.2197 8.10605 20.2979C8.02479 20.376 7.91457 20.4199 7.79964 20.4199H3.89964C3.78471 20.4199 3.67449 20.376 3.59323 20.2979C3.51196 20.2197 3.46631 20.1138 3.46631 20.0033C3.46631 19.8927 3.51196 19.7868 3.59323 19.7086C3.67449 19.6305 3.78471 19.5866 3.89964 19.5866ZM3.89964 21.6699H7.79964C7.91457 21.6699 8.02479 21.7138 8.10605 21.792C8.18732 21.8701 8.23297 21.9761 8.23297 22.0866C8.23297 22.1971 8.18732 22.3031 8.10605 22.3812C8.02479 22.4594 7.91457 22.5033 7.79964 22.5033H3.89964C3.78471 22.5033 3.67449 22.4594 3.59323 22.3812C3.51196 22.3031 3.46631 22.1971 3.46631 22.0866C3.46631 21.9761 3.51196 21.8701 3.59323 21.792C3.67449 21.7138 3.78471 21.6699 3.89964 21.6699ZM17.7663 20.4199C17.3066 20.4199 16.8657 20.2443 16.5407 19.9318C16.2156 19.6192 16.033 19.1953 16.033 18.7533V17.0866C16.033 16.6446 16.2156 16.2206 16.5407 15.9081C16.8657 15.5955 17.3066 15.4199 17.7663 15.4199C18.226 15.4199 18.6669 15.5955 18.992 15.9081C19.317 16.2206 19.4996 16.6446 19.4996 17.0866V18.7533C19.4996 19.1953 19.317 19.6192 18.992 19.9318C18.6669 20.2443 18.226 20.4199 17.7663 20.4199ZM18.633 17.0866C18.633 16.8656 18.5417 16.6536 18.3791 16.4973C18.2166 16.3411 17.9962 16.2533 17.7663 16.2533C17.5365 16.2533 17.316 16.3411 17.1535 16.4973C16.991 16.6536 16.8996 16.8656 16.8996 17.0866V18.7533C16.8996 18.9743 16.991 19.1862 17.1535 19.3425C17.316 19.4988 17.5365 19.5866 17.7663 19.5866C17.9962 19.5866 18.2166 19.4988 18.3791 19.3425C18.5417 19.1862 18.633 18.9743 18.633 18.7533V17.0866ZM19.933 20.0033C19.933 19.8927 19.9786 19.7868 20.0599 19.7086C20.1412 19.6305 20.2514 19.5866 20.3663 19.5866H22.0996V15.8366C22.0996 15.7261 22.1453 15.6201 22.2266 15.542C22.3078 15.4638 22.418 15.4199 22.533 15.4199C22.6479 15.4199 22.7581 15.4638 22.8394 15.542C22.9207 15.6201 22.9663 15.7261 22.9663 15.8366V19.5866C22.9663 19.8076 22.875 20.0196 22.7125 20.1758C22.5499 20.3321 22.3295 20.4199 22.0996 20.4199H20.3663C20.2514 20.4199 20.1412 20.376 20.0599 20.2979C19.9786 20.2197 19.933 20.1138 19.933 20.0033ZM13.433 20.4199C12.9733 20.4199 12.5324 20.2443 12.2073 19.9318C11.8823 19.6192 11.6996 19.1953 11.6996 18.7533V18.3366C11.6996 18.2261 11.7453 18.1201 11.8266 18.042C11.9078 17.9638 12.018 17.9199 12.133 17.9199H12.9996C13.1146 17.9199 13.2248 17.9638 13.3061 18.042C13.3873 18.1201 13.433 18.2261 13.433 18.3366C13.433 18.4471 13.3873 18.5531 13.3061 18.6312C13.2248 18.7094 13.1146 18.7533 12.9996 18.7533H12.5663C12.5663 18.9743 12.6576 19.1862 12.8201 19.3425C12.9827 19.4988 13.2031 19.5866 13.433 19.5866C13.6628 19.5866 13.8833 19.4988 14.0458 19.3425C14.2083 19.1862 14.2996 18.9743 14.2996 18.7533V17.0866C14.3001 16.8897 14.228 16.699 14.0962 16.5484C13.9644 16.3977 13.7814 16.2968 13.5796 16.2635C13.3777 16.2302 13.1702 16.2667 12.9937 16.3665C12.8172 16.4663 12.6831 16.6229 12.6153 16.8087C12.5736 16.9084 12.4935 16.9889 12.3917 17.0332C12.2898 17.0774 12.1741 17.0822 12.0687 17.0463C11.9633 17.0105 11.8764 16.9369 11.8261 16.8409C11.7758 16.7449 11.7661 16.6339 11.7989 16.5312C11.9352 16.1606 12.2034 15.8483 12.556 15.6494C12.9087 15.4505 13.3231 15.3779 13.726 15.4443C14.129 15.5108 14.4945 15.7121 14.758 16.0126C15.0216 16.3131 15.1662 16.6935 15.1663 17.0866V18.7533C15.1663 19.1953 14.9837 19.6192 14.6586 19.9318C14.3336 20.2443 13.8927 20.4199 13.433 20.4199Z" fill="#2DEC4C"/>
</g>
<defs>
<clipPath id="clip0_3083_58302">
<rect width="26" height="25" fill="white" transform="matrix(-1 0 0 1 26 0)"/>
</clipPath>
</defs>
</svg>
