<svg width="20" height="21" viewBox="0 0 20 21" fill="none" xmlns="http://www.w3.org/2000/svg">
<g clip-path="url(#clip0_3354_229251)">
<path d="M6.81174 9.72171C5.56401 8.81172 4.75148 7.33901 4.75148 5.67991C4.75148 2.92291 6.99448 0.679916 9.75148 0.679916C12.5085 0.679916 14.7515 2.92291 14.7515 5.67991C14.7515 7.33901 13.939 8.81172 12.6912 9.72171C15.7929 10.9087 18.0015 13.916 18.0015 17.4299C18.0015 18.9463 16.7678 20.1799 15.2515 20.1799H4.25149C2.73513 20.1799 1.50149 18.9463 1.50149 17.4299C1.50149 13.916 3.71002 10.9087 6.81174 9.72171ZM13.2515 5.67991C13.2515 3.75002 11.6814 2.17993 9.75148 2.17993C7.82159 2.17993 6.2515 3.75002 6.2515 5.67991C6.2515 7.60981 7.82159 9.17994 9.75148 9.17994C11.6814 9.17994 13.2515 7.60981 13.2515 5.67991ZM4.25149 18.6799H15.2515C15.9407 18.6799 16.5015 18.1192 16.5015 17.4299C16.5015 13.7079 13.4735 10.6799 9.75144 10.6799C6.02942 10.6799 3.00143 13.7079 3.00143 17.4299C3.00147 18.1192 3.56221 18.6799 4.25149 18.6799Z" fill="#2EEC4D"/>
</g>
<defs>
<clipPath id="clip0_3354_229251">
<rect width="19.5" height="19.5" fill="white" transform="matrix(-1 0 0 1 19.4998 0.681091)"/>
</clipPath>
</defs>
</svg>
