<svg width="24" height="23" viewBox="0 0 24 23" fill="none" xmlns="http://www.w3.org/2000/svg">
<g clip-path="url(#clip0_3354_226500)">
<path d="M2.64559 2.33911H21.6039C22.1065 2.33971 22.5884 2.53965 22.9438 2.89505C23.2992 3.25046 23.4992 3.73232 23.4998 4.23494V17.8849C23.4992 18.3876 23.2992 18.8694 22.9438 19.2248C22.5884 19.5802 22.1065 19.7802 21.6039 19.7808H10.2289V21.6766C10.2289 21.7516 10.2067 21.8249 10.165 21.8872C10.1233 21.9496 10.0641 21.9981 9.99485 22.0268C9.92557 22.0555 9.84935 22.063 9.77581 22.0484C9.70227 22.0338 9.63471 21.9977 9.58169 21.9447L8.33309 20.6961L7.08449 21.9447C7.03147 21.9977 6.96391 22.0338 6.89037 22.0484C6.81683 22.063 6.74061 22.0555 6.67133 22.0268C6.60206 21.9981 6.54285 21.9496 6.50118 21.8872C6.45952 21.8249 6.43727 21.7516 6.43726 21.6766V19.7808H2.64559C2.14297 19.7802 1.66111 19.5802 1.3057 19.2248C0.950291 18.8694 0.750359 18.3876 0.749756 17.8849V4.23494C0.750359 3.73232 0.950291 3.25046 1.3057 2.89505C1.66111 2.53965 2.14297 2.33971 2.64559 2.33911ZM11.2489 9.75751C11.2778 9.74418 11.3031 9.7242 11.3228 9.69921C11.3425 9.67422 11.356 9.64493 11.3622 9.61372C11.3684 9.58251 11.3672 9.55028 11.3585 9.51965C11.3499 9.48902 11.3342 9.46087 11.3126 9.43749C11.1489 9.25965 11.0581 9.0268 11.0581 8.78513C11.0581 8.54347 11.1489 8.31062 11.3126 8.13278C11.3342 8.10938 11.35 8.08117 11.3587 8.05048C11.3673 8.01979 11.3686 7.98749 11.3623 7.95623C11.3561 7.92496 11.3425 7.89562 11.3227 7.87062C11.3029 7.84561 11.2775 7.82566 11.2485 7.81238C11.0294 7.71043 10.8566 7.52997 10.7642 7.30669C10.6718 7.08341 10.6665 6.83358 10.7495 6.60663C10.7606 6.57677 10.7644 6.54472 10.7606 6.5131C10.7569 6.48148 10.7458 6.45119 10.7281 6.42471C10.7104 6.39823 10.6867 6.37631 10.6589 6.36074C10.6312 6.34518 10.6001 6.33641 10.5683 6.33515C10.3268 6.325 10.0979 6.22451 9.92695 6.05359C9.75602 5.88266 9.65553 5.65377 9.64538 5.41226C9.64415 5.3804 9.63538 5.34928 9.61979 5.32147C9.6042 5.29366 9.58224 5.26993 9.55571 5.25225C9.52918 5.23456 9.49884 5.22342 9.46717 5.21973C9.4355 5.21604 9.40341 5.2199 9.37352 5.23102C9.14649 5.31351 8.89681 5.308 8.67364 5.21557C8.45047 5.12315 8.27 4.95051 8.16777 4.73165C8.15455 4.7027 8.13465 4.67731 8.1097 4.65756C8.08474 4.63781 8.05546 4.62426 8.02425 4.61804C7.99304 4.61182 7.9608 4.61311 7.93018 4.62178C7.89956 4.63046 7.87144 4.64628 7.84813 4.66795C7.47921 5.00731 6.91159 5.00731 6.54304 4.66795C6.51968 4.6463 6.4915 4.6305 6.46084 4.62185C6.43018 4.6132 6.3979 4.61195 6.36666 4.61821C6.33542 4.62446 6.30611 4.63804 6.28114 4.65783C6.25617 4.67762 6.23626 4.70305 6.22303 4.73203C6.12101 4.95097 5.9406 5.12368 5.71743 5.21607C5.49427 5.30845 5.24457 5.31379 5.01766 5.23102C4.98777 5.2199 4.95568 5.21604 4.92401 5.21973C4.89234 5.22342 4.86199 5.23456 4.83547 5.25225C4.80894 5.26993 4.78698 5.29366 4.77139 5.32147C4.7558 5.34928 4.74703 5.3804 4.74579 5.41226C4.73553 5.65409 4.63476 5.88324 4.46346 6.05425C4.29217 6.22527 4.06286 6.32566 3.821 6.33553C3.78921 6.33672 3.75814 6.34544 3.73037 6.36096C3.70259 6.37649 3.67888 6.39837 3.6612 6.42483C3.64351 6.45128 3.63235 6.48155 3.62862 6.51315C3.6249 6.54475 3.62872 6.57679 3.63976 6.60663C3.7228 6.83362 3.71756 7.08352 3.62507 7.30683C3.53259 7.53014 3.35961 7.71057 3.1404 7.81238C3.11151 7.82571 3.08618 7.84569 3.06648 7.87068C3.04678 7.89567 3.03327 7.92496 3.02706 7.95617C3.02085 7.98738 3.02211 8.01961 3.03074 8.05024C3.03936 8.08087 3.05511 8.10902 3.0767 8.1324C3.24034 8.31024 3.33116 8.54309 3.33116 8.78476C3.33116 9.02642 3.24034 9.25927 3.0767 9.43711C3.05505 9.46052 3.03925 9.48872 3.03061 9.51941C3.02196 9.5501 3.02071 9.5824 3.02696 9.61367C3.03322 9.64493 3.04679 9.67427 3.06658 9.69927C3.08636 9.72428 3.11179 9.74423 3.14078 9.75751C3.35986 9.85946 3.5327 10.0399 3.6251 10.2632C3.7175 10.4865 3.72274 10.7363 3.63976 10.9633C3.62873 10.9931 3.62492 11.0252 3.62864 11.0568C3.63237 11.0884 3.64353 11.1187 3.66121 11.1452C3.67889 11.1717 3.70258 11.1936 3.73035 11.2091C3.75813 11.2247 3.78919 11.2335 3.821 11.2347C4.06316 11.2445 4.29279 11.345 4.46416 11.5164C4.63553 11.6877 4.73608 11.9174 4.74579 12.1595C4.74703 12.1914 4.7558 12.2225 4.77139 12.2503C4.78698 12.2781 4.80894 12.3019 4.83547 12.3195C4.86199 12.3372 4.89234 12.3484 4.92401 12.3521C4.95568 12.3558 4.98777 12.3519 5.01766 12.3408C5.24468 12.2582 5.4944 12.2637 5.71759 12.3561C5.94079 12.4485 6.12125 12.6212 6.22341 12.8401C6.23613 12.8693 6.25581 12.895 6.28073 12.9148C6.30564 12.9346 6.33504 12.948 6.36635 12.9539C6.39763 12.9604 6.43002 12.9593 6.46078 12.9507C6.49154 12.942 6.51976 12.9261 6.54304 12.9042C6.72099 12.7406 6.95388 12.6499 7.19559 12.6499C7.4373 12.6499 7.67019 12.7406 7.84813 12.9042C7.87144 12.9261 7.89966 12.942 7.93041 12.9506C7.96117 12.9593 7.99355 12.9604 8.02483 12.9539C8.05618 12.948 8.08563 12.9346 8.11061 12.9148C8.13559 12.895 8.15534 12.8693 8.16815 12.8401C8.2701 12.6211 8.4505 12.4484 8.67369 12.356C8.89688 12.2636 9.14662 12.2583 9.37352 12.3411C9.40341 12.3523 9.4355 12.3561 9.46717 12.3524C9.49884 12.3487 9.52918 12.3376 9.55571 12.3199C9.58224 12.3022 9.6042 12.2785 9.61979 12.2507C9.63538 12.2229 9.64415 12.1918 9.64538 12.1599C9.65509 11.9177 9.75562 11.688 9.92697 11.5165C10.0983 11.345 10.3279 11.2443 10.5702 11.2344C10.602 11.2332 10.633 11.2244 10.6608 11.2089C10.6886 11.1934 10.7123 11.1715 10.73 11.1451C10.7477 11.1186 10.7588 11.0883 10.7626 11.0567C10.7663 11.0251 10.7625 10.9931 10.7514 10.9633C10.6682 10.7365 10.6732 10.4868 10.7653 10.2635C10.8575 10.0402 11.03 9.85966 11.2489 9.75751ZM7.08411 16.8582L7.19559 16.9696V13.4055C7.14478 13.4055 7.09587 13.4244 7.05871 13.4589C6.94794 13.5629 6.81378 13.6388 6.66755 13.6801C6.52132 13.7214 6.3673 13.727 6.21848 13.6963C6.06979 13.6673 5.93022 13.603 5.81147 13.5089C5.69272 13.4149 5.59825 13.2937 5.53598 13.1556C5.51455 13.1095 5.47657 13.0731 5.42958 13.0538C5.38258 13.0344 5.33001 13.0334 5.28231 13.0509C5.16705 13.0919 5.04496 13.1101 4.92249 13.1052V16.9696L5.79191 16.1002C5.86302 16.0291 5.95944 15.9892 6.05999 15.9892C6.16053 15.9892 6.25695 16.0291 6.32806 16.1002L7.08411 16.8582ZM7.19559 20.7613L8.06502 19.8919C8.13612 19.8208 8.23255 19.7809 8.33309 19.7809C8.43363 19.7809 8.53006 19.8208 8.60116 19.8919L9.47059 20.7613V13.1044C9.34812 13.1093 9.22603 13.0911 9.11076 13.0502C9.06317 13.0325 9.01066 13.0334 8.96371 13.0527C8.91676 13.0721 8.87882 13.1084 8.85748 13.1545C8.79503 13.2929 8.70023 13.4143 8.58106 13.5085C8.46189 13.6027 8.32184 13.6668 8.1727 13.6955C8.10066 13.7099 8.02748 13.716 7.95392 13.7141V17.8849C7.95391 17.9599 7.93166 18.0332 7.89 18.0956C7.84833 18.1579 7.78912 18.2065 7.71985 18.2352C7.65057 18.2639 7.57435 18.2714 7.50081 18.2568C7.42727 18.2421 7.35971 18.206 7.30668 18.153L7.19559 18.0419V20.7613ZM1.50809 17.8849C1.50809 18.1866 1.62793 18.476 1.84126 18.6893C2.05458 18.9026 2.34391 19.0224 2.64559 19.0224H6.43726V17.2836L6.05809 16.9044L4.80949 18.153C4.75647 18.206 4.68891 18.2421 4.61537 18.2568C4.54183 18.2714 4.46561 18.2639 4.39633 18.2352C4.32706 18.2065 4.26785 18.1579 4.22618 18.0956C4.18452 18.0332 4.16227 17.9599 4.16226 17.8849V12.693C4.05609 12.5444 3.9958 12.3684 3.98822 12.1861C3.98598 12.1353 3.9648 12.0873 3.92886 12.0514C3.89292 12.0155 3.84482 11.9944 3.79408 11.9923C3.64255 11.9865 3.49455 11.9448 3.36222 11.8707C3.22988 11.7967 3.11697 11.6923 3.03274 11.5662C2.94851 11.4401 2.89535 11.2958 2.87762 11.1452C2.85988 10.9946 2.87808 10.842 2.93072 10.6997C2.94818 10.6521 2.94711 10.5997 2.92773 10.5529C2.90834 10.506 2.87206 10.4682 2.82607 10.4468C2.68821 10.3835 2.56731 10.2884 2.47331 10.1693C2.3793 10.0502 2.31486 9.91054 2.28526 9.76173C2.25566 9.61293 2.26175 9.45923 2.30303 9.31323C2.34431 9.16723 2.4196 9.0331 2.52274 8.92182C2.55711 8.88445 2.57619 8.83553 2.57619 8.78476C2.57619 8.73398 2.55711 8.68506 2.52274 8.64769C2.4196 8.53645 2.34431 8.40234 2.30302 8.25637C2.26174 8.1104 2.25565 7.95673 2.28525 7.80795C2.31485 7.65917 2.3793 7.51953 2.47331 7.40047C2.56732 7.28142 2.68821 7.18635 2.82607 7.12306C2.87219 7.10185 2.90861 7.06403 2.92808 7.01716C2.94755 6.97028 2.94863 6.91779 2.9311 6.87015C2.87846 6.72793 2.86026 6.57526 2.878 6.42465C2.89573 6.27404 2.94889 6.12978 3.03312 6.00367C3.11735 5.87756 3.23026 5.7732 3.36259 5.69914C3.49493 5.62508 3.64293 5.58342 3.79446 5.57757C3.8452 5.57544 3.8933 5.55435 3.92924 5.51848C3.96518 5.4826 3.98636 5.43455 3.9886 5.38382C3.99426 5.23223 4.03579 5.08415 4.10976 4.95171C4.18373 4.81927 4.28804 4.70626 4.41413 4.62193C4.54023 4.53761 4.68452 4.48438 4.83517 4.46661C4.98582 4.44884 5.13854 4.46703 5.2808 4.5197C5.32837 4.53766 5.38099 4.53689 5.42801 4.51753C5.47503 4.49817 5.51294 4.46168 5.53408 4.41543C5.59742 4.27756 5.69253 4.15667 5.81162 4.06266C5.9307 3.96865 6.07038 3.90421 6.21918 3.87461C6.36799 3.84501 6.52169 3.8511 6.66768 3.89238C6.81368 3.93366 6.94781 4.00896 7.05909 4.11209C7.0964 4.14644 7.14526 4.16551 7.19597 4.16551C7.24668 4.16551 7.29554 4.14644 7.33285 4.11209C7.44409 4.00896 7.57819 3.93366 7.72416 3.89238C7.87013 3.8511 8.02381 3.845 8.17259 3.8746C8.32137 3.90421 8.46101 3.96865 8.58006 4.06266C8.69911 4.15667 8.79419 4.27757 8.85748 4.41543C8.87869 4.46171 8.91665 4.49824 8.96372 4.51766C9.01079 4.53708 9.06346 4.53794 9.11114 4.52008C9.2534 4.46741 9.40611 4.44921 9.55676 4.46699C9.70741 4.48476 9.8517 4.53799 9.9778 4.62231C10.1039 4.70664 10.2082 4.81965 10.2822 4.95209C10.3562 5.08452 10.3977 5.23261 10.4033 5.3842C10.4056 5.43493 10.4268 5.48298 10.4627 5.51886C10.4986 5.55473 10.5467 5.57582 10.5975 5.57795C10.749 5.5838 10.897 5.62546 11.0293 5.69952C11.1617 5.77358 11.2746 5.87794 11.3588 6.00405C11.443 6.13015 11.4962 6.27442 11.5139 6.42503C11.5317 6.57564 11.5135 6.72831 11.4608 6.87053C11.4434 6.91813 11.4444 6.97055 11.4638 7.0174C11.4832 7.06424 11.5195 7.10209 11.5655 7.12344C11.7034 7.18677 11.8242 7.28189 11.9183 7.40097C12.0123 7.52006 12.0767 7.65973 12.1063 7.80854C12.1359 7.95734 12.1298 8.11104 12.0885 8.25704C12.0472 8.40304 11.972 8.53717 11.8688 8.64844C11.8344 8.68582 11.8154 8.73474 11.8154 8.78551C11.8154 8.83629 11.8344 8.88521 11.8688 8.92258C11.972 9.03382 12.0473 9.16793 12.0885 9.3139C12.1298 9.45987 12.1359 9.61354 12.1063 9.76232C12.0767 9.9111 12.0123 10.0507 11.9183 10.1698C11.8242 10.2888 11.7033 10.3839 11.5655 10.4472C11.5194 10.4684 11.4829 10.5062 11.4635 10.5531C11.444 10.6 11.4429 10.6525 11.4605 10.7001C11.5131 10.8423 11.5313 10.995 11.5136 11.1456C11.4958 11.2962 11.4427 11.4405 11.3584 11.5666C11.2742 11.6927 11.1613 11.7971 11.029 11.8711C10.8966 11.9452 10.7486 11.9869 10.5971 11.9927C10.4921 11.9972 10.4075 12.0814 10.403 12.1865C10.3954 12.3685 10.3347 12.5444 10.2289 12.693V19.0224H21.6039C21.9056 19.0224 22.1949 18.9026 22.4083 18.6893C22.6216 18.476 22.7414 18.1866 22.7414 17.8849V4.23494C22.7414 3.93326 22.6216 3.64393 22.4083 3.43061C22.1949 3.21729 21.9056 3.09744 21.6039 3.09744H2.64559C2.34391 3.09744 2.05458 3.21729 1.84126 3.43061C1.62793 3.64393 1.50809 3.93326 1.50809 4.23494V17.8849Z" fill="white"/>
<path d="M19.328 15.9903C19.6297 15.9903 19.9191 15.8705 20.1324 15.6572C20.3457 15.4438 20.4655 15.1545 20.4655 14.8528V7.26949C20.4655 6.96781 20.3457 6.67848 20.1324 6.46516C19.9191 6.25183 19.6297 6.13199 19.328 6.13199H12.503C12.4025 6.13199 12.306 6.09204 12.2349 6.02094C12.1638 5.94983 12.1239 5.85339 12.1239 5.75282C12.1239 5.65226 12.1638 5.55582 12.2349 5.48471C12.306 5.41361 12.4025 5.37366 12.503 5.37366H19.328C19.8307 5.37426 20.3125 5.57419 20.6679 5.9296C21.0233 6.28501 21.2233 6.76687 21.2239 7.26949V14.8528C21.2233 15.3554 21.0233 15.8373 20.6679 16.1927C20.3125 16.5481 19.8307 16.7481 19.328 16.7487H12.1239C12.0233 16.7487 11.9269 16.7087 11.8558 16.6376C11.7847 16.5665 11.7447 16.4701 11.7447 16.3695C11.7447 16.2689 11.7847 16.1725 11.8558 16.1014C11.9269 16.0303 12.0233 15.9903 12.1239 15.9903H19.328Z" fill="white"/>
<path d="M18.95 11.4377H13.6416C13.5411 11.4377 13.4446 11.3978 13.3735 11.3267C13.3024 11.2556 13.2625 11.1591 13.2625 11.0586C13.2625 10.958 13.3024 10.8616 13.3735 10.7905C13.4446 10.7194 13.5411 10.6794 13.6416 10.6794H18.95C19.0505 10.6794 19.147 10.7194 19.2181 10.7905C19.2892 10.8616 19.3291 10.958 19.3291 11.0586C19.3291 11.1591 19.2892 11.2556 19.2181 11.3267C19.147 11.3978 19.0505 11.4377 18.95 11.4377ZM18.95 9.92108H13.6416C13.5411 9.92108 13.4446 9.88113 13.3735 9.81002C13.3024 9.73892 13.2625 9.64247 13.2625 9.54191C13.2625 9.44135 13.3024 9.34491 13.3735 9.2738C13.4446 9.20269 13.5411 9.16275 13.6416 9.16275H18.95C19.0505 9.16275 19.147 9.20269 19.2181 9.2738C19.2892 9.34491 19.3291 9.44135 19.3291 9.54191C19.3291 9.64247 19.2892 9.73892 19.2181 9.81002C19.147 9.88113 19.0505 9.92108 18.95 9.92108ZM18.95 8.40441H13.6416C13.5411 8.40441 13.4446 8.36446 13.3735 8.29336C13.3024 8.22225 13.2625 8.12581 13.2625 8.02525C13.2625 7.92468 13.3024 7.82824 13.3735 7.75713C13.4446 7.68603 13.5411 7.64608 13.6416 7.64608H18.95C19.0505 7.64608 19.147 7.68603 19.2181 7.75713C19.2892 7.82824 19.3291 7.92468 19.3291 8.02525C19.3291 8.12581 19.2892 8.22225 19.2181 8.29336C19.147 8.36446 19.0505 8.40441 18.95 8.40441ZM19.2977 15.0019C19.2778 15.0476 19.249 15.0889 19.2132 15.1235C19.1773 15.158 19.135 15.1852 19.0886 15.2034C19.0422 15.2216 18.9927 15.2305 18.9429 15.2296C18.8931 15.2286 18.8439 15.2179 18.7983 15.1979C18.4473 15.0675 18.1246 14.8707 17.8481 14.6182C17.7454 14.5157 17.6557 14.4011 17.5808 14.2769C17.4359 14.44 17.2661 14.578 17.0769 14.6864C16.8134 14.8586 16.4854 14.9007 16.187 14.8002C16.0725 14.7558 15.9689 14.6872 15.8836 14.5992C15.7119 14.7065 15.523 14.7828 15.3251 14.8248L15.0385 14.8927C14.4534 15.0641 13.8456 15.1445 13.2359 15.1316C13.1862 15.128 13.1378 15.1147 13.0933 15.0924C13.0487 15.07 13.0091 15.0392 12.9765 15.0015C12.9439 14.9639 12.919 14.9201 12.9033 14.8729C12.8876 14.8256 12.8814 14.7757 12.885 14.7261C12.8886 14.6764 12.9019 14.6279 12.9242 14.5834C12.9466 14.5389 12.9774 14.4992 13.0151 14.4666C13.0527 14.434 13.0964 14.4092 13.1437 14.3935C13.191 14.3778 13.2408 14.3716 13.2905 14.3752C13.8225 14.382 14.3522 14.308 14.8618 14.1552L15.1549 14.0858C15.5086 14.0043 15.5996 13.8618 15.6372 13.7613C15.6691 13.6759 15.7308 13.605 15.8108 13.5613C15.8908 13.5177 15.9839 13.5044 16.0729 13.5238C16.162 13.5432 16.241 13.594 16.2957 13.6669C16.3503 13.7398 16.3769 13.83 16.3705 13.9209C16.3684 13.9543 16.3751 13.9877 16.39 14.0177C16.4048 14.0477 16.4272 14.0733 16.455 14.0919C16.5436 14.1032 16.6332 14.0801 16.7053 14.0275C17.0119 13.8365 17.2425 13.5448 17.3575 13.2024C17.389 13.1171 17.4502 13.046 17.5298 13.002C17.6095 12.9581 17.7022 12.9442 17.7913 12.9629C17.8803 12.9817 17.9596 13.0318 18.0147 13.1042C18.0698 13.1765 18.0971 13.2663 18.0915 13.3571C18.0884 13.4913 18.1128 13.6247 18.1633 13.7491C18.2137 13.8734 18.2892 13.9861 18.385 14.0802C18.5955 14.2643 18.8386 14.4075 19.1016 14.5026C19.1473 14.5224 19.1886 14.5512 19.2232 14.587C19.2578 14.6229 19.2849 14.6652 19.3031 14.7116C19.3213 14.758 19.3302 14.8075 19.3293 14.8573C19.3283 14.9071 19.3176 14.9563 19.2977 15.0019ZM7.19579 11.8169C6.59585 11.8169 6.00939 11.639 5.51056 11.3057C5.01173 10.9724 4.62294 10.4987 4.39335 9.94439C4.16377 9.39012 4.1037 8.78021 4.22074 8.19181C4.33778 7.6034 4.62668 7.06291 5.0509 6.63869C5.47512 6.21447 6.01561 5.92557 6.60402 5.80853C7.19242 5.69149 7.80233 5.75156 8.3566 5.98114C8.91086 6.21073 9.38461 6.59952 9.71791 7.09835C10.0512 7.59718 10.2291 8.18364 10.2291 8.78358C10.2282 9.58779 9.90835 10.3588 9.33968 10.9275C8.77102 11.4961 8 11.816 7.19579 11.8169ZM7.19579 6.50858C6.89703 6.50858 6.6012 6.56742 6.32518 6.68175C6.04917 6.79608 5.79837 6.96366 5.58712 7.17491C5.37587 7.38616 5.20829 7.63696 5.09396 7.91297C4.97963 8.18899 4.92079 8.48482 4.92079 8.78358C4.92079 9.08234 4.97963 9.37817 5.09396 9.65418C5.20829 9.9302 5.37587 10.181 5.58712 10.3922C5.79837 10.6035 6.04917 10.7711 6.32518 10.8854C6.6012 10.9997 6.89703 11.0586 7.19579 11.0586C7.79916 11.0586 8.37781 10.8189 8.80446 10.3922C9.2311 9.9656 9.47079 9.38695 9.47079 8.78358C9.47079 8.18021 9.2311 7.60156 8.80446 7.17491C8.37781 6.74827 7.79916 6.50858 7.19579 6.50858Z" fill="white"/>
</g>
<defs>
<clipPath id="clip0_3354_226500">
<rect width="22.75" height="21.8021" fill="white" transform="matrix(-1 0 0 1 23.5 0.530273)"/>
</clipPath>
</defs>
</svg>
