<svg width="17" height="17" viewBox="0 0 17 17" fill="none" xmlns="http://www.w3.org/2000/svg">
<path d="M2.74132 9.31365H5.80038C6.93991 9.31365 7.86616 10.2399 7.86616 11.3794V14.4385C7.86616 15.578 6.93991 16.5043 5.80038 16.5043H2.74132C1.60179 16.5043 0.675537 15.578 0.675537 14.4385V11.3794C0.675537 10.2399 1.60179 9.31365 2.74132 9.31365ZM1.89429 14.4385C1.89588 14.6626 1.98564 14.8772 2.14414 15.0357C2.30264 15.1942 2.51716 15.2839 2.74132 15.2855H5.80038C6.02453 15.2839 6.23905 15.1942 6.39756 15.0357C6.55606 14.8772 6.64582 14.6626 6.64741 14.4385V11.3794C6.64741 10.9102 6.26351 10.5324 5.80038 10.5324H2.74132C2.27819 10.5324 1.89429 10.9102 1.89429 11.3794V14.4385ZM2.74132 0.355835H5.80038C6.93991 0.355835 7.86616 1.28208 7.86616 2.42162V5.48068C7.86616 6.62021 6.93991 7.54646 5.80038 7.54646H2.74132C1.60179 7.54646 0.675537 6.62021 0.675537 5.48068V2.42162C0.675537 1.28208 1.60179 0.355835 2.74132 0.355835ZM1.89429 5.48068C1.89429 5.9499 2.27819 6.32771 2.74132 6.32771H5.80038C6.26351 6.32771 6.64741 5.9499 6.64741 5.48068V2.42162C6.64741 1.95849 6.26351 1.57458 5.80038 1.57458H2.74132C2.27819 1.57458 1.89429 1.95849 1.89429 2.42162V5.48068ZM11.6991 9.31365H14.7582C15.8977 9.31365 16.824 10.2399 16.824 11.3794V14.4385C16.824 15.578 15.8977 16.5043 14.7582 16.5043H11.6991C10.5596 16.5043 9.63335 15.578 9.63335 14.4385V11.3794C9.63335 10.2399 10.5596 9.31365 11.6991 9.31365ZM10.8521 14.4385C10.8521 14.9016 11.2299 15.2855 11.6991 15.2855H14.7582C14.9823 15.2839 15.1969 15.1942 15.3554 15.0357C15.5139 14.8772 15.6036 14.6626 15.6052 14.4385V11.3794C15.6052 10.9102 15.2213 10.5324 14.7582 10.5324H11.6991C11.2299 10.5324 10.8521 10.9102 10.8521 11.3794V14.4385ZM11.6991 0.355835H14.7582C15.8977 0.355835 16.824 1.28208 16.824 2.42162V5.48068C16.824 6.62021 15.8977 7.54646 14.7582 7.54646H11.6991C10.5596 7.54646 9.63335 6.62021 9.63335 5.48068V2.42162C9.63335 1.28208 10.5596 0.355835 11.6991 0.355835ZM10.8521 5.48068C10.8521 5.9499 11.2299 6.32771 11.6991 6.32771H14.7582C15.2213 6.32771 15.6052 5.9499 15.6052 5.48068V2.42162C15.6052 1.95849 15.2213 1.57458 14.7582 1.57458H11.6991C11.2299 1.57458 10.8521 1.95849 10.8521 2.42162V5.48068Z" fill="white"/>
</svg>
