<svg width="20" height="21" viewBox="0 0 20 21" fill="none" xmlns="http://www.w3.org/2000/svg">
<path d="M11.9839 7.18413H18.0777C18.8617 7.18413 19.4995 6.54635 19.4995 5.76216V2.10591C19.4995 1.32187 18.8617 0.684082 18.0777 0.684082H11.9839C11.1997 0.684082 10.562 1.32187 10.562 2.10591V5.76216C10.562 6.54635 11.1997 7.18413 11.9839 7.18413ZM18.0777 1.90283C18.1315 1.90287 18.1832 1.92428 18.2212 1.96236C18.2593 2.00043 18.2807 2.05206 18.2808 2.10591V5.76216C18.2808 5.81603 18.2594 5.86769 18.2213 5.90579C18.1832 5.9439 18.1316 5.96533 18.0777 5.96538H11.9839C11.93 5.96536 11.8784 5.94394 11.8403 5.90584C11.8021 5.86773 11.7807 5.81605 11.7807 5.76216V2.10591C11.7808 2.05204 11.8022 2.00039 11.8403 1.96231C11.8784 1.92424 11.9301 1.90284 11.9839 1.90283H18.0777ZM11.9839 20.1841H18.0777C18.8617 20.1841 19.4995 19.5463 19.4995 18.7623V10.231C19.4995 9.44682 18.8617 8.80903 18.0777 8.80903H11.9839C11.1997 8.80903 10.562 9.44682 10.562 10.231V18.7623C10.562 19.5463 11.1997 20.1841 11.9839 20.1841ZM18.0777 10.0278C18.1316 10.0278 18.1832 10.0493 18.2213 10.0874C18.2594 10.1255 18.2808 10.1771 18.2808 10.231V18.7623C18.2807 18.8161 18.2593 18.8677 18.2212 18.9058C18.1832 18.9439 18.1315 18.9653 18.0777 18.9653H11.9839C11.9301 18.9653 11.8784 18.9439 11.8403 18.9059C11.8022 18.8678 11.7808 18.8161 11.7807 18.7623V10.231C11.7807 10.1771 11.8021 10.1254 11.8403 10.0873C11.8784 10.0492 11.93 10.0278 11.9839 10.0278H18.0777ZM1.42134 20.1841H7.51509C8.29928 20.1841 8.93706 19.5463 8.93706 18.7623V15.106C8.93706 14.3218 8.29928 13.684 7.51509 13.684H1.42134C0.637299 13.684 -0.000488281 14.3218 -0.000488281 15.106V18.7623C-0.000488281 19.5463 0.637299 20.1841 1.42134 20.1841ZM7.51509 14.9028C7.56898 14.9028 7.62066 14.9242 7.65877 14.9623C7.69687 15.0004 7.71829 15.0521 7.71831 15.106V18.7623C7.71826 18.8161 7.69683 18.8678 7.65872 18.9059C7.62062 18.9439 7.56896 18.9653 7.51509 18.9653H1.42134C1.36749 18.9653 1.31586 18.9439 1.27778 18.9058C1.23971 18.8677 1.2183 18.8161 1.21826 18.7623V15.106C1.21827 15.0521 1.23967 15.0005 1.27774 14.9624C1.31582 14.9243 1.36747 14.9028 1.42134 14.9028H7.51509ZM1.42134 12.0591H7.51509C8.29928 12.0591 8.93706 11.4213 8.93706 10.6372V2.10591C8.93706 1.32187 8.29928 0.684082 7.51509 0.684082H1.42134C0.637299 0.684082 -0.000488281 1.32187 -0.000488281 2.10591V10.6372C-0.000488281 11.4213 0.637299 12.0591 1.42134 12.0591ZM7.51509 1.90283C7.56896 1.90284 7.62062 1.92424 7.65872 1.96231C7.69683 2.00039 7.71826 2.05204 7.71831 2.10591V10.6372C7.71829 10.691 7.69687 10.7427 7.65877 10.7808C7.62066 10.8189 7.56898 10.8404 7.51509 10.8404H1.42134C1.36747 10.8403 1.31582 10.8189 1.27774 10.7808C1.23967 10.7427 1.21827 10.691 1.21826 10.6372V2.10591C1.2183 2.05206 1.23971 2.00043 1.27778 1.96236C1.31586 1.92428 1.36749 1.90287 1.42134 1.90283H7.51509Z" fill="white"/>
</svg>
