<svg width="21" height="20" viewBox="0 0 21 20" fill="none" xmlns="http://www.w3.org/2000/svg">
<g id="svgexport-17-_48_ 1" clip-path="url(#clip0_672_12610)">
<g id="Group">
<path id="Vector" d="M18.1347 3.90872C18.9269 4.01155 19.62 4.50286 19.9666 5.20364C20.2447 5.77112 20.237 5.59592 20.237 9.96057C20.237 14.329 20.2447 14.15 19.9666 14.7213C19.6734 15.3116 19.1021 15.7763 18.428 15.9667C18.2299 16.02 17.9366 16.0315 16.3142 16.0467C14.3223 16.0619 13.9224 16.0391 13.5073 15.8982C13.1035 15.7649 12.8293 15.5516 12.0105 14.7366C11.0964 13.8301 10.9745 13.7539 10.487 13.7539C9.99954 13.7539 9.88909 13.8263 8.92933 14.7708C8.03812 15.6468 7.85911 15.7763 7.35257 15.9363L7.04026 16.0353H4.92649C3.02982 16.0353 2.78607 16.0277 2.56517 15.9667C1.67396 15.7268 0.976983 15.007 0.794171 14.131C0.710382 13.7349 0.710382 6.18626 0.794171 5.79016C0.976983 4.92561 1.65491 4.2134 2.54612 3.95442C2.75941 3.88967 3.25833 3.88587 10.3347 3.88206C14.4937 3.87825 18.0052 3.88967 18.1347 3.90872ZM2.94222 5.04749C2.51566 5.13128 2.17669 5.38645 2.00149 5.7635L1.89866 5.98059V9.96057V13.9406L1.99769 14.15C2.1805 14.5347 2.51566 14.7937 2.94222 14.8737C3.21263 14.9232 6.60228 14.9232 6.87269 14.8737C7.25735 14.8013 7.38304 14.7061 8.25901 13.8453C9.15403 12.9694 9.33685 12.8361 9.85862 12.6799C10.1709 12.5885 10.8032 12.5885 11.1155 12.6799C11.6372 12.8361 11.82 12.9694 12.7151 13.8453C13.5987 14.7137 13.7205 14.8013 14.1166 14.8775C14.2575 14.9003 15.0078 14.9117 16.2114 14.9041C17.8681 14.8927 18.1042 14.8851 18.249 14.828C18.4927 14.7289 18.7403 14.5385 18.8698 14.3443C19.1059 13.9863 19.0983 14.1615 19.0868 9.88059L19.0754 5.98059L18.9726 5.7635C18.8012 5.39788 18.4584 5.12747 18.0623 5.0513C17.8148 5.00178 3.19739 5.00178 2.94222 5.04749Z" fill="white"/>
<path id="Vector_2" d="M15.3176 7.61696C15.9727 7.76168 16.6278 8.27965 16.9172 8.89284C17.1077 9.29655 17.1648 9.54791 17.1648 9.95924C17.1648 10.3706 17.1077 10.6219 16.9172 11.0218C16.6202 11.6464 15.9727 12.1606 15.3024 12.3015C14.4683 12.4767 13.6952 12.252 13.0934 11.6541C12.5983 11.1589 12.3812 10.6448 12.3812 9.95924C12.3812 9.2737 12.5945 8.75954 13.0972 8.26061C13.3333 8.02448 13.4781 7.91784 13.699 7.8112C14.1979 7.57125 14.7806 7.5027 15.3176 7.61696ZM14.255 8.80905C13.9732 8.94616 13.779 9.14039 13.6418 9.41461C13.5352 9.63551 13.5162 9.70788 13.5162 9.95924C13.5162 10.2106 13.5352 10.283 13.6418 10.5039C13.779 10.7781 13.9732 10.9723 14.255 11.1094C14.5064 11.2351 15.0396 11.2351 15.291 11.1094C16.0413 10.74 16.2622 9.82975 15.7594 9.17086C15.6414 9.01471 15.3595 8.82047 15.1577 8.75573C14.9292 8.67956 14.4645 8.70622 14.255 8.80905Z" fill="white"/>
<path id="Vector_3" d="M6.74853 7.61696C7.16748 7.70836 7.53691 7.92164 7.8835 8.26442C8.37861 8.75954 8.5957 9.2737 8.5957 9.95924C8.5957 10.6448 8.37861 11.1589 7.8835 11.6541C7.28174 12.252 6.50859 12.4767 5.67451 12.3015C5.0042 12.1606 4.35674 11.6464 4.05967 11.0218C3.86924 10.6219 3.81211 10.3706 3.81211 9.95924C3.81211 9.54791 3.86924 9.29655 4.05967 8.89664C4.35674 8.27204 5.0042 7.75788 5.67451 7.61696C5.99824 7.5484 6.42861 7.5484 6.74853 7.61696ZM5.68594 8.80905C5.40791 8.94235 5.20986 9.14039 5.07656 9.41081C4.96992 9.62789 4.95088 9.70026 4.95088 9.95924C4.95088 10.2182 4.96992 10.2906 5.07656 10.5077C5.20986 10.7781 5.4041 10.9723 5.68594 11.1094C5.9373 11.2351 6.47051 11.2351 6.72187 11.1094C7.11797 10.9152 7.40361 10.5267 7.46074 10.1078C7.53691 9.56315 7.13701 8.93473 6.60381 8.75954C6.35625 8.67956 5.90303 8.70241 5.68594 8.80905Z" fill="white"/>
</g>
</g>
<defs>
<clipPath id="clip0_672_12610">
<rect width="19.5" height="19.5" fill="white" transform="matrix(-1 0 0 1 20.2375 0.210938)"/>
</clipPath>
</defs>
</svg>
