<svg width="20" height="21" viewBox="0 0 20 21" fill="none" xmlns="http://www.w3.org/2000/svg">
<g clip-path="url(#clip0_3354_230371)">
<path d="M2.43726 7.38416V5.55603C2.43726 5.07118 2.62986 4.60619 2.9727 4.26335C3.31554 3.92051 3.78053 3.72791 4.26538 3.72791V3.11853C4.26538 2.63368 4.45799 2.16869 4.80083 1.82585C5.14367 1.48301 5.60866 1.29041 6.09351 1.29041H13.406C13.8909 1.29041 14.3558 1.48301 14.6987 1.82585C15.0415 2.16869 15.2341 2.63368 15.2341 3.11853V3.72791C15.719 3.72791 16.184 3.92051 16.5268 4.26335C16.8697 4.60619 17.0623 5.07118 17.0623 5.55603V7.38416C17.5471 7.38416 18.0121 7.57676 18.3549 7.9196C18.6978 8.26244 18.8904 8.72743 18.8904 9.21228V17.7435C18.8904 18.2284 18.6978 18.6934 18.3549 19.0362C18.0121 19.379 17.5471 19.5717 17.0623 19.5717H2.43726C1.95241 19.5717 1.48742 19.379 1.14458 19.0362C0.801737 18.6934 0.609131 18.2284 0.609131 17.7435V9.21228C0.609131 8.72743 0.801737 8.26244 1.14458 7.9196C1.48742 7.57676 1.95241 7.38416 2.43726 7.38416ZM14.0154 3.11853C14.0154 2.95691 13.9512 2.80192 13.8369 2.68764C13.7226 2.57336 13.5676 2.50916 13.406 2.50916H6.09351C5.93189 2.50916 5.77689 2.57336 5.66261 2.68764C5.54833 2.80192 5.48413 2.95691 5.48413 3.11853V3.72791H14.0154V3.11853ZM15.8435 5.55603C15.8435 5.39441 15.7793 5.23942 15.665 5.12514C15.5507 5.01086 15.3957 4.94666 15.2341 4.94666H4.26538C4.10376 4.94666 3.94877 5.01086 3.83449 5.12514C3.72021 5.23942 3.65601 5.39441 3.65601 5.55603V7.38416H15.8435V5.55603ZM1.82788 17.7435C1.82788 17.9051 1.89208 18.0601 2.00636 18.1744C2.12064 18.2887 2.27564 18.3529 2.43726 18.3529H17.0623C17.2239 18.3529 17.3789 18.2887 17.4931 18.1744C17.6074 18.0601 17.6716 17.9051 17.6716 17.7435V9.21228C17.6716 9.05066 17.6074 8.89567 17.4931 8.78139C17.3789 8.66711 17.2239 8.60291 17.0623 8.60291H2.43726C2.27564 8.60291 2.12064 8.66711 2.00636 8.78139C1.89208 8.89567 1.82788 9.05066 1.82788 9.21228V17.7435Z" fill="white"/>
<path d="M6.70214 12.3816L10.206 10.1878C10.4026 10.0663 10.628 9.99949 10.859 9.99423C11.09 9.98897 11.3182 10.0455 11.5201 10.1579C11.7219 10.2703 11.8901 10.4346 12.0073 10.6337C12.1245 10.8329 12.1863 11.0597 12.1865 11.2908V15.6661C12.1873 15.8972 12.1261 16.1242 12.0092 16.3236C11.8924 16.5229 11.7243 16.6873 11.5223 16.7995C11.3201 16.9123 11.0915 16.9689 10.86 16.9636C10.6286 16.9582 10.4028 16.8911 10.206 16.7691L6.70214 14.5753C6.51573 14.4593 6.36196 14.2978 6.25534 14.1058C6.14872 13.9139 6.09277 13.698 6.09277 13.4784C6.09277 13.2589 6.14872 13.043 6.25534 12.8511C6.36196 12.6591 6.51573 12.4976 6.70214 12.3816ZM7.34808 13.5455L10.852 15.7331C10.8638 15.7393 10.877 15.7424 10.8904 15.7421C10.9037 15.7418 10.9168 15.7381 10.9283 15.7314C10.9399 15.7248 10.9495 15.7153 10.9564 15.7038C10.9633 15.6924 10.9672 15.6794 10.9678 15.6661V11.2908C10.9692 11.2772 10.9665 11.2635 10.96 11.2516C10.9534 11.2396 10.9434 11.2299 10.9312 11.2238C10.9174 11.2191 10.9024 11.2191 10.8885 11.2238H10.852L7.34808 13.4114C7.33675 13.4185 7.32741 13.4284 7.32094 13.4402C7.31447 13.4519 7.31108 13.4651 7.31108 13.4784C7.31108 13.4918 7.31447 13.505 7.32094 13.5167C7.32741 13.5284 7.33675 13.5383 7.34808 13.5455Z" fill="white"/>
</g>
<defs>
<clipPath id="clip0_3354_230371">
<rect width="19.5" height="19.5" fill="white" transform="matrix(-1 0 0 1 19.5 0.681274)"/>
</clipPath>
</defs>
</svg>
