<svg width="20" height="23" viewBox="0 0 20 23" fill="none" xmlns="http://www.w3.org/2000/svg">
<g clip-path="url(#clip0_3354_229783)">
<path d="M0.58231 4.97761L5.11502 0.525803C5.23659 0.406434 5.40017 0.339569 5.57054 0.3396L17.03 0.3396C18.3672 0.3396 19.4553 1.42748 19.4553 2.76492V20.1009C19.4553 21.4382 18.3674 22.5263 17.03 22.5263H2.81315C1.47589 22.5263 0.387831 21.4384 0.387831 20.1009V5.44141C0.387821 5.35505 0.405018 5.26956 0.438417 5.18993C0.471817 5.1103 0.520748 5.03812 0.582354 4.97761H0.58231ZM4.92054 2.53911L2.62725 4.79141H4.71388C4.76868 4.79133 4.8212 4.76952 4.85994 4.73077C4.89868 4.69203 4.92047 4.6395 4.92054 4.58471V2.53911ZM2.81311 21.2263H17.03C17.6504 21.2263 18.1553 20.7215 18.1553 20.1009V2.76497C18.1553 2.14439 17.6506 1.6396 17.03 1.6396H6.22037V4.58475C6.22037 5.41554 5.54446 6.09145 4.71367 6.09145H1.68779V20.1009C1.68779 20.7214 2.19258 21.2262 2.81315 21.2262L2.81311 21.2263Z" fill="white"/>
<path d="M5.40863 10.653H14.5717C14.9307 10.653 15.2217 10.9439 15.2217 11.303C15.2217 11.662 14.9307 11.953 14.5717 11.953H5.40867C5.04966 11.953 4.75867 11.662 4.75867 11.303C4.75867 10.9439 5.04961 10.653 5.40863 10.653ZM14.5716 14.553H7.10036C6.7413 14.553 6.45036 14.262 6.45036 13.903C6.45036 13.5439 6.7413 13.253 7.10036 13.253H14.5716C14.9307 13.253 15.2216 13.5439 15.2216 13.903C15.2216 14.262 14.9307 14.553 14.5716 14.553ZM6.19899 15.853H14.5716C14.9307 15.853 15.2216 16.1439 15.2216 16.503C15.2216 16.862 14.9307 17.153 14.5716 17.153H6.19899C5.84014 17.153 5.54899 16.862 5.54899 16.503C5.54899 16.1439 5.84014 15.853 6.19899 15.853Z" fill="white"/>
</g>
<defs>
<clipPath id="clip0_3354_229783">
<rect width="19.5" height="22.1867" fill="white" transform="matrix(-1 0 0 1 19.5 0.337891)"/>
</clipPath>
</defs>
</svg>
