<svg width="20" height="21" viewBox="0 0 20 21" fill="none" xmlns="http://www.w3.org/2000/svg">
<g clip-path="url(#clip0_3354_226631)">
<g clip-path="url(#clip1_3354_226631)">
<path d="M6.81174 9.72166C5.56401 8.81168 4.75148 7.33897 4.75148 5.67987C4.75148 2.92287 6.99448 0.679871 9.75148 0.679871C12.5085 0.679871 14.7515 2.92287 14.7515 5.67987C14.7515 7.33897 13.939 8.81168 12.6912 9.72166C15.7929 10.9086 18.0015 13.9159 18.0015 17.4299C18.0015 18.9462 16.7678 20.1799 15.2515 20.1799H4.25149C2.73513 20.1799 1.50149 18.9462 1.50149 17.4299C1.50149 13.9159 3.71002 10.9086 6.81174 9.72166ZM13.2515 5.67987C13.2515 3.74998 11.6814 2.17989 9.75148 2.17989C7.82159 2.17989 6.2515 3.74998 6.2515 5.67987C6.2515 7.60976 7.82159 9.17989 9.75148 9.17989C11.6814 9.17989 13.2515 7.60976 13.2515 5.67987ZM4.25149 18.6799H15.2515C15.9407 18.6799 16.5015 18.1191 16.5015 17.4298C16.5015 13.7079 13.4735 10.6798 9.75144 10.6798C6.02942 10.6798 3.00143 13.7078 3.00143 17.4298C3.00147 18.1191 3.56221 18.6799 4.25149 18.6799Z" fill="white"/>
</g>
</g>
<defs>
<clipPath id="clip0_3354_226631">
<rect width="19.5" height="19.5" fill="white" transform="matrix(-1 0 0 1 19.5 0.681274)"/>
</clipPath>
<clipPath id="clip1_3354_226631">
<rect width="19.5" height="19.5" fill="white" transform="matrix(-1 0 0 1 19.4998 0.68103)"/>
</clipPath>
</defs>
</svg>
