<svg width="18" height="21" viewBox="0 0 18 21" fill="none" xmlns="http://www.w3.org/2000/svg">
<path id="01-Play" d="M15.9705 7.89117L3.62952 0.761166C3.27675 0.552456 2.87501 0.440863 2.46514 0.437729C1.82083 0.437729 1.20291 0.69368 0.747314 1.14928C0.291718 1.60487 0.0357666 2.22279 0.0357666 2.8671V18.1693C0.0358485 18.5969 0.150466 19.0166 0.367701 19.3849C0.584937 19.7531 0.896858 20.0565 1.27103 20.2634C1.64521 20.4703 2.06798 20.5732 2.49539 20.5614C2.92279 20.5495 3.33923 20.4234 3.70139 20.1962L16.0567 12.3905C16.4409 12.1501 16.7562 11.8143 16.972 11.4157C17.1877 11.0172 17.2966 10.5695 17.2879 10.1164C17.2792 9.66331 17.1533 9.22017 16.9224 8.83019C16.6915 8.44021 16.3636 8.11669 15.9705 7.89117Z" fill="white"/>
</svg>
