<svg width="24" height="24" viewBox="0 0 24 24" fill="none" xmlns="http://www.w3.org/2000/svg">
<g id="svgexport-17 - 2023-12-07T131358.333 1">
<g id="Group">
<path id="01-Play" d="M19.3097 9.39092L6.96875 2.26092C6.61598 2.05221 6.21425 1.94062 5.80438 1.93748C5.16006 1.93748 4.54214 2.19344 4.08655 2.64903C3.63095 3.10463 3.375 3.72255 3.375 4.36686V19.669C3.37508 20.0966 3.4897 20.5164 3.70693 20.8846C3.92417 21.2529 4.23609 21.5563 4.61027 21.7631C4.98444 21.97 5.40721 22.0729 5.83462 22.0611C6.26202 22.0493 6.67846 21.9232 7.04063 21.6959L19.3959 13.8903C19.7801 13.6499 20.0954 13.314 20.3112 12.9155C20.527 12.5169 20.6358 12.0693 20.6271 11.6162C20.6185 11.1631 20.4925 10.7199 20.2616 10.3299C20.0308 9.93997 19.7028 9.61645 19.3097 9.39092Z" fill="#52D867"/>
</g>
</g>
</svg>
