<svg width="22" height="23" viewBox="0 0 22 23" fill="none" xmlns="http://www.w3.org/2000/svg">
<path id="Vector" d="M14.1444 0.906281H20.2282C21.1179 0.906281 21.8416 1.65408 21.8416 2.57336V8.85991C21.8416 9.77919 21.1179 10.527 20.2282 10.527H14.1444C13.2548 10.527 12.5311 9.77919 12.5311 8.85991V2.57336C12.5313 1.65408 13.2548 0.906281 14.1444 0.906281ZM2.26472 0.906281H8.34852C9.23816 0.906281 9.96183 1.65408 9.96183 2.57336V8.85991C9.96183 9.77919 9.23816 10.527 8.34852 10.527H2.26472C1.37509 10.527 0.65141 9.77919 0.65141 8.85991V2.57336C0.65141 1.65408 1.37509 0.906281 2.26472 0.906281ZM14.1444 13.1821H20.2282C21.1179 13.1821 21.8416 13.9298 21.8416 14.8491V21.1356C21.8416 22.0549 21.1179 22.8027 20.2282 22.8027H14.1444C13.2548 22.8027 12.5311 22.0549 12.5311 21.1356V14.8491C12.5313 13.9298 13.2548 13.1821 14.1444 13.1821ZM2.26472 13.1821H8.34852C9.23816 13.1821 9.96183 13.9298 9.96183 14.8491V21.1357C9.96183 22.055 9.23816 22.8028 8.34852 22.8028H2.26472C1.37509 22.8027 0.65141 22.0549 0.65141 21.1356V14.8491C0.65141 13.9298 1.37509 13.1821 2.26472 13.1821Z" fill="#122333"/>
</svg>
