<svg width="35" height="35" viewBox="0 0 35 35" fill="none" xmlns="http://www.w3.org/2000/svg">
<g clip-path="url(#clip0_56_19388)">
<g clip-path="url(#clip1_56_19388)">
<path d="M12.2087 16.0517C10.0044 14.4441 8.56893 11.8423 8.56893 8.91132C8.56893 4.04069 12.5315 0.078125 17.4021 0.078125C22.2728 0.078125 26.2353 4.04069 26.2353 8.91132C26.2353 11.8423 24.7999 14.4441 22.5956 16.0517C28.0752 18.1486 31.9769 23.4614 31.9769 29.6693C31.9769 32.3482 29.7975 34.5276 27.1186 34.5276H7.68563C5.00678 34.5276 2.82738 32.3482 2.82738 29.6693C2.82738 23.4614 6.72905 18.1486 12.2087 16.0517ZM23.5853 8.91132C23.5853 5.5019 20.8115 2.72811 17.4021 2.72811C13.9927 2.72811 11.2189 5.5019 11.2189 8.91132C11.2189 12.3207 13.9927 15.0946 17.4021 15.0946C20.8115 15.0946 23.5853 12.3207 23.5853 8.91132ZM7.68563 31.8776H27.1186C28.3363 31.8776 29.3269 30.887 29.3269 29.6693C29.3269 23.0939 23.9775 17.7444 17.4021 17.7444C10.8266 17.7444 5.47723 23.0938 5.47723 29.6693C5.4773 30.887 6.46792 31.8776 7.68563 31.8776Z" fill="white"/>
</g>
</g>
<defs>
<clipPath id="clip0_56_19388">
<rect width="34.4495" height="34.4495" fill="white" transform="matrix(-1 0 0 1 34.6269 0.0775146)"/>
</clipPath>
<clipPath id="clip1_56_19388">
<rect width="34.4495" height="34.4495" fill="white" transform="matrix(-1 0 0 1 34.6269 0.0775146)"/>
</clipPath>
</defs>
</svg>
