<svg width="60" height="59" viewBox="0 0 60 59" fill="none" xmlns="http://www.w3.org/2000/svg">
<g id="svgexport-17 (49) 1" clip-path="url(#clip0_13_40348)">
<g id="Group">
<path id="Vector" d="M21.1288 27.2813C17.3709 24.5406 14.9237 20.1051 14.9237 15.1083C14.9237 6.80476 21.6792 0.0493469 29.9827 0.0493469C38.2862 0.0493469 45.0416 6.80476 45.0416 15.1083C45.0416 20.1051 42.5945 24.5406 38.8365 27.2813C48.1782 30.8561 54.8298 39.9134 54.8298 50.4967C54.8298 55.0637 51.1144 58.7791 46.5474 58.7791H13.4179C8.85095 58.7791 5.13549 55.0637 5.13549 50.4967C5.13549 39.9134 11.7871 30.8561 21.1288 27.2813ZM40.5239 15.1083C40.5239 9.29585 35.7951 4.56707 29.9827 4.56707C24.1702 4.56707 19.4415 9.29585 19.4415 15.1083C19.4415 20.9207 24.1702 25.6496 29.9827 25.6496C35.7951 25.6496 40.5239 20.9207 40.5239 15.1083ZM13.4179 54.2614H46.5474C48.6233 54.2614 50.3121 52.5726 50.3121 50.4966C50.3121 39.2868 41.1925 30.1671 29.9825 30.1671C18.7726 30.1671 9.65298 39.2867 9.65298 50.4966C9.6531 52.5726 11.3419 54.2614 13.4179 54.2614Z" fill="#292D32"/>
</g>
</g>
<defs>
<clipPath id="clip0_13_40348">
<rect width="58.7298" height="58.7298" fill="white" transform="matrix(-1 0 0 1 59.3469 0.0493317)"/>
</clipPath>
</defs>
</svg>
