<svg width="26" height="26" viewBox="0 0 26 26" fill="none" xmlns="http://www.w3.org/2000/svg">
<g id="svgexport-17 (49) 1" clip-path="url(#clip0_251_2835)">
<g id="Group">
<path id="Vector" d="M17.1581 11.8966C18.7563 10.731 19.797 8.84468 19.797 6.71962C19.797 3.18829 16.9241 0.315338 13.3927 0.315338C9.8614 0.315338 6.98845 3.18829 6.98845 6.71962C6.98845 8.84468 8.02913 10.731 9.62735 11.8966C5.65449 13.4169 2.82568 17.2688 2.82568 21.7697C2.82568 23.7119 4.4058 25.292 6.34803 25.292H20.4374C22.3797 25.292 23.9598 23.7119 23.9598 21.7697C23.9598 17.2688 21.131 13.4169 17.1581 11.8966ZM8.90975 6.71962C8.90975 4.2477 10.9208 2.23664 13.3927 2.23664C15.8646 2.23664 17.8757 4.2477 17.8757 6.71962C17.8757 9.19153 15.8646 11.2026 13.3927 11.2026C10.9208 11.2026 8.90975 9.19153 8.90975 6.71962ZM20.4374 23.3707H6.34803C5.46521 23.3707 4.74699 22.6525 4.74699 21.7696C4.74699 17.0023 8.6254 13.1238 13.3928 13.1238C18.1602 13.1238 22.0386 17.0023 22.0386 21.7696C22.0385 22.6525 21.3203 23.3707 20.4374 23.3707Z" fill="#292D32"/>
</g>
</g>
<defs>
<clipPath id="clip0_251_2835">
<rect width="24.9767" height="24.9767" fill="white" transform="translate(0.904785 0.315338)"/>
</clipPath>
</defs>
</svg>
