<svg width="26" height="26" viewBox="0 0 26 26" fill="none" xmlns="http://www.w3.org/2000/svg">
<g id="svgexport-17 - 2023-08-24T133617.071 1" clip-path="url(#clip0_13_40272)">
<g id="Group">
<path id="Vector" d="M2.703 21.6889H23.7639C24.5948 21.6889 25.2683 21.0153 25.2683 20.1845C25.2683 19.3537 24.5948 18.6802 23.7639 18.6802H2.70294C1.87213 18.6802 1.19858 19.3537 1.19858 20.1845C1.19863 21.0153 1.87213 21.6889 2.703 21.6889ZM2.703 14.1671H23.7639C24.5948 14.1671 25.2683 13.4936 25.2683 12.6628C25.2683 11.8319 24.5948 11.1584 23.7639 11.1584H2.70294C1.87213 11.1584 1.19858 11.8319 1.19858 12.6628C1.19858 13.4936 1.87213 14.1671 2.703 14.1671ZM2.703 6.64531H23.7639C24.5948 6.64531 25.2683 5.97181 25.2683 5.14094C25.2683 4.31008 24.5948 3.63658 23.7639 3.63658H2.70294C1.87213 3.63658 1.19858 4.31008 1.19858 5.14094C1.19858 5.97181 1.87213 6.64531 2.703 6.64531Z" fill="#122333"/>
</g>
</g>
<defs>
<clipPath id="clip0_13_40272">
<rect width="25.2732" height="25.2732" fill="white" transform="matrix(-1 0 0 1 25.87 0.0261536)"/>
</clipPath>
</defs>
</svg>
