<svg width="25" height="25" viewBox="0 0 25 25" fill="none" xmlns="http://www.w3.org/2000/svg">
<g id="svgexport-17 - 2023-08-24T133617.071 1" clip-path="url(#clip0_13_40164)">
<g id="Group">
<path id="Vector" d="M2.13769 21.3292H22.7391C23.5519 21.3292 24.2107 20.6703 24.2107 19.8576C24.2107 19.045 23.5519 18.3861 22.7391 18.3861H2.13764C1.32495 18.3861 0.666094 19.045 0.666094 19.8576C0.666143 20.6703 1.32495 21.3292 2.13769 21.3292ZM2.13769 13.9715H22.7391C23.5519 13.9715 24.2107 13.3127 24.2107 12.5C24.2107 11.6873 23.5519 11.0284 22.7391 11.0284H2.13764C1.32495 11.0284 0.666094 11.6872 0.666094 12.5C0.666094 13.3127 1.32495 13.9715 2.13769 13.9715ZM2.13769 6.61381H22.7391C23.5519 6.61381 24.2107 5.95501 24.2107 5.14227C24.2107 4.32953 23.5519 3.67073 22.7391 3.67073H2.13764C1.32495 3.67073 0.666094 4.32953 0.666094 5.14227C0.666094 5.95501 1.32495 6.61381 2.13769 6.61381Z" fill="#F6F8FB"/>
</g>
</g>
<defs>
<clipPath id="clip0_13_40164">
<rect width="24.7218" height="24.7218" fill="white" transform="matrix(-1 0 0 1 24.7993 0.139084)"/>
</clipPath>
</defs>
</svg>
