<svg width="18" height="17" viewBox="0 0 18 17" fill="none" xmlns="http://www.w3.org/2000/svg">
<g id="svgexport-17 (49) 1" clip-path="url(#clip0_13_40146)">
<g id="Group">
<path id="Vector" d="M6.58625 7.684C5.53168 6.91489 4.84494 5.67017 4.84494 4.26791C4.84494 1.93772 6.7407 0.0419617 9.07089 0.0419617C11.4011 0.0419617 13.2968 1.93772 13.2968 4.26791C13.2968 5.67017 12.6101 6.91489 11.5555 7.684C14.1771 8.6872 16.0437 11.2289 16.0437 14.1989C16.0437 15.4805 15.001 16.5232 13.7194 16.5232H4.42235C3.14074 16.5232 2.09808 15.4805 2.09808 14.1989C2.09808 11.2289 3.9647 8.6872 6.58625 7.684ZM12.029 4.26791C12.029 2.63679 10.702 1.30976 9.07089 1.30976C7.43976 1.30976 6.11274 2.63679 6.11274 4.26791C6.11274 5.89904 7.43976 7.2261 9.07089 7.2261C10.702 7.2261 12.029 5.89904 12.029 4.26791ZM4.42235 15.2554H13.7194C14.302 15.2554 14.7759 14.7815 14.7759 14.1989C14.7759 11.0531 12.2167 8.49383 9.07086 8.49383C5.92504 8.49383 3.36581 11.0531 3.36581 14.1989C3.36584 14.7815 3.83978 15.2554 4.42235 15.2554Z" fill="white"/>
</g>
</g>
<defs>
<clipPath id="clip0_13_40146">
<rect width="16.4812" height="16.4812" fill="white" transform="matrix(-1 0 0 1 17.3113 0.0419617)"/>
</clipPath>
</defs>
</svg>
