<svg width="25" height="25" viewBox="0 0 25 25" fill="none" xmlns="http://www.w3.org/2000/svg">
<g id="vuesax/linear/user-edit">
<g id="user-edit">
<path id="Vector" d="M12.8584 12.6631C15.6198 12.6631 17.8584 10.4245 17.8584 7.66309C17.8584 4.90166 15.6198 2.66309 12.8584 2.66309C10.097 2.66309 7.8584 4.90166 7.8584 7.66309C7.8584 10.4245 10.097 12.6631 12.8584 12.6631Z" stroke="#292D32" stroke-width="1.5" stroke-linecap="round" stroke-linejoin="round"/>
<g id="Group">
<path id="Vector_2" d="M20.0685 16.4031L16.5284 19.9431C16.3884 20.0831 16.2584 20.3431 16.2284 20.5331L16.0384 21.8831C15.9684 22.3731 16.3084 22.7131 16.7984 22.6431L18.1484 22.4531C18.3384 22.4231 18.6084 22.2931 18.7384 22.1531L22.2784 18.6131C22.8884 18.0031 23.1784 17.2931 22.2784 16.3931C21.3884 15.5031 20.6785 15.7931 20.0685 16.4031Z" stroke="#292D32" stroke-width="1.5" stroke-miterlimit="10" stroke-linecap="round" stroke-linejoin="round"/>
<path id="Vector_3" d="M19.5586 16.9131C19.8586 17.9931 20.6986 18.8331 21.7786 19.1331" stroke="#292D32" stroke-width="1.5" stroke-miterlimit="10" stroke-linecap="round" stroke-linejoin="round"/>
</g>
<path id="Vector_4" d="M4.26831 22.6631C4.26831 18.7931 8.11834 15.6631 12.8583 15.6631C13.8983 15.6631 14.8983 15.8131 15.8283 16.0931" stroke="#292D32" stroke-width="1.5" stroke-linecap="round" stroke-linejoin="round"/>
</g>
</g>
</svg>
