<svg width="203" height="206" viewBox="0 0 203 206" fill="none" xmlns="http://www.w3.org/2000/svg">
<g clip-path="url(#clip0_3321_233468)">
<path d="M137.984 62.423C135.792 62.423 134.012 64.221 134.012 66.4449C134.012 68.6672 135.792 70.4683 137.984 70.4683C140.182 70.4683 141.957 68.6672 141.957 66.4449C141.957 64.221 140.182 62.423 137.984 62.423Z" fill="black" fill-opacity="0.2"/>
<path d="M65.804 135.526C63.6066 135.526 61.8314 137.328 61.8314 139.549C61.8314 141.774 63.6066 143.572 65.804 143.572C67.9967 143.572 69.7766 141.774 69.7766 139.549C69.7766 137.328 67.9967 135.526 65.804 135.526Z" fill="black" fill-opacity="0.2"/>
<path d="M198.653 24.752C197.313 24.4361 195.904 24.8463 194.935 25.8364L178.466 42.6484H170.571L161.879 33.5281V25.42L178.112 8.73368C179.073 7.74668 179.464 6.32747 179.146 4.97742C178.829 3.62894 177.848 2.54135 176.551 2.09815C172.473 0.705659 168.206 -1.50179e-05 163.865 -1.50179e-05C150.926 -1.50179e-05 139.171 6.11058 131.614 16.7648C124.541 26.7386 122.361 38.9613 125.485 50.6592L96.2223 80.2959L47.471 30.8076V21.0948C47.471 19.6818 46.7386 18.3711 45.5421 17.645L17.4531 0.573639C15.8888 -0.377213 13.8886 -0.127319 12.6006 1.17873L1.36556 12.5559C0.077568 13.862 -0.169168 15.8879 0.768118 17.4721L17.6206 45.9206C18.3376 47.1324 19.6302 47.8726 21.0253 47.8742L30.6123 47.8773L79.3682 97.3657L50.2177 126.889C38.6677 123.727 26.5931 125.938 16.7408 133.107C6.22734 140.756 0.198608 152.658 0.198608 165.763C0.198608 170.157 0.895366 174.481 2.27026 178.609C2.70942 179.931 3.79412 180.929 5.13488 181.243C6.47718 181.559 7.88466 181.149 8.85454 180.159L25.3222 163.348H33.2612L42.3066 172.51V180.55L25.7086 197.229C24.731 198.211 24.326 199.636 24.6379 200.996C24.9482 202.354 25.9336 203.452 27.2387 203.897C31.3153 205.29 35.5843 205.995 39.9231 205.995C52.862 205.995 64.6122 199.888 72.1664 189.24C79.2441 179.262 81.4275 167.034 78.3053 155.336L101.717 131.625L107.08 137.525L104.619 140.016C103.067 141.587 103.067 144.135 104.619 145.707C106.171 147.277 108.685 147.277 110.238 145.707L112.467 143.45L162.785 198.807C162.822 198.848 162.861 198.887 162.9 198.926C172.211 208.356 187.296 208.359 196.611 198.925C205.9 189.512 205.9 174.196 196.611 164.783C196.571 164.743 196.529 164.703 196.487 164.664L141.744 113.799L143.948 111.567C145.5 109.997 145.5 107.449 143.948 105.878C142.396 104.306 139.882 104.306 138.329 105.878L135.885 108.355L130.048 102.929L153.574 79.103C156.918 80.0083 160.369 80.4672 163.865 80.4672C185.77 80.4672 203.59 62.4183 203.59 40.2344C203.59 35.8385 202.893 31.5164 201.518 27.3861C201.079 26.0643 199.994 25.0663 198.653 24.752ZM35.0722 41.0124C34.3273 40.2564 33.3171 39.8713 32.2619 39.8713L23.2769 39.8682L9.17731 16.0262L16.0254 9.09044L39.5258 23.3737V32.4735C39.5258 33.5391 39.9433 34.5607 40.6866 35.3151L90.6048 85.9869L84.9857 91.6763L35.0722 41.0124ZM136.121 119.495L191.05 170.531C197.185 176.811 197.167 186.98 190.992 193.237C184.804 199.504 174.785 199.523 168.572 193.292L118.089 137.754L136.121 119.495ZM130.261 114.049L112.702 131.829L107.339 125.929L124.425 108.623L130.261 114.049ZM163.865 72.4203C160.391 72.4203 156.974 71.8561 153.712 70.7434C152.283 70.2577 150.703 70.6318 149.635 71.7115C129.719 91.8821 86.806 135.343 71.0041 151.349C69.9364 152.43 69.5655 154.03 70.0481 155.479C73.3504 165.411 71.7706 176.003 65.7124 184.545C59.6713 193.062 50.2705 197.949 39.9231 197.949C38.7608 197.949 37.6047 197.884 36.4595 197.76L49.0771 185.08C49.8282 184.325 50.2519 183.298 50.2519 182.224V170.842C50.2519 169.775 49.8329 168.752 49.088 167.997L37.7149 156.479C36.97 155.724 35.9598 155.3 34.9061 155.3H23.668C22.6081 155.3 21.5932 155.729 20.8468 156.49L8.32848 169.269C8.20433 168.109 8.14226 166.938 8.14226 165.761C8.14226 155.28 12.9653 145.76 21.376 139.642C29.8085 133.506 40.2691 131.904 50.0765 135.25C51.5057 135.739 53.0854 135.364 54.1531 134.282C54.3719 134.062 132.728 54.7015 132.784 54.6449C133.852 53.5636 134.221 51.9652 133.74 50.5162C130.436 40.5849 132.013 29.995 138.067 21.4594C144.112 12.9347 153.515 8.04686 163.864 8.04686C165.062 8.04686 166.252 8.11445 167.431 8.24646L155.076 20.947C154.343 21.6998 153.934 22.7136 153.934 23.7697V35.1516C153.934 36.1952 154.333 37.1964 155.048 37.9461L166.024 49.4647C166.772 50.2505 167.804 50.6938 168.882 50.6938H180.12C181.179 50.6938 182.193 50.2663 182.94 49.504L195.458 36.7264C195.582 37.8863 195.644 39.0572 195.644 40.2344C195.644 57.9815 181.388 72.4203 163.865 72.4203Z" fill="black" fill-opacity="0.2"/>
<path d="M123.941 74.979L74.2287 125.327C72.6785 126.897 72.6785 129.445 74.2287 131.016C75.7805 132.588 78.296 132.588 79.8478 131.016L129.56 80.6684C131.111 79.0983 131.111 76.5507 129.56 74.979C128.008 73.4073 125.492 73.4073 123.941 74.979Z" fill="black" fill-opacity="0.2"/>
<path d="M174.141 181.859C175.693 183.426 178.209 183.426 179.76 181.85C181.309 180.277 181.304 177.729 179.751 176.161L143.943 140.011C142.39 138.442 139.873 138.447 138.326 140.02C136.775 141.595 136.78 144.141 138.334 145.71L174.141 181.859Z" fill="black" fill-opacity="0.2"/>
</g>
<defs>
<clipPath id="clip0_3321_233468">
<rect width="203" height="206" fill="white"/>
</clipPath>
</defs>
</svg>
