<svg width="47" height="48" viewBox="0 0 47 48" fill="none" xmlns="http://www.w3.org/2000/svg">
<g clip-path="url(#clip0_5120_233798)">
<path d="M41.4721 14.5628C41.4721 15.5756 40.6511 16.3965 39.6384 16.3965C38.6256 16.3965 37.8047 15.5756 37.8047 14.5628V9.97857H33.3121C32.2994 9.97857 31.4784 9.15763 31.4784 8.14488C31.4784 7.13213 32.2994 6.31119 33.3121 6.31119H37.8047V2.6438C37.8047 1.63105 38.6256 0.810108 39.6384 0.810108C40.6511 0.810108 41.4721 1.63105 41.4721 2.6438V6.31119H45.1395C46.1522 6.31119 46.9731 7.13213 46.9731 8.14488C46.9731 9.15763 46.1522 9.97857 45.1395 9.97857H41.4721V14.5628ZM7.36539 20.0639C8.37814 20.0639 9.19908 20.8848 9.19908 21.8976V26.6652C9.19908 27.6779 8.37814 28.4989 7.36539 28.4989C6.35264 28.4989 5.5317 27.6779 5.5317 26.6652V21.8976C5.5317 20.8848 6.35264 20.0639 7.36539 20.0639ZM13.7833 9.97857H12.8665C10.8443 9.97857 9.19908 11.6238 9.19908 13.646V14.5628C9.19908 15.5756 8.37814 16.3965 7.36539 16.3965C6.35264 16.3965 5.5317 15.5756 5.5317 14.5628V13.646C5.5317 9.60156 8.82208 6.31119 12.8665 6.31119H13.7833C14.7961 6.31119 15.617 7.13213 15.617 8.14488C15.617 9.15763 14.7961 9.97857 13.7833 9.97857ZM39.6384 20.0639C40.6511 20.0639 41.4721 20.8848 41.4721 21.8976V26.6652C41.4721 27.6779 40.6511 28.4989 39.6384 28.4989C38.6256 28.4989 37.8047 27.6779 37.8047 26.6652V21.8976C37.8047 20.8848 38.6256 20.0639 39.6384 20.0639ZM33.2205 38.4925H34.1373C36.1595 38.4925 37.8047 36.8473 37.8047 34.8251V33.9999C37.8047 32.9872 38.6256 32.1663 39.6384 32.1663C40.6511 32.1663 41.4721 32.9872 41.4721 33.9999V34.8251C41.4721 38.8695 38.1817 42.1599 34.1373 42.1599H33.2205C32.2077 42.1599 31.3868 41.3389 31.3868 40.3262C31.3868 39.3134 32.2077 38.4925 33.2205 38.4925ZM1.86431 38.4925H5.5317V33.9999C5.5317 32.9872 6.35264 32.1663 7.36539 32.1663C8.37814 32.1663 9.19908 32.9872 9.19908 33.9999V38.4925H13.7833C14.7961 38.4925 15.617 39.3134 15.617 40.3262C15.617 41.3389 14.7961 42.1599 13.7833 42.1599H9.19908V45.8273C9.19908 46.84 8.37814 47.661 7.36539 47.661C6.35264 47.661 5.5317 46.84 5.5317 45.8273V42.1599H1.86431C0.851565 42.1599 0.0306206 41.3389 0.0306206 40.3262C0.0306206 39.3134 0.851565 38.4925 1.86431 38.4925ZM21.1181 6.31119H25.8857C26.8984 6.31119 27.7194 7.13213 27.7194 8.14488C27.7194 9.15763 26.8984 9.97857 25.8857 9.97857H21.1181C20.1053 9.97857 19.2844 9.15763 19.2844 8.14488C19.2844 7.13213 20.1053 6.31119 21.1181 6.31119ZM21.1181 38.4925H25.8857C26.8984 38.4925 27.7194 39.3134 27.7194 40.3262C27.7194 41.3389 26.8984 42.1599 25.8857 42.1599H21.1181C20.1053 42.1599 19.2844 41.3389 19.2844 40.3262C19.2844 39.3134 20.1053 38.4925 21.1181 38.4925Z" fill="white"/>
</g>
<defs>
<clipPath id="clip0_5120_233798">
<rect width="46.9425" height="46.9425" fill="white" transform="matrix(-1 0 0 1 46.9712 0.766293)"/>
</clipPath>
</defs>
</svg>
