<svg width="47" height="48" viewBox="0 0 47 48" fill="none" xmlns="http://www.w3.org/2000/svg">
<path d="M19.0981 18.7373H23.499C23.7908 18.7373 24.0707 18.6214 24.277 18.4151C24.4833 18.2087 24.5993 17.9289 24.5993 17.6371C24.5993 17.3453 24.4833 17.0654 24.277 16.8591C24.0707 16.6528 23.7908 16.5369 23.499 16.5369H19.0981C18.8063 16.5369 18.5265 16.6528 18.3202 16.8591C18.1138 17.0654 17.9979 17.3453 17.9979 17.6371C17.9979 17.9289 18.1138 18.2087 18.3202 18.4151C18.5265 18.6214 18.8063 18.7373 19.0981 18.7373ZM39.6356 33.4069C39.9274 33.4069 40.2073 33.291 40.4136 33.0847C40.6199 32.8783 40.7358 32.5985 40.7358 32.3067V16.1701C40.7358 15.8783 40.6199 15.5985 40.4136 15.3921C40.2073 15.1858 39.9274 15.0699 39.6356 15.0699C39.3438 15.0699 39.064 15.1858 38.8576 15.3921C38.6513 15.5985 38.5354 15.8783 38.5354 16.1701V32.3067C38.5354 32.5985 38.6513 32.8783 38.8576 33.0847C39.064 33.291 39.3438 33.4069 39.6356 33.4069ZM14.6973 33.4069C14.9891 33.4069 15.2689 33.291 15.4752 33.0847C15.6816 32.8783 15.7975 32.5985 15.7975 32.3067V16.1701C15.7975 15.8783 15.6816 15.5985 15.4752 15.3921C15.2689 15.1858 14.9891 15.0699 14.6973 15.0699C14.4055 15.0699 14.1256 15.1858 13.9193 15.3921C13.7129 15.5985 13.597 15.8783 13.597 16.1701V32.3067C13.597 32.5985 13.7129 32.8783 13.9193 33.0847C14.1256 33.291 14.4055 33.4069 14.6973 33.4069ZM17.6312 36.3408H36.7017C36.8462 36.3408 36.9892 36.3124 37.1227 36.2571C37.2562 36.2018 37.3775 36.1208 37.4797 36.0186C37.5818 35.9164 37.6629 35.7951 37.7182 35.6617C37.7735 35.5282 37.8019 35.3851 37.8019 35.2406C37.8019 35.0961 37.7735 34.9531 37.7182 34.8196C37.6629 34.6861 37.5818 34.5648 37.4797 34.4627C37.3775 34.3605 37.2562 34.2794 37.1227 34.2242C36.9892 34.1689 36.8462 34.1404 36.7017 34.1404H17.6312C17.4867 34.1404 17.3436 34.1689 17.2101 34.2242C17.0767 34.2794 16.9554 34.3605 16.8532 34.4627C16.751 34.5648 16.67 34.6861 16.6147 34.8196C16.5594 34.9531 16.531 35.0961 16.531 35.2406C16.531 35.3851 16.5594 35.5282 16.6147 35.6617C16.67 35.7951 16.751 35.9164 16.8532 36.0186C16.9554 36.1208 17.0767 36.2018 17.2101 36.2571C17.3436 36.3124 17.4867 36.3408 17.6312 36.3408Z" fill="white"/>
<path d="M17.6312 36.3408C17.7757 36.3408 17.9187 36.3124 18.0522 36.2571C18.1857 36.2018 18.307 36.1208 18.4092 36.0186C18.5113 35.9164 18.5924 35.7951 18.6477 35.6616C18.7029 35.5282 18.7314 35.3851 18.7314 35.2406C18.7314 35.0961 18.7029 34.9531 18.6477 34.8196C18.5924 34.6861 18.5113 34.5648 18.4092 34.4626C18.307 34.3605 18.1857 34.2794 18.0522 34.2241C17.9187 34.1688 17.7757 34.1404 17.6312 34.1404C16.6197 34.1404 15.7975 33.3174 15.7975 32.3067C15.7975 32.0149 15.6816 31.735 15.4752 31.5287C15.2689 31.3224 14.9891 31.2065 14.6973 31.2065C14.4055 31.2065 14.1256 31.3224 13.9193 31.5287C13.7129 31.735 13.597 32.0149 13.597 32.3067C13.597 34.5313 15.4073 36.3408 17.6312 36.3408ZM36.7017 36.3408C37.7713 36.3397 38.7967 35.9143 39.553 35.158C40.3093 34.4017 40.7347 33.3763 40.7358 32.3067C40.7358 32.0149 40.6199 31.735 40.4136 31.5287C40.2073 31.3224 39.9274 31.2065 39.6356 31.2065C39.3438 31.2065 39.064 31.3224 38.8576 31.5287C38.6513 31.735 38.5354 32.0149 38.5354 32.3067C38.5354 33.3174 37.7132 34.1404 36.7017 34.1404C36.5572 34.1404 36.4141 34.1688 36.2807 34.2241C36.1472 34.2794 36.0259 34.3605 35.9237 34.4626C35.8216 34.5648 35.7405 34.6861 35.6852 34.8196C35.6299 34.9531 35.6015 35.0961 35.6015 35.2406C35.6015 35.3851 35.6299 35.5282 35.6852 35.6616C35.7405 35.7951 35.8216 35.9164 35.9237 36.0186C36.0259 36.1208 36.1472 36.2018 36.2807 36.2571C36.4141 36.3124 36.5572 36.3408 36.7017 36.3408ZM17.6312 14.3364H36.7017C36.9935 14.3364 37.2733 14.2205 37.4797 14.0141C37.686 13.8078 37.8019 13.528 37.8019 13.2362C37.8019 12.9444 37.686 12.6645 37.4797 12.4582C37.2733 12.2519 36.9935 12.136 36.7017 12.136H17.6312C17.3394 12.136 17.0595 12.2519 16.8532 12.4582C16.6469 12.6645 16.531 12.9444 16.531 13.2362C16.531 13.528 16.6469 13.8078 16.8532 14.0141C17.0595 14.2205 17.3394 14.3364 17.6312 14.3364Z" fill="white"/>
<path d="M14.6973 17.2703C14.9891 17.2703 15.2689 17.1544 15.4752 16.9481C15.6816 16.7417 15.7975 16.4619 15.7975 16.1701C15.7975 15.1594 16.6197 14.3364 17.6312 14.3364C17.923 14.3364 18.2028 14.2205 18.4092 14.0141C18.6155 13.8078 18.7314 13.528 18.7314 13.2362C18.7314 12.9444 18.6155 12.6645 18.4092 12.4582C18.2028 12.2519 17.923 12.136 17.6312 12.136C15.4073 12.136 13.597 13.9455 13.597 16.1701C13.597 16.4619 13.7129 16.7417 13.9193 16.9481C14.1256 17.1544 14.4055 17.2703 14.6973 17.2703ZM39.6356 17.2703C39.9274 17.2703 40.2073 17.1544 40.4136 16.9481C40.6199 16.7417 40.7358 16.4619 40.7358 16.1701C40.7358 13.9455 38.9256 12.136 36.7017 12.136C36.4099 12.136 36.13 12.2519 35.9237 12.4582C35.7174 12.6645 35.6015 12.9444 35.6015 13.2362C35.6015 13.528 35.7174 13.8078 35.9237 14.0141C36.13 14.2205 36.4099 14.3364 36.7017 14.3364C37.1878 14.337 37.6539 14.5304 37.9977 14.8741C38.3414 15.2179 38.5348 15.6839 38.5354 16.1701C38.5354 16.4619 38.6513 16.7417 38.8576 16.9481C39.064 17.1544 39.3438 17.2703 39.6356 17.2703ZM7.36244 34.3333C7.65424 34.3333 7.93408 34.2174 8.14042 34.0111C8.34675 33.8047 8.46266 33.5249 8.46266 33.2331V15.2437C8.46266 14.9519 8.34675 14.6721 8.14042 14.4657C7.93408 14.2594 7.65424 14.1435 7.36244 14.1435C7.07064 14.1435 6.7908 14.2594 6.58447 14.4657C6.37813 14.6721 6.26222 14.9519 6.26222 15.2437V33.2323C6.26212 33.3769 6.29051 33.52 6.34576 33.6536C6.40101 33.7872 6.48203 33.9085 6.58421 34.0108C6.68638 34.113 6.8077 34.1941 6.94123 34.2495C7.07477 34.3048 7.2179 34.3333 7.36244 34.3333Z" fill="white"/>
<path d="M7.36347 34.3281C7.58748 34.3283 7.80615 34.2597 7.98987 34.1315L15.3247 29.0411C15.4434 28.9587 15.5447 28.8538 15.6229 28.7322C15.701 28.6106 15.7544 28.4749 15.7801 28.3327C15.8058 28.1904 15.8032 28.0446 15.7725 27.9033C15.7418 27.7621 15.6836 27.6283 15.6012 27.5096C15.5188 27.3909 15.4138 27.2896 15.2923 27.2114C15.1707 27.1333 15.0349 27.0799 14.8927 27.0542C14.7505 27.0285 14.6046 27.0311 14.4634 27.0618C14.3222 27.0925 14.1884 27.1507 14.0697 27.2331L6.73488 32.3235C6.54202 32.4571 6.39692 32.6489 6.32077 32.8708C6.24463 33.0927 6.24142 33.3332 6.31162 33.557C6.38182 33.7809 6.52176 33.9765 6.71099 34.1152C6.90022 34.2539 7.12885 34.3285 7.36347 34.3281ZM14.6968 21.4298C14.9314 21.4301 15.1599 21.3554 15.349 21.2166C15.5381 21.0779 15.6779 20.8823 15.748 20.6584C15.8182 20.4346 15.8149 20.1942 15.7387 19.9723C15.6626 19.7505 15.5175 19.5588 15.3247 19.4252L7.98987 14.3348C7.87115 14.2524 7.73736 14.1942 7.59615 14.1635C7.45493 14.1328 7.30906 14.1302 7.16684 14.1559C7.02463 14.1816 6.88887 14.235 6.7673 14.3132C6.64574 14.3913 6.54076 14.4926 6.45836 14.6114C6.37595 14.7301 6.31774 14.8639 6.28704 15.0051C6.25634 15.1463 6.25375 15.2922 6.27943 15.4344C6.30511 15.5766 6.35855 15.7124 6.43669 15.8339C6.51484 15.9555 6.61616 16.0605 6.73488 16.1429L14.0697 21.2332C14.2611 21.366 14.4804 21.4298 14.6968 21.4298Z" fill="white"/>
</svg>
