<svg width="59" height="60" viewBox="0 0 59 60" fill="none" xmlns="http://www.w3.org/2000/svg">
<g clip-path="url(#clip0_3353_192104)">
<path d="M57.7503 28.0617H44.8077V25.5622C44.8074 25.3829 44.7594 25.2069 44.6688 25.0522C44.5781 24.8975 44.4479 24.7697 44.2916 24.6818L30.4282 16.89V12.9232H33.1705V14.431C33.1705 14.6994 33.2771 14.9568 33.4669 15.1465C33.6567 15.3363 33.9141 15.4429 34.1824 15.4429H42.4499C42.6124 15.4428 42.7724 15.4036 42.9165 15.3286C43.0606 15.2536 43.1845 15.1451 43.2778 15.0121C43.3711 14.8791 43.431 14.7256 43.4525 14.5646C43.4739 14.4035 43.4563 14.2397 43.4011 14.0869L42.5713 11.7291L43.4112 9.42194C43.4665 9.26916 43.4841 9.10532 43.4627 8.94429C43.4412 8.78325 43.3813 8.62974 43.288 8.49675C43.1947 8.36375 43.0708 8.25517 42.9267 8.18019C42.7825 8.1052 42.6225 8.06602 42.46 8.06595H38.6957V6.59865C38.6957 6.33027 38.589 6.07288 38.3993 5.88311C38.2095 5.69334 37.9521 5.58672 37.6837 5.58672H30.4282V4.35217C30.4282 4.08379 30.3216 3.8264 30.1318 3.63663C29.942 3.44685 29.6846 3.34024 29.4163 3.34024C29.1479 3.34024 28.8905 3.44685 28.7007 3.63663C28.5109 3.8264 28.4043 4.08379 28.4043 4.35217V16.89L14.5409 24.6717C14.3846 24.7596 14.2544 24.8874 14.1638 25.0421C14.0731 25.1968 14.0251 25.3728 14.0248 25.5521V28.0516H1.08224C0.813861 28.0516 0.556473 28.1582 0.3667 28.3479C0.176926 28.5377 0.0703125 28.7951 0.0703125 29.0635L0.0703125 55.5356C0.0703125 55.8039 0.176926 56.0613 0.3667 56.2511C0.556473 56.4409 0.813861 56.5475 1.08224 56.5475H57.7503C58.0187 56.5475 58.2761 56.4409 58.4658 56.2511C58.6556 56.0613 58.7622 55.8039 58.7622 55.5356V29.0736C58.7622 28.8052 58.6556 28.5478 58.4658 28.3581C58.2761 28.1683 58.0187 28.0617 57.7503 28.0617ZM38.6957 11.9113L38.6552 11.8708V10.1303H40.9624L40.5475 11.4256C40.4646 11.6509 40.4646 11.8984 40.5475 12.1238L41.0231 13.4191H35.1944V12.9232H37.6837C37.9521 12.9232 38.2095 12.8166 38.3993 12.6268C38.589 12.437 38.6957 12.1797 38.6957 11.9113ZM30.4282 7.61058H36.6718V10.8994H30.4282V7.61058ZM14.0248 54.5236H2.09417V30.0855H14.0248V54.5236ZM28.4043 54.5236H23.0917V42.9674H28.4043V54.5236ZM35.7408 54.5236H30.4282V42.9674H35.7408V54.5236ZM42.8243 54.5236H37.7647V41.9555C37.7647 41.6871 37.6581 41.4297 37.4683 41.2399C37.2785 41.0501 37.0211 40.9435 36.7528 40.9435H22.0798C21.8114 40.9435 21.554 41.0501 21.3642 41.2399C21.1745 41.4297 21.0678 41.6871 21.0678 41.9555V54.5236H16.0082V26.1896L29.4163 18.6406L42.7838 26.1491L42.8243 29.0635V54.5236ZM56.7383 54.5236H44.8077V30.0855H56.7383V54.5236Z" fill="white"/>
<path d="M29.4163 21.737C27.0729 21.7426 25.1763 23.6438 25.1763 25.9871C25.1819 28.3289 27.0847 30.2226 29.4264 30.217C31.7682 30.2114 33.6618 28.3086 33.6563 25.9669C33.6507 23.6292 31.754 21.737 29.4163 21.737ZM29.4163 28.1932C28.1924 28.1876 27.2047 27.1908 27.2103 25.9669C27.2159 24.751 28.2002 23.7665 29.4163 23.7609C30.6419 23.7665 31.6324 24.7616 31.6324 25.9871H31.6425C31.637 27.2111 30.6402 28.1987 29.4163 28.1932ZM4.53296 32.3117H6.55682V36.3594H4.53296V32.3117ZM9.52177 32.3117H11.5456V36.3594H9.52177V32.3117ZM19.0845 32.3117H23.1322V34.3356H19.0845V32.3117ZM27.3924 32.3117H31.4402V34.3356H27.3924V32.3117ZM35.7004 32.3117H39.7481V34.3356H35.7004V32.3117ZM19.0845 37.0273H23.1322V39.0512H19.0845V37.0273ZM27.3924 37.0273H31.4402V39.0512H27.3924V37.0273ZM35.7004 37.0273H39.7481V39.0512H35.7004V37.0273ZM4.53296 40.2756H6.55682V44.3233H4.53296V40.2756ZM9.52177 40.2756H11.5456V44.3233H9.52177V40.2756ZM4.53296 48.2496H6.55682V52.2973H4.53296V48.2496ZM9.52177 48.2496H11.5456V52.2973H9.52177V48.2496ZM47.287 32.3117H49.3108V36.3594H47.287V32.3117ZM52.2758 32.3117H54.2996V36.3594H52.2758V32.3117ZM47.287 40.2756H49.3108V44.3233H47.287V40.2756ZM52.2758 40.2756H54.2996V44.3233H52.2758V40.2756ZM47.287 48.2496H49.3108V52.2973H47.287V48.2496ZM52.2758 48.2496H54.2996V52.2973H52.2758V48.2496Z" fill="white"/>
</g>
<defs>
<clipPath id="clip0_3353_192104">
<rect width="58.6919" height="58.6919" fill="white" transform="translate(0.0703125 0.597839)"/>
</clipPath>
</defs>
</svg>
