<svg width="25" height="25" viewBox="0 0 25 25" fill="none" xmlns="http://www.w3.org/2000/svg">
<path d="M12.1172 12.3779C14.8786 12.3779 17.1172 10.1394 17.1172 7.37793C17.1172 4.61651 14.8786 2.37793 12.1172 2.37793C9.35576 2.37793 7.11719 4.61651 7.11719 7.37793C7.11719 10.1394 9.35576 12.3779 12.1172 12.3779Z" stroke="white" stroke-width="1.5" stroke-linecap="round" stroke-linejoin="round"/>
<path d="M19.3272 16.1179L15.7872 19.658C15.6472 19.798 15.5172 20.058 15.4872 20.248L15.2972 21.5979C15.2272 22.0879 15.5672 22.4279 16.0572 22.3579L17.4072 22.1679C17.5972 22.1379 17.8672 22.0079 17.9972 21.8679L21.5372 18.328C22.1472 17.718 22.4372 17.0079 21.5372 16.1079C20.6472 15.2179 19.9372 15.5079 19.3272 16.1179Z" stroke="white" stroke-width="1.5" stroke-miterlimit="10" stroke-linecap="round" stroke-linejoin="round"/>
<path d="M18.8174 16.6279C19.1174 17.7079 19.9574 18.5479 21.0374 18.8479" stroke="white" stroke-width="1.5" stroke-miterlimit="10" stroke-linecap="round" stroke-linejoin="round"/>
<path d="M3.52734 22.3779C3.52734 18.5079 7.37737 15.3779 12.1174 15.3779C13.1574 15.3779 14.1573 15.5279 15.0873 15.8079" stroke="white" stroke-width="1.5" stroke-linecap="round" stroke-linejoin="round"/>
</svg>
