<svg width="25" height="25" viewBox="0 0 25 25" fill="none" xmlns="http://www.w3.org/2000/svg">
<g id="svgexport-17 - 2023-09-04T191314.055 2" clip-path="url(#clip0_2773_188247)">
<g id="Group">
<g id="Group_2">
<path id="Vector" d="M2.1012 2.54919H22.5967C23.1401 2.54985 23.661 2.76599 24.0452 3.15021C24.4294 3.53444 24.6456 4.05537 24.6462 4.59874V19.3555C24.6456 19.8989 24.4294 20.4198 24.0452 20.804C23.661 21.1883 23.1401 21.4044 22.5967 21.4051H10.2994V23.4546C10.2994 23.5357 10.2753 23.6149 10.2303 23.6823C10.1852 23.7497 10.1212 23.8022 10.0463 23.8332C9.97145 23.8642 9.88904 23.8724 9.80954 23.8566C9.73004 23.8407 9.657 23.8017 9.59968 23.7444L8.24984 22.3946L6.90001 23.7444C6.84268 23.8017 6.76965 23.8407 6.69015 23.8566C6.61065 23.8724 6.52824 23.8642 6.45335 23.8332C6.37846 23.8022 6.31445 23.7497 6.26941 23.6823C6.22436 23.6149 6.20031 23.5357 6.20029 23.4546V21.4051H2.1012C1.55782 21.4044 1.03689 21.1883 0.652664 20.804C0.26844 20.4198 0.0522976 19.8989 0.0516453 19.3555V4.59874C0.0522976 4.05537 0.26844 3.53444 0.652664 3.15021C1.03689 2.76599 1.55782 2.54985 2.1012 2.54919ZM11.4021 10.5691C11.4333 10.5547 11.4607 10.5331 11.482 10.5061C11.5033 10.479 11.5179 10.4474 11.5246 10.4136C11.5313 10.3799 11.5299 10.3451 11.5206 10.3119C11.5113 10.2788 11.4943 10.2484 11.4709 10.2231C11.294 10.0309 11.1958 9.77913 11.1958 9.51787C11.1958 9.25661 11.294 9.00488 11.4709 8.81262C11.4943 8.78732 11.5114 8.75683 11.5208 8.72365C11.5301 8.69047 11.5314 8.65555 11.5247 8.62175C11.5179 8.58795 11.5032 8.55623 11.4819 8.5292C11.4605 8.50217 11.433 8.4806 11.4016 8.46625C11.1648 8.35603 10.9779 8.16093 10.8781 7.91955C10.7782 7.67817 10.7725 7.40808 10.8622 7.16273C10.8741 7.13045 10.8783 7.09579 10.8742 7.06161C10.8702 7.02743 10.8581 6.99468 10.839 6.96606C10.8199 6.93743 10.7943 6.91373 10.7643 6.8969C10.7342 6.88008 10.7007 6.87059 10.6663 6.86924C10.4052 6.85826 10.1577 6.74963 9.97294 6.56484C9.78815 6.38006 9.67951 6.13261 9.66854 5.87151C9.6672 5.83707 9.65772 5.80344 9.64087 5.77337C9.62402 5.7433 9.60028 5.71765 9.5716 5.69853C9.54292 5.67941 9.51011 5.66736 9.47588 5.66337C9.44164 5.65938 9.40695 5.66357 9.37464 5.67558C9.1292 5.76476 8.85927 5.7588 8.618 5.65888C8.37674 5.55896 8.18164 5.37232 8.07112 5.13573C8.05683 5.10443 8.03531 5.07698 8.00834 5.05562C7.98136 5.03427 7.9497 5.01963 7.91596 5.01291C7.88222 5.00618 7.84736 5.00757 7.81426 5.01695C7.78116 5.02633 7.75076 5.04344 7.72557 5.06686C7.32673 5.43373 6.71309 5.43373 6.31466 5.06686C6.2894 5.04345 6.25894 5.02637 6.22579 5.01702C6.19264 5.00767 6.15775 5.00632 6.12397 5.01308C6.0902 5.01985 6.05852 5.03453 6.03152 5.05592C6.00453 5.07731 5.983 5.1048 5.9687 5.13614C5.85841 5.37282 5.66337 5.55954 5.42211 5.65942C5.18085 5.75929 4.9109 5.76506 4.66559 5.67558C4.63328 5.66357 4.59859 5.65938 4.56435 5.66337C4.53011 5.66736 4.49731 5.67941 4.46863 5.69853C4.43995 5.71765 4.41621 5.7433 4.39936 5.77337C4.38251 5.80344 4.37302 5.83707 4.37169 5.87151C4.36059 6.13296 4.25165 6.38068 4.06647 6.56557C3.88128 6.75045 3.63338 6.85898 3.37192 6.86965C3.33754 6.87094 3.30396 6.88036 3.27393 6.89714C3.24389 6.91392 3.21827 6.93758 3.19915 6.96618C3.18003 6.99478 3.16796 7.02751 3.16393 7.06167C3.15991 7.09584 3.16404 7.13047 3.17598 7.16273C3.26575 7.40813 3.26008 7.67829 3.1601 7.9197C3.06011 8.16111 2.87311 8.35617 2.63613 8.46625C2.60489 8.48065 2.57751 8.50225 2.55621 8.52927C2.53492 8.55628 2.52031 8.58795 2.5136 8.62169C2.50688 8.65543 2.50824 8.69028 2.51757 8.72339C2.5269 8.7565 2.54393 8.78694 2.56726 8.81221C2.74416 9.00447 2.84235 9.2562 2.84235 9.51746C2.84235 9.77872 2.74416 10.0304 2.56726 10.2227C2.54385 10.248 2.52678 10.2785 2.51743 10.3117C2.50808 10.3449 2.50673 10.3798 2.51349 10.4136C2.52025 10.4474 2.53493 10.4791 2.55632 10.5061C2.57771 10.5332 2.6052 10.5547 2.63654 10.5691C2.87338 10.6793 3.06023 10.8744 3.16013 11.1158C3.26002 11.3572 3.26568 11.6272 3.17598 11.8726C3.16405 11.9049 3.15993 11.9395 3.16396 11.9737C3.16799 12.0079 3.18005 12.0406 3.19916 12.0693C3.21827 12.0979 3.24389 12.1216 3.27391 12.1384C3.30394 12.1553 3.33752 12.1647 3.37192 12.1661C3.63371 12.1766 3.88195 12.2853 4.06721 12.4706C4.25248 12.6558 4.36118 12.9041 4.37169 13.1659C4.37302 13.2003 4.38251 13.2339 4.39936 13.264C4.41621 13.2941 4.43995 13.3197 4.46863 13.3388C4.49731 13.358 4.53011 13.37 4.56435 13.374C4.59859 13.378 4.63328 13.3738 4.66559 13.3618C4.91102 13.2725 5.18099 13.2784 5.42228 13.3784C5.66357 13.4783 5.85867 13.665 5.9691 13.9017C5.98286 13.9332 6.00413 13.9609 6.03107 13.9824C6.05801 14.0038 6.0898 14.0183 6.12364 14.0246C6.15745 14.0317 6.19247 14.0305 6.22572 14.0212C6.25898 14.0118 6.28948 13.9946 6.31466 13.9709C6.50703 13.7941 6.75881 13.6959 7.02011 13.6959C7.28142 13.6959 7.5332 13.7941 7.72557 13.9709C7.75076 13.9945 7.78127 14.0118 7.81452 14.0211C7.84777 14.0305 7.88278 14.0317 7.91659 14.0246C7.95048 14.0183 7.98232 14.0038 8.00932 13.9824C8.03633 13.9609 8.05768 13.9332 8.07153 13.9017C8.18174 13.6649 8.37677 13.4781 8.61806 13.3782C8.85935 13.2783 9.12934 13.2726 9.37464 13.3622C9.40695 13.3742 9.44164 13.3784 9.47588 13.3744C9.51011 13.3704 9.54292 13.3584 9.5716 13.3393C9.60028 13.3201 9.62402 13.2945 9.64087 13.2644C9.65772 13.2344 9.6672 13.2007 9.66854 13.1663C9.67903 12.9044 9.78771 12.6561 9.97296 12.4707C10.1582 12.2853 10.4064 12.1764 10.6683 12.1657C10.7027 12.1644 10.7363 12.155 10.7663 12.1382C10.7963 12.1214 10.822 12.0977 10.8411 12.0691C10.8602 12.0405 10.8723 12.0078 10.8763 11.9737C10.8803 11.9395 10.8762 11.9049 10.8642 11.8726C10.7743 11.6274 10.7797 11.3575 10.8793 11.1161C10.9789 10.8747 11.1654 10.6795 11.4021 10.5691ZM6.8996 18.2455L7.02011 18.366V14.5128C6.96519 14.5128 6.91231 14.5333 6.87214 14.5706C6.75238 14.6831 6.60735 14.7651 6.44926 14.8097C6.29117 14.8544 6.12467 14.8604 5.96378 14.8272C5.80303 14.7958 5.65215 14.7264 5.52377 14.6247C5.39539 14.523 5.29326 14.392 5.22594 14.2427C5.20278 14.1929 5.16172 14.1536 5.11091 14.1326C5.06011 14.1116 5.00327 14.1105 4.95171 14.1296C4.8271 14.1738 4.69511 14.1935 4.5627 14.1882V18.366L5.50263 17.4261C5.5795 17.3492 5.68374 17.306 5.79243 17.306C5.90113 17.306 6.00537 17.3492 6.08224 17.4261L6.8996 18.2455ZM7.02011 22.4651L7.96004 21.5252C8.03691 21.4483 8.14115 21.4051 8.24984 21.4051C8.35854 21.4051 8.46278 21.4483 8.53965 21.5252L9.47957 22.4651V14.1874C9.34717 14.1927 9.21518 14.173 9.09057 14.1287C9.03912 14.1096 8.98235 14.1106 8.93159 14.1315C8.88084 14.1524 8.83983 14.1917 8.81675 14.2415C8.74924 14.3911 8.64676 14.5224 8.51792 14.6242C8.38909 14.726 8.23768 14.7953 8.07645 14.8264C7.99857 14.842 7.91946 14.8485 7.83993 14.8465V19.3555C7.83992 19.4366 7.81587 19.5158 7.77082 19.5832C7.72578 19.6506 7.66177 19.7031 7.58688 19.7341C7.51199 19.7651 7.42958 19.7733 7.35008 19.7575C7.27058 19.7416 7.19754 19.7026 7.14022 19.6453L7.02011 19.5252V22.4651ZM0.871466 19.3555C0.871466 19.6816 1.00103 19.9944 1.23165 20.2251C1.46227 20.4557 1.77505 20.5852 2.1012 20.5852H6.20029V18.7054L5.79038 18.2955L4.44055 19.6453C4.38322 19.7026 4.31019 19.7416 4.23069 19.7575C4.15119 19.7733 4.06878 19.7651 3.99389 19.7341C3.919 19.7031 3.85499 19.6506 3.80995 19.5832C3.7649 19.5158 3.74085 19.4366 3.74084 19.3555V13.7426C3.62606 13.5819 3.56088 13.3917 3.55269 13.1946C3.55027 13.1397 3.52737 13.0878 3.48851 13.049C3.44966 13.0102 3.39767 12.9874 3.34281 12.9851C3.17899 12.9788 3.01899 12.9337 2.87593 12.8537C2.73286 12.7736 2.6108 12.6608 2.51974 12.5244C2.42868 12.3881 2.37121 12.2322 2.35204 12.0693C2.33287 11.9065 2.35254 11.7415 2.40945 11.5877C2.42832 11.5363 2.42717 11.4796 2.40621 11.4289C2.38525 11.3783 2.34603 11.3374 2.29631 11.3143C2.14727 11.2458 2.01657 11.143 1.91494 11.0143C1.81331 10.8855 1.74364 10.7345 1.71165 10.5737C1.67965 10.4128 1.68623 10.2466 1.73086 10.0888C1.77549 9.93095 1.85689 9.78594 1.96838 9.66564C2.00554 9.62524 2.02617 9.57235 2.02617 9.51746C2.02617 9.46257 2.00554 9.40968 1.96838 9.36928C1.85688 9.24902 1.77548 9.10404 1.73085 8.94624C1.68622 8.78843 1.67964 8.62229 1.71164 8.46145C1.74364 8.30061 1.81331 8.14964 1.91495 8.02094C2.01658 7.89223 2.14727 7.78945 2.29631 7.72103C2.34617 7.6981 2.38554 7.65722 2.40659 7.60654C2.42764 7.55587 2.4288 7.49912 2.40986 7.44762C2.35295 7.29387 2.33328 7.12882 2.35245 6.966C2.37162 6.80317 2.42908 6.64721 2.52015 6.51088C2.61121 6.37455 2.73327 6.26173 2.87634 6.18166C3.0194 6.10159 3.1794 6.05655 3.34322 6.05024C3.39807 6.04793 3.45007 6.02513 3.48892 5.98635C3.52778 5.94757 3.55068 5.89562 3.5531 5.84077C3.55922 5.67689 3.60411 5.5168 3.68408 5.37362C3.76405 5.23045 3.87681 5.10827 4.01314 5.01711C4.14946 4.92595 4.30545 4.8684 4.46831 4.84919C4.63118 4.82998 4.79628 4.84965 4.95007 4.90659C5.0015 4.92601 5.05838 4.92517 5.10922 4.90424C5.16005 4.88331 5.20104 4.84386 5.22389 4.79386C5.29236 4.64482 5.39519 4.51412 5.52393 4.41249C5.65267 4.31086 5.80367 4.24119 5.96454 4.20919C6.12541 4.1772 6.29157 4.18378 6.44941 4.22841C6.60724 4.27304 6.75225 4.35444 6.87255 4.46593C6.91288 4.50307 6.9657 4.52368 7.02052 4.52368C7.07535 4.52368 7.12817 4.50307 7.1685 4.46593C7.28876 4.35443 7.43374 4.27303 7.59154 4.2284C7.74935 4.18377 7.91549 4.17719 8.07633 4.20919C8.23717 4.24119 8.38814 4.31086 8.51684 4.41249C8.64555 4.51413 8.74833 4.64482 8.81675 4.79386C8.83968 4.8439 8.88072 4.88339 8.93161 4.90438C8.98249 4.92537 9.03943 4.92631 9.09098 4.907C9.24477 4.85006 9.40987 4.83039 9.57273 4.8496C9.7356 4.86881 9.89159 4.92636 10.0279 5.01752C10.1642 5.10868 10.277 5.23086 10.357 5.37403C10.4369 5.51721 10.4818 5.6773 10.488 5.84118C10.4904 5.89603 10.5133 5.94798 10.5521 5.98676C10.591 6.02554 10.643 6.04834 10.6978 6.05065C10.8617 6.05696 11.0216 6.102 11.1647 6.18207C11.3078 6.26214 11.4298 6.37496 11.5209 6.51129C11.612 6.64762 11.6694 6.80358 11.6886 6.96641C11.7078 7.12923 11.6881 7.29428 11.6312 7.44803C11.6123 7.49949 11.6135 7.55616 11.6344 7.6068C11.6554 7.65744 11.6946 7.69836 11.7443 7.72144C11.8934 7.78991 12.0241 7.89274 12.1257 8.02148C12.2273 8.15022 12.297 8.30122 12.329 8.46209C12.361 8.62296 12.3544 8.78912 12.3098 8.94696C12.2652 9.10479 12.1838 9.2498 12.0723 9.3701C12.0351 9.4105 12.0145 9.46339 12.0145 9.51828C12.0145 9.57317 12.0351 9.62606 12.0723 9.66646C12.1838 9.78672 12.2652 9.9317 12.3098 10.0895C12.3544 10.2473 12.361 10.4134 12.329 10.5743C12.297 10.7351 12.2273 10.8861 12.1257 11.0148C12.0241 11.1435 11.8934 11.2463 11.7443 11.3147C11.6945 11.3376 11.6551 11.3785 11.634 11.4292C11.613 11.4799 11.6118 11.5366 11.6308 11.5881C11.6877 11.7419 11.7074 11.9069 11.6882 12.0697C11.669 12.2326 11.6116 12.3885 11.5205 12.5249C11.4294 12.6612 11.3074 12.774 11.1643 12.8541C11.0212 12.9341 10.8612 12.9792 10.6974 12.9855C10.5839 12.9904 10.4925 13.0814 10.4875 13.195C10.4793 13.3917 10.4138 13.5819 10.2994 13.7426V20.5852H22.5967C22.9228 20.5852 23.2356 20.4557 23.4662 20.2251C23.6969 19.9944 23.8264 19.6816 23.8264 19.3555V4.59874C23.8264 4.2726 23.6969 3.95981 23.4662 3.72919C23.2356 3.49857 22.9228 3.36901 22.5967 3.36901H2.1012C1.77505 3.36901 1.46227 3.49857 1.23165 3.72919C1.00103 3.95981 0.871466 4.2726 0.871466 4.59874V19.3555Z" fill="white"/>
<path id="Vector_2" d="M20.1362 17.3061C20.4624 17.3061 20.7752 17.1765 21.0058 16.9459C21.2364 16.7153 21.366 16.4025 21.366 16.0764V7.87816C21.366 7.55202 21.2364 7.23923 21.0058 7.00861C20.7752 6.77799 20.4624 6.64843 20.1362 6.64843H12.7579C12.6491 6.64843 12.5449 6.60525 12.468 6.52837C12.3911 6.4515 12.348 6.34724 12.348 6.23852C12.348 6.12981 12.3911 6.02555 12.468 5.94867C12.5449 5.8718 12.6491 5.82861 12.7579 5.82861H20.1362C20.6796 5.82926 21.2005 6.04541 21.5848 6.42963C21.969 6.81386 22.1851 7.33479 22.1858 7.87816V16.0764C22.1851 16.6197 21.969 17.1407 21.5848 17.5249C21.2005 17.9091 20.6796 18.1253 20.1362 18.1259H12.348C12.2392 18.1259 12.135 18.0827 12.0581 18.0059C11.9812 17.929 11.938 17.8247 11.938 17.716C11.938 17.6073 11.9812 17.503 12.0581 17.4262C12.135 17.3493 12.2392 17.3061 12.348 17.3061H20.1362Z" fill="white"/>
<path id="Vector_3" d="M19.7268 12.3872H13.9881C13.8794 12.3872 13.7751 12.344 13.6982 12.2671C13.6214 12.1902 13.5782 12.086 13.5782 11.9773C13.5782 11.8686 13.6214 11.7643 13.6982 11.6874C13.7751 11.6105 13.8794 11.5674 13.9881 11.5674H19.7268C19.8355 11.5674 19.9398 11.6105 20.0167 11.6874C20.0935 11.7643 20.1367 11.8686 20.1367 11.9773C20.1367 12.086 20.0935 12.1902 20.0167 12.2671C19.9398 12.344 19.8355 12.3872 19.7268 12.3872ZM19.7268 10.7475H13.9881C13.8794 10.7475 13.7751 10.7043 13.6982 10.6275C13.6214 10.5506 13.5782 10.4463 13.5782 10.3376C13.5782 10.2289 13.6214 10.1246 13.6982 10.0478C13.7751 9.9709 13.8794 9.92772 13.9881 9.92772H19.7268C19.8355 9.92772 19.9398 9.9709 20.0167 10.0478C20.0935 10.1246 20.1367 10.2289 20.1367 10.3376C20.1367 10.4463 20.0935 10.5506 20.0167 10.6275C19.9398 10.7043 19.8355 10.7475 19.7268 10.7475ZM19.7268 9.1079H13.9881C13.8794 9.1079 13.7751 9.06471 13.6982 8.98784C13.6214 8.91096 13.5782 8.8067 13.5782 8.69799C13.5782 8.58927 13.6214 8.48501 13.6982 8.40814C13.7751 8.33126 13.8794 8.28808 13.9881 8.28808H19.7268C19.8355 8.28808 19.9398 8.33126 20.0167 8.40814C20.0935 8.48501 20.1367 8.58927 20.1367 8.69799C20.1367 8.8067 20.0935 8.91096 20.0167 8.98784C19.9398 9.06471 19.8355 9.1079 19.7268 9.1079ZM20.1027 16.2403C20.0812 16.2897 20.0502 16.3344 20.0114 16.3717C19.9726 16.4091 19.9268 16.4385 19.8767 16.4582C19.8266 16.4778 19.773 16.4875 19.7192 16.4864C19.6653 16.4854 19.6122 16.4738 19.5628 16.4523C19.1834 16.3113 18.8346 16.0985 18.5356 15.8255C18.4246 15.7147 18.3276 15.5909 18.2466 15.4566C18.09 15.6328 17.9064 15.7821 17.7019 15.8993C17.417 16.0854 17.0624 16.1309 16.7398 16.0223C16.616 15.9743 16.5041 15.9001 16.4119 15.805C16.2262 15.921 16.022 16.0034 15.8081 16.0489L15.4982 16.1223C14.8657 16.3076 14.2086 16.3945 13.5495 16.3805C13.4958 16.3766 13.4434 16.3622 13.3952 16.3381C13.3471 16.314 13.3042 16.2806 13.269 16.2399C13.2338 16.1992 13.2069 16.1519 13.1899 16.1008C13.173 16.0497 13.1662 15.9958 13.1701 15.9421C13.174 15.8884 13.1884 15.836 13.2125 15.7879C13.2366 15.7398 13.27 15.6969 13.3107 15.6616C13.3514 15.6264 13.3987 15.5995 13.4498 15.5826C13.5009 15.5656 13.5548 15.5589 13.6085 15.5627C14.1836 15.5701 14.7562 15.4902 15.3072 15.325L15.624 15.25C16.0065 15.1619 16.1048 15.0077 16.1454 14.8991C16.18 14.8068 16.2466 14.7301 16.3331 14.683C16.4196 14.6358 16.5202 14.6214 16.6165 14.6423C16.7128 14.6633 16.7983 14.7182 16.8573 14.7971C16.9164 14.8759 16.9451 14.9734 16.9382 15.0717C16.9359 15.1078 16.9432 15.1439 16.9592 15.1763C16.9753 15.2087 16.9995 15.2364 17.0296 15.2565C17.1254 15.2687 17.2222 15.2438 17.3001 15.1869C17.6316 14.9805 17.8809 14.6651 18.0052 14.2949C18.0393 14.2027 18.1055 14.1258 18.1915 14.0783C18.2776 14.0307 18.3779 14.0158 18.4742 14.036C18.5704 14.0563 18.6561 14.1105 18.7157 14.1887C18.7753 14.267 18.8048 14.364 18.7988 14.4621C18.7954 14.6072 18.8218 14.7514 18.8763 14.8859C18.9309 15.0204 19.0125 15.1422 19.116 15.2438C19.3437 15.4429 19.6064 15.5977 19.8908 15.7005C19.9402 15.722 19.9848 15.753 20.0222 15.7918C20.0596 15.8306 20.0889 15.8763 20.1086 15.9265C20.1283 15.9766 20.1379 16.0301 20.1369 16.084C20.1359 16.1378 20.1243 16.191 20.1027 16.2403ZM7.0196 12.7971C6.37102 12.7971 5.73701 12.6048 5.19773 12.2444C4.65846 11.8841 4.23815 11.3719 3.98994 10.7727C3.74174 10.1735 3.6768 9.51417 3.80334 8.87805C3.92987 8.24193 4.24219 7.65762 4.7008 7.19901C5.15942 6.74039 5.74373 6.42807 6.37985 6.30154C7.01597 6.17501 7.67532 6.23995 8.27453 6.48815C8.87374 6.73635 9.38589 7.15666 9.74623 7.69594C10.1066 8.23521 10.2989 8.86923 10.2989 9.51781C10.2979 10.3872 9.9521 11.2208 9.33733 11.8355C8.72255 12.4503 7.88902 12.7961 7.0196 12.7971ZM7.0196 7.05835C6.69662 7.05835 6.37681 7.12196 6.07841 7.24556C5.78001 7.36916 5.50889 7.55032 5.2805 7.77871C5.05212 8.00709 4.87096 8.27822 4.74736 8.57661C4.62376 8.87501 4.56015 9.19483 4.56015 9.51781C4.56015 9.84079 4.62376 10.1606 4.74736 10.459C4.87096 10.7574 5.05212 11.0285 5.2805 11.2569C5.50889 11.4853 5.78001 11.6665 6.07841 11.7901C6.37681 11.9137 6.69662 11.9773 7.0196 11.9773C7.67189 11.9773 8.29747 11.7181 8.75871 11.2569C9.21994 10.7957 9.47906 10.1701 9.47906 9.51781C9.47906 8.86552 9.21994 8.23994 8.75871 7.77871C8.29747 7.31747 7.67189 7.05835 7.0196 7.05835Z" fill="white"/>
</g>
</g>
</g>
<defs>
<clipPath id="clip0_2773_188247">
<rect width="24.5946" height="23.5698" fill="white" transform="matrix(-1 0 0 1 24.6462 0.595703)"/>
</clipPath>
</defs>
</svg>
