<svg width="25" height="25" viewBox="0 0 25 25" fill="none" xmlns="http://www.w3.org/2000/svg">
<g id="svgexport-17 - 2023-09-05T124136.329 1" clip-path="url(#clip0_2773_188227)">
<g id="Group">
<path id="Vector" d="M12.3489 24.6356C5.56904 24.6356 0.0516453 19.1182 0.0516453 12.3383C0.0516453 5.55842 5.56898 0.0410156 12.3489 0.0410156C19.1289 0.0410156 24.6462 5.55842 24.6462 12.3383C24.6462 19.1182 19.1288 24.6356 12.3489 24.6356ZM12.3489 1.68063C6.47086 1.68063 1.69126 6.46016 1.69126 12.3383C1.69126 18.2165 6.47079 22.996 12.3489 22.996C18.2271 22.996 23.0066 18.2165 23.0066 12.3383C23.0066 6.46016 18.227 1.68063 12.3489 1.68063Z" fill="white"/>
<path id="Vector_2" d="M8.76144 16.2572C8.60975 16.3801 8.42944 16.4376 8.24906 16.4376C8.12621 16.4378 8.00488 16.4103 7.89415 16.3571C7.78343 16.3038 7.68616 16.2263 7.60963 16.1301C7.32678 15.7776 7.38421 15.2611 7.73668 14.9783L11.5284 11.9449V5.77989C11.5284 5.32898 11.8973 4.96008 12.3482 4.96008C12.7991 4.96008 13.168 5.32898 13.168 5.77989V12.3385C13.168 12.5885 13.0532 12.8222 12.8605 12.9779L8.76144 16.2572Z" fill="white"/>
</g>
</g>
<defs>
<clipPath id="clip0_2773_188227">
<rect width="24.5946" height="24.5946" fill="white" transform="matrix(-1 0 0 1 24.6462 0.0410156)"/>
</clipPath>
</defs>
</svg>
