<svg width="22" height="25" viewBox="0 0 22 25" fill="none" xmlns="http://www.w3.org/2000/svg">
<g id="svgexport-17 - 2023-09-04T191203.224 1" clip-path="url(#clip0_2773_188290)">
<g id="Group">
<path id="Vector" d="M0.709293 5.73135L5.60952 0.918586C5.74095 0.789539 5.91779 0.717252 6.10198 0.717285L18.4906 0.717285C19.9362 0.717285 21.1125 1.89338 21.1125 3.33926V22.0809C21.1125 23.5266 19.9365 24.7029 18.4906 24.7029H3.12102C1.67532 24.7029 0.499044 23.5268 0.499044 22.0809V6.23275C0.499035 6.1394 0.517626 6.04698 0.553734 5.96089C0.58984 5.8748 0.64274 5.79677 0.709341 5.73135H0.709293ZM5.39927 3.09514L2.92004 5.53005H5.17586C5.23509 5.52996 5.29188 5.50639 5.33376 5.4645C5.37564 5.42261 5.3992 5.36582 5.39927 5.30659V3.09514ZM3.12097 23.2975H18.4906C19.1613 23.2975 19.7071 22.7518 19.7071 22.0809V3.3393C19.7071 2.66841 19.1615 2.12269 18.4906 2.12269H6.80449V5.30664C6.80449 6.20478 6.07377 6.9355 5.17563 6.9355H1.90441V22.0809C1.90441 22.7517 2.45012 23.2974 3.12102 23.2974L3.12097 23.2975Z" fill="white"/>
<path id="Vector_2" d="M5.92548 11.8668H15.8315C16.2196 11.8668 16.5342 12.1814 16.5342 12.5695C16.5342 12.9577 16.2196 13.2722 15.8315 13.2722H5.92552C5.5374 13.2722 5.22282 12.9577 5.22282 12.5695C5.22282 12.1814 5.53735 11.8668 5.92548 11.8668ZM15.8314 16.083H7.75438C7.36621 16.083 7.05167 15.7685 7.05167 15.3803C7.05167 14.9922 7.36621 14.6776 7.75438 14.6776H15.8314C16.2196 14.6776 16.5341 14.9922 16.5341 15.3803C16.5341 15.7685 16.2196 16.083 15.8314 16.083ZM6.77992 17.4884H15.8314C16.2196 17.4884 16.5341 17.803 16.5341 18.1911C16.5341 18.5793 16.2196 18.8938 15.8314 18.8938H6.77992C6.39198 18.8938 6.07721 18.5793 6.07721 18.1911C6.07721 17.803 6.39198 17.4884 6.77992 17.4884Z" fill="white"/>
</g>
</g>
<defs>
<clipPath id="clip0_2773_188290">
<rect width="21.0811" height="23.9856" fill="white" transform="matrix(-1 0 0 1 21.1599 0.717285)"/>
</clipPath>
</defs>
</svg>
