<svg width="22" height="22" viewBox="0 0 22 22" fill="none" xmlns="http://www.w3.org/2000/svg">
<g id="svgexport-17 (49) 1" clip-path="url(#clip0_2773_188271)">
<g id="Group">
<path id="Vector" d="M7.63908 10.695C6.29018 9.71119 5.41178 8.11907 5.41178 6.32545C5.41178 3.3449 7.83664 0.920044 10.8172 0.920044C13.7977 0.920044 16.2226 3.3449 16.2226 6.32545C16.2226 8.11907 15.3442 9.71119 13.9953 10.695C17.3485 11.9781 19.7361 15.2293 19.7361 19.0282C19.7361 20.6675 18.4024 22.0011 16.7631 22.0011H4.87125C3.23195 22.0011 1.89828 20.6675 1.89828 19.0282C1.89828 15.2293 4.28588 11.9781 7.63908 10.695ZM14.6009 6.32545C14.6009 4.23908 12.9035 2.54168 10.8172 2.54168C8.73081 2.54168 7.03342 4.23908 7.03342 6.32545C7.03342 8.41182 8.73081 10.1093 10.8172 10.1093C12.9035 10.1093 14.6009 8.41182 14.6009 6.32545ZM4.87125 20.3795H16.7631C17.5082 20.3795 18.1144 19.7733 18.1144 19.0281C18.1144 15.0043 14.8409 11.7308 10.8171 11.7308C6.79333 11.7308 3.51983 15.0043 3.51983 19.0281C3.51988 19.7733 4.12608 20.3795 4.87125 20.3795Z" fill="#3ABD4C"/>
</g>
</g>
<defs>
<clipPath id="clip0_2773_188271">
<rect width="21.0811" height="21.0811" fill="white" transform="matrix(-1 0 0 1 21.3591 0.919922)"/>
</clipPath>
</defs>
</svg>
