<svg width="29" height="30" viewBox="0 0 29 30" fill="none" xmlns="http://www.w3.org/2000/svg">
<g clip-path="url(#clip0_3137_8514)">
<g clip-path="url(#clip1_3137_8514)">
<path d="M18.7643 13.9724C20.5744 12.6523 21.7531 10.5158 21.7531 8.10897C21.7531 4.10938 18.4992 0.855469 14.4996 0.855469C10.5 0.855469 7.2461 4.10938 7.2461 8.10897C7.2461 10.5158 8.42478 12.6523 10.2349 13.9724C5.73525 15.6943 2.53134 20.057 2.53134 25.1547C2.53134 27.3545 4.32099 29.1441 6.52076 29.1441H22.4784C24.6782 29.1441 26.4679 27.3545 26.4679 25.1547C26.4679 20.057 23.2639 15.6943 18.7643 13.9724ZM9.42217 8.10897C9.42217 5.30928 11.6999 3.03154 14.4996 3.03154C17.2993 3.03154 19.577 5.30928 19.577 8.10897C19.577 10.9087 17.2993 13.1865 14.4996 13.1865C11.6999 13.1865 9.42217 10.9087 9.42217 8.10897ZM22.4784 26.9681H6.52076C5.52088 26.9681 4.70741 26.1546 4.70741 25.1547C4.70741 19.7552 9.10011 15.3624 14.4997 15.3624C19.8992 15.3624 24.2919 19.7551 24.2919 25.1547C24.2918 26.1546 23.4784 26.9681 22.4784 26.9681Z" fill="white"/>
</g>
</g>
<defs>
<clipPath id="clip0_3137_8514">
<rect width="28.2887" height="28.2887" fill="white" transform="translate(0.355103 0.855469)"/>
</clipPath>
<clipPath id="clip1_3137_8514">
<rect width="28.2887" height="28.2887" fill="white" transform="translate(0.355103 0.855469)"/>
</clipPath>
</defs>
</svg>
