<svg xmlns="http://www.w3.org/2000/svg" width="18" height="18" viewBox="0 0 18 18" fill="none">
  <path d="M10.6567 13.65C10.7863 13.65 10.9158 13.6023 11.0181 13.5L15.1567 9.36137C15.2518 9.26514 15.3052 9.1353 15.3052 9.00001C15.3052 8.86472 15.2518 8.73488 15.1567 8.63865L11.0181 4.50001C10.8204 4.30228 10.4931 4.30228 10.2954 4.50001C10.0977 4.69774 10.0977 5.02501 10.2954 5.22274L14.0727 9.00001L10.2954 12.7773C10.0977 12.975 10.0977 13.3023 10.2954 13.5C10.3908 13.6023 10.5272 13.65 10.6567 13.65Z" fill="white"/>
  <path d="M3.20455 9.51137H14.6796C14.9591 9.51137 15.1909 9.27956 15.1909 9.00001C15.1909 8.72047 14.9591 8.48865 14.6796 8.48865H3.20455C2.92501 8.48865 2.69319 8.72047 2.69319 9.00001C2.69319 9.27956 2.92501 9.51137 3.20455 9.51137Z" fill="white"/>
</svg>