<svg width="25" height="24" viewBox="0 0 25 24" fill="none" xmlns="http://www.w3.org/2000/svg">
<path d="M4.8584 20.0001H20.8584M4.8584 20.0001V16.0001L12.8584 8.00012M4.8584 20.0001L8.8584 20.0001L16.8584 12.0001M12.8584 8.00012L15.727 5.13146L15.7288 5.12976C16.1236 4.73488 16.3214 4.53709 16.5494 4.46301C16.7503 4.39775 16.9666 4.39775 17.1675 4.46301C17.3953 4.53704 17.5929 4.7346 17.9872 5.12892L19.727 6.86872C20.123 7.26474 20.3211 7.46284 20.3953 7.69117C20.4606 7.89201 20.4605 8.10835 20.3953 8.3092C20.3212 8.53736 20.1234 8.73516 19.7279 9.13061L19.727 9.13146L16.8584 12.0001M12.8584 8.00012L16.8584 12.0001" stroke="white" stroke-width="2" stroke-linecap="round" stroke-linejoin="round"/>
</svg>
