<svg width="23" height="27" viewBox="0 0 23 27" fill="none" xmlns="http://www.w3.org/2000/svg">
<g clip-path="url(#clip0_372_3861)">
<g opacity="0.46" filter="url(#filter0_f_372_3861)">
<path d="M22.1278 18.3914C21.3558 18.6008 18.9452 18.7382 18.3187 16.747C15.6674 9.12871 44.8483 8.82666 48.54 8.82666C51.4933 8.82666 47.3039 10.1579 46.0733 11.5786C44.1715 13.0777 30.3434 16.1629 22.1278 18.3914Z" fill="url(#paint0_linear_372_3861)" fill-opacity="0.5"/>
</g>
<g opacity="0.46" filter="url(#filter1_f_372_3861)">
<path d="M4.04622 27.5545C3.2743 27.7639 0.863614 27.9013 0.237149 25.9101C-2.41414 18.2918 26.7668 17.9897 30.4584 17.9897C33.4118 17.9897 29.2223 19.321 27.9918 20.7417C26.09 22.2408 12.2618 25.326 4.04622 27.5545Z" fill="url(#paint1_linear_372_3861)" fill-opacity="0.5"/>
</g>
<g filter="url(#filter2_f_372_3861)">
<path d="M11.6794 11.2092L13.0453 21.6804L4.12986 22.0806L11.6794 11.2092Z" fill="url(#paint2_linear_372_3861)"/>
</g>
<path d="M5.04492 16.1116L11.567 12.7876L11.5794 12.7895C12.0303 12.8578 12.2768 13.3529 12.0594 13.7538L5.53736 17.0778L5.04492 16.1116Z" fill="#5B5B5B"/>
<path d="M20.7349 8.91989L17.6248 6.91357L17.6261 17.1394L20.7362 19.1457L20.7349 8.91989Z" fill="#969696"/>
<path d="M18.4866 7.34238L14.0483 4.76294L16.2965 6.34059L20.7347 8.92002L18.4866 7.34238Z" fill="#9B9A9A"/>
<path d="M18.4797 5.10333L14.0415 2.52417L14.048 4.76281L18.4862 7.34224L18.4797 5.10333Z" fill="#969696"/>
<path d="M18.1539 0.0114241C18.123 -0.00646983 18.0799 -0.00402973 18.0322 0.0236245L2.57739 9.08252L7.01563 11.6617L22.4705 2.60279C22.5182 2.57513 22.5613 2.5727 22.5922 2.59059L21.8269 0.27112L18.1539 0.0114241Z" fill="url(#paint3_linear_372_3861)"/>
<path d="M14.2128 2.22876C14.1187 2.28325 14.042 2.4161 14.0422 2.52428L18.4805 5.10345C18.4802 4.99527 18.5569 4.86242 18.651 4.80792L14.2128 2.22876Z" fill="#E0DFDC"/>
<path d="M22.4701 2.60294C22.5655 2.5479 22.6414 2.59264 22.6417 2.70082L22.6577 18.0362L20.7357 19.1459L20.7344 8.92004L19.407 7.98847L18.1663 7.18485L18.4797 5.10348C18.4795 4.99531 18.5562 4.86246 18.6503 4.80796L22.4701 2.60294Z" fill="#B3B3B3"/>
<path d="M9.02949 11.6949C9.02949 11.805 8.95222 11.8497 8.85678 11.7947C8.76135 11.7396 8.68408 11.6057 8.68408 11.4956C8.68408 11.3856 8.76135 11.3408 8.85678 11.3959C8.95222 11.4512 9.02949 11.5848 9.02949 11.6949Z" fill="#969696"/>
<path d="M18.5707 1.5027L16.8223 2.51235L15.8682 1.96144C15.7451 1.8904 15.7451 1.77409 15.8682 1.70306L17.2186 0.923317C17.3146 0.868009 17.4716 0.868009 17.5673 0.923317L18.5707 1.5027Z" fill="#302E2D"/>
<path d="M20.816 3.05743L19.4656 3.83717C19.3696 3.89248 19.2126 3.89248 19.1169 3.83717L17.0195 2.62635L18.7683 1.6167L20.8163 2.79905C20.9391 2.87009 20.9391 2.9864 20.816 3.05743Z" fill="#434040"/>
<path opacity="0.5" d="M20.5547 2.77379L20.33 2.74098C20.3102 2.738 20.2909 2.7342 20.2725 2.72905C20.2128 2.71278 20.0651 2.67076 19.9802 2.6328C19.9268 2.60894 19.7132 2.57587 19.7034 2.57451C19.5752 2.55987 19.3176 2.58156 19.2778 2.58509L18.751 2.38825C18.6913 2.36602 18.6113 2.37578 18.5726 2.41048L18.1326 2.80361C18.0941 2.83804 18.1111 2.8844 18.1708 2.90663L19.2609 3.31359C19.3206 3.33582 19.4006 3.32606 19.4393 3.29135L19.5711 3.17369C19.583 3.18155 19.5977 3.18779 19.6145 3.19185C19.6443 3.19917 19.6774 3.19944 19.7075 3.19239C19.7311 3.18697 19.7506 3.17748 19.7641 3.16555C19.7804 3.17803 19.8051 3.19619 19.8417 3.20541C19.8715 3.21273 19.9046 3.213 19.9347 3.20595C19.9583 3.20053 19.9778 3.19104 19.9913 3.17911C19.9951 3.17586 19.9984 3.17233 20.0011 3.16854L20.0426 3.11214C20.2332 3.1219 20.4051 3.13221 20.4821 3.13682C20.5043 3.13817 20.5249 3.13194 20.5363 3.1219C20.5409 3.11784 20.5442 3.11296 20.545 3.1078L20.6027 2.81418C20.6065 2.79547 20.5856 2.77812 20.5547 2.77379ZM19.4179 3.28295C19.387 3.3106 19.323 3.31847 19.2753 3.30057L18.1851 2.89362C18.1374 2.87573 18.1236 2.83885 18.1545 2.8112L18.5945 2.41808C18.6254 2.39042 18.6894 2.38256 18.7371 2.40045L19.7888 2.79303C19.8311 2.80876 19.8485 2.84021 19.8308 2.86922C19.8162 2.89362 19.7742 2.91802 19.6991 2.91395C19.6991 2.91395 19.5386 2.91016 19.3827 2.90582C19.2978 2.90338 19.2441 2.93863 19.2371 2.97306C19.2273 3.01915 19.2848 3.06253 19.3678 3.07175C19.4342 3.07934 19.5139 3.08503 19.6321 3.09127L19.4179 3.28295ZM19.698 3.1783C19.6744 3.18372 19.6484 3.18372 19.6248 3.17775C19.6093 3.17396 19.5961 3.16772 19.586 3.15986L19.6609 3.09289C19.6985 3.09479 19.7408 3.09696 19.7866 3.09913L19.7501 3.14847C19.7403 3.1623 19.7216 3.17287 19.698 3.1783ZM19.9772 3.1623C19.9672 3.17586 19.9485 3.18643 19.9249 3.19185C19.9013 3.19727 19.8753 3.19728 19.8517 3.19131C19.8029 3.17938 19.7801 3.14658 19.8007 3.11865C19.8007 3.11811 19.8138 3.10076 19.8138 3.10076C19.8325 3.10157 19.852 3.10265 19.8723 3.10347C19.9203 3.10564 19.9683 3.10808 20.0155 3.11052L19.9772 3.1623ZM20.5772 2.81228L20.5195 3.10591C20.5176 3.11594 20.5019 3.12299 20.4848 3.1219C20.3853 3.11594 20.1266 3.10048 19.8745 3.08856C19.6104 3.07636 19.4751 3.06876 19.3724 3.05738C19.3027 3.04951 19.2542 3.01346 19.2623 2.97496C19.2642 2.96601 19.2696 2.95733 19.2786 2.94947C19.2978 2.93212 19.3331 2.91965 19.3813 2.921C19.5367 2.92534 19.6972 2.92914 19.6972 2.92914C19.7864 2.93402 19.8371 2.90392 19.855 2.87437C19.8764 2.83885 19.8547 2.80008 19.8027 2.78083L19.3106 2.59729C19.3908 2.59105 19.5933 2.57695 19.6975 2.58888C19.6996 2.58915 19.9152 2.6225 19.9642 2.64446C20.0513 2.6835 20.2009 2.72607 20.2614 2.74234C20.2812 2.74776 20.3021 2.7521 20.3235 2.75535L20.5482 2.78815C20.5669 2.79087 20.5794 2.80117 20.5772 2.81228ZM18.3511 2.22477C18.3589 2.22314 18.389 2.25622 18.3757 2.25866C18.1336 2.30854 17.8053 2.51053 17.8533 2.75101C17.8549 2.75914 17.7904 2.75969 17.7893 2.75481C17.7394 2.50511 18.0987 2.27682 18.3511 2.22477ZM18.411 2.32834C18.4191 2.32617 18.4514 2.35816 18.4389 2.36141C18.2459 2.41048 18.0347 2.53845 18.0504 2.73773C18.0509 2.74559 17.9894 2.74722 17.9891 2.74206C17.9731 2.53412 18.2082 2.38012 18.411 2.32834ZM18.2996 2.14289C17.9861 2.21013 17.6093 2.48667 17.6594 2.76647C17.6611 2.7746 17.5925 2.77568 17.5914 2.77053C17.5412 2.49019 17.9466 2.17868 18.2741 2.10846C18.2822 2.10683 18.3128 2.13991 18.2996 2.14289Z" fill="#4F4A4A"/>
<path d="M17.7992 1.53518L16.8492 1.46523C16.8316 1.46387 16.8167 1.47255 16.8191 1.48258L16.9403 2.03106C16.943 2.0438 16.9704 2.04922 16.9861 2.04L17.8149 1.56148C17.8307 1.55253 17.8214 1.5368 17.7992 1.53518Z" fill="#91C416"/>
<path d="M1.92334 16.7826L6.36157 14.2031V25.7566L3.93102 26.9766L1.92334 16.7826Z" fill="#969696"/>
<path d="M4.17138 15.2049L8.60962 12.6255L6.36149 14.2031L1.92325 16.7826L4.17138 15.2049Z" fill="#9B9A9A"/>
<path d="M4.1783 12.9662L18.9807 4.60938L18.9742 6.84801L4.17179 15.2051L4.1783 12.9662Z" fill="#B3B3B3"/>
<path d="M4.50439 7.87422C4.53529 7.85632 4.5784 7.85876 4.62612 7.88642L8.54272 10.1671L4.10449 12.7463L0.680243 12.4716L0.187878 10.4656C0.140161 10.4379 0.0970592 10.4355 0.0661516 10.4534L4.50439 7.87422Z" fill="url(#paint4_linear_372_3861)"/>
<path d="M22.234 2.44019C22.3281 2.49468 22.4048 2.62753 22.4045 2.73571L4.17765 12.9661C4.17792 12.8579 4.1012 12.7251 4.00712 12.6706L22.234 2.44019Z" fill="#E0DFDC"/>
<path d="M0.187628 10.4655C0.0921941 10.4105 0.0162816 10.4552 0.0160103 10.5634L1.66893e-05 25.8987L0.679894 27.0084H4.00744L4.17174 15.2047L4.17798 12.966C4.17825 12.8579 4.10152 12.725 4.00744 12.6705L0.679894 12.4716L0.187628 10.4655Z" fill="#B3B3B3"/>
<path d="M4.08699 9.36525L5.83544 10.3749L6.78952 9.82399C6.91261 9.75295 6.91261 9.63664 6.78952 9.56561L5.43907 8.78587C5.34309 8.73056 5.18612 8.73056 5.09041 8.78587L4.08699 9.36525Z" fill="#302E2D"/>
<path d="M1.84217 10.92L3.19263 11.6997C3.2886 11.755 3.44558 11.755 3.54129 11.6997L5.63867 10.4889L3.88994 9.47925L1.84191 10.6616C1.71909 10.7326 1.71908 10.8489 1.84217 10.92Z" fill="#434040"/>
<path opacity="0.5" d="M2.10347 10.6363L2.32823 10.6035C2.34802 10.6005 2.36727 10.5968 2.38571 10.5916C2.44536 10.5753 2.59311 10.5333 2.67797 10.4954C2.73138 10.4715 2.94503 10.4384 2.95479 10.4371C3.08303 10.4224 3.34059 10.4441 3.38044 10.4476L3.90723 10.2508C3.96688 10.2286 4.04686 10.2383 4.08563 10.273L4.52565 10.6662C4.56415 10.7006 4.54707 10.747 4.48743 10.7692L3.39725 11.1761C3.33761 11.1984 3.25763 11.1886 3.21886 11.1539L3.08709 11.0362C3.07516 11.0441 3.06052 11.0503 3.04371 11.0544C3.01389 11.0617 2.98081 11.062 2.95072 11.0549C2.92713 11.0495 2.90761 11.04 2.89406 11.0281C2.87779 11.0406 2.85312 11.0587 2.81652 11.068C2.78669 11.0753 2.75361 11.0755 2.72352 11.0685C2.69993 11.0631 2.68041 11.0536 2.66686 11.0417C2.66306 11.0384 2.6598 11.0349 2.65709 11.0311L2.61562 10.9747C2.42502 10.9845 2.25313 10.9948 2.17613 10.9994C2.1539 11.0007 2.13329 10.9945 2.1219 10.9845C2.11729 10.9804 2.11405 10.9755 2.11323 10.9704L2.05548 10.6767C2.05168 10.658 2.07256 10.6407 2.10347 10.6363ZM3.24027 11.1455C3.27118 11.1732 3.33517 11.181 3.38288 11.1631L4.47306 10.7562C4.52077 10.7383 4.5346 10.7014 4.50369 10.6737L4.06367 10.2806C4.03276 10.253 3.96878 10.2451 3.92106 10.263L2.86939 10.6556C2.82709 10.6713 2.80974 10.7028 2.82736 10.7318C2.842 10.7562 2.88402 10.7806 2.95913 10.7765C2.95913 10.7765 3.11963 10.7727 3.27552 10.7684C3.36038 10.7659 3.41407 10.8012 3.42112 10.8356C3.43088 10.8817 3.37339 10.9251 3.29043 10.9343C3.22401 10.9419 3.1443 10.9476 3.02609 10.9538L3.24027 11.1455ZM2.96021 11.0408C2.9838 11.0463 3.00982 11.0463 3.03341 11.0403C3.04886 11.0365 3.06215 11.0303 3.07218 11.0224L2.99735 10.9554C2.95966 10.9573 2.91737 10.9595 2.87155 10.9617L2.90815 11.011C2.91791 11.0248 2.93662 11.0354 2.96021 11.0408ZM2.68096 11.0248C2.69099 11.0384 2.70969 11.049 2.73328 11.0544C2.75687 11.0598 2.78289 11.0598 2.80648 11.0539C2.85528 11.0419 2.87806 11.0091 2.85746 10.9812C2.85746 10.9807 2.84444 10.9633 2.84444 10.9633C2.82573 10.9641 2.80621 10.9652 2.78588 10.966C2.73789 10.9682 2.6899 10.9706 2.64273 10.9731L2.68096 11.0248ZM2.08096 10.6748L2.13872 10.9685C2.14061 10.9785 2.15634 10.9855 2.17342 10.9845C2.27292 10.9785 2.53157 10.963 2.78371 10.9511C3.04778 10.9389 3.18307 10.9313 3.28582 10.9199C3.3555 10.9121 3.40403 10.876 3.3959 10.8375C3.394 10.8286 3.38858 10.8199 3.37963 10.812C3.36038 10.7947 3.32514 10.7822 3.27688 10.7836C3.12153 10.7879 2.96102 10.7917 2.96102 10.7917C2.87182 10.7966 2.82112 10.7665 2.80323 10.7369C2.78181 10.7014 2.8035 10.6626 2.85555 10.6434L3.34764 10.4598C3.26738 10.4536 3.06486 10.4395 2.96075 10.4514C2.95858 10.4517 2.74304 10.485 2.69397 10.507C2.60694 10.5461 2.45728 10.5886 2.39682 10.6049C2.37703 10.6103 2.35615 10.6146 2.33473 10.6179L2.10997 10.6507C2.09126 10.6534 2.07879 10.6637 2.08096 10.6748ZM4.30713 10.0873C4.29927 10.0857 4.26917 10.1188 4.28246 10.1212C4.52457 10.1711 4.85289 10.3731 4.80491 10.6136C4.80328 10.6217 4.86781 10.6222 4.8689 10.6174C4.91878 10.3677 4.55954 10.1394 4.30713 10.0873ZM4.24722 10.1909C4.23908 10.1887 4.20682 10.2207 4.21929 10.224C4.41233 10.273 4.62353 10.401 4.6078 10.6003C4.60726 10.6081 4.66881 10.6098 4.66908 10.6046C4.68508 10.3967 4.45002 10.2427 4.24722 10.1909ZM4.35864 10.0054C4.67206 10.0727 5.04892 10.3492 4.99876 10.629C4.99714 10.6371 5.06572 10.6382 5.06681 10.6331C5.11697 10.3527 4.71164 10.0412 4.38413 9.97101C4.37599 9.96938 4.34536 10.0025 4.35864 10.0054Z" fill="#4F4A4A"/>
<path d="M4.85875 9.39797L5.80876 9.32802C5.82638 9.32667 5.84129 9.33534 5.83885 9.34537L5.71766 9.89385C5.71495 9.90659 5.68756 9.91201 5.67184 9.9028L4.84302 9.42427C4.8273 9.41532 4.83652 9.3996 4.85875 9.39797Z" fill="#91C416"/>
<path d="M0.679509 26.9766V12.4716L0.00170898 10.4382V25.8921L0.679509 26.9766Z" fill="#686868"/>
<path d="M18.7544 15.1279C18.6491 15.2896 18.6456 15.582 18.7465 15.7806C18.8474 15.9792 19.0147 16.0093 19.12 15.8477C19.2253 15.686 19.2287 15.3936 19.1279 15.195C19.0269 14.9959 18.8597 14.9663 18.7544 15.1279Z" fill="#282626"/>
<path d="M18.5874 15.2915C18.4626 15.5058 18.5757 15.8669 18.9169 15.8729L18.9626 15.872C19.0188 15.8707 19.0739 15.8332 19.1158 15.7591C19.2006 15.6089 19.1972 15.3651 19.1081 15.2148C19.0628 15.1384 19.0039 15.1009 18.946 15.102L18.9003 15.1029C18.7663 15.108 18.6558 15.1747 18.5874 15.2915Z" fill="url(#paint5_radial_372_3861)"/>
<path d="M18.0537 14.8038C17.7683 15.242 17.8922 15.8286 18.3303 16.114C18.7684 16.3994 19.3551 16.2755 19.6405 15.8374C19.9258 15.3992 19.802 14.8126 19.3638 14.5272C18.9259 14.2415 18.3392 14.3654 18.0537 14.8038Z" fill="url(#paint6_radial_372_3861)"/>
<g filter="url(#filter3_f_372_3861)">
<path d="M11.6599 10.7092L12.4733 22.7741L18.9802 15.5894L11.6599 10.7092Z" fill="url(#paint7_linear_372_3861)"/>
</g>
<path d="M15.7942 17.8048C15.7942 19.7601 14.2088 21.3454 12.2533 21.3454C10.2975 21.3454 8.71216 19.7601 8.71216 17.8048C8.71216 15.849 10.2975 14.2637 12.2533 14.2637C14.2088 14.2637 15.7942 15.849 15.7942 17.8048Z" fill="#CE2020"/>
<path d="M15.7942 17.8048C15.7942 19.7601 14.2088 21.3454 12.2533 21.3454C10.2975 21.3454 8.71216 19.7601 8.71216 17.8048C8.71216 15.849 10.2975 14.2637 12.2533 14.2637C14.2088 14.2637 15.7942 15.849 15.7942 17.8048Z" fill="#CCCCCC"/>
<path d="M15.7894 17.8003C15.7894 19.7515 14.2073 21.3335 12.2559 21.3335C10.3042 21.3335 8.72217 19.7515 8.72217 17.8003C8.72217 15.8486 10.3042 14.2666 12.2559 14.2666C14.2073 14.2666 15.7894 15.8486 15.7894 17.8003Z" fill="#C9C9C9"/>
<path d="M15.7846 17.7961C15.7846 19.7432 14.2059 21.3219 12.2585 21.3219C10.3109 21.3219 8.73218 19.7432 8.73218 17.7961C8.73218 15.8485 10.3109 14.2698 12.2585 14.2698C14.2059 14.2698 15.7846 15.8485 15.7846 17.7961Z" fill="#C6C6C7"/>
<path d="M15.7791 17.7919C15.7791 19.7349 14.2037 21.3106 12.2604 21.3106C10.3168 21.3106 8.74146 19.7352 8.74146 17.7919C8.74146 15.8483 10.3168 14.2729 12.2604 14.2729C14.2039 14.2729 15.7791 15.8483 15.7791 17.7919Z" fill="#C3C3C4"/>
<path d="M15.7745 17.7874C15.7745 19.7264 14.2024 21.2987 12.2632 21.2987C10.3238 21.2987 8.75171 19.7266 8.75171 17.7874C8.75171 15.848 10.3238 14.2759 12.2632 14.2759C14.2024 14.2759 15.7745 15.8482 15.7745 17.7874Z" fill="#C0C0C2"/>
<path d="M15.7695 17.7834C15.7695 19.7183 14.2007 21.2873 12.2656 21.2873C10.3302 21.2873 8.76147 19.7185 8.76147 17.7834C8.76147 15.8481 10.3302 14.2793 12.2656 14.2793C14.2007 14.279 15.7695 15.8481 15.7695 17.7834Z" fill="#BDBDBF"/>
<path d="M15.7645 17.779C15.7645 19.71 14.199 21.2754 12.2677 21.2754C10.3364 21.2754 8.771 19.7097 8.771 17.779C8.771 15.8477 10.3364 14.2822 12.2677 14.2822C14.199 14.282 15.7645 15.8477 15.7645 17.779Z" fill="#BABABD"/>
<path d="M15.7597 17.7747C15.7597 19.7017 14.1975 21.2638 12.2703 21.2638C10.3431 21.2638 8.78101 19.7014 8.78101 17.7747C8.78101 15.8475 10.3431 14.2852 12.2703 14.2852C14.1973 14.2854 15.7597 15.8475 15.7597 17.7747Z" fill="#B6B8BA"/>
<path d="M15.7544 17.7703C15.7544 19.6931 14.1956 21.252 12.2725 21.252C10.3493 21.252 8.79028 19.6929 8.79028 17.7703C8.79028 15.8472 10.3491 14.2881 12.2725 14.2881C14.1956 14.2883 15.7544 15.8472 15.7544 17.7703Z" fill="#B3B5B8"/>
<path d="M15.7496 17.7661C15.7496 19.6848 14.1941 21.2406 12.2751 21.2406C10.356 21.2406 8.80029 19.6848 8.80029 17.7661C8.80029 15.847 10.3558 14.2913 12.2751 14.2913C14.1941 14.2915 15.7496 15.847 15.7496 17.7661Z" fill="#B0B2B5"/>
<path d="M15.7451 17.7621C15.7451 19.6768 14.1929 21.2292 12.2779 21.2292C10.363 21.2292 8.81055 19.6768 8.81055 17.7621C8.81055 15.8471 10.363 14.2947 12.2779 14.2947C14.1929 14.2947 15.7451 15.8469 15.7451 17.7621Z" fill="#ADAFB2"/>
<path d="M15.74 17.7576C15.74 19.6682 14.1909 21.2173 12.2803 21.2173C10.3694 21.2173 8.82031 19.6682 8.82031 17.7576C8.82031 15.8467 10.3694 14.2976 12.2803 14.2976C14.1909 14.2976 15.74 15.8465 15.74 17.7576Z" fill="#AAACB0"/>
<path d="M15.7353 17.7534C15.7353 19.6599 14.1895 21.2057 12.2829 21.2057C10.3761 21.2057 8.83032 19.6599 8.83032 17.7534C8.83032 15.8463 10.3761 14.3008 12.2829 14.3008C14.1895 14.3008 15.7353 15.8463 15.7353 17.7534Z" fill="#A7A9AD"/>
<path d="M15.731 17.7489C15.731 19.6514 14.1885 21.1939 12.2858 21.1939C10.3828 21.1939 8.84058 19.6514 8.84058 17.7489C8.84058 15.8459 10.3831 14.3037 12.2858 14.3037C14.1885 14.3037 15.731 15.8462 15.731 17.7489Z" fill="#A4A6AB"/>
<path d="M15.7255 17.7447C15.7255 19.6431 14.1863 21.1822 12.2877 21.1822C10.3888 21.1822 8.84985 19.6431 8.84985 17.7447C8.84985 15.8458 10.389 14.3069 12.2877 14.3069C14.1865 14.3069 15.7255 15.8461 15.7255 17.7447Z" fill="#A1A3A8"/>
<path d="M15.7209 17.7407C15.7209 19.635 14.1851 21.1711 12.2905 21.1711C10.3957 21.1711 8.85986 19.6353 8.85986 17.7407C8.85986 15.8459 10.3957 14.3101 12.2905 14.3101C14.1851 14.3101 15.7209 15.8459 15.7209 17.7407Z" fill="#9EA0A6"/>
<path d="M15.7156 17.7362C15.7156 19.6265 14.1831 21.1592 12.2926 21.1592C10.4019 21.1592 8.86938 19.6267 8.86938 17.7362C8.86938 15.8455 10.4019 14.313 12.2926 14.313C14.1831 14.313 15.7156 15.8455 15.7156 17.7362Z" fill="#9B9DA3"/>
<path d="M15.7106 17.7318C15.7106 19.6179 14.1814 21.1474 12.295 21.1474C10.4084 21.1474 8.87915 19.6182 8.87915 17.7318C8.87915 15.8451 10.4084 14.3159 12.295 14.3159C14.1814 14.3159 15.7106 15.8451 15.7106 17.7318Z" fill="#989AA0"/>
<path d="M15.7058 17.7276C15.7058 19.6099 14.1799 21.1358 12.2976 21.1358C10.4151 21.1358 8.88916 19.6096 8.88916 17.7276C8.88916 15.845 10.4151 14.3191 12.2976 14.3191C14.1797 14.3191 15.7058 15.845 15.7058 17.7276Z" fill="#95979E"/>
<path d="M15.7008 17.7233C15.7008 19.6015 14.1782 21.1241 12.3 21.1241C10.4215 21.1241 8.89893 19.6013 8.89893 17.7233C8.89893 15.8448 10.4215 14.3223 12.3 14.3223C14.178 14.3223 15.7008 15.8448 15.7008 17.7233Z" fill="#92949B"/>
<path d="M15.696 17.7191C15.696 19.5932 14.1768 21.1125 12.3024 21.1125C10.428 21.1125 8.90869 19.593 8.90869 17.7191C8.90869 15.8447 10.428 14.3254 12.3024 14.3254C14.1768 14.3252 15.696 15.8444 15.696 17.7191Z" fill="#8F9199"/>
<path d="M15.6912 17.7146C15.6912 19.5847 14.175 21.1009 12.305 21.1009C10.4347 21.1009 8.9187 19.5847 8.9187 17.7146C8.9187 15.8443 10.4349 14.3284 12.305 14.3284C14.1753 14.3281 15.6912 15.8443 15.6912 17.7146Z" fill="#8B8F96"/>
<path d="M15.6862 17.7104C15.6862 19.5764 14.1733 21.0893 12.3073 21.0893C10.4411 21.0893 8.92847 19.5764 8.92847 17.7104C8.92847 15.8442 10.4414 14.3315 12.3073 14.3315C14.1733 14.3313 15.6862 15.8442 15.6862 17.7104Z" fill="#888C94"/>
<path d="M15.6814 17.706C15.6814 19.5678 14.1718 21.0774 12.3099 21.0774C10.4478 21.0774 8.93823 19.5678 8.93823 17.706C8.93823 15.8438 10.4478 14.3342 12.3099 14.3342C14.1718 14.3345 15.6814 15.8438 15.6814 17.706Z" fill="#858991"/>
<path d="M15.6769 17.7017C15.6769 19.5595 14.1706 21.0658 12.3128 21.0658C10.4547 21.0658 8.94849 19.5595 8.94849 17.7017C8.94849 15.8434 10.4547 14.3374 12.3128 14.3374C14.1706 14.3377 15.6769 15.8437 15.6769 17.7017Z" fill="#82868F"/>
<path d="M15.6714 17.6975C15.6714 19.5512 14.1684 21.0542 12.3147 21.0542C10.4607 21.0542 8.95776 19.5512 8.95776 17.6975C8.95776 15.8433 10.4607 14.3406 12.3147 14.3406C14.1687 14.3406 15.6714 15.8433 15.6714 17.6975Z" fill="#7F838C"/>
<path d="M15.6666 17.6933C15.6666 19.5429 14.167 21.0425 12.3171 21.0425C10.4671 21.0425 8.96753 19.5429 8.96753 17.6933C8.96753 15.8431 10.4671 14.3438 12.3171 14.3438C14.167 14.3438 15.6666 15.8431 15.6666 17.6933Z" fill="#7C8089"/>
<path d="M15.662 17.689C15.662 19.5346 14.1657 21.0312 12.3199 21.0312C10.4741 21.0312 8.97778 19.5349 8.97778 17.689C8.97778 15.843 10.4741 14.3469 12.3199 14.3469C14.1657 14.3469 15.662 15.843 15.662 17.689Z" fill="#797D87"/>
<path d="M15.657 17.6846C15.657 19.5261 14.164 21.0193 12.3223 21.0193C10.4805 21.0193 8.98755 19.5263 8.98755 17.6846C8.98755 15.8426 10.4805 14.3499 12.3223 14.3499C14.164 14.3499 15.657 15.8426 15.657 17.6846Z" fill="#767A84"/>
<path d="M15.6517 17.6804C15.6517 19.5178 14.1621 21.0077 12.3244 21.0077C10.4867 21.0077 8.99707 19.5178 8.99707 17.6804C8.99707 15.8424 10.4867 14.353 12.3244 14.353C14.1618 14.353 15.6517 15.8424 15.6517 17.6804Z" fill="#737782"/>
<path d="M15.6472 17.6761C15.6472 19.5095 14.1608 20.9961 12.3273 20.9961C10.4937 20.9961 9.00732 19.5095 9.00732 17.6761C9.00732 15.8423 10.4937 14.356 12.3273 14.356C14.1606 14.356 15.6472 15.8423 15.6472 17.6761Z" fill="#70747F"/>
<path d="M15.6419 17.6719C15.6419 19.5014 14.1589 20.9845 12.3294 20.9845C10.4999 20.9845 9.0166 19.5012 9.0166 17.6719C9.0166 15.8422 10.4999 14.3591 12.3294 14.3591C14.1589 14.3591 15.6419 15.8422 15.6419 17.6719Z" fill="#6D717D"/>
<path d="M15.6369 17.6674C15.6369 19.4929 14.1569 20.9726 12.3318 20.9726C10.5063 20.9726 9.02637 19.4926 9.02637 17.6674C9.02637 15.8418 10.5063 14.3621 12.3318 14.3621C14.1572 14.3621 15.6369 15.8418 15.6369 17.6674Z" fill="#6A6E7A"/>
<path d="M15.6326 17.6632C15.6326 19.4846 14.1559 20.9612 12.3346 20.9612C10.5133 20.9612 9.03662 19.4846 9.03662 17.6632C9.03662 15.8416 10.5133 14.3652 12.3346 14.3652C14.1559 14.3652 15.6326 15.8416 15.6326 17.6632Z" fill="#676B77"/>
<path d="M15.6276 17.659C15.6276 19.4762 14.1542 20.9496 12.337 20.9496C10.5197 20.9496 9.04639 19.4762 9.04639 17.659C9.04639 15.8415 10.5197 14.3684 12.337 14.3684C14.1542 14.3684 15.6276 15.8415 15.6276 17.659Z" fill="#646875"/>
<path d="M15.6228 17.6548C15.6228 19.4679 14.1528 20.938 12.3396 20.938C10.5264 20.938 9.0564 19.4679 9.0564 17.6548C9.0564 15.8414 10.5264 14.3716 12.3396 14.3716C14.1528 14.3713 15.6228 15.8411 15.6228 17.6548Z" fill="#606672"/>
<path d="M15.6177 17.6506C15.6177 19.4596 14.151 20.9263 12.342 20.9263C10.5329 20.9263 9.06616 19.4596 9.06616 17.6506C9.06616 15.8412 10.5329 14.3748 12.342 14.3748C14.151 14.3745 15.6177 15.841 15.6177 17.6506Z" fill="#5D6370"/>
<path d="M15.6127 17.6461C15.6127 19.4511 14.1493 20.9145 12.3443 20.9145C10.5393 20.9145 9.07593 19.4511 9.07593 17.6461C9.07593 15.8406 10.5393 14.3777 12.3443 14.3777C14.1493 14.3774 15.6127 15.8406 15.6127 17.6461Z" fill="#5A606D"/>
<path d="M15.6082 17.6419C15.6082 19.4428 14.1481 20.9029 12.3472 20.9029C10.5463 20.9029 9.08594 19.4428 9.08594 17.6419C9.08594 15.8404 10.546 14.3806 12.3472 14.3806C14.1481 14.3809 15.6082 15.8404 15.6082 17.6419Z" fill="#575D6B"/>
<path d="M14.5113 20.0704C15.8532 18.8752 15.9721 16.8185 14.7769 15.4766C13.5816 14.1348 11.5249 14.0159 10.1831 15.2111C8.84121 16.4063 8.72234 18.463 9.91756 19.8049C11.1128 21.1468 13.1695 21.2656 14.5113 20.0704Z" fill="#545A68"/>
<path d="M13.7436 20.57C15.3639 19.8023 16.0551 17.8664 15.2873 16.2461C14.5196 14.6258 12.5837 13.9347 10.9634 14.7024C9.34305 15.4701 8.65192 17.406 9.41967 19.0264C10.1874 20.6467 12.1233 21.3378 13.7436 20.57Z" fill="#515766"/>
<path d="M13.0958 20.7767C14.8367 20.3656 15.9148 18.6211 15.5037 16.8801C15.0926 15.1392 13.348 14.0611 11.6071 14.4722C9.86615 14.8833 8.78808 16.6279 9.19917 18.3688C9.61025 20.1097 11.3548 21.1878 13.0958 20.7767Z" fill="#4E5463"/>
<path d="M13.7105 20.475C15.2972 19.7465 15.9929 17.8696 15.2643 16.2829C14.5357 14.6962 12.6588 14.0006 11.0722 14.7292C9.48547 15.4577 8.78984 17.3346 9.51841 18.9213C10.247 20.508 12.1238 21.2036 13.7105 20.475Z" fill="#515766"/>
<path d="M15.5079 17.5783C15.5079 19.281 14.1274 20.6615 12.4247 20.6615C10.722 20.6615 9.34131 19.281 9.34131 17.5783C9.34131 15.8751 10.7218 14.4949 12.4247 14.4949C14.1274 14.4949 15.5079 15.8751 15.5079 17.5783Z" fill="#545A68"/>
<path d="M15.4643 17.553C15.4643 19.2128 14.1188 20.5583 12.459 20.5583C10.7991 20.5583 9.45361 19.2126 9.45361 17.553C9.45361 15.8929 10.7991 14.5474 12.459 14.5474C14.1188 14.5474 15.4643 15.8926 15.4643 17.553Z" fill="#575D6B"/>
<path d="M15.4218 17.5274C15.4218 19.1441 14.1109 20.455 12.4942 20.455C10.8775 20.455 9.56665 19.1441 9.56665 17.5274C9.56665 15.9102 10.8775 14.5999 12.4942 14.5999C14.1109 14.5999 15.4218 15.9104 15.4218 17.5274Z" fill="#5A606D"/>
<path d="M15.3787 17.5023C15.3787 19.0762 14.1028 20.3521 12.5289 20.3521C10.9551 20.3521 9.6792 19.0762 9.6792 17.5023C9.6792 15.9282 10.9551 14.6526 12.5289 14.6526C14.1028 14.6526 15.3787 15.9282 15.3787 17.5023Z" fill="#5D6370"/>
<path d="M15.3356 17.4768C15.3356 19.0075 14.0947 20.2487 12.5637 20.2487C11.0329 20.2487 9.79175 19.0078 9.79175 17.4768C9.79175 15.9458 11.0329 14.7048 12.5637 14.7048C14.0944 14.7048 15.3356 15.9458 15.3356 17.4768Z" fill="#606672"/>
<path d="M15.2932 17.4514C15.2932 18.9393 14.087 20.1453 12.5994 20.1453C11.1115 20.1453 9.90527 18.9391 9.90527 17.4514C9.90527 15.9633 11.1115 14.7573 12.5994 14.7573C14.0873 14.7573 15.2932 15.9633 15.2932 17.4514Z" fill="#646875"/>
<path d="M15.2502 17.4264C15.2502 18.8711 14.0789 20.0424 12.6341 20.0424C11.1894 20.0424 10.0178 18.8711 10.0178 17.4264C10.0178 15.9813 11.1891 14.8101 12.6341 14.8101C14.0789 14.8101 15.2502 15.9811 15.2502 17.4264Z" fill="#676B77"/>
<path d="M15.2073 17.4005C15.2073 18.8025 14.071 19.9388 12.6691 19.9388C11.2672 19.9388 10.1309 18.8025 10.1309 17.4005C10.1309 15.9984 11.2672 14.8621 12.6691 14.8621C14.071 14.8623 15.2073 15.9984 15.2073 17.4005Z" fill="#6A6E7A"/>
<path d="M15.1642 17.3752C15.1642 18.734 14.0626 19.8356 12.7038 19.8356C11.345 19.8356 10.2434 18.734 10.2434 17.3752C10.2434 16.0162 11.345 14.9148 12.7038 14.9148C14.0626 14.9145 15.1642 16.0162 15.1642 17.3752Z" fill="#6D717D"/>
<path d="M15.1214 17.3499C15.1214 18.6658 14.0547 19.7325 12.7388 19.7325C11.4229 19.7325 10.3562 18.6658 10.3562 17.3499C10.3562 16.0337 11.4229 14.9673 12.7388 14.9673C14.0547 14.9673 15.1214 16.034 15.1214 17.3499Z" fill="#70747F"/>
<path d="M15.0786 17.3248C15.0786 18.5976 14.0468 19.6293 12.774 19.6293C11.5012 19.6293 10.4692 18.5976 10.4692 17.3248C10.4692 16.0517 11.5012 15.02 12.774 15.02C14.0468 15.02 15.0786 16.0517 15.0786 17.3248Z" fill="#737782"/>
<path d="M15.0352 17.2995C15.0352 18.5294 14.0382 19.5262 12.8085 19.5262C11.5786 19.5262 10.5815 18.5292 10.5815 17.2995C10.5815 16.0695 11.5786 15.0725 12.8085 15.0725C14.0385 15.0725 15.0352 16.0693 15.0352 17.2995Z" fill="#767A84"/>
<path d="M14.9926 17.2739C14.9926 18.4608 14.0306 19.4228 12.8437 19.4228C11.6569 19.4228 10.6948 18.4608 10.6948 17.2739C10.6948 16.0868 11.6569 15.1248 12.8437 15.1248C14.0306 15.1248 14.9926 16.0868 14.9926 17.2739Z" fill="#797D87"/>
<path d="M14.9496 17.2486C14.9496 18.3926 14.0224 19.3197 12.8785 19.3197C11.7345 19.3197 10.8074 18.3926 10.8074 17.2486C10.8074 16.1046 11.7345 15.1772 12.8785 15.1772C14.0222 15.1772 14.9496 16.1046 14.9496 17.2486Z" fill="#7C8089"/>
<path d="M14.9067 17.223C14.9067 18.3239 14.0143 19.2163 12.9134 19.2163C11.8126 19.2163 10.9202 18.3239 10.9202 17.223C10.9202 16.1219 11.8126 15.2295 12.9134 15.2295C14.0143 15.2297 14.9067 16.1222 14.9067 17.223Z" fill="#7F838C"/>
<path d="M14.8637 17.1979C14.8637 18.2557 14.0062 19.1132 12.9484 19.1132C11.8904 19.1132 11.033 18.2557 11.033 17.1979C11.033 16.1399 11.8904 15.2825 12.9484 15.2825C14.0059 15.2825 14.8637 16.1399 14.8637 17.1979Z" fill="#82868F"/>
<path d="M14.8206 17.1726C14.8206 18.1875 13.9981 19.01 12.9832 19.01C11.9683 19.01 11.1455 18.1875 11.1455 17.1726C11.1455 16.1575 11.9683 15.335 12.9832 15.335C13.9981 15.3347 14.8206 16.1575 14.8206 17.1726Z" fill="#858991"/>
<path d="M14.778 17.1471C14.778 18.1188 13.9902 18.9066 13.0184 18.9066C12.0464 18.9066 11.2585 18.1191 11.2585 17.1471C11.2585 16.175 12.0464 15.3872 13.0184 15.3872C13.9902 15.3872 14.778 16.175 14.778 17.1471Z" fill="#888C94"/>
<path d="M14.7351 17.1217C14.7351 18.0506 13.9823 18.8035 13.0534 18.8035C12.1244 18.8035 11.3716 18.0506 11.3716 17.1217C11.3716 16.1928 12.1244 15.4397 13.0534 15.4397C13.9823 15.4397 14.7351 16.1926 14.7351 17.1217Z" fill="#8B8F96"/>
<path d="M14.6921 17.0967C14.6921 17.9824 13.9741 18.7004 13.0881 18.7004C12.2021 18.7004 11.4841 17.9824 11.4841 17.0967C11.4841 16.2106 12.2023 15.4924 13.0881 15.4924C13.9739 15.4924 14.6921 16.2106 14.6921 17.0967Z" fill="#8F9199"/>
<path d="M14.6495 17.0711C14.6495 17.914 13.9662 18.597 13.1236 18.597C12.2806 18.597 11.5974 17.914 11.5974 17.0711C11.5974 16.2282 12.2806 15.5447 13.1236 15.5447C13.9662 15.5449 14.6495 16.2282 14.6495 17.0711Z" fill="#92949B"/>
<path d="M14.6071 17.0458C14.6071 17.8456 13.9588 18.4938 13.159 18.4938C12.359 18.4938 11.7107 17.8456 11.7107 17.0458C11.7107 16.2457 12.359 15.5974 13.159 15.5974C13.9586 15.5972 14.6071 16.2457 14.6071 17.0458Z" fill="#95979E"/>
<path d="M14.5631 17.0204C14.5631 17.7774 13.9497 18.3907 13.1928 18.3907C12.4358 18.3907 11.8223 17.7774 11.8223 17.0204C11.8223 16.2635 12.4358 15.6499 13.1928 15.6499C13.9497 15.6499 14.5631 16.2635 14.5631 17.0204Z" fill="#989AA0"/>
<path d="M14.5207 16.9949C14.5207 17.7087 13.9421 18.2873 13.2283 18.2873C12.5142 18.2873 11.9355 17.709 11.9355 16.9949C11.9355 16.2808 12.5142 15.7021 13.2283 15.7021C13.9421 15.7021 14.5207 16.2808 14.5207 16.9949Z" fill="#9B9DA3"/>
<path d="M14.4781 16.9698C14.4781 17.6408 13.9345 18.1842 13.2635 18.1842C12.5925 18.1842 12.0488 17.6405 12.0488 16.9698C12.0488 16.2988 12.5925 15.7549 13.2635 15.7549C13.9345 15.7549 14.4781 16.2988 14.4781 16.9698Z" fill="#9EA0A6"/>
<path d="M14.4348 16.9442C14.4348 17.5721 13.9261 18.0808 13.2982 18.0808C12.6701 18.0808 12.1614 17.5721 12.1614 16.9442C12.1614 16.3164 12.6704 15.8071 13.2982 15.8071C13.9258 15.8071 14.4348 16.3164 14.4348 16.9442Z" fill="#A1A3A8"/>
<path d="M14.3922 16.9189C14.3922 17.5039 13.9182 17.9777 13.3334 17.9777C12.7484 17.9777 12.2744 17.5039 12.2744 16.9189C12.2744 16.3339 12.7484 15.8596 13.3334 15.8596C13.9182 15.8596 14.3922 16.3339 14.3922 16.9189Z" fill="#A4A6AB"/>
<path d="M14.3484 16.8936C14.3484 17.4355 13.9093 17.8745 13.3674 17.8745C12.8253 17.8745 12.3862 17.4355 12.3862 16.8936C12.3862 16.3517 12.8253 15.9121 13.3674 15.9121C13.9093 15.9124 14.3484 16.3517 14.3484 16.8936Z" fill="#A7A9AD"/>
<path d="M14.3063 16.8682C14.3063 17.3673 13.9019 17.7714 13.4032 17.7714C12.9041 17.7714 12.4998 17.3673 12.4998 16.8682C12.4998 16.3692 12.9041 15.9648 13.4032 15.9648C13.9022 15.9648 14.3063 16.3692 14.3063 16.8682Z" fill="#AAACB0"/>
<path d="M14.2632 16.8432C14.2632 17.2991 13.8938 17.6682 13.4379 17.6682C12.9817 17.6682 12.6123 17.2991 12.6123 16.8432C12.6123 16.3873 12.9817 16.0176 13.4379 16.0176C13.8938 16.0173 14.2632 16.387 14.2632 16.8432Z" fill="#ADAFB2"/>
<path d="M14.2201 16.8176C14.2201 17.2306 13.8857 17.5649 13.4729 17.5649C13.0598 17.5649 12.7253 17.2304 12.7253 16.8176C12.7253 16.4045 13.0598 16.0698 13.4729 16.0698C13.8857 16.0698 14.2201 16.4048 14.2201 16.8176Z" fill="#B0B2B5"/>
<path d="M14.1778 16.7923C14.1778 17.1622 13.8783 17.4617 13.5083 17.4617C13.1381 17.4617 12.8386 17.1622 12.8386 16.7923C12.8386 16.4223 13.1384 16.1223 13.5083 16.1223C13.878 16.1223 14.1778 16.4223 14.1778 16.7923Z" fill="#B3B5B8"/>
<path d="M14.1349 16.7669C14.1349 17.094 13.8701 17.3586 13.5433 17.3586C13.2162 17.3586 12.9514 17.094 12.9514 16.7669C12.9514 16.4401 13.2162 16.1748 13.5433 16.1748C13.8701 16.1748 14.1349 16.4399 14.1349 16.7669Z" fill="#B6B8BA"/>
<path d="M14.0916 16.7414C14.0916 17.0253 13.8618 17.2552 13.5778 17.2552C13.2936 17.2552 13.0637 17.0256 13.0637 16.7414C13.0637 16.4574 13.2936 16.2271 13.5778 16.2271C13.8618 16.2273 14.0916 16.4574 14.0916 16.7414Z" fill="#BABABD"/>
<path d="M14.0485 16.7163C14.0485 16.9574 13.8534 17.152 13.6125 17.152C13.3714 17.152 13.1763 16.9571 13.1763 16.7163C13.1763 16.4755 13.3714 16.28 13.6125 16.28C13.8536 16.2798 14.0485 16.4752 14.0485 16.7163Z" fill="#BDBDBF"/>
<path d="M14.0062 16.6907C14.0062 16.8887 13.846 17.0487 13.648 17.0487C13.4498 17.0487 13.2898 16.8887 13.2898 16.6907C13.2898 16.4927 13.45 16.3323 13.648 16.3323C13.846 16.3323 14.0062 16.493 14.0062 16.6907Z" fill="#C0C0C2"/>
<path d="M13.9633 16.6654C13.9633 16.8205 13.8381 16.9455 13.6832 16.9455C13.5281 16.9455 13.4028 16.8205 13.4028 16.6654C13.4028 16.5105 13.5281 16.3848 13.6832 16.3848C13.8381 16.3848 13.9633 16.5105 13.9633 16.6654Z" fill="#C3C3C4"/>
<path d="M13.9203 16.6401C13.9203 16.7521 13.8297 16.8424 13.718 16.8424C13.6057 16.8424 13.5154 16.7521 13.5154 16.6401C13.5154 16.5281 13.606 16.4373 13.718 16.4373C13.8297 16.4373 13.9203 16.5281 13.9203 16.6401Z" fill="#C6C6C7"/>
<path d="M13.8772 16.6148C13.8772 16.6839 13.8216 16.7393 13.7527 16.7393C13.6836 16.7393 13.6279 16.6839 13.6279 16.6148C13.6279 16.5459 13.6836 16.4897 13.7527 16.4897C13.8218 16.4897 13.8772 16.5459 13.8772 16.6148Z" fill="#C9C9C9"/>
<path d="M13.8341 16.5894C13.8341 16.6155 13.8134 16.6359 13.7874 16.6359C13.7611 16.6359 13.7405 16.6155 13.7405 16.5894C13.7405 16.5637 13.7611 16.5422 13.7874 16.5422C13.8134 16.5422 13.8341 16.5634 13.8341 16.5894Z" fill="#CCCCCC"/>
<path d="M13.9906 16.6579C13.9906 16.8296 13.8518 16.9684 13.6801 16.9684C13.5087 16.9684 13.3696 16.8293 13.3696 16.6579C13.3696 16.4865 13.5084 16.3474 13.6801 16.3474C13.8516 16.3474 13.9906 16.4867 13.9906 16.6579Z" fill="white"/>
<g style="mix-blend-mode:overlay">
<ellipse cx="12.3003" cy="17.7857" rx="3.57938" ry="3.59067" fill="#FF0000" fill-opacity="0.77"/>
</g>
</g>
<defs>
<filter id="filter0_f_372_3861" x="-8.75132" y="-18.0733" width="85.2248" height="63.4787" filterUnits="userSpaceOnUse" color-interpolation-filters="sRGB">
<feFlood flood-opacity="0" result="BackgroundImageFix"/>
<feBlend mode="normal" in="SourceGraphic" in2="BackgroundImageFix" result="shape"/>
<feGaussianBlur stdDeviation="13.45" result="effect1_foregroundBlur_372_3861"/>
</filter>
<filter id="filter1_f_372_3861" x="-26.8329" y="-8.91025" width="85.2248" height="63.4787" filterUnits="userSpaceOnUse" color-interpolation-filters="sRGB">
<feFlood flood-opacity="0" result="BackgroundImageFix"/>
<feBlend mode="normal" in="SourceGraphic" in2="BackgroundImageFix" result="shape"/>
<feGaussianBlur stdDeviation="13.45" result="effect1_foregroundBlur_372_3861"/>
</filter>
<filter id="filter2_f_372_3861" x="0.129883" y="7.20923" width="16.9155" height="18.8713" filterUnits="userSpaceOnUse" color-interpolation-filters="sRGB">
<feFlood flood-opacity="0" result="BackgroundImageFix"/>
<feBlend mode="normal" in="SourceGraphic" in2="BackgroundImageFix" result="shape"/>
<feGaussianBlur stdDeviation="2" result="effect1_foregroundBlur_372_3861"/>
</filter>
<filter id="filter3_f_372_3861" x="7.65991" y="6.70923" width="15.3203" height="20.0649" filterUnits="userSpaceOnUse" color-interpolation-filters="sRGB">
<feFlood flood-opacity="0" result="BackgroundImageFix"/>
<feBlend mode="normal" in="SourceGraphic" in2="BackgroundImageFix" result="shape"/>
<feGaussianBlur stdDeviation="2" result="effect1_foregroundBlur_372_3861"/>
</filter>
<linearGradient id="paint0_linear_372_3861" x1="19.8624" y1="17.0155" x2="47.7177" y2="9.02803" gradientUnits="userSpaceOnUse">
<stop/>
<stop offset="1" stop-opacity="0"/>
</linearGradient>
<linearGradient id="paint1_linear_372_3861" x1="1.78083" y1="26.1785" x2="29.6361" y2="18.1911" gradientUnits="userSpaceOnUse">
<stop/>
<stop offset="1" stop-opacity="0"/>
</linearGradient>
<linearGradient id="paint2_linear_372_3861" x1="10.4464" y1="17.0063" x2="4.36748" y2="21.9167" gradientUnits="userSpaceOnUse">
<stop stop-color="#4F6331" stop-opacity="0"/>
<stop offset="1" stop-color="#A0C963" stop-opacity="0.5"/>
</linearGradient>
<linearGradient id="paint3_linear_372_3861" x1="14.2068" y1="2.4039" x2="22.5865" y2="2.4039" gradientUnits="userSpaceOnUse">
<stop stop-color="#E8E7E3"/>
<stop offset="1" stop-color="#EDECE8"/>
</linearGradient>
<linearGradient id="paint4_linear_372_3861" x1="8.44593" y1="10.2667" x2="0.0662634" y2="10.2667" gradientUnits="userSpaceOnUse">
<stop stop-color="#E8E7E3"/>
<stop offset="1" stop-color="#EDECE8"/>
</linearGradient>
<radialGradient id="paint5_radial_372_3861" cx="0" cy="0" r="1" gradientUnits="userSpaceOnUse" gradientTransform="translate(18.8251 15.0767) rotate(-146.923) scale(0.808637 0.808638)">
<stop stop-color="#BCE868"/>
<stop offset="0.3617" stop-color="#A9D05B"/>
<stop offset="0.7247" stop-color="#9BC051"/>
<stop offset="1" stop-color="#96BA4E"/>
</radialGradient>
<radialGradient id="paint6_radial_372_3861" cx="0" cy="0" r="1" gradientUnits="userSpaceOnUse" gradientTransform="translate(18.8472 15.3205) rotate(-144.438) scale(1.16911)">
<stop stop-color="#BEFF3D"/>
<stop offset="0.0463" stop-color="#9CD232"/>
<stop offset="0.0986" stop-color="#7CA628" stop-opacity="0.7"/>
<stop offset="0.1565" stop-color="#5E7E1E" stop-opacity="0.5"/>
<stop offset="0.2188" stop-color="#455C16" stop-opacity="0.4"/>
<stop offset="0.2867" stop-color="#2F3F0F" stop-opacity="0.3"/>
<stop offset="0.362" stop-color="#1E280A" stop-opacity="0"/>
<stop offset="0.448" stop-color="#101605" stop-opacity="0"/>
<stop offset="0.551" stop-color="#070902" stop-opacity="0"/>
<stop offset="0.6883" stop-color="#020200" stop-opacity="0"/>
<stop offset="1" stop-opacity="0"/>
</radialGradient>
<linearGradient id="paint7_linear_372_3861" x1="11.3888" y1="16.1316" x2="18.709" y2="15.5894" gradientUnits="userSpaceOnUse">
<stop stop-color="#4F6331" stop-opacity="0"/>
<stop offset="1" stop-color="#A0C963" stop-opacity="0.5"/>
</linearGradient>
<clipPath id="clip0_372_3861">
<rect width="23" height="27" fill="white"/>
</clipPath>
</defs>
</svg>
