<svg width="34" height="29" viewBox="0 0 34 29" fill="none" xmlns="http://www.w3.org/2000/svg">
<path d="M31.3406 19.6717C31.3406 19.6717 32.4536 20.2744 32.4176 20.5094C32.3815 20.7445 31.6706 21.4583 30.5369 22.2952C29.4032 23.1321 27.8394 24.1976 26.4694 24.5691C25.0994 24.9409 24.8792 24.9461 23.6159 24.6406C22.3525 24.3351 2.4185 16.3433 2.4185 16.3433C2.4185 16.3433 1.85788 16.1414 1.76168 15.6992C1.66548 15.257 1.65088 14.8456 1.86093 14.4073C2.07132 13.969 6.40522 10.717 6.40522 10.717L31.3406 19.6717Z" fill="#BAC5C7"/>
<path d="M4.65586 14.8612L6.40029 13.7789L15.4083 17.6322L20.5359 21.3547L22.0529 20.1564C22.0529 20.1564 25.8405 21.8658 25.7935 21.8423C25.7465 21.8183 25.9049 16.8347 25.9049 16.8347C25.9049 16.8347 18.3308 11.3751 17.5361 11.2582C16.7412 11.1417 5.88139 9.93186 5.88139 9.93186C5.88139 9.93186 3.13103 9.99411 2.78555 10.5445C2.43974 11.095 4.65586 14.8612 4.65586 14.8612Z" fill="#12090A"/>
<path d="M25.4952 21.2589C25.3296 20.2224 24.3958 19.0766 23.409 18.6993C22.9298 18.5162 22.5263 18.5482 22.2568 18.748C22.2367 18.7629 22.2175 18.7788 22.1991 18.7955L20.8146 19.9346L23.8813 23.4434L25.1728 22.3945C25.1829 22.3866 25.1927 22.3789 25.2021 22.3705L25.2051 22.3679C25.4595 22.1484 25.5758 21.7631 25.4952 21.2589Z" fill="url(#paint0_linear_372_3862)"/>
<path d="M24.1803 22.3271C24.3459 23.3636 23.6804 23.8978 22.6937 23.5208C21.7072 23.1435 20.773 21.9977 20.6074 20.9612C20.4419 19.9247 21.1073 19.3905 22.0941 19.7674C23.0808 20.1444 24.0147 21.2906 24.1803 22.3271Z" fill="url(#paint1_linear_372_3862)"/>
<path d="M23.9505 22.2901C24.0989 23.2191 23.5024 23.6981 22.6179 23.3601C21.7336 23.022 20.8961 21.9948 20.7477 21.0657C20.5993 20.1366 21.1958 19.6576 22.0804 19.9957C22.9649 20.3337 23.8021 21.361 23.9505 22.2901Z" fill="url(#paint2_linear_372_3862)"/>
<path d="M23.0778 22.5442C22.3891 22.2796 21.737 21.4772 21.622 20.7576C21.575 20.4629 21.622 20.2299 21.7426 20.0767C21.6646 20.0663 21.5917 20.0662 21.521 20.0775C21.0711 20.1342 20.8158 20.5227 20.9123 21.1269C21.0457 21.962 21.7971 22.8825 22.5914 23.1876C23.186 23.4138 23.6311 23.2318 23.7646 22.7747C23.7807 22.7072 23.7959 22.6357 23.7982 22.5552C23.619 22.6529 23.3669 22.6548 23.0778 22.5442Z" fill="url(#paint3_linear_372_3862)"/>
<path d="M21.3988 20.3651C21.3906 20.3685 21.3842 20.3744 21.3765 20.3784C21.3846 20.3743 21.391 20.3684 21.3988 20.3651Z" fill="url(#paint4_linear_372_3862)"/>
<path d="M21.6929 20.5481L21.9653 20.8503L22.1702 21.0582C22.1903 21.0502 22.2077 21.0378 22.2319 21.0356L22.2726 20.8561C22.2174 20.8476 22.1597 20.8282 22.1282 20.7759C22.0543 20.6527 21.8521 20.4982 21.7869 20.4316C21.7188 20.362 21.6647 20.3278 21.5873 20.2977C21.5208 20.3114 21.4578 20.3318 21.4025 20.3645L21.6918 20.5476L21.6929 20.5481Z" fill="url(#paint5_linear_372_3862)"/>
<path d="M22.5293 20.8613L22.5728 21.1703C22.599 21.1913 22.6214 21.2174 22.6457 21.2415L22.8738 21.2517L22.875 21.2501L23.1019 21.1144C23.0889 21.0979 23.0729 21.0842 23.0596 21.068C23.0025 21.0823 22.9482 21.0965 22.9188 21.1053C22.8388 21.1299 22.7698 21.1865 22.768 21.175C22.7662 21.1636 22.6899 21.0794 22.6899 21.0794C22.6899 21.0794 22.6847 20.9152 22.6837 20.8352C22.6834 20.8052 22.6935 20.7604 22.7046 20.7155C22.6466 20.6678 22.5903 20.616 22.5298 20.5749L22.5298 20.8619L22.5293 20.8613Z" fill="url(#paint6_linear_372_3862)"/>
<path d="M21.6758 21.4594L21.951 21.4596L22.0582 21.3869C22.0544 21.372 22.0458 21.3571 22.0435 21.3423C22.0409 21.3261 22.0457 21.3153 22.045 21.3003L22.0356 21.2842C21.9745 21.2908 21.8789 21.3019 21.744 21.32C21.509 21.3517 21.3198 21.6527 21.3198 21.6527L21.6758 21.4594Z" fill="url(#paint7_linear_372_3862)"/>
<path d="M23.5764 22.0264C23.516 21.9791 23.4573 21.9726 23.4268 21.9311C23.3364 21.8081 23.1019 21.7261 23.1019 21.7261C23.1019 21.7261 23.1007 21.7187 23.0819 21.6378C23.0719 21.5942 23.0497 21.5483 23.0417 21.5113L23.0278 21.5128L23.0275 21.5128L22.8684 21.6194C22.8721 21.6344 22.8807 21.6492 22.8831 21.664C22.8853 21.6782 22.881 21.6875 22.8817 21.7009L23.1496 21.9188L23.4607 22.143L23.4615 22.1435L23.4811 22.1711L23.6153 22.341C23.6131 22.2802 23.6073 22.22 23.5972 22.1564C23.5925 22.1271 23.5827 22.0551 23.5764 22.0264Z" fill="url(#paint8_linear_372_3862)"/>
<path d="M22.7593 21.9465C22.7399 21.9547 22.723 21.9657 22.7 21.9684L22.738 22.1695L22.8436 22.5128L22.8433 22.5129L22.844 22.5131L22.7868 22.9746C22.7868 22.9746 23.0065 22.8581 23.0273 22.8368C23.048 22.8155 23.0521 22.7848 23.0505 22.554C23.0496 22.3905 22.989 22.1588 22.954 22.0366L22.7593 21.9465Z" fill="url(#paint9_linear_372_3862)"/>
<path d="M22.1037 21.7206L21.8986 21.8397L21.8983 21.8398L21.8987 21.8404L21.4316 21.8432C21.4316 21.8432 21.8192 21.9501 21.9197 21.894C21.9898 21.8549 22.1045 21.7795 22.1691 21.7364L22.1037 21.7206Z" fill="url(#paint10_linear_372_3862)"/>
<path d="M22.4986 22.3809L22.4982 22.3806L22.5004 22.1735C22.489 22.2685 22.4808 22.3907 22.4958 22.4929C22.5249 22.6924 22.6144 22.9088 22.6144 22.9088L22.4986 22.3809Z" fill="url(#paint11_linear_372_3862)"/>
<path d="M22.113 20.1971C21.3344 19.8995 20.8091 20.3212 20.9398 21.1391C21.0705 21.9571 21.8076 22.8615 22.5862 23.1592C23.3648 23.4568 23.8901 23.0351 23.7594 22.2172C23.6284 21.3993 22.8913 20.4948 22.113 20.1971ZM22.5589 22.9881C21.8703 22.7248 21.2183 21.9248 21.1027 21.2012C20.9871 20.4775 21.4517 20.1045 22.1403 20.3679C22.8288 20.6312 23.4808 21.4311 23.5964 22.1548C23.712 22.8785 23.2474 23.2514 22.5589 22.9881Z" fill="#B4B5B0"/>
<path d="M22.1089 20.17C21.3159 19.8667 20.7809 20.2965 20.9139 21.1293C21.047 21.9624 21.7978 22.8833 22.5908 23.1866C23.3838 23.4899 23.9184 23.0601 23.7853 22.227C23.6523 21.3939 22.9015 20.473 22.1089 20.17ZM22.5804 23.1216C21.8216 22.8315 21.103 21.95 20.9757 21.1526C20.8483 20.3555 21.3604 19.9442 22.1192 20.2343C22.8779 20.5244 23.5965 21.4059 23.7239 22.2033C23.8513 23.0008 23.3392 23.412 22.5804 23.1216Z" fill="#D7D9D5"/>
<path d="M22.8829 21.6633C22.9218 21.9068 22.7653 22.0323 22.5339 21.9435C22.3022 21.8548 22.0828 21.586 22.0439 21.3425C22.005 21.099 22.1614 20.9736 22.3932 21.0622C22.6245 21.1506 22.844 21.4198 22.8829 21.6633Z" fill="#B4B5B0"/>
<path d="M22.7327 21.6059C22.7577 21.7622 22.6573 21.8428 22.5087 21.7861C22.3598 21.7291 22.2189 21.5564 22.1939 21.3999C22.1689 21.2436 22.2693 21.163 22.4182 21.2197C22.5669 21.2767 22.7078 21.4497 22.7327 21.6059Z" fill="#D7D9D5"/>
<path d="M22.5975 21.5541C22.61 21.6319 22.5601 21.672 22.4862 21.6437C22.4122 21.6155 22.3422 21.5293 22.3298 21.4518C22.3174 21.3741 22.3673 21.334 22.4412 21.3622C22.5151 21.3905 22.5851 21.4763 22.5975 21.5541Z" fill="#B4B5B0"/>
<path d="M22.4699 20.5344L22.1851 20.4269L22.1817 20.3815C22.2802 20.4231 22.3762 20.4727 22.4699 20.5344Z" fill="#D7D9D5"/>
<path d="M22.5298 20.5746L22.5297 20.8615L22.2933 20.7695L22.1851 20.4272L22.4699 20.5347L22.4705 20.5384C22.491 20.5462 22.5119 20.5581 22.5298 20.5746Z" fill="#B4B5B0"/>
<path d="M22.2922 20.7693L22.529 20.8596L22.5744 21.1807L22.2287 21.0488L22.2922 20.7693Z" fill="#D7D9D5"/>
<path d="M23.3552 21.4791L23.3515 21.4797L23.0279 21.5124L22.8751 21.2498L23.1021 21.1141C23.163 21.1845 23.2173 21.2601 23.268 21.34L23.2723 21.3431L23.3552 21.4791Z" fill="#B4B5B0"/>
<path d="M22.8745 21.2516L23.0274 21.5124L22.8638 21.6214L22.6411 21.2412L22.8745 21.2516Z" fill="#D7D9D5"/>
<path d="M23.6151 22.34C23.6151 22.34 23.6151 22.34 23.6157 22.3437C23.6146 22.4319 23.6088 22.5168 23.5868 22.5932L23.3367 22.3921L23.4613 22.1429L23.4809 22.1705L23.6151 22.34Z" fill="#D7D9D5"/>
<path d="M23.4605 22.1424L23.3378 22.3906L23.0654 22.0884L23.1494 21.9182L23.4605 22.1424Z" fill="#B4B5B0"/>
<path d="M23.1494 21.918L23.0654 22.0882L22.7529 21.9434L22.8756 21.6952L23.1494 21.918Z" fill="#D7D9D5"/>
<path d="M22.7871 22.9747L22.6146 22.9086L22.4985 22.3809L22.8443 22.5131L22.7871 22.9747Z" fill="#D7D9D5"/>
<path d="M22.8437 22.5129L22.4983 22.3806L22.5013 22.079L22.7381 22.1696L22.8437 22.5129Z" fill="#B4B5B0"/>
<path d="M22.7382 22.1698L22.5013 22.0791L22.3523 21.825L22.698 21.9572L22.7382 22.1698Z" fill="#D7D9D5"/>
<path d="M21.4318 21.8432L21.3206 21.653L21.6758 21.4599L21.8989 21.8404L21.4318 21.8432Z" fill="#D7D9D5"/>
<path d="M21.8989 21.8397L21.6758 21.4592L21.9511 21.4595L22.1039 21.7203L21.8989 21.8397Z" fill="#B4B5B0"/>
<path d="M22.104 21.7204L21.9511 21.4596L22.063 21.384L22.2858 21.7646L22.104 21.7204Z" fill="#D7D9D5"/>
<path d="M21.6918 20.548L21.571 20.797L21.2528 20.4807C21.2942 20.4282 21.3416 20.3902 21.3988 20.3655L21.4025 20.3649L21.6918 20.548Z" fill="#D7D9D5"/>
<path d="M21.5703 20.7962L21.6929 20.548L21.9653 20.8501L21.8813 21.0203L21.5703 20.7962Z" fill="#B4B5B0"/>
<path d="M21.8811 21.0203L21.9651 20.8501L22.1737 21.062L22.0511 21.3102L21.8811 21.0203Z" fill="#D7D9D5"/>
<path d="M9.87924 15.0819C9.71366 14.0454 8.77984 12.8995 7.79302 12.5222C7.31379 12.3391 6.91036 12.3711 6.64086 12.5713C6.6208 12.5862 6.60158 12.6021 6.58319 12.6188L5.19864 13.7576L8.2653 17.2663L9.55679 16.2174C9.56694 16.2096 9.57674 16.2018 9.58644 16.1933L9.58915 16.1908C9.84353 15.9716 9.95983 15.5863 9.87924 15.0819Z" fill="url(#paint12_linear_372_3862)"/>
<path d="M8.56457 16.1497C8.73015 17.1862 8.06477 17.7208 7.07795 17.3435C6.09147 16.9661 5.15732 15.8203 4.99173 14.7838C4.82615 13.7473 5.49153 13.2128 6.47835 13.5901C7.46483 13.9674 8.39898 15.1132 8.56457 16.1497Z" fill="url(#paint13_linear_372_3862)"/>
<path d="M8.3347 16.1134C8.48312 17.0424 7.88658 17.5214 7.00203 17.1834C6.11783 16.8453 5.28065 15.818 5.13223 14.8889C4.98381 13.9599 5.58036 13.4809 6.46457 13.819C7.34911 14.157 8.18628 15.1843 8.3347 16.1134Z" fill="url(#paint14_linear_372_3862)"/>
<path d="M7.46184 16.3675C6.77309 16.1028 6.12103 15.3005 6.00607 14.5808C5.959 14.2862 6.00604 14.0532 6.1266 13.8999C6.04863 13.8896 5.97575 13.8895 5.90503 13.9008C5.45513 13.9575 5.19983 14.346 5.29634 14.9501C5.4298 15.7856 6.18114 16.7057 6.97547 17.0108C7.57002 17.237 8.01511 17.0551 8.14859 16.5979C8.16441 16.5305 8.17991 16.4589 8.18225 16.3784C8.00308 16.4761 7.75129 16.478 7.46184 16.3675Z" fill="url(#paint15_linear_372_3862)"/>
<path d="M6.07692 14.3713L6.34932 14.6734L6.55418 14.8814C6.5743 14.8733 6.5916 14.8606 6.61584 14.8588L6.65662 14.6796C6.6014 14.6711 6.54373 14.6517 6.51224 14.5994C6.43833 14.4762 6.23648 14.3216 6.17094 14.255C6.10285 14.1855 6.04869 14.1513 5.97136 14.1212C5.90483 14.1349 5.84179 14.1553 5.78657 14.188L6.07586 14.3711L6.07692 14.3713Z" fill="url(#paint16_linear_372_3862)"/>
<path d="M6.91366 14.6841L6.95715 14.9931C6.98331 15.0142 7.00578 15.0403 7.03 15.0644L7.25817 15.0746L7.2593 15.073L7.48627 14.9373C7.47326 14.9207 7.45726 14.907 7.44397 14.8909C7.38686 14.9052 7.33249 14.9194 7.30317 14.9282C7.22311 14.9524 7.15417 15.0093 7.15234 14.9979C7.15045 14.9861 7.07421 14.9023 7.07421 14.9023C7.07421 14.9023 7.06904 14.738 7.06835 14.658C7.06804 14.628 7.07782 14.5833 7.08922 14.5379C7.03118 14.4902 6.97491 14.4385 6.91447 14.3973L6.91438 14.6843L6.91366 14.6841Z" fill="url(#paint17_linear_372_3862)"/>
<path d="M6.05978 15.2821L6.33505 15.2824L6.44223 15.2097C6.43847 15.1947 6.42987 15.1799 6.42751 15.165C6.42492 15.1489 6.42976 15.1381 6.42908 15.123L6.41961 15.1069C6.35851 15.1136 6.2629 15.1247 6.128 15.1428C5.89304 15.1745 5.70387 15.4754 5.70387 15.4754L6.05978 15.2821Z" fill="url(#paint18_linear_372_3862)"/>
<path d="M7.96018 15.8492C7.89978 15.8018 7.84107 15.7953 7.81062 15.7539C7.72024 15.6312 7.48572 15.5489 7.48572 15.5489C7.48572 15.5489 7.48453 15.5415 7.46574 15.4605C7.45566 15.4169 7.43349 15.3711 7.42549 15.334L7.41158 15.3355L7.41124 15.3356L7.25209 15.4418C7.25586 15.4568 7.26445 15.4716 7.26682 15.4865C7.26908 15.5006 7.26469 15.5099 7.26544 15.5233L7.53336 15.7412L7.84441 15.9654L7.84519 15.9659L7.86479 15.9935L7.99899 16.1634C7.99687 16.1026 7.99106 16.0424 7.98089 15.9788C7.97627 15.9498 7.96654 15.8782 7.96018 15.8492Z" fill="url(#paint19_linear_372_3862)"/>
<path d="M7.14337 15.7692C7.12397 15.7775 7.10707 15.7885 7.08401 15.7911L7.12201 15.9923L7.22762 16.3356L7.22728 16.3356L7.22801 16.3359L7.17086 16.7974C7.17086 16.7974 7.39052 16.6808 7.41095 16.6596C7.43173 16.6383 7.4358 16.6076 7.43416 16.3768C7.43325 16.2133 7.37308 15.9815 7.33769 15.8594L7.14337 15.7692Z" fill="url(#paint20_linear_372_3862)"/>
<path d="M6.48773 15.5436L6.28264 15.6627L6.2823 15.6628L6.28274 15.6634L5.8156 15.6662C5.8156 15.6662 6.20323 15.7731 6.30374 15.717C6.37381 15.6779 6.48851 15.6025 6.55311 15.5594L6.48773 15.5436Z" fill="url(#paint21_linear_372_3862)"/>
<path d="M6.88232 16.2037L6.88227 16.2034L6.8844 15.9962C6.87299 16.0913 6.86488 16.2134 6.87983 16.3157C6.90887 16.5148 6.99841 16.7315 6.99841 16.7315L6.88232 16.2037Z" fill="url(#paint22_linear_372_3862)"/>
<path d="M6.49704 14.0199C5.71841 13.7223 5.19317 14.1439 5.32384 14.9619C5.4545 15.7798 6.19159 16.6843 6.97022 16.9819C7.74885 17.2795 8.2741 16.8579 8.14343 16.0399C8.01242 15.222 7.27533 14.3176 6.49704 14.0199ZM6.94289 16.8108C6.25435 16.5475 5.60234 15.7476 5.48673 15.0239C5.37118 14.3006 5.83577 13.9273 6.52431 14.1906C7.21286 14.4539 7.86487 15.2539 7.98048 15.9775C8.09608 16.7012 7.63143 17.0742 6.94289 16.8108Z" fill="#B4B5B0"/>
<path d="M6.49291 13.9928C5.69991 13.6895 5.16492 14.1193 5.29801 14.9524C5.43109 15.7855 6.18186 16.7064 6.97486 17.0097C7.76786 17.3129 8.30286 16.8832 8.16983 16.0504C8.03679 15.2176 7.28591 14.296 6.49291 13.9928ZM6.96448 16.9447C6.2057 16.6546 5.48713 15.7731 5.35974 14.9757C5.23236 14.1782 5.74446 13.7673 6.50324 14.0574C7.26202 14.3475 7.9806 15.229 8.10798 16.0264C8.23531 16.8235 7.72326 17.2348 6.96448 16.9447Z" fill="#D7D9D5"/>
<path d="M7.26689 15.4861C7.30579 15.7295 7.14937 15.855 6.91797 15.7663C6.68624 15.6776 6.46682 15.4087 6.42793 15.1653C6.38903 14.9218 6.54546 14.7963 6.77719 14.885C7.00858 14.9737 7.228 15.2426 7.26689 15.4861Z" fill="#B4B5B0"/>
<path d="M7.11687 15.4289C7.14183 15.5851 7.04144 15.6658 6.89286 15.609C6.74394 15.5524 6.60338 15.3793 6.57842 15.2231C6.55345 15.0668 6.65385 14.9862 6.80243 15.043C6.95101 15.0997 7.09186 15.2723 7.11687 15.4289Z" fill="#D7D9D5"/>
<path d="M6.98158 15.3769C6.994 15.4547 6.94412 15.4947 6.87019 15.4665C6.79626 15.4382 6.72625 15.3524 6.71383 15.2746C6.7014 15.1968 6.75129 15.1567 6.82522 15.185C6.89914 15.2132 6.96915 15.2991 6.98158 15.3769Z" fill="#B4B5B0"/>
<path d="M6.85422 14.3571L6.56941 14.2496L6.56596 14.2042C6.66413 14.2459 6.76017 14.2958 6.85422 14.3571Z" fill="#D7D9D5"/>
<path d="M6.91409 14.3974L6.91401 14.6844L6.67754 14.592L6.56934 14.2498L6.85415 14.3572L6.85474 14.361C6.87504 14.3691 6.89598 14.3813 6.91409 14.3974Z" fill="#B4B5B0"/>
<path d="M6.67654 14.592L6.91341 14.6826L6.95851 15.0038L6.61276 14.8715L6.67654 14.592Z" fill="#D7D9D5"/>
<path d="M7.73919 15.3019L7.73549 15.3024L7.41194 15.3351L7.25914 15.0726L7.48611 14.9369C7.54714 15.0076 7.60129 15.0828 7.65205 15.1628L7.65635 15.1659L7.73919 15.3019Z" fill="#B4B5B0"/>
<path d="M7.25853 15.0746L7.41173 15.3354L7.24824 15.4447L7.02515 15.0642L7.25853 15.0746Z" fill="#D7D9D5"/>
<path d="M7.99909 16.1632C7.99909 16.1632 7.99909 16.1632 7.99969 16.1669C7.99859 16.2552 7.99281 16.34 7.97082 16.4164L7.72078 16.2153L7.84535 15.9661L7.86496 15.9937L7.99909 16.1632Z" fill="#D7D9D5"/>
<path d="M7.84452 15.9651L7.72186 16.2134L7.44953 15.9115L7.53348 15.741L7.84452 15.9651Z" fill="#B4B5B0"/>
<path d="M7.53348 15.741L7.44952 15.9116L7.13698 15.7667L7.25959 15.5182L7.53348 15.741Z" fill="#D7D9D5"/>
<path d="M7.1715 16.7974L6.99865 16.7314L6.88257 16.2036L7.22866 16.3358L7.1715 16.7974Z" fill="#D7D9D5"/>
<path d="M7.22777 16.3356L6.88236 16.2033L6.88529 15.9017L7.12217 15.9923L7.22777 16.3356Z" fill="#B4B5B0"/>
<path d="M7.1222 15.9924L6.88532 15.9018L6.73633 15.6479L7.08203 15.7799L7.1222 15.9924Z" fill="#D7D9D5"/>
<path d="M5.81612 15.6659L5.7046 15.4758L6.05984 15.2826L6.28298 15.6635L5.81612 15.6659Z" fill="#D7D9D5"/>
<path d="M6.28291 15.6627L6.05981 15.2822L6.33547 15.2827L6.488 15.5436L6.28291 15.6627Z" fill="#B4B5B0"/>
<path d="M6.48793 15.5434L6.3354 15.2826L6.44697 15.2071L6.66968 15.5873L6.48793 15.5434Z" fill="#D7D9D5"/>
<path d="M6.07614 14.3706L5.95528 14.6192L5.63711 14.303C5.67845 14.2504 5.72586 14.2121 5.7831 14.1878L5.7868 14.1872L6.07614 14.3706Z" fill="#D7D9D5"/>
<path d="M5.95431 14.6194L6.07697 14.3712L6.34932 14.673L6.2653 14.8432L5.95431 14.6194Z" fill="#B4B5B0"/>
<path d="M6.26515 14.8433L6.34916 14.6731L6.5578 14.8853L6.43514 15.1335L6.26515 14.8433Z" fill="#D7D9D5"/>
<path d="M31.3308 16.4415L31.4975 17.4847L31.7536 17.6983L31.4893 17.6045L31.3797 16.9182C31.181 15.6746 30.0382 14.3532 28.8764 13.8467C27.601 13.2911 26.7283 13.8483 26.7763 15.0718L26.9056 15.8817L26.8373 15.9033L26.9563 15.9869L26.7191 15.8922L26.5824 15.0365C26.3372 13.5016 27.3547 12.6377 28.8157 13.1965C30.277 13.7553 30.8478 14.4818 31.3308 16.4415Z" fill="#E72A00"/>
<path d="M31.8157 16.6708L32.0406 17.5642L31.7819 18.8304L31.739 18.9792L30.7548 18.6209L30.5198 18.5372L30.2554 18.4434L30.1458 17.7571C30.1192 17.5904 30.0759 17.4212 30.0182 17.2522C29.6453 16.1611 29.408 14.4765 28.3828 14.0842C27.1989 13.6317 26.4004 14.2731 26.5991 15.5167L26.7284 16.3266L26.6428 16.2964L26.4628 16.2247L26.2257 16.1303L20.4599 13.8453L16.8201 12.1316L16.2369 11.8987L16.0466 11.8228L15.9701 11.7891L15.8686 11.154C15.6699 9.91037 13.7582 8.49286 12.5746 8.0403C11.4264 7.60143 10.6407 8.19143 10.7755 9.362C10.7796 9.3983 10.7848 9.43511 10.7908 9.47283L10.8484 9.83314L10.5756 9.6861L10.141 9.45196C10.141 9.45196 10.0779 9.41336 9.97564 9.35061C9.53652 9.08129 8.06884 8.22102 8.0486 8.2132C8.03171 8.20692 7.77474 7.76139 7.6029 7.4618C7.51569 7.30928 7.45036 7.19436 7.45036 7.19436L7.44108 6.44231L7.20839 5.67967L7.33902 5.55486L7.75394 4.78201L7.4923 4.43254L7.55381 4.2231L7.79544 4.09921L9.6615 5.06021L10.8723 5.40621L13.03 5.42344C13.03 5.42344 14.7958 5.82443 16.1506 6.32563C17.5053 6.82683 20.4623 8.02174 20.4623 8.02174L20.5706 8.15467L20.3303 8.1378C20.3303 8.1378 19.8126 8.40146 20.5043 9.01514C21.196 9.62916 23.394 10.6767 23.394 10.6767L24.1918 10.8155L24.1928 10.8157C24.2321 10.8277 25.9007 11.6531 27.1081 12.2376C28.335 12.8314 29.7146 13.7351 30.3855 14.2402C31.0567 14.7449 31.8455 15.4177 31.8455 15.4177L31.8823 16.0068L31.8157 16.6708Z" fill="#E72A00"/>
<path d="M16.7026 11.3923L16.8206 12.1311L16.2371 11.8983L16.0467 11.8223L15.9702 11.7886L15.8688 11.1535C15.6701 9.90992 13.7584 8.49242 12.5745 8.03991C11.3905 7.5874 10.592 8.22883 10.7907 9.47243L10.8482 9.83275L10.5754 9.68571L10.1409 9.45157C10.1409 9.45157 10.0777 9.41297 9.97548 9.35021L9.92959 9.06297C9.65238 7.32772 10.7668 6.43276 12.4183 7.06441C14.0708 7.69623 16.4254 9.65701 16.7026 11.3923Z" fill="#E72A00"/>
<path d="M30.64 17.8983L30.7554 18.6206L30.52 18.537L30.2557 18.4431L30.146 17.7569C29.9474 16.5133 29.5671 14.5369 28.3831 14.084C27.1991 13.6315 26.4006 14.2729 26.5993 15.5165L26.7287 16.3264L26.643 16.2959L26.463 16.2241L26.2259 16.1298L26.0892 15.2741C25.844 13.7392 26.8295 12.9477 28.2904 13.5062C30.3335 14.287 30.2966 15.7485 30.64 17.8983Z" fill="#E72A00"/>
<path d="M15.5361 11.1504C15.7019 12.1885 14.2443 12.6818 13.256 12.304C12.2677 11.9263 11.3322 10.7783 11.1664 9.74012C11.0005 8.70193 11.6671 8.16653 12.6554 8.54427C13.6437 8.92202 15.3702 10.1122 15.5361 11.1504Z" fill="#12090A"/>
<path d="M15.182 11.0154C15.315 11.8482 13.9893 12.2354 13.1967 11.9325C12.4041 11.6295 11.6536 10.7085 11.5206 9.87572C11.3876 9.04295 11.9223 8.61357 12.7149 8.91655C13.5078 9.21948 15.0489 10.1823 15.182 11.0154Z" fill="#9FA1A2"/>
<path d="M16.1303 11.2285L16.2373 11.8983L16.047 11.8223L15.9704 11.7886L15.869 11.1535C15.6703 9.90989 13.7586 8.49239 12.5747 8.03988C11.3907 7.58737 10.5922 8.2288 10.7909 9.4724L10.8484 9.83272L10.5756 9.68568L10.521 9.34388C10.2977 7.94605 11.1954 7.22522 12.5258 7.73411C13.8565 8.24294 15.907 9.83064 16.1303 11.2285Z" fill="#E72A00"/>
<path d="M30.1172 17.5068C30.283 18.545 30.0529 18.7261 29.0646 18.348C28.0763 17.9702 27.1408 16.8223 26.975 15.7841C26.8091 14.7459 27.4757 14.2105 28.464 14.5882C29.4519 14.966 29.9513 16.4686 30.1172 17.5068Z" fill="#12090A"/>
<path d="M30.0667 17.1245C30.1997 17.9572 29.7974 18.2791 29.0048 17.9762C28.2122 17.6732 27.4617 16.7522 27.3287 15.9194C27.1957 15.0867 27.7304 14.6573 28.523 14.9603C29.3159 15.2632 29.9337 16.2917 30.0667 17.1245Z" fill="#9FA1A2"/>
<path d="M30.4072 17.8316L30.5199 18.5371L30.2556 18.4432L30.1459 17.7569C29.9473 16.5133 29.567 14.5369 28.383 14.0841C27.199 13.6316 26.4005 14.273 26.5992 15.5166L26.7286 16.3265L26.6429 16.296L26.4629 16.2242L26.3294 15.3884C26.1061 13.9906 27.0035 13.2698 28.3341 13.7783C30.2463 14.5092 30.0857 15.8192 30.4072 17.8316Z" fill="#E72A00"/>
<path d="M31.8701 17.597L31.0222 17.145L31.1018 17.6431L31.3007 18.5427L31.6718 18.6346L31.8701 17.597Z" fill="#12090A"/>
<path d="M31.8824 16.0064L30.7035 15.043L30.3082 15.3421L30.6562 15.9336L31.8913 16.9029L31.8159 16.6708L31.8824 16.0064Z" fill="#B31800"/>
<path d="M30.7533 15.1204L30.4337 15.4246L30.6892 15.8717L31.42 16.2716L31.5556 16.2541L31.6421 15.5807L30.7533 15.1204Z" fill="#898383"/>
<path d="M24.0824 14.9202L24.0592 14.9111C24.0042 14.8885 18.5493 12.6732 17.7584 12.2816C17.5075 12.1573 17.3624 11.9991 17.3281 11.8105C17.2797 11.5462 17.4635 11.3113 17.5106 11.2561L15.6344 8.41567L15.635 8.40833C15.6747 8.02972 15.7309 7.45197 15.7253 7.4128L15.765 7.40645C15.7735 7.45932 15.689 8.27953 15.676 8.40558L17.5613 11.2598L17.5504 11.2715C17.548 11.274 17.317 11.5271 17.3677 11.8032C17.3998 11.9783 17.5372 12.1273 17.7764 12.2455C18.5396 12.6233 23.6614 14.706 24.0518 14.8643L24.1528 14.2863L23.9145 11.6835L23.0048 10.5784L23.0359 10.5524L23.9534 11.6677L23.954 11.6734L24.1929 14.2909L24.0824 14.9202Z" fill="#991A17"/>
<path d="M23.3939 10.6763L22.5023 10.6035L18.6426 9.03517L16.9113 8.33167L12.8139 6.3758L12.1815 6.11179L9.66138 5.05981L10.8722 5.40581L13.0298 5.42304C13.0298 5.42304 14.7957 5.82403 16.1504 6.32523C17.5052 6.82643 20.4622 8.02134 20.4622 8.02134L20.5705 8.15427L20.3302 8.1374C20.3302 8.1374 20.3877 8.16863 20.4861 8.22266C20.9438 8.4745 21.4987 9.18325 22.1068 9.64073C22.8948 10.2331 23.3939 10.6763 23.3939 10.6763Z" fill="#E72A00"/>
<path d="M8.46759 8.12623L10.7757 9.36196C10.7798 9.39826 10.785 9.43541 10.791 9.47279L10.8486 9.8331L10.5757 9.68606L10.1412 9.45192C10.1412 9.45192 10.0781 9.41332 9.97582 9.35057C9.53669 9.08125 8.06896 8.22064 8.04872 8.21283C8.03183 8.20655 7.77486 7.76101 7.60303 7.46143C7.60863 7.47055 8.46759 8.12623 8.46759 8.12623Z" fill="#B31800"/>
<path d="M18.4909 12.7602L26.6851 16.0525L26.7288 16.3263L26.6428 16.2958L26.4632 16.224L26.226 16.1297L16.8204 12.1309L16.2373 11.8981L16.047 11.8225L15.9705 11.7888L15.9001 11.3486L18.4909 12.7602Z" fill="#B31800"/>
<path d="M31.7821 18.8303L31.7392 18.9791L30.7554 18.6207L30.52 18.5371L30.2556 18.4432L30.2305 18.2856L31.7821 18.8303Z" fill="#B31800"/>
<path d="M7.44159 6.44172L8.87682 7.101L10.2357 8.40652L9.73282 8.28069L7.45088 7.19376L7.44159 6.44172Z" fill="#E72A00"/>
<path d="M31.8159 16.6706L31.5556 16.2539L31.42 16.2714L30.6892 15.8715L30.6563 15.9334L31.8913 16.9027L31.8159 16.6706Z" fill="#E72A00"/>
<path d="M25.0926 14.7188L16.6646 10.8882L17.4484 10.8555L24.0043 13.8535L25.0926 14.7188Z" fill="#E72A00"/>
<path d="M7.2089 5.67899L7.80413 5.98726L8.22019 5.35341L7.67377 5.69867L7.3392 5.55423L7.2089 5.67899Z" fill="#E72A00"/>
<path d="M31.8204 19.0663L31.7751 19.8595L31.5352 20.355L31.1436 20.7505L29.7842 21.8545L28.9029 22.4922L28.099 22.821L27.2595 23.0442L27.3024 22.8954L27.4435 20.8927L32.0408 17.5644L31.8633 18.9175L31.8204 19.0663Z" fill="#E72A00"/>
<path d="M27.1878 20.7591L31.8913 16.9028L31.9798 17.2944L31.8806 17.6784L31.375 18.3359L29.2796 20.0375L28.3911 20.5483L27.4436 20.8927L27.1878 20.7591Z" fill="#B31800"/>
<path d="M31.8826 16.0063L31.8161 16.6707L31.8898 16.9034L31.7454 17.3761L31.0815 18.216L29.2574 19.6967L27.9213 20.4817L27.3674 20.6897L27.1888 20.7579L27.2917 20.4448L27.3034 20.4033L26.7707 19.73L30.0377 17.1751L31.8826 16.0063Z" fill="#8A1900"/>
<path d="M31.9722 15.6654L31.8823 16.0064L31.2562 16.869C31.2562 16.869 30.7172 17.585 28.9975 18.6623C28.6525 18.8783 27.5537 19.4147 27.5537 19.4147L26.7699 19.7312L22.8505 19.0779L16.6952 15.8784L20.4602 13.8448L24.1914 10.8152L24.1925 10.8153C24.2317 10.8274 25.9003 11.6528 27.1078 12.2373C28.3347 12.8311 29.8492 13.4984 30.5201 14.0035C31.1912 14.5082 31.8452 15.4173 31.8452 15.4173L31.9722 15.6654Z" fill="#FA2E00"/>
<path d="M31.9733 15.6641L31.8811 16.0059L31.2576 16.8697C31.2576 16.8697 30.7171 17.5828 28.997 18.6619C28.6525 18.8789 27.555 19.4151 27.555 19.4151L26.7707 19.73L26.4818 19.6812C26.5097 19.588 26.5303 19.5267 26.5303 19.5267C26.5303 19.5267 27.5131 19.1525 28.5874 18.5467C29.6616 17.941 30.2156 17.4091 30.8113 16.9075C31.4095 16.4024 31.8452 15.4183 31.8452 15.4183L31.9733 15.6641Z" fill="#DB2104"/>
<path d="M28.5361 18.2069C28.6399 18.3402 28.7442 18.8005 28.8458 19.246C28.846 19.2473 28.8466 19.2489 28.8469 19.2506C28.9133 19.202 28.9809 19.1557 29.0469 19.1064C29.2462 18.9575 29.4418 18.8051 29.6369 18.6534C29.5315 18.2143 29.4285 17.8786 29.2513 17.6492C29.0166 17.3473 27.8194 16.7252 26.8513 16.2531C25.2642 15.5252 23.0733 14.5176 21.9836 14.0128C21.7448 14.1825 21.4924 14.3451 21.2315 14.4907C21.1865 14.5162 21.1272 14.5471 21.0596 14.5824C21.6375 14.851 23.4527 15.6861 26.4656 17.0727C27.3377 17.4994 28.3842 18.0599 28.5361 18.2069Z" fill="black"/>
<path d="M29.6768 19.5045C29.5487 19.4328 29.4201 19.3611 29.2919 19.289C29.1967 19.2359 29.1773 19.2286 29.0904 19.2946C29.0156 19.3518 28.9415 19.411 28.8581 19.4554C28.7374 19.5192 28.6376 19.6246 28.5419 19.72C28.5166 19.7451 28.491 19.7709 28.4757 19.8027C28.4601 19.8346 28.4565 19.8745 28.4751 19.9047C28.489 19.927 28.5127 19.9409 28.5354 19.9538C28.6399 20.0134 28.7441 20.0731 28.8486 20.1327C28.9174 20.1722 29.0093 20.1962 29.0414 20.276C29.0715 20.3502 29.0533 20.4716 29.0543 20.5512C29.0563 20.7609 29.0501 20.9704 29.04 21.1796C29.019 21.6105 28.9821 22.0405 28.9363 22.4694L29.7859 21.8537L29.9101 21.7513C29.9143 21.7475 29.9126 21.7153 29.9131 21.7097C29.9469 21.2492 29.9702 20.7855 29.9518 20.3239C29.944 20.1349 29.9305 19.9443 29.8939 19.7585C29.8697 19.635 29.8229 19.5865 29.7167 19.5271C29.703 19.5193 29.6898 19.5121 29.6768 19.5045Z" fill="#D7D6D7"/>
<path d="M31.2517 20.6406L31.1438 20.7497L30.2693 21.4581C30.3141 21.0362 30.3512 20.6135 30.3737 20.1899C30.3849 19.9789 30.3926 19.7677 30.3931 19.5566C30.3931 19.4682 30.4072 19.3599 30.3879 19.2736C30.368 19.1835 30.233 19.136 30.1573 19.0883C30.0924 19.0473 30.0271 19.0062 29.9622 18.9648C29.9226 18.9397 29.8809 18.9125 29.8598 18.8707C29.8264 18.8045 29.8544 18.7248 29.8884 18.6589C29.9623 18.5159 30.0707 18.4226 30.1682 18.3006C30.2457 18.204 30.1456 17.9862 30.1189 17.8727C30.0642 17.6404 30.0272 17.3158 29.8756 17.1214C29.7236 16.9744 28.6772 16.4139 27.8048 15.9876C25.8764 15.0756 23.6603 14.0265 22.6141 13.524C22.903 13.2852 23.1504 13.0529 23.3407 12.8668C24.5188 13.4276 26.6394 14.4343 28.1975 15.1731C29.1621 15.6427 30.3558 16.2622 30.591 16.5672C30.7334 16.7499 30.8132 16.9747 30.8784 17.1943C30.9196 17.3338 30.9539 17.4751 30.9883 17.6164C31.0077 17.6972 31.0155 17.7243 30.965 17.7948C30.9262 17.8487 30.8777 17.8948 30.8272 17.9377C30.7558 17.9985 30.6752 18.0584 30.6448 18.1471C30.6077 18.2563 30.7504 18.3085 30.8308 18.3602C30.9274 18.4225 31.0276 18.479 31.1304 18.5299C31.2114 18.5701 31.2186 18.5976 31.2356 18.6889C31.2706 18.876 31.2839 19.0672 31.2912 19.2574C31.3091 19.7176 31.2853 20.1807 31.2517 20.6406Z" fill="black"/>
<path d="M28.8001 21.9599L28.6926 22.3638L29.3141 22.0042L31.2876 20.4084L31.4799 20.1763L31.5149 20.0367L31.4391 19.5623L31.1973 19.3778L30.7719 20.0505L28.8001 21.9599Z" fill="#8A1900"/>
<path d="M31.1974 19.3778L29.3012 20.848C29.3012 20.848 28.7857 21.8669 28.8006 21.9598C28.8155 22.0531 31.2843 20.0429 31.2843 20.0429L31.1974 19.3778Z" fill="#12090A"/>
<path d="M7.55385 4.22254L6.66645 4.64057C6.66645 4.64057 4.08117 6.29817 2.53938 7.99179L1.80505 8.89026L3.43313 9.85752L5.40498 10.7025L11.693 5.85851L7.79519 4.09903L7.55385 4.22254Z" fill="#FA2E00"/>
<path d="M13.0298 5.42313L10.8721 5.4059L9.05366 5.55343L7.89393 5.82745C7.89393 5.82745 5.70636 6.7191 4.37669 8.68342L3.83166 9.79408L4.95027 10.1987L8.34853 9.22445L13.0298 5.42313Z" fill="#E72A00"/>
<path d="M24.1906 10.8137L24.1594 11.2497L24.1355 11.5778L23.751 12.4435C23.751 12.4435 23.2774 12.9809 22.5664 13.5652C22.1801 13.8838 21.72 14.2201 21.2314 14.4909C20.8324 14.7107 19.4263 15.4029 19.4263 15.4029L17.9988 15.8451C17.9335 15.8189 17.8451 15.726 17.746 15.583C17.1041 14.704 15.8886 11.9569 15.8886 11.9569L18.6414 9.03454L18.93 8.909L19.1416 8.81719L20.4206 8.26753L20.4518 8.25321L20.4867 8.22312L20.5704 8.15484L24.1906 10.8137Z" fill="#12090A"/>
<path d="M23.81 10.902L23.8619 11.227L23.7819 11.5302L23.515 12.3281C23.515 12.3281 22.1915 13.5942 21.3567 14.1098C20.5249 14.625 19.2632 15.2054 19.2632 15.2054L18.0227 15.5749L17.8339 15.2169L16.1365 11.978C16.1365 11.978 16.1365 11.978 17.2922 11.4235C18.1696 11.0019 19.3958 9.85528 19.9375 9.32223C20.1122 9.15376 20.2144 9.04557 20.2144 9.04557L20.5217 8.46155C20.5681 8.44482 20.7395 8.54279 20.9872 8.71423C20.9907 8.71677 20.9907 8.71677 20.9942 8.71932C21.9069 9.34397 23.81 10.902 23.81 10.902Z" fill="#1A1A1A"/>
<path d="M23.4002 10.7474L19.9377 9.32245C20.1125 9.15398 20.2147 9.04579 20.2147 9.04579L20.522 8.46177C20.5684 8.44504 20.7398 8.54302 20.9875 8.71445C20.991 8.717 20.991 8.717 20.9945 8.71954C21.9428 9.49115 23.2899 10.6518 23.4002 10.7474Z" fill="#9C9FA3"/>
<path d="M23.8099 10.9019L23.8618 11.2269L23.7818 11.5301L23.5148 12.328C23.5148 12.328 22.1914 13.5941 21.3565 14.1097C20.5247 14.6249 19.263 15.2053 19.263 15.2053L18.0225 15.5748L17.8338 15.2167C17.8582 15.121 17.8721 15.0545 17.8712 15.0488C17.8693 15.037 19.3322 14.2805 19.611 14.1106C19.889 13.9377 20.879 12.8043 20.879 12.8043C20.879 12.8043 20.9521 12.1507 21.0275 12.0499C21.1002 11.9495 22.3855 10.8269 22.5294 10.7335C22.6732 10.6373 23.8099 10.9019 23.8099 10.9019Z" fill="#1E1E1E"/>
<path d="M24.1906 10.8137L24.1594 11.2497L24.1355 11.5778L23.751 12.4435C23.751 12.4435 23.2774 12.9809 22.5664 13.5652C20.8034 11.3704 18.7672 9.51551 18.7672 9.51551C18.7672 9.51551 18.9 9.23737 19.1419 8.81679L20.4209 8.26712L20.4521 8.25281L20.487 8.22272L20.5707 8.15443L24.1906 10.8137Z" fill="#181B1C"/>
<path d="M20.4618 8.02151C20.4618 8.02151 22.2359 9.32563 24.1915 10.8152L24.3171 11.195L24.0486 11.7753L24.1478 11.3046L24.0774 10.9698C23.5861 10.4754 21.4423 8.87844 20.6288 8.32325C20.3706 8.14693 20.433 8.31929 20.433 8.31929L20.4618 8.02151Z" fill="#E72A00"/>
<path d="M20.5703 8.1543L20.4862 8.22263L20.0965 8.93067C20.0965 8.93067 19.2371 10.0166 17.1054 11.3597L15.889 11.9556L8.3484 9.22473C8.3484 9.22473 8.69939 8.49698 8.82462 8.25837C9.52066 6.93434 11.8659 5.78889 11.8659 5.78889L13.0294 5.4238C13.0294 5.4238 14.7953 5.82478 16.15 6.32598C17.5047 6.82718 20.4618 8.0221 20.4618 8.0221L20.5703 8.1543Z" fill="#FF3407"/>
<path d="M27.1878 20.7592L27.4436 20.8927L27.3025 22.8954L27.2596 23.0442L25.3031 23.0477L25.0677 22.964L24.8034 22.8702L24.6937 22.1839C24.4951 20.9403 23.3744 19.565 22.1904 19.1125C21.0065 18.66 20.208 19.3014 20.4067 20.545L20.536 21.3549L20.4503 21.3243L20.2704 21.2526L20.0332 21.1582L9.83697 17.1173L9.25345 16.8845L9.06312 16.8085L8.9866 16.7748L8.88514 16.1397C8.68647 14.8961 7.56578 13.5208 6.38184 13.0683C5.23358 12.6294 4.4479 13.2194 4.58276 14.39C4.58683 14.4263 4.59207 14.4634 4.59804 14.5008L4.6556 14.8611L4.38278 14.7141L3.94823 14.4799C3.94823 14.4799 3.88542 14.4413 3.78285 14.3786C3.34373 14.1093 2.32021 12.8883 2.29957 12.8802C2.28268 12.8739 2.02572 12.4284 1.85388 12.1288C1.76667 11.9763 1.70134 11.8613 1.70134 11.8613L1.69205 11.1093L1.45937 10.3467L1.59 10.2218L2.00493 9.449L1.74327 9.09953L1.80479 8.89009L2.04641 8.7662L3.43287 9.85735L5.40472 10.7023L8.34817 9.22443C8.34817 9.22443 10.114 9.62507 11.4688 10.1266C12.8235 10.6278 15.7805 11.8227 15.7805 11.8227L15.8888 11.9557L15.6485 11.9388C15.6485 11.9388 15.0389 12.0655 15.5973 12.8027C16.1495 13.5312 17.2009 15.705 17.2009 15.705L17.6341 16.0344C17.6341 16.0344 18.0695 16.1727 19.5696 16.7536C20.798 17.2294 23.1997 18.1687 23.9813 18.4765C24.8787 18.8301 26.5312 19.5265 26.5312 19.5265L26.7698 19.7315L27.1878 20.7592Z" fill="#E72A00"/>
<path d="M31.98 17.2958C31.98 17.2958 31.98 17.2958 32.0152 17.5164C32.0505 17.737 31.4267 18.3871 31.3819 18.4523C31.3343 18.5179 29.5778 19.9633 29.3525 20.1033C29.1243 20.2437 28.2377 20.8377 27.4524 20.9542C26.8671 21.0414 26.291 20.9563 26.044 20.9039C26.4189 20.9359 27.4423 20.8915 27.4423 20.8915L28.3902 20.5474L29.2784 20.0388L31.3762 18.3368L31.8795 17.6786L31.98 17.2958Z" fill="#FF481F"/>
<path d="M22.3348 17.9224L17.7412 16.704C9.46261 13.439 9.46261 13.439 9.46261 13.439L6.15079 11.6101L3.43335 9.85718L3.83138 9.79359L17.9991 15.843L22.3348 17.9224Z" fill="#DB2104"/>
<path d="M26.5313 19.5262L25.7701 19.5342L25.057 19.0976L20.1187 16.9663L25.3862 18.7111L26.5313 19.5262Z" fill="#F52D00"/>
<path d="M26.1921 19.6959C26.1921 19.6959 25.8523 19.6483 25.7905 19.7411C25.729 19.8338 25.8478 20.7963 25.9099 20.8755C25.9716 20.9547 27.4436 20.8929 27.4436 20.8929L27.1877 20.7594L26.553 19.9702L26.1325 19.6468L26.1921 19.6959Z" fill="#B31800"/>
<path d="M9.30257 15.8946L9.18445 16.4501L9.25385 16.8845L9.06352 16.8086L8.987 16.7749L8.88554 16.1397C8.68687 14.8961 7.56617 13.5208 6.38223 13.0683C5.1983 12.6158 4.39977 13.2572 4.59844 14.5008L4.656 14.8611L4.38317 14.7141L3.94863 14.48C3.94863 14.48 4.39627 14.7507 4.29404 14.6879L4.33092 14.24C4.05372 12.5047 4.93229 11.6143 6.58411 12.2459C8.23593 12.8775 9.02536 14.1593 9.30257 15.8946Z" fill="#B31800"/>
<path d="M24.8614 21.6726L25.0281 22.7159L25.2843 22.9295L25.0199 22.8356L24.9103 22.1494C24.7116 20.9057 23.5688 19.5844 22.407 19.0779C21.1316 18.5219 20.2589 19.0795 20.3069 20.303L20.4363 21.1129L20.3682 21.1344L20.4872 21.218L20.2501 21.1236L20.1134 20.2679C19.8682 18.733 20.8857 17.8691 22.3467 18.4279C23.8076 18.9864 24.3784 19.7126 24.8614 21.6726Z" fill="#B31800"/>
<path d="M9.14666 16.2146L9.25366 16.8844L9.06333 16.8085L8.9868 16.7748L8.88535 16.1397C8.68668 14.8961 7.56598 13.5207 6.38204 13.0682C5.19811 12.6157 4.39958 13.2571 4.59825 14.5007L4.65581 14.861L4.38298 14.714L4.32838 14.3722C4.10508 12.9744 5.00281 12.2535 6.3332 12.7624C7.66392 13.2713 8.92336 14.8168 9.14666 16.2146Z" fill="#E72A00"/>
<path d="M24.9547 22.2589L25.0674 22.964L24.803 22.8702L24.6934 22.1839C24.4947 20.9403 23.374 19.5649 22.1901 19.1124C21.0062 18.6599 20.2077 19.3013 20.4063 20.5449L20.5357 21.3548L20.45 21.3243L20.27 21.2526L20.1365 20.4168C19.9132 19.0189 20.8109 18.2981 22.1413 18.8066C23.472 19.3155 24.7314 20.861 24.9547 22.2589Z" fill="#E72A00"/>
<path d="M27.3969 20.1863L27.3834 20.4088L27.3671 20.6898L27.1884 20.758L26.0311 20.7685L25.8895 19.7088L26.0873 19.7018L26.1932 19.6969L26.7704 19.7301L27.3969 20.1863Z" fill="#8A1900"/>
<path d="M17.8902 19.9489L17.867 19.9399C17.8119 19.9172 12.3569 17.7017 11.5658 17.3104C10.7682 16.916 10.5356 16.2576 10.5335 16.2507L9.44246 13.442L9.44272 13.4371C9.48233 13.0581 9.53847 12.4801 9.53296 12.4412L9.5727 12.4349C9.58125 12.4884 9.4956 13.3185 9.48336 13.4365L10.5713 16.2364C10.5738 16.2439 10.8019 16.8868 11.5838 17.274C12.3472 17.6514 17.4691 19.7344 17.8591 19.8928L17.9601 19.3144L17.7219 16.712L16.8122 15.6069L16.8432 15.5808L17.7608 16.6961L17.7614 16.7023L18.0002 19.3191L17.8902 19.9489Z" fill="#991A17"/>
<path d="M17.9988 15.8434L16.3091 15.632L10.7181 13.3601L6.62071 11.4042L3.83105 9.7937L4.34001 9.89266L8.34826 9.22403C8.34826 9.22403 10.1141 9.62468 11.4689 10.1262C12.8236 10.6274 15.7806 11.8223 15.7806 11.8223L15.8889 11.9553C15.8889 11.9553 16.2597 12.7825 16.6998 13.5749C17.2133 14.4995 17.9988 15.8434 17.9988 15.8434Z" fill="#F02C00"/>
<path d="M2.71945 12.7937L4.58336 14.3898C4.58744 14.4261 4.59268 14.4633 4.59865 14.5007L4.65621 14.861L4.38338 14.7139L3.94884 14.4798C3.94884 14.4798 3.88603 14.4411 3.78346 14.3784C3.34433 14.1091 2.32081 12.8882 2.30018 12.8801C2.28329 12.8738 2.02633 12.4282 1.85449 12.1287C1.86015 12.1381 2.71945 12.7937 2.71945 12.7937Z" fill="#B31800"/>
<path d="M12.2982 17.7887L20.4921 21.0811L20.5359 21.3548L20.4505 21.3243L20.2702 21.2526L20.0334 21.1581L9.83713 17.1172L9.25361 16.8844L9.06328 16.8085L8.98676 16.7748L8.9165 16.335L12.2982 17.7887Z" fill="#B31800"/>
<path d="M27.3024 22.8954L27.2595 23.0442L25.303 23.0477L25.0676 22.9641L24.8033 22.8702L24.7781 22.7126L27.3024 22.8954Z" fill="#E72A00"/>
<path d="M7.25127 10.0074L6.89246 11.3217L9.61797 12.6258L16.8277 15.5943C16.8277 15.5943 15.7104 12.2427 15.1088 11.8298C14.4383 11.3488 8.959 9.69623 8.959 9.69623L7.25127 10.0074Z" fill="#12090A"/>
<path d="M1.69272 11.1095L2.23856 11.8912L3.32185 12.9696L2.99879 12.8151L1.70234 11.8615L1.69272 11.1095Z" fill="#B31800"/>
<path d="M18.8999 19.7473L9.68091 15.8745L10.4647 15.8415L17.8117 18.882L18.8999 19.7473Z" fill="#B31800"/>
<path d="M1.46037 10.3467L2.05559 10.655L2.47165 10.0211L1.92523 10.3664L1.59066 10.222L1.46037 10.3467Z" fill="#B31800"/>
<path d="M27.4263 21.5307L26.9606 21.5882L26.644 21.5393L26.3324 21.4586L26.3761 21.8964L26.402 22.2051L26.6382 22.318C26.6382 22.318 27.4084 22.1884 27.5329 22.0922C27.6574 21.9959 28.0906 21.7206 28.0906 21.7206L28.1886 21.3029L27.4263 21.5307Z" fill="#12090A"/>
<path d="M31.8814 16.0088L31.849 16.3227L31.8159 16.6706L31.6368 17.2921L30.9994 18.0881L29.112 19.5941L27.9161 20.2987L27.3969 20.4946L27.3049 20.5307L27.1028 20.6058L26.0145 20.6266L25.9387 20.0762L25.8892 19.708L26.1929 19.6961L26.7575 19.7282L26.7697 19.7293L27.5541 19.4144C27.5541 19.4144 28.6516 18.8782 28.9961 18.6612C30.7167 17.5852 31.2567 16.869 31.2567 16.869L31.8814 16.0088Z" fill="#12090A"/>
<path d="M31.8816 16.009L31.8492 16.323C31.6868 16.5689 31.4742 16.866 31.2651 17.1073C30.8174 17.616 30.1676 18.2181 29.2859 18.7841C28.4011 19.3506 27.5915 19.7948 27.5674 19.817C27.5463 19.8387 27.0608 19.9642 25.9232 19.9553L25.8901 19.7089L26.1938 19.697L26.7584 19.729L26.7707 19.7302L27.555 19.4153C27.555 19.4153 28.6525 18.8791 28.997 18.6621C30.7176 17.586 31.2576 16.8699 31.2576 16.8699L31.8816 16.009Z" fill="#BAC5C7"/>
<path d="M31.9162 18.1528L31.9103 18.1675L31.7724 18.5066L31.5993 18.7974L31.5867 19.1233L31.7233 19.2345L31.8633 18.9175L31.9542 18.1222L31.9162 18.1528Z" fill="#12090A"/>
<path d="M2.47171 10.0211L2.44465 9.85175L2.00564 9.44911L1.65964 10.0935L1.67202 10.171L1.92529 10.3664L2.47171 10.0211Z" fill="#292D2F"/>
<path d="M2.38287 9.84136L1.94541 10.0559L1.75092 9.98203L2.04368 9.48425L2.38287 9.84136Z" fill="#E72A00"/>
<path d="M27.9223 19.3993L27.9884 19.5366L27.9667 19.9151C27.9558 20.1061 27.8336 20.273 27.6546 20.3414L27.1035 20.5516L26.3427 20.5575C26.2167 20.5583 26.109 20.4674 26.0891 20.3431L26.0239 19.9347L26.0642 19.8025L26.2418 19.7683L26.8281 19.7723L27.6131 19.476L27.7681 19.4025L27.9223 19.3993Z" fill="white"/>
<path d="M31.2396 16.9682C31.2396 16.9682 31.1533 17.8177 31.2359 17.7341C31.481 17.4867 31.5965 17.2693 31.5965 17.2693L31.7955 16.6691L31.8755 16.0613L31.308 16.8837L31.2396 16.9682Z" fill="white"/>
<path d="M27.6696 19.5055C27.7586 19.4899 27.7272 20.0178 27.6164 20.0825C27.5058 20.1471 27.0063 20.3343 27.0063 20.3343L26.3428 20.3574C26.3428 20.3574 26.2176 20.3715 26.1887 20.2294C26.1598 20.0872 26.1371 19.9061 26.1371 19.9061C26.1371 19.9061 26.1352 19.8142 26.2761 19.8186C26.417 19.823 26.8355 19.8204 26.8355 19.8204C26.8355 19.8204 27.5745 19.5224 27.6696 19.5055Z" fill="#12090A"/>
<path d="M9.28011 10.0505L7.822 10.2835L7.61496 11.3805L9.09042 12.0431L9.75189 10.1827L9.28011 10.0505Z" fill="#1A1A1A"/>
<path d="M10.3773 10.3006L9.7413 12.459L16.5263 15.2654C16.5263 15.2654 15.4098 12.114 14.9686 11.8747C14.527 11.6355 10.3773 10.3006 10.3773 10.3006Z" fill="#1A1A1A"/>
<path d="M28.2376 18.7379C28.2376 18.7379 27.0012 17.9487 26.7988 17.8792C26.5967 17.8096 20.4121 15.3069 20.4121 15.3069L26.8787 17.7393L28.007 18.4231L28.2376 18.7379Z" fill="#FF481F"/>
<path d="M31.1156 16.3949C31.1156 16.3949 30.9918 16.3442 30.8259 16.0668C30.8047 16.0312 30.6261 15.5144 30.2055 15.2791C28.4557 14.2998 24.0383 12.3274 24.0383 12.3274C24.0383 12.3274 29.0182 14.4034 30.2861 15.202C30.47 15.3176 30.9033 15.7664 30.9033 15.7664L31.1167 16.2918L31.1156 16.3949Z" fill="#B31800"/>
<path d="M31.7695 16.2594L31.3493 16.8911L31.2722 16.968L31.2398 17.5309C31.2398 17.5309 31.5144 17.2136 31.5369 17.1599C31.5597 17.1058 31.696 16.6489 31.7107 16.5962C31.7251 16.5434 31.7695 16.2594 31.7695 16.2594Z" fill="#12090A"/>
<path d="M29.0374 19.1427C29.0374 19.1427 28.8188 19.2961 28.6571 19.3906C28.4954 19.4852 28.2316 19.6175 28.2316 19.6175L28.2554 19.766C28.2554 19.766 28.5862 19.5912 28.7542 19.4839C28.9222 19.3766 29.0576 19.269 29.0576 19.269L29.0374 19.1427Z" fill="#BAC5C7"/>
<path d="M18.1698 10.4669C18.2055 10.4978 18.2378 10.5292 18.2736 10.5604C18.044 10.7318 17.7913 10.9096 17.5148 11.0943C17.4106 10.9977 17.3048 10.9079 17.0099 10.7654C16.9304 10.7263 16.8378 10.6827 16.7292 10.6359C15.7991 10.2312 10.7687 8.31044 9.90031 8.11902C9.68473 8.07092 9.31741 8.08677 8.89348 8.13309C8.83339 8.13958 8.77075 8.14958 8.70763 8.15656C7.99829 8.25157 7.17065 8.42971 6.60977 8.57422L6.50077 8.60096L6.39274 8.5754C6.35116 8.56374 5.35611 8.32521 4.62829 7.88513C4.28976 7.67917 3.83819 7.36004 3.46386 7.08348C3.69296 6.87248 3.9326 6.66913 4.16797 6.47578C4.48669 6.70908 4.83395 6.95025 5.09778 7.11013C5.58171 7.40268 6.24615 7.5994 6.49821 7.66619C6.68678 7.62087 7.04616 7.53583 7.47569 7.44891C7.57353 7.43017 7.67744 7.41047 7.78135 7.39076L7.79616 7.38839C8.44372 7.26975 9.18558 7.16644 9.72788 7.19308C9.80149 7.19341 9.87275 7.20067 9.93823 7.20851C9.99414 7.21477 10.0478 7.2245 10.0955 7.23553C11.0592 7.44834 16.1032 9.37627 17.0925 9.80807C17.3354 9.91292 17.5149 10.0034 17.656 10.082C17.898 10.2199 18.0294 10.3335 18.1698 10.4669Z" fill="black"/>
<path d="M19.6434 9.37541C19.6505 9.3805 19.6571 9.38532 19.6641 9.39041C19.4921 9.55845 19.266 9.76896 18.9798 10.0074C18.7858 9.84567 18.5739 9.68682 18.1991 9.5022C18.1161 9.46054 18.0301 9.41904 17.9315 9.37677C16.9526 8.95228 11.9025 7.00737 11.0371 6.81512C10.9007 6.78511 10.6993 6.78655 10.4555 6.8103C10.3619 6.81904 10.2631 6.83171 10.1613 6.84521C9.42548 6.94756 8.46697 7.18632 7.79576 7.38817L7.78094 7.39054C7.74015 7.40327 7.69931 7.41567 7.66155 7.42792L7.5361 7.46626L7.47523 7.44836L7.41132 7.43094C7.3825 7.42345 6.69243 7.23705 5.9711 6.7987C5.62608 6.59101 5.16347 6.26121 4.78294 5.98253C5.04952 5.77488 5.30634 5.58397 5.53908 5.41521C5.84986 5.6377 6.1834 5.86863 6.4375 6.02384C6.88803 6.29756 7.32617 6.45687 7.52929 6.52215C8.13624 6.33955 10.316 5.72542 11.2322 5.93062C11.2956 5.94501 11.3782 5.9653 11.475 5.99578C11.4846 5.99736 11.4938 5.99899 11.5038 6.00326C12.9285 6.42387 17.4066 8.15766 18.2942 8.54768C18.5705 8.66862 18.7905 8.78335 18.9724 8.88863C19.2674 9.06873 19.464 9.22692 19.6434 9.37541Z" fill="black"/>
<path d="M12.078 5.53932L11.5368 5.78774C11.5368 5.78774 11.1295 5.97505 10.592 6.32407C10.5889 6.32455 10.5889 6.32455 10.5889 6.32455C10.3482 6.48215 10.0843 6.66796 9.8197 6.88774C8.95127 7.59525 8.66643 7.974 8.49021 8.3841C8.31437 8.79448 8.19267 8.95137 8.19267 8.95137L4.92219 9.47383L4.37401 9.48819C4.37401 9.48819 4.7168 8.43678 5.822 7.47112C5.82454 7.46761 5.83012 7.46361 5.83282 7.46318C6.93888 6.50083 8.04626 5.8926 9.03442 5.72266C9.21577 5.69058 9.43207 5.66535 9.66679 5.64305C10.7092 5.54697 12.078 5.53932 12.078 5.53932Z" fill="#1A1A1A"/>
<path d="M10.3979 5.96967C10.3979 5.96967 9.5101 6.43266 7.58856 8.05572C7.33843 8.26696 6.99929 8.65163 6.60962 9.20426L4.92219 9.47383L4.37401 9.48819C4.37401 9.48819 4.7168 8.43678 5.822 7.47112C6.93061 6.50527 8.04362 5.89337 9.03442 5.72266C9.21577 5.69058 9.43207 5.66535 9.66679 5.64305L10.3979 5.96967Z" fill="#1E1E1E"/>
<path d="M12.0778 5.53902L11.5366 5.78744C11.5366 5.78744 11.1293 5.97476 10.5918 6.32378C10.5887 6.32426 10.5887 6.32426 10.5887 6.32426C9.66618 6.38599 7.20892 6.62279 5.83266 7.46322C6.93873 6.50088 8.04611 5.89265 9.03426 5.7227C9.21562 5.69062 9.43192 5.66539 9.66664 5.64309C10.709 5.54668 12.0778 5.53902 12.0778 5.53902Z" fill="#181B1C"/>
<path d="M8.79845 4.16688L8.54633 4.03484C8.3956 3.956 8.21933 3.93996 8.05685 3.99078L6.65668 4.42857C5.15884 5.49804 3.75451 6.61889 2.5186 7.7888L1.88985 9.02817C1.84678 9.11309 1.89261 9.21628 1.98462 9.24095L2.32415 9.3321C2.58863 9.40313 2.86892 9.29861 3.02227 9.07174L3.65367 8.1386C4.84765 7.00889 6.20385 5.92612 7.65087 4.89308L8.78462 4.43915C8.90341 4.39151 8.91187 4.22612 8.79845 4.16688Z" fill="#B8B092"/>
<path d="M3.19301 7.5995L2.98667 7.52057C2.99262 7.80211 2.83549 8.08311 2.47685 8.1404C2.32666 8.16439 2.19743 8.14014 2.09212 8.0841C2.08998 8.08582 2.0874 8.08693 2.08526 8.08865C1.93976 8.20686 1.94491 8.34935 2.09645 8.40733L2.76805 8.66404C2.91959 8.72202 3.1601 8.67324 3.3056 8.55502C3.33463 8.53139 3.35341 8.50629 3.37056 8.4818L3.37257 8.48355C3.37595 8.48094 3.37661 8.47427 3.37955 8.47103C3.38289 8.46601 3.38556 8.4611 3.38818 8.45585C3.4976 8.29125 3.33684 7.65457 3.19301 7.5995Z" fill="#8A1900"/>
<path d="M8.14432 3.63965L7.9207 3.55416C7.92342 3.83276 7.76514 4.10876 7.41021 4.16546C7.27113 4.18768 7.15175 4.16669 7.05132 4.11954C7.0467 4.12304 7.04119 4.1253 7.03696 4.12908C6.89146 4.2473 6.89661 4.38979 7.04815 4.44777L7.71975 4.70447C7.8713 4.76245 8.1118 4.71367 8.2573 4.59546C8.27996 4.57734 8.29209 4.55813 8.3073 4.53878L8.31358 4.53916C8.31938 4.53443 8.32175 4.52335 8.32662 4.51705C8.33245 4.50817 8.33767 4.49974 8.34176 4.4908C8.35036 4.47112 8.35702 4.44796 8.36096 4.42074C8.36115 4.4176 8.36241 4.41463 8.36226 4.41155C8.39502 4.167 8.26713 3.68634 8.14432 3.63965Z" fill="#8A1900"/>
<path d="M8.74775 3.64547L8.47574 3.5943C8.32501 3.51547 8.14874 3.49942 7.98626 3.55024L6.58608 3.98803C5.08825 5.05751 3.68397 6.17869 2.44801 7.34826L1.79635 8.49184C1.73267 8.73304 1.82231 8.77536 1.91431 8.80003L2.25384 8.89118C2.51832 8.9622 2.79861 8.85768 2.95196 8.63081L3.58864 7.73068C4.78262 6.60096 6.13881 5.5182 7.58583 4.48516L8.71432 3.99822C8.83282 3.95098 8.88874 3.79734 8.74775 3.64547Z" fill="#E72A00"/>
<path d="M3.56578 7.58972C4.75976 6.46001 6.11596 5.37724 7.56298 4.34421C7.16551 4.15837 6.9666 4.06547 6.56879 3.87969C5.07095 4.94916 3.66662 6.07001 2.43071 7.23992C2.88473 7.37977 3.11177 7.44987 3.56578 7.58972Z" fill="#FF481F"/>
<path d="M2.93468 8.52263L3.56608 7.58949C3.11207 7.44963 2.88503 7.37954 2.43068 7.23974L1.80192 8.47911C1.75885 8.56404 1.80469 8.66723 1.89669 8.6919L2.23622 8.78305C2.50098 8.85368 2.78094 8.74921 2.93468 8.52263Z" fill="#FF3407"/>
<path d="M8.69678 3.89006L7.56303 4.344C7.16555 4.15816 6.96665 4.06526 6.56884 3.87948L7.96901 3.44169C8.13149 3.39087 8.30771 3.40658 8.45849 3.48575L8.71062 3.6178C8.82403 3.67703 8.81557 3.84242 8.69678 3.89006Z" fill="#FF3407"/>
<defs>
<linearGradient id="paint0_linear_372_3862" x1="22.0452" y1="18.9194" x2="24.9886" y2="22.5444" gradientUnits="userSpaceOnUse">
<stop stop-color="#2C2C2C"/>
<stop offset="0.1276" stop-color="#333333"/>
<stop offset="0.3148" stop-color="#3E3E3E"/>
<stop offset="0.4352" stop-color="#393939"/>
<stop offset="0.5722" stop-color="#2C2C2C"/>
<stop offset="0.5915" stop-color="#292929"/>
<stop offset="0.7608" stop-color="#212121"/>
<stop offset="1" stop-color="#0D0D0D"/>
</linearGradient>
<linearGradient id="paint1_linear_372_3862" x1="22.6939" y1="23.5205" x2="23.8694" y2="20.446" gradientUnits="userSpaceOnUse">
<stop stop-color="#0D0D0D"/>
<stop offset="0.3951" stop-color="#0F0F0F"/>
<stop offset="0.5826" stop-color="#171717"/>
<stop offset="0.726" stop-color="#242424"/>
<stop offset="0.7682" stop-color="#292929"/>
<stop offset="0.8477" stop-color="#2E2E2E"/>
<stop offset="1" stop-color="#333333"/>
</linearGradient>
<linearGradient id="paint2_linear_372_3862" x1="22.618" y1="23.3602" x2="23.6718" y2="20.6041" gradientUnits="userSpaceOnUse">
<stop offset="0.2448" stop-color="#0D0D0D"/>
<stop offset="0.6024" stop-color="#0F0F0F"/>
<stop offset="0.7721" stop-color="#171717"/>
<stop offset="0.9019" stop-color="#242424"/>
<stop offset="0.9401" stop-color="#292929"/>
</linearGradient>
<linearGradient id="paint3_linear_372_3862" x1="23.3345" y1="23.2972" x2="20.9674" y2="20.3821" gradientUnits="userSpaceOnUse">
<stop offset="0.1458" stop-color="#686868"/>
<stop offset="0.1673" stop-color="#6E6E6E"/>
<stop offset="0.1956" stop-color="#7F7F7F"/>
<stop offset="0.2277" stop-color="#9A9A9A"/>
<stop offset="0.2624" stop-color="#C0C0C0"/>
<stop offset="0.2839" stop-color="#DBDBDB"/>
<stop offset="0.3123" stop-color="#D2D2D2"/>
<stop offset="0.3596" stop-color="#B8B9B9"/>
<stop offset="0.4197" stop-color="#8F9191"/>
<stop offset="0.4349" stop-color="#838686"/>
<stop offset="0.4995" stop-color="#7E8181"/>
<stop offset="0.5731" stop-color="#717474"/>
<stop offset="0.6512" stop-color="#5B5D5D"/>
<stop offset="0.7319" stop-color="#3D3D3D"/>
<stop offset="0.7474" stop-color="#363636"/>
</linearGradient>
<linearGradient id="paint4_linear_372_3862" x1="21.3867" y1="20.3703" x2="21.389" y2="20.3732" gradientUnits="userSpaceOnUse">
<stop stop-color="#C8C9C9"/>
<stop offset="0.3629" stop-color="#BABBBB"/>
<stop offset="0.3696" stop-color="#B5B6B6"/>
<stop offset="0.4183" stop-color="#939394"/>
<stop offset="0.4722" stop-color="#767676"/>
<stop offset="0.5315" stop-color="#5F5E5F"/>
<stop offset="0.5987" stop-color="#4D4C4C"/>
<stop offset="0.6782" stop-color="#403F40"/>
<stop offset="0.7818" stop-color="#393738"/>
<stop offset="1" stop-color="#373536"/>
</linearGradient>
<linearGradient id="paint5_linear_372_3862" x1="22.2604" y1="21.0732" x2="21.5789" y2="20.3273" gradientUnits="userSpaceOnUse">
<stop stop-color="#C8C9C9"/>
<stop offset="0.3629" stop-color="#BABBBB"/>
<stop offset="0.3696" stop-color="#B5B6B6"/>
<stop offset="0.4183" stop-color="#939394"/>
<stop offset="0.4722" stop-color="#767676"/>
<stop offset="0.5315" stop-color="#5F5E5F"/>
<stop offset="0.5987" stop-color="#4D4C4C"/>
<stop offset="0.6782" stop-color="#403F40"/>
<stop offset="0.7818" stop-color="#393738"/>
<stop offset="1" stop-color="#373536"/>
</linearGradient>
<linearGradient id="paint6_linear_372_3862" x1="23.1467" y1="21.288" x2="22.6217" y2="20.931" gradientUnits="userSpaceOnUse">
<stop offset="0.1458" stop-color="#686868"/>
<stop offset="0.1673" stop-color="#6E6E6E"/>
<stop offset="0.1956" stop-color="#7F7F7F"/>
<stop offset="0.2277" stop-color="#9A9A9A"/>
<stop offset="0.2624" stop-color="#C0C0C0"/>
<stop offset="0.2839" stop-color="#DBDBDB"/>
<stop offset="0.3123" stop-color="#D2D2D2"/>
<stop offset="0.3596" stop-color="#B8B9B9"/>
<stop offset="0.4197" stop-color="#8F9191"/>
<stop offset="0.4349" stop-color="#838686"/>
<stop offset="0.4995" stop-color="#7E8181"/>
<stop offset="0.5731" stop-color="#717474"/>
<stop offset="0.6512" stop-color="#5B5D5D"/>
<stop offset="0.7319" stop-color="#3D3D3D"/>
<stop offset="0.7474" stop-color="#363636"/>
<stop offset="0.9119" stop-color="#363636"/>
</linearGradient>
<linearGradient id="paint7_linear_372_3862" x1="21.9275" y1="21.7193" x2="21.4023" y2="21.1913" gradientUnits="userSpaceOnUse">
<stop stop-color="#C8C9C9"/>
<stop offset="0.3629" stop-color="#BABBBB"/>
<stop offset="0.3696" stop-color="#B5B6B6"/>
<stop offset="0.4183" stop-color="#939394"/>
<stop offset="0.4722" stop-color="#767676"/>
<stop offset="0.5315" stop-color="#5F5E5F"/>
<stop offset="0.5987" stop-color="#4D4C4C"/>
<stop offset="0.6782" stop-color="#403F40"/>
<stop offset="0.7818" stop-color="#393738"/>
<stop offset="1" stop-color="#373536"/>
</linearGradient>
<linearGradient id="paint8_linear_372_3862" x1="23.1121" y1="22.1778" x2="23.4338" y2="21.6855" gradientUnits="userSpaceOnUse">
<stop stop-color="#C8C9C9"/>
<stop offset="0.3629" stop-color="#BABBBB"/>
<stop offset="0.3696" stop-color="#B5B6B6"/>
<stop offset="0.4183" stop-color="#939394"/>
<stop offset="0.4722" stop-color="#767676"/>
<stop offset="0.5315" stop-color="#5F5E5F"/>
<stop offset="0.5987" stop-color="#4D4C4C"/>
<stop offset="0.6782" stop-color="#403F40"/>
<stop offset="0.7818" stop-color="#393738"/>
<stop offset="1" stop-color="#373536"/>
</linearGradient>
<linearGradient id="paint9_linear_372_3862" x1="22.2425" y1="22.5071" x2="23.5559" y2="22.3918" gradientUnits="userSpaceOnUse">
<stop stop-color="#C8C9C9"/>
<stop offset="0.3629" stop-color="#BABBBB"/>
<stop offset="0.3696" stop-color="#B5B6B6"/>
<stop offset="0.4183" stop-color="#939394"/>
<stop offset="0.4722" stop-color="#767676"/>
<stop offset="0.5315" stop-color="#5F5E5F"/>
<stop offset="0.5987" stop-color="#4D4C4C"/>
<stop offset="0.6782" stop-color="#403F40"/>
<stop offset="0.7818" stop-color="#393738"/>
<stop offset="1" stop-color="#373536"/>
</linearGradient>
<linearGradient id="paint10_linear_372_3862" x1="21.68" y1="21.6415" x2="21.921" y2="21.9383" gradientUnits="userSpaceOnUse">
<stop stop-color="#C8C9C9"/>
<stop offset="0.3629" stop-color="#BABBBB"/>
<stop offset="0.3696" stop-color="#B5B6B6"/>
<stop offset="0.4183" stop-color="#939394"/>
<stop offset="0.4722" stop-color="#767676"/>
<stop offset="0.5315" stop-color="#5F5E5F"/>
<stop offset="0.5987" stop-color="#4D4C4C"/>
<stop offset="0.6782" stop-color="#403F40"/>
<stop offset="0.7818" stop-color="#393738"/>
<stop offset="1" stop-color="#373536"/>
</linearGradient>
<linearGradient id="paint11_linear_372_3862" x1="22.3549" y1="22.2915" x2="22.7601" y2="22.7904" gradientUnits="userSpaceOnUse">
<stop stop-color="#C8C9C9"/>
<stop offset="0.3629" stop-color="#BABBBB"/>
<stop offset="0.3696" stop-color="#B5B6B6"/>
<stop offset="0.4183" stop-color="#939394"/>
<stop offset="0.4722" stop-color="#767676"/>
<stop offset="0.5315" stop-color="#5F5E5F"/>
<stop offset="0.5987" stop-color="#4D4C4C"/>
<stop offset="0.6782" stop-color="#403F40"/>
<stop offset="0.7818" stop-color="#393738"/>
<stop offset="1" stop-color="#373536"/>
</linearGradient>
<linearGradient id="paint12_linear_372_3862" x1="6.4293" y1="12.7424" x2="9.37276" y2="16.3674" gradientUnits="userSpaceOnUse">
<stop stop-color="#2C2C2C"/>
<stop offset="0.1276" stop-color="#333333"/>
<stop offset="0.3148" stop-color="#3E3E3E"/>
<stop offset="0.4352" stop-color="#393939"/>
<stop offset="0.5722" stop-color="#2C2C2C"/>
<stop offset="0.5915" stop-color="#292929"/>
<stop offset="0.7608" stop-color="#212121"/>
<stop offset="1" stop-color="#0D0D0D"/>
</linearGradient>
<linearGradient id="paint13_linear_372_3862" x1="7.07792" y1="17.3434" x2="8.2535" y2="14.2688" gradientUnits="userSpaceOnUse">
<stop stop-color="#0D0D0D"/>
<stop offset="0.3951" stop-color="#0F0F0F"/>
<stop offset="0.5826" stop-color="#171717"/>
<stop offset="0.726" stop-color="#242424"/>
<stop offset="0.7682" stop-color="#292929"/>
<stop offset="0.8477" stop-color="#2E2E2E"/>
<stop offset="1" stop-color="#333333"/>
</linearGradient>
<linearGradient id="paint14_linear_372_3862" x1="7.00229" y1="17.1833" x2="8.05609" y2="14.4272" gradientUnits="userSpaceOnUse">
<stop offset="0.2448" stop-color="#0D0D0D"/>
<stop offset="0.6024" stop-color="#0F0F0F"/>
<stop offset="0.7721" stop-color="#171717"/>
<stop offset="0.9019" stop-color="#242424"/>
<stop offset="0.9401" stop-color="#292929"/>
</linearGradient>
<linearGradient id="paint15_linear_372_3862" x1="7.71854" y1="17.1202" x2="5.35151" y2="14.2051" gradientUnits="userSpaceOnUse">
<stop offset="0.1458" stop-color="#686868"/>
<stop offset="0.1673" stop-color="#6E6E6E"/>
<stop offset="0.1956" stop-color="#7F7F7F"/>
<stop offset="0.2277" stop-color="#9A9A9A"/>
<stop offset="0.2624" stop-color="#C0C0C0"/>
<stop offset="0.2839" stop-color="#DBDBDB"/>
<stop offset="0.3123" stop-color="#D2D2D2"/>
<stop offset="0.3596" stop-color="#B8B9B9"/>
<stop offset="0.4197" stop-color="#8F9191"/>
<stop offset="0.4349" stop-color="#838686"/>
<stop offset="0.4995" stop-color="#7E8181"/>
<stop offset="0.5731" stop-color="#717474"/>
<stop offset="0.6512" stop-color="#5B5D5D"/>
<stop offset="0.7319" stop-color="#3D3D3D"/>
<stop offset="0.7474" stop-color="#363636"/>
</linearGradient>
<linearGradient id="paint16_linear_372_3862" x1="6.64446" y1="14.8962" x2="5.96291" y2="14.1502" gradientUnits="userSpaceOnUse">
<stop stop-color="#C8C9C9"/>
<stop offset="0.3629" stop-color="#BABBBB"/>
<stop offset="0.3696" stop-color="#B5B6B6"/>
<stop offset="0.4183" stop-color="#939394"/>
<stop offset="0.4722" stop-color="#767676"/>
<stop offset="0.5315" stop-color="#5F5E5F"/>
<stop offset="0.5987" stop-color="#4D4C4C"/>
<stop offset="0.6782" stop-color="#403F40"/>
<stop offset="0.7818" stop-color="#393738"/>
<stop offset="1" stop-color="#373536"/>
</linearGradient>
<linearGradient id="paint17_linear_372_3862" x1="7.53077" y1="15.111" x2="7.0058" y2="14.754" gradientUnits="userSpaceOnUse">
<stop offset="0.1458" stop-color="#686868"/>
<stop offset="0.1673" stop-color="#6E6E6E"/>
<stop offset="0.1956" stop-color="#7F7F7F"/>
<stop offset="0.2277" stop-color="#9A9A9A"/>
<stop offset="0.2624" stop-color="#C0C0C0"/>
<stop offset="0.2839" stop-color="#DBDBDB"/>
<stop offset="0.3123" stop-color="#D2D2D2"/>
<stop offset="0.3596" stop-color="#B8B9B9"/>
<stop offset="0.4197" stop-color="#8F9191"/>
<stop offset="0.4349" stop-color="#838686"/>
<stop offset="0.4995" stop-color="#7E8181"/>
<stop offset="0.5731" stop-color="#717474"/>
<stop offset="0.6512" stop-color="#5B5D5D"/>
<stop offset="0.7319" stop-color="#3D3D3D"/>
<stop offset="0.7474" stop-color="#363636"/>
<stop offset="0.9119" stop-color="#363636"/>
</linearGradient>
<linearGradient id="paint18_linear_372_3862" x1="6.31166" y1="15.5422" x2="5.78639" y2="15.0142" gradientUnits="userSpaceOnUse">
<stop stop-color="#C8C9C9"/>
<stop offset="0.3629" stop-color="#BABBBB"/>
<stop offset="0.3696" stop-color="#B5B6B6"/>
<stop offset="0.4183" stop-color="#939394"/>
<stop offset="0.4722" stop-color="#767676"/>
<stop offset="0.5315" stop-color="#5F5E5F"/>
<stop offset="0.5987" stop-color="#4D4C4C"/>
<stop offset="0.6782" stop-color="#403F40"/>
<stop offset="0.7818" stop-color="#393738"/>
<stop offset="1" stop-color="#373536"/>
</linearGradient>
<linearGradient id="paint19_linear_372_3862" x1="7.49593" y1="16.0006" x2="7.81768" y2="15.5083" gradientUnits="userSpaceOnUse">
<stop stop-color="#C8C9C9"/>
<stop offset="0.3629" stop-color="#BABBBB"/>
<stop offset="0.3696" stop-color="#B5B6B6"/>
<stop offset="0.4183" stop-color="#939394"/>
<stop offset="0.4722" stop-color="#767676"/>
<stop offset="0.5315" stop-color="#5F5E5F"/>
<stop offset="0.5987" stop-color="#4D4C4C"/>
<stop offset="0.6782" stop-color="#403F40"/>
<stop offset="0.7818" stop-color="#393738"/>
<stop offset="1" stop-color="#373536"/>
</linearGradient>
<linearGradient id="paint20_linear_372_3862" x1="6.62665" y1="16.3299" x2="7.94" y2="16.2146" gradientUnits="userSpaceOnUse">
<stop stop-color="#C8C9C9"/>
<stop offset="0.3629" stop-color="#BABBBB"/>
<stop offset="0.3696" stop-color="#B5B6B6"/>
<stop offset="0.4183" stop-color="#939394"/>
<stop offset="0.4722" stop-color="#767676"/>
<stop offset="0.5315" stop-color="#5F5E5F"/>
<stop offset="0.5987" stop-color="#4D4C4C"/>
<stop offset="0.6782" stop-color="#403F40"/>
<stop offset="0.7818" stop-color="#393738"/>
<stop offset="1" stop-color="#373536"/>
</linearGradient>
<linearGradient id="paint21_linear_372_3862" x1="6.06407" y1="15.4643" x2="6.30505" y2="15.761" gradientUnits="userSpaceOnUse">
<stop stop-color="#C8C9C9"/>
<stop offset="0.3629" stop-color="#BABBBB"/>
<stop offset="0.3696" stop-color="#B5B6B6"/>
<stop offset="0.4183" stop-color="#939394"/>
<stop offset="0.4722" stop-color="#767676"/>
<stop offset="0.5315" stop-color="#5F5E5F"/>
<stop offset="0.5987" stop-color="#4D4C4C"/>
<stop offset="0.6782" stop-color="#403F40"/>
<stop offset="0.7818" stop-color="#393738"/>
<stop offset="1" stop-color="#373536"/>
</linearGradient>
<linearGradient id="paint22_linear_372_3862" x1="6.73872" y1="16.1144" x2="7.14386" y2="16.6134" gradientUnits="userSpaceOnUse">
<stop stop-color="#C8C9C9"/>
<stop offset="0.3629" stop-color="#BABBBB"/>
<stop offset="0.3696" stop-color="#B5B6B6"/>
<stop offset="0.4183" stop-color="#939394"/>
<stop offset="0.4722" stop-color="#767676"/>
<stop offset="0.5315" stop-color="#5F5E5F"/>
<stop offset="0.5987" stop-color="#4D4C4C"/>
<stop offset="0.6782" stop-color="#403F40"/>
<stop offset="0.7818" stop-color="#393738"/>
<stop offset="1" stop-color="#373536"/>
</linearGradient>
</defs>
</svg>
