<svg width="49" height="46" viewBox="0 0 49 46" fill="none" xmlns="http://www.w3.org/2000/svg">
<path d="M2.5293 37.3545L2.53616 39.7182L13.3452 46.0001L13.3383 43.6358L2.5293 37.3545Z" fill="#997854"/>
<path d="M13.3384 43.6354L13.3453 45.9997L48.2842 25.8274L48.2779 23.4631L13.3384 43.6354Z" fill="#6A543A"/>
<path d="M2.5293 37.3542L13.3383 43.6355L48.2778 23.4632L37.4682 17.1819L2.5293 37.3542Z" fill="#AB865E"/>
<path d="M1.15869 35.5642L2.53616 37.4064L13.3452 43.6877L11.9677 41.8461L1.15869 35.5642Z" fill="#7B664F"/>
<path d="M11.8618 41.8296L13.3629 43.657L37.3209 10.1114V6.97876L11.8618 41.8296Z" fill="#6A543A"/>
<path d="M0.987793 35.4172L11.7968 41.6991L37.2907 6.99468L26.4811 0.713379L0.987793 35.4172Z" fill="#AB865E"/>
<path d="M25.3066 39.1422L23.936 39.9907V13.1787L24.3929 13.244L25.3066 13.4283V26.2853V32.7138V35.928V36.7316L35.2919 31.1148V33.399L25.3066 39.1422Z" fill="#131313"/>
<path d="M36.6621 32.616C36.7204 30.0378 36.6958 28.3997 36.0974 25.9839C35.4989 23.5682 34.5917 21.3545 33.4276 19.4691C32.2635 17.5837 30.8653 16.0635 29.3128 14.9954C27.7603 13.9274 26.084 13.3323 24.3794 13.2441L24.3237 15.7078C25.8144 15.7849 27.2804 16.3053 28.6381 17.2393C29.9958 18.1734 31.2185 19.5028 32.2365 21.1516C33.2545 22.8004 34.0479 24.7364 34.5713 26.8489C35.0946 28.9615 35.3378 31.2093 35.2868 33.464L36.6621 32.616Z" fill="#131313"/>
</svg>
