<svg width="192" height="124" viewBox="0 0 192 124" fill="none" xmlns="http://www.w3.org/2000/svg">
<path d="M5.92481 77.3838L3.82623 78.5862L0 87.8259L2.1014 91.4528L57.1845 123.255L59.2859 122.041L70.5147 108.795L60.4011 94.0883L5.92481 77.3838Z" fill="#B06F4A"/>
<path d="M189.508 31.0433L126.581 72.3409L55.4792 108.416L53.375 104.781L123.362 53.1783L187.401 27.4053L189.508 31.0433Z" fill="#C17B54"/>
<path d="M191.245 45.9449L57.2081 123.329L55.4795 108.416L189.508 31.0435L191.245 45.9449Z" fill="#9B6648"/>
<path d="M187.401 27.4053L53.3749 104.781L5.9248 77.3837L139.965 0L187.401 27.4053Z" fill="#DA8A5E"/>
<path opacity="0.3" d="M62.7832 99.3447V44.5539L113.72 15.1511V69.942L62.7832 99.3447Z" fill="white"/>
<path opacity="0.3" d="M116.669 68.2338V13.4429L124.406 8.97876V63.7781L116.669 68.2338Z" fill="white"/>
</svg>
