<svg width="255" height="178" viewBox="0 0 255 178" fill="none" xmlns="http://www.w3.org/2000/svg">
<path d="M177.543 76.1277C176.325 73.3712 174.656 70.7376 172.698 68.5089C171.046 66.6283 169.19 65.0372 167.226 63.9039C163.745 61.8947 160.591 61.7074 158.315 63.0318L151.427 67.0351L169.166 97.5425L176.054 93.5392C178.302 92.2338 179.694 89.4564 179.705 85.5079C179.715 82.496 178.917 79.2343 177.543 76.1277Z" fill="#171A25"/>
<path d="M160.339 67.9054C153.424 63.9134 147.802 67.1164 147.779 75.0512C147.756 82.9973 153.343 92.6746 160.258 96.6665C167.173 100.659 172.796 97.4555 172.819 89.5093C172.841 81.5765 167.254 71.8992 160.339 67.9054Z" fill="#171A25"/>
<path d="M168.199 86.662C168.309 81.62 164.854 75.3955 160.48 72.7582C159.867 72.3874 159.269 72.1187 158.692 71.9238C157.247 72.4857 156.303 74.0258 156.252 76.3529C156.159 80.6116 159.078 85.8693 162.771 88.0961C164.852 89.3504 166.735 89.375 167.999 88.3969C168.118 87.869 168.186 87.2901 168.199 86.662Z" fill="#5B5861"/>
<path d="M165.584 79.5298C164.992 78.2925 164.071 77.1743 163.025 76.5443C162.826 76.4251 162.629 76.3267 162.44 76.2511C160.87 75.6267 159.649 76.4857 159.608 78.3776L159.6 78.8525C159.558 80.7179 160.837 83.0223 162.457 83.9967C162.574 84.0667 162.684 84.1102 162.797 84.1612C162.701 84.1158 162.606 84.0837 162.506 84.025L162.913 84.2615C164.729 85.321 166.228 84.4942 166.273 82.3942C166.296 81.4785 166.035 80.4701 165.584 79.5298Z" fill="#696570"/>
<path d="M168.283 88.155C167.026 89.3734 165.015 89.4491 162.773 88.0982C159.08 85.8714 156.161 80.6137 156.254 76.355C156.308 73.8501 157.393 72.2476 159.029 71.8087C159.372 71.716 158.88 71.6479 158.88 71.6479L156.948 71.5873C154.303 71.506 152.441 73.5284 152.362 77.1155C152.252 82.1575 155.707 88.382 160.081 91.0194C163.263 92.9378 166.056 92.427 167.382 90.0639L168.125 88.7396C168.125 88.7396 168.532 87.9109 168.283 88.155Z" fill="#696570"/>
<path d="M160.514 71.224C155.405 68.1439 151.16 70.4218 151.031 76.3114C150.903 82.2009 154.94 89.4716 160.048 92.5517C165.156 95.6318 169.402 93.3539 169.531 87.4643C169.659 81.5747 165.622 74.304 160.514 71.224ZM160.08 91.0193C155.706 88.3819 152.252 82.1574 152.361 77.1154C152.471 72.0734 156.105 70.1228 160.48 72.7602C164.854 75.3976 168.308 81.622 168.199 86.664C168.089 91.7041 164.455 93.6547 160.08 91.0193Z" fill="#86828F"/>
<path d="M164.54 84.245C165.699 83.5904 165.723 81.438 164.593 79.4374C163.463 77.4368 161.608 76.3456 160.449 77.0001C159.29 77.6547 159.266 79.8071 160.396 81.8077C161.526 83.8083 163.381 84.8995 164.54 84.245Z" fill="#86828F"/>
<path d="M114.469 36.9417C113.251 34.1851 111.582 31.5516 109.624 29.3229C107.972 27.4423 106.116 25.8512 104.153 24.7179C100.671 22.7087 97.5175 22.5214 95.2415 23.8457L88.353 27.8491L106.092 58.3565L112.98 54.3532C115.228 53.0477 116.62 50.2704 116.632 46.3219C116.641 43.3099 115.843 40.0482 114.469 36.9417Z" fill="#171A25"/>
<path d="M97.2662 28.7193C90.3512 24.7274 84.7283 27.9304 84.7056 35.8652C84.6829 43.8113 90.2698 53.4885 97.1848 57.4805C104.1 61.4725 109.723 58.2694 109.745 50.3233C109.768 42.3904 104.181 32.7132 97.2662 28.7193Z" fill="#171A25"/>
<path d="M105.125 47.476C105.235 42.434 101.781 36.2095 97.4064 33.5722C96.7934 33.2013 96.1956 32.9327 95.6185 32.7378C94.1731 33.2997 93.229 34.8397 93.1779 37.1668C93.0852 41.4256 96.0045 46.6832 99.6975 48.91C101.779 50.1644 103.661 50.189 104.925 49.2109C105.044 48.683 105.112 48.1041 105.125 47.476Z" fill="#5B5861"/>
<path d="M102.511 40.3435C101.918 39.1062 100.997 37.988 99.9508 37.358C99.7521 37.2388 99.5554 37.1405 99.3662 37.0648C97.7959 36.4405 96.5756 37.2994 96.5339 39.1913L96.5264 39.6662C96.4848 41.5316 97.7637 43.836 99.3832 44.8104C99.5005 44.8804 99.6102 44.9239 99.7238 44.975C99.6273 44.9296 99.5327 44.8974 99.4324 44.8388L99.8392 45.0753C101.655 46.1347 103.154 45.308 103.199 43.2079C103.222 42.2922 102.961 41.2838 102.511 40.3435Z" fill="#696570"/>
<path d="M105.209 48.9687C103.953 50.1871 101.941 50.2628 99.6995 48.912C96.0064 46.6852 93.0872 41.4275 93.1799 37.1687C93.2347 34.6638 94.3188 33.0613 95.9553 32.6224C96.2978 32.5297 95.8059 32.4616 95.8059 32.4616L93.8742 32.401C91.2293 32.3197 89.3676 34.3422 89.2882 37.9293C89.1785 42.9713 92.6331 49.1957 97.0073 51.8331C100.189 53.7515 102.982 53.2407 104.308 50.8776L105.052 49.5533C105.052 49.5533 105.459 48.7247 105.209 48.9687Z" fill="#696570"/>
<path d="M97.4404 32.0379C92.3322 28.9579 88.0867 31.2357 87.9581 37.1253C87.8294 43.0149 91.8668 50.2856 96.975 53.3657C102.083 56.4457 106.329 54.1679 106.457 48.2783C106.586 42.3887 102.549 35.118 97.4404 32.0379ZM97.0072 51.8332C92.633 49.1959 89.1784 42.9714 89.2881 37.9294C89.3978 32.8874 93.0322 30.9368 97.4064 33.5742C101.781 36.2115 105.235 42.436 105.125 47.478C105.016 52.5181 101.381 54.4687 97.0072 51.8332Z" fill="#86828F"/>
<path d="M101.466 45.059C102.625 44.4044 102.649 42.252 101.519 40.2514C100.39 38.2508 98.5341 37.1596 97.375 37.8141C96.216 38.4687 96.1922 40.6211 97.322 42.6217C98.4518 44.6223 100.307 45.7135 101.466 45.059Z" fill="#86828F"/>
<g filter="url(#filter0_f_490_932)">
<path d="M156.771 110.364L142.545 118.952L31.2943 72.6536V58.8311L59.7445 41.7878L156.771 97.6147V110.364Z" fill="black" fill-opacity="0.06"/>
</g>
<path d="M177.858 95.8701L177.84 99.8961L126.844 129.957L126.862 125.929L177.858 95.8701Z" fill="#476D85"/>
<path d="M126.978 125.931L126.959 130.126L26.9997 72.2858L27.017 68.0908L126.978 125.931Z" fill="#3A5A6A"/>
<path d="M177.974 95.8701L127.113 126.065L27.0001 68.0909L77.8628 38.8354L177.974 95.8701Z" fill="#5E91AB"/>
<g opacity="0.29" filter="url(#filter1_f_490_932)">
<path d="M128.186 147L43.3721 98.2857L122.818 38.8354L224.675 93.0519L202.801 106.874L181.731 117.879L128.186 147Z" fill="black" fill-opacity="0.53"/>
</g>
<g filter="url(#filter2_f_490_932)">
<path d="M156.771 99.8961L142.545 108.485L31.2943 62.1861V48.3636L59.7445 31.3203L156.771 87.1472V99.8961Z" fill="black" fill-opacity="0.06"/>
</g>
<path d="M173.565 83.6418L173.546 94.7964L126.844 122.307L126.863 111.151L173.565 83.6418Z" fill="#476D85"/>
<path d="M126.844 111.134L126.825 122.442L31.0256 67.1862L31.0428 55.8787L126.844 111.134Z" fill="#3A5A6A"/>
<path d="M173.588 83.6283L126.753 111.169L31.0258 55.9082L77.8625 28.3679L173.588 83.6283Z" fill="#507B91"/>
<path d="M86.9868 30.5151L86.9683 34.5411L40.6881 61.9177L40.7067 57.8901L86.9868 30.5151Z" fill="#476D85"/>
<path d="M40.8413 57.8569L40.8224 62.0519L39.0779 61.0131L39.0951 56.8181L40.8413 57.8569Z" fill="#3A5A6A"/>
<path d="M86.9868 30.5151L40.8224 57.8917L39.0782 56.8181L85.7806 29.9783L86.9868 30.5151Z" fill="#6AACCD"/>
<path d="M158.112 71.3118L158.094 75.3378L111.814 102.714L111.832 98.6868L158.112 71.3118Z" fill="#476D85"/>
<path d="M111.967 98.6535L111.948 102.849L110.203 101.81L110.221 97.6147L111.967 98.6535Z" fill="#3A5A6A"/>
<path d="M158.112 71.3117L111.948 98.6883L110.204 97.6147L156.906 70.7749L158.112 71.3117Z" fill="#6AACCD"/>
<path d="M117.959 108.872C116.74 106.116 115.071 103.482 113.113 101.254C111.462 99.373 109.606 97.7818 107.642 96.6486C104.161 94.6393 101.007 94.452 98.7308 95.7764L91.8423 99.7797L109.581 130.287L116.47 126.284C118.717 124.978 120.11 122.201 120.121 118.253C120.13 115.241 119.332 111.979 117.959 108.872Z" fill="#171A25"/>
<path d="M100.755 100.65C93.8404 96.658 88.2176 99.8611 88.1949 107.796C88.1722 115.742 93.7591 125.419 100.674 129.411C107.589 133.403 113.212 130.2 113.235 122.254C113.257 114.321 107.67 104.644 100.755 100.65Z" fill="#171A25"/>
<path d="M108.615 119.407C108.724 114.365 105.27 108.14 100.896 105.503C100.283 105.132 99.6848 104.863 99.1078 104.668C97.6623 105.23 96.7183 106.77 96.6672 109.097C96.5745 113.356 99.4937 118.614 103.187 120.841C105.268 122.095 107.15 122.12 108.414 121.142C108.533 120.614 108.601 120.035 108.615 119.407Z" fill="#5B5861"/>
<path d="M106 112.274C105.408 111.037 104.486 109.919 103.44 109.289C103.241 109.17 103.045 109.071 102.855 108.996C101.285 108.371 100.065 109.23 100.023 111.122L100.016 111.597C99.974 113.463 101.253 115.767 102.872 116.741C102.99 116.811 103.099 116.855 103.213 116.906C103.117 116.86 103.022 116.828 102.922 116.77L103.328 117.006C105.145 118.066 106.643 117.239 106.688 115.139C106.711 114.223 106.45 113.215 106 112.274Z" fill="#696570"/>
<path d="M108.698 120.899C107.442 122.118 105.431 122.193 103.189 120.843C99.4957 118.616 96.5764 113.358 96.6691 109.099C96.724 106.594 97.8081 104.992 99.4446 104.553C99.787 104.46 99.2951 104.392 99.2951 104.392L97.3635 104.332C94.7186 104.25 92.8569 106.273 92.7774 109.86C92.6677 114.902 96.1224 121.126 100.497 123.764C103.679 125.682 106.471 125.171 107.797 122.808L108.541 121.484C108.541 121.484 108.948 120.655 108.698 120.899Z" fill="#696570"/>
<path d="M100.93 103.969C95.8215 100.889 91.576 103.166 91.4473 109.056C91.3187 114.946 95.356 122.216 100.464 125.296C105.572 128.376 109.818 126.099 109.947 120.209C110.075 114.319 106.038 107.049 100.93 103.969ZM100.496 123.764C96.1223 121.127 92.6676 114.902 92.7774 109.86C92.8871 104.818 96.5215 102.867 100.896 105.505C105.27 108.142 108.724 114.367 108.615 119.409C108.505 124.449 104.871 126.399 100.496 123.764Z" fill="#86828F"/>
<path d="M104.956 116.99C106.115 116.335 106.138 114.183 105.009 112.182C103.879 110.181 102.023 109.09 100.864 109.745C99.7052 110.399 99.6815 112.552 100.811 114.552C101.941 116.553 103.797 117.644 104.956 116.99Z" fill="#86828F"/>
<path d="M56.7637 71.8335C55.5453 69.077 53.8766 66.4434 51.9185 64.2147C50.2668 62.3341 48.4108 60.743 46.447 59.6098C42.9658 57.6005 39.812 57.4132 37.536 58.7376L30.6475 62.7409L48.3862 93.2483L55.2748 89.245C57.5224 87.9396 58.9148 85.1622 58.9262 81.2138C58.9356 78.2018 58.1373 74.9401 56.7637 71.8335Z" fill="#171A25"/>
<path d="M39.5606 63.6112C32.6456 59.6192 27.0228 62.8222 27.0001 70.757C26.9774 78.7031 32.5643 88.3804 39.4793 92.3724C46.3943 96.3643 52.0171 93.1613 52.0398 85.2152C52.0625 77.2823 46.4756 67.6051 39.5606 63.6112Z" fill="#171A25"/>
<path d="M47.4199 82.3678C47.5296 77.3258 44.075 71.1014 39.7008 68.464C39.0878 68.0932 38.49 67.8245 37.9129 67.6296C36.4675 68.1915 35.5234 69.7316 35.4724 72.0587C35.3797 76.3174 38.2989 81.5751 41.992 83.8019C44.0731 85.0562 45.9556 85.0808 47.2194 84.1027C47.3386 83.5749 47.4067 82.9959 47.4199 82.3678Z" fill="#5B5861"/>
<path d="M44.805 75.2354C44.2128 73.998 43.2914 72.8799 42.2452 72.2499C42.0466 72.1307 41.8498 72.0323 41.6606 71.9566C40.0903 71.3323 38.87 72.1912 38.8284 74.0832L38.8208 74.558C38.7792 76.4235 40.0582 78.7279 41.6776 79.7022C41.7949 79.7722 41.9047 79.8157 42.0182 79.8668C41.9217 79.8214 41.8271 79.7893 41.7268 79.7306L42.1336 79.9671C43.9499 81.0266 45.4483 80.1998 45.4937 78.0998C45.5164 77.1841 45.2553 76.1756 44.805 75.2354Z" fill="#696570"/>
<path d="M47.5032 83.8606C46.247 85.079 44.2359 85.1546 41.9939 83.8038C38.3009 81.577 35.3816 76.3193 35.4743 72.0606C35.5292 69.5557 36.6132 67.9532 38.2498 67.5143C38.5922 67.4216 38.1003 67.3534 38.1003 67.3534L36.1687 67.2929C33.5237 67.2115 31.6621 69.234 31.5826 72.8211C31.4729 77.8631 34.9275 84.0876 39.3017 86.7249C42.4839 88.6434 45.2764 88.1325 46.6027 85.7695L47.3462 84.4451C47.3462 84.4451 47.753 83.6165 47.5032 83.8606Z" fill="#696570"/>
<path d="M39.7349 66.9295C34.6266 63.8495 30.3812 66.1273 30.2525 72.0169C30.1239 77.9065 34.1612 85.1772 39.2694 88.2573C44.3777 91.3373 48.6232 89.0595 48.7518 83.1699C48.8805 77.2803 44.8431 70.0096 39.7349 66.9295ZM39.3016 86.7248C34.9275 84.0875 31.4728 77.863 31.5825 72.821C31.6923 67.779 35.3266 65.8284 39.7008 68.4658C44.0749 71.1031 47.5296 77.3276 47.4199 82.3696C47.3102 87.4097 43.6758 89.3603 39.3016 86.7248Z" fill="#86828F"/>
<path d="M43.7608 79.9508C44.9198 79.2963 44.9435 77.1438 43.8138 75.1432C42.684 73.1426 40.8285 72.0514 39.6695 72.706C38.5104 73.3605 38.4867 75.5129 39.6164 77.5135C40.7462 79.5141 42.6017 80.6053 43.7608 79.9508Z" fill="#86828F"/>
<path d="M148.316 92.381L148.354 97.4171C148.354 97.5043 148.296 97.5915 148.181 97.6581C147.951 97.7911 147.577 97.7911 147.346 97.6581C147.231 97.5915 147.173 97.5043 147.173 97.4171V92.002L148.316 92.381Z" fill="#7D7D7D"/>
<path d="M148.489 97.1658L148.465 97.299C148.447 97.404 148.359 97.4976 148.206 97.5539C147.899 97.6662 147.448 97.588 147.197 97.379C147.072 97.2745 147.02 97.1567 147.038 97.0517L147.061 96.9185C147.043 97.0242 147.095 97.1413 147.22 97.2458C147.471 97.4548 147.923 97.533 148.229 97.4207C148.382 97.3644 148.47 97.2715 148.489 97.1658Z" fill="#8F8F8F"/>
<path d="M148.488 97.1658C148.47 97.2719 148.382 97.3646 148.23 97.4211C147.922 97.5331 147.47 97.4549 147.22 97.2462C147.094 97.1413 147.043 97.0247 147.061 96.9186C147.073 96.8538 147.11 96.7932 147.173 96.7437V97.0387C147.173 97.1261 147.231 97.213 147.346 97.2795C147.577 97.413 147.95 97.413 148.181 97.2795C148.296 97.213 148.354 97.1261 148.354 97.0387V96.8585C148.462 96.9576 148.506 97.0672 148.488 97.1658Z" fill="#9E9E9E"/>
<path d="M148.489 96.8225L148.465 96.9557C148.447 97.0607 148.359 97.1544 148.206 97.2107C147.899 97.323 147.448 97.2447 147.197 97.0358C147.072 96.9312 147.02 96.8134 147.038 96.7084L147.061 96.5752C147.043 96.6809 147.095 96.798 147.22 96.9025C147.471 97.1115 147.923 97.1898 148.229 97.0774C148.382 97.0212 148.47 96.9282 148.489 96.8225Z" fill="#8F8F8F"/>
<path d="M148.488 96.8223C148.47 96.9284 148.382 97.0211 148.23 97.0776C147.922 97.1896 147.47 97.1114 147.22 96.9027C147.094 96.7978 147.043 96.6812 147.061 96.5751C147.073 96.5103 147.11 96.4497 147.173 96.4001V96.6952C147.173 96.7826 147.231 96.8695 147.346 96.936C147.577 97.0695 147.95 97.0695 148.181 96.936C148.296 96.8695 148.354 96.7826 148.354 96.6952V96.515C148.462 96.6141 148.506 96.7237 148.488 96.8223Z" fill="#9E9E9E"/>
<path d="M148.489 96.4793L148.465 96.6125C148.447 96.7175 148.359 96.8111 148.206 96.8674C147.899 96.9797 147.448 96.9014 147.197 96.6925C147.072 96.588 147.02 96.4701 147.038 96.3652L147.061 96.2319C147.043 96.3377 147.095 96.4548 147.22 96.5593C147.471 96.7682 147.923 96.8465 148.229 96.7342C148.382 96.6779 148.47 96.585 148.489 96.4793Z" fill="#8F8F8F"/>
<path d="M148.488 96.479C148.47 96.5851 148.382 96.6778 148.23 96.7344C147.922 96.8463 147.47 96.7682 147.22 96.5594C147.094 96.4545 147.043 96.3379 147.061 96.2318C147.073 96.1671 147.11 96.1065 147.173 96.0569V96.3519C147.173 96.4394 147.231 96.5262 147.346 96.5927C147.577 96.7262 147.95 96.7262 148.181 96.5927C148.296 96.5262 148.354 96.4394 148.354 96.3519V96.1717C148.462 96.2709 148.506 96.3805 148.488 96.479Z" fill="#9E9E9E"/>
<path d="M148.489 96.1357L148.465 96.269C148.447 96.374 148.359 96.4676 148.206 96.5239C147.899 96.6362 147.448 96.5579 147.197 96.349C147.072 96.2445 147.02 96.1266 147.038 96.0216L147.061 95.8884C147.043 95.9941 147.095 96.1113 147.22 96.2158C147.471 96.4247 147.923 96.503 148.229 96.3907C148.382 96.3344 148.47 96.2415 148.489 96.1357Z" fill="#8F8F8F"/>
<path d="M148.488 96.1355C148.47 96.2416 148.382 96.3343 148.23 96.3909C147.922 96.5028 147.47 96.4247 147.22 96.2159C147.094 96.111 147.043 95.9944 147.061 95.8883C147.073 95.8235 147.11 95.7629 147.173 95.7134V96.0084C147.173 96.0959 147.231 96.1827 147.346 96.2492C147.577 96.3827 147.95 96.3827 148.181 96.2492C148.296 96.1827 148.354 96.0959 148.354 96.0084V95.8282C148.462 95.9274 148.506 96.037 148.488 96.1355Z" fill="#9E9E9E"/>
<path d="M148.489 95.7925L148.465 95.9257C148.447 96.0307 148.359 96.1243 148.206 96.1806C147.899 96.2929 147.448 96.2147 147.197 96.0057C147.072 95.9012 147.02 95.7834 147.038 95.6784L147.061 95.5452C147.043 95.6509 147.095 95.768 147.22 95.8725C147.471 96.0815 147.923 96.1598 148.229 96.0474C148.382 95.9911 148.47 95.8982 148.489 95.7925Z" fill="#8F8F8F"/>
<path d="M148.488 95.7922C148.47 95.8984 148.382 95.9911 148.23 96.0476C147.922 96.1596 147.47 96.0814 147.22 95.8727C147.094 95.7677 147.043 95.6511 147.061 95.545C147.073 95.4803 147.11 95.4197 147.173 95.3701V95.6651C147.173 95.7526 147.231 95.8394 147.346 95.9059C147.577 96.0395 147.95 96.0395 148.181 95.9059C148.296 95.8395 148.354 95.7526 148.354 95.6651V95.485C148.462 95.5841 148.506 95.6937 148.488 95.7922Z" fill="#9E9E9E"/>
<path d="M148.489 95.449L148.465 95.5822C148.447 95.6872 148.359 95.7808 148.206 95.8371C147.899 95.9494 147.448 95.8712 147.197 95.6622C147.072 95.5577 147.02 95.4399 147.038 95.3349L147.061 95.2017C147.043 95.3074 147.095 95.4245 147.22 95.529C147.471 95.738 147.923 95.8163 148.229 95.7039C148.382 95.6476 148.47 95.5547 148.489 95.449Z" fill="#8F8F8F"/>
<path d="M148.488 95.4487C148.47 95.5549 148.382 95.6475 148.23 95.7041C147.922 95.816 147.47 95.7379 147.22 95.5292C147.094 95.4242 147.043 95.3076 147.061 95.2015C147.073 95.1368 147.11 95.0762 147.173 95.0266V95.3216C147.173 95.4091 147.231 95.4959 147.346 95.5624C147.577 95.6959 147.95 95.6959 148.181 95.5624C148.296 95.496 148.354 95.4091 148.354 95.3216V95.1414C148.462 95.2406 148.506 95.3502 148.488 95.4487Z" fill="#9E9E9E"/>
<path d="M148.489 95.1057L148.465 95.2389C148.447 95.3439 148.359 95.4376 148.206 95.4939C147.899 95.6062 147.448 95.5279 147.197 95.319C147.072 95.2144 147.02 95.0966 147.038 94.9916L147.061 94.8584C147.043 94.9641 147.095 95.0812 147.22 95.1858C147.471 95.3947 147.923 95.473 148.229 95.3607C148.382 95.3044 148.47 95.2114 148.489 95.1057Z" fill="#8F8F8F"/>
<path d="M148.488 95.1055C148.47 95.2116 148.382 95.3043 148.23 95.3608C147.922 95.4728 147.47 95.3946 147.22 95.1859C147.094 95.081 147.043 94.9644 147.061 94.8583C147.073 94.7935 147.11 94.7329 147.173 94.6833V94.9784C147.173 95.0658 147.231 95.1527 147.346 95.2192C147.577 95.3527 147.95 95.3527 148.181 95.2192C148.296 95.1527 148.354 95.0658 148.354 94.9784V94.7982C148.462 94.8973 148.506 95.0069 148.488 95.1055Z" fill="#9E9E9E"/>
<path d="M148.489 94.7622L148.465 94.8954C148.447 95.0004 148.359 95.0941 148.206 95.1504C147.899 95.2627 147.448 95.1844 147.197 94.9755C147.072 94.8709 147.02 94.7531 147.038 94.6481L147.061 94.5149C147.043 94.6206 147.095 94.7377 147.22 94.8422C147.471 95.0512 147.923 95.1295 148.229 95.0171C148.382 94.9609 148.47 94.8679 148.489 94.7622Z" fill="#8F8F8F"/>
<path d="M148.488 94.762C148.47 94.8681 148.382 94.9608 148.23 95.0173C147.922 95.1293 147.47 95.0511 147.22 94.8424C147.094 94.7375 147.043 94.6209 147.061 94.5148C147.073 94.45 147.11 94.3894 147.173 94.3398V94.6349C147.173 94.7223 147.231 94.8092 147.346 94.8757C147.577 95.0092 147.95 95.0092 148.181 94.8757C148.296 94.8092 148.354 94.7223 148.354 94.6349V94.4547C148.462 94.5538 148.506 94.6634 148.488 94.762Z" fill="#9E9E9E"/>
<path d="M148.489 94.419L148.465 94.5522C148.447 94.6572 148.359 94.7508 148.206 94.8071C147.899 94.9194 147.448 94.8411 147.197 94.6322C147.072 94.5277 147.02 94.4098 147.038 94.3048L147.061 94.1716C147.043 94.2774 147.095 94.3945 147.22 94.499C147.471 94.7079 147.923 94.7862 148.229 94.6739C148.382 94.6176 148.47 94.5247 148.489 94.419Z" fill="#8F8F8F"/>
<path d="M148.488 94.4187C148.47 94.5248 148.382 94.6175 148.23 94.6741C147.922 94.786 147.47 94.7079 147.22 94.4991C147.094 94.3942 147.043 94.2776 147.061 94.1715C147.073 94.1068 147.11 94.0462 147.173 93.9966V94.2916C147.173 94.3791 147.231 94.4659 147.346 94.5324C147.577 94.6659 147.95 94.6659 148.181 94.5324C148.296 94.4659 148.354 94.3791 148.354 94.2916V94.1114C148.462 94.2106 148.506 94.3202 148.488 94.4187Z" fill="#9E9E9E"/>
<path d="M148.489 94.0754L148.465 94.2087C148.447 94.3137 148.359 94.4073 148.206 94.4636C147.899 94.5759 147.448 94.4976 147.197 94.2887C147.072 94.1842 147.02 94.0663 147.038 93.9613L147.061 93.8281C147.043 93.9339 147.095 94.051 147.22 94.1555C147.471 94.3644 147.923 94.4427 148.229 94.3304C148.382 94.2741 148.47 94.1812 148.489 94.0754Z" fill="#8F8F8F"/>
<path d="M148.488 94.0752C148.47 94.1813 148.382 94.274 148.23 94.3305C147.922 94.4425 147.47 94.3644 147.22 94.1556C147.094 94.0507 147.043 93.9341 147.061 93.828C147.073 93.7632 147.11 93.7026 147.173 93.6531V93.9481C147.173 94.0355 147.231 94.1224 147.346 94.1889C147.577 94.3224 147.95 94.3224 148.181 94.1889C148.296 94.1224 148.354 94.0355 148.354 93.9481V93.7679C148.462 93.8671 148.506 93.9767 148.488 94.0752Z" fill="#9E9E9E"/>
<path d="M148.45 88.3924L148.757 87.9978L148.45 88.3924ZM148.414 90.5686C148.282 90.8111 148.371 91.1148 148.613 91.247C148.856 91.3792 149.159 91.2899 149.292 91.0475L148.414 90.5686ZM147.121 91.8726L147.07 91.3752L147.121 91.8726ZM147.07 91.3752C146.634 91.4199 146.213 91.3772 145.921 91.2172C145.675 91.0825 145.461 90.8346 145.461 90.2712H144.461C144.461 91.1658 144.846 91.7678 145.44 92.0939C145.988 92.3947 146.647 92.4238 147.172 92.37L147.07 91.3752ZM145.461 90.2712C145.461 89.3251 145.917 88.8067 146.446 88.5853C147.01 88.3492 147.689 88.4342 148.143 88.7871L148.757 87.9978C148.003 87.4113 146.938 87.295 146.06 87.6628C145.146 88.0453 144.461 88.936 144.461 90.2712H145.461ZM148.143 88.7871C148.49 89.0566 148.605 89.3872 148.615 89.7125C148.625 90.057 148.513 90.3859 148.414 90.5686L149.292 91.0475C149.46 90.7382 149.631 90.235 149.614 89.6826C149.597 89.111 149.377 88.4798 148.757 87.9978L148.143 88.7871ZM148.279 92.4184C148.279 91.7306 147.641 91.3167 147.07 91.3752L147.172 92.37C147.205 92.3666 147.239 92.3778 147.262 92.3962C147.272 92.4045 147.277 92.4113 147.278 92.414C147.279 92.4157 147.279 92.4162 147.279 92.4184H148.279Z" fill="#7D7D7D"/>
<g opacity="0.24" filter="url(#filter3_f_490_932)">
<path d="M148.584 89.2945C146.84 87.684 149.792 88.7576 149.121 90.368C148.974 90.7202 148.853 91.3074 148.853 91.3074C148.853 91.3074 148.109 91.1158 148.316 90.7707C148.718 90.0996 148.584 89.2945 148.584 89.2945Z" fill="#D9D9D9"/>
</g>
<path d="M57.9998 38.433L58.038 43.4691C58.038 43.5563 57.9804 43.6435 57.8651 43.7101C57.6346 43.8432 57.2609 43.8432 57.0303 43.7101C56.915 43.6435 56.8574 43.5563 56.8574 43.4691V38.054L57.9998 38.433Z" fill="#7D7D7D"/>
<path d="M58.1726 43.2178L58.1495 43.351C58.1313 43.456 58.0432 43.5496 57.8905 43.6059C57.5835 43.7182 57.1317 43.64 56.8812 43.431C56.7556 43.3265 56.7041 43.2087 56.7223 43.1037L56.7454 42.9705C56.7271 43.0762 56.7787 43.1933 56.9043 43.2978C57.1548 43.5068 57.6066 43.5851 57.9136 43.4727C58.0663 43.4164 58.1543 43.3235 58.1726 43.2178Z" fill="#8F8F8F"/>
<path d="M58.1725 43.2175C58.1544 43.3237 58.0664 43.4163 57.9136 43.4729C57.6064 43.5848 57.1545 43.5067 56.9044 43.298C56.7785 43.193 56.7271 43.0764 56.7452 42.9703C56.7569 42.9056 56.7942 42.845 56.8572 42.7954V43.0904C56.8572 43.1779 56.9149 43.2647 57.0303 43.3312C57.2606 43.4647 57.6344 43.4647 57.8652 43.3312C57.9801 43.2647 58.0378 43.1779 58.0378 43.0904V42.9102C58.1457 43.0094 58.19 43.119 58.1725 43.2175Z" fill="#9E9E9E"/>
<path d="M58.1726 42.8745L58.1495 43.0077C58.1313 43.1127 58.0432 43.2064 57.8905 43.2627C57.5835 43.375 57.1317 43.2967 56.8812 43.0878C56.7556 42.9832 56.7041 42.8654 56.7223 42.7604L56.7454 42.6272C56.7271 42.7329 56.7787 42.85 56.9043 42.9545C57.1548 43.1635 57.6066 43.2418 57.9136 43.1294C58.0663 43.0732 58.1543 42.9802 58.1726 42.8745Z" fill="#8F8F8F"/>
<path d="M58.1725 42.8743C58.1544 42.9804 58.0664 43.0731 57.9136 43.1296C57.6064 43.2416 57.1545 43.1634 56.9044 42.9547C56.7785 42.8498 56.7271 42.7332 56.7452 42.6271C56.7569 42.5623 56.7942 42.5017 56.8572 42.4521V42.7472C56.8572 42.8346 56.9149 42.9215 57.0303 42.988C57.2606 43.1215 57.6344 43.1215 57.8652 42.988C57.9801 42.9215 58.0378 42.8346 58.0378 42.7472V42.567C58.1457 42.6661 58.19 42.7757 58.1725 42.8743Z" fill="#9E9E9E"/>
<path d="M58.1726 42.531L58.1495 42.6642C58.1313 42.7692 58.0432 42.8629 57.8905 42.9192C57.5835 43.0315 57.1317 42.9532 56.8812 42.7443C56.7556 42.6397 56.7041 42.5219 56.7223 42.4169L56.7454 42.2837C56.7271 42.3894 56.7787 42.5065 56.9043 42.611C57.1548 42.82 57.6066 42.8983 57.9136 42.7859C58.0663 42.7297 58.1543 42.6367 58.1726 42.531Z" fill="#8F8F8F"/>
<path d="M58.1725 42.5308C58.1544 42.6369 58.0664 42.7296 57.9136 42.7861C57.6064 42.8981 57.1545 42.8199 56.9044 42.6112C56.7785 42.5063 56.7271 42.3897 56.7452 42.2836C56.7569 42.2188 56.7942 42.1582 56.8572 42.1086V42.4037C56.8572 42.4911 56.9149 42.578 57.0303 42.6445C57.2606 42.778 57.6344 42.778 57.8652 42.6445C57.9801 42.578 58.0378 42.4911 58.0378 42.4037V42.2235C58.1457 42.3226 58.19 42.4322 58.1725 42.5308Z" fill="#9E9E9E"/>
<path d="M58.1726 42.1878L58.1495 42.321C58.1313 42.426 58.0432 42.5196 57.8905 42.5759C57.5835 42.6882 57.1317 42.6099 56.8812 42.401C56.7556 42.2965 56.7041 42.1786 56.7223 42.0736L56.7454 41.9404C56.7271 42.0461 56.7787 42.1633 56.9043 42.2678C57.1548 42.4767 57.6066 42.555 57.9136 42.4427C58.0663 42.3864 58.1543 42.2935 58.1726 42.1878Z" fill="#8F8F8F"/>
<path d="M58.1725 42.1875C58.1544 42.2936 58.0664 42.3863 57.9136 42.4429C57.6064 42.5548 57.1545 42.4767 56.9044 42.2679C56.7785 42.163 56.7271 42.0464 56.7452 41.9403C56.7569 41.8755 56.7942 41.815 56.8572 41.7654V42.0604C56.8572 42.1479 56.9149 42.2347 57.0303 42.3012C57.2606 42.4347 57.6344 42.4347 57.8652 42.3012C57.9801 42.2347 58.0378 42.1479 58.0378 42.0604V41.8802C58.1457 41.9794 58.19 42.089 58.1725 42.1875Z" fill="#9E9E9E"/>
<path d="M58.1726 41.8442L58.1495 41.9775C58.1313 42.0825 58.0432 42.1761 57.8905 42.2324C57.5835 42.3447 57.1317 42.2664 56.8812 42.0575C56.7556 41.953 56.7041 41.8351 56.7223 41.7301L56.7454 41.5969C56.7271 41.7026 56.7787 41.8198 56.9043 41.9243C57.1548 42.1332 57.6066 42.2115 57.9136 42.0992C58.0663 42.0429 58.1543 41.95 58.1726 41.8442Z" fill="#8F8F8F"/>
<path d="M58.1725 41.844C58.1544 41.9501 58.0664 42.0428 57.9136 42.0993C57.6064 42.2113 57.1545 42.1332 56.9044 41.9244C56.7785 41.8195 56.7271 41.7029 56.7452 41.5968C56.7569 41.532 56.7942 41.4714 56.8572 41.4219V41.7169C56.8572 41.8043 56.9149 41.8912 57.0303 41.9577C57.2606 42.0912 57.6344 42.0912 57.8652 41.9577C57.9801 41.8912 58.0378 41.8043 58.0378 41.7169V41.5367C58.1457 41.6359 58.19 41.7455 58.1725 41.844Z" fill="#9E9E9E"/>
<path d="M58.1726 41.501L58.1495 41.6342C58.1313 41.7392 58.0432 41.8328 57.8905 41.8891C57.5835 42.0014 57.1317 41.9232 56.8812 41.7142C56.7556 41.6097 56.7041 41.4919 56.7223 41.3869L56.7454 41.2537C56.7271 41.3594 56.7787 41.4765 56.9043 41.581C57.1548 41.79 57.6066 41.8683 57.9136 41.7559C58.0663 41.6996 58.1543 41.6067 58.1726 41.501Z" fill="#8F8F8F"/>
<path d="M58.1725 41.5007C58.1544 41.6069 58.0664 41.6996 57.9136 41.7561C57.6064 41.868 57.1545 41.7899 56.9044 41.5812C56.7785 41.4762 56.7271 41.3596 56.7452 41.2535C56.7569 41.1888 56.7942 41.1282 56.8572 41.0786V41.3736C56.8572 41.4611 56.9149 41.5479 57.0303 41.6144C57.2606 41.7479 57.6344 41.7479 57.8652 41.6144C57.9801 41.548 58.0378 41.4611 58.0378 41.3736V41.1934C58.1457 41.2926 58.19 41.4022 58.1725 41.5007Z" fill="#9E9E9E"/>
<path d="M58.1726 41.1575L58.1495 41.2907C58.1313 41.3957 58.0432 41.4893 57.8905 41.5456C57.5835 41.6579 57.1317 41.5797 56.8812 41.3707C56.7556 41.2662 56.7041 41.1484 56.7223 41.0434L56.7454 40.9102C56.7271 41.0159 56.7787 41.133 56.9043 41.2375C57.1548 41.4465 57.6066 41.5247 57.9136 41.4124C58.0663 41.3561 58.1543 41.2632 58.1726 41.1575Z" fill="#8F8F8F"/>
<path d="M58.1725 41.1575C58.1544 41.2636 58.0664 41.3563 57.9136 41.4128C57.6064 41.5248 57.1545 41.4466 56.9044 41.2379C56.7785 41.133 56.7271 41.0164 56.7452 40.9103C56.7569 40.8455 56.7942 40.7849 56.8572 40.7354V41.0304C56.8572 41.1178 56.9149 41.2047 57.0303 41.2712C57.2606 41.4047 57.6344 41.4047 57.8652 41.2712C57.9801 41.2047 58.0378 41.1178 58.0378 41.0304V40.8502C58.1457 40.9493 58.19 41.0589 58.1725 41.1575Z" fill="#9E9E9E"/>
<path d="M58.1726 40.8142L58.1495 40.9474C58.1313 41.0524 58.0432 41.1461 57.8905 41.2024C57.5835 41.3147 57.1317 41.2364 56.8812 41.0275C56.7556 40.9229 56.7041 40.8051 56.7223 40.7001L56.7454 40.5669C56.7271 40.6726 56.7787 40.7897 56.9043 40.8942C57.1548 41.1032 57.6066 41.1815 57.9136 41.0691C58.0663 41.0129 58.1543 40.9199 58.1726 40.8142Z" fill="#8F8F8F"/>
<path d="M58.1725 40.814C58.1544 40.9201 58.0664 41.0128 57.9136 41.0693C57.6064 41.1813 57.1545 41.1031 56.9044 40.8944C56.7785 40.7895 56.7271 40.6729 56.7452 40.5668C56.7569 40.502 56.7942 40.4414 56.8572 40.3918V40.6869C56.8572 40.7743 56.9149 40.8612 57.0303 40.9277C57.2606 41.0612 57.6344 41.0612 57.8652 40.9277C57.9801 40.8612 58.0378 40.7743 58.0378 40.6869V40.5067C58.1457 40.6058 58.19 40.7154 58.1725 40.814Z" fill="#9E9E9E"/>
<path d="M58.1726 40.4707L58.1495 40.6039C58.1313 40.7089 58.0432 40.8026 57.8905 40.8589C57.5835 40.9712 57.1317 40.8929 56.8812 40.684C56.7556 40.5794 56.7041 40.4616 56.7223 40.3566L56.7454 40.2234C56.7271 40.3291 56.7787 40.4462 56.9043 40.5507C57.1548 40.7597 57.6066 40.838 57.9136 40.7256C58.0663 40.6694 58.1543 40.5764 58.1726 40.4707Z" fill="#8F8F8F"/>
<path d="M58.1725 40.4707C58.1544 40.5768 58.0664 40.6695 57.9136 40.7261C57.6064 40.838 57.1545 40.7599 56.9044 40.5511C56.7785 40.4462 56.7271 40.3296 56.7452 40.2235C56.7569 40.1588 56.7942 40.0982 56.8572 40.0486V40.3436C56.8572 40.4311 56.9149 40.5179 57.0303 40.5844C57.2606 40.7179 57.6344 40.7179 57.8652 40.5844C57.9801 40.5179 58.0378 40.4311 58.0378 40.3436V40.1634C58.1457 40.2626 58.19 40.3722 58.1725 40.4707Z" fill="#9E9E9E"/>
<path d="M58.1726 40.1274L58.1495 40.2607C58.1313 40.3657 58.0432 40.4593 57.8905 40.5156C57.5835 40.6279 57.1317 40.5496 56.8812 40.3407C56.7556 40.2362 56.7041 40.1183 56.7223 40.0133L56.7454 39.8801C56.7271 39.9859 56.7787 40.103 56.9043 40.2075C57.1548 40.4164 57.6066 40.4947 57.9136 40.3824C58.0663 40.3261 58.1543 40.2332 58.1726 40.1274Z" fill="#8F8F8F"/>
<path d="M58.1725 40.1272C58.1544 40.2333 58.0664 40.326 57.9136 40.3826C57.6064 40.4945 57.1545 40.4164 56.9044 40.2076C56.7785 40.1027 56.7271 39.9861 56.7452 39.88C56.7569 39.8152 56.7942 39.7546 56.8572 39.7051V40.0001C56.8572 40.0875 56.9149 40.1744 57.0303 40.2409C57.2606 40.3744 57.6344 40.3744 57.8652 40.2409C57.9801 40.1744 58.0378 40.0875 58.0378 40.0001V39.8199C58.1457 39.9191 58.19 40.0287 58.1725 40.1272Z" fill="#9E9E9E"/>
<path d="M58.1342 34.4445L58.4412 34.0498L58.1342 34.4445ZM58.0978 36.6206C57.9656 36.8631 58.0549 37.1668 58.2974 37.299C58.5398 37.4312 58.8435 37.3419 58.9757 37.0995L58.0978 36.6206ZM56.8051 37.9246L56.7541 37.4272L56.8051 37.9246ZM56.7541 37.4272C56.3179 37.4719 55.8967 37.4292 55.6051 37.2692C55.3596 37.1345 55.145 36.8866 55.145 36.3232H54.145C54.145 37.2178 54.5299 37.8198 55.124 38.1459C55.6722 38.4467 56.331 38.4758 56.856 38.422L56.7541 37.4272ZM55.145 36.3232C55.145 35.3771 55.6008 34.8587 56.1298 34.6373C56.6937 34.4012 57.3734 34.4862 57.8272 34.8391L58.4412 34.0498C57.6872 33.4633 56.6223 33.347 55.7436 33.7148C54.83 34.0973 54.145 34.988 54.145 36.3232H55.145ZM57.8272 34.8391C58.1737 35.1086 58.289 35.4392 58.2987 35.7645C58.309 36.109 58.1975 36.4379 58.0978 36.6206L58.9757 37.0995C59.1444 36.7902 59.3148 36.287 59.2983 35.7346C59.2812 35.163 59.0609 34.5318 58.4412 34.0498L57.8272 34.8391ZM57.9632 38.4704C57.9632 37.7826 57.3255 37.3687 56.7541 37.4272L56.856 38.422C56.889 38.4186 56.9233 38.4298 56.9462 38.4482C56.9565 38.4565 56.9608 38.4633 56.9622 38.466C56.963 38.4677 56.9632 38.4683 56.9632 38.4704H57.9632Z" fill="#7D7D7D"/>
<g opacity="0.24" filter="url(#filter4_f_490_932)">
<path d="M58.2683 35.3465C56.5236 33.736 59.476 34.8096 58.805 36.42C58.6583 36.7722 58.5366 37.3594 58.5366 37.3594C58.5366 37.3594 57.7928 37.1679 57.9999 36.8227C58.4024 36.1516 58.2683 35.3465 58.2683 35.3465Z" fill="#D9D9D9"/>
</g>
<defs>
<filter id="filter0_f_490_932" x="0.594433" y="11.0878" width="186.876" height="138.565" filterUnits="userSpaceOnUse" color-interpolation-filters="sRGB">
<feFlood flood-opacity="0" result="BackgroundImageFix"/>
<feBlend mode="normal" in="SourceGraphic" in2="BackgroundImageFix" result="shape"/>
<feGaussianBlur stdDeviation="15.35" result="effect1_foregroundBlur_490_932"/>
</filter>
<filter id="filter1_f_490_932" x="13.1721" y="8.63545" width="241.703" height="168.565" filterUnits="userSpaceOnUse" color-interpolation-filters="sRGB">
<feFlood flood-opacity="0" result="BackgroundImageFix"/>
<feBlend mode="normal" in="SourceGraphic" in2="BackgroundImageFix" result="shape"/>
<feGaussianBlur stdDeviation="15.1" result="effect1_foregroundBlur_490_932"/>
</filter>
<filter id="filter2_f_490_932" x="0.594433" y="0.620312" width="186.876" height="138.565" filterUnits="userSpaceOnUse" color-interpolation-filters="sRGB">
<feFlood flood-opacity="0" result="BackgroundImageFix"/>
<feBlend mode="normal" in="SourceGraphic" in2="BackgroundImageFix" result="shape"/>
<feGaussianBlur stdDeviation="15.35" result="effect1_foregroundBlur_490_932"/>
</filter>
<filter id="filter3_f_490_932" x="147.024" y="87.4978" width="3.19775" height="4.80957" filterUnits="userSpaceOnUse" color-interpolation-filters="sRGB">
<feFlood flood-opacity="0" result="BackgroundImageFix"/>
<feBlend mode="normal" in="SourceGraphic" in2="BackgroundImageFix" result="shape"/>
<feGaussianBlur stdDeviation="0.5" result="effect1_foregroundBlur_490_932"/>
</filter>
<filter id="filter4_f_490_932" x="56.7085" y="33.5498" width="3.19775" height="4.80957" filterUnits="userSpaceOnUse" color-interpolation-filters="sRGB">
<feFlood flood-opacity="0" result="BackgroundImageFix"/>
<feBlend mode="normal" in="SourceGraphic" in2="BackgroundImageFix" result="shape"/>
<feGaussianBlur stdDeviation="0.5" result="effect1_foregroundBlur_490_932"/>
</filter>
</defs>
</svg>
