<svg width="13" height="18" viewBox="0 0 13 18" fill="none" xmlns="http://www.w3.org/2000/svg">
<path fill-rule="evenodd" clip-rule="evenodd" d="M0.0263672 2.60952V6.18517C0.0263672 6.28592 0.108 6.36756 0.208758 6.36756H7.42353V7.98702C7.42353 8.13417 7.58883 8.22076 7.70977 8.13701L12.8951 4.5472C12.9998 4.47468 12.9999 4.31983 12.8951 4.24723L7.70986 0.655116C7.58892 0.57127 7.42353 0.657861 7.42353 0.805101V2.42705H0.208758C0.108 2.42705 0.0263672 2.50877 0.0263672 2.60952Z" fill="#579F2E"/>
<path fill-rule="evenodd" clip-rule="evenodd" d="M12.9736 11.8175V15.3932C12.9736 15.4939 12.892 15.5756 12.7912 15.5756H5.57647V17.195C5.57647 17.3422 5.41117 17.4288 5.29023 17.345L0.10495 13.7552C0.000207901 13.6827 0.000119209 13.5278 0.10486 13.4552L5.29014 9.86312C5.41108 9.77928 5.57647 9.86587 5.57647 10.0131V11.6351H12.7912C12.892 11.6351 12.9736 11.7168 12.9736 11.8175Z" fill="#E36562"/>
</svg>
