<svg width="144" height="84" viewBox="0 0 144 84" fill="none" xmlns="http://www.w3.org/2000/svg">
<path opacity="0.53" d="M119.295 70.3162L121.527 69.0378L128.533 71.5946L130.493 72.9071L132.794 74.1173L132.453 74.4752V75.9922L128.039 73.4014L127.323 73.8446L121.527 70.5207L119.295 71.8162L118.732 71.5264L41.1424 26.7317L40.0003 27.3453L38.1083 28.0271C33.0573 29.8055 22.6552 33.4372 21.4552 33.7372C20.2552 34.0372 18.0007 34.0554 17.0234 34.027V32.5611L30.3528 27.9078L35.1084 23.2374L26.9096 18.4988L26.6028 14.425L41.7219 24.8908L53.0569 31.4191L53.7899 32.527L119.295 70.3162Z" fill="#AFB1F3"/>
<g opacity="0.23" filter="url(#filter0_f_448_1441)">
<path d="M8.71452 29.8394L8.30908 27.8122L29.2904 10.2771L32.5339 9.77026L38.7168 13.3178L40.3385 11.392L46.9269 8.55396L43.6834 15.4464L46.9269 17.1695L51.8935 16.0545L63.1443 14.8382L54.2247 20.2102L63.1443 25.3796V27.8122L129.839 67.3422L127.203 68.3558L130.548 70.4843L131.46 71.802L135.312 74.6401L132.271 75.8564L129.535 74.2346L127.203 73.6265L123.149 71.3966L119.399 71.802L118.892 70.9911L43.6834 26.8999L41.5549 27.8122L40.3385 28.2176L21.3844 34.6032H18.3436L17.026 33.8937L17.33 32.7788L38.0073 24.4673L28.1755 19.1967L24.3238 21.4266L9.82947 29.8394H8.71452Z" fill="black"/>
</g>
<path d="M124.527 68.7823V67.2312L126.777 66.0039V67.4868L124.527 68.7823Z" fill="#8988C1"/>
<path d="M128.073 73.4524V71.9013L130.323 70.6741V72.157L128.073 73.4524Z" fill="#8988C1"/>
<path opacity="0.53" d="M119.295 70.316L121.527 69.0376L128.533 71.5943L130.493 72.9068L132.794 74.117L132.453 74.475V75.992L128.039 73.4011L127.323 73.8443L121.527 70.5205L119.295 71.8159L118.732 71.5262L41.1424 26.7314L40.0003 27.3451L38.1083 28.0269C33.0573 29.8052 22.6552 33.437 21.4552 33.737C20.2552 34.037 18.0007 34.0552 17.0234 34.0268V32.5609L30.3528 27.9075L35.1084 23.2372L26.9096 18.4986L26.6028 14.4248L41.7219 24.8905L53.0569 31.4188L53.7899 32.5268L119.295 70.316Z" fill="#AFB1F3"/>
<path d="M119.278 71.8162V70.2651L121.528 69.0378V70.5208L119.278 71.8162Z" fill="#8988C1"/>
<path d="M53.0737 32.9189V31.3678L61.9543 26.3054V27.7884L53.0737 32.9189Z" fill="#8988C1"/>
<path d="M51.2671 20.0156V18.4645L58.2727 14.4248V15.9077L51.2671 20.0156Z" fill="#8A89C2"/>
<path d="M26.9439 18.4819L23.1258 20.4932V21.3114L8.60329 29.6124L8.33057 29.084L26.9439 16.9819V18.4819Z" fill="#8A89C2"/>
<path d="M48.9482 20.2032V18.6521L50.1925 17.9021V19.385L48.9482 20.2032Z" fill="#8A89C2"/>
<path d="M51.2838 20.0498V18.4987L50.1929 17.9021V19.385L51.2838 20.0498Z" fill="#5D5C88"/>
<path d="M38.1426 13.9136V12.3625L37.0518 11.7659V13.2488L38.1426 13.9136Z" fill="#5D5C88"/>
<path d="M39.063 16.8624V15.3113L40.8527 14.2886V15.7715L39.063 16.8624Z" fill="#8A89C2"/>
<path d="M44.1252 9.31112V7.76001L42.1377 12.7005C41.8778 13.3464 41.4301 13.8996 40.8525 14.2883V15.7712C41.4315 15.3593 41.8818 14.7915 42.151 14.1338L44.1252 9.31112Z" fill="#8A89C2"/>
<path d="M127.357 73.8275L127.323 72.3957L128.073 71.9185V73.4014L127.357 73.8275Z" fill="#8988C1"/>
<path d="M132.47 75.9579L132.436 74.458L133.918 73.6057V75.1568L132.47 75.9579Z" fill="#8988C1"/>
<path d="M133.919 73.6057L132.437 74.4751L128.039 71.9524L127.289 72.3955L121.528 69.0376L119.312 70.299L53.773 32.5269L53.0571 32.8678V31.4019L41.7391 24.9077L39.9664 25.9474C34.9779 27.6519 24.5576 31.2246 22.7849 31.8791C21.0122 32.5337 18.1941 32.595 17.0066 32.5439L31.7336 23.9702L32.8245 24.5668L36.3699 22.4702L26.9269 17.0157L22.0349 19.8452L23.1088 20.493L8.33056 29.0667C8.16693 27.294 8.97828 26.1122 9.40441 25.7429L19.7679 15.7033L29.6541 9.92495L36.1142 13.6238L38.1085 12.4306L37.0858 11.834L44.1084 7.74316C43.597 8.9761 42.4857 11.684 42.1312 12.6522C41.7766 13.6203 41.1312 14.1465 40.8528 14.2885L39.063 15.3112L43.9039 18.1407L45.0118 17.493C45.6425 17.0782 47.0777 16.1873 47.7731 15.9419C48.4686 15.6964 55.0741 14.8056 58.29 14.3908L51.2333 18.5157L50.1935 17.9191L48.9322 18.6521L61.9717 26.2201V27.7372L61.2559 28.1633L126.76 65.9865L124.562 67.2649L130.289 70.6399L129.573 71.066L133.919 73.6057Z" fill="#D8DAFF"/>
<g filter="url(#filter1_f_448_1441)">
<path d="M45.2548 24.3391L49.3627 26.7425C50.0729 27.0209 51.8718 27.3868 53.3854 26.6232C54.899 25.8596 54.1865 24.7823 53.6411 24.3391C50.8149 22.7065 45.9466 19.9966 44.9195 23.0946C44.7638 23.5639 44.9133 24.0464 45.2548 24.3391Z" stroke="#2D2E83" stroke-width="0.5"/>
</g>
<path d="M45.0275 22.8826C44.7262 23.4032 44.8454 23.9785 45.2345 24.3121C45.8164 23.3628 46.935 22.8853 48.023 23.1218L49.3425 23.4087L49.547 23.4939C50.2572 23.7723 52.4382 25.152 53.8359 26.1066C54.1987 26.3543 54.7612 25.1632 53.585 24.3109C50.866 22.6986 46.611 20.1467 45.0275 22.8826Z" fill="#B0B1F4"/>
<path d="M53.0737 32.902V31.3509L61.9713 26.2544V27.7373L53.0737 32.902Z" fill="#8A89C2"/>
<path d="M57.0458 31.9475L54.9492 33.2259L55.4776 33.5157L57.523 32.1861L57.0458 31.9475Z" fill="#494949"/>
<path d="M36.2509 20.05L34.1543 21.3284L34.6827 21.6182L36.7281 20.2887L36.2509 20.05Z" fill="#494949"/>
<path d="M49.0683 25.3677L48.0967 25.9472L48.6251 26.237L49.5455 25.6063L49.0683 25.3677Z" fill="#494949"/>
<path d="M66.8641 37.5383L64.7676 38.8167L65.296 39.1065L67.3414 37.777L66.8641 37.5383Z" fill="#494949"/>
<path d="M77.0223 43.47L74.9258 44.7484L75.4542 45.0381L77.4996 43.7086L77.0223 43.47Z" fill="#494949"/>
<path d="M86.704 48.8218L84.6074 50.1002L85.1358 50.3899L87.1812 49.0604L86.704 48.8218Z" fill="#494949"/>
<path d="M96.5223 54.5491L94.4258 55.8275L94.9542 56.1172L96.9996 54.7877L96.5223 54.5491Z" fill="#494949"/>
<path d="M60.3866 33.9585L58.29 35.2369L58.8184 35.5267L60.8639 34.1971L60.3866 33.9585Z" fill="#494949"/>
<path d="M70.205 39.5493L68.1084 40.8277L68.6368 41.1175L70.6822 39.7879L70.205 39.5493Z" fill="#494949"/>
<path d="M90.0448 50.8335L87.9482 52.1119L88.4766 52.4017L90.5221 51.0721L90.0448 50.8335Z" fill="#494949"/>
<path d="M80.3632 45.481L78.2666 46.7593L78.795 47.0491L80.8404 45.7196L80.3632 45.481Z" fill="#494949"/>
<path d="M99.8632 56.5608L97.7666 57.8392L98.295 58.1289L100.34 56.7994L99.8632 56.5608Z" fill="#494949"/>
<path d="M63.6591 35.7317L61.5625 37.0101L62.0909 37.2998L64.1363 35.9703L63.6591 35.7317Z" fill="#494949"/>
<path d="M93.3173 52.606L91.2207 53.8843L91.7491 54.1741L93.7945 52.8446L93.3173 52.606Z" fill="#494949"/>
<path d="M73.4774 41.322L71.3809 42.6004L71.9093 42.8902L73.9547 41.5607L73.4774 41.322Z" fill="#494949"/>
<path d="M83.6356 47.2542L81.5391 48.5325L82.0675 48.8223L84.1129 47.4928L83.6356 47.2542Z" fill="#494949"/>
<path d="M103.136 58.3333L101.039 59.6116L101.567 59.9014L103.613 58.5719L103.136 58.3333Z" fill="#494949"/>
<path d="M28.8427 25.3082C28.8427 25.6768 28.816 26.0394 28.7657 26.3946C28.7302 26.6447 28.6828 26.8905 28.6221 27.1318C28.3927 28.0746 27.9856 28.9494 27.4409 29.7191C26.4107 31.1712 24.8847 32.2458 23.1099 32.7017C22.5031 32.8571 21.8666 32.9399 21.2108 32.9399C21.159 32.9399 21.1087 32.9399 21.0569 32.9384C20.8585 32.934 20.6617 32.9236 20.4663 32.9029C19.6315 32.823 18.8366 32.6083 18.1024 32.2798C17.6895 32.0962 17.2957 31.8757 16.9257 31.624C16.7377 31.4968 16.5542 31.3591 16.378 31.2155C16.3736 31.2125 16.3692 31.2081 16.3647 31.2051C15.7845 30.7255 15.2753 30.166 14.8579 29.5384C14.7913 29.4392 14.7277 29.3371 14.6655 29.2349C14.6255 29.1698 14.587 29.1032 14.55 29.0351C14.2422 28.486 13.9994 27.8954 13.8351 27.2723C13.7848 27.0857 13.7419 26.8963 13.7064 26.7039C13.6501 26.399 13.6131 26.0881 13.5939 25.7714C13.5835 25.6174 13.5791 25.4635 13.5791 25.3081C13.5791 24.2483 13.7952 23.2402 14.186 22.3226C14.2259 22.2279 14.2688 22.1331 14.3133 22.0398C14.4406 21.772 14.5827 21.5129 14.7396 21.2642C14.7781 21.1991 14.8195 21.1354 14.8624 21.0718C15.1969 20.57 15.5892 20.1112 16.0303 19.7041C16.985 18.8204 18.1677 18.1795 19.4791 17.8746C19.5856 17.8494 19.6937 17.8273 19.8033 17.8066C20.049 17.7606 20.2976 17.7266 20.5507 17.7044C20.7683 17.6851 20.9889 17.6763 21.2109 17.6763C21.316 17.6763 21.4196 17.6778 21.5232 17.6837C22.6556 17.7281 23.7228 18.0212 24.676 18.5067C25.6573 19.007 26.5173 19.716 27.1953 20.573C27.3122 20.7195 27.4232 20.869 27.5268 21.0244C27.7177 21.3027 27.888 21.5928 28.039 21.8963C28.4815 22.7784 28.7554 23.7583 28.825 24.7959C28.8367 24.9648 28.8427 25.135 28.8427 25.3082Z" fill="url(#paint0_linear_448_1441)"/>
<path d="M20.4346 24.5922C19.0091 20.4608 15.532 21.6628 13.9717 22.7802C14.0723 22.609 14.3824 22.1701 14.8173 21.7836C15.3609 21.3003 18.3206 20.6963 19.9514 21.0285C21.5822 21.3607 22.458 24.2902 23.0923 24.8942C23.7265 25.4982 23.8473 29.5753 24.4513 30.4813C24.9345 31.2061 25.7197 31.2665 26.0519 31.2061L25.4177 31.5685C23.4245 32.0215 22.2164 29.7565 20.4346 24.5922Z" fill="#715E42" fill-opacity="0.15"/>
<path d="M23.2434 22.1813C21.8179 18.0498 16.408 20.0624 14.8477 21.1799C14.9483 21.0087 15.2584 20.5698 15.6933 20.1832C16.2369 19.7 21.1294 18.2854 22.7602 18.6176C24.391 18.9498 25.2669 21.8793 25.9011 22.4833C26.5353 23.0873 26.6561 27.1644 27.2601 28.0704C27.7433 28.7952 26.6561 30.4816 26.9883 30.4212L26.3541 30.7836C24.3608 31.2366 25.0252 27.3456 23.2434 22.1813Z" fill="#715E42" fill-opacity="0.15"/>
<path d="M39.0628 15.3112L43.9036 18.1407L41.7389 24.9077L39.9662 25.9474C34.9777 27.6519 24.5574 31.2246 22.7847 31.8791C21.012 32.5337 18.1938 32.595 17.0063 32.5439L31.7334 23.9702L32.8243 24.5668L36.3697 22.4702L26.8576 16.9668L31.5289 15.5108V14.685L29.3313 15.1578C29.1677 13.3851 29.979 12.2033 30.4051 11.834L24.3699 14.1983L29.6538 9.92495L36.114 13.6238L38.1083 12.4306L37.0855 11.834L44.1082 7.74316C43.5968 8.9761 42.4855 11.684 42.1309 12.6522C41.7764 13.6203 41.1309 14.1465 40.8525 14.2885L39.0628 15.3112Z" fill="#D8DAFF"/>
<path d="M119.297 70.3241L121.53 69.0457L127.305 72.4103L128.014 71.9035L132.456 74.4831V76.0001L128.041 73.4093L127.325 73.8524L121.53 70.5286L119.297 71.8241L118.734 71.5343L41.1448 26.7396L40.0028 27.3532L38.1108 28.035C33.0597 29.8134 22.6576 33.4451 21.4576 33.7451C20.2576 34.0451 18.0031 34.0633 17.0259 34.0349V32.569C19.5092 32.569 21.9758 32.1615 24.3271 31.3626L24.9319 31.1572L40.2371 25.9879L41.7243 24.8987L53.0594 31.427L53.7923 32.5349L119.297 70.3241Z" fill="#AFB1F3"/>
<defs>
<filter id="filter0_f_448_1441" x="0.209082" y="0.453955" width="143.203" height="83.5025" filterUnits="userSpaceOnUse" color-interpolation-filters="sRGB">
<feFlood flood-opacity="0" result="BackgroundImageFix"/>
<feBlend mode="normal" in="SourceGraphic" in2="BackgroundImageFix" result="shape"/>
<feGaussianBlur stdDeviation="4.05" result="effect1_foregroundBlur_448_1441"/>
</filter>
<filter id="filter1_f_448_1441" x="40.6079" y="17.4275" width="17.9365" height="13.9014" filterUnits="userSpaceOnUse" color-interpolation-filters="sRGB">
<feFlood flood-opacity="0" result="BackgroundImageFix"/>
<feBlend mode="normal" in="SourceGraphic" in2="BackgroundImageFix" result="shape"/>
<feGaussianBlur stdDeviation="2" result="effect1_foregroundBlur_448_1441"/>
</filter>
<linearGradient id="paint0_linear_448_1441" x1="26.2247" y1="32.1813" x2="17.4423" y2="20.1426" gradientUnits="userSpaceOnUse">
<stop stop-color="#735226"/>
<stop offset="1" stop-color="#E4C48E"/>
</linearGradient>
</defs>
</svg>
