<svg width="26" height="28" viewBox="0 0 26 28" fill="none" xmlns="http://www.w3.org/2000/svg">
<path d="M12.5224 7.57894C12.1778 7.57894 11.8533 7.49709 11.5668 7.3321C10.9097 6.95405 10.531 6.18318 10.5283 5.2175C10.5231 3.46462 11.7138 1.40206 13.239 0.521704C14.0824 0.0345828 14.9447 -0.0269832 15.605 0.352921C16.2717 0.736623 16.6403 1.48754 16.6431 2.46728C16.6441 2.84209 16.3411 3.14702 15.966 3.14799C15.9654 3.14799 15.9648 3.14799 15.9642 3.14799C15.5902 3.14799 15.2864 2.84533 15.2853 2.47092C15.2839 2.00294 15.1536 1.65987 14.9278 1.52987C14.6993 1.39842 14.3309 1.4591 13.918 1.69761C12.8128 2.33542 11.8826 3.94552 11.8863 5.21362C11.8877 5.68184 12.0181 6.02506 12.2442 6.15531C12.4733 6.2866 12.8417 6.22625 13.2544 5.98774C13.5796 5.80045 13.9944 5.91154 14.182 6.23618C14.3695 6.56106 14.2581 6.97619 13.9335 7.16372C13.4558 7.43956 12.972 7.57869 12.5224 7.57894Z" fill="#3A3A3A"/>
<path d="M25.8716 12.8722C25.8656 15.0104 24.2656 16.7142 22.5571 17.7862C20.724 18.9364 18.6034 19.5831 16.4748 19.9058C14.3901 20.2219 12.237 20.2256 10.1522 19.9093C8.01017 19.5844 5.86954 18.945 4.02109 17.7908C2.28025 16.7038 0.642667 14.9815 0.64905 12.8008C0.64905 13.4811 0.64517 18.3217 0.643231 19.0031C0.641211 19.7216 0.582317 20.4718 0.671597 21.1874C0.842643 22.5579 1.66442 23.7441 2.67607 24.6448C3.97334 25.7999 5.59258 26.5711 7.23808 27.0907C10.4241 28.0967 13.9571 28.2615 17.2331 27.6181C18.9254 27.2857 20.5828 26.7569 22.09 25.9063C23.5349 25.0909 24.871 23.9363 25.524 22.3782C25.8717 21.5486 25.8612 20.6965 25.8637 19.82C25.8662 18.9501 25.8686 13.9235 25.8711 13.0536C25.8713 12.9931 25.8714 12.9326 25.8716 12.8722Z" fill="#636262"/>
<path d="M22.148 7.67039C23.8359 8.64487 25.4838 10.1491 25.8149 12.1637C26.1199 14.0203 25.1258 15.7215 23.7616 16.9036C22.1305 18.3169 20.031 19.1499 17.948 19.6282C15.7604 20.1305 13.4815 20.256 11.2487 20.0439C9.10238 19.8401 6.95134 19.322 5.01836 18.3498C3.24521 17.4579 1.45339 16.0762 0.846128 14.1019C0.306005 12.3457 0.978712 10.5854 2.20674 9.29512C3.68781 7.73898 5.76371 6.80062 7.80657 6.23706C9.96084 5.64272 12.2253 5.43968 14.4538 5.56589C16.6313 5.68918 18.8201 6.12799 20.8241 7.00414C21.277 7.20209 21.7199 7.42331 22.148 7.67039Z" fill="#888786"/>
<path d="M13.7219 13.0997C13.3468 13.0997 13.043 12.7959 13.043 12.4208V6.62302C13.043 6.24796 13.3468 5.94409 13.7219 5.94409C14.097 5.94409 14.4008 6.24796 14.4008 6.62302V12.4208C14.4008 12.7959 14.097 13.0997 13.7219 13.0997Z" fill="#3F3F3F"/>
<path d="M12.5224 7.5617C12.1778 7.5617 11.8533 7.47985 11.5668 7.31487C10.9097 6.93682 10.531 6.16594 10.5283 5.20026C10.5231 3.44739 11.7138 1.38483 13.239 0.504468C13.5636 0.31694 13.979 0.428027 14.1663 0.753071C14.3538 1.07771 14.2425 1.49309 13.9177 1.68037C12.8127 2.31818 11.8825 3.92829 11.8861 5.19639C11.8875 5.6646 12.018 6.00783 12.2441 6.13807C12.4731 6.26936 12.8415 6.20901 13.2542 5.9705C13.5795 5.78322 13.9943 5.89431 14.1818 6.21895C14.3693 6.54383 14.258 6.95896 13.9333 7.14649C13.4558 7.42233 12.972 7.56146 12.5224 7.5617Z" fill="#3F3F3F"/>
<path d="M9.94702 25.4688V23.6691H9.92115L9.375 24.0524V23.6751L9.94854 23.2735H10.3395V25.4688H9.94702Z" fill="white"/>
<path d="M11.7696 25.5236C11.2432 25.5236 10.9313 25.0976 10.9313 24.3689C10.9313 23.6432 11.2477 23.2188 11.7696 23.2188C12.2899 23.2188 12.6063 23.6432 12.6063 24.3719C12.6063 25.0976 12.2944 25.5236 11.7696 25.5236ZM11.7696 25.198C12.048 25.198 12.2092 24.9089 12.2092 24.3689C12.2092 23.8318 12.0449 23.5458 11.7696 23.5458C11.4942 23.5458 11.3284 23.8334 11.3284 24.3689C11.3284 24.9089 11.4912 25.198 11.7696 25.198Z" fill="white"/>
<path d="M13.8416 25.5236C13.3152 25.5236 13.0034 25.0976 13.0034 24.3689C13.0034 23.6432 13.3198 23.2188 13.8416 23.2188C14.3619 23.2188 14.6783 23.6432 14.6783 24.3719C14.6783 25.0976 14.3665 25.5236 13.8416 25.5236ZM13.8416 25.198C14.12 25.198 14.2813 24.9089 14.2813 24.3689C14.2813 23.8318 14.117 23.5458 13.8416 23.5458C13.5662 23.5458 13.4004 23.8334 13.4004 24.3689C13.4004 24.9089 13.5632 25.198 13.8416 25.198Z" fill="white"/>
<path d="M17.8777 24.5895C17.8777 25.16 17.5034 25.5236 16.9177 25.5236C16.2818 25.5236 15.8863 25.0824 15.8863 24.3704C15.8863 23.6675 16.2864 23.2188 16.9116 23.2188C17.4182 23.2188 17.7894 23.5078 17.8594 23.9566H17.4684C17.3893 23.7071 17.1931 23.5687 16.9116 23.5687C16.5283 23.5687 16.2879 23.8744 16.2879 24.3673C16.2879 24.8663 16.5328 25.1736 16.9238 25.1736C17.2585 25.1736 17.4867 24.9698 17.4928 24.667L17.4943 24.6214H16.9664V24.3141H17.8777V24.5895Z" fill="white"/>
</svg>
