<svg width="60" height="71" viewBox="0 0 60 71" fill="none" xmlns="http://www.w3.org/2000/svg">
<path d="M49.7712 57.3674C49.7712 57.3674 51.2285 58.1566 51.1814 58.4643C51.1342 58.7721 50.2033 59.7067 48.7188 60.8025C47.2344 61.8984 45.1869 63.2935 43.393 63.7799C41.5992 64.2668 41.3109 64.2735 39.6567 63.8735C38.0024 63.4736 11.9013 53.0093 11.9013 53.0093C11.9013 53.0093 11.1672 52.7449 11.0413 52.1659C10.9153 51.5869 10.8962 51.0482 11.1712 50.4743C11.4467 49.9004 17.1214 45.6423 17.1214 45.6423L49.7712 57.3674Z" fill="#BAC5C7"/>
<path d="M14.8309 51.0686L17.115 49.6514L28.9099 54.6969L35.6238 59.5709L37.6101 58.002C37.6101 58.002 42.5695 60.2403 42.5081 60.2094C42.4466 60.1781 42.6539 53.6525 42.6539 53.6525C42.6539 53.6525 32.7365 46.5039 31.696 46.3509C30.6551 46.1984 16.4356 44.6142 16.4356 44.6142C16.4356 44.6142 12.8343 44.6957 12.382 45.4164C11.9292 46.1371 14.8309 51.0686 14.8309 51.0686Z" fill="#12090A"/>
<path d="M42.118 59.446C41.9012 58.0888 40.6784 56.5884 39.3863 56.0944C38.7588 55.8546 38.2306 55.8965 37.8776 56.1582C37.8514 56.1778 37.8262 56.1985 37.8021 56.2204L35.9893 57.7119L40.0047 62.3063L41.6958 60.9328C41.709 60.9225 41.7219 60.9124 41.7341 60.9014L41.7381 60.898C42.0711 60.6106 42.2234 60.106 42.118 59.446Z" fill="url(#paint0_linear_512_2214)"/>
<path d="M40.3958 60.8444C40.6126 62.2016 39.7413 62.901 38.4492 62.4075C37.1576 61.9134 35.9344 60.4131 35.7176 59.0559C35.5008 57.6988 36.3721 56.9993 37.6641 57.4929C38.9562 57.9865 40.179 59.4873 40.3958 60.8444Z" fill="url(#paint1_linear_512_2214)"/>
<path d="M40.0952 60.7961C40.2895 62.0126 39.5084 62.6398 38.3502 62.1972C37.1925 61.7545 36.0958 60.4095 35.9015 59.193C35.7072 57.9764 36.4883 57.3493 37.6465 57.7919C38.8047 58.2345 39.9009 59.5796 40.0952 60.7961Z" fill="url(#paint2_linear_512_2214)"/>
<path d="M38.9521 61.1288C38.0503 60.7822 37.1965 59.7316 37.046 58.7894C36.9843 58.4036 37.0459 58.0984 37.2038 57.8978C37.1017 57.8842 37.0063 57.8841 36.9137 57.8989C36.3246 57.9731 35.9903 58.4819 36.1167 59.2729C36.2913 60.3664 37.2752 61.5716 38.3153 61.9712C39.0938 62.2673 39.6766 62.0291 39.8513 61.4305C39.8725 61.3421 39.8923 61.2485 39.8954 61.1431C39.6608 61.271 39.3307 61.2736 38.9521 61.1288Z" fill="url(#paint3_linear_512_2214)"/>
<path d="M36.754 58.2753C36.7432 58.2797 36.7348 58.2875 36.7247 58.2928C36.7353 58.2874 36.7437 58.2797 36.754 58.2753Z" fill="url(#paint4_linear_512_2214)"/>
<path d="M37.1388 58.5148L37.4955 58.9105L37.7637 59.1828C37.7901 59.1723 37.8128 59.156 37.8445 59.1532L37.8978 58.9181C37.8255 58.9071 37.75 58.8816 37.7088 58.8131C37.612 58.6518 37.3472 58.4494 37.2619 58.3622C37.1727 58.2711 37.1018 58.2264 37.0005 58.1869C36.9134 58.2049 36.8309 58.2317 36.7586 58.2744L37.1374 58.5142L37.1388 58.5148Z" fill="url(#paint5_linear_512_2214)"/>
<path d="M38.2339 58.9251L38.2908 59.3298C38.3251 59.3573 38.3545 59.3915 38.3862 59.4231L38.685 59.4364L38.6864 59.4343L38.9836 59.2566C38.9666 59.2349 38.9456 59.217 38.9282 59.1958C38.8535 59.2146 38.7823 59.2332 38.7439 59.2447C38.6391 59.2768 38.5488 59.351 38.5464 59.336C38.544 59.321 38.4441 59.2108 38.4441 59.2108C38.4441 59.2108 38.4373 58.9957 38.436 58.891C38.4356 58.8518 38.4488 58.7931 38.4634 58.7343C38.3874 58.6718 38.3137 58.604 38.2345 58.5502L38.2344 58.9259L38.2339 58.9251Z" fill="url(#paint6_linear_512_2214)"/>
<path d="M37.1167 59.7083L37.4772 59.7086L37.6175 59.6134C37.6126 59.5938 37.6013 59.5744 37.5982 59.555C37.5949 59.5338 37.6012 59.5197 37.6003 59.4999L37.5879 59.4788C37.5079 59.4876 37.3827 59.5021 37.2061 59.5258C36.8984 59.5673 36.6507 59.9614 36.6507 59.9614L37.1167 59.7083Z" fill="url(#paint7_linear_512_2214)"/>
<path d="M39.6048 60.4505C39.5257 60.3885 39.4488 60.38 39.4089 60.3257C39.2905 60.1647 38.9835 60.0573 38.9835 60.0573C38.9835 60.0573 38.982 60.0476 38.9574 59.9416C38.9442 59.8845 38.9151 59.8245 38.9047 59.776L38.8864 59.778L38.886 59.778L38.6777 59.9176C38.6826 59.9371 38.6939 59.9566 38.697 59.976C38.6999 59.9945 38.6942 60.0067 38.6952 60.0242L39.046 60.3096L39.4533 60.6031L39.4543 60.6038L39.4799 60.64L39.6557 60.8624C39.6529 60.7828 39.6453 60.704 39.632 60.6207C39.6258 60.5823 39.613 60.488 39.6048 60.4505Z" fill="url(#paint8_linear_512_2214)"/>
<path d="M38.5355 60.3461C38.5101 60.357 38.4879 60.3714 38.4577 60.3748L38.5075 60.6382L38.6458 61.0877L38.6453 61.0878L38.6463 61.0881L38.5714 61.6924C38.5714 61.6924 38.8591 61.5397 38.8863 61.5119C38.9135 61.484 38.9188 61.4438 38.9167 61.1417C38.9155 60.9275 38.8362 60.6241 38.7903 60.4641L38.5355 60.3461Z" fill="url(#paint9_linear_512_2214)"/>
<path d="M37.6771 60.0501L37.4086 60.206L37.4081 60.2061L37.4087 60.2069L36.797 60.2106C36.797 60.2106 37.3046 60.3506 37.4362 60.2771C37.5279 60.2258 37.6781 60.1272 37.7627 60.0708L37.6771 60.0501Z" fill="url(#paint10_linear_512_2214)"/>
<path d="M38.1934 60.9148L38.1928 60.9145L38.1956 60.6432C38.1807 60.7677 38.1701 60.9276 38.1897 61.0615C38.2278 61.3226 38.3449 61.606 38.3449 61.606L38.1934 60.9148Z" fill="url(#paint11_linear_512_2214)"/>
<path d="M37.6891 58.0554C36.6695 57.6657 35.9818 58.2178 36.1529 59.2888C36.324 60.3598 37.2891 61.5441 38.3086 61.9338C39.3282 62.3235 40.0159 61.7714 39.8448 60.7004C39.6733 59.6294 38.7081 58.4451 37.6891 58.0554ZM38.2729 61.7098C37.3713 61.365 36.5176 60.3176 36.3662 59.37C36.2148 58.4225 36.8232 57.9341 37.7248 58.2789C38.6263 58.6237 39.4801 59.6711 39.6314 60.6187C39.7828 61.5662 39.1744 62.0546 38.2729 61.7098Z" fill="#B4B5B0"/>
<path d="M37.6835 58.02C36.6451 57.6229 35.9446 58.1857 36.1188 59.2761C36.2931 60.3669 37.2761 61.5728 38.3144 61.9699C39.3528 62.367 40.0529 61.8043 39.8786 60.7134C39.7043 59.6226 38.7213 58.4168 37.6835 58.02ZM38.3009 61.8848C37.3073 61.5049 36.3664 60.3507 36.1996 59.3066C36.0329 58.2629 36.7034 57.7244 37.6969 58.1042C38.6904 58.4841 39.6313 59.6383 39.7981 60.6824C39.9649 61.7265 39.2944 62.265 38.3009 61.8848Z" fill="#D7D9D5"/>
<path d="M38.6969 59.9755C38.7478 60.2943 38.543 60.4586 38.24 60.3424C37.9366 60.2263 37.6493 59.8743 37.5983 59.5555C37.5474 59.2367 37.7522 59.0724 38.0557 59.1885C38.3586 59.3043 38.6459 59.6567 38.6969 59.9755Z" fill="#B4B5B0"/>
<path d="M38.5004 59.8999C38.533 60.1045 38.4016 60.2101 38.207 60.1358C38.012 60.0612 37.8276 59.8351 37.7948 59.6301C37.7621 59.4255 37.8936 59.32 38.0886 59.3942C38.2832 59.4689 38.4677 59.6954 38.5004 59.8999Z" fill="#D7D9D5"/>
<path d="M38.3238 59.8326C38.3401 59.9345 38.2748 59.9869 38.178 59.9499C38.0812 59.913 37.9894 59.8001 37.9732 59.6987C37.957 59.5968 38.0223 59.5443 38.1191 59.5813C38.2159 59.6183 38.3076 59.7307 38.3238 59.8326Z" fill="#B4B5B0"/>
<path d="M38.1562 58.4972L37.7833 58.3565L37.7788 58.2971C37.9078 58.3515 38.0334 58.4165 38.1562 58.4972Z" fill="#D7D9D5"/>
<path d="M38.2345 58.5496L38.2344 58.9253L37.9249 58.8048L37.7832 58.3567L38.1561 58.4974L38.1569 58.5023C38.1838 58.5125 38.2112 58.528 38.2345 58.5496Z" fill="#B4B5B0"/>
<path d="M37.9236 58.8049L38.2337 58.9231L38.2932 59.3436L37.8406 59.1708L37.9236 58.8049Z" fill="#D7D9D5"/>
<path d="M39.3153 59.7341L39.3105 59.7349L38.8869 59.7777L38.6868 59.4339L38.984 59.2562C39.0638 59.3483 39.1348 59.4473 39.2013 59.552L39.2069 59.5561L39.3153 59.7341Z" fill="#B4B5B0"/>
<path d="M38.686 59.4362L38.8861 59.7777L38.672 59.9204L38.3804 59.4226L38.686 59.4362Z" fill="#D7D9D5"/>
<path d="M39.6558 60.8613C39.6558 60.8613 39.6558 60.8613 39.6566 60.8662C39.6552 60.9817 39.6476 61.0928 39.6188 61.1928L39.2914 60.9295L39.4545 60.6032L39.4802 60.6393L39.6558 60.8613Z" fill="#D7D9D5"/>
<path d="M39.4535 60.6024L39.2929 60.9274L38.9363 60.5317L39.0463 60.3089L39.4535 60.6024Z" fill="#B4B5B0"/>
<path d="M39.0463 60.309L38.9363 60.5318L38.5271 60.3422L38.6877 60.0172L39.0463 60.309Z" fill="#D7D9D5"/>
<path d="M38.5717 61.6926L38.3458 61.6061L38.1938 60.915L38.6466 61.0883L38.5717 61.6926Z" fill="#D7D9D5"/>
<path d="M38.646 61.0878L38.1937 60.9145L38.1976 60.5196L38.5077 60.6383L38.646 61.0878Z" fill="#B4B5B0"/>
<path d="M38.5078 60.6383L38.1976 60.5196L38.0024 60.1868L38.4552 60.36L38.5078 60.6383Z" fill="#D7D9D5"/>
<path d="M36.7974 60.2105L36.6518 59.9615L37.117 59.7086L37.4091 60.2068L36.7974 60.2105Z" fill="#D7D9D5"/>
<path d="M37.4093 60.2065L37.1172 59.7083L37.4776 59.7085L37.6778 60.0501L37.4093 60.2065Z" fill="#B4B5B0"/>
<path d="M37.6777 60.0502L37.4776 59.7086L37.6241 59.6097L37.9158 60.108L37.6777 60.0502Z" fill="#D7D9D5"/>
<path d="M37.1375 58.5148L36.9793 58.8407L36.5627 58.4266C36.6168 58.3578 36.679 58.3081 36.7538 58.2758L36.7587 58.275L37.1375 58.5148Z" fill="#D7D9D5"/>
<path d="M36.9783 58.84L37.1389 58.515L37.4955 58.9106L37.3855 59.1335L36.9783 58.84Z" fill="#B4B5B0"/>
<path d="M37.3855 59.1335L37.4955 58.9107L37.7686 59.1881L37.608 59.5131L37.3855 59.1335Z" fill="#D7D9D5"/>
<path d="M21.6707 51.3577C21.4539 50.0006 20.2312 48.5002 18.939 48.0062C18.3115 47.7664 17.7833 47.8083 17.4304 48.0704C17.4042 48.09 17.379 48.1107 17.3549 48.1326L15.542 49.6237L19.5574 54.218L21.2485 52.8446C21.2618 52.8343 21.2746 52.8241 21.2873 52.813L21.2908 52.8098C21.6239 52.5228 21.7762 52.0182 21.6707 51.3577Z" fill="url(#paint12_linear_512_2214)"/>
<path d="M19.949 52.756C20.1658 54.1132 19.2946 54.8131 18.0025 54.319C16.7108 53.825 15.4877 52.3247 15.2708 50.9675C15.054 49.6103 15.9253 48.9105 17.2174 49.4045C18.5091 49.8985 19.7322 51.3988 19.949 52.756Z" fill="url(#paint13_linear_512_2214)"/>
<path d="M19.648 52.7083C19.8423 53.9248 19.0612 54.552 17.903 54.1094C16.7452 53.6667 15.6491 52.3216 15.4547 51.1051C15.2604 49.8885 16.0415 49.2614 17.1993 49.7041C18.3575 50.1467 19.4536 51.4918 19.648 52.7083Z" fill="url(#paint14_linear_512_2214)"/>
<path d="M18.5049 53.0409C17.603 52.6943 16.7492 51.6437 16.5987 50.7015C16.5371 50.3157 16.5987 50.0105 16.7565 49.8099C16.6544 49.7963 16.559 49.7962 16.4664 49.811C15.8773 49.8852 15.543 50.394 15.6694 51.185C15.8441 52.2789 16.8279 53.4837 17.868 53.8833C18.6465 54.1794 19.2293 53.9412 19.4041 53.3426C19.4248 53.2543 19.4451 53.1606 19.4481 53.0552C19.2135 53.1831 18.8838 53.1856 18.5049 53.0409Z" fill="url(#paint15_linear_512_2214)"/>
<path d="M16.6915 50.4272L17.0482 50.8229L17.3164 51.0952C17.3428 51.0847 17.3654 51.0679 17.3971 51.0656L17.4505 50.831C17.3782 50.8199 17.3027 50.7944 17.2615 50.726C17.1647 50.5646 16.9004 50.3622 16.8146 50.2751C16.7254 50.184 16.6545 50.1392 16.5533 50.0998C16.4662 50.1178 16.3836 50.1445 16.3113 50.1873L16.6901 50.427L16.6915 50.4272Z" fill="url(#paint16_linear_512_2214)"/>
<path d="M17.7871 50.8369L17.8441 51.2416C17.8783 51.2691 17.9078 51.3033 17.9395 51.3349L18.2383 51.3482L18.2397 51.3461L18.5369 51.1684C18.5199 51.1467 18.4989 51.1288 18.4815 51.1077C18.4068 51.1264 18.3356 51.145 18.2972 51.1565C18.1923 51.1882 18.1021 51.2628 18.0997 51.2478C18.0972 51.2324 17.9974 51.1226 17.9974 51.1226C17.9974 51.1226 17.9906 50.9075 17.9897 50.8028C17.9893 50.7635 18.0021 50.7049 18.017 50.6456C17.941 50.5831 17.8674 50.5153 17.7882 50.4615L17.7881 50.8372L17.7871 50.8369Z" fill="url(#paint17_linear_512_2214)"/>
<path d="M16.669 51.6199L17.0294 51.6202L17.1698 51.525C17.1648 51.5054 17.1536 51.486 17.1505 51.4666C17.1471 51.4454 17.1534 51.4313 17.1525 51.4115L17.1401 51.3905C17.0601 51.3992 16.9349 51.4137 16.7583 51.4374C16.4507 51.4789 16.203 51.873 16.203 51.873L16.669 51.6199Z" fill="url(#paint18_linear_512_2214)"/>
<path d="M19.1575 52.3623C19.0784 52.3004 19.0015 52.2918 18.9617 52.2376C18.8433 52.077 18.5363 51.9692 18.5363 51.9692C18.5363 51.9692 18.5347 51.9595 18.5101 51.8535C18.4969 51.7964 18.4679 51.7364 18.4574 51.6878L18.4392 51.6898L18.4387 51.6899L18.2304 51.829C18.2353 51.8486 18.2465 51.868 18.2496 51.8874C18.2526 51.9059 18.2469 51.9182 18.2478 51.9356L18.5986 52.221L19.0059 52.5145L19.0069 52.5153L19.0326 52.5514L19.2083 52.7738C19.2056 52.6942 19.1979 52.6154 19.1846 52.5321C19.1786 52.4942 19.1658 52.4003 19.1575 52.3623Z" fill="url(#paint19_linear_512_2214)"/>
<path d="M18.0882 52.258C18.0628 52.2688 18.0407 52.2832 18.0105 52.2867L18.0602 52.55L18.1985 52.9996L18.1981 52.9997L18.199 53L18.1242 53.6043C18.1242 53.6043 18.4118 53.4516 18.4386 53.4238C18.4658 53.396 18.4711 53.3558 18.469 53.0536C18.4678 52.8395 18.389 52.536 18.3426 52.3761L18.0882 52.258Z" fill="url(#paint20_linear_512_2214)"/>
<path d="M17.2299 51.9622L16.9613 52.1181L16.9609 52.1182L16.9614 52.119L16.3498 52.1227C16.3498 52.1227 16.8573 52.2627 16.9889 52.1892C17.0807 52.138 17.2309 52.0393 17.3155 51.9829L17.2299 51.9622Z" fill="url(#paint21_linear_512_2214)"/>
<path d="M17.7461 52.8265L17.7461 52.8261L17.7489 52.5548C17.7339 52.6793 17.7233 52.8392 17.7429 52.9731C17.7809 53.2338 17.8981 53.5176 17.8981 53.5176L17.7461 52.8265Z" fill="url(#paint22_linear_512_2214)"/>
<path d="M17.2418 49.967C16.2223 49.5773 15.5345 50.1294 15.7056 51.2004C15.8767 52.2714 16.8418 53.4557 17.8614 53.8454C18.8809 54.2351 19.5686 53.683 19.3975 52.612C19.226 51.541 18.2609 50.3568 17.2418 49.967ZM17.8256 53.6214C16.924 53.2766 16.0703 52.2292 15.9189 51.2816C15.7676 50.3345 16.3759 49.8458 17.2775 50.1905C18.1791 50.5353 19.0328 51.5827 19.1842 52.5303C19.3355 53.4779 18.7271 53.9662 17.8256 53.6214Z" fill="#B4B5B0"/>
<path d="M17.2357 49.9314C16.1974 49.5343 15.4969 50.097 15.6711 51.1879C15.8454 52.2787 16.8284 53.4846 17.8668 53.8817C18.9051 54.2788 19.6056 53.716 19.4314 52.6256C19.2572 51.5352 18.274 50.3285 17.2357 49.9314ZM17.8532 53.7966C16.8596 53.4167 15.9188 52.2625 15.752 51.2184C15.5852 50.1743 16.2557 49.6362 17.2492 50.0161C18.2428 50.3959 19.1836 51.5501 19.3504 52.5942C19.5172 53.6379 18.8467 54.1764 17.8532 53.7966Z" fill="#D7D9D5"/>
<path d="M18.2496 51.8869C18.3005 52.2057 18.0957 52.37 17.7927 52.2538C17.4893 52.1377 17.202 51.7856 17.1511 51.4669C17.1001 51.1481 17.305 50.9838 17.6084 51.0999C17.9114 51.2161 18.1987 51.5681 18.2496 51.8869Z" fill="#B4B5B0"/>
<path d="M18.0531 51.8122C18.0858 52.0168 17.9543 52.1223 17.7598 52.048C17.5648 51.9738 17.3807 51.7473 17.348 51.5427C17.3153 51.3381 17.4468 51.2326 17.6413 51.3068C17.8359 51.3811 18.0203 51.6071 18.0531 51.8122Z" fill="#D7D9D5"/>
<path d="M17.8761 51.7442C17.8923 51.8461 17.827 51.8986 17.7302 51.8616C17.6334 51.8246 17.5418 51.7122 17.5255 51.6103C17.5092 51.5085 17.5745 51.456 17.6713 51.493C17.7681 51.5299 17.8598 51.6424 17.8761 51.7442Z" fill="#B4B5B0"/>
<path d="M17.709 50.4089L17.336 50.2681L17.3315 50.2087C17.46 50.2632 17.5858 50.3286 17.709 50.4089Z" fill="#D7D9D5"/>
<path d="M17.7878 50.4614L17.7877 50.8372L17.4781 50.7162L17.3364 50.2681L17.7094 50.4088L17.7101 50.4137C17.7367 50.4243 17.7641 50.4403 17.7878 50.4614Z" fill="#B4B5B0"/>
<path d="M17.4768 50.7164L17.787 50.8351L17.846 51.2557L17.3933 51.0824L17.4768 50.7164Z" fill="#D7D9D5"/>
<path d="M18.8681 51.6457L18.8632 51.6465L18.4396 51.6893L18.2395 51.3455L18.5367 51.1678C18.6166 51.2604 18.6875 51.3589 18.754 51.4636L18.7596 51.4677L18.8681 51.6457Z" fill="#B4B5B0"/>
<path d="M18.2387 51.3481L18.4393 51.6895L18.2252 51.8327L17.9331 51.3345L18.2387 51.3481Z" fill="#D7D9D5"/>
<path d="M19.2086 52.7734C19.2086 52.7734 19.2086 52.7734 19.2093 52.7783C19.2079 52.8938 19.2003 53.0049 19.1715 53.1049L18.8441 52.8416L19.0072 52.5153L19.0329 52.5514L19.2086 52.7734Z" fill="#D7D9D5"/>
<path d="M19.0063 52.514L18.8457 52.839L18.4891 52.4438L18.599 52.2205L19.0063 52.514Z" fill="#B4B5B0"/>
<path d="M18.5991 52.2206L18.4891 52.4439L18.0799 52.2542L18.2404 51.9288L18.5991 52.2206Z" fill="#D7D9D5"/>
<path d="M18.1249 53.6041L17.8986 53.5177L17.7466 52.8267L18.1997 52.9998L18.1249 53.6041Z" fill="#D7D9D5"/>
<path d="M18.1988 52.9994L17.7465 52.8261L17.7503 52.4312L18.0605 52.5499L18.1988 52.9994Z" fill="#B4B5B0"/>
<path d="M18.0604 52.5499L17.7503 52.4313L17.5552 52.0989L18.0078 52.2716L18.0604 52.5499Z" fill="#D7D9D5"/>
<path d="M16.3501 52.122L16.2041 51.8731L16.6692 51.6202L16.9614 52.1189L16.3501 52.122Z" fill="#D7D9D5"/>
<path d="M16.9611 52.1181L16.6689 51.6199L17.0299 51.6205L17.2296 51.9621L16.9611 52.1181Z" fill="#B4B5B0"/>
<path d="M17.23 51.9621L17.0303 51.6205L17.1764 51.5217L17.468 52.0195L17.23 51.9621Z" fill="#D7D9D5"/>
<path d="M16.6908 50.4263L16.5325 50.7519L16.1159 50.3377C16.17 50.269 16.2321 50.2188 16.3071 50.1869L16.3119 50.1862L16.6908 50.4263Z" fill="#D7D9D5"/>
<path d="M16.531 50.7521L16.6916 50.4271L17.0482 50.8223L16.9382 51.0452L16.531 50.7521Z" fill="#B4B5B0"/>
<path d="M16.9382 51.0451L17.0482 50.8223L17.3214 51.1001L17.1608 51.4251L16.9382 51.0451Z" fill="#D7D9D5"/>
<path d="M49.7582 53.1381L49.9764 54.5041L50.3119 54.7838L49.9658 54.6609L49.8222 53.7623C49.5621 52.1339 48.0657 50.4037 46.5444 49.7406C44.8745 49.013 43.7318 49.7427 43.7946 51.3447L43.964 52.4051L43.8745 52.4334L44.0303 52.5428L43.7198 52.4188L43.5408 51.2984C43.2197 49.2887 44.552 48.1574 46.465 48.8892C48.3783 49.6208 49.1258 50.5722 49.7582 53.1381Z" fill="#00871D"/>
<path d="M50.3936 53.4379L50.6881 54.6077L50.3493 56.2657L50.2931 56.4605L49.0045 55.9913L48.6967 55.8817L48.3506 55.7589L48.2071 54.8602C48.1722 54.642 48.1156 54.4204 48.04 54.1992C47.5517 52.7705 47.241 50.5647 45.8987 50.0511C44.3485 49.4586 43.3029 50.2985 43.563 51.9268L43.7324 52.9872L43.6203 52.9477L43.3846 52.8538L43.0741 52.7302L35.5245 49.7382L30.7587 47.4944L29.9951 47.1895L29.7459 47.09L29.6457 47.0459L29.5128 46.2143C29.2527 44.586 26.7495 42.7299 25.1998 42.1373C23.6963 41.5627 22.6675 42.3352 22.8441 43.8679C22.8494 43.9155 22.8562 43.9637 22.8641 44.0131L22.9395 44.4848L22.5823 44.2923L22.0133 43.9857C22.0133 43.9857 21.9306 43.9352 21.7967 43.853C21.2217 43.5004 19.3 42.374 19.2735 42.3637C19.2514 42.3555 18.9149 41.7721 18.6899 41.3799C18.5757 41.1802 18.4902 41.0297 18.4902 41.0297L18.478 40.045L18.1734 39.0464L18.3444 38.883L18.8877 37.871L18.5451 37.4134L18.6256 37.1392L18.942 36.977L21.3854 38.2353L22.9708 38.6883L25.796 38.7109C25.796 38.7109 28.1082 39.2359 29.882 39.8922C31.6559 40.5484 35.5278 42.113 35.5278 42.113L35.6695 42.2871L35.3549 42.265C35.3549 42.265 34.677 42.6102 35.5827 43.4138C36.4884 44.2178 39.3664 45.5893 39.3664 45.5893L40.411 45.7711L40.4124 45.7713C40.4637 45.7871 42.6486 46.8678 44.2296 47.6331C45.836 48.4106 47.6425 49.5939 48.5209 50.2553C49.3997 50.9162 50.4326 51.7971 50.4326 51.7971L50.4808 52.5685L50.3936 53.4379Z" fill="#00871D"/>
<path d="M30.6047 46.5267L30.7592 47.4941L29.9952 47.1893L29.7459 47.0898L29.6457 47.0457L29.5129 46.2141C29.2528 44.5857 26.7496 42.7297 25.1994 42.1372C23.6492 41.5447 22.6036 42.3846 22.8637 44.0129L22.9391 44.4847L22.5819 44.2922L22.0129 43.9856C22.0129 43.9856 21.9302 43.935 21.7964 43.8529L21.7363 43.4768C21.3733 41.2047 22.8325 40.0328 24.9949 40.8599C27.1587 41.6872 30.2417 44.2546 30.6047 46.5267Z" fill="#00871D"/>
<path d="M48.8538 55.0454L49.0049 55.9912L48.6967 55.8818L48.3506 55.7589L48.207 54.8603C47.9469 53.2319 47.4489 50.6441 45.8986 50.0511C44.3484 49.4586 43.3029 50.2985 43.563 51.9268L43.7324 52.9873L43.6202 52.9473L43.3845 52.8534L43.074 52.7298L42.895 51.6094C42.574 49.5996 43.8645 48.5633 45.7773 49.2946C48.4525 50.3169 48.4042 52.2306 48.8538 55.0454Z" fill="#00871D"/>
<path d="M29.0773 46.2096C29.2945 47.569 27.3859 48.2149 26.0919 47.7203C24.7979 47.2256 23.5729 45.7225 23.3557 44.3631C23.1386 43.0037 24.0114 42.3027 25.3054 42.7973C26.5995 43.2919 28.8602 44.8503 29.0773 46.2096Z" fill="#12090A"/>
<path d="M28.6136 46.0331C28.7878 47.1235 27.0519 47.6305 26.0141 47.2338C24.9763 46.8371 23.9937 45.6312 23.8195 44.5408C23.6453 43.4504 24.3454 42.8882 25.3832 43.2849C26.4215 43.6815 28.4393 44.9423 28.6136 46.0331Z" fill="#9FA1A2"/>
<path d="M29.8551 46.3121L29.9952 47.1891L29.746 47.0897L29.6458 47.0455L29.513 46.2139C29.2529 44.5856 26.7497 42.7295 25.1995 42.137C23.6493 41.5445 22.6037 42.3844 22.8638 44.0127L22.9392 44.4845L22.582 44.292L22.5105 43.8445C22.2181 42.0142 23.3936 41.0703 25.1355 41.7367C26.878 42.4029 29.5628 44.4818 29.8551 46.3121Z" fill="#00871D"/>
<path d="M48.1693 54.5326C48.3864 55.892 48.0852 56.1291 46.7911 55.6341C45.4971 55.1395 44.2721 53.6363 44.0549 52.2769C43.8378 50.9175 44.7106 50.2165 46.0047 50.7111C47.2982 51.2058 47.9521 53.1732 48.1693 54.5326Z" fill="#12090A"/>
<path d="M48.1033 54.0322C48.2775 55.1226 47.7506 55.5441 46.7128 55.1474C45.675 54.7507 44.6924 53.5448 44.5182 52.4544C44.344 51.3639 45.0441 50.8017 46.082 51.1984C47.1202 51.5951 47.9291 52.9418 48.1033 54.0322Z" fill="#9FA1A2"/>
<path d="M48.5491 54.9582L48.6967 55.8819L48.3506 55.7591L48.2071 54.8604C47.9469 53.2321 47.449 50.6442 45.8987 50.0513C44.3485 49.4588 43.3029 50.2987 43.563 51.927L43.7324 52.9874L43.6202 52.9475L43.3846 52.8535L43.2097 51.7592C42.9173 49.9289 44.0924 48.9851 45.8347 49.6509C48.3385 50.608 48.1282 52.3232 48.5491 54.9582Z" fill="#00871D"/>
<path d="M50.4646 54.6506L49.3545 54.0588L49.4587 54.711L49.7192 55.8889L50.2051 56.0093L50.4646 54.6506Z" fill="#12090A"/>
<path d="M50.4809 52.568L48.9373 51.3066L48.4197 51.6981L48.8753 52.4727L50.4925 53.7418L50.3938 53.4379L50.4809 52.568Z" fill="#00B300"/>
<path d="M49.0023 51.4078L48.5839 51.8061L48.9184 52.3916L49.8752 52.9152L50.0529 52.8923L50.1661 52.0105L49.0023 51.4078Z" fill="#898383"/>
<path d="M40.2676 51.146L40.2372 51.1341C40.1651 51.1045 33.0226 48.2039 31.987 47.691C31.6585 47.5283 31.4685 47.3212 31.4237 47.0743C31.3602 46.7281 31.601 46.4206 31.6627 46.3483L29.206 42.6291L29.2067 42.6195C29.2587 42.1238 29.3322 41.3673 29.325 41.316L29.377 41.3077C29.388 41.3769 29.2774 42.4509 29.2604 42.6159L31.729 46.3531L31.7147 46.3685C31.7116 46.3717 31.4091 46.7031 31.4755 47.0647C31.5175 47.294 31.6975 47.4891 32.0107 47.6439C33.0099 48.1385 39.7164 50.8655 40.2274 51.0728L40.3598 50.316L40.0478 46.908L38.8566 45.4609L38.8973 45.4269L40.0987 46.8872L40.0995 46.8948L40.4123 50.322L40.2676 51.146Z" fill="#308825"/>
<path d="M39.3658 45.5889L38.1984 45.4937L33.1446 43.4401L30.8776 42.519L25.5126 39.958L24.6846 39.6123L21.3848 38.2349L22.9701 38.6879L25.7953 38.7105C25.7953 38.7105 28.1076 39.2355 29.8814 39.8918C31.6552 40.548 35.5271 42.1126 35.5271 42.1126L35.6689 42.2867L35.3543 42.2646C35.3543 42.2646 35.4295 42.3055 35.5584 42.3762C36.1578 42.706 36.8843 43.634 37.6805 44.233C38.7124 45.0087 39.3658 45.5889 39.3658 45.5889Z" fill="#00871D"/>
<path d="M19.822 42.2499L22.8442 43.8679C22.8495 43.9154 22.8564 43.9641 22.8642 44.013L22.9396 44.4848L22.5823 44.2923L22.0134 43.9857C22.0134 43.9857 21.9307 43.9352 21.7968 43.853C21.2218 43.5004 19.3 42.3735 19.2735 42.3633C19.2514 42.355 18.9149 41.7717 18.6899 41.3794C18.6973 41.3913 19.822 42.2499 19.822 42.2499Z" fill="#00B300"/>
<path d="M32.9464 48.3178L43.6758 52.6286L43.733 52.9871L43.6204 52.9472L43.3852 52.8532L43.0747 52.7296L30.7592 47.4938L29.9956 47.1889L29.7465 47.0899L29.6463 47.0458L29.5542 46.4695L32.9464 48.3178Z" fill="#00B300"/>
<path d="M50.3495 56.2659L50.2934 56.4607L49.0052 55.9914L48.6969 55.882L48.3508 55.7591L48.3179 55.5527L50.3495 56.2659Z" fill="#00B300"/>
<path d="M18.4785 40.0445L20.3577 40.9078L22.137 42.6172L21.4785 42.4524L18.4906 41.0292L18.4785 40.0445Z" fill="#00871D"/>
<path d="M50.3937 53.4379L50.0529 52.8923L49.8753 52.9153L48.9184 52.3917L48.8753 52.4727L50.4925 53.7418L50.3937 53.4379Z" fill="#00871D"/>
<path d="M41.5901 50.8822L30.5547 45.8665L31.5811 45.8237L40.1652 49.7492L41.5901 50.8822Z" fill="#00871D"/>
<path d="M18.1736 39.0459L18.953 39.4495L19.4978 38.6195L18.7823 39.0716L18.3442 38.8825L18.1736 39.0459Z" fill="#00871D"/>
<path d="M50.3996 56.5747L50.3403 57.6133L50.0262 58.2622L49.5134 58.78L47.7335 60.2256L46.5795 61.0606L45.5269 61.491L44.4277 61.7833L44.4839 61.5885L44.6686 58.9661L50.6882 54.6082L50.4558 56.3799L50.3996 56.5747Z" fill="#00871D"/>
<path d="M44.3335 58.7913L50.4922 53.7419L50.6081 54.2547L50.4781 54.7575L49.8162 55.6184L47.0724 57.8464L45.9091 58.5152L44.6685 58.9661L44.3335 58.7913Z" fill="#00B300"/>
<path d="M50.4807 52.5682L50.3935 53.4381L50.4901 53.7428L50.301 54.3618L49.4317 55.4615L47.0433 57.4004L45.2938 58.4282L44.5686 58.7005L44.3347 58.7899L44.4695 58.3799L44.4847 58.3255L43.7873 57.4439L48.065 54.0986L50.4807 52.5682Z" fill="#3B8353"/>
<path d="M50.5984 52.1216L50.4807 52.5682L49.6609 53.6976C49.6609 53.6976 48.9552 54.6351 46.7035 56.0457C46.2517 56.3286 44.8129 57.0309 44.8129 57.0309L43.7867 57.4454L38.6548 56.5899L30.5951 52.4006L35.5249 49.7379L40.4105 45.7709L40.4119 45.7711C40.4633 45.7869 42.6481 46.8676 44.2291 47.6329C45.8356 48.4104 47.8187 49.2842 48.6971 49.9456C49.5759 50.6065 50.4321 51.7969 50.4321 51.7969L50.5984 52.1216Z" fill="#1E9D27"/>
<path d="M50.5995 52.12L50.4788 52.5675L49.6625 53.6986C49.6625 53.6986 48.9548 54.6323 46.7025 56.0452C46.2514 56.3294 44.8144 57.0315 44.8144 57.0315L43.7874 57.4438L43.4091 57.3799C43.4457 57.2578 43.4726 57.1776 43.4726 57.1776C43.4726 57.1776 44.7595 56.6876 46.1661 55.8945C47.5728 55.1014 48.298 54.4049 49.078 53.7481C49.8614 53.0867 50.4319 51.7981 50.4319 51.7981L50.5995 52.12Z" fill="#46AE41"/>
<path d="M46.0988 55.4495C46.2347 55.624 46.3712 56.2266 46.5042 56.81C46.5045 56.8117 46.5053 56.8139 46.5056 56.8161C46.5927 56.7524 46.6811 56.6917 46.7676 56.6273C47.0285 56.4323 47.2847 56.2326 47.5401 56.034C47.4021 55.4592 47.2672 55.0195 47.0352 54.7193C46.7279 54.3239 45.1603 53.5094 43.8927 52.8912C41.8146 51.9381 38.9459 50.6188 37.519 49.9578C37.2064 50.18 36.8759 50.3929 36.5342 50.5836C36.4753 50.6169 36.3977 50.6574 36.3092 50.7036C37.0658 51.0553 39.4426 52.1488 43.3876 53.9644C44.5296 54.5231 45.8998 55.257 46.0988 55.4495Z" fill="black"/>
<path d="M47.5927 57.1485C47.4248 57.0546 47.2566 56.9607 47.0886 56.8663C46.964 56.7967 46.9385 56.7872 46.8248 56.8737C46.7269 56.9486 46.6299 57.026 46.5207 57.0841C46.3627 57.1677 46.2319 57.3057 46.1067 57.4306C46.0735 57.4635 46.04 57.4973 46.02 57.539C45.9995 57.5807 45.9947 57.633 46.0191 57.6725C46.0374 57.7017 46.0683 57.7198 46.0981 57.7368C46.235 57.8148 46.3714 57.893 46.5082 57.9711C46.5983 58.0227 46.7186 58.0541 46.7606 58.1586C46.8001 58.2559 46.7762 58.4148 46.7775 58.519C46.7802 58.7935 46.772 59.0679 46.7588 59.3418C46.7314 59.906 46.6829 60.469 46.623 61.0307L47.7354 60.2245L47.8981 60.0904C47.9036 60.0855 47.9014 60.0433 47.902 60.036C47.9463 59.4329 47.9768 58.8257 47.9526 58.2214C47.9425 57.9739 47.9248 57.7244 47.8769 57.4811C47.8452 57.3193 47.7839 57.2558 47.6449 57.1781C47.627 57.1679 47.6096 57.1584 47.5927 57.1485Z" fill="#D7D6D7"/>
<path d="M49.6552 58.6364L49.5138 58.7792L48.3688 59.7069C48.4275 59.1544 48.4761 58.6009 48.5055 58.0463C48.5202 57.77 48.5302 57.4934 48.5309 57.2171C48.5309 57.1013 48.5494 56.9595 48.5241 56.8465C48.498 56.7285 48.3212 56.6663 48.2222 56.6039C48.1372 56.5501 48.0517 56.4964 47.9667 56.4422C47.9148 56.4093 47.8603 56.3737 47.8326 56.3189C47.7889 56.2323 47.8255 56.1278 47.8701 56.0416C47.9668 55.8543 48.1087 55.7322 48.2365 55.5725C48.3379 55.446 48.2069 55.1608 48.1718 55.0122C48.1002 54.708 48.0517 54.283 47.8533 54.0285C47.6543 53.836 46.2841 53.1021 45.1418 52.5439C42.6169 51.3497 39.7151 49.9761 38.3452 49.3181C38.7235 49.0054 39.0475 48.7013 39.2966 48.4576C40.8392 49.1919 43.6159 50.5101 45.656 51.4774C46.9191 52.0923 48.482 52.9034 48.79 53.3027C48.9765 53.542 49.081 53.8364 49.1663 54.1239C49.2203 54.3066 49.2653 54.4916 49.3102 54.6766C49.3357 54.7824 49.3459 54.8178 49.2797 54.9103C49.229 54.9807 49.1654 55.0411 49.0993 55.0973C49.0058 55.1769 48.9003 55.2553 48.8605 55.3715C48.8119 55.5145 48.9987 55.5828 49.104 55.6505C49.2305 55.732 49.3617 55.806 49.4963 55.8727C49.6024 55.9254 49.6117 55.9614 49.634 56.0809C49.6799 56.3258 49.6973 56.5763 49.7068 56.8253C49.7303 57.4279 49.6992 58.0343 49.6552 58.6364Z" fill="black"/>
<path d="M46.445 60.3636L46.3043 60.8925L47.118 60.4215L49.7022 58.3321L49.9539 58.0282L49.9997 57.8454L49.9005 57.2242L49.5838 56.9827L49.0268 57.8634L46.445 60.3636Z" fill="#3B8353"/>
<path d="M49.584 56.9827L47.1011 58.9077C47.1011 58.9077 46.4262 60.2418 46.4456 60.3635C46.4651 60.4856 49.6978 57.8535 49.6978 57.8535L49.584 56.9827Z" fill="#12090A"/>
<path d="M18.6253 37.1388L17.4634 37.6862C17.4634 37.6862 14.0783 39.8566 12.0595 42.0742L11.098 43.2506L13.2298 44.5171L15.8117 45.6235L24.0451 39.2809L18.9413 36.9771L18.6253 37.1388Z" fill="#1E9D27"/>
<path d="M25.7953 38.7106L22.9701 38.688L20.589 38.8812L19.0705 39.24C19.0705 39.24 16.2061 40.4075 14.4651 42.9795L13.7514 44.4338L15.2161 44.9635L19.6657 43.6879L25.7953 38.7106Z" fill="#00871D"/>
<path d="M40.4095 45.7691L40.3686 46.34L40.3373 46.7696L39.8338 47.9031C39.8338 47.9031 39.2137 48.6068 38.2827 49.3718C37.7769 49.789 37.1744 50.2294 36.5347 50.5839C36.0123 50.8717 34.1711 51.7781 34.1711 51.7781L32.3021 52.357C32.2165 52.3228 32.1008 52.2011 31.9709 52.0138C31.1305 50.863 29.539 47.266 29.539 47.266L33.1434 43.4395L33.5213 43.2751L33.7983 43.1549L35.4731 42.4352L35.5139 42.4164L35.5596 42.377L35.6693 42.2876L40.4095 45.7691Z" fill="#12090A"/>
<path d="M39.9111 45.8846L39.979 46.3101L39.8743 46.7071L39.5248 47.7519C39.5248 47.7519 37.7919 49.4097 36.6987 50.0848C35.6096 50.7594 33.9575 51.5194 33.9575 51.5194L32.3333 52.0031L32.0861 51.5344L29.8635 47.2935C29.8635 47.2935 29.8635 47.2935 31.3767 46.5674C32.5257 46.0154 34.1312 44.514 34.8404 43.8161C35.0693 43.5955 35.2031 43.4538 35.2031 43.4538L35.6054 42.6891C35.6662 42.6672 35.8906 42.7955 36.2149 43.02C36.2195 43.0233 36.2195 43.0233 36.2241 43.0266C37.4192 43.8445 39.9111 45.8846 39.9111 45.8846Z" fill="#1A1A1A"/>
<path d="M39.3743 45.6821L34.8407 43.8163C35.0695 43.5957 35.2033 43.454 35.2033 43.454L35.6057 42.6893C35.6664 42.6674 35.8909 42.7957 36.2152 43.0202C36.2198 43.0235 36.2198 43.0235 36.2244 43.0269C37.4661 44.0372 39.23 45.5569 39.3743 45.6821Z" fill="#9C9FA3"/>
<path d="M39.9113 45.8846L39.9793 46.3101L39.8745 46.7071L39.525 47.7519C39.525 47.7519 37.7921 49.4097 36.699 50.0849C35.6098 50.7594 33.9578 51.5194 33.9578 51.5194L32.3335 52.0031L32.0863 51.5344C32.1183 51.409 32.1365 51.322 32.1353 51.3145C32.1328 51.299 34.0483 50.3084 34.4134 50.086C34.7774 49.8596 36.0737 48.3756 36.0737 48.3756C36.0737 48.3756 36.1694 47.5197 36.2681 47.3877C36.3633 47.2563 38.0462 45.7865 38.2347 45.6641C38.423 45.5382 39.9113 45.8846 39.9113 45.8846Z" fill="#1E1E1E"/>
<path d="M40.409 45.7693L40.3681 46.3401L40.3368 46.7697L39.8333 47.9033C39.8333 47.9033 39.2132 48.6069 38.2823 49.3719C35.9738 46.4981 33.3077 44.0694 33.3077 44.0694C33.3077 44.0694 33.4815 43.7052 33.7982 43.1545L35.473 42.4348L35.5139 42.4161L35.5596 42.3767L35.6692 42.2873L40.409 45.7693Z" fill="#181B1C"/>
<path d="M35.5266 42.113C35.5266 42.113 37.8496 43.8205 40.4103 45.7709L40.5748 46.2683L40.2232 47.028L40.3531 46.4118L40.2609 45.9734C39.6175 45.326 36.8105 43.235 35.7453 42.508C35.4072 42.2772 35.489 42.5029 35.489 42.5029L35.5266 42.113Z" fill="#00871D"/>
<path d="M35.6687 42.2869L35.5587 42.3764L35.0484 43.3035C35.0484 43.3035 33.9231 44.7254 31.1319 46.484L29.5392 47.2643L19.6657 43.6885C19.6657 43.6885 20.1253 42.7356 20.2893 42.4232C21.2006 40.6895 24.2715 39.1897 24.2715 39.1897L25.7949 38.7117C25.7949 38.7117 28.1071 39.2367 29.8809 39.893C31.6548 40.5492 35.5267 42.1138 35.5267 42.1138L35.6687 42.2869Z" fill="#1E9D27"/>
<path d="M44.3337 58.7913L44.6686 58.9662L44.4839 61.5885L44.4277 61.7833L41.866 61.7879L41.5577 61.6784L41.2116 61.5555L41.0681 60.6569C40.808 59.0286 39.3405 57.2277 37.7903 56.6352C36.2401 56.0427 35.1945 56.8826 35.4547 58.5109L35.6241 59.5714L35.5119 59.5314L35.2762 59.4375L34.9657 59.3139L21.6149 54.0228L20.8509 53.718L20.6017 53.6185L20.5015 53.5744L20.3686 52.7428C20.1085 51.1144 18.6411 49.3136 17.0909 48.7211C15.5874 48.1464 14.5586 48.9189 14.7352 50.4517C14.7405 50.4992 14.7474 50.5478 14.7552 50.5968L14.8306 51.0686L14.4734 50.876L13.9044 50.5695C13.9044 50.5695 13.8221 50.5189 13.6878 50.4368C13.1129 50.0841 11.7727 48.4854 11.7457 48.4748C11.7235 48.4666 11.3871 47.8832 11.1621 47.4909C11.0479 47.2912 10.9623 47.1408 10.9623 47.1408L10.9502 46.1561L10.6455 45.1575L10.8166 44.994L11.3599 43.9821L11.0173 43.5245L11.0978 43.2503L11.4142 43.088L13.2296 44.5168L15.8115 45.6232L19.6656 43.688C19.6656 43.688 21.9777 44.2126 23.7516 44.8693C25.5254 45.5256 29.3973 47.0902 29.3973 47.0902L29.5391 47.2642L29.2245 47.2422C29.2245 47.2422 28.4262 47.4081 29.1574 48.3734C29.8804 49.3273 31.2571 52.1736 31.2571 52.1736L31.8243 52.6048C31.8243 52.6048 32.3945 52.7859 34.3586 53.5465C35.9671 54.1695 39.1118 55.3995 40.1352 55.8025C41.3103 56.2655 43.474 57.1774 43.474 57.1774L43.7864 57.4458L44.3337 58.7913Z" fill="#00871D"/>
<path d="M50.6085 54.2564C50.6085 54.2564 50.6085 54.2564 50.6546 54.5452C50.7007 54.834 49.884 55.6853 49.8253 55.7706C49.763 55.8565 47.4631 57.7491 47.1681 57.9324C46.8692 58.1162 45.7084 58.894 44.6801 59.0465C43.9138 59.1608 43.1594 59.0494 42.836 58.9807C43.3269 59.0226 44.667 58.9645 44.667 58.9645L45.9081 58.5139L47.071 57.848L49.8179 55.6194L50.4769 54.7576L50.6085 54.2564Z" fill="#1E9D27"/>
<path d="M37.9791 55.077L31.9644 53.4817C21.1245 49.2066 21.1246 49.2066 21.1246 49.2066L16.7881 46.8118L13.23 44.5166L13.7512 44.4333L32.302 52.3543L37.9791 55.077Z" fill="#46AE41"/>
<path d="M43.4742 57.1768L42.4775 57.1872L41.5438 56.6156L35.0776 53.825L41.9748 56.1095L43.4742 57.1768Z" fill="#49B33B"/>
<path d="M43.0304 57.3993C43.0304 57.3993 42.5855 57.337 42.5045 57.4585C42.4239 57.5799 42.5796 58.8401 42.6608 58.9438C42.7416 59.0475 44.669 58.9666 44.669 58.9666L44.334 58.7918L43.5029 57.7584L42.9523 57.3349L43.0304 57.3993Z" fill="#00B300"/>
<path d="M20.9149 52.4217L20.7603 53.1491L20.8511 53.7179L20.6019 53.6185L20.5017 53.5743L20.3689 52.7427C20.1088 51.1144 18.6413 49.3135 17.0911 48.721C15.5409 48.1285 14.4953 48.9684 14.7554 50.5968L14.8308 51.0686L14.4736 50.876L13.9046 50.5694C13.9046 50.5694 14.4907 50.9239 14.3569 50.8418L14.4052 50.2553C14.0422 47.9831 15.1926 46.8172 17.3554 47.6442C19.5183 48.4712 20.552 50.1496 20.9149 52.4217Z" fill="#00B300"/>
<path d="M41.2875 59.9876L41.5057 61.3536L41.8411 61.6332L41.495 61.5104L41.3515 60.6118C41.0914 58.9834 39.595 57.2532 38.0737 56.5901C36.4037 55.862 35.261 56.5922 35.3239 58.1942L35.4933 59.2546L35.4042 59.2828L35.56 59.3922L35.2495 59.2687L35.0706 58.1483C34.7495 56.1385 36.0818 55.0073 37.9947 55.739C39.9076 56.4703 40.655 57.4212 41.2875 59.9876Z" fill="#00B300"/>
<path d="M20.711 52.8409L20.8511 53.7179L20.6019 53.6184L20.5017 53.5743L20.3689 52.7427C20.1087 51.1144 18.6413 49.3135 17.0911 48.721C15.5409 48.1285 14.4953 48.9684 14.7554 50.5967L14.8308 51.0685L14.4736 50.876L14.4021 50.4284C14.1097 48.5982 15.2852 47.6543 17.0271 48.3207C18.7696 48.9869 20.4186 51.0106 20.711 52.8409Z" fill="#00871D"/>
<path d="M41.4102 60.7552L41.5577 61.6785L41.2116 61.5556L41.068 60.657C40.8079 59.0286 39.3405 57.2278 37.7903 56.6353C36.24 56.0428 35.1945 56.8827 35.4546 58.511L35.624 59.5714L35.5118 59.5315L35.2762 59.4375L35.1013 58.3432C34.8089 56.5129 35.9844 55.569 37.7263 56.2349C39.4687 56.9012 41.1178 58.9249 41.4102 60.7552Z" fill="#00871D"/>
<path d="M44.6076 58.0412L44.5899 58.3325L44.5687 58.7004L44.3347 58.7898L42.8194 58.8035L42.6339 57.416L42.8929 57.4067L43.0316 57.4004L43.7873 57.4438L44.6076 58.0412Z" fill="#3B8353"/>
<path d="M32.1594 57.7305L32.129 57.7187C32.0569 57.689 24.9143 54.788 23.8784 54.2757C22.8341 53.7593 22.5295 52.8972 22.5267 52.8882L21.0981 49.2105L21.0985 49.2041C21.1503 48.7079 21.2239 47.951 21.2166 47.9001L21.2687 47.8918C21.2799 47.9619 21.1677 49.0488 21.1517 49.2033L22.5762 52.8694C22.5796 52.8793 22.8782 53.721 23.902 54.2281C24.9015 54.7222 31.6081 57.4496 32.1187 57.657L32.2509 56.8997L31.939 53.4922L30.7479 52.0451L30.7886 52.011L31.99 53.4714L31.9908 53.4794L32.3035 56.9058L32.1594 57.7305Z" fill="#308825"/>
<path d="M32.3019 52.3547L30.0895 52.0778L22.7687 49.1031L17.4037 46.5421L13.751 44.4333L14.4174 44.5629L19.6657 43.6874C19.6657 43.6874 21.9779 44.212 23.7518 44.8687C25.5256 45.525 29.3975 47.0896 29.3975 47.0896L29.5393 47.2636C29.5393 47.2636 30.0247 48.3468 30.6011 49.3843C31.2733 50.595 32.3019 52.3547 32.3019 52.3547Z" fill="#0E5312"/>
<path d="M12.2952 48.3616L14.7357 50.4514C14.7411 50.499 14.7479 50.5476 14.7557 50.5966L14.8311 51.0684L14.4739 50.8758L13.9049 50.5693C13.9049 50.5693 13.8226 50.5186 13.6883 50.4365C13.1134 50.0839 11.7732 48.4852 11.7462 48.4746C11.7241 48.4664 11.3876 47.883 11.1626 47.4907C11.17 47.5031 12.2952 48.3616 12.2952 48.3616Z" fill="#00B300"/>
<path d="M24.8381 54.9021L35.567 59.213L35.6243 59.5715L35.5125 59.5314L35.2764 59.4376L34.9663 59.3139L21.6156 54.0228L20.8516 53.718L20.6023 53.6185L20.5021 53.5744L20.4102 52.9985L24.8381 54.9021Z" fill="#00B300"/>
<path d="M44.4839 61.5885L44.4278 61.7833L41.866 61.7878L41.5578 61.6783L41.2117 61.5555L41.1787 61.3491L44.4839 61.5885Z" fill="#00871D"/>
<path d="M18.2296 44.7132L17.7598 46.4342L21.3285 48.1417L30.7688 52.0286C30.7688 52.0286 29.3058 47.6401 28.5181 47.0995C27.6402 46.4696 20.4657 44.3058 20.4657 44.3058L18.2296 44.7132Z" fill="#12090A"/>
<path d="M10.9507 46.1564L11.6654 47.1799L13.0838 48.592L12.6608 48.3897L10.9633 47.1411L10.9507 46.1564Z" fill="#00B300"/>
<path d="M33.4818 57.4664L21.4106 52.3955L22.437 52.3523L32.0569 56.3335L33.4818 57.4664Z" fill="#00B300"/>
<path d="M10.6467 45.1577L11.4261 45.5613L11.9709 44.7314L11.2554 45.1834L10.8173 44.9943L10.6467 45.1577Z" fill="#00B300"/>
<path d="M44.6461 59.8019L44.0364 59.8771L43.6219 59.8131L43.2139 59.7074L43.2711 60.2807L43.3049 60.6849L43.6143 60.8327C43.6143 60.8327 44.6227 60.663 44.7857 60.537C44.9487 60.411 45.516 60.0505 45.516 60.0505L45.6444 59.5036L44.6461 59.8019Z" fill="#12090A"/>
<path d="M50.4796 52.5713L50.4372 52.9824L50.3938 53.4379L50.1593 54.2517L49.3247 55.2939L46.8534 57.2659L45.2874 58.1885L44.6076 58.4449L44.4872 58.4922L44.2226 58.5905L42.7976 58.6179L42.6983 57.8971L42.6335 57.415L43.0312 57.3995L43.7704 57.4414L43.7865 57.4429L44.8135 57.0306C44.8135 57.0306 46.2505 56.3285 46.7016 56.0444C48.9545 54.6354 49.6616 53.6977 49.6616 53.6977L50.4796 52.5713Z" fill="#12090A"/>
<path d="M50.4794 52.5714L50.4369 52.9824C50.2243 53.3044 49.946 53.6935 49.6722 54.0094C49.0859 54.6755 48.2351 55.4639 47.0806 56.205C45.9222 56.9467 44.862 57.5284 44.8305 57.5574C44.8029 57.5858 44.1672 57.7502 42.6777 57.7386L42.6343 57.4159L43.0319 57.4003L43.7712 57.4422L43.7872 57.4437L44.8143 57.0314C44.8143 57.0314 46.2513 56.3293 46.7024 56.0452C48.9553 54.6362 49.6624 53.6985 49.6624 53.6985L50.4794 52.5714Z" fill="black" fill-opacity="0.46"/>
<path d="M50.525 55.3785L50.5172 55.3979L50.3367 55.8418L50.11 56.2226L50.0936 56.6493L50.2724 56.7949L50.4557 56.3799L50.5747 55.3385L50.525 55.3785Z" fill="#12090A"/>
<path d="M11.9711 44.7314L11.9356 44.5096L11.3608 43.9824L10.9078 44.8262L10.924 44.9276L11.2556 45.1835L11.9711 44.7314Z" fill="#292D2F"/>
<path d="M11.8545 44.4959L11.2817 44.7769L11.0271 44.6801L11.4104 44.0283L11.8545 44.4959Z" fill="#00871D"/>
<path d="M45.2953 57.0106L45.3819 57.1903L45.3535 57.6859C45.3391 57.936 45.1792 58.1546 44.9448 58.2441L44.2232 58.5194L43.2269 58.5271C43.062 58.5281 42.9209 58.4091 42.895 58.2464L42.8095 57.7116L42.8624 57.5385L43.0949 57.4937L43.8626 57.499L44.8904 57.111L45.0934 57.0148L45.2953 57.0106Z" fill="white"/>
<path d="M49.6392 53.8277C49.6392 53.8277 49.5261 54.94 49.6343 54.8305C49.9552 54.5066 50.1064 54.222 50.1064 54.222L50.367 53.4361L50.4718 52.6402L49.7286 53.7171L49.6392 53.8277Z" fill="white"/>
<path d="M44.9643 57.1499C45.0809 57.1295 45.0398 57.8206 44.8946 57.9053C44.7499 57.9899 44.0958 58.235 44.0958 58.235L43.2271 58.2653C43.2271 58.2653 43.0632 58.2838 43.0253 58.0977C42.9874 57.9115 42.9577 57.6744 42.9577 57.6744C42.9577 57.6744 42.9552 57.554 43.1397 57.5598C43.3242 57.5656 43.8721 57.5622 43.8721 57.5622C43.8721 57.5622 44.8399 57.172 44.9643 57.1499Z" fill="#12090A"/>
<path d="M20.8861 44.7696L18.9769 45.0746L18.7058 46.5111L20.6377 47.3786L21.5038 44.9427L20.8861 44.7696Z" fill="#1A1A1A"/>
<path d="M22.3225 45.0971L21.4898 47.9233L30.3739 51.5979C30.3739 51.5979 28.9121 47.4715 28.3343 47.1582C27.7562 46.8449 22.3225 45.0971 22.3225 45.0971Z" fill="#1A1A1A"/>
<path d="M45.7084 56.1448C45.7084 56.1448 44.0895 55.1115 43.8245 55.0205C43.5599 54.9293 35.4619 51.6523 35.4619 51.6523L43.9291 54.8373L45.4065 55.7327L45.7084 56.1448Z" fill="#1E9D27"/>
<path d="M49.4767 53.0766C49.4767 53.0766 49.3147 53.0102 49.0975 52.647C49.0697 52.6004 48.8359 51.9237 48.2852 51.6156C45.994 50.3334 40.21 47.7507 40.21 47.7507C40.21 47.7507 46.7305 50.4689 48.3907 51.5146C48.6315 51.6661 49.1988 52.2537 49.1988 52.2537L49.4782 52.9416L49.4767 53.0766Z" fill="#00B300"/>
<path d="M50.3326 52.8996L49.7824 53.7268L49.6814 53.8275L49.6391 54.5645C49.6391 54.5645 49.9986 54.149 50.0281 54.0787C50.0579 54.0079 50.2364 53.4097 50.2557 53.3406C50.2745 53.2715 50.3326 52.8996 50.3326 52.8996Z" fill="#12090A"/>
<path d="M46.7556 56.6747C46.7556 56.6747 46.4693 56.8755 46.2576 56.9993C46.0458 57.1231 45.7005 57.2963 45.7005 57.2963L45.7315 57.4908C45.7315 57.4908 46.1648 57.2619 46.3847 57.1214C46.6046 56.9809 46.782 56.84 46.782 56.84L46.7556 56.6747Z" fill="#BAC5C7"/>
<path d="M32.5256 45.3148C32.5723 45.3553 32.6146 45.3965 32.6614 45.4374C32.3608 45.6618 32.03 45.8946 31.668 46.1365C31.5315 46.0099 31.3929 45.8924 31.0068 45.7058C30.9028 45.6546 30.7815 45.5975 30.6392 45.5362C29.4214 45.0063 22.8347 42.4913 21.6977 42.2406C21.4154 42.1777 20.9345 42.1984 20.3794 42.2591C20.3007 42.2676 20.2187 42.2807 20.136 42.2898C19.2072 42.4142 18.1235 42.6475 17.3891 42.8367L17.2464 42.8717L17.105 42.8382C17.0505 42.8229 15.7476 42.5106 14.7946 41.9344C14.3514 41.6647 13.7601 41.2469 13.27 40.8847C13.5699 40.6085 13.8837 40.3422 14.1919 40.089C14.6092 40.3945 15.0639 40.7103 15.4094 40.9196C16.043 41.3027 16.913 41.5603 17.2431 41.6477C17.49 41.5884 17.9605 41.477 18.5229 41.3632C18.6511 41.3387 18.7871 41.3129 18.9232 41.2871L18.9426 41.284C19.7905 41.1286 20.7618 40.9934 21.4719 41.0282C21.5683 41.0287 21.6616 41.0382 21.7473 41.0484C21.8206 41.0566 21.8909 41.0694 21.9533 41.0838C23.2151 41.3625 29.8196 43.8869 31.1149 44.4523C31.4331 44.5895 31.6681 44.708 31.8528 44.811C32.1696 44.9914 32.3417 45.1403 32.5256 45.3148Z" fill="black"/>
<path d="M34.4553 43.8855C34.4645 43.8921 34.4732 43.8985 34.4824 43.9051C34.2571 44.1252 33.9611 44.4008 33.5864 44.713C33.3323 44.5012 33.0549 44.2932 32.5641 44.0515C32.4555 43.9969 32.3428 43.9426 32.2137 43.8873C30.932 43.3314 24.3195 40.7848 23.1864 40.5331C23.0078 40.4938 22.744 40.4957 22.4248 40.5268C22.3023 40.5382 22.1729 40.5548 22.0396 40.5725C21.0762 40.7065 19.8211 41.0191 18.9423 41.2834L18.9228 41.2865C18.8694 41.3032 18.816 41.3194 18.7665 41.3355L18.6023 41.3857L18.5226 41.3622L18.4389 41.3394C18.4011 41.3296 17.4976 41.0856 16.5531 40.5116C16.1013 40.2397 15.4956 39.8078 14.9973 39.4429C15.3464 39.171 15.6827 38.9211 15.9874 38.7001C16.3943 38.9914 16.8311 39.2938 17.1638 39.497C17.7537 39.8554 18.3274 40.064 18.5933 40.1495C19.3881 39.9104 22.2422 39.1063 23.4418 39.375C23.5248 39.3938 23.6331 39.4204 23.7597 39.4603C23.7723 39.4623 23.7844 39.4645 23.7975 39.4701C25.663 40.0208 31.5264 42.291 32.6887 42.8017C33.0504 42.96 33.3385 43.1102 33.5766 43.2481C33.9629 43.4839 34.2203 43.6911 34.4553 43.8855Z" fill="black"/>
<path d="M24.5494 38.8627L23.8408 39.188C23.8408 39.188 23.3075 39.4333 22.6037 39.8903C22.5997 39.8909 22.5997 39.8909 22.5997 39.8909C22.2845 40.0973 21.939 40.3406 21.5925 40.6283C20.4554 41.5547 20.0824 42.0507 19.8517 42.5876C19.6214 43.125 19.4621 43.3304 19.4621 43.3304L15.1798 44.0145L14.462 44.0333C14.462 44.0333 14.9109 42.6566 16.358 41.3922C16.3613 41.3876 16.3686 41.3824 16.3721 41.3818C17.8204 40.1217 19.2704 39.3253 20.5642 39.1028C20.8017 39.0608 21.0849 39.0278 21.3923 38.9986C22.7572 38.8728 24.5494 38.8627 24.5494 38.8627Z" fill="#1A1A1A"/>
<path d="M22.3496 39.4262C22.3496 39.4262 21.1871 40.0325 18.6711 42.1576C18.3436 42.4342 17.8995 42.9379 17.3893 43.6615L15.1798 44.0145L14.462 44.0333C14.462 44.0333 14.9109 42.6566 16.358 41.3922C17.8096 40.1275 19.2669 39.3263 20.5642 39.1028C20.8017 39.0608 21.0849 39.0278 21.3923 38.9986L22.3496 39.4262Z" fill="#1E1E1E"/>
<path d="M24.5491 38.8628L23.8405 39.1881C23.8405 39.1881 23.3072 39.4333 22.6034 39.8903C22.5994 39.8909 22.5994 39.8909 22.5994 39.8909C21.3914 39.9718 18.1739 40.2818 16.3719 41.3823C17.8202 40.1222 19.2701 39.3258 20.564 39.1033C20.8015 39.0613 21.0847 39.0282 21.392 38.999C22.7569 38.8728 24.5491 38.8628 24.5491 38.8628Z" fill="#181B1C"/>
<path d="M20.2552 37.0657L19.9251 36.8928C19.7277 36.7896 19.4969 36.7686 19.2841 36.8351L17.4508 37.4084C15.4896 38.8087 13.6508 40.2763 12.0325 41.8082L11.2092 43.431C11.1528 43.5422 11.2128 43.6773 11.3333 43.7096L11.7779 43.8289C12.1242 43.9219 12.4912 43.7851 12.692 43.488L13.5187 42.2662C15.0821 40.787 16.8579 39.3692 18.7526 38.0166L20.2371 37.4222C20.3926 37.3598 20.4037 37.1433 20.2552 37.0657Z" fill="black" fill-opacity="0.53"/>
<path d="M12.916 41.5603L12.6458 41.4569C12.6536 41.8256 12.4479 42.1935 11.9783 42.2685C11.7816 42.2999 11.6124 42.2682 11.4745 42.1948C11.4717 42.1971 11.4683 42.1985 11.4655 42.2008C11.275 42.3555 11.2818 42.5421 11.4802 42.618L12.3596 42.9542C12.558 43.0301 12.8729 42.9662 13.0634 42.8114C13.1014 42.7805 13.126 42.7476 13.1485 42.7155L13.1511 42.7178C13.1555 42.7144 13.1564 42.7057 13.1602 42.7014C13.1646 42.6949 13.1681 42.6884 13.1715 42.6816C13.3148 42.466 13.1043 41.6324 12.916 41.5603Z" fill="#3B8353"/>
<path d="M19.3989 36.3755L19.1061 36.2635C19.1097 36.6283 18.9024 36.9897 18.4377 37.064C18.2556 37.0931 18.0992 37.0656 17.9677 37.0038C17.9617 37.0084 17.9545 37.0114 17.9489 37.0163C17.7584 37.1711 17.7652 37.3577 17.9636 37.4336L18.843 37.7697C19.0414 37.8456 19.3563 37.7818 19.5468 37.627C19.5765 37.6033 19.5924 37.5781 19.6123 37.5528L19.6205 37.5533C19.6281 37.5471 19.6312 37.5326 19.6376 37.5243C19.6452 37.5127 19.6521 37.5017 19.6574 37.4899C19.6687 37.4642 19.6774 37.4339 19.6826 37.3982C19.6828 37.3941 19.6845 37.3902 19.6843 37.3862C19.7272 37.066 19.5597 36.4366 19.3989 36.3755Z" fill="#3B8353"/>
<path d="M20.1891 36.383L19.8329 36.316C19.6356 36.2128 19.4048 36.1918 19.192 36.2583L17.3587 36.8316C15.3974 38.2319 13.5587 39.7 11.9404 41.2314L11.0871 42.7287C11.0037 43.0446 11.1211 43.1 11.2416 43.1323L11.6861 43.2516C12.0324 43.3446 12.3994 43.2078 12.6002 42.9107L13.4339 41.7321C14.9972 40.2529 16.773 38.8351 18.6677 37.4825L20.1453 36.8449C20.3005 36.783 20.3737 36.5819 20.1891 36.383Z" fill="#00871D"/>
<path d="M13.404 41.5474C14.9673 40.0682 16.7431 38.6504 18.6378 37.2978C18.1174 37.0544 17.8569 36.9328 17.336 36.6895C15.3748 38.0899 13.536 39.5575 11.9177 41.0894C12.5122 41.2725 12.8095 41.3643 13.404 41.5474Z" fill="#1E9D27"/>
<path d="M12.5773 42.7691L13.404 41.5473C12.8096 41.3642 12.5123 41.2724 11.9174 41.0894L11.0941 42.7122C11.0377 42.8234 11.0977 42.9585 11.2182 42.9908L11.6627 43.1101C12.0094 43.2026 12.376 43.0658 12.5773 42.7691Z" fill="#1E9D27"/>
<path d="M20.1219 36.7034L18.6374 37.2978C18.1169 37.0544 17.8565 36.9328 17.3356 36.6895L19.1689 36.1163C19.3817 36.0498 19.6124 36.0703 19.8099 36.174L20.14 36.3469C20.2885 36.4245 20.2774 36.641 20.1219 36.7034Z" fill="#1E9D27"/>
<g filter="url(#filter0_f_512_2214)">
<path d="M30.5557 29.3262L34.1291 56.7215L10.804 57.7684L30.5557 29.3262Z" fill="url(#paint23_linear_512_2214)"/>
</g>
<path d="M54.2487 23.3367L46.1118 18.0876L46.1154 44.8411L54.2523 50.0901L54.2487 23.3367Z" fill="#969696"/>
<path d="M48.3674 19.2092L36.7559 12.4607L42.6376 16.5882L54.2491 23.3367L48.3674 19.2092Z" fill="#9B9A9A"/>
<path d="M48.3494 13.3515L36.7378 6.60376L36.7548 12.4606L48.3664 19.2091L48.3494 13.3515Z" fill="#969696"/>
<path d="M47.4964 0.0298884C47.4156 -0.0169267 47.3028 -0.0105428 47.1779 0.0618078L6.74414 23.7622L18.3557 30.51L58.7895 6.80957C58.9144 6.73722 59.0271 6.73083 59.108 6.77765L57.1058 0.70932L47.4964 0.0298884Z" fill="url(#paint24_linear_512_2214)"/>
<path d="M37.1854 5.83057C36.9393 5.97314 36.7386 6.32071 36.7393 6.60372L48.3508 13.3515C48.3501 13.0685 48.5508 12.7209 48.797 12.5783L37.1854 5.83057Z" fill="#E0DFDC"/>
<path d="M58.7902 6.80954C59.0399 6.66555 59.2385 6.78258 59.2392 7.0656L59.281 47.1869L54.2527 50.0901L54.2491 23.3367L50.7763 20.8995L47.5303 18.797L48.3504 13.3516C48.3497 13.0686 48.5505 12.721 48.7966 12.5784L58.7902 6.80954Z" fill="#B3B3B3"/>
<path d="M23.6214 30.5967C23.6214 30.8847 23.4193 31.0017 23.1696 30.8577C22.9199 30.7137 22.7178 30.3633 22.7178 30.0753C22.7178 29.7873 22.9199 29.6703 23.1696 29.8143C23.4193 29.959 23.6214 30.3087 23.6214 30.5967Z" fill="#969696"/>
<path d="M48.5864 3.93098L44.012 6.57249L41.5159 5.13115C41.1939 4.94531 41.1939 4.64101 41.5159 4.45517L45.0491 2.41517C45.3002 2.27047 45.7109 2.27047 45.9612 2.41517L48.5864 3.93098Z" fill="#302E2D"/>
<path d="M54.4605 7.99833L50.9273 10.0383C50.6762 10.183 50.2655 10.183 50.0151 10.0383L44.5278 6.87051L49.103 4.229L54.4611 7.32235C54.7825 7.50819 54.7825 7.81249 54.4605 7.99833Z" fill="#434040"/>
<path opacity="0.5" d="M53.7766 7.25645L53.1886 7.17062C53.1368 7.16282 53.0865 7.15289 53.0382 7.13941C52.8822 7.09685 52.4956 6.98691 52.2736 6.8876C52.1339 6.82518 51.5749 6.73864 51.5494 6.7351C51.2139 6.69679 50.54 6.75354 50.4357 6.76276L49.0575 6.24779C48.9015 6.18963 48.6922 6.21517 48.5908 6.30596L47.4396 7.33447C47.3389 7.42456 47.3835 7.54585 47.5396 7.60401L50.3918 8.6687C50.5478 8.72687 50.7571 8.70133 50.8585 8.61054L51.2032 8.30269C51.2344 8.32326 51.2727 8.33958 51.3167 8.35022C51.3948 8.36937 51.4813 8.37008 51.56 8.35164C51.6217 8.33745 51.6728 8.31263 51.7083 8.28142C51.7508 8.31404 51.8154 8.36157 51.9111 8.38568C51.9891 8.40484 52.0757 8.40554 52.1544 8.3871C52.2161 8.37292 52.2672 8.34809 52.3027 8.31688C52.3126 8.30837 52.3211 8.29915 52.3282 8.28922L52.4367 8.14168C52.9354 8.16722 53.3851 8.19417 53.5865 8.20623C53.6447 8.20977 53.6986 8.19346 53.7284 8.16722C53.7405 8.15658 53.749 8.14381 53.7511 8.13033L53.9022 7.36214C53.9121 7.31319 53.8575 7.2678 53.7766 7.25645ZM50.8025 8.58855C50.7216 8.6609 50.5542 8.68147 50.4294 8.63466L47.5772 7.56997C47.4523 7.52315 47.4162 7.42669 47.497 7.35433L48.6482 6.32582C48.7291 6.25347 48.8965 6.2329 49.0214 6.27971L51.7728 7.30681C51.8835 7.34795 51.9289 7.43023 51.8827 7.50613C51.8444 7.56997 51.7345 7.63381 51.538 7.62317C51.538 7.62317 51.1181 7.61324 50.7103 7.60189C50.4882 7.5955 50.3478 7.68772 50.3293 7.7778C50.3038 7.89838 50.4542 8.01187 50.6712 8.03599C50.845 8.05585 51.0535 8.07075 51.3628 8.08706L50.8025 8.58855ZM51.5352 8.31475C51.4735 8.32894 51.4054 8.32894 51.3437 8.31333C51.3032 8.3034 51.2685 8.28709 51.2422 8.26652L51.438 8.09132C51.5366 8.09628 51.6473 8.10196 51.7671 8.10763L51.6714 8.23673C51.6459 8.2729 51.5969 8.30057 51.5352 8.31475ZM52.2658 8.2729C52.2395 8.30837 52.1906 8.33603 52.1289 8.35022C52.0672 8.36441 51.9991 8.36441 51.9374 8.3488C51.8097 8.31759 51.7501 8.23176 51.804 8.1587C51.804 8.15728 51.8381 8.11189 51.8381 8.11189C51.887 8.11402 51.9381 8.11685 51.9913 8.11898C52.1168 8.12466 52.2424 8.13104 52.3658 8.13742L52.2658 8.2729ZM53.8355 7.35717L53.6844 8.12536C53.6795 8.15161 53.6383 8.17005 53.5936 8.16722C53.3333 8.15161 52.6566 8.11118 51.997 8.07997C51.3061 8.04805 50.9521 8.02819 50.6833 7.9984C50.501 7.97782 50.374 7.88349 50.3953 7.78276C50.4003 7.75936 50.4145 7.73666 50.4379 7.71609C50.4882 7.67069 50.5804 7.63806 50.7067 7.64161C51.1131 7.65296 51.5331 7.66289 51.5331 7.66289C51.7664 7.67565 51.8991 7.59692 51.9459 7.5196C52.0019 7.42668 51.9452 7.32525 51.809 7.27489L50.5216 6.79468C50.7315 6.77837 51.2614 6.74148 51.5338 6.77269C51.5395 6.7734 52.1033 6.86065 52.2317 6.9181C52.4594 7.02024 52.851 7.13161 53.0092 7.17417C53.0609 7.18835 53.1156 7.1997 53.1716 7.20821L53.7596 7.29404C53.8086 7.30113 53.8412 7.32809 53.8355 7.35717ZM48.0113 5.82008C48.0319 5.81582 48.1106 5.90236 48.0758 5.90874C47.4424 6.03926 46.5834 6.5677 46.709 7.19687C46.7132 7.21815 46.5444 7.21956 46.5416 7.2068C46.4111 6.55351 47.3509 5.95627 48.0113 5.82008ZM48.168 6.09104C48.1893 6.08536 48.2737 6.16906 48.2411 6.17757C47.7361 6.30596 47.1835 6.64076 47.2247 7.16211C47.2261 7.18268 47.065 7.18693 47.0643 7.17346C47.0225 6.62941 47.6375 6.22652 48.168 6.09104ZM47.8765 5.60586C47.0565 5.78177 46.0706 6.50528 46.2018 7.2373C46.2061 7.25858 46.0266 7.26141 46.0238 7.24794C45.8926 6.5145 46.953 5.69949 47.8098 5.51578C47.8311 5.51152 47.9113 5.59806 47.8765 5.60586Z" fill="#4F4A4A"/>
<path d="M46.5673 4.01638L44.0819 3.83337C44.0358 3.82983 43.9967 3.85253 44.0031 3.87877L44.3202 5.31373C44.3273 5.34706 44.3989 5.36125 44.4401 5.33713L46.6085 4.08518C46.6496 4.06178 46.6255 4.02063 46.5673 4.01638Z" fill="#91C416"/>
<path d="M5.0315 43.9074L16.6431 37.1589V67.3858L10.2841 70.5778L5.0315 43.9074Z" fill="#969696"/>
<path d="M10.9133 39.78L22.5249 33.0315L16.6432 37.159L5.03164 43.9075L10.9133 39.78Z" fill="#9B9A9A"/>
<path d="M10.9313 33.9223L49.6582 12.0586L49.6412 17.9154L10.9143 39.7799L10.9313 33.9223Z" fill="#B3B3B3"/>
<path d="M11.7838 20.6007C11.8647 20.5539 11.9774 20.5603 12.1023 20.6326L22.3491 26.5995L10.7376 33.3473L1.77885 32.6287L0.490693 27.3804C0.365853 27.308 0.253089 27.3016 0.172226 27.3484L11.7838 20.6007Z" fill="url(#paint25_linear_512_2214)"/>
<path d="M58.1696 6.38379C58.4157 6.52636 58.6164 6.87393 58.6157 7.15695L10.9295 33.9223C10.9302 33.6393 10.7295 33.2917 10.4833 33.1491L58.1696 6.38379Z" fill="#E0DFDC"/>
<path d="M0.49088 27.3801C0.2412 27.2361 0.0425933 27.3531 0.041884 27.6362L4.08561e-05 67.7574L1.77878 70.6607H10.4845L10.9143 39.779L10.9307 33.9222C10.9314 33.6391 10.7306 33.2916 10.4845 33.149L1.77878 32.6285L0.49088 27.3801Z" fill="#B3B3B3"/>
<path d="M10.6933 24.5018L15.2677 27.1433L17.7638 25.702C18.0859 25.5161 18.0859 25.2118 17.7638 25.026L14.2307 22.986C13.9796 22.8413 13.5689 22.8413 13.3185 22.986L10.6933 24.5018Z" fill="#302E2D"/>
<path d="M4.81982 28.5689L8.35296 30.6089C8.60405 30.7536 9.01476 30.7536 9.26515 30.6089L14.7524 27.4411L10.1773 24.7996L4.81913 27.8929C4.49781 28.0787 4.49779 28.383 4.81982 28.5689Z" fill="#434040"/>
<path opacity="0.5" d="M5.50363 27.827L6.09167 27.7412C6.14345 27.7334 6.19381 27.7234 6.24205 27.71C6.3981 27.6674 6.78466 27.5575 7.00667 27.4582C7.14641 27.3957 7.70537 27.3092 7.73091 27.3057C8.06642 27.2674 8.74026 27.3241 8.84453 27.3333L10.2228 26.8184C10.3788 26.7602 10.588 26.7857 10.6895 26.8765L11.8407 27.905C11.9414 27.9951 11.8967 28.1164 11.7407 28.1746L8.88851 29.2393C8.73246 29.2974 8.52322 29.2719 8.42179 29.1811L8.07704 28.8733C8.04583 28.8938 8.00752 28.9101 7.96355 28.9208C7.88552 28.9399 7.79899 28.9406 7.72026 28.9222C7.65855 28.908 7.60749 28.8832 7.57202 28.852C7.52946 28.8846 7.46491 28.9321 7.36915 28.9562C7.29112 28.9754 7.20457 28.9761 7.12584 28.9577C7.06413 28.9435 7.01307 28.9186 6.9776 28.8874C6.96767 28.8789 6.95915 28.8697 6.95206 28.8598L6.84355 28.7122C6.34489 28.7378 5.89518 28.7647 5.69374 28.7768C5.63557 28.7803 5.58165 28.764 5.55186 28.7378C5.5398 28.7271 5.53131 28.7144 5.52918 28.7009L5.37808 27.9327C5.36815 27.8837 5.42277 27.8384 5.50363 27.827ZM8.47781 29.1591C8.55867 29.2315 8.72607 29.252 8.85091 29.2052L11.7031 28.1405C11.8279 28.0937 11.8641 27.9972 11.7832 27.9249L10.632 26.8964C10.5512 26.824 10.3838 26.8035 10.2589 26.8503L7.50747 27.8774C7.39682 27.9185 7.35142 28.0008 7.39753 28.0767C7.43583 28.1405 7.54577 28.2044 7.74225 28.1937C7.74225 28.1937 8.16216 28.1838 8.57002 28.1724C8.79204 28.1661 8.9325 28.2583 8.95094 28.3484C8.97648 28.4689 8.82608 28.5824 8.60903 28.6065C8.43525 28.6264 8.22672 28.6413 7.91746 28.6576L8.47781 29.1591ZM7.74509 28.8853C7.8068 28.8995 7.87489 28.8995 7.9366 28.8839C7.97703 28.874 8.01179 28.8576 8.03803 28.8371L7.84226 28.6619C7.74366 28.6668 7.63302 28.6725 7.51314 28.6782L7.60889 28.8073C7.63442 28.8435 7.68338 28.8711 7.74509 28.8853ZM7.01449 28.8435C7.04073 28.8789 7.08967 28.9066 7.15138 28.9208C7.21309 28.935 7.28118 28.935 7.34289 28.9194C7.47057 28.8881 7.53017 28.8023 7.47626 28.7293C7.47626 28.7278 7.44221 28.6824 7.44221 28.6824C7.39326 28.6846 7.34219 28.6874 7.28899 28.6895C7.16344 28.6952 7.0379 28.7016 6.91448 28.708L7.01449 28.8435ZM5.44476 27.9277L5.59585 28.6959C5.60081 28.7222 5.64195 28.7406 5.68664 28.7378C5.94696 28.7222 6.62365 28.6817 7.28332 28.6505C7.9742 28.6186 8.32814 28.5987 8.59697 28.569C8.77927 28.5484 8.90624 28.454 8.88496 28.3533C8.88 28.3299 8.86581 28.3072 8.8424 28.2866C8.79204 28.2412 8.69983 28.2086 8.57357 28.2122C8.16713 28.2235 7.74721 28.2334 7.74721 28.2334C7.51384 28.2462 7.3812 28.1675 7.33438 28.0902C7.27835 27.9972 7.33509 27.8958 7.47128 27.8454L8.7587 27.3652C8.54874 27.3489 8.01887 27.312 7.74649 27.3432C7.74082 27.344 7.17693 27.4312 7.04854 27.4887C6.82085 27.5908 6.4293 27.7022 6.27112 27.7447C6.21934 27.7589 6.16472 27.7703 6.10868 27.7788L5.52065 27.8646C5.47171 27.8717 5.43908 27.8986 5.44476 27.9277ZM11.269 26.3906C11.2484 26.3864 11.1697 26.4729 11.2044 26.4793C11.8379 26.6098 12.6968 27.1383 12.5713 27.7674C12.567 27.7887 12.7359 27.7901 12.7387 27.7774C12.8692 27.1241 11.9294 26.5268 11.269 26.3906ZM11.1122 26.6616C11.091 26.6559 11.0065 26.7396 11.0392 26.7481C11.5442 26.8765 12.0968 27.2113 12.0556 27.7327C12.0542 27.7532 12.2152 27.7575 12.2159 27.744C12.2578 27.2 11.6428 26.7971 11.1122 26.6616ZM11.4038 26.1764C12.2237 26.3523 13.2097 27.0758 13.0785 27.8079C13.0742 27.8291 13.2537 27.832 13.2565 27.8185C13.3877 27.0851 12.3273 26.27 11.4704 26.0863C11.4491 26.0821 11.369 26.1686 11.4038 26.1764Z" fill="#4F4A4A"/>
<path d="M12.7125 24.5869L15.1979 24.4039C15.244 24.4004 15.283 24.4231 15.2767 24.4493L14.9596 25.8843C14.9525 25.9176 14.8809 25.9318 14.8397 25.9077L12.6713 24.6557C12.6302 24.6323 12.6543 24.5912 12.7125 24.5869Z" fill="#91C416"/>
<path d="M1.77867 70.5771V32.6285L0.00537109 27.3086V67.7398L1.77867 70.5771Z" fill="#686868"/>
<path d="M49.0651 39.5783C48.7897 40.0012 48.7806 40.7662 49.0445 41.2858C49.3084 41.8054 49.7462 41.8843 50.0217 41.4614C50.2972 41.0385 50.3062 40.2735 50.0423 39.7538C49.7781 39.2328 49.3406 39.1554 49.0651 39.5783Z" fill="#282626"/>
<path d="M48.6285 40.006C48.3022 40.5667 48.5981 41.5114 49.4908 41.5271L49.6102 41.5247C49.7573 41.5215 49.9015 41.4232 50.0112 41.2295C50.233 40.8364 50.2239 40.1987 49.991 39.8054C49.8724 39.6055 49.7182 39.5075 49.5668 39.5102L49.4473 39.5126C49.0968 39.5259 48.8074 39.7005 48.6285 40.006Z" fill="url(#paint26_radial_512_2214)"/>
<path d="M47.2319 38.7302C46.4853 39.8765 46.8094 41.4113 47.9557 42.1579C49.1019 42.9045 50.6368 42.5805 51.3834 41.4342C52.13 40.2879 51.8059 38.753 50.6596 38.0064C49.5138 37.259 47.979 37.5831 47.2319 38.7302Z" fill="url(#paint27_radial_512_2214)"/>
<g filter="url(#filter1_f_512_2214)">
<path d="M30.5059 28.0181L32.6338 59.5828L49.6575 40.7858L30.5059 28.0181Z" fill="url(#paint28_linear_512_2214)"/>
</g>
<defs>
<filter id="filter0_f_512_2214" x="6.8042" y="25.3262" width="31.3247" height="36.4421" filterUnits="userSpaceOnUse" color-interpolation-filters="sRGB">
<feFlood flood-opacity="0" result="BackgroundImageFix"/>
<feBlend mode="normal" in="SourceGraphic" in2="BackgroundImageFix" result="shape"/>
<feGaussianBlur stdDeviation="2" result="effect1_foregroundBlur_512_2214"/>
</filter>
<filter id="filter1_f_512_2214" x="26.5059" y="24.0181" width="27.1519" height="39.5647" filterUnits="userSpaceOnUse" color-interpolation-filters="sRGB">
<feFlood flood-opacity="0" result="BackgroundImageFix"/>
<feBlend mode="normal" in="SourceGraphic" in2="BackgroundImageFix" result="shape"/>
<feGaussianBlur stdDeviation="2" result="effect1_foregroundBlur_512_2214"/>
</filter>
<linearGradient id="paint0_linear_512_2214" x1="37.6005" y1="56.3826" x2="41.4546" y2="61.1291" gradientUnits="userSpaceOnUse">
<stop stop-color="#2C2C2C"/>
<stop offset="0.1276" stop-color="#333333"/>
<stop offset="0.3148" stop-color="#3E3E3E"/>
<stop offset="0.4352" stop-color="#393939"/>
<stop offset="0.5722" stop-color="#2C2C2C"/>
<stop offset="0.5915" stop-color="#292929"/>
<stop offset="0.7608" stop-color="#212121"/>
<stop offset="1" stop-color="#0D0D0D"/>
</linearGradient>
<linearGradient id="paint1_linear_512_2214" x1="38.4495" y1="62.4071" x2="39.9887" y2="58.3814" gradientUnits="userSpaceOnUse">
<stop stop-color="#0D0D0D"/>
<stop offset="0.3951" stop-color="#0F0F0F"/>
<stop offset="0.5826" stop-color="#171717"/>
<stop offset="0.726" stop-color="#242424"/>
<stop offset="0.7682" stop-color="#292929"/>
<stop offset="0.8477" stop-color="#2E2E2E"/>
<stop offset="1" stop-color="#333333"/>
</linearGradient>
<linearGradient id="paint2_linear_512_2214" x1="38.3505" y1="62.1973" x2="39.7303" y2="58.5885" gradientUnits="userSpaceOnUse">
<stop offset="0.2448" stop-color="#0D0D0D"/>
<stop offset="0.6024" stop-color="#0F0F0F"/>
<stop offset="0.7721" stop-color="#171717"/>
<stop offset="0.9019" stop-color="#242424"/>
<stop offset="0.9401" stop-color="#292929"/>
</linearGradient>
<linearGradient id="paint3_linear_512_2214" x1="39.2882" y1="62.1147" x2="36.1888" y2="58.2977" gradientUnits="userSpaceOnUse">
<stop offset="0.1458" stop-color="#686868"/>
<stop offset="0.1673" stop-color="#6E6E6E"/>
<stop offset="0.1956" stop-color="#7F7F7F"/>
<stop offset="0.2277" stop-color="#9A9A9A"/>
<stop offset="0.2624" stop-color="#C0C0C0"/>
<stop offset="0.2839" stop-color="#DBDBDB"/>
<stop offset="0.3123" stop-color="#D2D2D2"/>
<stop offset="0.3596" stop-color="#B8B9B9"/>
<stop offset="0.4197" stop-color="#8F9191"/>
<stop offset="0.4349" stop-color="#838686"/>
<stop offset="0.4995" stop-color="#7E8181"/>
<stop offset="0.5731" stop-color="#717474"/>
<stop offset="0.6512" stop-color="#5B5D5D"/>
<stop offset="0.7319" stop-color="#3D3D3D"/>
<stop offset="0.7474" stop-color="#363636"/>
</linearGradient>
<linearGradient id="paint4_linear_512_2214" x1="36.738" y1="58.2821" x2="36.7411" y2="58.286" gradientUnits="userSpaceOnUse">
<stop stop-color="#C8C9C9"/>
<stop offset="0.3629" stop-color="#BABBBB"/>
<stop offset="0.3696" stop-color="#B5B6B6"/>
<stop offset="0.4183" stop-color="#939394"/>
<stop offset="0.4722" stop-color="#767676"/>
<stop offset="0.5315" stop-color="#5F5E5F"/>
<stop offset="0.5987" stop-color="#4D4C4C"/>
<stop offset="0.6782" stop-color="#403F40"/>
<stop offset="0.7818" stop-color="#393738"/>
<stop offset="1" stop-color="#373536"/>
</linearGradient>
<linearGradient id="paint5_linear_512_2214" x1="37.8819" y1="59.2025" x2="36.9895" y2="58.2257" gradientUnits="userSpaceOnUse">
<stop stop-color="#C8C9C9"/>
<stop offset="0.3629" stop-color="#BABBBB"/>
<stop offset="0.3696" stop-color="#B5B6B6"/>
<stop offset="0.4183" stop-color="#939394"/>
<stop offset="0.4722" stop-color="#767676"/>
<stop offset="0.5315" stop-color="#5F5E5F"/>
<stop offset="0.5987" stop-color="#4D4C4C"/>
<stop offset="0.6782" stop-color="#403F40"/>
<stop offset="0.7818" stop-color="#393738"/>
<stop offset="1" stop-color="#373536"/>
</linearGradient>
<linearGradient id="paint6_linear_512_2214" x1="39.0422" y1="59.4839" x2="38.3548" y2="59.0164" gradientUnits="userSpaceOnUse">
<stop offset="0.1458" stop-color="#686868"/>
<stop offset="0.1673" stop-color="#6E6E6E"/>
<stop offset="0.1956" stop-color="#7F7F7F"/>
<stop offset="0.2277" stop-color="#9A9A9A"/>
<stop offset="0.2624" stop-color="#C0C0C0"/>
<stop offset="0.2839" stop-color="#DBDBDB"/>
<stop offset="0.3123" stop-color="#D2D2D2"/>
<stop offset="0.3596" stop-color="#B8B9B9"/>
<stop offset="0.4197" stop-color="#8F9191"/>
<stop offset="0.4349" stop-color="#838686"/>
<stop offset="0.4995" stop-color="#7E8181"/>
<stop offset="0.5731" stop-color="#717474"/>
<stop offset="0.6512" stop-color="#5B5D5D"/>
<stop offset="0.7319" stop-color="#3D3D3D"/>
<stop offset="0.7474" stop-color="#363636"/>
<stop offset="0.9119" stop-color="#363636"/>
</linearGradient>
<linearGradient id="paint7_linear_512_2214" x1="37.4464" y1="60.0486" x2="36.7586" y2="59.3573" gradientUnits="userSpaceOnUse">
<stop stop-color="#C8C9C9"/>
<stop offset="0.3629" stop-color="#BABBBB"/>
<stop offset="0.3696" stop-color="#B5B6B6"/>
<stop offset="0.4183" stop-color="#939394"/>
<stop offset="0.4722" stop-color="#767676"/>
<stop offset="0.5315" stop-color="#5F5E5F"/>
<stop offset="0.5987" stop-color="#4D4C4C"/>
<stop offset="0.6782" stop-color="#403F40"/>
<stop offset="0.7818" stop-color="#393738"/>
<stop offset="1" stop-color="#373536"/>
</linearGradient>
<linearGradient id="paint8_linear_512_2214" x1="38.9968" y1="60.6487" x2="39.4181" y2="60.0041" gradientUnits="userSpaceOnUse">
<stop stop-color="#C8C9C9"/>
<stop offset="0.3629" stop-color="#BABBBB"/>
<stop offset="0.3696" stop-color="#B5B6B6"/>
<stop offset="0.4183" stop-color="#939394"/>
<stop offset="0.4722" stop-color="#767676"/>
<stop offset="0.5315" stop-color="#5F5E5F"/>
<stop offset="0.5987" stop-color="#4D4C4C"/>
<stop offset="0.6782" stop-color="#403F40"/>
<stop offset="0.7818" stop-color="#393738"/>
<stop offset="1" stop-color="#373536"/>
</linearGradient>
<linearGradient id="paint9_linear_512_2214" x1="37.8588" y1="61.0802" x2="39.5784" y2="60.9292" gradientUnits="userSpaceOnUse">
<stop stop-color="#C8C9C9"/>
<stop offset="0.3629" stop-color="#BABBBB"/>
<stop offset="0.3696" stop-color="#B5B6B6"/>
<stop offset="0.4183" stop-color="#939394"/>
<stop offset="0.4722" stop-color="#767676"/>
<stop offset="0.5315" stop-color="#5F5E5F"/>
<stop offset="0.5987" stop-color="#4D4C4C"/>
<stop offset="0.6782" stop-color="#403F40"/>
<stop offset="0.7818" stop-color="#393738"/>
<stop offset="1" stop-color="#373536"/>
</linearGradient>
<linearGradient id="paint10_linear_512_2214" x1="37.1223" y1="59.9465" x2="37.4379" y2="60.3351" gradientUnits="userSpaceOnUse">
<stop stop-color="#C8C9C9"/>
<stop offset="0.3629" stop-color="#BABBBB"/>
<stop offset="0.3696" stop-color="#B5B6B6"/>
<stop offset="0.4183" stop-color="#939394"/>
<stop offset="0.4722" stop-color="#767676"/>
<stop offset="0.5315" stop-color="#5F5E5F"/>
<stop offset="0.5987" stop-color="#4D4C4C"/>
<stop offset="0.6782" stop-color="#403F40"/>
<stop offset="0.7818" stop-color="#393738"/>
<stop offset="1" stop-color="#373536"/>
</linearGradient>
<linearGradient id="paint11_linear_512_2214" x1="38.0052" y1="60.7978" x2="38.5357" y2="61.4511" gradientUnits="userSpaceOnUse">
<stop stop-color="#C8C9C9"/>
<stop offset="0.3629" stop-color="#BABBBB"/>
<stop offset="0.3696" stop-color="#B5B6B6"/>
<stop offset="0.4183" stop-color="#939394"/>
<stop offset="0.4722" stop-color="#767676"/>
<stop offset="0.5315" stop-color="#5F5E5F"/>
<stop offset="0.5987" stop-color="#4D4C4C"/>
<stop offset="0.6782" stop-color="#403F40"/>
<stop offset="0.7818" stop-color="#393738"/>
<stop offset="1" stop-color="#373536"/>
</linearGradient>
<linearGradient id="paint12_linear_512_2214" x1="17.1534" y1="48.2945" x2="21.0075" y2="53.041" gradientUnits="userSpaceOnUse">
<stop stop-color="#2C2C2C"/>
<stop offset="0.1276" stop-color="#333333"/>
<stop offset="0.3148" stop-color="#3E3E3E"/>
<stop offset="0.4352" stop-color="#393939"/>
<stop offset="0.5722" stop-color="#2C2C2C"/>
<stop offset="0.5915" stop-color="#292929"/>
<stop offset="0.7608" stop-color="#212121"/>
<stop offset="1" stop-color="#0D0D0D"/>
</linearGradient>
<linearGradient id="paint13_linear_512_2214" x1="18.0025" y1="54.319" x2="19.5417" y2="50.2932" gradientUnits="userSpaceOnUse">
<stop stop-color="#0D0D0D"/>
<stop offset="0.3951" stop-color="#0F0F0F"/>
<stop offset="0.5826" stop-color="#171717"/>
<stop offset="0.726" stop-color="#242424"/>
<stop offset="0.7682" stop-color="#292929"/>
<stop offset="0.8477" stop-color="#2E2E2E"/>
<stop offset="1" stop-color="#333333"/>
</linearGradient>
<linearGradient id="paint14_linear_512_2214" x1="17.9033" y1="54.1092" x2="19.2832" y2="50.5004" gradientUnits="userSpaceOnUse">
<stop offset="0.2448" stop-color="#0D0D0D"/>
<stop offset="0.6024" stop-color="#0F0F0F"/>
<stop offset="0.7721" stop-color="#171717"/>
<stop offset="0.9019" stop-color="#242424"/>
<stop offset="0.9401" stop-color="#292929"/>
</linearGradient>
<linearGradient id="paint15_linear_512_2214" x1="18.841" y1="54.0265" x2="15.7416" y2="50.2095" gradientUnits="userSpaceOnUse">
<stop offset="0.1458" stop-color="#686868"/>
<stop offset="0.1673" stop-color="#6E6E6E"/>
<stop offset="0.1956" stop-color="#7F7F7F"/>
<stop offset="0.2277" stop-color="#9A9A9A"/>
<stop offset="0.2624" stop-color="#C0C0C0"/>
<stop offset="0.2839" stop-color="#DBDBDB"/>
<stop offset="0.3123" stop-color="#D2D2D2"/>
<stop offset="0.3596" stop-color="#B8B9B9"/>
<stop offset="0.4197" stop-color="#8F9191"/>
<stop offset="0.4349" stop-color="#838686"/>
<stop offset="0.4995" stop-color="#7E8181"/>
<stop offset="0.5731" stop-color="#717474"/>
<stop offset="0.6512" stop-color="#5B5D5D"/>
<stop offset="0.7319" stop-color="#3D3D3D"/>
<stop offset="0.7474" stop-color="#363636"/>
</linearGradient>
<linearGradient id="paint16_linear_512_2214" x1="17.4346" y1="51.1146" x2="16.5422" y2="50.1379" gradientUnits="userSpaceOnUse">
<stop stop-color="#C8C9C9"/>
<stop offset="0.3629" stop-color="#BABBBB"/>
<stop offset="0.3696" stop-color="#B5B6B6"/>
<stop offset="0.4183" stop-color="#939394"/>
<stop offset="0.4722" stop-color="#767676"/>
<stop offset="0.5315" stop-color="#5F5E5F"/>
<stop offset="0.5987" stop-color="#4D4C4C"/>
<stop offset="0.6782" stop-color="#403F40"/>
<stop offset="0.7818" stop-color="#393738"/>
<stop offset="1" stop-color="#373536"/>
</linearGradient>
<linearGradient id="paint17_linear_512_2214" x1="18.5952" y1="51.3959" x2="17.9078" y2="50.9284" gradientUnits="userSpaceOnUse">
<stop offset="0.1458" stop-color="#686868"/>
<stop offset="0.1673" stop-color="#6E6E6E"/>
<stop offset="0.1956" stop-color="#7F7F7F"/>
<stop offset="0.2277" stop-color="#9A9A9A"/>
<stop offset="0.2624" stop-color="#C0C0C0"/>
<stop offset="0.2839" stop-color="#DBDBDB"/>
<stop offset="0.3123" stop-color="#D2D2D2"/>
<stop offset="0.3596" stop-color="#B8B9B9"/>
<stop offset="0.4197" stop-color="#8F9191"/>
<stop offset="0.4349" stop-color="#838686"/>
<stop offset="0.4995" stop-color="#7E8181"/>
<stop offset="0.5731" stop-color="#717474"/>
<stop offset="0.6512" stop-color="#5B5D5D"/>
<stop offset="0.7319" stop-color="#3D3D3D"/>
<stop offset="0.7474" stop-color="#363636"/>
<stop offset="0.9119" stop-color="#363636"/>
</linearGradient>
<linearGradient id="paint18_linear_512_2214" x1="16.9988" y1="51.9604" x2="16.311" y2="51.269" gradientUnits="userSpaceOnUse">
<stop stop-color="#C8C9C9"/>
<stop offset="0.3629" stop-color="#BABBBB"/>
<stop offset="0.3696" stop-color="#B5B6B6"/>
<stop offset="0.4183" stop-color="#939394"/>
<stop offset="0.4722" stop-color="#767676"/>
<stop offset="0.5315" stop-color="#5F5E5F"/>
<stop offset="0.5987" stop-color="#4D4C4C"/>
<stop offset="0.6782" stop-color="#403F40"/>
<stop offset="0.7818" stop-color="#393738"/>
<stop offset="1" stop-color="#373536"/>
</linearGradient>
<linearGradient id="paint19_linear_512_2214" x1="18.5496" y1="52.5607" x2="18.9709" y2="51.9161" gradientUnits="userSpaceOnUse">
<stop stop-color="#C8C9C9"/>
<stop offset="0.3629" stop-color="#BABBBB"/>
<stop offset="0.3696" stop-color="#B5B6B6"/>
<stop offset="0.4183" stop-color="#939394"/>
<stop offset="0.4722" stop-color="#767676"/>
<stop offset="0.5315" stop-color="#5F5E5F"/>
<stop offset="0.5987" stop-color="#4D4C4C"/>
<stop offset="0.6782" stop-color="#403F40"/>
<stop offset="0.7818" stop-color="#393738"/>
<stop offset="1" stop-color="#373536"/>
</linearGradient>
<linearGradient id="paint20_linear_512_2214" x1="17.4116" y1="52.9922" x2="19.1313" y2="52.8412" gradientUnits="userSpaceOnUse">
<stop stop-color="#C8C9C9"/>
<stop offset="0.3629" stop-color="#BABBBB"/>
<stop offset="0.3696" stop-color="#B5B6B6"/>
<stop offset="0.4183" stop-color="#939394"/>
<stop offset="0.4722" stop-color="#767676"/>
<stop offset="0.5315" stop-color="#5F5E5F"/>
<stop offset="0.5987" stop-color="#4D4C4C"/>
<stop offset="0.6782" stop-color="#403F40"/>
<stop offset="0.7818" stop-color="#393738"/>
<stop offset="1" stop-color="#373536"/>
</linearGradient>
<linearGradient id="paint21_linear_512_2214" x1="16.6751" y1="51.8583" x2="16.9907" y2="52.2469" gradientUnits="userSpaceOnUse">
<stop stop-color="#C8C9C9"/>
<stop offset="0.3629" stop-color="#BABBBB"/>
<stop offset="0.3696" stop-color="#B5B6B6"/>
<stop offset="0.4183" stop-color="#939394"/>
<stop offset="0.4722" stop-color="#767676"/>
<stop offset="0.5315" stop-color="#5F5E5F"/>
<stop offset="0.5987" stop-color="#4D4C4C"/>
<stop offset="0.6782" stop-color="#403F40"/>
<stop offset="0.7818" stop-color="#393738"/>
<stop offset="1" stop-color="#373536"/>
</linearGradient>
<linearGradient id="paint22_linear_512_2214" x1="17.5581" y1="52.7096" x2="18.0886" y2="53.3629" gradientUnits="userSpaceOnUse">
<stop stop-color="#C8C9C9"/>
<stop offset="0.3629" stop-color="#BABBBB"/>
<stop offset="0.3696" stop-color="#B5B6B6"/>
<stop offset="0.4183" stop-color="#939394"/>
<stop offset="0.4722" stop-color="#767676"/>
<stop offset="0.5315" stop-color="#5F5E5F"/>
<stop offset="0.5987" stop-color="#4D4C4C"/>
<stop offset="0.6782" stop-color="#403F40"/>
<stop offset="0.7818" stop-color="#393738"/>
<stop offset="1" stop-color="#373536"/>
</linearGradient>
<linearGradient id="paint23_linear_512_2214" x1="27.3298" y1="44.4929" x2="11.4257" y2="57.3396" gradientUnits="userSpaceOnUse">
<stop stop-color="#4F6331" stop-opacity="0"/>
<stop offset="1" stop-color="#A0C963" stop-opacity="0.5"/>
</linearGradient>
<linearGradient id="paint24_linear_512_2214" x1="37.1698" y1="6.28921" x2="59.0932" y2="6.28921" gradientUnits="userSpaceOnUse">
<stop stop-color="#E8E7E3"/>
<stop offset="1" stop-color="#EDECE8"/>
</linearGradient>
<linearGradient id="paint25_linear_512_2214" x1="22.0959" y1="26.86" x2="0.172518" y2="26.86" gradientUnits="userSpaceOnUse">
<stop stop-color="#E8E7E3"/>
<stop offset="1" stop-color="#EDECE8"/>
</linearGradient>
<radialGradient id="paint26_radial_512_2214" cx="0" cy="0" r="1" gradientUnits="userSpaceOnUse" gradientTransform="translate(49.2505 39.4441) rotate(-146.923) scale(2.1156 2.11561)">
<stop stop-color="#BCE868"/>
<stop offset="0.3617" stop-color="#A9D05B"/>
<stop offset="0.7247" stop-color="#9BC051"/>
<stop offset="1" stop-color="#96BA4E"/>
</radialGradient>
<radialGradient id="paint27_radial_512_2214" cx="0" cy="0" r="1" gradientUnits="userSpaceOnUse" gradientTransform="translate(49.3079 40.082) rotate(-144.438) scale(3.05869)">
<stop stop-color="#BEFF3D"/>
<stop offset="0.0463" stop-color="#9CD232"/>
<stop offset="0.0986" stop-color="#7CA628" stop-opacity="0.7"/>
<stop offset="0.1565" stop-color="#5E7E1E" stop-opacity="0.5"/>
<stop offset="0.2188" stop-color="#455C16" stop-opacity="0.4"/>
<stop offset="0.2867" stop-color="#2F3F0F" stop-opacity="0.3"/>
<stop offset="0.362" stop-color="#1E280A" stop-opacity="0"/>
<stop offset="0.448" stop-color="#101605" stop-opacity="0"/>
<stop offset="0.551" stop-color="#070902" stop-opacity="0"/>
<stop offset="0.6883" stop-color="#020200" stop-opacity="0"/>
<stop offset="1" stop-opacity="0"/>
</radialGradient>
<linearGradient id="paint28_linear_512_2214" x1="29.7965" y1="42.2045" x2="48.9482" y2="40.7858" gradientUnits="userSpaceOnUse">
<stop stop-color="#4F6331" stop-opacity="0"/>
<stop offset="1" stop-color="#A0C963" stop-opacity="0.5"/>
</linearGradient>
</defs>
</svg>
