<svg width="25" height="25" viewBox="0 0 25 25" fill="none" xmlns="http://www.w3.org/2000/svg">
<g id="svgexport-17 (37) 1" clip-path="url(#clip0_672_12570)">
<g id="Group">
<path id="Vector" d="M2.40803 9.41649L3.25319 8.2453C3.73068 7.58549 4.35764 7.04813 5.08275 6.67722C5.80785 6.30631 6.61048 6.11239 7.42495 6.11133H17.3153C18.1298 6.1124 18.9325 6.30637 19.6576 6.67734C20.3828 7.04832 21.0097 7.58577 21.4872 8.24567L22.3318 9.4163C22.8235 9.75488 23.2257 10.2079 23.5036 10.7363C23.7815 11.2646 23.9269 11.8526 23.9272 12.4497V15.2077C23.926 16.2498 23.5115 17.2488 22.7746 17.9856C22.0378 18.7224 21.0387 19.1369 19.9967 19.1381H18.8553C17.8094 19.1399 16.7796 18.8802 15.8595 18.3828C14.9394 17.8854 14.1581 17.1659 13.5868 16.2898L13.2555 15.7835C13.158 15.6419 13.0265 15.5269 12.8732 15.449C12.7199 15.3711 12.5495 15.3328 12.3776 15.3375C12.3726 15.3377 12.3676 15.3377 12.3626 15.3375C12.1908 15.3333 12.0206 15.3719 11.8674 15.4498C11.7142 15.5276 11.5826 15.6423 11.4847 15.7835L11.1534 16.2898C10.5821 17.1659 9.80084 17.8854 8.88073 18.3828C7.96063 18.8802 6.93082 19.1399 5.88486 19.1381H4.7435C3.70145 19.1369 2.70242 18.7224 1.96556 17.9856C1.2287 17.2488 0.814189 16.2498 0.812955 15.2077V12.4497C0.813306 11.8527 0.958657 11.2648 1.23651 10.7364C1.51436 10.2081 1.91639 9.75509 2.40803 9.41649ZM20.8827 8.68205C20.4744 8.11775 19.9383 7.65817 19.3182 7.34095C18.6981 7.02372 18.0118 6.85786 17.3153 6.85695H7.42476C6.72832 6.85785 6.04199 7.02366 5.42196 7.34082C4.80193 7.65798 4.26582 8.11747 3.85752 8.68167L3.74288 8.84049C3.99223 8.78795 4.24635 8.7614 4.50118 8.76127H20.2388C20.4935 8.76137 20.7475 8.78785 20.9968 8.84031L20.8827 8.68205ZM1.55858 15.2079C1.55952 16.0523 1.89537 16.8619 2.49246 17.459C3.08954 18.0561 3.8991 18.3919 4.7435 18.3928H5.88486C6.80695 18.3944 7.71481 18.1655 8.52595 17.727C9.3371 17.2885 10.0258 16.6543 10.5295 15.882L10.861 15.3755C11.0242 15.1331 11.2448 14.9347 11.5032 14.798C11.7615 14.6613 12.0497 14.5906 12.342 14.592L12.3701 14.5922C12.6669 14.5875 12.9601 14.6567 13.2235 14.7934C13.487 14.9301 13.7123 15.1301 13.8792 15.3755L14.2107 15.8818C14.7144 16.6541 15.4031 17.2884 16.2142 17.7269C17.0254 18.1654 17.9333 18.3942 18.8553 18.3927H19.9967C20.8411 18.3917 21.6506 18.0559 22.2477 17.4588C22.8448 16.8618 23.1806 16.0523 23.1816 15.2079V12.4497C23.1807 11.6695 22.8704 10.9215 22.3187 10.3698C21.767 9.81811 21.019 9.50778 20.2388 9.50689H4.50136C3.72113 9.50778 2.97311 9.81813 2.42141 10.3699C1.86972 10.9216 1.55942 11.6696 1.55858 12.4499V15.2079Z" fill="white"/>
<path id="Vector_2" d="M6.41503 11.9111C6.50487 11.8699 6.60739 11.866 6.70008 11.9003C6.79277 11.9346 6.86805 12.0043 6.90938 12.0941L7.62145 13.643L8.33352 12.0941C8.37591 12.0061 8.45117 11.9382 8.54311 11.9051C8.63505 11.872 8.73631 11.8763 8.8251 11.9171C8.91389 11.9579 8.98311 12.0319 9.01786 12.1233C9.05262 12.2146 9.05012 12.3159 9.01091 12.4054L7.96015 14.6911C7.93035 14.7559 7.88261 14.8108 7.82258 14.8492C7.76255 14.8877 7.69275 14.9081 7.62145 14.9081C7.55015 14.9081 7.48035 14.8877 7.42032 14.8492C7.36029 14.8108 7.31254 14.7559 7.28275 14.6911L6.2318 12.4056C6.19052 12.3157 6.18662 12.2132 6.22095 12.1204C6.25527 12.0277 6.3252 11.9524 6.41503 11.9111ZM3.45883 12.9225C3.45912 12.6453 3.56935 12.3796 3.76532 12.1836C3.96129 11.9876 4.22702 11.8773 4.50419 11.877H5.27423C5.37311 11.877 5.46793 11.9162 5.53785 11.9861C5.60776 12.0561 5.64704 12.1509 5.64704 12.2498V14.5355C5.64704 14.6343 5.60776 14.7292 5.53785 14.7991C5.46793 14.869 5.37311 14.9083 5.27423 14.9083C5.17535 14.9083 5.08053 14.869 5.01061 14.7991C4.9407 14.7292 4.90142 14.6343 4.90142 14.5355V13.9679H4.64343L4.14461 14.7381C4.1184 14.7801 4.08411 14.8164 4.04372 14.8449C4.00333 14.8735 3.95766 14.8938 3.90937 14.9045C3.86108 14.9152 3.81113 14.9163 3.76244 14.9075C3.71375 14.8988 3.66729 14.8804 3.62577 14.8535C3.58424 14.8266 3.54849 14.7917 3.52058 14.7509C3.49267 14.71 3.47318 14.664 3.46323 14.6156C3.45328 14.5671 3.45307 14.5172 3.46262 14.4686C3.47217 14.4201 3.49128 14.3739 3.51885 14.3328L3.88625 13.7652C3.7538 13.6682 3.64607 13.5414 3.5718 13.395C3.49754 13.2485 3.45883 13.0867 3.45883 12.9225ZM4.50419 13.2222H4.90142V12.6226H4.50438C4.42485 12.6226 4.34859 12.6542 4.29236 12.7104C4.23613 12.7666 4.20454 12.8429 4.20454 12.9224C4.20454 13.0019 4.23613 13.0782 4.29236 13.1344C4.34859 13.1907 4.42467 13.2222 4.50419 13.2222Z" fill="white"/>
</g>
</g>
<defs>
<clipPath id="clip0_672_12570">
<rect width="23.8599" height="23.8599" fill="white" transform="matrix(-1 0 0 1 24.3 0.673828)"/>
</clipPath>
</defs>
</svg>
