<svg width="29" height="29" viewBox="0 0 29 29" fill="none" xmlns="http://www.w3.org/2000/svg">
<g id="vuesax/bulk/wifi-square">
<g id="wifi-square">
<path id="Vector" d="M9.34865 2.64258H19.0838C23.3291 2.64258 25.853 5.16651 25.853 9.40019V19.1353C25.853 23.369 23.3291 25.8929 19.0954 25.8929H9.36028C5.1266 25.8929 2.60268 23.369 2.60268 19.1353V9.40019C2.59105 5.16651 5.11497 2.64258 9.34865 2.64258Z" fill="#2DEC4C"/>
<g id="Group">
<g id="Group_2">
<path id="Vector_2" d="M7.24311 12.7759C7.4292 12.7759 7.6153 12.7178 7.77813 12.5898C11.6978 9.56576 16.7573 9.56576 20.6653 12.5898C21.0491 12.8806 21.5957 12.8108 21.8865 12.4386C22.1773 12.0548 22.1075 11.5081 21.7353 11.2174C17.176 7.69317 11.2791 7.69317 6.70808 11.2174C6.32426 11.5081 6.25448 12.0548 6.55688 12.4386C6.71972 12.6596 6.98722 12.7759 7.24311 12.7759Z" fill="white"/>
</g>
<g id="Group_3">
<path id="Vector_3" d="M9.10402 16.3678C9.29012 16.3678 9.47621 16.3096 9.63905 16.1817C12.4305 14.0299 16.0245 14.0299 18.8159 16.1817C19.1997 16.4724 19.7464 16.4027 20.0372 16.0305C20.3279 15.6583 20.2581 15.1 19.886 14.8092C16.4548 12.1573 12.0118 12.1573 8.58063 14.8092C8.19681 15.1 8.12702 15.6466 8.42942 16.0305C8.58062 16.2515 8.83651 16.3678 9.10402 16.3678Z" fill="white"/>
</g>
<g id="Group_4">
<path id="Vector_4" d="M11.6631 19.9635C11.8492 19.9635 12.0353 19.9054 12.1981 19.7774C13.431 18.8237 15.0244 18.8237 16.2573 19.7774C16.6411 20.0682 17.1878 19.9984 17.4786 19.6262C17.7693 19.2424 17.6995 18.6958 17.3274 18.405C15.478 16.9744 12.989 16.9744 11.1397 18.405C10.7558 18.6958 10.6861 19.2424 10.9885 19.6262C11.1397 19.8472 11.3956 19.9635 11.6631 19.9635Z" fill="white"/>
</g>
</g>
</g>
</g>
</svg>
