<svg width="10" height="14" viewBox="0 0 10 14" fill="none" xmlns="http://www.w3.org/2000/svg">
<path id="Vector 11" d="M2.22227 1.89439V4.7054C2.22227 5.18476 1.68534 5.4682 1.28954 5.19778C1.11084 5.0757 0.88003 5.06001 0.686458 5.15679L0.565086 5.21747C0.231457 5.38428 0.0507522 5.75375 0.123908 6.11951L1.00005 10.5L1.41267 12.1505C1.46915 12.3764 1.60268 12.5755 1.79024 12.7135L2.65192 13.3474C2.73535 13.4088 2.82781 13.4568 2.92599 13.4898L4.2895 13.9479C4.39215 13.9824 4.49971 14 4.608 14H6.26398C6.41922 14 6.57234 13.9639 6.71119 13.8944L8.25627 13.1219C8.41588 13.0421 8.55122 12.921 8.64827 12.7713L9.50567 11.4481C9.61062 11.2862 9.66646 11.0973 9.66646 10.9043V3.46151C9.66646 3.39464 9.65193 3.32856 9.62387 3.26786C9.54838 3.10455 9.38487 3 9.20496 3H8.58634C8.53053 3 8.47644 3.01928 8.43321 3.05458C8.27889 3.18061 8.0469 3.07666 8.03823 2.8776L8.0097 2.22194C8.00349 2.07919 7.944 1.94395 7.84297 1.84292L7.75791 1.75786C7.5928 1.59275 7.36887 1.5 7.13538 1.5H7.06876C7.02307 1.5 6.97749 1.50457 6.93271 1.51364L6.74151 1.55235C6.4157 1.61833 6.11116 1.36928 6.11116 1.03685C6.11116 0.766275 5.90587 0.539844 5.63659 0.513406L5.50005 0.5H4.8536C4.62722 0.5 4.41012 0.589928 4.25005 0.75C4.08998 0.910072 4.00005 1.12718 4.00005 1.35355V1.5L3.61576 1.28095C3.45139 1.18727 3.24381 1.22212 3.11905 1.36434C3.04341 1.45056 2.93429 1.5 2.81959 1.5H2.61666C2.54055 1.5 2.46606 1.52202 2.40219 1.56341C2.29 1.63611 2.22227 1.7607 2.22227 1.89439Z" fill="#27313A"/>
</svg>
