<svg width="33" height="33" viewBox="0 0 33 33" fill="none" xmlns="http://www.w3.org/2000/svg">
<g id="vuesax/bulk/wifi-square">
<g id="wifi-square">
<path id="Vector" d="M22.2484 3.26233H11.2357C6.43326 3.26233 3.57812 6.11747 3.57812 10.9067V21.9194C3.57812 26.7087 6.43326 29.5638 11.2225 29.5638H22.2352C27.0245 29.5638 29.8796 26.7087 29.8796 21.9194V10.9067C29.8928 6.11747 27.0376 3.26233 22.2484 3.26233Z" fill="#D3D7D4"/>
<g id="Group">
<g id="Group_2">
<path id="Vector_2" d="M24.6279 14.7224C24.4174 14.7224 24.2069 14.6567 24.0227 14.5119C19.5887 11.091 13.8652 11.091 9.44438 14.5119C9.01019 14.8409 8.3918 14.7619 8.06287 14.3409C7.73393 13.9067 7.81287 13.2883 8.23391 12.9594C13.3916 8.97269 20.0623 8.97269 25.2332 12.9594C25.6673 13.2883 25.7463 13.9067 25.4042 14.3409C25.22 14.5909 24.9174 14.7224 24.6279 14.7224Z" fill="white"/>
</g>
<g id="Group_3">
<path id="Vector_3" d="M22.5245 18.788C22.314 18.788 22.1035 18.7222 21.9193 18.5775C18.7615 16.1434 14.6959 16.1434 11.5381 18.5775C11.1039 18.9064 10.4855 18.8275 10.1566 18.4064C9.82768 17.9854 9.90662 17.3539 10.3277 17.0249C14.2091 14.0251 19.2352 14.0251 23.1166 17.0249C23.5508 17.3539 23.6297 17.9723 23.2876 18.4064C23.1166 18.6564 22.8271 18.788 22.5245 18.788Z" fill="white"/>
</g>
<g id="Group_4">
<path id="Vector_4" d="M19.6278 22.8537C19.4173 22.8537 19.2068 22.7879 19.0226 22.6432C17.6279 21.5643 15.8254 21.5643 14.4307 22.6432C13.9965 22.9721 13.3781 22.8931 13.0492 22.4721C12.7203 22.0379 12.7992 21.4195 13.2202 21.0906C15.3123 19.4722 18.1279 19.4722 20.2199 21.0906C20.6541 21.4195 20.7331 22.0379 20.391 22.4721C20.2199 22.7221 19.9305 22.8537 19.6278 22.8537Z" fill="white"/>
</g>
</g>
</g>
</g>
</svg>
