<svg width="153" height="53" viewBox="0 0 153 53" fill="none" xmlns="http://www.w3.org/2000/svg">
<g clip-path="url(#clip0_3203_192972)">
<path d="M34.5582 27.0918C34.5239 27.287 34.5061 27.5124 34.5042 27.7665C34.495 29.4755 34.4975 30.9391 34.5113 32.1557C34.5204 32.9798 34.5212 33.4136 34.6879 34.066C34.8019 34.514 35.0691 34.7531 35.542 34.7941C36.4114 34.8691 37.2509 34.7372 38.0615 34.3984C38.2125 34.3352 38.5088 34.2541 38.9487 34.1542C39.7677 33.9688 40.0435 34.8217 40.2796 35.478C40.5704 36.2845 40.862 37.0911 41.1541 37.8964C41.3705 38.4906 41.5269 39.0151 41.6058 39.5742C41.6917 40.1797 39.9998 40.8321 39.5521 41.0206C37.615 41.8376 35.5844 42.2079 33.4587 42.1315C30.6663 42.0308 28.3024 40.8833 26.9412 38.413C26.1021 36.8901 25.8278 35.0613 25.8278 33.3503C25.8278 31.4903 25.8226 29.6304 25.8113 27.7706C25.8093 27.5053 25.7869 27.2626 25.7427 27.041C25.7281 26.968 25.6623 26.9162 25.587 26.9182C25.1933 26.9318 24.8161 26.9658 24.4559 27.0212C22.8625 27.2655 21.2072 27.6639 19.7218 28.2921C17.0414 29.4252 14.9633 31.2595 13.488 33.7941C13.075 34.5039 12.6714 35.1898 12.3399 35.9597C11.6407 37.5825 10.9192 39.1963 10.1746 40.8003C9.85737 41.484 9.58181 41.9217 8.85751 42.0548C8.5442 42.1122 8.167 42.1417 7.72443 42.1437C6.16604 42.1503 4.60618 42.13 3.04705 42.1273C2.71203 42.1266 0.838369 42.1202 0.774228 41.7145C0.697752 41.2312 0.902757 40.7558 1.09419 40.3235C1.89621 38.508 2.75891 36.7127 3.53847 34.8894C4.91035 31.6796 6.49908 28.4658 8.92807 25.9131C9.6462 25.1581 10.4581 24.3535 11.2998 23.7018C13.2046 22.2273 15.2874 21.0497 17.5482 20.1699C19.1428 19.5495 20.2668 19.1355 21.8054 18.8598C23.0532 18.637 24.3309 18.5378 25.5653 18.2753C25.8266 18.2198 25.7876 17.8678 25.7903 17.6759C25.8108 16.384 25.797 15.0878 25.8656 13.7959C25.8991 13.1748 25.9156 12.5539 25.9164 11.9315C25.9164 11.7009 26.0022 11.2921 26.1367 11.1054C26.3873 10.7567 27.3694 10.7762 27.7585 10.7781C29.4382 10.7867 31.1187 10.7945 32.7992 10.8016C33.1638 10.8028 33.5248 10.8375 33.8827 10.9061C34.4822 11.0204 34.4578 11.6736 34.4617 12.1496C34.4755 13.8953 34.4861 15.641 34.4948 17.3867C34.4968 17.7098 34.5145 18.0344 34.5495 18.3605C34.5542 18.4035 34.5866 18.4389 34.6292 18.4475C35.4628 18.616 36.2865 18.7877 37.1031 19.0268C38.0522 19.3043 38.5732 19.9391 38.6674 20.9313C38.8093 22.4202 38.5737 23.8147 38.3344 25.2748C38.2579 25.7418 38.0238 26.9133 37.543 27.1341C37.3979 27.2 37.2395 27.2274 37.0688 27.2152C36.1185 27.1465 35.4278 27.0899 34.9966 27.0447C34.8468 27.0291 34.7175 27.0291 34.6075 27.0447C34.5791 27.0486 34.5626 27.0642 34.5579 27.0923L34.5582 27.0918Z" fill="white"/>
<path d="M113.113 16.5801C115.204 15.8161 117.142 14.9834 119.438 14.8136C122.629 14.5784 125.835 14.9319 128.18 17.3588C130.187 19.4349 130.569 22.2888 130.57 25.0303C130.572 29.8767 130.567 34.723 130.554 39.5694C130.552 40.2487 130.62 41.0447 130.405 41.6959C130.247 42.1739 129.372 42.1615 128.952 42.1634C127.194 42.1705 125.437 42.1712 123.679 42.1661C123.072 42.1649 122.096 42.2269 121.986 41.4954C121.927 41.0943 121.915 40.621 121.915 40.1454C121.915 35.412 121.915 30.6786 121.913 25.9445C121.913 25.6499 121.888 25.0112 121.837 24.0283C121.805 23.4197 121.623 22.4676 120.962 22.2319C119.805 21.8198 118.257 22.2018 117.173 22.6727C116.887 22.7968 116.273 23.0259 116.232 23.2963C116.191 23.5608 116.209 23.82 116.209 24.0603C116.21 29.1335 116.205 34.2064 116.194 39.2795C116.193 39.9588 116.199 40.6256 116.144 41.3041C116.075 42.1707 115.352 42.1539 114.688 42.1578C112.931 42.1676 111.174 42.1722 109.417 42.1715C108.838 42.1707 108.409 42.1383 108.13 42.0728C107.571 41.9421 107.508 41.1827 107.503 40.6385C107.449 35.2142 107.526 29.5932 107.489 24.3732C107.482 23.4021 107.24 22.1632 106.008 22.0724C104.634 21.9717 103.509 22.3696 102.189 22.9011C101.785 23.0638 101.834 23.2812 101.821 23.7135C101.814 23.9414 101.8 24.181 101.8 24.403C101.798 29.5524 101.796 34.7012 101.792 39.8506C101.792 40.439 101.826 41.1847 101.634 41.7294C101.482 42.161 100.514 42.1629 100.146 42.1644C98.4326 42.1703 96.7193 42.1715 95.0057 42.1683C94.5942 42.1676 94.2148 42.1395 93.868 42.0853C93.3272 42.0003 93.2012 41.6378 93.1582 41.1234C93.1148 40.6095 93.0928 40.0936 93.0928 39.577C93.0909 33.5369 93.0916 27.4965 93.0936 21.4564C93.0943 20.8289 93.0534 20.0138 93.2256 19.443C93.3911 18.8951 94.0567 18.5573 94.5234 18.2903C97.1458 16.7901 99.9382 15.7311 102.9 15.1131C104.327 14.8153 105.809 14.7382 107.277 14.7643C108.275 14.7819 109.294 14.8864 110.229 15.1783C111.251 15.4983 112.166 16.0051 113.063 16.574C113.078 16.5837 113.096 16.5857 113.113 16.5798L113.113 16.5801Z" fill="white"/>
<path d="M50.7013 33.2343C51.8817 34.891 53.9264 34.9655 55.7988 34.9577C57.1853 34.9526 58.7212 34.4079 59.9485 33.8371C60.3817 33.6353 60.7552 33.4753 61.0678 33.3564C61.5888 33.1585 61.9675 33.2963 62.2041 33.7684C62.8938 35.1438 63.4018 36.5949 64.0012 38.0082C64.3007 38.7136 64.2657 39.2163 63.5764 39.6364C61.2121 41.0777 58.5041 41.883 55.7028 42.0926C52.127 42.3603 48.3372 41.7602 45.459 39.4959C43.6426 38.0678 42.4046 36.0202 41.8348 33.7934C41.052 30.7343 41.0249 27.7041 41.7531 24.7027C41.9865 23.7394 42.3758 22.7639 42.9205 21.7756C44.7302 18.4926 48.0878 16.5237 51.7754 16.1148C52.0332 16.086 52.6243 16.0449 53.5477 15.9919C53.8543 15.9743 54.1783 15.977 54.5199 15.9997C54.9763 16.031 55.4717 16.0435 55.8938 16.0977C58.5083 16.436 60.9822 17.4816 62.7734 19.4408C64.6789 21.5248 65.2606 24.1055 64.7058 26.84C63.9349 30.6376 60.6279 32.8012 56.885 33.0225C55.934 33.0787 54.9956 33.1551 54.03 33.1532C52.9265 33.1512 51.8225 33.1681 50.7166 33.2035C50.7008 33.2042 50.6922 33.2218 50.7013 33.2343ZM51.8494 25.9643C52.4997 25.9741 53.4258 25.9675 54.6275 25.9433C55.072 25.9347 55.8583 25.8984 56.1602 25.639C56.4452 25.394 56.3766 24.8691 56.2281 24.534C55.5995 23.1161 53.1382 23.0286 51.9523 23.7333C51.1471 24.2113 50.5923 24.9055 50.2876 25.816C50.2671 25.8754 50.2888 25.9089 50.3522 25.9159C50.8449 25.9702 51.4562 25.9577 51.8494 25.9643Z" fill="white"/>
<path d="M82.3745 40.0608C80.6868 41.2173 78.8956 42.0036 76.8246 42.1245C74.7898 42.2439 72.7486 41.8104 71.0444 40.7483C68.8508 39.3827 67.3405 36.8816 66.7324 34.4632C66.4766 33.4457 66.2504 32.2173 66.1936 31.1013C66.1463 30.1707 66.1396 29.2394 66.1739 28.3075C66.2412 26.473 66.6323 24.6718 67.3484 23.0222C69.2024 18.7516 73.1285 16.4959 77.6754 16.0854C78.1126 16.0463 78.8613 16.0358 79.4521 15.9913C79.6956 15.973 79.9322 15.9718 80.1624 15.9874C81.0085 16.0455 81.9082 16.0404 82.7001 16.1572C85.0258 16.4994 87.2616 17.1525 89.4069 18.1171C90.5128 18.6141 90.6258 19.0144 90.6278 20.214C90.6369 26.7812 90.6403 33.3484 90.6384 39.9164C90.6376 40.3214 90.6127 40.7242 90.5626 41.1252C90.4649 41.9063 89.9262 42.0023 89.1848 42.0036C87.6146 42.0067 86.0434 42.0075 84.4732 42.0048C83.8651 42.0041 83.2648 42.0231 82.9972 41.4164C82.808 40.9867 82.6306 40.5446 82.4663 40.0901C82.4485 40.041 82.4182 40.0312 82.3745 40.0608ZM74.6699 29.5979C74.7113 31.582 75.3782 34.4488 77.8296 34.7702C78.3817 34.8421 79.105 34.8257 79.6705 34.7023C79.9884 34.6325 81.7183 34.0885 81.7869 33.696C81.8133 33.5458 81.8271 33.263 81.8278 32.847C81.833 29.8918 81.835 26.9373 81.8345 23.9828C81.8345 23.5243 81.3253 23.5314 80.9824 23.465C80.0361 23.2801 79.1166 23.2566 78.2243 23.3944C75.2235 23.8575 74.6193 27.16 74.6701 29.5979H74.6699Z" fill="white"/>
<path d="M141.321 24.2756C141.377 24.5367 142.369 24.8522 142.63 24.9221C146.276 25.8984 150.78 27.1458 152.365 31.0375C153.685 34.2787 152.679 37.8345 149.943 39.9818C148.233 41.3244 145.82 42.0096 143.664 42.1153C140.052 42.2924 135.966 41.6764 132.735 39.8145C132.558 39.7126 132.4 39.5995 132.259 39.4762C131.982 39.2319 132.055 38.6826 132.162 38.3758C132.803 36.5373 133.268 35.2711 133.556 34.5777C133.749 34.1146 133.927 33.7379 134.092 33.4458C134.321 33.0389 134.935 33.1906 135.279 33.3334C137.57 34.287 139.658 35.0354 142.096 34.9394C142.604 34.9199 142.983 34.8664 143.234 34.7794C143.538 34.6737 144.541 34.1602 144.337 33.7096C144.187 33.3772 143.19 32.9187 142.888 32.8129C141.448 32.3076 140.009 31.802 138.57 31.2959C138.089 31.1266 137.468 30.844 136.706 30.4469C135.205 29.6652 133.74 28.2923 133.158 26.6871C131.774 22.8699 133.272 18.8385 137.064 17.1373C138.537 16.477 140.027 16.1126 141.534 16.0447C141.881 16.0291 142.167 16.012 142.391 15.9932C143.327 15.9155 144.29 16.0283 145.226 16.0879C147.201 16.2128 149.284 16.884 151.082 17.6795C151.408 17.8238 151.719 17.9943 152.015 18.191C152.563 18.5561 152.32 19.2889 152.14 19.7896C151.678 21.0756 151.191 22.3523 150.68 23.6197C150.394 24.3264 150.062 24.5523 149.295 24.3029C148.172 23.9378 147.277 23.6852 146.613 23.5433C146.099 23.4336 145.368 23.3501 144.42 23.2932C143.558 23.2416 142.714 23.3369 141.886 23.5792C141.538 23.6818 141.23 23.8535 141.321 24.2753L141.321 24.2756Z" fill="white"/>
<path d="M95.8202 48.1987C96.5753 47.7886 97.9201 47.5588 97.9492 48.8601C97.961 49.4029 97.9637 49.9476 97.9571 50.4927C97.9563 50.5162 97.9682 50.5279 97.9921 50.5279H98.4009C98.4293 50.5279 98.4446 50.5416 98.4451 50.5697L98.4569 50.8826C98.4581 50.9119 98.4344 50.9361 98.4048 50.9361H97.0507C97.0283 50.9361 97.0172 50.9251 97.0164 50.9028L97.0145 50.5567C97.0145 50.5377 97.0243 50.5279 97.0436 50.5279H97.4506C97.475 50.5279 97.4876 50.5162 97.4881 50.492C97.5106 49.8657 97.6036 48.6379 97.3159 48.3983C96.9407 48.0842 96.1577 48.4498 95.8187 48.6628C95.7943 48.6777 95.7824 48.6999 95.7824 48.728V50.4866C95.7824 50.514 95.7963 50.5277 95.8239 50.5277H96.2361C96.2633 50.5277 96.2771 50.5413 96.2771 50.5687V50.9031C96.2771 50.9246 96.266 50.9358 96.244 50.9358H94.8919C94.8588 50.9358 94.8423 50.9194 94.8423 50.8867V50.5687C94.8423 50.5413 94.8561 50.5277 94.8832 50.5277H95.2955C95.3231 50.5277 95.3369 50.514 95.3369 50.4871V46.8854C95.3369 46.8585 95.3132 46.8382 95.2868 46.8424L94.7103 46.92C94.6878 46.9232 94.6748 46.9134 94.6708 46.8912L94.618 46.5725C94.6141 46.549 94.624 46.5366 94.6476 46.5346C95.0243 46.5077 95.2274 46.4994 95.4575 46.2525C95.4728 46.2361 95.4906 46.2264 95.5116 46.2225C95.7161 46.1839 95.782 46.2955 95.782 46.4792C95.7812 47.0441 95.782 47.6096 95.7827 48.1765C95.7827 48.1955 95.8032 48.2073 95.8197 48.198L95.8202 48.1987Z" fill="white"/>
<path d="M113.87 46.8708L112.772 46.9426C112.745 46.9446 112.73 46.9321 112.725 46.9055L112.662 46.5645C112.658 46.5391 112.668 46.5266 112.694 46.5274C113.132 46.5372 113.638 46.5933 114.012 46.2543C114.028 46.2399 114.046 46.2301 114.067 46.2255C114.296 46.1739 114.347 46.3163 114.347 46.5076C114.349 47.8373 114.349 49.1668 114.348 50.4958C114.348 50.5141 114.363 50.5285 114.381 50.5285H115.536C115.557 50.5285 115.569 50.5395 115.569 50.5612V50.8878C115.569 50.9205 115.552 50.9369 115.519 50.9369H112.584C112.551 50.9369 112.535 50.9205 112.535 50.8878V50.5612C112.535 50.5397 112.546 50.5285 112.568 50.5285H113.871C113.892 50.5285 113.904 50.5175 113.904 50.4958V46.9018C113.904 46.8796 113.893 46.8691 113.87 46.8706L113.87 46.8708Z" fill="white"/>
<path d="M56.6458 46.7717C56.6458 47.0245 56.4393 47.2289 56.1842 47.2289C55.9291 47.2289 55.7227 47.0245 55.7227 46.7717C55.7227 46.5189 55.9291 46.3145 56.1842 46.3145C56.4393 46.3145 56.6458 46.5189 56.6458 46.7717Z" fill="white"/>
<path d="M20.9179 47.0351H19.792C19.7794 47.0351 19.7695 47.0253 19.7695 47.0129V46.6492C19.7695 46.6367 19.7794 46.627 19.792 46.627H22.5338C22.5464 46.627 22.5562 46.6367 22.5562 46.6492V47.0129C22.5562 47.0253 22.5464 47.0351 22.5338 47.0351H21.4078C21.3953 47.0351 21.3854 47.0449 21.3854 47.0573V50.5069C21.3854 50.5194 21.3953 50.5291 21.4078 50.5291H22.5338C22.5464 50.5291 22.5562 50.5389 22.5562 50.5514V50.9151C22.5562 50.9275 22.5464 50.9373 22.5338 50.9373H19.792C19.7794 50.9373 19.7695 50.9275 19.7695 50.9151V50.5514C19.7695 50.5389 19.7794 50.5291 19.792 50.5291H20.9179C20.9305 50.5291 20.9404 50.5194 20.9404 50.5069V47.0573C20.9404 47.0449 20.9305 47.0351 20.9179 47.0351Z" fill="white"/>
<path d="M78.9569 47.0437C78.6503 47.0234 78.3764 47.0234 78.1344 47.0429C77.7868 47.071 77.8547 47.7405 77.8621 48.1027C77.8628 48.1276 77.8502 48.1399 77.8251 48.1394L77.4503 48.1362C77.4259 48.1362 77.4141 48.1245 77.4141 48.1003V46.6597C77.4141 46.6382 77.4252 46.627 77.4471 46.627H80.9862C81.0126 46.627 81.0257 46.6399 81.0257 46.666L81.0245 48.1093C81.0245 48.1284 81.0146 48.1382 80.9954 48.1374L80.6103 48.125C80.5905 48.1242 80.5807 48.1145 80.5807 48.0942C80.5839 47.8963 80.6848 47.1047 80.3221 47.0422C80.1665 47.0153 79.8847 47.0173 79.4767 47.048C79.4562 47.05 79.4464 47.0605 79.4464 47.0808L79.4444 50.4805C79.4444 50.5074 79.4661 50.5289 79.4925 50.5289H80.3631C80.3915 50.5289 80.406 50.5433 80.4065 50.5714L80.4092 50.8992C80.41 50.9246 80.3966 50.937 80.371 50.937H78.0903C78.0572 50.937 78.0407 50.9207 78.0407 50.888V50.5614C78.0407 50.5399 78.0518 50.5287 78.0737 50.5287H78.9668C78.984 50.5287 78.9979 50.515 78.9979 50.4979L78.9966 47.0849C78.9966 47.0588 78.9836 47.0451 78.9572 47.0432L78.9569 47.0437Z" fill="white"/>
<path d="M51.1751 47.9859L51.2165 47.7468C51.2197 47.7258 51.2323 47.7174 51.2528 47.7218L51.6036 47.791C51.6253 47.7956 51.6332 47.8081 51.6273 47.8296C51.5204 48.1893 51.5012 48.5538 51.5705 48.9221C51.5752 48.947 51.5646 48.96 51.5394 48.9619L51.1792 48.9907C51.1521 48.9927 51.1371 48.9802 51.1339 48.9536C51.1003 48.6571 51.0416 48.405 50.7177 48.3273C50.3634 48.2419 49.613 48.2209 49.4403 48.6336C49.3103 48.9446 49.5774 49.151 49.8604 49.1913C50.1017 49.226 50.4638 49.2912 50.9474 49.3864C51.7837 49.5515 51.9591 50.5723 51.1432 50.8656C50.5465 51.0798 49.931 51.0708 49.2965 50.8375C49.2444 50.8185 49.2113 50.8356 49.1975 50.8891L49.164 51.0202C49.1581 51.0432 49.1442 51.0515 49.1211 51.0444L48.7952 50.9472C48.7707 50.9401 48.7616 50.9238 48.7688 50.8996C48.8709 50.5503 48.8709 50.202 48.7675 49.8539C48.7616 49.8337 48.7695 49.8227 48.79 49.82L49.179 49.7723C49.1995 49.7704 49.2113 49.7789 49.2146 49.7992C49.2402 49.9494 49.2701 50.0728 49.3029 50.1688C49.5878 50.9987 51.7814 50.5801 51.0374 49.8683C50.9735 49.8063 50.8099 49.7606 50.5475 49.7298C50.1426 49.6827 49.7825 49.6163 49.4664 49.5305C48.8228 49.3561 48.7626 48.5731 49.2225 48.182C49.7163 47.7614 50.5423 47.8347 51.1225 48.0169C51.1521 48.0259 51.1694 48.0157 51.1746 47.9856L51.1751 47.9859Z" fill="white"/>
<path d="M25.9828 48.0604C26.3667 47.8325 26.8026 47.7587 27.1179 48.129C27.1329 48.1466 27.1502 48.1485 27.1694 48.1349C27.4998 47.8938 28.0511 47.745 28.4042 48.0115C28.5499 48.1219 28.6232 48.2707 28.6232 48.4595C28.624 49.1353 28.6264 49.8119 28.6304 50.488C28.6304 50.5154 28.6442 50.529 28.6718 50.529H29.0384C29.0601 50.529 29.0715 50.54 29.0715 50.5618V50.9047C29.0715 50.9269 29.0604 50.9379 29.0384 50.9379L27.931 50.9367C27.8999 50.9367 27.8841 50.9211 27.8841 50.8903V50.5618C27.8841 50.5403 27.8952 50.529 27.9172 50.529H28.1466C28.1683 50.529 28.1789 50.518 28.1797 50.4963C28.1836 49.8759 28.1824 49.2562 28.1765 48.6363C28.1698 47.9996 27.5151 48.3679 27.296 48.5716C27.2814 48.5845 27.2743 48.6009 27.2743 48.6207V50.4963C27.2743 50.5178 27.2854 50.529 27.3073 50.529H27.5382C27.56 50.529 27.5713 50.54 27.5713 50.5618V50.8864C27.5713 50.9203 27.554 50.9374 27.5197 50.9374H26.5593C26.5302 50.9374 26.5159 50.923 26.5159 50.8944V50.5784C26.5159 50.5456 26.5325 50.5293 26.5655 50.5293H26.7831C26.8083 50.5293 26.8213 50.5168 26.8221 50.4922C26.8413 49.8725 26.8366 49.254 26.8083 48.6375C26.7799 48.0074 26.1592 48.3554 25.9285 48.5884C25.9108 48.606 25.9021 48.6275 25.9029 48.6517L25.916 50.4856C25.9167 50.5149 25.931 50.5293 25.9609 50.5293H26.1863C26.2081 50.5293 26.2194 50.5403 26.2194 50.562V50.8886C26.2194 50.9213 26.2029 50.9377 26.1701 50.9377H25.0654C25.0323 50.9377 25.0158 50.9213 25.0158 50.8886V50.5706C25.0158 50.5432 25.0296 50.5295 25.0567 50.5295H25.428C25.4497 50.5295 25.4611 50.5185 25.4611 50.4968V48.4038C25.4611 48.3789 25.4485 48.3679 25.424 48.3711L24.9696 48.4285C24.9413 48.4316 24.9247 48.4199 24.92 48.3926L24.8719 48.1112C24.868 48.0882 24.8779 48.0745 24.9011 48.0701C25.1727 48.0206 25.3727 48.0264 25.5824 47.7849C25.6002 47.7638 25.6234 47.7529 25.651 47.7521C25.837 47.7475 25.9246 47.8364 25.9135 48.0193C25.9103 48.0775 25.9332 48.0911 25.9833 48.0611L25.9828 48.0604Z" fill="white"/>
<path d="M31.7842 48.0614C32.1945 47.8355 32.587 47.7559 32.9304 48.1266C32.9454 48.143 32.9619 48.1449 32.9799 48.1318C33.5002 47.7576 34.4256 47.6889 34.4382 48.5824C34.4473 49.2199 34.4493 49.8572 34.4441 50.4947C34.4441 50.5176 34.4559 50.5293 34.4791 50.5293H34.8583C34.88 50.5293 34.8914 50.5403 34.8914 50.5621V50.8972C34.8914 50.9241 34.8775 50.9377 34.8499 50.9377H33.7432C33.7121 50.9377 33.6959 50.9221 33.6951 50.8906L33.686 50.5633C33.6853 50.5403 33.6966 50.5293 33.7195 50.5293H33.9497C33.9761 50.5293 33.9899 50.5164 33.9907 50.4895C34.0139 49.756 34.0099 49.1075 33.9788 48.5428C33.9497 48.0216 33.2789 48.4036 33.103 48.5736C33.0865 48.59 33.0779 48.6095 33.0779 48.633V50.4883C33.0779 50.5157 33.0917 50.5293 33.1193 50.5293H33.3495C33.3771 50.5293 33.3909 50.543 33.3909 50.5704V50.8969C33.3909 50.9243 33.3771 50.938 33.3495 50.938L32.3708 50.936C32.3437 50.936 32.3299 50.9224 32.3306 50.8955L32.3378 50.5604C32.3385 50.5394 32.3489 50.5291 32.3701 50.5291H32.5956C32.6173 50.5291 32.6286 50.5181 32.6291 50.4964C32.637 49.6996 32.637 49.108 32.6291 48.7214C32.6134 48.016 32.0442 48.3035 31.7487 48.5673C31.7336 48.5809 31.7255 48.5985 31.7255 48.6188V50.4964C31.7255 50.5179 31.7366 50.5291 31.7585 50.5291H31.9895C32.0112 50.5291 32.0225 50.5401 32.0225 50.5618V50.8884C32.0225 50.9211 32.006 50.9375 31.9729 50.9375H30.8616C30.8332 50.9375 30.8186 50.9231 30.8186 50.8945V50.5621C30.8186 50.5406 30.8297 50.5293 30.8517 50.5293H31.2244C31.2528 50.5293 31.2674 50.5149 31.2674 50.4868L31.2804 48.4114C31.2812 48.3814 31.2659 48.3684 31.2355 48.3723L30.7831 48.4278C30.7547 48.4317 30.7283 48.4114 30.7237 48.3833L30.6768 48.0961C30.6721 48.0687 30.6839 48.0556 30.7123 48.057C30.9913 48.0668 31.2227 47.972 31.4068 47.7729C31.4265 47.7515 31.4509 47.7441 31.4793 47.75L31.6271 47.7793C31.6567 47.7852 31.6759 47.8035 31.6831 47.8328L31.7351 48.0399C31.7423 48.068 31.7583 48.0751 31.784 48.0614H31.7842Z" fill="white"/>
<path d="M55.9895 48.3939C55.5548 48.4625 55.1189 48.4669 54.681 48.4076C54.6632 48.4056 54.6534 48.3958 54.6499 48.3782L54.5939 48.0485C54.5892 48.0243 54.5998 48.0138 54.6243 48.0158C55.1473 48.0583 55.6821 48.1523 56.0852 47.8382C56.289 47.6789 56.4723 47.7434 56.473 48.0053C56.475 48.8372 56.475 49.6713 56.4737 50.5064C56.4737 50.5189 56.4843 50.5294 56.4969 50.5294H57.7191C57.7467 50.5294 57.7605 50.5431 57.7605 50.5704V50.9048C57.7605 50.9263 57.7494 50.9375 57.7275 50.9375H54.6112C54.5895 50.9375 54.5781 50.9265 54.5781 50.9048V50.5619C54.5781 50.5404 54.5892 50.5291 54.6112 50.5291H55.9796C56.0127 50.5291 56.0292 50.5128 56.0292 50.48V48.4261C56.0292 48.4 56.0161 48.389 55.9897 48.3934L55.9895 48.3939Z" fill="white"/>
<path d="M101.66 48.1902C102.345 47.7969 103.722 47.5861 103.759 48.7857C103.766 49.047 103.768 49.6164 103.762 50.4935C103.762 50.5169 103.774 50.5287 103.797 50.5287H104.209C104.242 50.5287 104.259 50.545 104.259 50.5777V50.8892C104.259 50.9204 104.243 50.9361 104.212 50.9361L102.857 50.9373C102.835 50.9373 102.824 50.9263 102.824 50.9041V50.5611C102.824 50.5396 102.835 50.5284 102.857 50.5284H103.268C103.295 50.5284 103.309 50.5155 103.31 50.4893C103.333 49.9388 103.328 49.3895 103.294 48.8431C103.233 47.8746 102.066 48.369 101.616 48.6799C101.599 48.6909 101.592 48.706 101.592 48.7256L101.586 50.4869C101.586 50.515 101.599 50.5287 101.628 50.5287H102.043C102.07 50.5287 102.083 50.5416 102.083 50.5677L102.085 50.9068C102.085 50.927 102.076 50.9368 102.055 50.9368H100.683C100.66 50.9368 100.648 50.9251 100.648 50.9021V50.5775C100.648 50.5448 100.664 50.5284 100.697 50.5284H101.093C101.126 50.5284 101.142 50.512 101.142 50.4793V48.4027C101.142 48.3785 101.129 48.3675 101.105 48.3707L100.644 48.4327C100.624 48.4359 100.612 48.4276 100.608 48.4073L100.552 48.0952C100.548 48.0749 100.556 48.0639 100.577 48.0632C100.744 48.0573 100.902 48.0226 101.05 47.9586C101.224 47.8829 101.273 47.666 101.524 47.7889C101.552 47.8025 101.567 47.824 101.571 47.8541L101.613 48.167C101.617 48.1977 101.632 48.2048 101.66 48.1899L101.66 48.1902Z" fill="white"/>
<path d="M44.0806 48.4717C44.6643 47.9956 45.5983 47.4338 46.0895 48.4006C46.1021 48.4255 46.0902 48.456 46.0643 48.4665L45.6659 48.6292C45.6388 48.6402 45.6217 48.6319 45.6143 48.6038C45.4133 47.8246 44.3836 48.743 44.0809 49.0217C44.0658 49.0361 44.0577 49.0537 44.0577 49.0747L44.0557 50.4997C44.0557 50.5207 44.0663 50.531 44.0873 50.531H45.343C45.3647 50.531 45.376 50.542 45.376 50.5637V50.8903C45.376 50.923 45.3595 50.9394 45.3264 50.9394H43.0122C42.9831 50.9394 42.9688 50.925 42.9688 50.8964V50.5639C42.9688 50.5425 42.9799 50.5312 43.0018 50.5312H43.5623C43.584 50.5312 43.5954 50.5202 43.5954 50.4985V48.4223C43.5954 48.3955 43.5823 48.3837 43.5551 48.3872L43.1007 48.4433C43.0775 48.4465 43.0637 48.4363 43.0598 48.4133L43.0136 48.1488C43.0038 48.0938 43.0275 48.0665 43.0835 48.0657C43.3163 48.0645 43.5122 47.9939 43.6711 47.8547C44.1176 47.4641 44.0648 48.3019 44.0522 48.4575C44.051 48.4724 44.0688 48.481 44.0799 48.4719L44.0806 48.4717Z" fill="white"/>
<path d="M37.5425 49.6591C37.6606 50.631 38.7567 50.7426 39.5131 50.5179C39.7696 50.4415 39.9821 50.3677 40.1508 50.2959C40.1725 50.2869 40.1878 50.2932 40.1949 50.3149L40.301 50.6166C40.3102 50.6435 40.3023 50.6623 40.2766 50.674C39.5649 51.0018 38.6237 51.175 37.895 50.855C37.1075 50.5081 36.8801 49.5534 37.1959 48.8143C37.8513 47.2808 40.4355 47.6538 40.1214 49.5856C40.1182 49.6059 40.1056 49.6164 40.0852 49.6164H37.5809C37.5513 49.6164 37.5388 49.6308 37.542 49.6594M37.5849 49.2263L39.6981 49.208C39.6993 49.208 39.7001 49.2073 39.7001 49.206V49.2014C39.6954 48.6973 39.2212 48.2923 38.6403 48.2977H38.6272C38.0462 48.3028 37.5785 48.7156 37.5832 49.2197V49.2244C37.5832 49.2256 37.5844 49.2263 37.5851 49.2263H37.5849Z" fill="white"/>
<path d="M66.5477 49.6561C66.6605 50.6311 67.76 50.7415 68.5159 50.518C68.7633 50.445 68.9742 50.3705 69.1491 50.2953C69.1723 50.2855 69.1874 50.2921 69.1953 50.3148L69.3013 50.6106C69.312 50.6399 69.3026 50.6609 69.2742 50.6739C68.5645 51.0017 67.628 51.1734 66.8985 50.8529C66.2088 50.5505 65.9495 49.7931 66.1071 49.0994C66.5221 47.2702 69.4879 47.5281 69.1324 49.5794C69.1277 49.6028 69.1139 49.6145 69.0902 49.6145H66.5847C66.5571 49.6145 66.5445 49.6282 66.5477 49.6556M66.5748 49.2186L68.6853 49.2225C68.69 49.2225 68.6945 49.2186 68.6945 49.2135C68.6952 48.7001 68.2208 48.2841 67.6352 48.2829H67.6273C67.0416 48.2816 66.566 48.6969 66.5655 49.2096C66.5655 49.2147 66.5694 49.2186 66.5746 49.2186H66.5748Z" fill="white"/>
<path d="M83.9812 49.6513C84.1026 50.9561 85.7922 50.6545 86.5718 50.292C86.5975 50.2803 86.6147 50.2874 86.6246 50.3142L86.7334 50.6213C86.742 50.6442 86.7346 50.6611 86.7122 50.6708C85.9366 51.0321 84.7356 51.2534 84.0113 50.6479C83.6901 50.3794 83.516 50.0404 83.4891 49.6311C83.3374 47.3558 86.912 47.2357 86.556 49.5834C86.5528 49.6049 86.5402 49.6154 86.5185 49.6154H84.0143C83.9899 49.6154 83.9793 49.6271 83.9812 49.6513ZM84.0214 49.2236L86.124 49.2092C86.128 49.2092 86.1312 49.206 86.1312 49.2021V49.199C86.1273 48.6968 85.6536 48.2933 85.0734 48.2972H85.0588C84.4783 48.3011 84.0101 48.7112 84.014 49.2134V49.2166C84.014 49.2205 84.0173 49.2236 84.0212 49.2236H84.0214Z" fill="white"/>
<path d="M91.5916 49.0655C91.655 48.7631 91.5613 48.3803 91.2157 48.3171C90.6702 48.2179 90.2619 48.3542 89.9923 48.7272C89.6968 49.1346 89.6884 49.7152 89.9671 50.1338C90.4408 50.8431 91.5184 50.6477 92.16 50.3129C92.1832 50.3004 92.1995 50.3063 92.2101 50.33L92.3552 50.6592C92.3599 50.6697 92.3552 50.6822 92.3446 50.6873C91.4952 51.1052 90.2005 51.2535 89.5771 50.3935C89.1834 49.8507 89.1755 49.0462 89.5964 48.5113C90.1194 47.8464 91.3837 47.5545 92.0253 48.2951C92.0431 48.3154 92.0525 48.3395 92.0525 48.3662L92.0623 49.0657C92.0631 49.095 92.0478 49.1102 92.0182 49.1102H91.6277C91.5966 49.1102 91.5847 49.0953 91.5914 49.0657L91.5916 49.0655Z" fill="white"/>
<path d="M109.857 49.4482C109.857 50.32 109.143 51.0273 108.263 51.0273C107.382 51.0273 106.668 50.32 106.668 49.4482C106.668 48.5765 107.382 47.8691 108.263 47.8691C109.143 47.8691 109.857 48.5765 109.857 49.4482ZM108.265 50.6219C108.875 50.6207 109.369 50.0948 109.368 49.4477C109.367 48.8005 108.871 48.2761 108.261 48.2773C107.651 48.2785 107.157 48.8044 107.159 49.4514C107.16 50.0987 107.655 50.6231 108.265 50.6219Z" fill="white"/>
<path d="M121.474 49.4482C121.474 50.32 120.76 51.0273 119.88 51.0273C118.999 51.0273 118.285 50.32 118.285 49.4482C118.285 48.5765 118.999 47.8691 119.88 47.8691C120.76 47.8691 121.474 48.5765 121.474 49.4482ZM119.884 50.6211C120.494 50.6192 120.987 50.0921 120.985 49.4451C120.983 48.7978 120.486 48.2746 119.876 48.2766C119.266 48.2785 118.774 48.8056 118.776 49.4526C118.778 50.0999 119.274 50.6231 119.884 50.6211Z" fill="white"/>
<path d="M126.583 48.4097C126.68 48.5592 126.736 48.6938 126.751 48.814C126.872 49.793 126.236 50.1828 125.339 50.1305C125.311 50.1286 125.287 50.1376 125.267 50.1566L124.974 50.4309C124.948 50.4559 124.961 50.5001 124.998 50.5054C125.804 50.6263 127.307 50.2202 127.451 51.171C127.556 51.8645 126.989 52.2472 126.387 52.3603C125.806 52.4688 124.355 52.5628 124.169 51.7699C124.082 51.4028 124.283 51.0562 124.587 50.8445C124.606 50.8308 124.608 50.8156 124.593 50.7981C124.33 50.491 124.58 50.2287 124.834 50.0164C124.853 50.0008 124.852 49.9857 124.832 49.9715C124.368 49.643 124.205 49.2329 124.344 48.7424C124.548 48.0214 125.178 47.7686 125.883 47.9183C126.264 47.9987 126.661 47.9655 127.046 47.9659C127.068 47.9667 127.079 47.9777 127.079 47.9992V48.2801C127.079 48.3355 127.032 48.3799 126.976 48.3768L126.614 48.3577C126.569 48.355 126.558 48.3726 126.582 48.41M126.289 49.1738C126.374 48.7776 126.108 48.3865 125.695 48.3003C125.283 48.2141 124.88 48.4662 124.796 48.8621C124.711 49.2583 124.977 49.6493 125.39 49.7356C125.802 49.8218 126.205 49.5697 126.289 49.1738ZM124.859 51.9077C125.266 52.095 127.144 52.1461 126.973 51.2624C126.924 51.0064 126.702 50.9444 126.469 50.9412C126.159 50.938 125.263 50.8596 125.028 51.011C124.735 51.2011 124.355 51.6759 124.859 51.9077Z" fill="white"/>
<path d="M61.8154 50.4618L62.6958 48.4052C62.7025 48.3903 62.6919 48.374 62.6753 48.3732L62.3021 48.3588C62.2895 48.3588 62.2796 48.3483 62.2796 48.3359V47.9878C62.2796 47.9753 62.2902 47.9648 62.3028 47.9648H63.6251C63.6377 47.9648 63.6483 47.9753 63.6483 47.9878V48.3503C63.6483 48.3627 63.6377 48.3732 63.6251 48.3732H63.1754C63.1663 48.3732 63.1576 48.3784 63.1542 48.3869L62.0263 51.0043C62.0231 51.0129 62.0144 51.018 62.0051 51.018H61.5842C61.5751 51.018 61.5664 51.0129 61.563 51.0043L60.4351 48.3869C60.4319 48.3784 60.4232 48.3732 60.4139 48.3732H59.9607C59.9481 48.3732 59.9375 48.3627 59.9375 48.3503V47.9878C59.9375 47.9753 59.9481 47.9648 59.9607 47.9648H61.283C61.2956 47.9648 61.3062 47.9753 61.3062 47.9878V48.3503C61.3062 48.3627 61.2956 48.3732 61.283 48.3732H60.9137C60.8972 48.3732 60.8861 48.3903 60.8925 48.4052L61.7722 50.4618C61.7801 50.4802 61.8065 50.4802 61.8144 50.4618H61.8154Z" fill="white"/>
<path d="M131.558 50.1697L132.357 48.4065C132.366 48.3862 132.36 48.3752 132.337 48.3737L131.859 48.3522C131.827 48.351 131.811 48.3346 131.811 48.3026V47.9976C131.811 47.9761 131.822 47.9648 131.844 47.9648H133.279C133.3 47.9648 133.312 47.9758 133.312 47.9976V48.33C133.312 48.3581 133.297 48.3725 133.269 48.3725L132.882 48.3732C132.859 48.374 132.843 48.3837 132.834 48.404C132.391 49.3935 131.949 50.3827 131.509 51.3722C131.369 51.687 131.199 52.0979 130.893 52.2898C130.501 52.5348 129.957 52.4303 129.586 52.1946C129.567 52.1821 129.562 52.1658 129.571 52.145L129.717 51.8184C129.729 51.7923 129.746 51.7877 129.77 51.804C130.731 52.4689 131.022 51.4208 131.277 50.7911C131.293 50.7506 131.292 50.7107 131.271 50.6717L130.088 48.3996C130.077 48.3786 130.06 48.3683 130.036 48.3676L129.652 48.3586C129.63 48.3578 129.619 48.3469 129.619 48.3254V47.9981C129.619 47.9766 129.63 47.9653 129.652 47.9653H131.086C131.108 47.9653 131.119 47.9763 131.119 47.9981V48.3324C131.119 48.3488 131.112 48.3574 131.095 48.3574L130.628 48.3644C130.589 48.3652 130.579 48.382 130.596 48.4155L131.51 50.1717C131.528 50.2049 131.544 50.2044 131.559 50.1705L131.558 50.1697Z" fill="white"/>
</g>
<path d="M11.6742 8.57752C7.88249 8.57294 4.09026 8.57102 0.298032 8.57174C0.0362863 8.57174 0.00791606 8.39281 0.00717597 8.17054C-0.000718339 5.70269 -0.00219852 3.21678 0.00322882 0.711357C0.00322882 0.681256 0.0281452 0.65597 0.0592291 0.654766C0.140392 0.652117 0.238085 0.62322 0.317028 0.62322H22.8486C23.2939 0.62322 23.679 0.610456 24.1934 0.636705C24.3747 0.646338 24.4961 0.714729 24.558 0.842841C24.5691 0.864755 24.5706 0.887151 24.5619 0.909787C23.4355 4.00231 22.3103 7.09483 21.1859 10.1874C21.1279 10.347 21.0137 10.4667 20.9081 10.5967C20.8943 10.6141 20.877 10.6264 20.8565 10.6341C18.4579 11.5451 15.9088 12.3325 13.7144 13.5604C13.2065 13.8443 12.5522 14.2894 11.751 14.8952C10.8784 15.5553 10.0862 16.3859 9.39302 17.3077C9.01385 17.812 8.63319 18.3153 8.25131 18.8183C8.16891 18.9272 8.07467 18.9857 7.96958 18.9941C7.73546 19.0129 7.50209 19.0148 7.2692 18.9999C7.24478 18.998 7.23763 18.9864 7.24675 18.9645L11.7011 8.61894C11.7137 8.59124 11.7043 8.57776 11.6735 8.57776L11.6742 8.57752Z" fill="#3ABD4C"/>
<defs>
<clipPath id="clip0_3203_192972">
<path d="M0.511719 31.4555C0.511719 17.1368 12.1193 5.5293 26.4379 5.5293H127.017C141.336 5.5293 152.943 17.1368 152.943 31.4555V52.4313H0.511719V31.4555Z" fill="white"/>
</clipPath>
</defs>
</svg>
