<svg width="24" height="23" viewBox="0 0 24 23" fill="none" xmlns="http://www.w3.org/2000/svg">
<g id="svgexport-17 - 2023-09-04T191314.055 1" clip-path="url(#clip0_672_12642)">
<g id="Group">
<g id="Group_2">
<path id="Vector" d="M2.38314 2.16797H21.3415C21.8441 2.16857 22.326 2.3685 22.6814 2.72391C23.0368 3.07932 23.2367 3.56118 23.2373 4.0638V17.7138C23.2367 18.2164 23.0368 18.6983 22.6814 19.0537C22.326 19.4091 21.8441 19.609 21.3415 19.6096H9.96647V21.5055C9.96646 21.5805 9.94421 21.6537 9.90254 21.7161C9.86088 21.7784 9.80167 21.827 9.7324 21.8557C9.66312 21.8844 9.5869 21.8919 9.51336 21.8773C9.43982 21.8627 9.37226 21.8266 9.31923 21.7735L8.07064 20.5249L6.82204 21.7735C6.76902 21.8266 6.70146 21.8627 6.62792 21.8773C6.55438 21.8919 6.47815 21.8844 6.40888 21.8557C6.33961 21.827 6.2804 21.7784 6.23873 21.7161C6.19707 21.6537 6.17482 21.5805 6.1748 21.5055V19.6096H2.38314C1.88052 19.609 1.39865 19.4091 1.04325 19.0537C0.68784 18.6983 0.487907 18.2164 0.487305 17.7138V4.0638C0.487907 3.56118 0.68784 3.07932 1.04325 2.72391C1.39865 2.3685 1.88052 2.16857 2.38314 2.16797ZM10.9864 9.58637C11.0153 9.57304 11.0407 9.55306 11.0604 9.52807C11.0801 9.50308 11.0936 9.47379 11.0998 9.44258C11.106 9.41137 11.1047 9.37913 11.0961 9.34851C11.0875 9.31788 11.0717 9.28973 11.0501 9.26635C10.8865 9.08851 10.7957 8.85566 10.7957 8.61399C10.7957 8.37232 10.8865 8.13948 11.0501 7.96164C11.0718 7.93823 11.0876 7.91003 11.0962 7.87934C11.1049 7.84865 11.1061 7.81635 11.0999 7.78508C11.0936 7.75382 11.08 7.72448 11.0603 7.69948C11.0405 7.67447 11.015 7.65451 10.9861 7.64124C10.767 7.53929 10.5941 7.35882 10.5017 7.13555C10.4093 6.91227 10.4041 6.66244 10.4871 6.43549C10.4981 6.40563 10.5019 6.37357 10.4982 6.34195C10.4945 6.31033 10.4833 6.28005 10.4656 6.25357C10.4479 6.22709 10.4243 6.20517 10.3965 6.1896C10.3687 6.17403 10.3376 6.16526 10.3058 6.16401C10.0643 6.15386 9.83542 6.05337 9.6645 5.88244C9.49357 5.71152 9.39308 5.48263 9.38293 5.24111C9.3817 5.20925 9.37292 5.17814 9.35734 5.15033C9.34175 5.12251 9.31979 5.09879 9.29326 5.08111C9.26673 5.06342 9.23639 5.05227 9.20472 5.04858C9.17305 5.04489 9.14096 5.04876 9.11107 5.05987C8.88404 5.14237 8.63435 5.13686 8.41119 5.04443C8.18802 4.95201 8.00755 4.77936 7.90532 4.56051C7.8921 4.53156 7.8722 4.50617 7.84725 4.48642C7.82229 4.46666 7.79301 4.45312 7.7618 4.4469C7.73059 4.44068 7.69835 4.44196 7.66773 4.45064C7.63711 4.45932 7.60899 4.47514 7.58568 4.49681C7.21676 4.83616 6.64914 4.83616 6.28059 4.49681C6.25722 4.47516 6.22905 4.45935 6.19839 4.45071C6.16773 4.44206 6.13545 4.44081 6.10421 4.44707C6.07297 4.45332 6.04366 4.4669 6.01869 4.48669C5.99372 4.50648 5.9738 4.53191 5.96058 4.56089C5.85856 4.77982 5.67815 4.95254 5.45498 5.04493C5.23181 5.13731 4.98212 5.14264 4.75521 5.05987C4.72532 5.04876 4.69323 5.04489 4.66156 5.04858C4.62989 5.05227 4.59954 5.06342 4.57301 5.08111C4.54649 5.09879 4.52453 5.12251 4.50894 5.15033C4.49335 5.17814 4.48458 5.20925 4.48334 5.24111C4.47308 5.48295 4.37231 5.7121 4.20101 5.88311C4.02972 6.05413 3.8004 6.15452 3.55855 6.16439C3.52676 6.16558 3.49569 6.1743 3.46791 6.18982C3.44013 6.20534 3.41643 6.22723 3.39875 6.25368C3.38106 6.28014 3.3699 6.31041 3.36617 6.34201C3.36245 6.37361 3.36626 6.40565 3.37731 6.43549C3.46035 6.66248 3.4551 6.91238 3.36262 7.13569C3.27014 7.35899 3.09716 7.53942 2.87795 7.64124C2.84906 7.65457 2.82373 7.67454 2.80403 7.69953C2.78433 7.72452 2.77082 7.75382 2.76461 7.78503C2.7584 7.81624 2.75966 7.84847 2.76828 7.8791C2.77691 7.90973 2.79266 7.93788 2.81425 7.96126C2.97788 8.1391 3.06871 8.37194 3.06871 8.61361C3.06871 8.85528 2.97788 9.08813 2.81425 9.26597C2.7926 9.28937 2.7768 9.31758 2.76815 9.34827C2.75951 9.37896 2.75826 9.41126 2.76451 9.44252C2.77077 9.47379 2.78434 9.50312 2.80413 9.52813C2.82391 9.55313 2.84934 9.57309 2.87833 9.58637C3.09741 9.68832 3.27025 9.86878 3.36265 10.0921C3.45505 10.3153 3.46028 10.5652 3.37731 10.7921C3.36628 10.822 3.36247 10.854 3.36619 10.8857C3.36992 10.9173 3.38108 10.9476 3.39876 10.974C3.41643 11.0005 3.44013 11.0224 3.4679 11.038C3.49568 11.0536 3.52674 11.0623 3.55855 11.0636C3.80071 11.0733 4.03033 11.1739 4.2017 11.3452C4.37307 11.5166 4.47363 11.7462 4.48334 11.9884C4.48458 12.0202 4.49335 12.0514 4.50894 12.0792C4.52453 12.107 4.54649 12.1307 4.57301 12.1484C4.59954 12.1661 4.62989 12.1772 4.66156 12.1809C4.69323 12.1846 4.72532 12.1807 4.75521 12.1696C4.98223 12.087 5.23195 12.0925 5.45514 12.1849C5.67833 12.2774 5.8588 12.4501 5.96096 12.669C5.97367 12.6982 5.99336 12.7238 6.01827 12.7437C6.04319 12.7635 6.07259 12.7769 6.1039 12.7827C6.13518 12.7893 6.16757 12.7882 6.19833 12.7795C6.22909 12.7709 6.2573 12.7549 6.28059 12.7331C6.45854 12.5695 6.69143 12.4787 6.93314 12.4787C7.17485 12.4787 7.40774 12.5695 7.58568 12.7331C7.60899 12.7549 7.63721 12.7708 7.66796 12.7795C7.69872 12.7881 7.7311 12.7892 7.76238 12.7827C7.79373 12.7769 7.82317 12.7635 7.84815 12.7437C7.87314 12.7238 7.89289 12.6982 7.9057 12.669C8.00765 12.45 8.18805 12.2772 8.41124 12.1848C8.63443 12.0924 8.88417 12.0871 9.11107 12.17C9.14096 12.1811 9.17305 12.185 9.20472 12.1813C9.23639 12.1776 9.26673 12.1665 9.29326 12.1488C9.31979 12.1311 9.34175 12.1074 9.35734 12.0796C9.37292 12.0517 9.3817 12.0206 9.38293 11.9888C9.39264 11.7465 9.49316 11.5168 9.66452 11.3453C9.83587 11.1738 10.0655 11.0731 10.3077 11.0632C10.3395 11.062 10.3706 11.0533 10.3984 11.0378C10.4261 11.0223 10.4498 11.0004 10.4675 10.9739C10.4852 10.9475 10.4964 10.9172 10.5001 10.8856C10.5038 10.854 10.5 10.822 10.489 10.7921C10.4058 10.5654 10.4108 10.3156 10.5029 10.0924C10.595 9.86909 10.7676 9.68851 10.9864 9.58637ZM6.82166 16.687L6.93314 16.7985V13.2343C6.88233 13.2343 6.83342 13.2533 6.79626 13.2878C6.68548 13.3918 6.55133 13.4677 6.4051 13.509C6.25887 13.5503 6.10485 13.5558 5.95603 13.5251C5.80734 13.4961 5.66777 13.4319 5.54902 13.3378C5.43027 13.2437 5.3358 13.1226 5.27353 12.9845C5.2521 12.9384 5.21412 12.902 5.16713 12.8826C5.12013 12.8632 5.06756 12.8622 5.01986 12.8798C4.9046 12.9208 4.78251 12.939 4.66003 12.934V16.7985L5.52946 15.9291C5.60057 15.858 5.69699 15.8181 5.79753 15.8181C5.89808 15.8181 5.9945 15.858 6.06561 15.9291L6.82166 16.687ZM6.93314 20.5902L7.80257 19.7207C7.87367 19.6496 7.9701 19.6097 8.07064 19.6097C8.17118 19.6097 8.26761 19.6496 8.33871 19.7207L9.20814 20.5902V12.9333C9.08567 12.9382 8.96358 12.92 8.84831 12.879C8.80072 12.8614 8.74821 12.8623 8.70126 12.8816C8.65431 12.9009 8.61637 12.9373 8.59503 12.9833C8.53258 13.1218 8.43778 13.2432 8.31861 13.3373C8.19944 13.4315 8.05939 13.4957 7.91025 13.5244C7.83821 13.5388 7.76503 13.5449 7.69147 13.543V17.7138C7.69146 17.7888 7.66921 17.8621 7.62754 17.9244C7.58588 17.9868 7.52667 18.0353 7.4574 18.064C7.38812 18.0927 7.3119 18.1002 7.23836 18.0856C7.16482 18.071 7.09726 18.0349 7.04423 17.9819L6.93314 17.8708V20.5902ZM1.24564 17.7138C1.24564 18.0155 1.36548 18.3048 1.5788 18.5181C1.79213 18.7315 2.08145 18.8513 2.38314 18.8513H6.1748V17.1124L5.79564 16.7333L4.54704 17.9819C4.49402 18.0349 4.42646 18.071 4.35292 18.0856C4.27938 18.1002 4.20315 18.0927 4.13388 18.064C4.06461 18.0353 4.0054 17.9868 3.96373 17.9244C3.92207 17.8621 3.89982 17.7888 3.8998 17.7138V12.5219C3.79364 12.3732 3.73335 12.1973 3.72577 12.0149C3.72353 11.9642 3.70235 11.9161 3.66641 11.8803C3.63046 11.8444 3.58237 11.8233 3.53163 11.8212C3.3801 11.8153 3.2321 11.7737 3.09976 11.6996C2.96743 11.6255 2.85452 11.5212 2.77029 11.3951C2.68606 11.269 2.6329 11.1247 2.61517 10.9741C2.59743 10.8235 2.61563 10.6708 2.66827 10.5286C2.68573 10.481 2.68466 10.4286 2.66528 10.3817C2.64589 10.3349 2.60961 10.297 2.56362 10.2757C2.42576 10.2124 2.30486 10.1172 2.21086 9.99815C2.11685 9.87907 2.0524 9.7394 2.02281 9.59059C1.99321 9.44179 1.9993 9.28808 2.04058 9.14209C2.08186 8.99609 2.15715 8.86196 2.26029 8.75068C2.29466 8.71331 2.31374 8.66439 2.31374 8.61361C2.31374 8.56284 2.29466 8.51392 2.26029 8.47654C2.15715 8.36531 2.08185 8.2312 2.04057 8.08523C1.99929 7.93926 1.9932 7.78558 2.0228 7.6368C2.0524 7.48803 2.11685 7.34838 2.21086 7.22933C2.30487 7.11028 2.42576 7.01521 2.56362 6.95191C2.60974 6.93071 2.64616 6.89289 2.66563 6.84602C2.68509 6.79914 2.68617 6.74665 2.66865 6.69901C2.61601 6.55679 2.59781 6.40412 2.61555 6.25351C2.63328 6.1029 2.68644 5.95863 2.77067 5.83253C2.8549 5.70642 2.96781 5.60206 3.10014 5.528C3.23248 5.45393 3.38047 5.41228 3.53201 5.40643C3.58275 5.4043 3.63084 5.38321 3.66679 5.34734C3.70273 5.31146 3.72391 5.26341 3.72615 5.21268C3.73181 5.06109 3.77333 4.913 3.8473 4.78057C3.92127 4.64813 4.02559 4.53511 4.15168 4.45079C4.27778 4.36647 4.42207 4.31323 4.57272 4.29546C4.72337 4.27769 4.87609 4.29589 5.01835 4.34856C5.06592 4.36652 5.11854 4.36574 5.16556 4.34639C5.21258 4.32703 5.25049 4.29053 5.27163 4.24429C5.33497 4.10642 5.43008 3.98553 5.54917 3.89152C5.66825 3.79751 5.80793 3.73307 5.95673 3.70347C6.10554 3.67387 6.25924 3.67996 6.40523 3.72124C6.55123 3.76252 6.68536 3.83782 6.79664 3.94095C6.83395 3.9753 6.88281 3.99436 6.93352 3.99436C6.98423 3.99436 7.03309 3.9753 7.0704 3.94095C7.18164 3.83782 7.31574 3.76252 7.46171 3.72123C7.60768 3.67995 7.76136 3.67386 7.91014 3.70346C8.05892 3.73306 8.19856 3.79751 8.31761 3.89152C8.43666 3.98553 8.53173 4.10642 8.59503 4.24429C8.61624 4.29057 8.6542 4.3271 8.70127 4.34652C8.74833 4.36593 8.80101 4.3668 8.84869 4.34894C8.99094 4.29627 9.14366 4.27807 9.29431 4.29584C9.44496 4.31361 9.58925 4.36684 9.71535 4.45117C9.84145 4.53549 9.94576 4.64851 10.0197 4.78095C10.0937 4.91338 10.1352 5.06147 10.1409 5.21306C10.1431 5.26379 10.1643 5.31184 10.2002 5.34772C10.2362 5.38359 10.2843 5.40468 10.335 5.40681C10.4866 5.41265 10.6346 5.45431 10.7669 5.52838C10.8992 5.60244 11.0121 5.7068 11.0964 5.83291C11.1806 5.95901 11.2338 6.10328 11.2515 6.25389C11.2692 6.4045 11.251 6.55717 11.1984 6.69939C11.1809 6.74699 11.182 6.79941 11.2014 6.84625C11.2208 6.8931 11.257 6.93095 11.303 6.95229C11.4409 7.01563 11.5618 7.11074 11.6558 7.22983C11.7498 7.34892 11.8143 7.48859 11.8439 7.63739C11.8734 7.7862 11.8674 7.9399 11.8261 8.0859C11.7848 8.23189 11.7095 8.36603 11.6064 8.4773C11.572 8.51467 11.5529 8.5636 11.5529 8.61437C11.5529 8.66515 11.572 8.71407 11.6064 8.75144C11.7095 8.86268 11.7848 8.99678 11.8261 9.14275C11.8674 9.28872 11.8735 9.4424 11.8439 9.59118C11.8143 9.73996 11.7498 9.8796 11.6558 9.99865C11.5618 10.1177 11.4409 10.2128 11.303 10.2761C11.2569 10.2973 11.2205 10.3351 11.201 10.382C11.1816 10.4288 11.1805 10.4813 11.198 10.529C11.2506 10.6712 11.2688 10.8239 11.2511 10.9745C11.2334 11.1251 11.1802 11.2694 11.096 11.3955C11.0118 11.5216 10.8988 11.6259 10.7665 11.7C10.6342 11.774 10.4862 11.8157 10.3346 11.8216C10.2296 11.8261 10.1451 11.9103 10.1405 12.0153C10.1329 12.1973 10.0723 12.3732 9.96647 12.5219V18.8513H21.3415C21.6432 18.8513 21.9325 18.7315 22.1458 18.5181C22.3591 18.3048 22.479 18.0155 22.479 17.7138V4.0638C22.479 3.76212 22.3591 3.47279 22.1458 3.25947C21.9325 3.04615 21.6432 2.9263 21.3415 2.9263H2.38314C2.08145 2.9263 1.79213 3.04615 1.5788 3.25947C1.36548 3.47279 1.24564 3.76212 1.24564 4.0638V17.7138Z" fill="#0E0D0D"/>
<path id="Vector_2" d="M19.0656 15.8198C19.3673 15.8198 19.6566 15.6999 19.8699 15.4866C20.0832 15.2733 20.2031 14.984 20.2031 14.6823V7.09896C20.2031 6.79727 20.0832 6.50795 19.8699 6.29462C19.6566 6.0813 19.3673 5.96146 19.0656 5.96146H12.2406C12.14 5.96146 12.0436 5.92151 11.9725 5.8504C11.9014 5.7793 11.8614 5.68285 11.8614 5.58229C11.8614 5.48173 11.9014 5.38529 11.9725 5.31418C12.0436 5.24307 12.14 5.20312 12.2406 5.20312H19.0656C19.5682 5.20373 20.0501 5.40366 20.4055 5.75907C20.7609 6.11447 20.9608 6.59634 20.9614 7.09896V14.6823C20.9608 15.1849 20.7609 15.6668 20.4055 16.0222C20.0501 16.3776 19.5682 16.5775 19.0656 16.5781H11.8614C11.7609 16.5781 11.6644 16.5382 11.5933 16.4671C11.5222 16.396 11.4823 16.2995 11.4823 16.199C11.4823 16.0984 11.5222 16.002 11.5933 15.9308C11.6644 15.8597 11.7609 15.8198 11.8614 15.8198H19.0656Z" fill="#0E0D0D"/>
<path id="Vector_3" d="M18.6875 11.2676H13.3792C13.2786 11.2676 13.1822 11.2276 13.1111 11.1565C13.04 11.0854 13 10.989 13 10.8884C13 10.7879 13.04 10.6914 13.1111 10.6203C13.1822 10.5492 13.2786 10.5092 13.3792 10.5092H18.6875C18.7881 10.5092 18.8845 10.5492 18.9556 10.6203C19.0267 10.6914 19.0667 10.7879 19.0667 10.8884C19.0667 10.989 19.0267 11.0854 18.9556 11.1565C18.8845 11.2276 18.7881 11.2676 18.6875 11.2676ZM18.6875 9.75091H13.3792C13.2786 9.75091 13.1822 9.71097 13.1111 9.63986C13.04 9.56875 13 9.47231 13 9.37175C13 9.27119 13.04 9.17474 13.1111 9.10363C13.1822 9.03253 13.2786 8.99258 13.3792 8.99258H18.6875C18.7881 8.99258 18.8845 9.03253 18.9556 9.10363C19.0267 9.17474 19.0667 9.27119 19.0667 9.37175C19.0667 9.47231 19.0267 9.56875 18.9556 9.63986C18.8845 9.71097 18.7881 9.75091 18.6875 9.75091ZM18.6875 8.23425H13.3792C13.2786 8.23425 13.1822 8.1943 13.1111 8.12319C13.04 8.05208 13 7.95564 13 7.85508C13 7.75452 13.04 7.65808 13.1111 7.58697C13.1822 7.51586 13.2786 7.47591 13.3792 7.47591H18.6875C18.7881 7.47591 18.8845 7.51586 18.9556 7.58697C19.0267 7.65808 19.0667 7.75452 19.0667 7.85508C19.0667 7.95564 19.0267 8.05208 18.9556 8.12319C18.8845 8.1943 18.7881 8.23425 18.6875 8.23425ZM19.0352 14.8317C19.0153 14.8774 18.9866 14.9187 18.9507 14.9533C18.9149 14.9879 18.8725 15.015 18.8261 15.0332C18.7798 15.0515 18.7303 15.0603 18.6804 15.0594C18.6306 15.0585 18.5815 15.0477 18.5358 15.0278C18.1848 14.8974 17.8622 14.7005 17.5856 14.448C17.483 14.3456 17.3932 14.231 17.3183 14.1068C17.1735 14.2698 17.0036 14.4078 16.8144 14.5163C16.5509 14.6884 16.2229 14.7305 15.9245 14.63C15.81 14.5857 15.7065 14.517 15.6212 14.4291C15.4494 14.5364 15.2606 14.6126 15.0627 14.6547L14.776 14.7225C14.191 14.8939 13.5832 14.9743 12.9735 14.9614C12.9238 14.9578 12.8753 14.9445 12.8308 14.9222C12.7863 14.8999 12.7466 14.869 12.714 14.8313C12.6814 14.7937 12.6566 14.75 12.6409 14.7027C12.6252 14.6555 12.619 14.6056 12.6225 14.5559C12.6261 14.5062 12.6395 14.4578 12.6618 14.4132C12.6841 14.3687 12.715 14.329 12.7526 14.2965C12.7903 14.2639 12.834 14.239 12.8812 14.2233C12.9285 14.2076 12.9784 14.2014 13.0281 14.205C13.56 14.2118 14.0897 14.1379 14.5993 13.9851L14.8924 13.9157C15.2462 13.8342 15.3372 13.6916 15.3747 13.5911C15.4067 13.5058 15.4683 13.4348 15.5483 13.3912C15.6284 13.3476 15.7214 13.3342 15.8105 13.3536C15.8995 13.373 15.9786 13.4238 16.0332 13.4967C16.0879 13.5697 16.1144 13.6598 16.108 13.7507C16.106 13.7841 16.1127 13.8175 16.1275 13.8475C16.1423 13.8775 16.1648 13.9031 16.1926 13.9217C16.2812 13.933 16.3707 13.9099 16.4428 13.8573C16.7495 13.6664 16.9801 13.3747 17.095 13.0322C17.1266 12.9469 17.1877 12.8758 17.2674 12.8318C17.347 12.7879 17.4398 12.774 17.5288 12.7928C17.6178 12.8115 17.6971 12.8617 17.7522 12.934C17.8073 13.0064 17.8346 13.0961 17.8291 13.1869C17.8259 13.3211 17.8503 13.4545 17.9008 13.5789C17.9513 13.7033 18.0268 13.816 18.1225 13.91C18.3331 14.0941 18.5761 14.2374 18.8392 14.3324C18.8848 14.3523 18.9262 14.381 18.9607 14.4169C18.9953 14.4527 19.0225 14.4951 19.0407 14.5414C19.0589 14.5878 19.0678 14.6373 19.0668 14.6871C19.0659 14.737 19.0551 14.7861 19.0352 14.8317ZM6.93334 11.6467C6.3334 11.6467 5.74694 11.4688 5.24811 11.1355C4.74928 10.8022 4.36049 10.3285 4.1309 9.77422C3.90132 9.21995 3.84125 8.61005 3.95829 8.02164C4.07533 7.43323 4.36423 6.89274 4.78845 6.46852C5.21267 6.0443 5.75315 5.75541 6.34156 5.63836C6.92997 5.52132 7.53987 5.58139 8.09414 5.81098C8.64841 6.04056 9.12216 6.42935 9.45546 6.92818C9.78877 7.42701 9.96667 8.01348 9.96667 8.61341C9.96577 9.41763 9.6459 10.1886 9.07723 10.7573C8.50857 11.326 7.73755 11.6458 6.93334 11.6467ZM6.93334 6.33841C6.63458 6.33841 6.33875 6.39726 6.06273 6.51159C5.78672 6.62592 5.53592 6.79349 5.32467 7.00474C5.11342 7.216 4.94584 7.46679 4.83151 7.74281C4.71718 8.01882 4.65834 8.31466 4.65834 8.61341C4.65834 8.91217 4.71718 9.208 4.83151 9.48402C4.94584 9.76003 5.11342 10.0108 5.32467 10.2221C5.53592 10.4333 5.78672 10.6009 6.06273 10.7152C6.33875 10.8296 6.63458 10.8884 6.93334 10.8884C7.53671 10.8884 8.11536 10.6487 8.54201 10.2221C8.96865 9.79544 9.20834 9.21678 9.20834 8.61341C9.20834 8.01005 8.96865 7.43139 8.54201 7.00474C8.11536 6.5781 7.53671 6.33841 6.93334 6.33841Z" fill="#0E0D0D"/>
</g>
</g>
</g>
<defs>
<clipPath id="clip0_672_12642">
<rect width="22.75" height="21.8021" fill="white" transform="matrix(-1 0 0 1 23.2375 0.359375)"/>
</clipPath>
</defs>
</svg>
