<svg width="21" height="20" viewBox="0 0 21 20" fill="none" xmlns="http://www.w3.org/2000/svg">
<g id="svgexport-21 (3) 1">
<g id="Group">
<path id="Vector" d="M4.47887 10.8035H7.53793C8.67746 10.8035 9.60371 11.7298 9.60371 12.8693V15.9284C9.60371 17.0679 8.67746 17.9941 7.53793 17.9941H4.47887C3.33934 17.9941 2.41309 17.0679 2.41309 15.9284V12.8693C2.41309 11.7298 3.33934 10.8035 4.47887 10.8035ZM3.63184 15.9284C3.63343 16.1525 3.72318 16.367 3.88169 16.5255C4.04019 16.684 4.25471 16.7738 4.47887 16.7754H7.53793C7.76208 16.7738 7.9766 16.684 8.13511 16.5255C8.29361 16.367 8.38337 16.1525 8.38496 15.9284V12.8693C8.38496 12.4001 8.00105 12.0223 7.53793 12.0223H4.47887C4.01574 12.0223 3.63184 12.4001 3.63184 12.8693V15.9284ZM4.47887 1.8457H7.53793C8.67746 1.8457 9.60371 2.77195 9.60371 3.91148V6.97055C9.60371 8.11008 8.67746 9.03633 7.53793 9.03633H4.47887C3.33934 9.03633 2.41309 8.11008 2.41309 6.97055V3.91148C2.41309 2.77195 3.33934 1.8457 4.47887 1.8457ZM3.63184 6.97055C3.63184 7.43977 4.01574 7.81758 4.47887 7.81758H7.53793C8.00105 7.81758 8.38496 7.43977 8.38496 6.97055V3.91148C8.38496 3.44836 8.00105 3.06445 7.53793 3.06445H4.47887C4.01574 3.06445 3.63184 3.44836 3.63184 3.91148V6.97055ZM13.4367 10.8035H16.4957C17.6353 10.8035 18.5615 11.7298 18.5615 12.8693V15.9284C18.5615 17.0679 17.6353 17.9941 16.4957 17.9941H13.4367C12.2971 17.9941 11.3709 17.0679 11.3709 15.9284V12.8693C11.3709 11.7298 12.2971 10.8035 13.4367 10.8035ZM12.5896 15.9284C12.5896 16.3915 12.9675 16.7754 13.4367 16.7754H16.4957C16.7199 16.7738 16.9344 16.684 17.0929 16.5255C17.2514 16.367 17.3412 16.1525 17.3428 15.9284V12.8693C17.3428 12.4001 16.9589 12.0223 16.4957 12.0223H13.4367C12.9675 12.0223 12.5896 12.4001 12.5896 12.8693V15.9284ZM13.4367 1.8457H16.4957C17.6353 1.8457 18.5615 2.77195 18.5615 3.91148V6.97055C18.5615 8.11008 17.6353 9.03633 16.4957 9.03633H13.4367C12.2971 9.03633 11.3709 8.11008 11.3709 6.97055V3.91148C11.3709 2.77195 12.2971 1.8457 13.4367 1.8457ZM12.5896 6.97055C12.5896 7.43977 12.9675 7.81758 13.4367 7.81758H16.4957C16.9589 7.81758 17.3428 7.43977 17.3428 6.97055V3.91148C17.3428 3.44836 16.9589 3.06445 16.4957 3.06445H13.4367C12.9675 3.06445 12.5896 3.44836 12.5896 3.91148V6.97055Z" fill="#0E0D0D"/>
</g>
</g>
</svg>
