<svg width="21" height="21" viewBox="0 0 21 21" fill="none" xmlns="http://www.w3.org/2000/svg">
<g id="svgexport-17 - 2023-09-04T191435.735 1" clip-path="url(#clip0_672_12650)">
<g id="Group">
<path id="Vector" d="M12.7215 7.33794H18.8152C19.5993 7.33794 20.2371 6.70015 20.2371 5.91596V2.25971C20.2371 1.47568 19.5993 0.837891 18.8152 0.837891H12.7215C11.9373 0.837891 11.2995 1.47568 11.2995 2.25971V5.91596C11.2995 6.70015 11.9373 7.33794 12.7215 7.33794ZM18.8152 2.05664C18.8691 2.05668 18.9207 2.07809 18.9588 2.11616C18.9969 2.15424 19.0183 2.20587 19.0183 2.25971V5.91596C19.0183 5.96983 18.9969 6.0215 18.9588 6.0596C18.9208 6.09771 18.8691 6.11914 18.8152 6.11919H12.7215C12.6676 6.11917 12.6159 6.09775 12.5778 6.05965C12.5397 6.02154 12.5183 5.96986 12.5183 5.91596V2.25971C12.5183 2.20585 12.5397 2.1542 12.5778 2.11612C12.616 2.07804 12.6676 2.05665 12.7215 2.05664H18.8152ZM12.7215 20.3379H18.8152C19.5993 20.3379 20.2371 19.7001 20.2371 18.9161V10.3848C20.2371 9.60063 19.5993 8.96284 18.8152 8.96284H12.7215C11.9373 8.96284 11.2995 9.60063 11.2995 10.3848V18.9161C11.2995 19.7001 11.9373 20.3379 12.7215 20.3379ZM18.8152 10.1816C18.8691 10.1816 18.9208 10.2031 18.9588 10.2412C18.9969 10.2793 19.0183 10.3309 19.0183 10.3848V18.9161C19.0183 18.9699 18.9969 19.0215 18.9588 19.0596C18.9207 19.0977 18.8691 19.1191 18.8152 19.1191H12.7215C12.6676 19.1191 12.616 19.0977 12.5778 19.0597C12.5397 19.0216 12.5183 18.9699 12.5183 18.9161V10.3848C12.5183 10.3309 12.5397 10.2792 12.5778 10.2411C12.6159 10.203 12.6676 10.1816 12.7215 10.1816H18.8152ZM2.15888 20.3379H8.25263C9.03682 20.3379 9.67461 19.7001 9.67461 18.9161V15.2598C9.67461 14.4756 9.03682 13.8378 8.25263 13.8378H2.15888C1.37485 13.8378 0.737061 14.4756 0.737061 15.2598V18.9161C0.737061 19.7001 1.37485 20.3379 2.15888 20.3379ZM8.25263 15.0566C8.30653 15.0566 8.35821 15.078 8.39631 15.1161C8.43442 15.1542 8.45584 15.2059 8.45586 15.2598V18.9161C8.45581 18.9699 8.43438 19.0216 8.39627 19.0597C8.35817 19.0977 8.3065 19.1191 8.25263 19.1191H2.15888C2.10504 19.1191 2.05341 19.0977 2.01533 19.0596C1.97726 19.0215 1.95585 18.9699 1.95581 18.9161V15.2598C1.95582 15.2059 1.97721 15.1543 2.01529 15.1162C2.05337 15.0781 2.10502 15.0566 2.15888 15.0566H8.25263ZM2.15888 12.2129H8.25263C9.03682 12.2129 9.67461 11.5752 9.67461 10.791V2.25971C9.67461 1.47568 9.03682 0.837891 8.25263 0.837891H2.15888C1.37485 0.837891 0.737061 1.47568 0.737061 2.25971V10.791C0.737061 11.5752 1.37485 12.2129 2.15888 12.2129ZM8.25263 2.05664C8.3065 2.05665 8.35817 2.07804 8.39627 2.11612C8.43438 2.1542 8.45581 2.20585 8.45586 2.25971V10.791C8.45584 10.8449 8.43442 10.8965 8.39631 10.9346C8.35821 10.9728 8.30653 10.9942 8.25263 10.9942H2.15888C2.10502 10.9941 2.05337 10.9727 2.01529 10.9346C1.97721 10.8965 1.95582 10.8448 1.95581 10.791V2.25971C1.95585 2.20587 1.97726 2.15424 2.01533 2.11616C2.05341 2.07809 2.10504 2.05668 2.15888 2.05664H8.25263Z" fill="#0E0D0D"/>
</g>
</g>
<defs>
<clipPath id="clip0_672_12650">
<rect width="19.5" height="19.5" fill="white" transform="matrix(-1 0 0 1 20.2375 0.835938)"/>
</clipPath>
</defs>
</svg>
