<svg width="21" height="20" viewBox="0 0 21 20" fill="none" xmlns="http://www.w3.org/2000/svg">
<g id="settings_black_24dp (1) 1" clip-path="url(#clip0_672_12629)">
<g id="Group">
<path id="Vector" d="M3.1748 6.875V5.04688C3.1748 4.56203 3.36741 4.09704 3.71025 3.7542C4.05309 3.41136 4.51808 3.21875 5.00293 3.21875V2.60938C5.00293 2.12453 5.19553 1.65954 5.53837 1.3167C5.88121 0.973855 6.34621 0.78125 6.83105 0.78125H14.1436C14.6284 0.78125 15.0934 0.973855 15.4362 1.3167C15.7791 1.65954 15.9717 2.12453 15.9717 2.60938V3.21875C16.4565 3.21875 16.9215 3.41136 17.2644 3.7542C17.6072 4.09704 17.7998 4.56203 17.7998 5.04688V6.875C18.2847 6.875 18.7496 7.06761 19.0925 7.41045C19.4353 7.75329 19.6279 8.21828 19.6279 8.70312V17.2344C19.6279 17.7192 19.4353 18.1842 19.0925 18.5271C18.7496 18.8699 18.2847 19.0625 17.7998 19.0625H3.1748C2.68996 19.0625 2.22496 18.8699 1.88212 18.5271C1.53928 18.1842 1.34668 17.7192 1.34668 17.2344V8.70312C1.34668 8.21828 1.53928 7.75329 1.88212 7.41045C2.22496 7.06761 2.68996 6.875 3.1748 6.875ZM14.7529 2.60938C14.7529 2.44776 14.6887 2.29276 14.5744 2.17848C14.4602 2.0642 14.3052 2 14.1436 2H6.83105C6.66944 2 6.51444 2.0642 6.40016 2.17848C6.28588 2.29276 6.22168 2.44776 6.22168 2.60938V3.21875H14.7529V2.60938ZM16.5811 5.04688C16.5811 4.88526 16.5169 4.73026 16.4026 4.61598C16.2883 4.5017 16.1333 4.4375 15.9717 4.4375H5.00293C4.84131 4.4375 4.68632 4.5017 4.57204 4.61598C4.45776 4.73026 4.39355 4.88526 4.39355 5.04688V6.875H16.5811V5.04688ZM2.56543 17.2344C2.56543 17.396 2.62963 17.551 2.74391 17.6653C2.85819 17.7795 3.01319 17.8438 3.1748 17.8438H17.7998C17.9614 17.8438 18.1164 17.7795 18.2307 17.6653C18.345 17.551 18.4092 17.396 18.4092 17.2344V8.70312C18.4092 8.54151 18.345 8.38651 18.2307 8.27223C18.1164 8.15795 17.9614 8.09375 17.7998 8.09375H3.1748C3.01319 8.09375 2.85819 8.15795 2.74391 8.27223C2.62963 8.38651 2.56543 8.54151 2.56543 8.70312V17.2344Z" fill="#0E0D0D"/>
<path id="Vector_2" d="M7.43969 11.872L10.9436 9.6783C11.1401 9.5568 11.3655 9.48997 11.5965 9.48471C11.8275 9.47945 12.0558 9.53595 12.2576 9.64837C12.4595 9.7608 12.6277 9.92507 12.7448 10.1242C12.862 10.3234 12.9239 10.5502 12.9241 10.7813V15.1566C12.9248 15.3876 12.8636 15.6147 12.7468 15.814C12.63 16.0134 12.4618 16.1778 12.2598 16.29C12.0577 16.4028 11.829 16.4594 11.5976 16.4541C11.3661 16.4487 11.1403 16.3815 10.9436 16.2595L7.43969 14.0658C7.25328 13.9498 7.09951 13.7882 6.99289 13.5963C6.88627 13.4044 6.83032 13.1885 6.83032 12.9689C6.83032 12.7494 6.88627 12.5335 6.99289 12.3415C7.09951 12.1496 7.25328 11.988 7.43969 11.872ZM8.08563 13.036L11.5895 15.2236C11.6014 15.2298 11.6146 15.2329 11.6279 15.2326C11.6413 15.2323 11.6543 15.2286 11.6659 15.2219C11.6774 15.2152 11.6871 15.2057 11.694 15.1943C11.7009 15.1829 11.7048 15.1699 11.7053 15.1566V10.7813C11.7068 10.7677 11.704 10.754 11.6975 10.742C11.691 10.7301 11.6809 10.7204 11.6688 10.7142C11.6549 10.7096 11.6399 10.7096 11.6261 10.7142H11.5895L8.08563 12.9019C8.0743 12.909 8.06496 12.9189 8.05849 12.9306C8.05202 12.9424 8.04863 12.9555 8.04863 12.9689C8.04863 12.9823 8.05202 12.9955 8.05849 13.0072C8.06496 13.0189 8.0743 13.0288 8.08563 13.036Z" fill="#0E0D0D"/>
</g>
</g>
<defs>
<clipPath id="clip0_672_12629">
<rect width="19.5" height="19.5" fill="white" transform="matrix(-1 0 0 1 20.2375 0.171875)"/>
</clipPath>
</defs>
</svg>
