<svg width="21" height="21" viewBox="0 0 21 21" fill="none" xmlns="http://www.w3.org/2000/svg">
<g id="svgexport-17 - 2023-09-07T184457.998 1" clip-path="url(#clip0_672_12655)">
<g id="Group">
<path id="Vector" d="M15.6874 20.3379H2.6874C2.34262 20.3379 2.01196 20.2009 1.76816 19.9571C1.52436 19.7133 1.3874 19.3827 1.3874 19.0379V4.35764C1.38772 4.2233 1.41594 4.0905 1.47028 3.96764C1.47333 3.96066 1.47691 3.95392 1.481 3.94749C1.52812 3.8436 1.59326 3.74886 1.6734 3.66767L4.21685 1.12389C4.29804 1.04375 4.39278 0.978613 4.49668 0.931491C4.50311 0.927406 4.50984 0.923821 4.51683 0.920766C4.63978 0.866383 4.7727 0.838161 4.90715 0.837891H15.6874C16.0322 0.837891 16.3628 0.974855 16.6066 1.21865C16.8504 1.46245 16.9874 1.79311 16.9874 2.13789V11.2379H18.9374C19.1098 11.2379 19.2751 11.3064 19.397 11.4283C19.5189 11.5502 19.5874 11.7155 19.5874 11.8879V17.7379C19.5874 17.9103 19.5189 18.0756 19.397 18.1975C19.2751 18.3194 19.1098 18.3879 18.9374 18.3879H16.9874V19.0379C16.9874 19.3827 16.8504 19.7133 16.6066 19.9571C16.3628 20.2009 16.0322 20.3379 15.6874 20.3379ZM2.49695 3.76289H3.3764C3.62456 3.76263 3.86249 3.66394 4.03797 3.48846C4.21344 3.31298 4.31214 3.07505 4.3124 2.82689V1.94744L2.49695 3.76289ZM16.3374 2.13789C16.3374 1.9655 16.2689 1.80017 16.147 1.67827C16.0251 1.55637 15.8598 1.48789 15.6874 1.48789H4.9624V2.82689C4.96197 3.24739 4.79474 3.65055 4.4974 3.94789C4.20006 4.24523 3.7969 4.41246 3.3764 4.41289H2.0374V19.0379C2.0374 19.2103 2.10588 19.3756 2.22778 19.4975C2.34968 19.6194 2.51501 19.6879 2.6874 19.6879H15.6874C15.8598 19.6879 16.0251 19.6194 16.147 19.4975C16.2689 19.3756 16.3374 19.2103 16.3374 19.0379V18.3879H8.5374C8.36501 18.3879 8.19968 18.3194 8.07778 18.1975C7.95588 18.0756 7.8874 17.9103 7.8874 17.7379V11.8879C7.8874 11.7155 7.95588 11.5502 8.07778 11.4283C8.19968 11.3064 8.36501 11.2379 8.5374 11.2379H16.3374V2.13789ZM18.9374 11.8879H8.5374V17.7379H18.9374V11.8879Z" fill="#0E0D0D"/>
<path id="Vector_2" d="M14.7124 3.76328H6.9124C6.82621 3.76328 6.74354 3.72904 6.68259 3.66809C6.62164 3.60714 6.5874 3.52448 6.5874 3.43828C6.5874 3.35209 6.62164 3.26942 6.68259 3.20847C6.74354 3.14752 6.82621 3.11328 6.9124 3.11328H14.7124C14.7986 3.11328 14.8813 3.14752 14.9422 3.20847C15.0032 3.26942 15.0374 3.35209 15.0374 3.43828C15.0374 3.52448 15.0032 3.60714 14.9422 3.66809C14.8813 3.72904 14.7986 3.76328 14.7124 3.76328ZM14.7124 5.38828H6.9124C6.82621 5.38828 6.74354 5.35404 6.68259 5.29309C6.62164 5.23214 6.5874 5.14948 6.5874 5.06328C6.5874 4.97709 6.62164 4.89442 6.68259 4.83347C6.74354 4.77252 6.82621 4.73828 6.9124 4.73828H14.7124C14.7986 4.73828 14.8813 4.77252 14.9422 4.83347C15.0032 4.89442 15.0374 4.97709 15.0374 5.06328C15.0374 5.14948 15.0032 5.23214 14.9422 5.29309C14.8813 5.35404 14.7986 5.38828 14.7124 5.38828ZM14.7124 7.01328H3.6624C3.5762 7.01328 3.49354 6.97904 3.43259 6.91809C3.37164 6.85714 3.3374 6.77448 3.3374 6.68828C3.3374 6.60209 3.37164 6.51942 3.43259 6.45847C3.49354 6.39752 3.5762 6.36328 3.6624 6.36328H14.7124C14.7986 6.36328 14.8813 6.39752 14.9422 6.45847C15.0032 6.51942 15.0374 6.60209 15.0374 6.68828C15.0374 6.77448 15.0032 6.85714 14.9422 6.91809C14.8813 6.97904 14.7986 7.01328 14.7124 7.01328ZM14.7124 8.63828H3.6624C3.5762 8.63828 3.49354 8.60404 3.43259 8.54309C3.37164 8.48214 3.3374 8.39948 3.3374 8.31328C3.3374 8.22709 3.37164 8.14442 3.43259 8.08347C3.49354 8.02252 3.5762 7.98828 3.6624 7.98828H14.7124C14.7986 7.98828 14.8813 8.02252 14.9422 8.08347C15.0032 8.14442 15.0374 8.22709 15.0374 8.31328C15.0374 8.39948 15.0032 8.48214 14.9422 8.54309C14.8813 8.60404 14.7986 8.63828 14.7124 8.63828ZM3.3374 9.93828C3.3374 9.85209 3.37164 9.76942 3.43259 9.70847C3.49354 9.64752 3.5762 9.61328 3.6624 9.61328H14.7124C14.7986 9.61328 14.8813 9.64752 14.9422 9.70847C15.0032 9.76942 15.0374 9.85209 15.0374 9.93828C15.0374 10.0245 15.0032 10.1071 14.9422 10.1681C14.8813 10.229 14.7986 10.2633 14.7124 10.2633H3.6624C3.5762 10.2633 3.49354 10.229 3.43259 10.1681C3.37164 10.1071 3.3374 10.0245 3.3374 9.93828ZM3.6624 11.2383H6.5874C6.6736 11.2383 6.75626 11.2725 6.81721 11.3335C6.87816 11.3944 6.9124 11.4771 6.9124 11.5633C6.9124 11.6495 6.87816 11.7321 6.81721 11.7931C6.75626 11.854 6.6736 11.8883 6.5874 11.8883H3.6624C3.5762 11.8883 3.49354 11.854 3.43259 11.7931C3.37164 11.7321 3.3374 11.6495 3.3374 11.5633C3.3374 11.4771 3.37164 11.3944 3.43259 11.3335C3.49354 11.2725 3.5762 11.2383 3.6624 11.2383ZM3.6624 12.8633H6.5874C6.6736 12.8633 6.75626 12.8975 6.81721 12.9585C6.87816 13.0194 6.9124 13.1021 6.9124 13.1883C6.9124 13.2745 6.87816 13.3571 6.81721 13.4181C6.75626 13.479 6.6736 13.5133 6.5874 13.5133H3.6624C3.5762 13.5133 3.49354 13.479 3.43259 13.4181C3.37164 13.3571 3.3374 13.2745 3.3374 13.1883C3.3374 13.1021 3.37164 13.0194 3.43259 12.9585C3.49354 12.8975 3.5762 12.8633 3.6624 12.8633ZM3.6624 14.4883H6.5874C6.6736 14.4883 6.75626 14.5225 6.81721 14.5835C6.87816 14.6444 6.9124 14.7271 6.9124 14.8133C6.9124 14.8995 6.87816 14.9821 6.81721 15.0431C6.75626 15.104 6.6736 15.1383 6.5874 15.1383H3.6624C3.5762 15.1383 3.49354 15.104 3.43259 15.0431C3.37164 14.9821 3.3374 14.8995 3.3374 14.8133C3.3374 14.7271 3.37164 14.6444 3.43259 14.5835C3.49354 14.5225 3.5762 14.4883 3.6624 14.4883ZM3.6624 16.1133H6.5874C6.6736 16.1133 6.75626 16.1475 6.81721 16.2085C6.87816 16.2694 6.9124 16.3521 6.9124 16.4383C6.9124 16.5245 6.87816 16.6071 6.81721 16.6681C6.75626 16.729 6.6736 16.7633 6.5874 16.7633H3.6624C3.5762 16.7633 3.49354 16.729 3.43259 16.6681C3.37164 16.6071 3.3374 16.5245 3.3374 16.4383C3.3374 16.3521 3.37164 16.2694 3.43259 16.2085C3.49354 16.1475 3.5762 16.1133 3.6624 16.1133ZM3.6624 17.7383H6.5874C6.6736 17.7383 6.75626 17.7725 6.81721 17.8335C6.87816 17.8944 6.9124 17.9771 6.9124 18.0633C6.9124 18.1495 6.87816 18.2321 6.81721 18.2931C6.75626 18.354 6.6736 18.3883 6.5874 18.3883H3.6624C3.5762 18.3883 3.49354 18.354 3.43259 18.2931C3.37164 18.2321 3.3374 18.1495 3.3374 18.0633C3.3374 17.9771 3.37164 17.8944 3.43259 17.8335C3.49354 17.7725 3.5762 17.7383 3.6624 17.7383ZM14.0624 16.7633C13.7176 16.7633 13.387 16.6263 13.1432 16.3825C12.8994 16.1387 12.7624 15.8081 12.7624 15.4633V14.1633C12.7624 13.8185 12.8994 13.4878 13.1432 13.244C13.387 13.0002 13.7176 12.8633 14.0624 12.8633C14.4072 12.8633 14.7378 13.0002 14.9816 13.244C15.2254 13.4878 15.3624 13.8185 15.3624 14.1633V15.4633C15.3624 15.8081 15.2254 16.1387 14.9816 16.3825C14.7378 16.6263 14.4072 16.7633 14.0624 16.7633ZM14.7124 14.1633C14.7124 13.9909 14.6439 13.8256 14.522 13.7037C14.4001 13.5818 14.2348 13.5133 14.0624 13.5133C13.89 13.5133 13.7247 13.5818 13.6028 13.7037C13.4809 13.8256 13.4124 13.9909 13.4124 14.1633V15.4633C13.4124 15.6357 13.4809 15.801 13.6028 15.9229C13.7247 16.0448 13.89 16.1133 14.0624 16.1133C14.2348 16.1133 14.4001 16.0448 14.522 15.9229C14.6439 15.801 14.7124 15.6357 14.7124 15.4633V14.1633ZM15.6874 16.4383C15.6874 16.3521 15.7216 16.2694 15.7826 16.2085C15.8435 16.1475 15.9262 16.1133 16.0124 16.1133H17.3124V13.1883C17.3124 13.1021 17.3466 13.0194 17.4076 12.9585C17.4685 12.8975 17.5512 12.8633 17.6374 12.8633C17.7236 12.8633 17.8063 12.8975 17.8672 12.9585C17.9282 13.0194 17.9624 13.1021 17.9624 13.1883V16.1133C17.9624 16.2857 17.8939 16.451 17.772 16.5729C17.6501 16.6948 17.4848 16.7633 17.3124 16.7633H16.0124C15.9262 16.7633 15.8435 16.729 15.7826 16.6681C15.7216 16.6071 15.6874 16.5245 15.6874 16.4383ZM10.8124 16.7633C10.4676 16.7633 10.137 16.6263 9.89316 16.3825C9.64937 16.1387 9.5124 15.8081 9.5124 15.4633V15.1383C9.5124 15.0521 9.54664 14.9694 9.60759 14.9085C9.66854 14.8475 9.75121 14.8133 9.8374 14.8133H10.4874C10.5736 14.8133 10.6563 14.8475 10.7172 14.9085C10.7782 14.9694 10.8124 15.0521 10.8124 15.1383C10.8124 15.2245 10.7782 15.3071 10.7172 15.3681C10.6563 15.429 10.5736 15.4633 10.4874 15.4633H10.1624C10.1624 15.6357 10.2309 15.801 10.3528 15.9229C10.4747 16.0448 10.64 16.1133 10.8124 16.1133C10.9848 16.1133 11.1501 16.0448 11.272 15.9229C11.3939 15.801 11.4624 15.6357 11.4624 15.4633V14.1633C11.4627 14.0097 11.4087 13.861 11.3098 13.7435C11.211 13.626 11.0737 13.5472 10.9223 13.5213C10.771 13.4953 10.6153 13.5237 10.4829 13.6016C10.3506 13.6794 10.25 13.8016 10.1991 13.9465C10.1679 14.0243 10.1078 14.0871 10.0314 14.1216C9.95502 14.1561 9.86823 14.1598 9.78918 14.1319C9.71013 14.1039 9.64494 14.0465 9.60723 13.9717C9.56952 13.8968 9.56221 13.8102 9.58683 13.7301C9.68908 13.441 9.89022 13.1974 10.1547 13.0423C10.4192 12.8871 10.73 12.8305 11.0322 12.8823C11.3344 12.9342 11.6085 13.0911 11.8062 13.3255C12.0039 13.5599 12.1123 13.8567 12.1124 14.1633V15.4633C12.1124 15.8081 11.9754 16.1387 11.7316 16.3825C11.4878 16.6263 11.1572 16.7633 10.8124 16.7633Z" fill="#0E0D0D"/>
</g>
</g>
<defs>
<clipPath id="clip0_672_12655">
<rect width="19.5" height="19.5" fill="white" transform="matrix(-1 0 0 1 20.2375 0.835938)"/>
</clipPath>
</defs>
</svg>
