<svg width="21" height="23" viewBox="0 0 21 23" fill="none" xmlns="http://www.w3.org/2000/svg">
<g id="svgexport-17 - 2023-09-04T191203.224 1" clip-path="url(#clip0_672_12636)">
<g id="Group">
<path id="Vector" d="M1.31986 4.6634L5.85257 0.211594C5.97414 0.0922254 6.13771 0.0253602 6.30809 0.0253906L17.7676 0.0253906C19.1048 0.0253906 20.1929 1.11327 20.1929 2.45071V19.7867C20.1929 21.124 19.105 22.2121 17.7675 22.2121H3.5507C2.21344 22.2121 1.12538 21.1242 1.12538 19.7867V5.1272C1.12537 5.04084 1.14257 4.95536 1.17597 4.87572C1.20936 4.79609 1.2583 4.72391 1.3199 4.6634H1.31986ZM5.65809 2.2249L3.3648 4.4772H5.45143C5.50622 4.47712 5.55875 4.45531 5.59749 4.41657C5.63623 4.37782 5.65802 4.32529 5.65809 4.2705V2.2249ZM3.55066 20.9121H17.7675C18.388 20.9121 18.8929 20.4073 18.8929 19.7867V2.45076C18.8929 1.83018 18.3881 1.32539 17.7675 1.32539H6.95792V4.27054C6.95792 5.10133 6.282 5.77724 5.45122 5.77724H2.42534V19.7867C2.42534 20.4072 2.93013 20.912 3.5507 20.912L3.55066 20.9121Z" fill="#0E0D0D"/>
<path id="Vector_2" d="M6.14618 10.3379H15.3092C15.6682 10.3379 15.9592 10.6289 15.9592 10.9879C15.9592 11.3469 15.6682 11.6379 15.3092 11.6379H6.14622C5.7872 11.6379 5.49622 11.3469 5.49622 10.9879C5.49622 10.6289 5.78716 10.3379 6.14618 10.3379ZM15.3092 14.2379H7.83791C7.47885 14.2379 7.18791 13.9469 7.18791 13.5879C7.18791 13.2289 7.47885 12.9379 7.83791 12.9379H15.3092C15.6682 12.9379 15.9592 13.2289 15.9592 13.5879C15.9592 13.9469 15.6682 14.2379 15.3092 14.2379ZM6.93654 15.5379H15.3092C15.6682 15.5379 15.9592 15.8289 15.9592 16.1879C15.9592 16.5469 15.6682 16.8379 15.3092 16.8379H6.93654C6.57769 16.8379 6.28654 16.5469 6.28654 16.1879C6.28654 15.8289 6.57769 15.5379 6.93654 15.5379Z" fill="#0E0D0D"/>
</g>
</g>
<defs>
<clipPath id="clip0_672_12636">
<rect width="19.5" height="22.1867" fill="white" transform="matrix(-1 0 0 1 20.2375 0.0234375)"/>
</clipPath>
</defs>
</svg>
