<svg width="21" height="20" viewBox="0 0 21 20" fill="none" xmlns="http://www.w3.org/2000/svg">
<path d="M20.1466 9.59251H15.6259V8.71949C15.6258 8.65686 15.6091 8.59538 15.5774 8.54135C15.5457 8.48732 15.5003 8.44268 15.4457 8.41199L10.6034 5.69044V4.30492H11.5613V4.83156C11.5613 4.9253 11.5985 5.0152 11.6648 5.08148C11.7311 5.14777 11.821 5.18501 11.9147 5.18501H14.8024C14.8592 5.18497 14.9151 5.17128 14.9654 5.14509C15.0157 5.11889 15.059 5.08097 15.0916 5.03452C15.1242 4.98807 15.1451 4.93445 15.1526 4.87821C15.1601 4.82197 15.1539 4.76475 15.1347 4.71138L14.8448 3.88785L15.1382 3.08199C15.1575 3.02862 15.1636 2.9714 15.1562 2.91515C15.1487 2.85891 15.1277 2.80529 15.0952 2.75884C15.0626 2.71238 15.0193 2.67446 14.9689 2.64827C14.9186 2.62208 14.8627 2.60839 14.8059 2.60837H13.4911V2.09587C13.4911 2.00213 13.4539 1.91223 13.3876 1.84594C13.3213 1.77966 13.2314 1.74242 13.1377 1.74242H10.6034V1.31121C10.6034 1.21747 10.5662 1.12757 10.4999 1.06129C10.4336 0.995002 10.3437 0.957764 10.25 0.957764C10.1563 0.957764 10.0664 0.995002 10.0001 1.06129C9.93379 1.12757 9.89655 1.21747 9.89655 1.31121V5.69044L5.05431 8.40845C4.99971 8.43914 4.95425 8.48379 4.92258 8.53782C4.89091 8.59185 4.87416 8.65332 4.87405 8.71595V9.58897H0.353448C0.259708 9.58897 0.169807 9.62621 0.103523 9.69249C0.0372382 9.75878 0 9.84868 0 9.94242L0 19.1886C0 19.2824 0.0372382 19.3723 0.103523 19.4386C0.169807 19.5048 0.259708 19.5421 0.353448 19.5421H20.1466C20.2403 19.5421 20.3302 19.5048 20.3965 19.4386C20.4628 19.3723 20.5 19.2824 20.5 19.1886V9.94595C20.5 9.85221 20.4628 9.76231 20.3965 9.69603C20.3302 9.62974 20.2403 9.59251 20.1466 9.59251ZM13.4911 3.95147L13.477 3.93733V3.3294H14.2828L14.1379 3.78182C14.109 3.86053 14.109 3.94698 14.1379 4.0257L14.3041 4.47811H12.2682V4.30492H13.1377C13.2314 4.30492 13.3213 4.26768 13.3876 4.2014C13.4539 4.13511 13.4911 4.04521 13.4911 3.95147ZM10.6034 2.44932H12.7842V3.59802H10.6034V2.44932ZM4.87405 18.8352H0.706897V10.2994H4.87405V18.8352ZM9.89655 18.8352H8.04095V14.7988H9.89655V18.8352ZM12.4591 18.8352H10.6034V14.7988H12.4591V18.8352ZM14.9332 18.8352H13.1659V14.4454C13.1659 14.3516 13.1287 14.2617 13.0624 14.1954C12.9961 14.1291 12.9062 14.0919 12.8125 14.0919H7.6875C7.59376 14.0919 7.50386 14.1291 7.43757 14.1954C7.37129 14.2617 7.33405 14.3516 7.33405 14.4454V18.8352H5.56681V8.93863L10.25 6.3019L14.9191 8.92449L14.9332 9.94242V18.8352ZM19.7931 18.8352H15.6259V10.2994H19.7931V18.8352Z" fill="#0E0D0D"/>
<path d="M10.25 7.38354C9.43149 7.38549 8.76904 8.04953 8.76904 8.86803C8.77099 9.68595 9.4356 10.3474 10.2535 10.3454C11.0715 10.3435 11.7329 9.67888 11.7309 8.86096C11.729 8.04445 11.0665 7.38354 10.25 7.38354ZM10.25 9.63855C9.8225 9.6366 9.47753 9.28845 9.47947 8.86096C9.48142 8.43625 9.82524 8.09239 10.25 8.09044C10.6781 8.09239 11.024 8.43996 11.024 8.86803H11.0276C11.0256 9.29552 10.6775 9.64049 10.25 9.63855ZM1.5587 11.0771H2.2656V12.4909H1.5587V11.0771ZM3.3012 11.0771H4.0081V12.4909H3.3012V11.0771ZM6.64129 11.0771H8.05508V11.784H6.64129V11.0771ZM9.5431 11.0771H10.9569V11.784H9.5431V11.0771ZM12.4449 11.0771H13.8587V11.784H12.4449V11.0771ZM6.64129 12.7241H8.05508V13.431H6.64129V12.7241ZM9.5431 12.7241H10.9569V13.431H9.5431V12.7241ZM12.4449 12.7241H13.8587V13.431H12.4449V12.7241ZM1.5587 13.8587H2.2656V15.2725H1.5587V13.8587ZM3.3012 13.8587H4.0081V15.2725H3.3012V13.8587ZM1.5587 16.6439H2.2656V18.0577H1.5587V16.6439ZM3.3012 16.6439H4.0081V18.0577H3.3012V16.6439ZM16.4919 11.0771H17.1988V12.4909H16.4919V11.0771ZM18.2344 11.0771H18.9413V12.4909H18.2344V11.0771ZM16.4919 13.8587H17.1988V15.2725H16.4919V13.8587ZM18.2344 13.8587H18.9413V15.2725H18.2344V13.8587ZM16.4919 16.6439H17.1988V18.0577H16.4919V16.6439ZM18.2344 16.6439H18.9413V18.0577H18.2344V16.6439Z" fill="#0E0D0D"/>
</svg>
