<svg width="21" height="21" viewBox="0 0 21 21" fill="none" xmlns="http://www.w3.org/2000/svg">
<g id="svgexport-17 - 2023-09-07T184446.680 1" clip-path="url(#clip0_672_12661)">
<g id="Group">
<path id="Vector" d="M9.57706 20.3359H11.3971C11.6946 20.3357 11.9818 20.2264 12.2042 20.0288C12.4267 19.8312 12.5691 19.5589 12.6044 19.2634L12.7986 17.7392C13.1823 17.6146 13.5556 17.4601 13.915 17.2769L15.1289 18.2202C15.3633 18.4044 15.6573 18.4958 15.9548 18.4769C16.2524 18.4581 16.5325 18.3302 16.7417 18.1178L18.0214 16.8381C18.2326 16.6291 18.3595 16.3497 18.3778 16.0531C18.3961 15.7565 18.3045 15.4635 18.1205 15.2302L17.1772 14.0155C17.3611 13.6564 17.5157 13.2831 17.6395 12.8991L19.167 12.7049C19.4621 12.6685 19.7337 12.5255 19.9307 12.3029C20.1278 12.0802 20.2367 11.7933 20.2371 11.4959V9.67594C20.2371 9.06088 19.7764 8.54169 19.1646 8.46856L17.6403 8.27437C17.5158 7.89068 17.3612 7.5174 17.178 7.158L18.1205 5.94413C18.3052 5.70973 18.3968 5.41538 18.3778 5.11756C18.3587 4.81974 18.2304 4.53946 18.0173 4.3305L16.7376 3.05081C16.5285 2.83974 16.2491 2.71298 15.9526 2.6947C15.656 2.67641 15.3631 2.76789 15.1297 2.95169L13.9158 3.89581C13.5562 3.71248 13.1826 3.55789 12.7986 3.4335L12.6044 1.906C12.5313 1.29663 12.0121 0.835938 11.3971 0.835938H9.57706C8.962 0.835938 8.44281 1.29663 8.36969 1.90844L8.1755 3.43269C7.78712 3.55863 7.41337 3.71381 7.05831 3.895L5.84443 2.95169C5.6101 2.76721 5.31592 2.67572 5.01829 2.69476C4.72066 2.71381 4.44054 2.84204 4.23162 3.05487L2.95194 4.33456C2.51562 4.75788 2.47175 5.45094 2.85281 5.9425L3.79612 7.15719C3.61412 7.51225 3.45893 7.886 3.33381 8.27356L1.80631 8.46775C1.51145 8.50419 1.24005 8.6471 1.04315 8.86959C0.846242 9.09208 0.737392 9.37883 0.737061 9.67594V11.4959C0.737061 12.111 1.19775 12.6302 1.80956 12.7033L3.33381 12.8975C3.45835 13.2812 3.61293 13.6545 3.79612 14.0139L2.85281 15.2277C2.66833 15.4621 2.57684 15.7563 2.59589 16.0539C2.61493 16.3515 2.74316 16.6316 2.956 16.8406L4.23569 18.1203C4.44459 18.3316 4.72408 18.4586 5.02072 18.4769C5.31736 18.4952 5.61034 18.4035 5.84362 18.2194L7.05831 17.2761C7.4174 17.4599 7.79073 17.6145 8.17469 17.7384L8.36887 19.2659C8.40513 19.5609 8.54796 19.8325 8.77046 20.0295C8.99297 20.2266 9.27983 20.3356 9.57706 20.3359ZM13.9564 16.3872C13.889 16.3872 13.8199 16.4042 13.7582 16.4384C13.3022 16.6922 12.8186 16.8929 12.3168 17.0364C12.2405 17.0583 12.1723 17.102 12.1206 17.1622C12.069 17.2224 12.036 17.2965 12.0259 17.3752L11.7984 19.1627C11.7741 19.3666 11.5977 19.5234 11.3971 19.5234H9.57706C9.47855 19.5221 9.38383 19.4853 9.31026 19.4198C9.23668 19.3543 9.18919 19.2644 9.1765 19.1668L8.94819 17.376C8.93809 17.2973 8.90517 17.2233 8.85347 17.163C8.80178 17.1028 8.73359 17.0591 8.65731 17.0372C8.15555 16.8937 7.67193 16.693 7.21594 16.4392C7.14634 16.4003 7.06684 16.3828 6.98735 16.3889C6.90787 16.395 6.83194 16.4243 6.76906 16.4733L5.34719 17.5783C5.2706 17.64 5.17399 17.6712 5.07582 17.6661C4.97764 17.661 4.88479 17.6199 4.815 17.5507L3.52719 16.2629C3.45674 16.1931 3.41454 16.0998 3.40869 16.0008C3.40284 15.9018 3.43375 15.8042 3.4955 15.7266L4.6005 14.3047C4.64939 14.2418 4.67869 14.1659 4.68476 14.0864C4.69083 14.007 4.67339 13.9275 4.63462 13.8579C4.38079 13.4019 4.18015 12.9183 4.03662 12.4165C4.01473 12.3402 3.97098 12.272 3.91077 12.2203C3.85056 12.1686 3.77652 12.1357 3.69781 12.1256L1.91031 11.8981C1.81181 11.8858 1.72107 11.8383 1.65479 11.7644C1.58851 11.6905 1.55114 11.5952 1.54956 11.4959V9.67594C1.55089 9.57743 1.58768 9.48271 1.6532 9.40913C1.71871 9.33556 1.80855 9.28807 1.90625 9.27538L3.697 9.04706C3.77571 9.03697 3.84974 9.00404 3.90995 8.95235C3.97017 8.90066 4.01392 8.83246 4.03581 8.75619C4.17933 8.25443 4.37998 7.77081 4.63381 7.31481C4.67289 7.24528 4.69051 7.16574 4.68443 7.08621C4.67836 7.00668 4.64887 6.93073 4.59969 6.86794L3.49468 5.44606C3.43283 5.36978 3.40135 5.27333 3.40629 5.17524C3.41124 5.07715 3.45227 4.98436 3.5215 4.91469L4.80931 3.62687C4.87879 3.55593 4.97219 3.51339 5.07132 3.50753C5.17045 3.50168 5.26821 3.53292 5.34556 3.59519L6.76744 4.70019C6.83044 4.74925 6.90651 4.77865 6.98614 4.78472C7.06576 4.79079 7.14541 4.77325 7.21512 4.73431C7.67101 4.48026 8.15466 4.2796 8.6565 4.13631C8.73277 4.11442 8.80097 4.07067 8.85266 4.01046C8.90435 3.95024 8.93728 3.87621 8.94737 3.7975L9.17487 2.01C9.18701 1.91135 9.23441 1.82042 9.30833 1.75398C9.38224 1.68753 9.47768 1.65005 9.57706 1.64844H11.3971C11.4956 1.64977 11.5903 1.68656 11.6639 1.75208C11.7374 1.81759 11.7849 1.90743 11.7976 2.00513L12.0259 3.79587C12.0361 3.87466 12.069 3.94877 12.1207 4.0091C12.1724 4.06943 12.2405 4.11336 12.3168 4.1355C12.8186 4.27851 13.3023 4.4789 13.7582 4.73269C13.8278 4.77174 13.9074 4.78941 13.987 4.78349C14.0667 4.77756 14.1428 4.74831 14.2059 4.69938L15.6277 3.59437C15.704 3.53252 15.8005 3.50104 15.8986 3.50598C15.9967 3.51093 16.0895 3.55196 16.1591 3.62119L17.4469 4.90981C17.5174 4.97957 17.5596 5.0729 17.5654 5.17187C17.5713 5.27084 17.5404 5.36849 17.4786 5.44606L16.3736 6.86794C16.3247 6.93087 16.2954 7.00679 16.2894 7.08624C16.2833 7.1657 16.3007 7.24519 16.3395 7.31481C16.5937 7.77064 16.7943 8.25431 16.9375 8.75619C16.9594 8.83246 17.0031 8.90066 17.0634 8.95235C17.1236 9.00404 17.1976 9.03697 17.2763 9.04706L19.0638 9.27456C19.1623 9.28654 19.2531 9.3338 19.3195 9.4076C19.3858 9.48139 19.4231 9.57672 19.4246 9.67594V11.4959C19.4246 11.6966 19.2677 11.8729 19.0679 11.8965L17.2771 12.1248C17.1984 12.1349 17.1244 12.1678 17.0642 12.2195C17.004 12.2712 16.9602 12.3394 16.9383 12.4157C16.7921 12.9243 16.5906 13.4094 16.3403 13.8571C16.3012 13.9266 16.2836 14.0061 16.2897 14.0857C16.2958 14.1652 16.3252 14.2411 16.3744 14.3039L17.4794 15.7258C17.5413 15.8021 17.5728 15.8986 17.5678 15.9966C17.5629 16.0947 17.5218 16.1875 17.4526 16.2572L16.1648 17.545C16.0951 17.6156 16.0018 17.6579 15.9028 17.6638C15.8037 17.6696 15.7061 17.6386 15.6286 17.5767L14.2067 16.4717C14.1346 16.4172 14.0468 16.3876 13.9564 16.3872Z" fill="#0E0D0D"/>
<path id="Vector_2" d="M10.4871 14.6484C12.7271 14.6484 14.5496 12.826 14.5496 10.5859C14.5496 8.34588 12.7271 6.52344 10.4871 6.52344C8.247 6.52344 6.42456 8.34588 6.42456 10.5859C6.42456 12.826 8.247 14.6484 10.4871 14.6484ZM10.4871 7.33594C12.2794 7.33594 13.7371 8.79356 13.7371 10.5859C13.7371 12.3783 12.2794 13.8359 10.4871 13.8359C8.69469 13.8359 7.23706 12.3783 7.23706 10.5859C7.23706 8.79356 8.69469 7.33594 10.4871 7.33594Z" fill="#0E0D0D"/>
</g>
</g>
<defs>
<clipPath id="clip0_672_12661">
<rect width="19.5" height="19.5" fill="white" transform="matrix(-1 0 0 1 20.2375 0.835938)"/>
</clipPath>
</defs>
</svg>
