<svg width="21" height="20" viewBox="0 0 21 20" fill="none" xmlns="http://www.w3.org/2000/svg">
<g clip-path="url(#clip0_672_12622)">
<g clip-path="url(#clip1_672_12622)">
<path d="M7.54929 9.39921C6.30155 8.48923 5.48903 7.01652 5.48903 5.35742C5.48903 2.60042 7.73202 0.357422 10.489 0.357422C13.246 0.357422 15.489 2.60042 15.489 5.35742C15.489 7.01652 14.6765 8.48923 13.4288 9.39921C16.5305 10.5862 18.739 13.5935 18.739 17.1074C18.739 18.6238 17.5054 19.8574 15.989 19.8574H4.98904C3.47268 19.8574 2.23904 18.6238 2.23904 17.1074C2.23904 13.5935 4.44757 10.5862 7.54929 9.39921ZM13.989 5.35742C13.989 3.42753 12.4189 1.85744 10.489 1.85744C8.55914 1.85744 6.98904 3.42753 6.98904 5.35742C6.98904 7.28731 8.55914 8.85744 10.489 8.85744C12.4189 8.85744 13.989 7.28731 13.989 5.35742ZM4.98904 18.3574H15.989C16.6783 18.3574 17.239 17.7967 17.239 17.1074C17.239 13.3854 14.211 10.3574 10.489 10.3574C6.76696 10.3574 3.73898 13.3854 3.73898 17.1074C3.73902 17.7967 4.29976 18.3574 4.98904 18.3574Z" fill="#0E0D0D"/>
</g>
</g>
<defs>
<clipPath id="clip0_672_12622">
<rect width="19.5" height="19.5" fill="white" transform="matrix(-1 0 0 1 20.2375 0.359375)"/>
</clipPath>
<clipPath id="clip1_672_12622">
<rect width="19.5" height="19.5" fill="white" transform="matrix(-1 0 0 1 20.2373 0.359375)"/>
</clipPath>
</defs>
</svg>
