<svg width="64" height="64" viewBox="0 0 64 64" fill="none" xmlns="http://www.w3.org/2000/svg">
<g id="svgexport-17 - 2023-09-12T155103.056 2" clip-path="url(#clip0_120_91412)">
<g id="Group">
<path id="Vector" d="M63.31 34.8798L60.1375 33.8498C59.7466 32.358 59.1532 30.9267 58.3738 29.596L59.8888 26.6235C60.085 26.2373 60.0113 25.7685 59.705 25.461L56.3175 22.0735C56.1682 21.9241 55.9754 21.8258 55.7668 21.7928C55.5581 21.7598 55.3444 21.7937 55.1563 21.8898L52.1838 23.4048C50.8523 22.6268 49.4213 22.0335 47.93 21.641L46.9 18.4723C46.8346 18.2712 46.7072 18.096 46.5361 17.9719C46.365 17.8477 46.1589 17.7809 45.9475 17.781H41.1575C40.7238 17.781 40.34 18.0598 40.205 18.4723L39.1738 21.641C37.6828 22.0333 36.2522 22.6266 34.9213 23.4048L31.95 21.8898C31.7617 21.7937 31.5477 21.7597 31.3389 21.7927C31.1301 21.8257 30.937 21.924 30.7875 22.0735L27.4 25.461C27.2505 25.6105 27.1522 25.8036 27.1192 26.0124C27.0862 26.2212 27.1202 26.4352 27.2163 26.6235L28.3225 28.7985C27.8738 28.7573 27.4188 28.736 26.96 28.736H14.9725C6.71625 28.736 0 35.4523 0 43.7085V55.5498C0 57.2735 1.4025 58.6773 3.1275 58.6773H38.8C39.3625 58.6773 39.8913 58.5273 40.3475 58.266C40.4403 58.3935 40.562 58.4972 40.7025 58.5687C40.8431 58.6401 40.9986 58.6774 41.1563 58.6773H45.9463C46.38 58.6773 46.7638 58.3985 46.8988 57.986L47.9288 54.8173C49.4209 54.4262 50.8525 53.8327 52.1838 53.0535L55.1563 54.5685C55.5425 54.7648 56.0113 54.691 56.3188 54.3848L59.7063 50.9973C59.8557 50.8478 59.954 50.6547 59.9871 50.4459C60.0201 50.237 59.9861 50.0231 59.89 49.8348L58.375 46.8623C59.1534 45.531 59.7468 44.1 60.1388 42.6085L63.3113 41.5785C63.5123 41.5131 63.6875 41.3857 63.8117 41.2146C63.9359 41.0435 64.0027 40.8374 64.0025 40.626V35.8323C64.0022 35.6208 63.935 35.4148 63.8107 35.2438C63.6863 35.0727 63.5111 34.9453 63.31 34.8798ZM23.1725 42.7773L20.9625 46.6923L18.7538 42.7773L19.8763 30.7385H22.0525L23.1725 42.7773ZM38.8 56.6748H32.1688V49.3135C32.1688 48.761 31.7213 48.3123 31.1675 48.3123C30.6138 48.3123 30.1663 48.7598 30.1663 49.3135V56.6748H11.7588V49.3135C11.7588 48.761 11.3113 48.3123 10.7575 48.3123C10.2038 48.3123 9.75625 48.7598 9.75625 49.3135V56.6748H3.125C2.505 56.6748 2 56.1698 2 55.5498V43.7085C2 36.556 7.81875 30.7385 14.97 30.7385H17.865L16.73 42.9035C16.7112 43.1067 16.7548 43.3108 16.855 43.4885L20.09 49.2223C20.2675 49.5373 20.6 49.731 20.9613 49.731C21.3225 49.731 21.655 49.536 21.8325 49.2223L25.0675 43.4885C25.1677 43.3108 25.2113 43.1067 25.1925 42.9035L24.0613 30.7385H26.9563C29.9175 30.7385 32.6488 31.7373 34.835 33.4148C34.8775 33.4585 34.925 33.4985 34.9775 33.5348C34.995 33.5473 35.0125 33.5573 35.03 33.5673C38.01 35.946 39.9238 39.6085 39.9238 43.7098V55.551C39.925 56.171 39.42 56.6748 38.8 56.6748ZM36.9313 32.5535C38.58 30.631 40.9938 29.5048 43.5513 29.5048C48.36 29.5048 52.2738 33.4173 52.2738 38.226C52.2738 43.0373 48.3613 46.951 43.5513 46.951C43.0075 46.951 42.4638 46.8985 41.9263 46.796V43.7073C41.9263 39.281 39.995 35.2973 36.9313 32.5535ZM62 39.8985L58.99 40.8748C58.8247 40.9282 58.6762 41.0238 58.5589 41.152C58.4417 41.2801 58.3598 41.4366 58.3213 41.606C57.9456 43.265 57.2895 44.8478 56.3813 46.286C56.2887 46.4328 56.2359 46.6011 56.228 46.7744C56.2201 46.9478 56.2574 47.1202 56.3363 47.2748L57.7738 50.0948L55.415 52.4535L52.595 51.016C52.4405 50.9369 52.2681 50.8994 52.0947 50.9073C51.9213 50.9152 51.7529 50.9682 51.6063 51.061C50.168 51.9693 48.5853 52.6254 46.9263 53.001C46.757 53.0395 46.6007 53.1212 46.4725 53.2382C46.3443 53.3552 46.2487 53.5035 46.195 53.6685L45.2188 56.6748H41.8825L41.8013 56.4235C41.8825 56.146 41.9263 55.8535 41.9263 55.5498V48.8285C42.4638 48.911 43.0075 48.9548 43.5513 48.9548C49.465 48.9548 54.275 44.1423 54.275 38.2273C54.275 32.3148 49.4638 27.5035 43.5513 27.5035C40.375 27.5035 37.3813 28.9135 35.3525 31.3185C33.9588 30.37 32.4144 29.6646 30.785 29.2323C30.7775 29.216 30.7713 29.1998 30.7638 29.1835L29.3288 26.361L31.6875 24.0023L34.5088 25.4398C34.6632 25.5183 34.8354 25.5555 35.0084 25.5476C35.1815 25.5397 35.3496 25.4871 35.4963 25.3948C36.9413 24.4848 38.515 23.831 40.1738 23.4548C40.3426 23.4166 40.4986 23.3352 40.6266 23.2187C40.7545 23.1021 40.85 22.9543 40.9038 22.7898L41.8838 19.781H45.22L46.1963 22.7873C46.2496 22.9525 46.3451 23.101 46.4733 23.2181C46.6015 23.3351 46.7581 23.4167 46.9275 23.4548C48.5875 23.831 50.1625 24.4835 51.6075 25.3948C51.7543 25.4873 51.9226 25.5402 52.0959 25.548C52.2693 25.5559 52.4417 25.5186 52.5963 25.4398L55.4163 24.0023L57.775 26.361L56.3375 29.181C56.2586 29.3356 56.2213 29.508 56.2292 29.6813C56.2371 29.8547 56.2899 30.023 56.3825 30.1698C57.2908 31.608 57.9469 33.1907 58.3225 34.8498C58.361 35.0192 58.4429 35.1756 58.5602 35.3038C58.6774 35.432 58.826 35.5276 58.9913 35.581L62.0013 36.5573V39.8985H62ZM20.9625 27.0498C26.9525 27.0498 31.825 22.176 31.825 16.1848C31.825 10.1948 26.9525 5.32227 20.9625 5.32227C14.9738 5.32227 10.1 10.1948 10.1 16.1848C10.1 22.176 14.9738 27.0498 20.9625 27.0498ZM20.9625 7.32477C25.8475 7.32477 29.8225 11.2998 29.8225 16.1848C29.8225 21.0723 25.8475 25.0485 20.9625 25.0485C16.0775 25.0485 12.1025 21.0723 12.1025 16.1848C12.1025 11.2985 16.0775 7.32477 20.9625 7.32477Z" fill="#122333"/>
</g>
</g>
<defs>
<clipPath id="clip0_120_91412">
<rect width="64" height="64" fill="white"/>
</clipPath>
</defs>
</svg>
