<svg width="60" height="59" viewBox="0 0 60 59" fill="none" xmlns="http://www.w3.org/2000/svg">
<g clip-path="url(#clip0_3196_229528)">
<path d="M21.1273 27.2808C17.3694 24.5401 14.9223 20.1046 14.9223 15.1077C14.9223 6.80424 21.6777 0.0488281 29.9812 0.0488281C38.2847 0.0488281 45.0401 6.80424 45.0401 15.1077C45.0401 20.1046 42.5931 24.5401 38.8351 27.2808C48.1768 30.8556 54.8284 39.9129 54.8284 50.4962C54.8284 55.0631 51.1129 58.7786 46.546 58.7786H13.4164C8.84949 58.7786 5.13403 55.0631 5.13403 50.4962C5.13403 39.9129 11.7856 30.8556 21.1273 27.2808ZM40.5224 15.1077C40.5224 9.29533 35.7936 4.56655 29.9812 4.56655C24.1688 4.56655 19.44 9.29533 19.44 15.1077C19.44 20.9202 24.1688 25.649 29.9812 25.649C35.7936 25.649 40.5224 20.9202 40.5224 15.1077ZM13.4164 54.2609H46.546C48.6218 54.2609 50.3106 52.5721 50.3106 50.4961C50.3106 39.2863 41.191 30.1665 29.9811 30.1665C18.7711 30.1665 9.65152 39.2862 9.65152 50.4961C9.65163 52.5721 11.3405 54.2609 13.4164 54.2609Z" fill="white"/>
</g>
<defs>
<clipPath id="clip0_3196_229528">
<rect width="58.7298" height="58.7298" fill="white" transform="matrix(-1 0 0 1 59.3457 0.0488281)"/>
</clipPath>
</defs>
</svg>
