<svg width="31" height="30" viewBox="0 0 31 30" fill="none" xmlns="http://www.w3.org/2000/svg">
<path d="M14.1408 20.9144C14.2003 20.9145 14.2592 20.9028 14.3142 20.8801C14.3692 20.8573 14.4191 20.8239 14.4612 20.7817L21.3439 13.899C21.4288 13.8139 21.4766 13.6986 21.4766 13.5784C21.4766 13.4582 21.4288 13.3429 21.3439 13.2579C21.2588 13.1729 21.1435 13.1252 21.0233 13.1252C20.9031 13.1252 20.7878 13.1729 20.7027 13.2579L13.82 20.1405C13.7351 20.2256 13.6873 20.3409 13.6873 20.4611C13.6873 20.5813 13.7351 20.6966 13.82 20.7817C13.8621 20.8238 13.9121 20.8573 13.9671 20.88C14.0222 20.9028 14.0812 20.9145 14.1407 20.9144L14.1408 20.9144Z" fill="#8AC129"/>
<path d="M11.2049 19.7465C11.3209 19.7465 11.437 19.7021 11.5254 19.6138L20.1551 10.984C20.1972 10.9419 20.2306 10.892 20.2534 10.837C20.2762 10.782 20.288 10.723 20.288 10.6635C20.288 10.604 20.2762 10.545 20.2534 10.49C20.2306 10.435 20.1972 10.385 20.1551 10.343C20.113 10.3008 20.0631 10.2674 20.0081 10.2447C19.9531 10.2219 19.8941 10.2101 19.8346 10.2101C19.7751 10.2101 19.7161 10.2219 19.6611 10.2447C19.6061 10.2674 19.5562 10.3008 19.5141 10.343L10.8843 18.9725C10.7993 19.0576 10.7516 19.1729 10.7516 19.2931C10.7516 19.4134 10.7993 19.5287 10.8843 19.6138C10.9264 19.6559 10.9764 19.6893 11.0314 19.7121C11.0864 19.7349 11.1454 19.7466 11.2049 19.7465Z" fill="#FF4C4C"/>
<path d="M10.0371 16.8138C10.1531 16.8138 10.2691 16.7696 10.3577 16.6811L17.2404 9.79835C17.2829 9.75633 17.3167 9.70633 17.3398 9.65121C17.3629 9.59609 17.3748 9.53695 17.375 9.47719C17.3752 9.41743 17.3635 9.35822 17.3407 9.30298C17.3179 9.24774 17.2844 9.19755 17.2421 9.1553C17.1999 9.11305 17.1497 9.07957 17.0944 9.05679C17.0392 9.03401 16.98 9.02238 16.9202 9.02256C16.8604 9.02274 16.8013 9.03474 16.7462 9.05786C16.6911 9.08098 16.6411 9.11477 16.5991 9.15728L9.71667 16.0397C9.67454 16.0818 9.64112 16.1318 9.61832 16.1868C9.59552 16.2418 9.58379 16.3008 9.58379 16.3604C9.58379 16.4199 9.59552 16.4789 9.61832 16.5339C9.64112 16.589 9.67454 16.639 9.71667 16.6811C9.7587 16.7232 9.80864 16.7566 9.86362 16.7794C9.9186 16.8022 9.97754 16.8139 10.0371 16.8138V16.8138Z" fill="#8AC129"/>
<path d="M3.12855 9.64425C3.18807 9.64434 3.24702 9.63265 3.302 9.60986C3.35699 9.58708 3.40693 9.55364 3.44894 9.51148L10.0032 2.95753C10.0457 2.91551 10.0795 2.86551 10.1026 2.81039C10.1257 2.75527 10.1377 2.69613 10.1378 2.63637C10.138 2.57661 10.1263 2.5174 10.1035 2.46216C10.0807 2.40692 10.0473 2.35673 10.005 2.31448C9.96272 2.27223 9.91252 2.23875 9.85727 2.21597C9.80202 2.19319 9.74281 2.18156 9.68305 2.18174C9.62328 2.18192 9.56415 2.19392 9.50904 2.21704C9.45393 2.24016 9.40393 2.27395 9.36193 2.31646L2.80787 8.87047C2.76575 8.91255 2.73234 8.96251 2.70954 9.01751C2.68674 9.07251 2.67501 9.13147 2.67501 9.191C2.67501 9.25054 2.68674 9.30949 2.70954 9.36449C2.73234 9.41949 2.76575 9.46946 2.80787 9.51154C2.84993 9.55371 2.89992 9.58715 2.95495 9.60994C3.00999 9.63272 3.06898 9.64441 3.12855 9.64431V9.64425ZM21.3077 27.8237C21.4237 27.8237 21.5398 27.7795 21.6284 27.6909L28.1827 21.1366C28.2676 21.0516 28.3153 20.9363 28.3153 20.8161C28.3153 20.6959 28.2676 20.5806 28.1827 20.4956C28.0976 20.4106 27.9822 20.3629 27.862 20.3629C27.7417 20.3629 27.6264 20.4106 27.5413 20.4956L20.987 27.0498C20.902 27.1349 20.8543 27.2501 20.8543 27.3703C20.8543 27.4905 20.902 27.6058 20.987 27.6908C21.0291 27.733 21.0791 27.7665 21.1341 27.7893C21.1891 27.8121 21.2482 27.8238 21.3077 27.8237Z" fill="#FF4C4C"/>
<path d="M22.1609 19.0324C24.9523 18.5045 27.8577 18.4206 30.2072 20.7698C30.5975 21.1602 30.5977 21.7931 30.2072 22.1836C29.8168 22.574 29.1839 22.5738 28.7934 22.1836C26.8884 20.2786 24.4636 20.5581 21.6718 21.1721C21.83 20.4528 22.0039 19.7361 22.1609 19.0323V19.0324Z" fill="#FFBF14"/>
<path d="M22.1612 19.0316C22.5771 18.9528 22.9955 18.8842 23.4143 18.8318C23.2628 19.5241 23.0968 20.2085 22.9374 20.9178C22.5247 20.9898 22.1026 21.0766 21.6721 21.1714C21.8312 20.4481 22.0037 19.7375 22.1612 19.0316Z" fill="#E0A812"/>
<path d="M8.31818 1.70674C7.92771 1.31627 7.92771 0.683399 8.31818 0.292931C8.70841 -0.0975382 9.34152 -0.0973038 9.73175 0.292931C15.3067 5.86783 7.2015 14.1968 11.753 18.7484C13.9102 20.9058 16.7342 20.2617 20.0033 19.5023C19.8362 20.2205 19.6684 20.944 19.533 21.6611C16.4064 22.358 13.0128 22.8358 10.3392 20.1622C4.75041 14.5731 12.8681 6.25672 8.31818 1.70674Z" fill="#FFBF14"/>
<path d="M19.5327 21.6613C19.1587 21.7446 18.781 21.8249 18.4013 21.8968C18.5293 21.1815 18.69 20.4734 18.8543 19.7646C19.2306 19.6819 19.6137 19.5929 20.0033 19.5025C19.8362 20.2202 19.6691 20.9394 19.5327 21.6613Z" fill="#E0A812"/>
<path d="M10.9969 10.4977C11.1635 9.78224 11.3331 9.04864 11.4672 8.33907C14.5938 7.64216 17.9874 7.16444 20.661 9.83802C26.2239 15.4013 18.1476 23.7591 22.682 28.2935C23.0725 28.6837 23.0725 29.3168 22.682 29.707C22.2915 30.0975 21.6587 30.0975 21.2684 29.707C15.6583 24.0972 23.8228 15.8272 19.2472 11.2518C17.0898 9.0944 14.266 9.73841 10.9969 10.4977Z" fill="#45748C"/>
<path d="M11.4703 8.33948C11.8532 8.25411 12.2398 8.17219 12.6289 8.09866C12.506 8.81216 12.3485 9.52008 12.1849 10.2282C11.7969 10.3132 11.4017 10.4047 10.9999 10.4981C11.1666 9.78264 11.3362 9.04905 11.4703 8.33948Z" fill="#3A6175"/>
<path d="M0.791079 7.81708C1.18155 7.42662 1.81442 7.42662 2.20489 7.81708C4.10989 9.72208 6.53467 9.44259 9.32678 8.82853C9.167 9.5541 8.99491 10.2617 8.83741 10.9684C5.74934 11.5522 3.0119 11.4515 0.791079 9.23066C0.400845 8.84042 0.400845 8.20732 0.791079 7.81708Z" fill="#45748C"/>
<path d="M8.21877 9.05446C8.58106 8.98825 8.95073 8.91161 9.32678 8.82899C9.167 9.55456 8.99491 10.2622 8.83741 10.9688C8.47307 11.0377 8.10686 11.099 7.73995 11.1482C7.88848 10.471 8.06127 9.75618 8.21877 9.05446Z" fill="#3A6175"/>
</svg>
