<svg width="32" height="30" viewBox="0 0 32 30" fill="none" xmlns="http://www.w3.org/2000/svg">
<g id="Group">
<g id="Group_2" opacity="0.5">
<path id="Vector" d="M16.0368 27.0825C9.03833 27.0825 3.36493 21.6724 3.36493 14.9988C3.36493 8.32518 9.03833 2.91513 16.0368 2.91513C23.0353 2.91513 28.7087 8.32518 28.7087 14.9988C28.7087 21.6724 23.0353 27.0825 16.0368 27.0825Z" fill="#33AEFF"/>
<path id="Vector_2" d="M6.15362 5.96416C6.15227 6.03843 6.16629 6.11222 6.19486 6.18132C6.22343 6.25042 6.26599 6.31348 6.32012 6.36689C6.37425 6.42031 6.43889 6.46303 6.51033 6.49262C6.58178 6.52221 6.65864 6.53808 6.73653 6.53934H17.2289C17.3818 6.52988 17.5251 6.46529 17.6299 6.35869C17.7347 6.25209 17.793 6.11146 17.793 5.96537C17.793 5.81927 17.7347 5.67865 17.6299 5.57205C17.5251 5.46545 17.3818 5.40086 17.2289 5.39139H17.0515C17.054 5.34551 17.054 5.29952 17.0515 5.25364C17.0586 4.76627 16.8786 4.29324 16.5453 3.92374C16.2119 3.55423 15.7483 3.31379 15.2419 3.24775C15.227 2.58688 14.9451 1.95702 14.4549 1.48961C13.9648 1.0222 13.3043 0.753355 12.6112 0.739178C12.2623 0.739985 11.9173 0.809079 11.5975 0.942183C11.2239 1.1024 10.8931 1.34102 10.6298 1.64024C10.3665 1.93945 10.1775 2.29151 10.0768 2.67015C9.82227 2.55949 9.54561 2.5026 9.26584 2.50339C8.99258 2.5078 8.72291 2.5635 8.47223 2.6673C8.22155 2.7711 7.99477 2.92098 7.80484 3.10838C7.61492 3.29577 7.46556 3.51701 7.36532 3.75945C7.26507 4.0019 7.21589 4.2608 7.22059 4.52137C7.2199 4.82158 7.28733 5.11838 7.41827 5.39139H6.7568C6.67743 5.39009 6.59859 5.404 6.52496 5.43229C6.45133 5.46059 6.3844 5.50269 6.32815 5.5561C6.2719 5.60952 6.22747 5.67316 6.19749 5.74325C6.16751 5.81335 6.15259 5.88847 6.15362 5.96416Z" fill="white"/>
<path id="Vector_3" d="M6.15028 5.96564C6.14893 6.03991 6.16295 6.1137 6.19151 6.1828C6.22008 6.2519 6.26265 6.31496 6.31678 6.36838C6.37091 6.42179 6.43554 6.46451 6.50699 6.4941C6.57844 6.52369 6.6553 6.53956 6.73318 6.54082H12.3925C10.9149 6.54082 10.2661 6.03331 10.2509 5.1802C10.2487 5.01656 10.2915 4.85523 10.3751 4.71231C10.4587 4.56939 10.5802 4.4499 10.7274 4.36576C10.7821 4.33157 10.8208 4.27851 10.8355 4.2177C10.8501 4.15689 10.8395 4.09304 10.8059 4.0395C9.95185 2.53388 11.5865 0.943665 11.5865 0.943665C11.2129 1.10388 10.8822 1.34251 10.6188 1.64172C10.3555 1.94093 10.1665 2.29299 10.0659 2.67163C9.81132 2.56097 9.53467 2.50408 9.25489 2.50488C8.96594 2.50469 8.68038 2.56422 8.41787 2.67937C8.15536 2.79452 7.92214 2.96255 7.73426 3.17189C7.39299 3.5466 7.20571 4.02656 7.20711 4.52285C7.20642 4.82306 7.27385 5.11986 7.40479 5.39287H6.74332C6.6648 5.39287 6.58705 5.40773 6.5146 5.4366C6.44215 5.46548 6.37643 5.50778 6.32126 5.56106C6.26609 5.61435 6.22257 5.67755 6.19322 5.747C6.16386 5.81645 6.14927 5.89077 6.15028 5.96564Z" fill="white"/>
<path id="Vector_4" d="M6.15383 5.96532C6.15249 6.03959 6.1665 6.11338 6.19507 6.18248C6.22364 6.25158 6.2662 6.31464 6.32033 6.36805C6.37446 6.42147 6.4391 6.46419 6.51055 6.49378C6.58199 6.52337 6.65885 6.53924 6.73674 6.5405H9.76025C9.49682 6.45939 9.26496 6.3048 9.09463 6.09671C8.9243 5.88862 8.82334 5.6366 8.80479 5.37322C8.79737 5.32203 8.77293 5.27446 8.73507 5.23749C8.69721 5.20052 8.64792 5.17609 8.59444 5.1678C8.15852 5.11221 7.19292 4.8077 7.72768 3.17157C7.38641 3.54628 7.19912 4.02624 7.20053 4.52253C7.19983 4.82274 7.26727 5.11954 7.39821 5.39255H6.73674C6.57989 5.3951 6.43049 5.4568 6.32124 5.56414C6.21199 5.67149 6.15179 5.81574 6.15383 5.96532Z" fill="#B9D7FF"/>
<path id="Vector_5" d="M6.73265 6.78151H17.225C17.4428 6.7777 17.651 6.69488 17.807 6.5499C17.9631 6.40492 18.0554 6.20868 18.0651 6.00111C18.0748 5.79355 18.0011 5.59027 17.8592 5.43264C17.7173 5.27501 17.5177 5.17488 17.301 5.15263C17.2848 4.65828 17.0972 4.18301 16.7674 3.80123C16.4377 3.41945 15.9845 3.15273 15.4788 3.04282C15.4293 2.412 15.1531 1.81677 14.6967 1.35763C14.2404 0.898492 13.6319 0.603556 12.974 0.522612C12.316 0.441668 11.649 0.579672 11.0854 0.91333C10.5218 1.24699 10.0961 1.75586 9.88035 2.35405C9.66914 2.29316 9.44968 2.26221 9.22902 2.26222C8.61059 2.27239 8.02163 2.51596 7.59121 2.93953C7.1608 3.3631 6.92405 3.93212 6.93287 4.52186C6.93283 4.73415 6.96266 4.94549 7.02157 5.15022H6.72251C6.50371 5.16158 6.29779 5.25246 6.14712 5.40418C5.99644 5.5559 5.91247 5.75691 5.91247 5.96586C5.91247 6.17482 5.99644 6.37583 6.14712 6.52755C6.29779 6.67926 6.50371 6.77015 6.72251 6.78151H6.73265ZM17.225 5.63356C17.3123 5.64067 17.3936 5.67875 17.4529 5.74029C17.5121 5.80182 17.545 5.88232 17.545 5.96586C17.545 6.04941 17.5121 6.1299 17.4529 6.19144C17.3936 6.25297 17.3123 6.29106 17.225 6.29816H6.73265C6.64279 6.29501 6.55785 6.25825 6.49619 6.19584C6.43454 6.13343 6.40112 6.05038 6.40318 5.96465C6.40183 5.92224 6.4093 5.87999 6.42516 5.84035C6.44102 5.8007 6.46496 5.76444 6.49559 5.73366C6.52622 5.70288 6.56294 5.67819 6.60362 5.66101C6.64431 5.64383 6.68816 5.6345 6.73265 5.63356H7.39412C7.43719 5.63364 7.47958 5.62326 7.51727 5.60338C7.55496 5.58351 7.58672 5.5548 7.60955 5.51998C7.63415 5.48453 7.64851 5.44352 7.65117 5.40109C7.65384 5.35865 7.64473 5.3163 7.62475 5.2783C7.50857 5.03729 7.4489 4.77503 7.44988 4.50978C7.44105 4.04822 7.62439 3.60213 7.95975 3.2692C8.29511 2.93627 8.75516 2.74363 9.23915 2.73348C9.48382 2.73309 9.72576 2.78252 9.94878 2.87848C9.98214 2.89321 10.0185 2.90083 10.0552 2.90083C10.092 2.90083 10.1283 2.89321 10.1617 2.87848C10.1951 2.86341 10.2247 2.84154 10.2484 2.8144C10.272 2.78726 10.2891 2.75552 10.2985 2.7214C10.4347 2.18086 10.774 1.70669 11.2521 1.38867C11.7303 1.07066 12.3142 0.930881 12.8932 0.995801C13.4721 1.06072 14.0061 1.32583 14.3938 1.74094C14.7816 2.15605 14.9963 2.69233 14.9973 3.24824C14.9968 3.30762 15.0193 3.36507 15.0604 3.40965C15.1016 3.45422 15.1585 3.48279 15.2203 3.48992C15.6631 3.55053 16.0673 3.76327 16.3572 4.08815C16.647 4.41303 16.8024 4.82768 16.7941 5.25413V5.37497C16.7917 5.4081 16.7965 5.44136 16.8081 5.47266C16.8197 5.50396 16.838 5.53264 16.8618 5.55691C16.8856 5.58117 16.9144 5.6005 16.9463 5.61369C16.9783 5.62688 17.0128 5.63364 17.0476 5.63356H17.225Z" fill="#353166"/>
<path id="Vector_6" d="M14.0773 2.59151C14.1049 2.57377 14.1286 2.55099 14.147 2.52449C14.1655 2.498 14.1782 2.46829 14.1846 2.43709C14.1909 2.40588 14.1908 2.37379 14.1841 2.34264C14.1774 2.3115 14.1644 2.28192 14.1457 2.25559C13.9769 2.0135 13.7483 1.81463 13.4801 1.67642C13.2119 1.53821 12.9122 1.46489 12.6073 1.4629C12.5401 1.4629 12.4756 1.48836 12.4281 1.53368C12.3806 1.57901 12.3539 1.64048 12.3539 1.70457C12.3539 1.76867 12.3806 1.83014 12.4281 1.87546C12.4756 1.92078 12.5401 1.94625 12.6073 1.94625C12.8295 1.94838 13.0478 2.00236 13.243 2.10346C13.4383 2.20457 13.6046 2.34973 13.7275 2.52626C13.7651 2.57885 13.8229 2.61519 13.8883 2.62741C13.9538 2.63962 14.0217 2.62672 14.0773 2.59151Z" fill="#353166"/>
<path id="Vector_7" d="M19.582 13.6986C19.5806 13.7729 19.5946 13.8467 19.6232 13.9158C19.6518 13.9849 19.6943 14.048 19.7485 14.1014C19.8026 14.1548 19.8672 14.1975 19.9387 14.2271C20.0101 14.2567 20.087 14.2726 20.1649 14.2738H30.6572C30.8101 14.2644 30.9535 14.1998 31.0582 14.0932C31.163 13.9866 31.2213 13.8459 31.2213 13.6998C31.2213 13.5537 31.163 13.4131 31.0582 13.3065C30.9535 13.1999 30.8101 13.1353 30.6572 13.1259H30.4798C30.4823 13.08 30.4823 13.034 30.4798 12.9881C30.487 12.5008 30.3069 12.0277 29.9736 11.6582C29.6403 11.2887 29.1767 11.0483 28.6703 10.9822C28.6554 10.3214 28.3735 9.6915 27.8833 9.22409C27.3931 8.75668 26.7326 8.48783 26.0396 8.47366C25.6906 8.47446 25.3456 8.54356 25.0258 8.67666C24.6482 8.83478 24.3132 9.07274 24.0462 9.37252C23.7793 9.67231 23.5873 10.0261 23.4849 10.407C23.2303 10.2964 22.9537 10.2395 22.6739 10.2403C22.4007 10.2447 22.131 10.3004 21.8803 10.4042C21.6296 10.508 21.4028 10.6579 21.2129 10.8453C21.023 11.0327 20.8736 11.2539 20.7734 11.4963C20.6731 11.7388 20.624 11.9977 20.6287 12.2583C20.628 12.5585 20.6954 12.8553 20.8263 13.1283H20.1649C20.0085 13.1308 19.8595 13.1922 19.7503 13.299C19.6411 13.4058 19.5806 13.5495 19.582 13.6986Z" fill="white"/>
<path id="Vector_8" d="M19.5834 13.6999C19.582 13.7742 19.5961 13.848 19.6246 13.9171C19.6532 13.9862 19.6958 14.0492 19.7499 14.1027C19.804 14.1561 19.8687 14.1988 19.9401 14.2284C20.0115 14.258 20.0884 14.2739 20.1663 14.2751H25.8256C24.348 14.2751 23.6992 13.7676 23.684 12.9145C23.6818 12.7508 23.7246 12.5895 23.8082 12.4466C23.8918 12.3037 24.0133 12.1842 24.1605 12.1C24.2152 12.0659 24.2539 12.0128 24.2686 11.952C24.2832 11.8912 24.2726 11.8273 24.239 11.7738C23.3748 10.2778 25.0196 8.68762 25.0196 8.68762C24.6445 8.84564 24.3118 9.0825 24.0463 9.38048C23.7807 9.67846 23.5893 10.0298 23.4863 10.4083C23.2318 10.2977 22.9551 10.2408 22.6753 10.2416C22.3864 10.2414 22.1008 10.3009 21.8383 10.4161C21.5758 10.5312 21.3426 10.6993 21.1547 10.9086C20.8134 11.2833 20.6261 11.7633 20.6275 12.2596C20.6269 12.5598 20.6943 12.8566 20.8252 13.1296H20.1663C20.0099 13.1321 19.8609 13.1935 19.7517 13.3003C19.6425 13.4071 19.582 13.5508 19.5834 13.6999Z" fill="#122333"/>
<path id="Vector_9" d="M19.583 13.6998C19.5817 13.7741 19.5957 13.8479 19.6243 13.917C19.6528 13.9861 19.6954 14.0491 19.7495 14.1025C19.8037 14.1559 19.8683 14.1987 19.9397 14.2283C20.0112 14.2578 20.0881 14.2737 20.1659 14.275H23.1895C22.926 14.1939 22.6942 14.0393 22.5238 13.8312C22.3535 13.6231 22.2525 13.3711 22.234 13.1077C22.2266 13.0565 22.2021 13.0089 22.1643 12.972C22.1264 12.935 22.0771 12.9106 22.0236 12.9023C21.5877 12.8467 20.6221 12.5422 21.1569 10.9061C20.8156 11.2808 20.6283 11.7607 20.6297 12.257C20.629 12.5572 20.6965 12.854 20.8274 13.127H20.1659C20.0091 13.1296 19.8597 13.1913 19.7504 13.2986C19.6412 13.406 19.581 13.5502 19.583 13.6998Z" fill="#B9D7FF"/>
<path id="Vector_10" d="M20.1665 14.516H30.6588C30.8767 14.5122 31.0848 14.4294 31.2409 14.2844C31.397 14.1394 31.4892 13.9432 31.4989 13.7356C31.5086 13.528 31.435 13.3247 31.293 13.1671C31.1511 13.0095 30.9515 12.9094 30.7349 12.8871C30.7187 12.3928 30.531 11.9175 30.2013 11.5357C29.8715 11.1539 29.4183 10.8872 28.9126 10.7773C28.8631 10.1465 28.5869 9.55125 28.1306 9.09211C27.6742 8.63297 27.0657 8.33803 26.4078 8.25709C25.7499 8.17615 25.0828 8.31415 24.5192 8.64781C23.9556 8.98147 23.53 9.49034 23.3142 10.0885C23.103 10.0276 22.8835 9.99669 22.6629 9.99669C22.0444 10.0069 21.4555 10.2504 21.0251 10.674C20.5946 11.0976 20.3579 11.6666 20.3667 12.2563C20.3667 12.4686 20.3965 12.68 20.4554 12.8847H20.1665C19.9477 12.8961 19.7418 12.9869 19.5911 13.1387C19.4404 13.2904 19.3564 13.4914 19.3564 13.7003C19.3564 13.9093 19.4404 14.1103 19.5911 14.262C19.7418 14.4137 19.9477 14.5046 20.1665 14.516ZM30.6588 13.368C30.7461 13.3751 30.8274 13.4132 30.8867 13.4748C30.9459 13.5363 30.9788 13.6168 30.9788 13.7003C30.9788 13.7839 30.9459 13.8644 30.8867 13.9259C30.8274 13.9875 30.7461 14.0255 30.6588 14.0326H20.1665C20.0766 14.0295 19.9917 13.9927 19.93 13.9303C19.8684 13.8679 19.835 13.7849 19.837 13.6991C19.8357 13.6567 19.8431 13.6145 19.859 13.5748C19.8749 13.5352 19.8988 13.4989 19.9294 13.4681C19.9601 13.4374 19.9968 13.4127 20.0375 13.3955C20.0781 13.3783 20.122 13.369 20.1665 13.368H20.828C20.871 13.3681 20.9134 13.3577 20.9511 13.3379C20.9888 13.318 21.0206 13.2893 21.0434 13.2545C21.068 13.219 21.0823 13.178 21.085 13.1356C21.0877 13.0931 21.0786 13.0508 21.0586 13.0128C20.9424 12.7718 20.8827 12.5095 20.8837 12.2443C20.8749 11.7827 21.0582 11.3366 21.3936 11.0037C21.7289 10.6707 22.189 10.4781 22.673 10.468C22.9177 10.4676 23.1596 10.517 23.3826 10.613C23.416 10.6277 23.4523 10.6353 23.4891 10.6353C23.5258 10.6353 23.5621 10.6277 23.5955 10.613C23.629 10.5979 23.6585 10.576 23.6822 10.5489C23.7058 10.5217 23.723 10.49 23.7324 10.4559C23.8624 9.96381 24.1593 9.52647 24.5768 9.21182C24.9943 8.89716 25.5091 8.7228 26.0412 8.71583C26.6715 8.72516 27.2734 8.96793 27.7194 9.39279C28.1654 9.81766 28.4207 10.3913 28.4311 10.9924C28.4307 11.0518 28.4531 11.1092 28.4943 11.1538C28.5354 11.1984 28.5923 11.2269 28.6541 11.2341C29.0951 11.2945 29.498 11.5058 29.7876 11.8287C30.0772 12.1515 30.2337 12.5638 30.228 12.9886V13.1094C30.2255 13.1426 30.2303 13.1758 30.2419 13.2071C30.2536 13.2384 30.2719 13.2671 30.2956 13.2914C30.3194 13.3156 30.3482 13.335 30.3802 13.3482C30.4121 13.3614 30.4466 13.3681 30.4814 13.368H30.6588Z" fill="white"/>
<path id="Vector_11" d="M27.3718 10.3671C27.4217 10.3676 27.4704 10.3532 27.5112 10.326C27.5389 10.3082 27.5626 10.2855 27.581 10.259C27.5994 10.2325 27.6122 10.2028 27.6185 10.1716C27.6249 10.1404 27.6247 10.1083 27.618 10.0771C27.6114 10.046 27.5983 10.0164 27.5796 9.99006C27.4108 9.74798 27.1823 9.5491 26.9141 9.4109C26.6458 9.27269 26.3461 9.19937 26.0413 9.19738C25.9741 9.19738 25.9096 9.22284 25.8621 9.26816C25.8145 9.31348 25.7878 9.37495 25.7878 9.43905C25.7878 9.50315 25.8145 9.56462 25.8621 9.60994C25.9096 9.65526 25.9741 9.68072 26.0413 9.68072C26.2635 9.68286 26.4817 9.73684 26.677 9.83794C26.8723 9.93905 27.0386 10.0842 27.1615 10.2607C27.1847 10.2935 27.2161 10.3204 27.2527 10.3389C27.2894 10.3575 27.3303 10.3671 27.3718 10.3671Z" fill="#353166"/>
<path id="Vector_12" d="M0.830252 16.1153C0.828909 16.1896 0.842922 16.2634 0.871491 16.3325C0.900061 16.4016 0.942626 16.4646 0.996757 16.518C1.05089 16.5715 1.11552 16.6142 1.18697 16.6438C1.25842 16.6734 1.33528 16.6892 1.41316 16.6905H11.9055C12.0584 16.681 12.2018 16.6164 12.3065 16.5098C12.4113 16.4032 12.4696 16.2626 12.4696 16.1165C12.4696 15.9704 12.4113 15.8298 12.3065 15.7232C12.2018 15.6166 12.0584 15.552 11.9055 15.5425H11.7281C11.7306 15.4967 11.7306 15.4507 11.7281 15.4048C11.7353 14.9174 11.5552 14.4444 11.2219 14.0749C10.8886 13.7054 10.425 13.4649 9.91854 13.3989C9.90368 12.738 9.62174 12.1082 9.13158 11.6408C8.64142 11.1734 7.98089 10.9045 7.28786 10.8903C6.93893 10.8911 6.59389 10.9602 6.2741 11.0933C5.90053 11.2536 5.56974 11.4922 5.30643 11.7914C5.04312 12.0906 4.8541 12.4427 4.75348 12.8213C4.4989 12.7106 4.22225 12.6538 3.94247 12.6545C3.66922 12.659 3.39955 12.7146 3.14887 12.8185C2.89818 12.9223 2.6714 13.0721 2.48148 13.2595C2.29155 13.4469 2.1422 13.6682 2.04195 13.9106C1.94171 14.153 1.89253 14.4119 1.89723 14.6725C1.89653 14.9727 1.96397 15.2695 2.09491 15.5425H1.43343C1.35406 15.5412 1.27522 15.5552 1.20159 15.5834C1.12796 15.6117 1.06104 15.6538 1.00478 15.7073C0.948533 15.7607 0.904101 15.8243 0.874121 15.8944C0.844141 15.9645 0.829223 16.0396 0.830252 16.1153Z" fill="white"/>
<path id="Vector_13" d="M0.830817 16.1135C0.829474 16.1877 0.843487 16.2615 0.872056 16.3306C0.900626 16.3997 0.943192 16.4628 0.997322 16.5162C1.05145 16.5696 1.11609 16.6123 1.18753 16.6419C1.25898 16.6715 1.33584 16.6874 1.41373 16.6887H7.073C5.59545 16.6887 4.94665 16.1811 4.93145 15.328C4.9292 15.1644 4.97202 15.0031 5.05563 14.8601C5.13924 14.7172 5.26071 14.5977 5.40791 14.5136C5.46264 14.4794 5.50138 14.4263 5.51602 14.3655C5.53067 14.3047 5.52008 14.2409 5.48648 14.1873C4.62225 12.6914 6.26706 11.1012 6.26706 11.1012C5.89349 11.2614 5.5627 11.5 5.29939 11.7992C5.03608 12.0984 4.84706 12.4505 4.74644 12.8291C4.49186 12.7185 4.21521 12.6616 3.93543 12.6624C3.64648 12.6622 3.36092 12.7217 3.09841 12.8369C2.8359 12.952 2.60268 13.12 2.41481 13.3294C2.07353 13.7041 1.88625 14.1841 1.88765 14.6803C1.88696 14.9806 1.9544 15.2774 2.08534 15.5504H1.42386C1.26701 15.5504 1.11655 15.6096 1.00541 15.7152C0.894265 15.8207 0.831488 15.9639 0.830817 16.1135Z" fill="#122333"/>
<path id="Vector_14" d="M0.829732 16.1149C0.828389 16.1892 0.842402 16.263 0.870971 16.3321C0.899541 16.4012 0.942106 16.4642 0.996236 16.5176C1.05037 16.5711 1.115 16.6138 1.18645 16.6434C1.2579 16.673 1.33476 16.6888 1.41264 16.6901H4.43616C4.17273 16.609 3.94086 16.4544 3.77053 16.2463C3.60021 16.0382 3.49924 15.7862 3.48069 15.5228C3.47327 15.4716 3.44883 15.4241 3.41098 15.3871C3.37312 15.3501 3.32383 15.3257 3.27034 15.3174C2.83443 15.2618 1.86883 14.9573 2.40358 13.3212C2.06231 13.6959 1.87503 14.1758 1.87643 14.6721C1.87574 14.9723 1.94317 15.2691 2.07411 15.5421H1.41264C1.25579 15.5447 1.10639 15.6064 0.997143 15.7137C0.887894 15.8211 0.827698 15.9653 0.829732 16.1149Z" fill="#B9D7FF"/>
<path id="Vector_15" d="M1.41393 16.9327H11.9063C12.1241 16.9289 12.3323 16.846 12.4883 16.7011C12.6444 16.5561 12.7367 16.3598 12.7463 16.1523C12.756 15.9447 12.6824 15.7414 12.5405 15.5838C12.3985 15.4262 12.1989 15.326 11.9823 15.3038C11.9661 14.8094 11.7785 14.3342 11.4487 13.9524C11.119 13.5706 10.6658 13.3039 10.1601 13.194C10.1106 12.5631 9.83434 11.9679 9.378 11.5088C8.92166 11.0496 8.31317 10.7547 7.65524 10.6738C6.99731 10.5928 6.33023 10.7308 5.76663 11.0645C5.20303 11.3981 4.77741 11.907 4.56163 12.5052C4.35041 12.4443 4.13095 12.4134 3.91029 12.4134C3.29187 12.4235 2.7029 12.6671 2.27249 13.0907C1.84207 13.5143 1.60533 14.0833 1.61414 14.673C1.6141 14.8853 1.64394 15.0966 1.70285 15.3014H1.40379C1.17973 15.3039 0.965865 15.3911 0.80909 15.5438C0.652313 15.6964 0.565413 15.9021 0.567442 16.1158C0.56957 16.2235 0.593945 16.3297 0.639172 16.4284C0.6844 16.5271 0.749592 16.6163 0.831017 16.691C0.906462 16.7662 0.996869 16.8263 1.09695 16.8678C1.19704 16.9093 1.3048 16.9313 1.41393 16.9327ZM11.9063 15.7847C11.9936 15.7918 12.0749 15.8299 12.1341 15.8914C12.1934 15.953 12.2263 16.0335 12.2263 16.117C12.2263 16.2006 12.1934 16.2811 12.1341 16.3426C12.0749 16.4041 11.9936 16.4422 11.9063 16.4493H1.41393C1.32407 16.4462 1.23912 16.4094 1.17747 16.347C1.11581 16.2846 1.0824 16.2015 1.08446 16.1158C1.08311 16.0734 1.09058 16.0311 1.10644 15.9915C1.1223 15.9519 1.14623 15.9156 1.17686 15.8848C1.20749 15.854 1.24421 15.8293 1.2849 15.8122C1.32559 15.795 1.36944 15.7857 1.41393 15.7847H2.0754C2.11847 15.7848 2.16085 15.7744 2.19854 15.7545C2.23624 15.7347 2.26799 15.706 2.29082 15.6711C2.31542 15.6357 2.32978 15.5947 2.33245 15.5522C2.33512 15.5098 2.32601 15.4675 2.30603 15.4295C2.18985 15.1884 2.13017 14.9262 2.13116 14.6609C2.12232 14.1994 2.30566 13.7533 2.64102 13.4203C2.97638 13.0874 3.43644 12.8948 3.92043 12.8846C4.1651 12.8842 4.40704 12.9337 4.63006 13.0296C4.66342 13.0444 4.69974 13.052 4.7365 13.052C4.77326 13.052 4.80958 13.0444 4.84294 13.0296C4.8764 13.0146 4.90599 12.9927 4.92963 12.9656C4.95327 12.9384 4.9704 12.9067 4.9798 12.8725C5.11596 12.332 5.45525 11.8578 5.93342 11.5398C6.41159 11.2218 6.99544 11.082 7.57443 11.147C8.15342 11.2119 8.68735 11.477 9.07512 11.8921C9.46289 12.3072 9.67758 12.8435 9.67854 13.3994C9.67809 13.4588 9.70058 13.5162 9.74172 13.5608C9.78285 13.6054 9.83975 13.6339 9.90157 13.6411C10.3443 13.7017 10.7486 13.9144 11.0384 14.2393C11.3283 14.5642 11.4837 14.9788 11.4754 15.4053V15.5261C11.473 15.5593 11.4777 15.5925 11.4894 15.6238C11.501 15.6551 11.5193 15.6838 11.5431 15.7081C11.5669 15.7323 11.5956 15.7517 11.6276 15.7648C11.6596 15.778 11.694 15.7848 11.7289 15.7847H11.9063Z" fill="white"/>
<path id="Vector_16" d="M8.7578 12.7427C8.78546 12.7249 8.80917 12.7021 8.82758 12.6756C8.846 12.6491 8.85874 12.6194 8.8651 12.5882C8.87146 12.557 8.8713 12.5249 8.86463 12.4938C8.85795 12.4627 8.84491 12.4331 8.82623 12.4067C8.65741 12.1647 8.42886 11.9658 8.16064 11.8276C7.89242 11.6894 7.59273 11.616 7.28786 11.614C7.22064 11.614 7.15618 11.6395 7.10865 11.6848C7.06112 11.7302 7.03442 11.7916 7.03442 11.8557C7.03442 11.9198 7.06112 11.9813 7.10865 12.0266C7.15618 12.0719 7.22064 12.0974 7.28786 12.0974C7.51004 12.0995 7.7283 12.1535 7.92357 12.2546C8.11884 12.3557 8.28518 12.5009 8.40805 12.6774C8.44561 12.73 8.50339 12.7663 8.56887 12.7786C8.63434 12.7908 8.70223 12.7779 8.7578 12.7427Z" fill="#353166"/>
<g id="Group_3">
<path id="Vector_17" d="M11.4745 11.1306H11.7279V10.889C11.7279 10.8249 11.7546 10.7634 11.8022 10.7181C11.8497 10.6728 11.9142 10.6473 11.9814 10.6473C12.0486 10.6473 12.1131 10.6728 12.1606 10.7181C12.2081 10.7634 12.2348 10.8249 12.2348 10.889V11.1306H12.4883C12.5555 11.1306 12.6199 11.1561 12.6675 11.2014C12.715 11.2468 12.7417 11.3082 12.7417 11.3723C12.7417 11.4364 12.715 11.4979 12.6675 11.5432C12.6199 11.5885 12.5555 11.614 12.4883 11.614H12.2348V11.8557C12.2348 11.9198 12.2081 11.9812 12.1606 12.0266C12.1131 12.0719 12.0486 12.0973 11.9814 12.0973C11.9142 12.0973 11.8497 12.0719 11.8022 12.0266C11.7546 11.9812 11.7279 11.9198 11.7279 11.8557V11.614H11.4745C11.4073 11.614 11.3428 11.5885 11.2953 11.5432C11.2478 11.4979 11.2211 11.4364 11.2211 11.3723C11.2211 11.3082 11.2478 11.2468 11.2953 11.2014C11.3428 11.1561 11.4073 11.1306 11.4745 11.1306Z" fill="#122333"/>
<path id="Vector_18" d="M11.7268 8.95626C11.5868 8.95626 11.4733 8.84806 11.4733 8.71459C11.4733 8.58111 11.5868 8.47291 11.7268 8.47291C11.8668 8.47291 11.9802 8.58111 11.9802 8.71459C11.9802 8.84806 11.8668 8.95626 11.7268 8.95626Z" fill="#122333"/>
<path id="Vector_19" d="M19.3315 4.84674C19.1916 4.84674 19.0781 4.73854 19.0781 4.60507C19.0781 4.47159 19.1916 4.36339 19.3315 4.36339C19.4715 4.36339 19.585 4.47159 19.585 4.60507C19.585 4.73854 19.4715 4.84674 19.3315 4.84674Z" fill="#122333"/>
<path id="Vector_20" d="M23.8934 21.5225C23.7534 21.5225 23.64 21.4143 23.64 21.2808C23.64 21.1474 23.7534 21.0392 23.8934 21.0392C24.0334 21.0392 24.1469 21.1474 24.1469 21.2808C24.1469 21.4143 24.0334 21.5225 23.8934 21.5225Z" fill="#122333"/>
</g>
</g>
<path id="Vector_21" d="M22.6233 7.50765H21.1027V8.47435H22.6233V7.50765Z" fill="#8597A1"/>
<path id="Vector_22" d="M21.1072 8.71541H22.6278C22.695 8.71541 22.7595 8.68995 22.807 8.64463C22.8545 8.59931 22.8812 8.53783 22.8812 8.47374V7.50704C22.8812 7.44295 22.8545 7.38148 22.807 7.33616C22.7595 7.29083 22.695 7.26537 22.6278 7.26537H21.1072C21.0399 7.26537 20.9755 7.29083 20.928 7.33616C20.8804 7.38148 20.8537 7.44295 20.8537 7.50704V8.47374C20.8537 8.53783 20.8804 8.59931 20.928 8.64463C20.9755 8.68995 21.0399 8.71541 21.1072 8.71541ZM22.3743 8.23207H21.3606V7.74872H22.3743V8.23207Z" fill="#353166"/>
<path id="Vector_23" d="M21.1033 29.4982C21.1705 29.4982 21.2349 29.4727 21.2825 29.4274C21.33 29.3821 21.3567 29.3206 21.3567 29.2565V4.60581C21.3567 4.54171 21.33 4.48024 21.2825 4.43492C21.2349 4.3896 21.1705 4.36414 21.1033 4.36414C21.036 4.36414 20.9716 4.3896 20.924 4.43492C20.8765 4.48024 20.8498 4.54171 20.8498 4.60581V29.2565C20.8498 29.3206 20.8765 29.3821 20.924 29.4274C20.9716 29.4727 21.036 29.4982 21.1033 29.4982Z" fill="#353166"/>
<path id="Vector_24" d="M25.4111 10.8911C23.7315 10.8911 22.3699 9.59273 22.3699 7.99106C22.3699 6.38939 23.7315 5.09098 25.4111 5.09098C27.0908 5.09098 28.4524 6.38939 28.4524 7.99106C28.4524 9.59273 27.0908 10.8911 25.4111 10.8911Z" fill="#90A4AE"/>
<path id="Vector_25" d="M25.4156 9.9222C24.2958 9.9222 23.3881 9.05659 23.3881 7.98881C23.3881 6.92103 24.2958 6.05542 25.4156 6.05542C26.5354 6.05542 27.4431 6.92103 27.4431 7.98881C27.4431 9.05659 26.5354 9.9222 25.4156 9.9222Z" fill="#FFDC7B"/>
<path id="Vector_26" d="M25.4137 9.19754C24.7139 9.19754 24.1465 8.65654 24.1465 7.98917C24.1465 7.32181 24.7139 6.78081 25.4137 6.78081C26.1136 6.78081 26.6809 7.32181 26.6809 7.98917C26.6809 8.65654 26.1136 9.19754 25.4137 9.19754Z" fill="#FFF9E6"/>
<path id="Vector_27" d="M2.35254 29.2569H10.4626C10.6315 29.2577 10.798 29.2181 10.9468 29.1419C11.0957 29.0657 11.2222 28.9552 11.3149 28.8205C11.4075 28.6858 11.4634 28.5311 11.4775 28.3705C11.4915 28.21 11.4632 28.0486 11.3952 27.9012L8.37676 21.0014C8.24755 20.7075 8.18121 20.392 8.18161 20.0733V16.2066H4.63348V20.0733C4.63389 20.392 4.56754 20.7075 4.43833 21.0014L1.42749 27.9012C1.35974 28.0481 1.33142 28.2088 1.34509 28.3687C1.35876 28.5287 1.41397 28.6829 1.50576 28.8174C1.59755 28.952 1.72302 29.0626 1.87085 29.1393C2.01869 29.2161 2.18423 29.2565 2.35254 29.2569Z" fill="#122333"/>
<path id="Vector_28" d="M10.3712 27.9012L7.36036 21.0014C7.23115 20.7075 7.16481 20.392 7.16521 20.0733V16.2066H8.17897V20.0733C8.17856 20.392 8.2449 20.7075 8.37411 21.0014L11.385 27.9012C11.4527 28.0481 11.481 28.2088 11.4674 28.3687C11.4537 28.5287 11.3985 28.6829 11.3067 28.8174C11.2149 28.952 11.0894 29.0626 10.9416 29.1393C10.7938 29.2161 10.6282 29.2565 10.4599 29.2569H9.44616C9.61447 29.2565 9.78001 29.2161 9.92784 29.1393C10.0757 29.0626 10.2011 28.952 10.2929 28.8174C10.3847 28.6829 10.4399 28.5287 10.4536 28.3687C10.4673 28.2088 10.439 28.0481 10.3712 27.9012Z" fill="#122333"/>
<path id="Vector_29" d="M1.42535 27.9012L4.4362 21.0014C4.56541 20.7075 4.63175 20.392 4.63135 20.0733V16.2066H6.15198V20.0733C6.15238 20.392 6.08604 20.7075 5.95683 21.0014L2.94598 27.9012C2.87824 28.0481 2.84992 28.2088 2.86358 28.3687C2.87725 28.5287 2.93247 28.6829 3.02426 28.8174C3.11605 28.952 3.24152 29.0626 3.38935 29.1393C3.53718 29.2161 3.70272 29.2565 3.87103 29.2569H2.3504C2.18209 29.2565 2.01655 29.2161 1.86872 29.1393C1.72089 29.0626 1.59542 28.952 1.50363 28.8174C1.41184 28.6829 1.35662 28.5287 1.34296 28.3687C1.32929 28.2088 1.35761 28.0481 1.42535 27.9012Z" fill="#B9D7FF"/>
<path id="Vector_30" d="M2.35254 29.2573H10.4626C10.6315 29.2581 10.798 29.2185 10.9468 29.1423C11.0957 29.0661 11.2222 28.9556 11.3149 28.8209C11.4075 28.6862 11.4634 28.5315 11.4775 28.3709C11.4915 28.2104 11.4632 28.049 11.3952 27.9016L9.02556 22.4905H3.78953L1.42749 27.9016C1.35974 28.0485 1.33142 28.2092 1.34509 28.3691C1.35876 28.5291 1.41397 28.6833 1.50576 28.8178C1.59755 28.9524 1.72302 29.063 1.87085 29.1397C2.01869 29.2165 2.18423 29.2569 2.35254 29.2573Z" fill="#FFDC7B"/>
<path id="Vector_31" d="M1.42519 27.9016L3.78723 22.4905H5.30786L2.94582 27.9016C2.87807 28.0485 2.84975 28.2092 2.86342 28.3691C2.87709 28.5291 2.9323 28.6833 3.02409 28.8178C3.11588 28.9524 3.24135 29.063 3.38919 29.1397C3.53702 29.2165 3.70256 29.2569 3.87087 29.2573H2.35024C2.18193 29.2569 2.01639 29.2165 1.86856 29.1397C1.72073 29.063 1.59525 28.9524 1.50346 28.8178C1.41167 28.6833 1.35646 28.5291 1.34279 28.3691C1.32913 28.2092 1.35744 28.0485 1.42519 27.9016Z" fill="#FFB260"/>
<path id="Vector_32" d="M10.3712 27.9016L8.00916 22.4905H9.02291L11.385 27.9016C11.4527 28.0485 11.481 28.2092 11.4674 28.3691C11.4537 28.5291 11.3985 28.6833 11.3067 28.8178C11.2149 28.9524 11.0894 29.063 10.9416 29.1397C10.7938 29.2165 10.6282 29.2569 10.4599 29.2573H9.44616C9.61447 29.2569 9.78001 29.2165 9.92784 29.1397C10.0757 29.063 10.2011 28.9524 10.2929 28.8178C10.3847 28.6833 10.4399 28.5291 10.4536 28.3691C10.4673 28.2092 10.439 28.0485 10.3712 27.9016Z" fill="#FFF9E6"/>
<path id="Vector_33" d="M16.0371 29.4984C16.1043 29.4984 16.1688 29.4729 16.2163 29.4276C16.2638 29.3823 16.2905 29.3208 16.2905 29.2567V22.4899C16.2905 22.4258 16.2638 22.3643 16.2163 22.319C16.1688 22.2737 16.1043 22.2482 16.0371 22.2482C15.9699 22.2482 15.9054 22.2737 15.8579 22.319C15.8104 22.3643 15.7837 22.4258 15.7837 22.4899V29.2567C15.7837 29.3208 15.8104 29.3823 15.8579 29.4276C15.9054 29.4729 15.9699 29.4984 16.0371 29.4984Z" fill="#353166"/>
<path id="Vector_34" d="M17.302 28.2898H14.7676C14.6331 28.2898 14.5042 28.3408 14.4092 28.4314C14.3141 28.522 14.2607 28.645 14.2607 28.7732V29.2565H17.8088V28.7732C17.8088 28.645 17.7554 28.522 17.6604 28.4314C17.5653 28.3408 17.4364 28.2898 17.302 28.2898Z" fill="#90A4AE"/>
<path id="Vector_35" d="M15.7808 28.2898H14.767C14.6326 28.2898 14.5037 28.3408 14.4086 28.4314C14.3135 28.522 14.2601 28.645 14.2601 28.7732V29.2565H15.7808V28.2898Z" fill="#8597A1"/>
<path id="Vector_36" d="M17.302 28.2898H16.7951V29.2565H17.8088V28.7732C17.8088 28.645 17.7554 28.522 17.6604 28.4314C17.5653 28.3408 17.4364 28.2898 17.302 28.2898Z" fill="#B2C6D1"/>
<path id="Vector_37" d="M15.0246 27.3226C15.0246 28.2893 16.0384 28.2893 16.0384 28.2893C16.0384 28.2893 17.0521 28.2893 17.0521 27.3226C17.0521 26.5976 16.0384 25.6309 16.0384 25.6309C16.0384 25.6309 15.0246 26.5976 15.0246 27.3226Z" fill="#FFB242"/>
<path id="Vector_38" d="M16.0384 25.6309V28.2893C16.0384 28.2893 17.0521 28.2893 17.0521 27.3226C17.0521 26.5976 16.0384 25.6309 16.0384 25.6309Z" fill="#FFDFB0"/>
<path id="Vector_39" d="M14.2614 12.5809V7.98909H17.8096V12.5809C19.2737 12.9881 20.5347 13.8853 21.361 15.1077C22.1873 16.3301 22.5235 17.7958 22.3078 19.2355C22.0921 20.6752 21.339 21.9925 20.1868 22.9454C19.0346 23.8983 17.5607 24.4229 16.0355 24.4229C14.5103 24.4229 13.0364 23.8983 11.8842 22.9454C10.732 21.9925 9.97891 20.6752 9.76322 19.2355C9.54753 17.7958 9.88369 16.3301 10.71 15.1077C11.5363 13.8853 12.7973 12.9881 14.2614 12.5809Z" fill="#122333"/>
<path id="Vector_40" d="M14.2601 12.5809V7.98909H15.7808V13.0642C14.5505 13.4063 13.458 14.096 12.6473 15.0423C11.8366 15.9887 11.3459 17.1472 11.2399 18.365C11.134 19.5828 11.4177 20.8026 12.0537 21.8634C12.6898 22.9242 13.6482 23.7762 14.8025 24.3069C13.4112 24.0436 12.1528 23.3427 11.2287 22.3165C10.3047 21.2903 9.76848 19.9981 9.70598 18.6468C9.64348 17.2955 10.0583 15.9633 10.884 14.8635C11.7097 13.7637 12.8985 12.96 14.2601 12.5809Z" fill="#B9D7FF"/>
<path id="Vector_41" d="M21.3574 18.8644C21.3574 17.5571 20.9128 16.2851 20.0903 15.2393C19.2677 14.1935 18.1116 13.4303 16.7956 13.0642V7.98909H17.8093V12.5809C19.0784 12.9338 20.2 13.6564 21.0169 14.6475C21.8338 15.6386 22.3052 16.8486 22.365 18.1079C22.4248 19.3672 22.07 20.6128 21.3503 21.6702C20.6306 22.7277 19.5821 23.544 18.3517 24.0048C19.2707 23.4634 20.0292 22.7069 20.5553 21.8072C21.0814 20.9075 21.3575 19.8945 21.3574 18.8644Z" fill="#122333"/>
<path id="Vector_42" d="M9.69955 18.3808C9.69929 19.3136 9.92554 20.2338 10.3606 21.0693C10.7956 21.9048 11.4276 22.6329 12.2071 23.1966C12.9865 23.7602 13.8923 24.1441 14.8533 24.3182C15.8144 24.4922 16.8047 24.4517 17.7466 24.1998C18.6884 23.9479 19.5564 23.4914 20.2823 22.8661C21.0083 22.2409 21.5726 21.4638 21.931 20.5959C22.2893 19.7279 22.4321 18.7926 22.348 17.8632C22.264 16.9338 21.9554 16.0356 21.4464 15.239H10.6246C10.017 16.1843 9.69671 17.272 9.69955 18.3808Z" fill="#FF5948"/>
<path id="Vector_43" d="M10.6256 15.239H12.4884C11.9268 15.9527 11.5379 16.776 11.3497 17.65C11.1615 18.524 11.1786 19.4269 11.3999 20.2938C11.6211 21.1608 12.0409 21.9702 12.6292 22.664C13.2175 23.3578 13.9596 23.9188 14.8022 24.3066C13.8024 24.1171 12.8653 23.7003 12.0704 23.0916C11.2756 22.483 10.6465 21.7004 10.2365 20.8104C9.82659 19.9204 9.6479 18.9492 9.71563 17.9793C9.78335 17.0094 10.0955 16.0693 10.6256 15.239Z" fill="#E84B3A"/>
<path id="Vector_44" d="M21.359 18.8641C21.361 17.5565 20.9161 16.2839 20.0918 15.239H21.4477C21.9282 15.9918 22.2302 16.8358 22.3325 17.7117C22.4348 18.5877 22.3349 19.4743 22.0398 20.3095C21.7447 21.1447 21.2616 21.9082 20.6243 22.5465C19.987 23.1848 19.211 23.6825 18.3506 24.0045C19.2701 23.4634 20.0292 22.707 20.5557 21.8073C21.0823 20.9076 21.3588 19.8944 21.359 18.8641Z" fill="#FFC8C2"/>
<path id="Vector_45" d="M14.2635 6.54009H17.8116C18.2315 6.54009 18.5719 6.86469 18.5719 7.26511C18.5719 7.66553 18.2315 7.99013 17.8116 7.99013H14.2635C13.8435 7.99013 13.5031 7.66553 13.5031 7.26511C13.5031 6.86469 13.8435 6.54009 14.2635 6.54009Z" fill="#122333"/>
<path id="Vector_46" d="M15.024 6.54009H14.2637C14.0621 6.54009 13.8687 6.61647 13.7261 6.75244C13.5835 6.88841 13.5034 7.07282 13.5034 7.26511C13.5034 7.4574 13.5835 7.64181 13.7261 7.77778C13.8687 7.91374 14.0621 7.99013 14.2637 7.99013H15.024V6.54009Z" fill="#B9D7FF"/>
<path id="Vector_47" d="M17.8116 6.54009H17.5581V7.99013H17.8116C18.0132 7.99013 18.2066 7.91374 18.3492 7.77778C18.4918 7.64181 18.5719 7.4574 18.5719 7.26511C18.5719 7.07282 18.4918 6.88841 18.3492 6.75244C18.2066 6.61647 18.0132 6.54009 17.8116 6.54009Z" fill="#122333"/>
<path id="Vector_48" d="M16.0328 24.664C17.6027 24.6642 19.1212 24.1299 20.3147 23.1574C21.5082 22.1848 22.2984 20.8378 22.5429 19.3591C22.7874 17.8803 22.4702 16.3668 21.6484 15.0913C20.8266 13.8157 19.5542 12.8618 18.0603 12.4014V7.98848C18.0603 7.92439 18.0336 7.86292 17.9861 7.8176C17.9386 7.77227 17.8741 7.74681 17.8069 7.74681H14.2587C14.1915 7.74681 14.1271 7.77227 14.0795 7.8176C14.032 7.86292 14.0053 7.92439 14.0053 7.98848V12.4014C12.5115 12.8618 11.2391 13.8157 10.4173 15.0913C9.59546 16.3668 9.27825 17.8803 9.52276 19.3591C9.76726 20.8378 10.5574 22.1848 11.7509 23.1574C12.9444 24.1299 14.4629 24.6642 16.0328 24.664ZM17.5534 8.23016V12.5803C17.5512 12.6342 17.5679 12.6873 17.601 12.7311C17.6341 12.7749 17.6816 12.8069 17.7359 12.822C19.1415 13.2129 20.352 14.0742 21.1453 15.2477C21.9385 16.4212 22.2613 17.8282 22.0542 19.2104C21.8471 20.5925 21.1242 21.8571 20.0181 22.7719C18.912 23.6867 17.497 24.1903 16.0328 24.1903C14.5687 24.1903 13.1536 23.6867 12.0475 22.7719C10.9414 21.8571 10.2185 20.5925 10.0114 19.2104C9.80437 17.8282 10.1271 16.4212 10.9203 15.2477C11.7136 14.0742 12.9241 13.2129 14.3297 12.822C14.3841 12.8069 14.4316 12.7749 14.4646 12.7311C14.4977 12.6873 14.5144 12.6342 14.5122 12.5803V8.23016H17.5534Z" fill="#353166"/>
<path id="Vector_49" d="M14.2617 8.23119H17.8099C18.0787 8.23119 18.3366 8.12935 18.5267 7.94806C18.7168 7.76677 18.8236 7.52088 18.8236 7.2645C18.8236 7.00812 18.7168 6.76223 18.5267 6.58094C18.3366 6.39965 18.0787 6.29781 17.8099 6.29781H14.2617C13.9929 6.29781 13.735 6.39965 13.5449 6.58094C13.3548 6.76223 13.248 7.00812 13.248 7.2645C13.248 7.52088 13.3548 7.76677 13.5449 7.94806C13.735 8.12935 13.9929 8.23119 14.2617 8.23119ZM17.8099 6.78115C17.9443 6.78115 18.0732 6.83208 18.1683 6.92272C18.2633 7.01337 18.3167 7.13631 18.3167 7.2645C18.3167 7.39269 18.2633 7.51563 18.1683 7.60628C18.0732 7.69692 17.9443 7.74785 17.8099 7.74785H14.2617C14.1273 7.74785 13.9984 7.69692 13.9033 7.60628C13.8082 7.51563 13.7548 7.39269 13.7548 7.2645C13.7548 7.13631 13.8082 7.01337 13.9033 6.92272C13.9984 6.83208 14.1273 6.78115 14.2617 6.78115H17.8099Z" fill="#353166"/>
<path id="Vector_50" d="M4.62917 14.7576H8.17731C8.59722 14.7576 8.93762 15.0822 8.93762 15.4826C8.93762 15.883 8.59722 16.2076 8.17731 16.2076H4.62917C4.20926 16.2076 3.86886 15.883 3.86886 15.4826C3.86886 15.0822 4.20926 14.7576 4.62917 14.7576Z" fill="#122333"/>
<path id="Vector_51" d="M5.38977 14.7576H4.62946C4.42781 14.7576 4.23442 14.834 4.09183 14.9699C3.94925 15.1059 3.86914 15.2903 3.86914 15.4826C3.86914 15.6749 3.94925 15.8593 4.09183 15.9953C4.23442 16.1312 4.42781 16.2076 4.62946 16.2076H5.38977V14.7576Z" fill="#B9D7FF"/>
<path id="Vector_52" d="M8.17731 14.7576H7.92387V16.2076H8.17731C8.37896 16.2076 8.57235 16.1312 8.71493 15.9953C8.85752 15.8593 8.93762 15.6749 8.93762 15.4826C8.93762 15.2903 8.85752 15.1059 8.71493 14.9699C8.57235 14.834 8.37896 14.7576 8.17731 14.7576Z" fill="#122333"/>
<path id="Vector_53" d="M4.63294 16.4487H8.18107C8.44994 16.4487 8.70779 16.3468 8.8979 16.1655C9.08802 15.9842 9.19482 15.7384 9.19482 15.482C9.19482 15.2256 9.08802 14.9797 8.8979 14.7984C8.70779 14.6171 8.44994 14.5153 8.18107 14.5153H4.63294C4.36407 14.5153 4.10622 14.6171 3.91611 14.7984C3.72599 14.9797 3.61919 15.2256 3.61919 15.482C3.61919 15.7384 3.72599 15.9842 3.91611 16.1655C4.10622 16.3468 4.36407 16.4487 4.63294 16.4487ZM8.18107 14.9986C8.3155 14.9986 8.44443 15.0496 8.53949 15.1402C8.63455 15.2308 8.68795 15.3538 8.68795 15.482C8.68795 15.6102 8.63455 15.7331 8.53949 15.8238C8.44443 15.9144 8.3155 15.9653 8.18107 15.9653H4.63294C4.49851 15.9653 4.36958 15.9144 4.27452 15.8238C4.17946 15.7331 4.12606 15.6102 4.12606 15.482C4.12606 15.3538 4.17946 15.2308 4.27452 15.1402C4.36958 15.0496 4.49851 14.9986 4.63294 14.9986H8.18107Z" fill="#353166"/>
<path id="Vector_54" d="M25.158 14.273H28.7061C29.126 14.273 29.4664 14.5976 29.4664 14.998C29.4664 15.3984 29.126 15.723 28.7061 15.723H25.158C24.7381 15.723 24.3977 15.3984 24.3977 14.998C24.3977 14.5976 24.7381 14.273 25.158 14.273Z" fill="#122333"/>
<path id="Vector_55" d="M25.9194 14.273H25.1591C24.9575 14.273 24.7641 14.3494 24.6215 14.4854C24.4789 14.6213 24.3988 14.8057 24.3988 14.998C24.3988 15.1903 24.4789 15.3747 24.6215 15.5107C24.7641 15.6467 24.9575 15.723 25.1591 15.723H25.9194V14.273Z" fill="#B9D7FF"/>
<path id="Vector_56" d="M28.7061 14.273H28.4527V15.723H28.7061C28.9078 15.723 29.1012 15.6467 29.2437 15.5107C29.3863 15.3747 29.4664 15.1903 29.4664 14.998C29.4664 14.8057 29.3863 14.6213 29.2437 14.4854C29.1012 14.3494 28.9078 14.273 28.7061 14.273Z" fill="#122333"/>
<path id="Vector_57" d="M25.1571 15.9641H28.7052C28.9741 15.9641 29.232 15.8623 29.4221 15.681C29.6122 15.4997 29.719 15.2538 29.719 14.9974C29.719 14.741 29.6122 14.4952 29.4221 14.3139C29.232 14.1326 28.9741 14.0307 28.7052 14.0307H25.1571C24.8882 14.0307 24.6304 14.1326 24.4403 14.3139C24.2502 14.4952 24.1434 14.741 24.1434 14.9974C24.1434 15.2538 24.2502 15.4997 24.4403 15.681C24.6304 15.8623 24.8882 15.9641 25.1571 15.9641ZM28.7052 14.5141C28.8397 14.5141 28.9686 14.565 29.0637 14.6556C29.1587 14.7463 29.2121 14.8692 29.2121 14.9974C29.2121 15.1256 29.1587 15.2486 29.0637 15.3392C28.9686 15.4298 28.8397 15.4808 28.7052 15.4808H25.1571C25.0227 15.4808 24.8937 15.4298 24.7987 15.3392C24.7036 15.2486 24.6502 15.1256 24.6502 14.9974C24.6502 14.8692 24.7036 14.7463 24.7987 14.6556C24.8937 14.565 25.0227 14.5141 25.1571 14.5141H28.7052ZM16.0333 24.6644C17.7809 24.6644 19.457 24.0023 20.6927 22.824C21.9285 21.6456 22.6227 20.0473 22.6227 18.3808C22.6254 17.2277 22.292 16.0964 21.6597 15.1134C21.6371 15.0781 21.6055 15.049 21.5678 15.0287C21.5301 15.0083 21.4875 14.9976 21.4442 14.9974H10.6224C10.5791 14.9976 10.5366 15.0083 10.4989 15.0287C10.4612 15.049 10.4295 15.0781 10.407 15.1134C9.77471 16.0964 9.44128 17.2277 9.44394 18.3808C9.44394 20.0473 10.1382 21.6456 11.3739 22.824C12.6097 24.0023 14.2857 24.6644 16.0333 24.6644ZM21.2998 15.4808C21.8341 16.3625 22.1155 17.3628 22.1158 18.3811C22.1162 19.3994 21.8353 20.3999 21.3015 21.2819C20.7678 22.1639 19.9999 22.8963 19.0751 23.4056C18.1503 23.9148 17.1012 24.1829 16.0333 24.1829C14.9654 24.1829 13.9163 23.9148 12.9916 23.4056C12.0668 22.8963 11.2989 22.1639 10.7651 21.2819C10.2314 20.3999 9.95051 19.3994 9.95082 18.3811C9.95112 17.3628 10.2326 16.3625 10.7669 15.4808H21.2998Z" fill="#353166"/>
<path id="Vector_58" d="M15.2768 16.2064C14.7169 16.2064 14.263 15.7736 14.263 15.2397C14.263 14.7058 14.7169 14.273 15.2768 14.273C15.8367 14.273 16.2905 14.7058 16.2905 15.2397C16.2905 15.7736 15.8367 16.2064 15.2768 16.2064Z" fill="#FFC8C2"/>
<path id="Vector_59" d="M15.2752 16.4475C15.5258 16.4475 15.7708 16.3766 15.9792 16.2438C16.1876 16.111 16.35 15.9223 16.4459 15.7015C16.5418 15.4807 16.5669 15.2378 16.518 15.0034C16.4691 14.769 16.3484 14.5536 16.1712 14.3846C15.994 14.2157 15.7682 14.1006 15.5224 14.0539C15.2766 14.0073 15.0218 14.0312 14.7902 14.1227C14.5587 14.2142 14.3608 14.369 14.2215 14.5678C14.0823 14.7665 14.008 15.0001 14.008 15.2391C14.008 15.5596 14.1415 15.8669 14.3791 16.0935C14.6168 16.3201 14.9391 16.4475 15.2752 16.4475ZM15.2752 14.5141C15.4255 14.5141 15.5725 14.5566 15.6976 14.6363C15.8226 14.7159 15.9201 14.8292 15.9776 14.9616C16.0352 15.0941 16.0502 15.2399 16.0209 15.3805C15.9915 15.5212 15.9191 15.6504 15.8128 15.7518C15.7065 15.8532 15.571 15.9222 15.4235 15.9502C15.276 15.9782 15.1231 15.9638 14.9842 15.9089C14.8453 15.854 14.7265 15.7611 14.643 15.6419C14.5594 15.5227 14.5149 15.3825 14.5149 15.2391C14.5149 15.0468 14.595 14.8624 14.7375 14.7264C14.8801 14.5905 15.0735 14.5141 15.2752 14.5141Z" fill="#353166"/>
<path id="Vector_60" d="M18.5684 18.3804C18.1485 18.3804 17.8081 18.0558 17.8081 17.6554C17.8081 17.255 18.1485 16.9304 18.5684 16.9304C18.9883 16.9304 19.3287 17.255 19.3287 17.6554C19.3287 18.0558 18.9883 18.3804 18.5684 18.3804Z" fill="#FFC8C2"/>
<path id="Vector_61" d="M18.5713 18.6214C18.7718 18.6214 18.9678 18.5647 19.1345 18.4585C19.3013 18.3523 19.4312 18.2013 19.5079 18.0246C19.5846 17.848 19.6047 17.6536 19.5656 17.4661C19.5265 17.2786 19.4299 17.1063 19.2882 16.9712C19.1464 16.836 18.9658 16.7439 18.7691 16.7066C18.5725 16.6693 18.3686 16.6884 18.1834 16.7616C17.9981 16.8348 17.8398 16.9587 17.7284 17.1176C17.617 17.2766 17.5576 17.4635 17.5576 17.6547C17.5576 17.9111 17.6644 18.157 17.8545 18.3383C18.0446 18.5196 18.3025 18.6214 18.5713 18.6214ZM18.5713 17.1714C18.6716 17.1714 18.7696 17.1997 18.8529 17.2528C18.9363 17.3059 19.0013 17.3814 19.0396 17.4697C19.078 17.5581 19.088 17.6552 19.0685 17.749C19.0489 17.8428 19.0006 17.9289 18.9297 17.9965C18.8589 18.0641 18.7685 18.1101 18.6702 18.1288C18.5719 18.1474 18.47 18.1378 18.3774 18.1013C18.2847 18.0647 18.2056 18.0027 18.1499 17.9232C18.0942 17.8438 18.0645 17.7503 18.0645 17.6547C18.0645 17.5265 18.1179 17.4036 18.2129 17.3129C18.308 17.2223 18.4369 17.1714 18.5713 17.1714Z" fill="#353166"/>
<path id="Vector_62" d="M16.2918 20.797C15.8719 20.797 15.5315 20.4724 15.5315 20.072C15.5315 19.6716 15.8719 19.347 16.2918 19.347C16.7117 19.347 17.0521 19.6716 17.0521 20.072C17.0521 20.4724 16.7117 20.797 16.2918 20.797Z" fill="#FFC8C2"/>
<path id="Vector_63" d="M16.2873 21.0396C16.4878 21.0396 16.6838 20.9829 16.8505 20.8767C17.0173 20.7705 17.1472 20.6195 17.2239 20.4429C17.3007 20.2662 17.3207 20.0719 17.2816 19.8843C17.2425 19.6968 17.1459 19.5246 17.0042 19.3894C16.8624 19.2542 16.6818 19.1621 16.4851 19.1248C16.2885 19.0875 16.0846 19.1067 15.8994 19.1798C15.7142 19.253 15.5558 19.3769 15.4444 19.5359C15.333 19.6948 15.2736 19.8817 15.2736 20.0729C15.2736 20.3293 15.3804 20.5752 15.5705 20.7565C15.7606 20.9378 16.0185 21.0396 16.2873 21.0396ZM16.2873 19.5896C16.3876 19.5896 16.4856 19.6179 16.5689 19.6711C16.6523 19.7242 16.7173 19.7997 16.7556 19.888C16.794 19.9763 16.804 20.0735 16.7845 20.1672C16.7649 20.261 16.7166 20.3471 16.6458 20.4147C16.5749 20.4823 16.4845 20.5284 16.3862 20.547C16.2879 20.5657 16.186 20.5561 16.0934 20.5195C16.0007 20.4829 15.9216 20.421 15.8659 20.3415C15.8102 20.262 15.7805 20.1685 15.7805 20.0729C15.7805 19.9447 15.8339 19.8218 15.9289 19.7312C16.024 19.6405 16.1529 19.5896 16.2873 19.5896ZM9.69795 22.7313H22.3699C22.4371 22.7313 22.5015 22.7059 22.5491 22.6606C22.5966 22.6152 22.6233 22.5538 22.6233 22.4897C22.6233 22.4256 22.5966 22.3641 22.5491 22.3188C22.5015 22.2735 22.4371 22.248 22.3699 22.248H9.69795C9.63073 22.248 9.56627 22.2735 9.51874 22.3188C9.47121 22.3641 9.44451 22.4256 9.44451 22.4897C9.44451 22.5538 9.47121 22.6152 9.51874 22.6606C9.56627 22.7059 9.63073 22.7313 9.69795 22.7313Z" fill="#353166"/>
<path id="Vector_64" d="M23.1322 29.4992H23.1855C23.2181 29.4926 23.2491 29.4799 23.2766 29.4619C23.3041 29.4438 23.3276 29.4208 23.3457 29.3941C23.3638 29.3673 23.3762 29.3375 23.3822 29.3062C23.3882 29.2748 23.3877 29.2427 23.3806 29.2116L21.86 22.4448C21.8459 22.3807 21.8056 22.3245 21.7481 22.2887C21.6906 22.2529 21.6205 22.2404 21.5533 22.2538C21.4861 22.2673 21.4272 22.3057 21.3897 22.3605C21.3522 22.4153 21.339 22.4822 21.3531 22.5463L22.8737 29.3131C22.8873 29.368 22.9205 29.4167 22.9677 29.4507C23.015 29.4847 23.0731 29.5018 23.1322 29.4992ZM8.9397 29.4992C8.99864 29.5005 9.05619 29.4821 9.10244 29.4472C9.1487 29.4124 9.18077 29.3632 9.19314 29.3083L10.7138 22.5414C10.7215 22.5096 10.7225 22.4767 10.7165 22.4446C10.7106 22.4124 10.6979 22.3818 10.6792 22.3544C10.6605 22.3271 10.6361 22.3037 10.6077 22.2856C10.5792 22.2674 10.5472 22.255 10.5136 22.249C10.4809 22.2423 10.4472 22.2417 10.4144 22.2474C10.3816 22.2532 10.3502 22.265 10.3222 22.2823C10.2942 22.2996 10.27 22.322 10.2511 22.3482C10.2322 22.3744 10.2189 22.4039 10.212 22.4351L8.69133 29.2019C8.68426 29.233 8.68371 29.2652 8.6897 29.2965C8.69569 29.3278 8.70811 29.3577 8.72625 29.3844C8.74438 29.4111 8.76787 29.4342 8.79537 29.4522C8.82286 29.4703 8.85383 29.4829 8.88648 29.4895L8.9397 29.4992ZM14.2619 29.4992H17.81C17.8773 29.4992 17.9417 29.4737 17.9892 29.4284C18.0368 29.3831 18.0635 29.3216 18.0635 29.2575V28.7742C18.0635 28.5819 17.9834 28.3975 17.8408 28.2615C17.6982 28.1255 17.5048 28.0492 17.3032 28.0492H14.7688C14.5671 28.0492 14.3737 28.1255 14.2312 28.2615C14.0886 28.3975 14.0085 28.5819 14.0085 28.7742V29.2575C14.0085 29.3216 14.0352 29.3831 14.0827 29.4284C14.1302 29.4737 14.1947 29.4992 14.2619 29.4992ZM17.5566 29.0159H14.5153V28.7742C14.5153 28.7101 14.542 28.6486 14.5896 28.6033C14.6371 28.558 14.7016 28.5325 14.7688 28.5325H17.3032C17.3704 28.5325 17.4348 28.558 17.4824 28.6033C17.5299 28.6486 17.5566 28.7101 17.5566 28.7742V29.0159Z" fill="#353166"/>
<path id="Vector_65" d="M16.0355 28.5333C16.2036 28.5394 16.3713 28.5123 16.5279 28.4538C16.6846 28.3952 16.8268 28.3064 16.9458 28.193C17.0648 28.0795 17.1579 27.9439 17.2193 27.7945C17.2807 27.6451 17.3091 27.4853 17.3027 27.3249C17.3027 26.5226 16.327 25.568 16.2155 25.4616C16.1919 25.439 16.1639 25.421 16.133 25.4087C16.1021 25.3965 16.069 25.3902 16.0355 25.3902C16.0021 25.3902 15.9689 25.3965 15.938 25.4087C15.9072 25.421 15.8791 25.439 15.8556 25.4616C15.7441 25.568 14.7683 26.5226 14.7683 27.3249C14.7619 27.4853 14.7903 27.6451 14.8517 27.7945C14.9131 27.9439 15.0063 28.0795 15.1252 28.193C15.2442 28.3064 15.3865 28.3952 15.5431 28.4538C15.6997 28.5123 15.8674 28.5394 16.0355 28.5333ZM16.0355 25.9885C16.3447 26.3244 16.7958 26.9069 16.7958 27.3249C16.7958 27.5172 16.7157 27.7016 16.5731 27.8376C16.4306 27.9736 16.2372 28.05 16.0355 28.05C15.8339 28.05 15.6405 27.9736 15.4979 27.8376C15.3553 27.7016 15.2752 27.5172 15.2752 27.3249C15.2752 26.9069 15.7263 26.3244 16.0355 25.9885ZM0.829227 29.5H11.9805C12.0477 29.5 12.1122 29.4745 12.1597 29.4292C12.2072 29.3839 12.2339 29.3224 12.2339 29.2583C12.2339 29.1942 12.2072 29.1328 12.1597 29.0874C12.1122 29.0421 12.0477 29.0167 11.9805 29.0167H0.829227C0.762011 29.0167 0.697548 29.0421 0.650019 29.0874C0.602491 29.1328 0.575788 29.1942 0.575788 29.2583C0.575788 29.3224 0.602491 29.3839 0.650019 29.4292C0.697548 29.4745 0.762011 29.5 0.829227 29.5ZM13.2477 29.5H31.2418C31.309 29.5 31.3735 29.4745 31.421 29.4292C31.4685 29.3839 31.4952 29.3224 31.4952 29.2583C31.4952 29.1942 31.4685 29.1328 31.421 29.0874C31.3735 29.0421 31.309 29.0167 31.2418 29.0167H13.2477C13.1805 29.0167 13.116 29.0421 13.0685 29.0874C13.021 29.1328 12.9943 29.1942 12.9943 29.2583C12.9943 29.3224 13.021 29.3839 13.0685 29.4292C13.116 29.4745 13.1805 29.5 13.2477 29.5Z" fill="#353166"/>
<path id="Vector_66" d="M28.7097 15.722H25.1616V27.564C25.1616 28.0127 25.3485 28.443 25.6812 28.7602C26.0139 29.0775 26.4651 29.2557 26.9356 29.2557C27.4062 29.2557 27.8574 29.0775 28.1901 28.7602C28.5228 28.443 28.7097 28.0127 28.7097 27.564V15.722Z" fill="#122333"/>
<path id="Vector_67" d="M27.696 27.564V15.722H28.7097V27.564C28.7097 28.0127 28.5228 28.443 28.1901 28.7602C27.8574 29.0775 27.4062 29.2557 26.9356 29.2557C26.7641 29.255 26.5935 29.2314 26.4288 29.1856C26.795 29.0815 27.1161 28.8675 27.3445 28.5753C27.5728 28.2831 27.6961 27.9284 27.696 27.564Z" fill="#122333"/>
<path id="Vector_68" d="M26.4262 15.722V27.564C26.4266 27.9062 26.5358 28.2402 26.7394 28.5219C26.9431 28.8037 27.2315 29.0199 27.5667 29.1421C27.2982 29.24 27.0088 29.2742 26.7233 29.2418C26.4379 29.2094 26.165 29.1114 25.9281 28.9561C25.6912 28.8009 25.4975 28.593 25.3635 28.3505C25.2295 28.108 25.1593 27.8381 25.159 27.564V15.722H26.4262Z" fill="#B9D7FF"/>
<path id="Vector_69" d="M26.9347 29.4984C27.4724 29.4984 27.9881 29.2947 28.3683 28.9321C28.7485 28.5695 28.9622 28.0777 28.9622 27.565V15.723C28.9622 15.6589 28.9355 15.5974 28.8879 15.5521C28.8404 15.5068 28.7759 15.4813 28.7087 15.4813H25.1606C25.0934 15.4813 25.0289 15.5068 24.9814 15.5521C24.9338 15.5974 24.9071 15.6589 24.9071 15.723V27.565C24.9071 28.0777 25.1208 28.5695 25.501 28.9321C25.8812 29.2947 26.3969 29.4984 26.9347 29.4984ZM28.4553 15.9646V27.565C28.4553 27.9495 28.2951 28.3184 28.0099 28.5903C27.7247 28.8622 27.3379 29.015 26.9347 29.015C26.5314 29.015 26.1446 28.8622 25.8594 28.5903C25.5742 28.3184 25.414 27.9495 25.414 27.565V15.9646H28.4553Z" fill="#353166"/>
<path id="Vector_70" d="M25.1616 21.0399V27.5651C25.1616 28.0138 25.3485 28.4441 25.6812 28.7613C26.0139 29.0786 26.4651 29.2568 26.9356 29.2568C27.4062 29.2568 27.8574 29.0786 28.1901 28.7613C28.5228 28.4441 28.7097 28.0138 28.7097 27.5651V21.0399H25.1616Z" fill="#31DDF4"/>
<path id="Vector_71" d="M26.4262 21.0399V27.5651C26.4266 27.9073 26.5358 28.2413 26.7394 28.523C26.9431 28.8048 27.2315 29.021 27.5667 29.1432C27.2982 29.2411 27.0088 29.2753 26.7233 29.2429C26.4379 29.2105 26.165 29.1125 25.9281 28.9572C25.6912 28.8019 25.4975 28.5941 25.3635 28.3516C25.2295 28.1091 25.1593 27.8392 25.159 27.5651V21.0399H26.4262Z" fill="#36C8E3"/>
<path id="Vector_72" d="M27.696 27.5651V21.0399H28.7097V27.5651C28.7097 28.0138 28.5228 28.4441 28.1901 28.7613C27.8574 29.0786 27.4062 29.2568 26.9356 29.2568C26.764 29.2573 26.5932 29.2337 26.4288 29.1867C26.795 29.0826 27.1161 28.8685 27.3445 28.5764C27.5728 28.2842 27.6961 27.9295 27.696 27.5651Z" fill="#ADF4FF"/>
<g id="Group_4">
<path id="Vector_73" d="M26.9347 29.4974C27.4724 29.4974 27.9881 29.2937 28.3683 28.9311C28.7485 28.5685 28.9622 28.0767 28.9622 27.564V21.0388C28.9622 20.9747 28.9355 20.9132 28.8879 20.8679C28.8404 20.8226 28.7759 20.7971 28.7087 20.7971H25.1606C25.0934 20.7971 25.0289 20.8226 24.9814 20.8679C24.9338 20.9132 24.9071 20.9747 24.9071 21.0388V27.564C24.9071 28.0767 25.1208 28.5685 25.501 28.9311C25.8812 29.2937 26.3969 29.4974 26.9347 29.4974ZM28.4553 21.2805V27.564C28.4553 27.9485 28.2951 28.3174 28.0099 28.5893C27.7247 28.8612 27.3379 29.014 26.9347 29.014C26.5314 29.014 26.1446 28.8612 25.8594 28.5893C25.5742 28.3174 25.414 27.9485 25.414 27.564V21.2805H28.4553ZM27.1881 17.4137H27.695C27.7622 17.4137 27.8266 17.3882 27.8742 17.3429C27.9217 17.2976 27.9484 17.2361 27.9484 17.172C27.9484 17.1079 27.9217 17.0464 27.8742 17.0011C27.8266 16.9558 27.7622 16.9303 27.695 16.9303H27.1881C27.1209 16.9303 27.0564 16.9558 27.0089 17.0011C26.9614 17.0464 26.9347 17.1079 26.9347 17.172C26.9347 17.2361 26.9614 17.2976 27.0089 17.3429C27.0564 17.3882 27.1209 17.4137 27.1881 17.4137ZM27.1881 18.3804H27.695C27.7622 18.3804 27.8266 18.3549 27.8742 18.3096C27.9217 18.2643 27.9484 18.2028 27.9484 18.1387C27.9484 18.0746 27.9217 18.0131 27.8742 17.9678C27.8266 17.9225 27.7622 17.897 27.695 17.897H27.1881C27.1209 17.897 27.0564 17.9225 27.0089 17.9678C26.9614 18.0131 26.9347 18.0746 26.9347 18.1387C26.9347 18.2028 26.9614 18.2643 27.0089 18.3096C27.0564 18.3549 27.1209 18.3804 27.1881 18.3804ZM27.1881 19.3471H27.695C27.7622 19.3471 27.8266 19.3216 27.8742 19.2763C27.9217 19.231 27.9484 19.1695 27.9484 19.1054C27.9484 19.0413 27.9217 18.9798 27.8742 18.9345C27.8266 18.8892 27.7622 18.8637 27.695 18.8637H27.1881C27.1209 18.8637 27.0564 18.8892 27.0089 18.9345C26.9614 18.9798 26.9347 19.0413 26.9347 19.1054C26.9347 19.1695 26.9614 19.231 27.0089 19.2763C27.0564 19.3216 27.1209 19.3471 27.1881 19.3471ZM27.1881 20.3138H27.695C27.7622 20.3138 27.8266 20.2883 27.8742 20.243C27.9217 20.1977 27.9484 20.1362 27.9484 20.0721C27.9484 20.008 27.9217 19.9465 27.8742 19.9012C27.8266 19.8559 27.7622 19.8304 27.695 19.8304H27.1881C27.1209 19.8304 27.0564 19.8559 27.0089 19.9012C26.9614 19.9465 26.9347 20.008 26.9347 20.0721C26.9347 20.1362 26.9614 20.1977 27.0089 20.243C27.0564 20.2883 27.1209 20.3138 27.1881 20.3138Z" fill="#353166"/>
<path id="Vector_74" d="M27.1871 21.281H27.6939C27.7612 21.281 27.8256 21.2556 27.8732 21.2103C27.9207 21.1649 27.9474 21.1035 27.9474 21.0394C27.9474 20.9753 27.9207 20.9138 27.8732 20.8685C27.8256 20.8232 27.7612 20.7977 27.6939 20.7977H27.1871C27.1199 20.7977 27.0554 20.8232 27.0079 20.8685C26.9603 20.9138 26.9336 20.9753 26.9336 21.0394C26.9336 21.1035 26.9603 21.1649 27.0079 21.2103C27.0554 21.2556 27.1199 21.281 27.1871 21.281ZM27.1871 22.2477H27.6939C27.7612 22.2477 27.8256 22.2223 27.8732 22.177C27.9207 22.1316 27.9474 22.0702 27.9474 22.0061C27.9474 21.942 27.9207 21.8805 27.8732 21.8352C27.8256 21.7899 27.7612 21.7644 27.6939 21.7644H27.1871C27.1199 21.7644 27.0554 21.7899 27.0079 21.8352C26.9603 21.8805 26.9336 21.942 26.9336 22.0061C26.9336 22.0702 26.9603 22.1316 27.0079 22.177C27.0554 22.2223 27.1199 22.2477 27.1871 22.2477ZM27.1871 23.2144H27.6939C27.7612 23.2144 27.8256 23.189 27.8732 23.1436C27.9207 23.0983 27.9474 23.0369 27.9474 22.9728C27.9474 22.9087 27.9207 22.8472 27.8732 22.8019C27.8256 22.7565 27.7612 22.7311 27.6939 22.7311H27.1871C27.1199 22.7311 27.0554 22.7565 27.0079 22.8019C26.9603 22.8472 26.9336 22.9087 26.9336 22.9728C26.9336 23.0369 26.9603 23.0983 27.0079 23.1436C27.0554 23.189 27.1199 23.2144 27.1871 23.2144ZM27.1871 24.1811H27.6939C27.7612 24.1811 27.8256 24.1557 27.8732 24.1103C27.9207 24.065 27.9474 24.0035 27.9474 23.9395C27.9474 23.8754 27.9207 23.8139 27.8732 23.7686C27.8256 23.7232 27.7612 23.6978 27.6939 23.6978H27.1871C27.1199 23.6978 27.0554 23.7232 27.0079 23.7686C26.9603 23.8139 26.9336 23.8754 26.9336 23.9395C26.9336 24.0035 26.9603 24.065 27.0079 24.1103C27.0554 24.1557 27.1199 24.1811 27.1871 24.1811ZM27.1871 25.1478H27.6939C27.7612 25.1478 27.8256 25.1224 27.8732 25.077C27.9207 25.0317 27.9474 24.9702 27.9474 24.9061C27.9474 24.842 27.9207 24.7806 27.8732 24.7353C27.8256 24.6899 27.7612 24.6645 27.6939 24.6645H27.1871C27.1199 24.6645 27.0554 24.6899 27.0079 24.7353C26.9603 24.7806 26.9336 24.842 26.9336 24.9061C26.9336 24.9702 26.9603 25.0317 27.0079 25.077C27.0554 25.1224 27.1199 25.1478 27.1871 25.1478ZM27.1871 26.1145H27.6939C27.7612 26.1145 27.8256 26.0891 27.8732 26.0437C27.9207 25.9984 27.9474 25.9369 27.9474 25.8728C27.9474 25.8087 27.9207 25.7473 27.8732 25.7019C27.8256 25.6566 27.7612 25.6312 27.6939 25.6312H27.1871C27.1199 25.6312 27.0554 25.6566 27.0079 25.7019C26.9603 25.7473 26.9336 25.8087 26.9336 25.8728C26.9336 25.9369 26.9603 25.9984 27.0079 26.0437C27.0554 26.0891 27.1199 26.1145 27.1871 26.1145ZM2.35014 29.4979H10.4602C10.6732 29.4991 10.8832 29.449 11.0706 29.3522C11.2579 29.2555 11.4167 29.1153 11.5322 28.9445C11.6455 28.7761 11.7131 28.5834 11.729 28.3839C11.745 28.1844 11.7087 27.9842 11.6234 27.8014L8.60752 20.9089C8.4913 20.6441 8.43184 20.3597 8.43265 20.0727V16.2059C8.43265 16.1418 8.40595 16.0803 8.35842 16.035C8.31089 15.9897 8.24643 15.9642 8.17921 15.9642H4.63108C4.56387 15.9642 4.4994 15.9897 4.45187 16.035C4.40434 16.0803 4.37764 16.1418 4.37764 16.2059V20.0727C4.37845 20.3597 4.31899 20.6441 4.20277 20.9089L1.19193 27.8062C1.10659 27.9879 1.07046 28.1871 1.08685 28.3856C1.10323 28.584 1.1716 28.7754 1.2857 28.9421C1.40019 29.1123 1.55763 29.2523 1.7436 29.3494C1.92957 29.4465 2.13811 29.4976 2.35014 29.4979ZM7.92578 16.4476V20.0727C7.92531 20.4235 7.99766 20.7709 8.13866 21.095L11.152 27.9923C11.2039 28.1023 11.2263 28.2229 11.217 28.3431C11.2077 28.4634 11.1671 28.5796 11.0988 28.6811C11.0301 28.7832 10.9357 28.8672 10.8241 28.9255C10.7125 28.9838 10.5874 29.0144 10.4602 29.0146H2.35014C2.22164 29.0156 2.09496 28.9856 1.98195 28.9272C1.86893 28.8689 1.77326 28.7842 1.70387 28.6811C1.63479 28.5813 1.59343 28.4664 1.58368 28.3472C1.57393 28.228 1.5961 28.1084 1.64812 27.9996L4.66403 21.095C4.80764 20.7714 4.88258 20.424 4.88452 20.0727V16.4476H7.92578Z" fill="#353166"/>
<path id="Vector_75" d="M2.35085 29.498H10.4609C10.6739 29.4991 10.8839 29.449 11.0713 29.3523C11.2587 29.2555 11.4174 29.1153 11.5329 28.9445C11.6462 28.7761 11.7138 28.5835 11.7297 28.3839C11.7457 28.1844 11.7094 27.9843 11.6242 27.8014L9.26464 22.3976C9.24563 22.3535 9.21334 22.3157 9.17185 22.289C9.13036 22.2624 9.08152 22.248 9.03148 22.2478H3.79545C3.74541 22.248 3.69657 22.2624 3.65508 22.289C3.61359 22.3157 3.5813 22.3535 3.56229 22.3976L1.19264 27.8062C1.10731 27.9879 1.07118 28.1871 1.08756 28.3856C1.10394 28.584 1.17232 28.7754 1.28641 28.9421C1.40091 29.1123 1.55835 29.2523 1.74431 29.3495C1.93028 29.4466 2.13883 29.4976 2.35085 29.498ZM8.85407 22.7311L11.1528 27.9923C11.2047 28.1023 11.227 28.2229 11.2177 28.3432C11.2084 28.4634 11.1678 28.5796 11.0995 28.6811C11.0308 28.7832 10.9364 28.8672 10.8248 28.9255C10.7132 28.9838 10.5881 29.0144 10.4609 29.0146H2.35085C2.22235 29.0156 2.09568 28.9856 1.98266 28.9273C1.86964 28.8689 1.77397 28.7842 1.70458 28.6811C1.6355 28.5813 1.59414 28.4664 1.58439 28.3472C1.57464 28.228 1.59681 28.1084 1.64883 27.9996L3.95765 22.7311H8.85407ZM6.40586 17.656H6.91274C6.97995 17.656 7.04442 17.6305 7.09195 17.5852C7.13947 17.5399 7.16618 17.4784 7.16618 17.4143C7.16618 17.3502 7.13947 17.2887 7.09195 17.2434C7.04442 17.1981 6.97995 17.1726 6.91274 17.1726H6.40586C6.33865 17.1726 6.27418 17.1981 6.22665 17.2434C6.17912 17.2887 6.15242 17.3502 6.15242 17.4143C6.15242 17.4784 6.17912 17.5399 6.22665 17.5852C6.27418 17.6305 6.33865 17.656 6.40586 17.656ZM6.40586 18.6227H6.91274C6.97995 18.6227 7.04442 18.5972 7.09195 18.5519C7.13947 18.5065 7.16618 18.4451 7.16618 18.381C7.16618 18.3169 7.13947 18.2554 7.09195 18.2101C7.04442 18.1648 6.97995 18.1393 6.91274 18.1393H6.40586C6.33865 18.1393 6.27418 18.1648 6.22665 18.2101C6.17912 18.2554 6.15242 18.3169 6.15242 18.381C6.15242 18.4451 6.17912 18.5065 6.22665 18.5519C6.27418 18.5972 6.33865 18.6227 6.40586 18.6227ZM6.40586 19.5893H6.91274C6.97995 19.5893 7.04442 19.5639 7.09195 19.5186C7.13947 19.4732 7.16618 19.4118 7.16618 19.3477C7.16618 19.2836 7.13947 19.2221 7.09195 19.1768C7.04442 19.1315 6.97995 19.106 6.91274 19.106H6.40586C6.33865 19.106 6.27418 19.1315 6.22665 19.1768C6.17912 19.2221 6.15242 19.2836 6.15242 19.3477C6.15242 19.4118 6.17912 19.4732 6.22665 19.5186C6.27418 19.5639 6.33865 19.5893 6.40586 19.5893ZM6.40586 20.556H6.91274C6.97995 20.556 7.04442 20.5306 7.09195 20.4853C7.13947 20.4399 7.16618 20.3785 7.16618 20.3144C7.16618 20.2503 7.13947 20.1888 7.09195 20.1435C7.04442 20.0982 6.97995 20.0727 6.91274 20.0727H6.40586C6.33865 20.0727 6.27418 20.0982 6.22665 20.1435C6.17912 20.1888 6.15242 20.2503 6.15242 20.3144C6.15242 20.3785 6.17912 20.4399 6.22665 20.4853C6.27418 20.5306 6.33865 20.556 6.40586 20.556Z" fill="#353166"/>
</g>
<path id="Vector_76" d="M9.43323 6.00982L5.13746 10.0989C4.8937 10.3371 4.68096 10.6024 4.50386 10.8892C4.32675 11.1664 4.11389 11.4214 3.87027 11.6481C3.82199 11.6931 3.78363 11.7468 3.75744 11.8062C3.73125 11.8655 3.71776 11.9293 3.71776 11.9937C3.71776 12.058 3.73125 12.1218 3.75744 12.1811C3.78363 12.2405 3.82199 12.2942 3.87027 12.3392C3.91734 12.3842 3.97324 12.4198 4.03478 12.4442C4.09631 12.4685 4.16227 12.481 4.22888 12.481C4.29549 12.481 4.36145 12.4685 4.42299 12.4442C4.48452 12.4198 4.54042 12.3842 4.5875 12.3392C4.82805 12.109 5.09796 11.9085 5.3909 11.7423H5.40357C5.70027 11.5704 5.97425 11.3651 6.21964 11.1309L10.5078 7.03451L9.43323 6.00982Z" fill="#122333"/>
<path id="Vector_77" d="M10.5078 7.03552L6.21964 11.1319C5.96988 11.3643 5.69162 11.5672 5.3909 11.7361H5.37822C5.09197 11.9058 4.82892 12.1087 4.5951 12.3403C4.54789 12.3863 4.49152 12.4229 4.42928 12.4478C4.36705 12.4728 4.30021 12.4857 4.23268 12.4857C4.16516 12.4857 4.09832 12.4728 4.03608 12.4478C3.97385 12.4229 3.91747 12.3863 3.87027 12.3403L9.95278 6.54009L10.5078 7.03552Z" fill="#122333"/>
<path id="Vector_78" d="M10.1558 5.32717L11.2311 6.35251C11.429 6.54127 11.429 6.84731 11.2311 7.03606C11.0331 7.22482 10.7122 7.22482 10.5142 7.03606L9.43898 6.01073C9.24104 5.82197 9.24104 5.51593 9.43898 5.32717C9.63693 5.13842 9.95787 5.13842 10.1558 5.32717Z" fill="#122333"/>
<path id="Vector_79" d="M10.6935 5.84277L10.1562 5.33018C10.1091 5.28527 10.0532 5.24965 9.99172 5.22535C9.93021 5.20105 9.86429 5.18854 9.7977 5.18854C9.73112 5.18854 9.66519 5.20105 9.60368 5.22535C9.54217 5.24965 9.48629 5.28527 9.43921 5.33018C9.34419 5.42082 9.29081 5.54374 9.29081 5.6719C9.29081 5.80007 9.34419 5.92299 9.43921 6.01363L9.97676 6.52598L10.6935 5.84277Z" fill="#B9D7FF"/>
<path id="Vector_80" d="M11.5054 4.04879C11.3967 4.12258 11.3094 4.22155 11.2519 4.33638C11.1151 4.63754 10.9248 4.91389 10.6893 5.15324L10.3294 5.49883L11.0441 6.18035L11.3483 5.89276C11.5916 5.65091 11.885 5.45997 12.2099 5.33208C12.3162 5.29522 12.4118 5.23474 12.4887 5.15566C12.5681 5.0801 12.629 4.98872 12.6671 4.88807C12.7051 4.78743 12.7193 4.68001 12.7086 4.57351C12.6979 4.46702 12.6627 4.3641 12.6054 4.27213C12.5481 4.18015 12.4702 4.10141 12.3772 4.04154C12.2487 3.95734 12.0961 3.91287 11.9401 3.91417C11.7841 3.91546 11.6324 3.96246 11.5054 4.04879Z" fill="#FF5948"/>
<path id="Vector_81" d="M4.23837 12.7171C4.43995 12.7169 4.63321 12.6404 4.77565 12.5044C5.00043 12.292 5.2505 12.1055 5.52076 11.9485C5.84205 11.7679 6.13762 11.5486 6.40019 11.296L10.6909 7.20689C10.7147 7.18443 10.7335 7.1577 10.7464 7.12825C10.7592 7.0988 10.7659 7.06721 10.7659 7.03531C10.7659 7.0034 10.7592 6.97182 10.7464 6.94236C10.7335 6.91291 10.7147 6.88619 10.6909 6.86372L9.61633 5.83902C9.59276 5.81637 9.56473 5.79839 9.53385 5.78612C9.50297 5.77385 9.46984 5.76754 9.43638 5.76754C9.40293 5.76754 9.3698 5.77385 9.33892 5.78612C9.30803 5.79839 9.28 5.81637 9.25644 5.83902L4.96827 9.92331C4.7073 10.1698 4.47995 10.4467 4.29159 10.7474C4.12682 11.0114 3.92848 11.2549 3.70108 11.4724C3.59401 11.5737 3.52094 11.703 3.49115 11.844C3.46137 11.985 3.47622 12.1312 3.53381 12.2641C3.59141 12.397 3.68915 12.5106 3.8146 12.5904C3.94006 12.6702 4.08757 12.7126 4.23837 12.7122V12.7171ZM10.1536 7.03531L6.04285 10.9553C5.8147 11.1749 5.55939 11.3672 5.28253 11.528C4.97052 11.7043 4.68277 11.917 4.42591 12.1612C4.37843 12.2062 4.31419 12.2315 4.24724 12.2315C4.18028 12.2315 4.11605 12.2062 4.06856 12.1612C4.02136 12.1159 3.99487 12.0547 3.99487 11.9908C3.99487 11.927 4.02136 11.8657 4.06856 11.8204C4.31997 11.5788 4.54033 11.3094 4.72497 11.0181C4.89418 10.7459 5.09853 10.495 5.33322 10.2713L9.43638 6.35137L10.1536 7.03531Z" fill="#353166"/>
<path id="Vector_82" d="M10.8682 7.42004C11.019 7.4204 11.1665 7.37798 11.2919 7.29819C11.4174 7.2184 11.5151 7.10483 11.5727 6.97193C11.6303 6.83903 11.6452 6.6928 11.6154 6.55183C11.5856 6.41086 11.5125 6.28152 11.4055 6.18026L10.3309 5.15556C10.1854 5.02417 9.99269 4.95094 9.79233 4.95094C9.59197 4.95094 9.39924 5.02417 9.25378 5.15556C9.1114 5.29151 9.03142 5.47578 9.03142 5.66791C9.03142 5.86004 9.1114 6.04432 9.25378 6.18026L10.3309 7.20737C10.4733 7.34338 10.6666 7.41987 10.8682 7.42004ZM9.79107 5.42624C9.8246 5.42637 9.85777 5.43285 9.88866 5.44529C9.91954 5.45774 9.94754 5.47591 9.97101 5.49874L11.0456 6.52344C11.0928 6.56872 11.1193 6.62997 11.1193 6.69382C11.1193 6.75766 11.0928 6.81891 11.0456 6.8642C10.9981 6.90921 10.9339 6.93447 10.8669 6.93447C10.8 6.93447 10.7357 6.90921 10.6882 6.8642L9.61366 5.8395C9.57807 5.80584 9.55375 5.76288 9.54377 5.71604C9.53379 5.6692 9.53859 5.62059 9.55758 5.57635C9.57657 5.53212 9.60889 5.49425 9.65045 5.46753C9.69201 5.44081 9.74094 5.42644 9.79107 5.42624Z" fill="#353166"/>
<path id="Vector_83" d="M11.0476 6.41868C11.081 6.41886 11.114 6.41276 11.1449 6.40074C11.1758 6.38871 11.2039 6.37099 11.2276 6.34859L11.5291 6.05375C11.7411 5.83238 12.0004 5.65686 12.2895 5.53898C12.4975 5.46464 12.6742 5.32716 12.7924 5.1477C12.9105 4.96823 12.9636 4.75672 12.9433 4.54571C12.9274 4.3766 12.865 4.21449 12.7625 4.07568C12.66 3.93686 12.5209 3.82624 12.3593 3.75495C12.1977 3.68366 12.0193 3.65422 11.842 3.66957C11.6646 3.68493 11.4947 3.74455 11.3492 3.84244C11.2062 3.94023 11.0911 4.07069 11.0147 4.22186C10.8924 4.49839 10.7209 4.75267 10.5078 4.97347L10.153 5.32873C10.1058 5.37401 10.0793 5.43526 10.0793 5.49911C10.0793 5.56296 10.1058 5.62421 10.153 5.66949L10.8702 6.35342C10.9182 6.39631 10.9818 6.41971 11.0476 6.41868ZM11.9448 4.15661C12.0452 4.15551 12.1435 4.18422 12.2261 4.23878C12.2898 4.27955 12.343 4.33357 12.3816 4.39678C12.4203 4.46 12.4433 4.53075 12.4491 4.60371C12.4567 4.67419 12.4473 4.74538 12.4219 4.81193C12.3964 4.87848 12.3555 4.93867 12.3021 4.98797C12.252 5.03846 12.1905 5.07731 12.1222 5.10156C11.7606 5.24041 11.436 5.45422 11.1718 5.72749L11.0476 5.84349L10.6903 5.50273L10.8727 5.32873C11.1271 5.06661 11.3313 4.76395 11.4759 4.43454C11.5158 4.35755 11.575 4.29115 11.6483 4.2412C11.7354 4.18421 11.8391 4.15464 11.9448 4.15661ZM25.415 11.1289C26.0666 11.1289 26.7036 10.9446 27.2455 10.5994C27.7873 10.2542 28.2096 9.76352 28.4589 9.18944C28.7083 8.61535 28.7735 7.98365 28.6464 7.37421C28.5193 6.76477 28.2055 6.20496 27.7447 5.76558C27.2839 5.3262 26.6969 5.02698 26.0578 4.90575C25.4187 4.78452 24.7562 4.84674 24.1542 5.08453C23.5522 5.32233 23.0376 5.72501 22.6756 6.24167C22.3136 6.75833 22.1203 7.36576 22.1203 7.98714C22.1203 8.82038 22.4674 9.6195 23.0853 10.2087C23.7032 10.7979 24.5412 11.1289 25.415 11.1289ZM25.415 5.32873C25.9664 5.32873 26.5054 5.48464 26.9638 5.77675C27.4223 6.06886 27.7796 6.48405 27.9906 6.96981C28.2016 7.45557 28.2568 7.99009 28.1493 8.50577C28.0417 9.02145 27.7762 9.49513 27.3863 9.86692C26.9964 10.2387 26.4997 10.4919 25.9589 10.5945C25.4181 10.697 24.8576 10.6444 24.3482 10.4432C23.8388 10.242 23.4034 9.90124 23.097 9.46407C22.7907 9.0269 22.6272 8.51292 22.6272 7.98714C22.6272 7.63803 22.6993 7.29234 22.8394 6.96981C22.9795 6.64728 23.1849 6.35421 23.4437 6.10736C23.7026 5.8605 24.0099 5.66469 24.3482 5.53109C24.6864 5.39749 25.0489 5.32873 25.415 5.32873Z" fill="#353166"/>
<path id="Vector_84" d="M25.4147 10.1633C25.8659 10.1633 26.3069 10.0357 26.682 9.7967C27.0571 9.5577 27.3494 9.218 27.5221 8.82056C27.6947 8.42312 27.7399 7.98579 27.6519 7.56387C27.5638 7.14195 27.3466 6.75439 27.0276 6.4502C26.7086 6.14602 26.3022 5.93886 25.8597 5.85494C25.4173 5.77101 24.9586 5.81408 24.5419 5.97871C24.1251 6.14333 23.7688 6.42212 23.5182 6.7798C23.2676 7.13749 23.1338 7.55802 23.1338 7.9882C23.1338 8.56507 23.3741 9.1183 23.8019 9.5262C24.2296 9.93411 24.8098 10.1633 25.4147 10.1633ZM25.4147 6.29649C25.7656 6.29649 26.1086 6.39571 26.4004 6.58159C26.6921 6.76748 26.9195 7.03169 27.0538 7.34081C27.188 7.64993 27.2232 7.99008 27.1547 8.31824C27.0863 8.6464 26.9173 8.94784 26.6692 9.18443C26.4211 9.42102 26.105 9.58214 25.7608 9.64741C25.4167 9.71269 25.06 9.67918 24.7358 9.55114C24.4117 9.4231 24.1346 9.20627 23.9397 8.92807C23.7447 8.64987 23.6407 8.32279 23.6407 7.9882C23.6407 7.53953 23.8276 7.10924 24.1603 6.79198C24.493 6.47472 24.9442 6.29649 25.4147 6.29649Z" fill="#353166"/>
</g>
</svg>
