<svg width="31" height="30" viewBox="0 0 31 30" fill="none" xmlns="http://www.w3.org/2000/svg">
<g id="svgexport-17 - 2023-11-05T202416.561 1" clip-path="url(#clip0_13_55636)">
<g id="Group">
<g id="24-earth">
<path id="Vector" d="M15.5 10C16.2182 10.0003 16.9278 10.1552 17.5807 10.4543C18.2336 10.7533 18.8145 11.1896 19.2837 11.7332C19.7529 12.2769 20.0995 12.9153 20.2998 13.6049C20.5002 14.2945 20.5497 15.0192 20.4449 15.7297C20.3401 16.4401 20.0835 17.1197 19.6925 17.7221C19.3015 18.3245 18.7854 18.8356 18.1792 19.2206C17.573 19.6057 16.891 19.8556 16.1795 19.9534C15.4681 20.0512 14.7439 19.9947 14.0563 19.7875C13.9563 19.2375 13.8688 18.675 13.8 18.1C13.6839 17.0708 13.6255 16.0358 13.625 15C13.625 15.3709 13.735 15.7334 13.941 16.0417C14.147 16.3501 14.4399 16.5904 14.7825 16.7323C15.1251 16.8742 15.5021 16.9114 15.8658 16.839C16.2295 16.7667 16.5636 16.5881 16.8258 16.3259C17.0881 16.0636 17.2666 15.7295 17.339 15.3658C17.4113 15.0021 17.3742 14.6251 17.2323 14.2825C17.0904 13.9399 16.85 13.6471 16.5417 13.441C16.2334 13.235 15.8708 13.125 15.5 13.125C15.0027 13.125 14.5258 13.3226 14.1742 13.6742C13.8225 14.0258 13.625 14.5027 13.625 15C13.6242 13.3945 13.7685 11.7921 14.0563 10.2125C14.5246 10.0716 15.011 10 15.5 10Z" fill="#784132"/>
<path id="Vector_2" d="M15.5 16.875C16.5355 16.875 17.375 16.0356 17.375 15C17.375 13.9645 16.5355 13.125 15.5 13.125C14.4645 13.125 13.625 13.9645 13.625 15C13.625 16.0356 14.4645 16.875 15.5 16.875Z" fill="#D1093A"/>
<path id="Vector_3" d="M16.6562 26.875C16.5187 26.6688 16.3812 26.4438 16.25 26.2125H16.2562C19.1022 26.0248 21.7703 24.7618 23.7196 22.6797C25.6688 20.5976 26.7534 17.8522 26.7534 15C26.7534 12.1479 25.6688 9.40245 23.7196 7.32034C21.7703 5.23824 19.1022 3.97529 16.2562 3.78753H16.25C16.8097 2.69028 17.6241 1.74303 18.625 1.02503L18.6375 0.975029C21.8259 1.68723 24.6765 3.46457 26.7193 6.01407C28.7622 8.56357 29.8754 11.733 29.8754 15C29.8754 18.267 28.7622 21.4365 26.7193 23.986C24.6765 26.5355 21.8259 28.3128 18.6375 29.025L18.625 28.975C17.8246 28.4256 17.1529 27.7092 16.6562 26.875Z" fill="#BA624F"/>
<path id="Vector_4" d="M16.2563 3.78753C19.1023 3.97529 21.7703 5.23824 23.7196 7.32035C25.6689 9.40245 26.7534 12.1479 26.7534 15C26.7534 17.8522 25.6689 20.5976 23.7196 22.6797C21.7703 24.7618 19.1023 26.0248 16.2563 26.2125H16.25C15.6989 25.2189 15.2447 24.1745 14.8938 23.0938C15.0938 23.1063 15.2938 23.125 15.5 23.125C17.6549 23.125 19.7216 22.269 21.2453 20.7453C22.769 19.2215 23.625 17.1549 23.625 15C23.625 12.8451 22.769 10.7785 21.2453 9.25479C19.7216 7.73105 17.6549 6.87503 15.5 6.87503C15.2938 6.87503 15.0938 6.89378 14.8938 6.90628C15.2447 5.82557 15.6989 4.78117 16.25 3.78753H16.2563Z" fill="#FF636E"/>
<path id="Vector_5" d="M15.5 6.87503C17.6549 6.87503 19.7215 7.73105 21.2453 9.25479C22.769 10.7785 23.625 12.8451 23.625 15C23.625 17.1549 22.769 19.2215 21.2453 20.7453C19.7215 22.269 17.6549 23.125 15.5 23.125C15.2938 23.125 15.0938 23.1063 14.8938 23.0938C14.5339 22.0137 14.254 20.9087 14.0563 19.7875C14.8031 20.0125 15.5921 20.0596 16.3604 19.9252C17.1287 19.7907 17.8548 19.4784 18.4808 19.0132C19.1068 18.548 19.6153 17.9428 19.9656 17.2459C20.316 16.5491 20.4984 15.78 20.4984 15C20.4984 14.2201 20.316 13.451 19.9656 12.7541C19.6153 12.0573 19.1068 11.4521 18.4808 10.9869C17.8548 10.5217 17.1287 10.2093 16.3604 10.0749C15.5921 9.94043 14.8031 9.98757 14.0563 10.2125C14.254 9.0914 14.5339 7.98634 14.8938 6.90628C15.0938 6.89378 15.2938 6.87503 15.5 6.87503Z" fill="#FFC247"/>
<path id="Vector_6" d="M14.0563 10.2125C13.7685 11.7921 13.6242 13.3945 13.625 15C13.6255 16.0358 13.6839 17.0708 13.8 18.1L13.625 18.125C12.5813 18.1813 11.375 18.0438 10.3375 18.1938C9.80067 18.2276 9.2983 18.4698 8.9375 18.8688C8.78934 19.107 8.6994 19.3768 8.675 19.6563C8.58377 20.0948 8.60964 20.5497 8.75 20.975C8.875 21.2813 9.10625 21.55 9.2125 21.8625C9.30363 22.164 9.33338 22.4806 9.3 22.7938C9.27308 23.6476 9.53759 24.4852 10.05 25.1688C10.4475 25.5833 10.9072 25.9333 11.4125 26.2063C12.1946 26.68 13.0989 26.9126 14.0125 26.875H16.6563C17.1529 27.7092 17.8246 28.4256 18.625 28.975L18.6375 29.025C17.6082 29.2597 16.5557 29.3771 15.5 29.375C13.0283 29.3754 10.5983 28.7383 8.4447 27.5252C6.29115 26.3122 4.48688 24.5641 3.20625 22.45C3.39375 22.4 3.60625 22.35 3.75 22.2938C4.10671 22.1735 4.44056 21.9939 4.7375 21.7625C4.95923 21.581 5.14131 21.3558 5.27247 21.101C5.40364 20.8462 5.48108 20.5672 5.5 20.2813C5.5108 19.9961 5.46252 19.7117 5.35819 19.4461C5.25387 19.1804 5.09574 18.9392 4.89375 18.7375C4.4875 18.325 3.91875 18.0875 3.475 17.7C3.09984 17.3259 2.75501 16.9225 2.44375 16.4938C2.30673 16.2602 2.11858 16.0607 1.89343 15.9102C1.66828 15.7598 1.41198 15.6623 1.14375 15.625C1.13125 15.4188 1.125 15.2125 1.125 15C1.12451 14.3686 1.16837 13.7378 1.25625 13.1125C2.5884 13.1639 3.92247 13.1284 5.25 13.0063C5.71944 12.9596 6.17781 12.835 6.60625 12.6375C7.03774 12.4313 7.37022 12.0629 7.53125 11.6125C7.63125 11.275 7.60625 10.9125 7.70625 10.575C7.87334 10.1376 8.18117 9.76825 8.58125 9.52503C8.9625 9.25628 9.38125 9.05003 9.75 8.76253C10.2459 8.33822 10.6288 7.79753 10.8644 7.18888C11.1 6.58023 11.181 5.92265 11.1 5.27503C10.9005 4.02212 10.2917 2.87053 9.36875 2.00003C11.2849 1.09172 13.3795 0.621991 15.5 0.62503C16.5557 0.622972 17.6082 0.740385 18.6375 0.97503L18.625 1.02503C17.6241 1.74303 16.8097 2.69028 16.25 3.78753C15.6989 4.78117 15.2447 5.82557 14.8938 6.90628C14.5339 7.98634 14.254 9.0914 14.0563 10.2125Z" fill="#31C4FF"/>
<path id="Vector_7" d="M14.0562 19.7875C14.2539 20.9087 14.5339 22.0137 14.8937 23.0938C15.2447 24.1745 15.6988 25.2189 16.25 26.2125C16.3812 26.4438 16.5187 26.6688 16.6562 26.875H14.0125C13.0989 26.9126 12.1945 26.68 11.4125 26.2063C10.9072 25.9333 10.4475 25.5833 10.05 25.1688C9.53756 24.4852 9.27305 23.6476 9.29998 22.7938C9.33335 22.4806 9.3036 22.164 9.21248 21.8625C9.10623 21.55 8.87498 21.2813 8.74998 20.975C8.60961 20.5497 8.58374 20.0948 8.67498 19.6563C8.69938 19.3768 8.78931 19.107 8.93748 18.8688C9.29827 18.4698 9.80064 18.2276 10.3375 18.1938C11.375 18.0438 12.5812 18.1813 13.625 18.125L13.8 18.1C13.8687 18.675 13.9562 19.2375 14.0562 19.7875ZM11.1 5.27503C11.1809 5.92265 11.1 6.58023 10.8644 7.18888C10.6288 7.79753 10.2459 8.33822 9.74998 8.76253C9.38123 9.05003 8.96248 9.25628 8.58123 9.52503C8.18114 9.76825 7.87331 10.1376 7.70623 10.575C7.60623 10.9125 7.63123 11.275 7.53123 11.6125C7.3702 12.0629 7.03771 12.4313 6.60623 12.6375C6.17778 12.835 5.71941 12.9596 5.24998 13.0063C3.92244 13.1284 2.58837 13.1639 1.25623 13.1125C1.56883 10.7288 2.47558 8.46187 3.89313 6.52011C5.31068 4.57835 7.19357 3.02403 9.36872 2.00003C10.2917 2.87053 10.9004 4.02212 11.1 5.27503Z" fill="#C2FA93"/>
<path id="Vector_8" d="M4.8938 18.7375C5.09579 18.9392 5.25391 19.1804 5.35824 19.4461C5.46257 19.7117 5.51085 19.9961 5.50005 20.2813C5.48112 20.5672 5.40368 20.8462 5.27252 21.101C5.14136 21.3558 4.95928 21.581 4.73755 21.7625C4.44061 21.9939 4.10675 22.1735 3.75005 22.2938C3.6063 22.35 3.3938 22.4 3.2063 22.45C1.94904 20.3877 1.23913 18.0385 1.1438 15.625C1.41202 15.6623 1.66833 15.7598 1.89348 15.9102C2.11863 16.0607 2.30677 16.2602 2.4438 16.4938C2.75505 16.9225 3.09989 17.3259 3.47505 17.7C3.9188 18.0875 4.48755 18.325 4.8938 18.7375Z" fill="#00E8CF"/>
<path id="Vector_9" d="M15.5 13.125C15.5225 13.125 15.5431 13.1307 15.5656 13.1319C15.6348 12.0882 15.7707 11.0501 15.9725 10.0238C15.8155 10.0086 15.6578 10.0007 15.5 10C15.011 10 14.5246 10.0716 14.0563 10.2125C13.7685 11.7921 13.6242 13.3945 13.625 15C13.625 14.5027 13.8226 14.0258 14.1742 13.6742C14.5258 13.3226 15.0027 13.125 15.5 13.125ZM16.0075 19.9744C15.7921 18.95 15.646 17.9122 15.57 16.8682C15.5463 16.8682 15.5238 16.875 15.4994 16.875C15.0021 16.875 14.5252 16.6775 14.1736 16.3259C13.8219 15.9742 13.625 15.4973 13.625 15C13.6255 16.0358 13.6833 17.0708 13.7994 18.1C13.8681 18.675 13.9556 19.2375 14.0556 19.7875C14.6874 19.9777 15.3505 20.0414 16.0069 19.975L16.0075 19.9744Z" fill="#61362B"/>
<path id="Vector_10" d="M15.5 16.875C15.5244 16.875 15.5469 16.8688 15.5706 16.8682C15.4774 15.6245 15.4757 14.3758 15.5656 13.1319C15.5431 13.1319 15.5225 13.125 15.5 13.125C15.0027 13.125 14.5258 13.3226 14.1742 13.6742C13.8225 14.0258 13.625 14.5027 13.625 15C13.625 15.4973 13.8225 15.9742 14.1742 16.3259C14.5258 16.6775 15.0027 16.875 15.5 16.875Z" fill="#85002A"/>
<path id="Vector_11" d="M18.3988 25.8588C17.6977 26.0455 16.9802 26.164 16.2562 26.2125H16.25C16.3813 26.4438 16.5187 26.6688 16.6562 26.875C17.1529 27.7092 17.8246 28.4256 18.625 28.975L18.6375 29.025C19.4547 28.8431 20.2543 28.5894 21.0269 28.2669C19.9653 27.6937 19.0623 26.8663 18.3988 25.8588ZM18.2462 4.10753C18.8673 3.11591 19.6806 2.25865 20.6381 1.58628C19.9874 1.33371 19.3189 1.12941 18.6381 0.975029L18.625 1.02503C17.6241 1.74303 16.8097 2.69028 16.25 3.78753H16.2562C16.9278 3.83428 17.5939 3.94138 18.2462 4.10753Z" fill="#784132"/>
<path id="Vector_12" d="M18.3988 25.8588C17.7871 24.9675 17.2835 24.0065 16.8988 22.9963C16.4371 23.0795 15.9691 23.1226 15.5 23.125C15.2938 23.125 15.0938 23.1063 14.8938 23.0938C15.2447 24.1745 15.6989 25.2189 16.25 26.2125H16.2563C16.9802 26.164 17.6977 26.0455 18.3988 25.8588ZM16.82 6.9919C17.1867 5.98037 17.665 5.01293 18.2463 4.10753C17.5939 3.94138 16.9279 3.83428 16.2563 3.78753H16.25C15.6989 4.78117 15.2447 5.82557 14.8938 6.90628C15.0938 6.89378 15.2938 6.87503 15.5 6.87503C15.9425 6.878 16.384 6.91709 16.82 6.9919Z" fill="#D1093A"/>
<path id="Vector_13" d="M15.9725 10.0238C16.1745 8.99235 16.4579 7.97855 16.82 6.99191C16.3839 6.91709 15.9425 6.878 15.5 6.87503C15.2938 6.87503 15.0938 6.89378 14.8938 6.90628C14.5339 7.98634 14.254 9.0914 14.0563 10.2125C14.5246 10.0716 15.011 10 15.5 10C15.6594 10 15.8169 10.0094 15.9725 10.0238ZM16.8988 22.9963C16.5196 22.0151 16.2215 21.0044 16.0075 19.9744C15.3511 20.0408 14.688 19.9771 14.0563 19.7869C14.254 20.908 14.5339 22.0131 14.8938 23.0932C15.0938 23.1057 15.2938 23.1244 15.5 23.1244C15.9691 23.1222 16.4371 23.0793 16.8988 22.9963Z" fill="#FFA426"/>
<path id="Vector_14" d="M11.4125 26.2063C10.9072 25.9333 10.4475 25.5833 10.05 25.1688C9.53759 24.4852 9.27308 23.6476 9.3 22.7938C9.3 22.6063 9.3075 22.475 9.30313 22.3488C7.85948 21.6568 6.54122 20.7291 5.4025 19.6038C5.47334 19.8224 5.50632 20.0515 5.5 20.2813C5.48108 20.5672 5.40364 20.8462 5.27247 21.101C5.14131 21.3558 4.95923 21.581 4.7375 21.7625C4.44056 21.9939 4.10671 22.1735 3.75 22.2938C3.60625 22.35 3.39375 22.4 3.20625 22.45C4.48688 24.5641 6.29115 26.3122 8.4447 27.5252C10.5983 28.7383 13.0283 29.3754 15.5 29.375C16.5557 29.3771 17.6082 29.2597 18.6375 29.025L18.625 28.975C17.8246 28.4256 17.1529 27.7092 16.6563 26.875H14.0125C13.0989 26.9126 12.1946 26.68 11.4125 26.2063ZM2.44375 16.4938C2.75501 16.9226 3.09984 17.3259 3.475 17.7C3.68101 17.8708 3.89954 18.0258 4.12875 18.1638C2.96619 16.6642 2.11341 14.9484 1.62 13.1163L1.25625 13.1125C1.16837 13.7379 1.12451 14.3686 1.125 15C1.125 15.2125 1.13125 15.4188 1.14375 15.625C1.41198 15.6623 1.66828 15.7598 1.89343 15.9103C2.11858 16.0607 2.30673 16.2602 2.44375 16.4938Z" fill="#00A6FF"/>
<path id="Vector_15" d="M9.30005 22.7938C9.27313 23.6476 9.53763 24.4852 10.05 25.1688C10.4476 25.5833 10.9073 25.9333 11.4125 26.2063C12.1946 26.68 13.099 26.9126 14.0126 26.875H16.6563C16.5188 26.6688 16.3813 26.4438 16.2501 26.2125C15.8108 25.4194 15.4346 24.5928 15.125 23.7407C13.1085 23.6918 11.1249 23.2175 9.30442 22.3488C9.30755 22.475 9.30005 22.6044 9.30005 22.7938ZM4.73755 21.7625C4.95928 21.581 5.14136 21.3558 5.27252 21.101C5.40368 20.8462 5.48112 20.5672 5.50005 20.2813C5.50636 20.0515 5.47339 19.8224 5.40255 19.6038C4.94639 19.1535 4.52086 18.6733 4.1288 18.1663C3.89951 18.0275 3.68097 17.8716 3.47505 17.7C3.09989 17.3259 2.75505 16.9225 2.4438 16.4938C2.30677 16.2602 2.11863 16.0607 1.89348 15.9102C1.66833 15.7598 1.41202 15.6623 1.1438 15.625C1.23913 18.0385 1.94904 20.3877 3.2063 22.45C3.3938 22.4 3.6063 22.35 3.75005 22.2938C4.10675 22.1735 4.44061 21.9939 4.73755 21.7625Z" fill="#86C983"/>
<g id="Group_2">
<path id="Vector_16" d="M9.14399 6.15717C9.70195 5.59921 9.82937 4.822 9.4286 4.42122C9.02782 4.02044 8.25061 4.14787 7.69265 4.70583C7.13469 5.26379 7.00727 6.041 7.40804 6.44178C7.80882 6.84255 8.58603 6.71513 9.14399 6.15717Z" fill="#F6FAFD"/>
<path id="Vector_17" d="M6.28526 7.6793C6.56546 7.3991 6.62937 7.00871 6.42801 6.80735C6.22664 6.60598 5.83626 6.66989 5.55606 6.95009C5.27585 7.2303 5.21194 7.62068 5.41331 7.82205C5.61467 8.02341 6.00506 7.9595 6.28526 7.6793Z" fill="#F6FAFD"/>
<path id="Vector_18" d="M4.41172 15.1766C4.69193 14.8964 4.75584 14.506 4.55447 14.3047C4.35311 14.1033 3.96272 14.1672 3.68252 14.4474C3.40232 14.7276 3.33841 15.118 3.53977 15.3194C3.74114 15.5207 4.13152 15.4568 4.41172 15.1766Z" fill="#F6FAFD"/>
<path id="Vector_19" d="M7.82294 7.80902C7.96304 7.66892 7.9949 7.47362 7.8941 7.37282C7.79329 7.27202 7.598 7.30387 7.4579 7.44397C7.3178 7.58407 7.28594 7.77936 7.38675 7.88017C7.48755 7.98097 7.68284 7.94912 7.82294 7.80902Z" fill="#F6FAFD"/>
</g>
</g>
</g>
</g>
<defs>
<clipPath id="clip0_13_55636">
<rect width="30" height="30" fill="white" transform="translate(0.5 3.05176e-05)"/>
</clipPath>
</defs>
</svg>
