<svg width="29" height="30" viewBox="0 0 29 30" fill="none" xmlns="http://www.w3.org/2000/svg">
<g id="Group">
<path id="Vector" d="M23.4396 23.7174C25.7911 23.7174 27.4339 23.0445 28.141 21.7642V21.7642C29.0072 20.1957 28.2938 18.0323 26.1321 15.6726C24.1611 13.5209 21.168 11.3732 17.7042 9.62486C14.2403 7.87657 10.6969 6.72522 7.72665 6.38284C4.46897 6.0073 2.19797 6.6644 1.33175 8.23293C0.465521 9.8014 1.17892 11.9648 3.3406 14.3246C5.31164 16.4762 8.30469 18.624 11.7685 20.3723C15.2324 22.1206 18.7758 23.272 21.7461 23.6143C22.3447 23.6834 22.9102 23.7174 23.4396 23.7174ZM26.5626 20.9676C26.0804 21.8409 24.3597 22.197 21.9597 21.9204C19.2007 21.6024 15.8774 20.5168 12.6018 18.8635C9.32622 17.2102 6.51406 15.1991 4.68324 13.2006C3.09065 11.4621 2.42774 9.9028 2.91001 9.02956C3.39222 8.15637 5.11283 7.80018 7.51298 8.07687C10.2719 8.39487 13.5953 9.48047 16.8709 11.1338C20.1464 12.787 22.9586 14.7982 24.7894 16.7967C26.3819 18.5352 27.0448 20.0944 26.5626 20.9676Z" fill="#185AEA"/>
<path id="Vector_2" d="M7.72559 6.38285C9.85099 6.62779 12.2699 7.28721 14.7432 8.28295V10.1424C12.1825 9.04665 9.67396 8.32596 7.51198 8.07676C5.11182 7.80013 3.39121 8.15632 2.909 9.02945C2.4268 9.90269 3.08971 11.4619 4.68223 13.2004C6.513 15.199 9.32516 17.2101 12.6008 18.8634C13.3034 19.2183 14.0179 19.5512 14.7432 19.8615V21.7204C13.7549 21.3231 12.7579 20.8722 11.7675 20.3723C8.30363 18.624 5.31052 16.4761 3.33954 14.3245C1.17792 11.9647 0.464459 9.80135 1.33068 8.23288C2.19697 6.66435 4.46791 6.00731 7.72559 6.38285Z" fill="#185AEA"/>
<path id="Vector_3" d="M6.11709 24.0202C6.78782 24.0202 7.52128 23.9561 8.31192 23.8263C11.2048 23.3511 14.6177 22.0563 17.9218 20.1802C21.226 18.3042 24.0483 16.0589 25.869 13.8578C27.8657 11.4439 28.4534 9.29045 27.5238 7.79423C26.5943 6.29801 24.3351 5.76116 21.1623 6.28217C18.2695 6.75735 14.8566 8.05219 11.5524 9.92819C8.24835 11.8042 5.42601 14.0496 3.60537 16.2506C1.60864 18.6646 1.0209 20.818 1.95052 22.3142C2.64841 23.4376 4.09628 24.0202 6.11709 24.0202ZM23.3793 7.76017C24.7135 7.76017 25.6562 8.06634 26.0182 8.64908C26.5357 9.48198 25.9664 11.041 24.4954 12.8195C22.8043 14.8639 20.1522 16.9669 17.0277 18.7409C13.9031 20.5149 10.7025 21.735 8.01545 22.1764C5.67797 22.5604 3.97358 22.2923 3.45604 21.4593C2.93855 20.6264 3.50788 19.0674 4.97895 17.2889C6.67003 15.2445 9.32209 13.1415 12.4467 11.3674C15.5713 9.59339 18.7719 8.37336 21.4589 7.93201C22.1611 7.8167 22.8064 7.76017 23.3793 7.76017Z" fill="#00FFE7"/>
<path id="Vector_4" d="M11.5507 9.93043C12.6106 9.32867 13.6816 8.78706 14.7432 8.31273V10.1706C13.962 10.5432 13.1954 10.9432 12.445 11.3696C9.32037 13.1437 6.66831 15.2467 4.97723 17.2911C3.50622 19.0696 2.93682 20.6286 3.45431 21.4615C3.97186 22.2944 5.67625 22.5625 8.01372 22.1786C10.0479 21.8444 12.3763 21.0638 14.7432 19.9347V21.7932C12.4902 22.8013 10.2797 23.505 8.31026 23.8285C7.51962 23.9583 6.78615 24.0224 6.11543 24.0224C4.09461 24.0224 2.64674 23.4397 1.94885 22.3164C1.01923 20.8202 1.60703 18.6668 3.6037 16.2528C5.42428 14.0518 8.24663 11.8064 11.5507 9.93043Z" fill="#00DDC1"/>
<path id="Vector_5" d="M14.5762 29.4899C16.4157 29.4899 18.0902 27.8998 19.2953 25.0066C20.4021 22.3495 21.0399 18.8241 21.0914 15.0799C21.1429 11.3357 20.6021 7.79545 19.5689 5.11139C18.4356 2.16768 16.7898 0.533678 14.9346 0.510366C14.9213 0.510196 14.9078 0.510139 14.8944 0.510139C13.0549 0.510139 11.3804 2.10012 10.1754 4.99331C9.06869 7.65049 8.43081 11.1759 8.37926 14.9201C8.32776 18.6643 8.86851 22.2045 9.90188 24.8886C11.0351 27.8323 12.681 29.4663 14.5361 29.4896C14.5495 29.4898 14.5629 29.4899 14.5762 29.4899ZM14.8954 2.21639L14.9111 2.21651C15.9439 2.22946 17.0589 3.532 17.8939 5.7007C18.8536 8.1938 19.3554 11.5167 19.3068 15.0574C19.2581 18.5981 18.6651 21.9073 17.6371 24.3754C16.7474 26.5115 15.6039 27.7836 14.5752 27.7836C14.57 27.7836 14.5648 27.7836 14.5596 27.7835C13.5268 27.7705 12.4118 26.468 11.5769 24.2993C10.6171 21.8062 10.1153 18.4833 10.164 14.9425C10.2127 11.4018 10.8056 8.09257 11.8336 5.62449C12.7233 3.48837 13.8667 2.21639 14.8954 2.21639Z" fill="#122333"/>
<path id="Vector_6" d="M12.0043 16.5493C12.8998 17.9907 14.8481 18.4652 16.3558 17.6091C17.8636 16.753 18.36 14.8905 17.4644 13.4492C16.5689 12.0078 14.6207 11.5333 13.1129 12.3894C11.6051 13.2455 11.1088 15.1079 12.0043 16.5493Z" fill="#FA184B"/>
<path id="Vector_7" d="M13.1129 12.389C13.607 12.1076 14.172 11.9604 14.7471 11.9633V18.0342C13.66 18.0374 12.5996 17.5071 12.0043 16.549C11.1088 15.1077 11.6051 13.2451 13.1129 12.389Z" fill="#BD0533"/>
<path id="Vector_8" d="M10.1753 4.99314C11.3472 2.17939 12.9632 0.598807 14.7431 0.514046V2.22624C13.755 2.34399 12.6796 3.593 11.8335 5.62432C10.8055 8.0924 10.2125 11.4016 10.1639 14.9424C10.1152 18.4831 10.617 21.806 11.5768 24.2991C12.4117 26.4678 13.5267 27.7704 14.5595 27.7833C14.5647 27.7834 14.5699 27.7834 14.5751 27.7834C14.6308 27.7834 14.6869 27.779 14.7432 27.7716V29.4852C14.6742 29.4889 14.6051 29.4903 14.5361 29.4895C12.6809 29.4662 11.0351 27.8321 9.90184 24.8884C8.86847 22.2044 8.32778 18.6642 8.37921 14.92C8.43071 11.1758 9.06858 7.65032 10.1753 4.99314Z" fill="#122333"/>
<path id="Vector_9" d="M1.82161 23.3966C2.4245 24.3671 3.73624 24.6865 4.75138 24.1102C5.76652 23.5338 6.1007 22.2798 5.49775 21.3094C4.89485 20.3389 3.58312 20.0195 2.56798 20.5958C1.55283 21.1722 1.21865 22.4262 1.82161 23.3966Z" fill="#FFD396"/>
<path id="Vector_10" d="M2.56674 20.5956C2.89937 20.4062 3.27979 20.3071 3.66699 20.309V24.3964C2.93513 24.3985 2.22113 24.0415 1.82037 23.3964C1.21741 22.426 1.55159 21.172 2.56674 20.5956Z" fill="#FF9F00"/>
<path id="Vector_11" d="M23.4241 8.33627C24.027 9.30672 25.3388 9.62619 26.3539 9.04983C27.3691 8.47348 27.7032 7.21949 27.1003 6.24904C26.4974 5.27859 25.1857 4.95913 24.1705 5.53548C23.1554 6.11183 22.8212 7.36582 23.4241 8.33627Z" fill="#FFD396"/>
<path id="Vector_12" d="M24.1683 5.5353C24.5009 5.34583 24.8814 5.24672 25.2686 5.24865V9.33603C24.5367 9.33818 23.8227 8.98119 23.4219 8.33609C22.819 7.36564 23.1532 6.11171 24.1683 5.5353Z" fill="#FF9F00"/>
</g>
</svg>
