<svg width="13" height="13" viewBox="0 0 13 13" fill="none" xmlns="http://www.w3.org/2000/svg">
<g clip-path="url(#clip0_3127_89093)">
<path d="M6.89978 0.5C3.58359 0.5 0.89978 3.1835 0.89978 6.5C0.89978 9.81615 3.58328 12.5 6.89978 12.5C10.216 12.5 12.8998 9.8165 12.8998 6.5C12.8998 3.18385 10.2163 0.5 6.89978 0.5ZM7.51593 8.88174C7.51593 9.0713 7.23951 9.26082 6.8999 9.26082C6.54449 9.26082 6.29179 9.0713 6.29179 8.88174V5.87267C6.29179 5.65154 6.54451 5.50145 6.8999 5.50145C7.23951 5.50145 7.51593 5.65154 7.51593 5.87267V8.88174ZM6.89992 4.77491C6.53662 4.77491 6.25232 4.50638 6.25232 4.20624C6.25232 3.90612 6.53664 3.6455 6.89992 3.6455C7.25533 3.6455 7.53967 3.90612 7.53967 4.20624C7.53967 4.50638 7.2553 4.77491 6.89992 4.77491Z" fill="#FC8888"/>
</g>
<defs>
<clipPath id="clip0_3127_89093">
<rect width="12" height="12" fill="white" transform="translate(0.89978 0.5)"/>
</clipPath>
</defs>
</svg>
