<svg width="23" height="22" viewBox="0 0 23 22" fill="none" xmlns="http://www.w3.org/2000/svg">
<g id="vuesax/linear/global">
<g id="global">
<path id="Vector" d="M11.543 19.5531C6.67595 19.5531 2.73038 15.6075 2.73038 10.7404C2.73038 5.8733 6.67595 1.92773 11.543 1.92773C16.4101 1.92773 20.3557 5.8733 20.3557 10.7404C20.3557 15.6075 16.4101 19.5531 11.543 19.5531Z" stroke="white" stroke-width="1.05752" stroke-linecap="round" stroke-linejoin="round"/>
<path id="Vector_2" d="M15.068 2.81055H14.1867C15.9052 7.95714 15.9052 13.5267 14.1867 18.6733H15.068" stroke="white" stroke-width="1.05752" stroke-linecap="round" stroke-linejoin="round"/>
<path id="Vector_3" d="M8.89917 2.81055C7.1807 7.95714 7.1807 13.5267 8.89917 18.6733" stroke="white" stroke-width="1.05752" stroke-linecap="round" stroke-linejoin="round"/>
<path id="Vector_4" d="M19.4744 14.266V13.3848C14.3278 15.1032 8.75817 15.1032 3.61157 13.3848V14.266" stroke="white" stroke-width="1.05752" stroke-linecap="round" stroke-linejoin="round"/>
<path id="Vector_5" d="M19.4744 8.09745C14.3278 6.37898 8.75817 6.37898 3.61157 8.09745" stroke="white" stroke-width="1.05752" stroke-linecap="round" stroke-linejoin="round"/>
</g>
</g>
</svg>
