<svg width="39" height="38" viewBox="0 0 39 38" fill="none" xmlns="http://www.w3.org/2000/svg">
<g id="users-group-outline">
<g id="Vector">
<path d="M26.6243 3.16686C25.4868 3.17034 24.3712 3.48116 23.3958 4.06644C22.4203 4.65173 21.6211 5.48974 21.0827 6.49185C22.1265 6.70734 23.1155 7.13291 23.9897 7.74268C24.2784 7.30856 24.6698 6.95244 25.1292 6.70594C25.5886 6.45943 26.1018 6.33017 26.6232 6.32962C27.1445 6.32907 27.6579 6.45726 28.1179 6.7028C28.5778 6.94834 28.97 7.30364 29.2596 7.73716C29.5492 8.17067 29.7273 8.66899 29.7781 9.18787C29.8289 9.70675 29.7507 10.2301 29.5507 10.7116C29.3506 11.193 29.0347 11.6176 28.6311 11.9476C28.2275 12.2777 27.7487 12.503 27.2371 12.6035C27.4657 13.6459 27.4738 14.7245 27.2608 15.7702C28.8801 15.6161 30.3775 14.8433 31.4412 13.6127C32.5048 12.3821 33.0527 10.7886 32.9706 9.16408C32.8886 7.53958 32.183 6.00937 31.0008 4.89218C29.8185 3.77499 28.2509 3.15698 26.6243 3.16686Z" fill="#111928"/>
<path d="M19.4993 20.5835C18.2467 20.5835 17.0222 20.212 15.9807 19.5161C14.9392 18.8202 14.1275 17.8311 13.6481 16.6738C13.1688 15.5166 13.0433 14.2431 13.2877 13.0146C13.5321 11.786 14.1353 10.6576 15.021 9.77183C15.9067 8.8861 17.0352 8.28291 18.2638 8.03854C19.4923 7.79417 20.7657 7.91959 21.923 8.39894C23.0803 8.87829 24.0694 9.69005 24.7653 10.7316C25.4612 11.7731 25.8327 12.9975 25.8327 14.2502C25.8327 15.9299 25.1654 17.5408 23.9777 18.7285C22.79 19.9162 21.1791 20.5835 19.4993 20.5835ZM19.4993 11.0835C18.873 11.0835 18.2608 11.2692 17.74 11.6172C17.2193 11.9651 16.8134 12.4597 16.5737 13.0383C16.3341 13.617 16.2713 14.2537 16.3935 14.8679C16.5157 15.4822 16.8173 16.0465 17.2602 16.4893C17.703 16.9322 18.2673 17.2338 18.8816 17.356C19.4958 17.4782 20.1325 17.4154 20.7112 17.1758C21.2898 16.9361 21.7844 16.5302 22.1323 16.0095C22.4803 15.4887 22.666 14.8765 22.666 14.2502C22.666 13.4103 22.3324 12.6049 21.7385 12.011C21.1447 11.4171 20.3392 11.0835 19.4993 11.0835Z" fill="#111928"/>
<path d="M27.416 34.8334H11.5827C11.1628 34.8334 10.76 34.6666 10.4631 34.3697C10.1662 34.0727 9.99935 33.67 9.99935 33.2501V30.0834C10.0019 27.9846 10.8367 25.9724 12.3209 24.4883C13.805 23.0042 15.8172 22.1693 17.916 22.1668H21.0827C23.1815 22.1693 25.1937 23.0042 26.6778 24.4883C28.162 25.9724 28.9968 27.9846 28.9993 30.0834V33.2501C28.9993 33.67 28.8325 34.0727 28.5356 34.3697C28.2387 34.6666 27.8359 34.8334 27.416 34.8334ZM13.166 31.6668H25.8327V30.0834C25.8327 28.8237 25.3322 27.6155 24.4414 26.7247C23.5506 25.8339 22.3425 25.3335 21.0827 25.3335H17.916C16.6562 25.3335 15.4481 25.8339 14.5573 26.7247C13.6665 27.6155 13.166 28.8237 13.166 30.0834V31.6668Z" fill="#111928"/>
<path d="M11.5827 14.2502C11.5843 13.6971 11.6437 13.1458 11.76 12.6051C11.2484 12.5045 10.7696 12.2793 10.366 11.9492C9.96241 11.6192 9.64655 11.1946 9.44646 10.7132C9.24637 10.2317 9.16825 9.70833 9.21903 9.18945C9.2698 8.67057 9.44791 8.17225 9.73753 7.73874C10.0272 7.30523 10.4193 6.94993 10.8793 6.70439C11.3392 6.45884 11.8526 6.33066 12.374 6.3312C12.8953 6.33175 13.4085 6.46101 13.8679 6.70752C14.3273 6.95402 14.7187 7.31014 15.0074 7.74426C15.8819 7.13374 16.8715 6.70762 17.916 6.49185C17.3993 5.53177 16.6428 4.72183 15.7202 4.1409C14.7975 3.55997 13.7402 3.22785 12.6511 3.17686C11.562 3.12586 10.4782 3.35775 9.50534 3.84993C8.53246 4.34212 7.7036 5.07783 7.09945 5.98543C6.49531 6.89304 6.13647 7.94162 6.05787 9.02908C5.97927 10.1165 6.1836 11.2058 6.65095 12.1909C7.1183 13.1759 7.83276 14.0232 8.72476 14.6501C9.61675 15.2771 10.6559 15.6624 11.741 15.7686C11.6392 15.2688 11.5862 14.7602 11.5827 14.2502Z" fill="#111928"/>
<path d="M27.416 17.4168H26.7368C26.0892 18.8739 25.0212 20.1045 23.6698 20.9508C23.7363 20.9698 23.7965 21.003 23.8646 21.0236C24.4809 20.7357 25.1525 20.5855 25.8327 20.5835H27.416C28.6758 20.5835 29.884 21.0839 30.7748 21.9747C31.6656 22.8655 32.166 24.0737 32.166 25.3334V26.9168H30.0333C30.3958 27.9332 30.5817 29.0043 30.5827 30.0834H33.7493C34.1693 30.0834 34.572 29.9166 34.8689 29.6197C35.1659 29.3228 35.3327 28.92 35.3327 28.5001V25.3334C35.3302 23.2346 34.4953 21.2224 33.0112 19.7383C31.5271 18.2542 29.5149 17.4193 27.416 17.4168Z" fill="#111928"/>
<path d="M8.96543 26.9168H6.83268V25.3334C6.83268 24.0737 7.33313 22.8655 8.22393 21.9747C9.11472 21.0839 10.3229 20.5835 11.5827 20.5835H13.166C13.8467 20.5855 14.5189 20.7357 15.1357 21.0236C15.2022 21.003 15.2623 20.9698 15.3288 20.9508C13.9775 20.1045 12.9095 18.8739 12.2619 17.4168H11.5827C9.48382 17.4193 7.47165 18.2542 5.98753 19.7383C4.50341 21.2224 3.66853 23.2346 3.66602 25.3334V28.5001C3.66602 28.92 3.83283 29.3228 4.12976 29.6197C4.4267 29.9166 4.82942 30.0834 5.24935 30.0834H8.41602C8.41704 29.0043 8.60287 27.9332 8.96543 26.9168Z" fill="#111928"/>
</g>
</g>
</svg>
